<?xml version="1.0" encoding="UTF-8" standalone="no"?>
<!-- Generator: Adobe Illustrator 16.0.0, SVG Export Plug-In . SVG Version: 6.00 Build 0)  -->

<svg
     version="1.1"
     id="Layer_1"
     x="0px"
     y="0px"
     width="180"
     height="180"
     viewBox="0 0 180 180"
     enable-background="new 0 0 43.2 43.2"
     xml:space="preserve"
     sodipodi:docname="D4.svg"
     inkscape:version="1.2.2 (732a01da63, 2022-12-09)"
     xmlns:inkscape="http://www.inkscape.org/namespaces/inkscape"
     xmlns:sodipodi="http://sodipodi.sourceforge.net/DTD/sodipodi-0.dtd"
     xmlns="http://www.w3.org/2000/svg"
     xmlns:svg="http://www.w3.org/2000/svg"><defs
     id="defs1293" /><sodipodi:namedview
     id="namedview1291"
     pagecolor="#ffffff"
     bordercolor="#999999"
     borderopacity="1"
     inkscape:showpageshadow="0"
     inkscape:pageopacity="0"
     inkscape:pagecheckerboard="0"
     inkscape:deskcolor="#d1d1d1"
     showgrid="false"
     inkscape:zoom="2.8284271"
     inkscape:cx="63.816388"
     inkscape:cy="108.71767"
     inkscape:window-width="2560"
     inkscape:window-height="1351"
     inkscape:window-x="1491"
     inkscape:window-y="585"
     inkscape:window-maximized="1"
     inkscape:current-layer="Layer_1" />

<rect
     style="fill:#241924;fill-opacity:1;stroke-width:30.5721;paint-order:markers fill stroke"
     id="rect1466"
     width="180"
     height="180"
     x="0"
     y="0" />





















































































































































<path
     style="fill:#7d567d;stroke-width:4.38964;paint-order:markers fill stroke;fill-opacity:1"
     d="m 27.54773,144.23702 c -0.45096,-1.17514 0.83344,-3.79437 7.41697,-15.12518 6.36098,-10.94775 8.31985,-14.34636 11.27142,-19.55591 1.54929,-2.73452 4.38917,-7.65664 6.31083,-10.938064 1.92165,-3.28142 6.23952,-10.73918 9.59524,-16.57282 6.55153,-11.38925 11.83346,-20.503098 17.09653,-29.499607 1.81303,-3.099116 4.4652,-7.770315 5.89373,-10.380443 4.29532,-7.848185 5.26505,-7.935249 9.21962,-0.82775 1.29984,2.336184 4.0592,7.15614 6.13194,10.711009 6.50293,11.152961 11.07109,19.040131 17.37377,29.996791 3.35572,5.83364 7.67357,13.2914 9.59524,16.57282 1.92165,3.281424 4.76152,8.203544 6.31081,10.938064 3.14247,5.54644 5.52631,9.66589 11.50842,19.88737 5.94797,10.16316 7.62429,13.63592 7.16272,14.8387 -0.37443,0.97578 -5.93673,1.0712 -62.43498,1.0712 -57.52947,0 -62.05499,-0.0808 -62.45226,-1.11618 z"
     id="path369" /></svg>
