<?xml version="1.0" encoding="utf-8"?>
<!-- Generator: Adobe Illustrator 22.1.0, SVG Export Plug-In . SVG Version: 6.00 Build 0)  -->
<svg version="1.1" id="Layer_1" xmlns="http://www.w3.org/2000/svg" xmlns:xlink="http://www.w3.org/1999/xlink" x="0px" y="0px"
	 viewBox="0 0 1422 1422" style="enable-background:new 0 0 1422 1422;" xml:space="preserve">
<style type="text/css">
	.st0{fill-opacity:0.5;}
	.st1{fill:none;stroke:#00A54F;stroke-miterlimit:10;}
	.st2{fill:none;stroke:#27A8E0;stroke-miterlimit:10;}
	.st3{fill:none;stroke:#27A8E0;stroke-miterlimit:10;stroke-dasharray:11.847,11.847;}
	.st4{fill:none;stroke:#27A8E0;stroke-miterlimit:10;stroke-dasharray:11.8539,11.8539;}
	.st5{fill:none;stroke:#27A8E0;stroke-miterlimit:10;stroke-dasharray:12;}
	.st6{fill:none;stroke:#EB232A;stroke-width:0.9921;stroke-linecap:round;stroke-linejoin:round;stroke-miterlimit:10;}
	.st7{fill:none;stroke:#929497;stroke-width:1.5906;}
	.st8{fill:#231F20;}
	.st9{font-family:'Arial-Black';}
	.st10{font-size:14.3173px;}
	.st11{fill:#2BA6DE;}
	.st12{font-family:'Arial-BoldMT';}
	.st13{font-size:11.931px;}
	.st14{fill:#EC1E28;}
	.st15{fill:#929497;}
	.st16{fill:none;stroke:#00ADEE;stroke-width:1.5906;stroke-miterlimit:10;stroke-dasharray:19.0873;}
	.st17{fill:none;stroke:#EC1E28;stroke-width:1.5906;}
	.st18{fill:#D0D2D3;}
	.st19{font-size:9.83px;}
	.st20{fill-rule:evenodd;clip-rule:evenodd;}
	.st21{fill-rule:evenodd;clip-rule:evenodd;fill:#B7D333;}
	.st22{fill-rule:evenodd;clip-rule:evenodd;fill:#FFFFFF;}
	.st23{fill-rule:evenodd;clip-rule:evenodd;fill:#4C4849;}
	.st24{fill:#4C4849;}
	.st25{fill:none;}
	.st26{fill:#FFFFFF;}
</style>
<path class="st0" d="M1422,1422H0V0h1422V1422z M1337.2,310.7H1111l84.8-84.8V89.8H1116l-5-5l-5-72H315.7l-5,72l-5,5h-79.7v136.1
	l84.7,84.7v0.2v0.1H84.8l-72,5v790.2l72,5h226l-84.8,84.8v136.1h79.9l5,5l5,72h790.2l5-72l5-5h79.7v-136.1l-84.7-84.7v-0.3h226.1
	l72-5V315.8L1337.2,310.7"/>
<rect x="310.6" y="311" class="st1" width="800.5" height="800.1"/>
<g>
	<g>
		<polyline class="st2" points="325.6,1102 319.6,1102 319.6,1096 		"/>
		<line class="st3" x1="319.6" y1="1084.2" x2="319.6" y2="331.9"/>
		<polyline class="st2" points="319.6,326 319.6,320 325.6,320 		"/>
		<line class="st4" x1="337.5" y1="320" x2="1090.2" y2="320"/>
		<polyline class="st2" points="1096.1,320 1102.1,320 1102.1,326 		"/>
		<line class="st3" x1="1102.1" y1="337.8" x2="1102.1" y2="1090.1"/>
		<polyline class="st2" points="1102.1,1096 1102.1,1102 1096.1,1102 		"/>
		<line class="st4" x1="1084.3" y1="1102" x2="331.6" y2="1102"/>
	</g>
</g>
<rect x="310.6" y="89.8" class="st1" width="800.5" height="221.2"/>
<rect x="319.6" y="98.8" class="st5" width="782.5" height="203.2"/>
<rect x="310.6" y="1111" class="st1" width="800.5" height="221.2"/>
<rect x="319.6" y="1120" class="st5" width="782.5" height="203.2"/>
<line class="st1" x1="1332.1" y1="310.7" x2="1332.1" y2="1111.3"/>
<rect x="1119.9" y="319.7" class="st5" width="203.2" height="782.5"/>
<line class="st1" x1="89.7" y1="1111.3" x2="89.7" y2="310.7"/>
<rect x="98.7" y="319.7" class="st5" width="203.2" height="782.5"/>
<polyline class="st6" points="1337.2,310.7 1111,310.7 1195.9,225.9 1195.9,89.8 1116,89.8 1110.9,84.8 1105.9,12.8 315.7,12.8 
	310.6,84.8 305.6,89.8 225.9,89.8 225.9,225.9 310.6,310.6 310.6,310.9 310.6,311 84.8,311 12.8,316 12.8,1106.2 84.8,1111.3 
	310.7,1111.3 225.9,1196.1 225.9,1332.2 305.8,1332.2 310.9,1337.2 315.9,1409.2 1106.1,1409.2 1111.1,1337.2 1116.2,1332.2 
	1195.9,1332.2 1195.9,1196.1 1111.1,1111.4 1111.1,1111 1337.2,1111 1409.2,1106 1409.2,315.8 1337.2,310.7 "/>
<line class="st7" x1="968" y1="554.5" x2="1422" y2="554.5"/>
<text transform="matrix(0.9979 0 0 1 979.792 373.1401)"><tspan x="0" y="0" class="st8 st9 st10">Safe Zone</tspan><tspan x="-88.3" y="14.3" class="st11 st12 st13">DO NOT place ANY important</tspan><tspan x="-57.1" y="28.6" class="st11 st12 st13">text/images beyond this</tspan><tspan x="-92.2" y="43" class="st11 st12 st13">dotted line. Anything past the </tspan><tspan x="-102.2" y="57.3" class="st11 st12 st13">dotted line has the potential for </tspan><tspan x="-128.7" y="71.6" class="st11 st12 st13">being trimmed. This line is provided </tspan><tspan x="-149.3" y="85.9" class="st11 st12 st13">to prevent trimming of your text/images.</tspan><tspan x="4.8" y="117.4" class="st8 st9 st10">Trim Line</tspan><tspan x="-74.4" y="131.7" class="st14 st12 st13">This is the actual cutline of</tspan><tspan x="-20" y="146" class="st14 st12 st13">your final design.</tspan><tspan x="-9.5" y="177.5" class="st8 st9 st10">Bleed Zone</tspan><tspan x="-134" y="191.9" class="st15 st12 st13">Extend any game artwork/color to the</tspan><tspan x="-154.6" y="206.2" class="st15 st12 st13">edge (covering the gray) if you want your</tspan><tspan x="-149.9" y="220.5" class="st15 st12 st13">design to extend to the edge on the final</tspan><tspan x="-190.4" y="234.8" class="st15 st12 st13">print. We require a bleed of 1/8”. Please use the</tspan><tspan x="-170.5" y="249.1" class="st15 st12 st13"> Safe Zone guide line to prevent trimming of</tspan><tspan x="-171.9" y="263.4" class="st15 st12 st13"> essential text/images. The bleed is to make </tspan><tspan x="-228.8" y="277.8" class="st15 st12 st13">sure your design/color extends to the edge of the box.</tspan><tspan x="-37.3" y="310.7" class="st8 st9 st10">PLEASE NOTE:</tspan><tspan x="-139.3" y="325" class="st8 st9 st13">Remove this layer before sending</tspan><tspan x="-110.1" y="339.3" class="st8 st9 st13">the file to print. This layer is </tspan><tspan x="-122.8" y="353.6" class="st8 st9 st13">provided as a guide for set up. </tspan><tspan x="-55.8" y="368" class="st8 st9 st13">DELETE AFTER USE.</tspan></text>
<line class="st16" x1="978.8" y1="374.5" x2="1102.6" y2="374.5"/>
<g>
	<path class="st14" d="M978.8,360.6c0,0.8-0.4,1.6-1.1,2.4l-0.1,0.1l-6.5,6.8c-1.4,1.4-2.5,2.6-3.5,3.4c-1,0.8-1.6,1.2-2,1.2
		c-0.4,0-0.9-0.2-1.6-0.6c-0.6-0.4-1-0.8-1.2-1.2c-0.2-0.3-0.3-1.1-0.4-2.2c-0.1-1.1-0.2-2.4-0.2-3.7c0-0.7,0.3-1.4,0.9-2
		c0.6-0.6,1.3-0.9,2-0.9c0.7,0,1.1,0.6,1.2,1.9c0,0.1,0,0.3,0,0.3c0.1,1,0.2,1.6,0.4,2c0.1,0.4,0.3,0.6,0.6,0.6
		c0.1,0,0.3-0.1,0.6-0.3c0.3-0.2,0.6-0.5,1-0.9l6.6-6.6c0.6-0.6,1.1-1,1.5-1.3c0.4-0.3,0.8-0.4,1.1-0.4c0.2,0,0.4,0.1,0.5,0.3
		c0.1,0.2,0.1,0.5,0.1,0.9V360.6z"/>
</g>
<g>
	<path class="st14" d="M983.9,477.1c0,0.8-0.4,1.6-1.1,2.4l-0.1,0.1l-6.5,6.8c-1.4,1.4-2.5,2.6-3.5,3.4c-1,0.8-1.6,1.2-2,1.2
		c-0.4,0-0.9-0.2-1.6-0.6c-0.6-0.4-1-0.8-1.2-1.2c-0.2-0.4-0.3-1.1-0.4-2.2c-0.1-1.1-0.2-2.4-0.2-3.7c0-0.7,0.3-1.4,0.9-2
		c0.6-0.6,1.3-0.9,2-0.9c0.7,0,1.1,0.6,1.2,1.9c0,0.1,0,0.3,0,0.3c0.1,1,0.2,1.6,0.4,2c0.1,0.4,0.3,0.6,0.6,0.6
		c0.1,0,0.3-0.1,0.6-0.3c0.3-0.2,0.6-0.5,1-0.9l6.6-6.6c0.6-0.6,1.1-1,1.5-1.3c0.4-0.3,0.8-0.4,1.1-0.4c0.2,0,0.4,0.1,0.5,0.3
		c0.1,0.2,0.1,0.5,0.1,0.9V477.1z"/>
</g>
<g>
	<path class="st14" d="M968,537.6c0,0.8-0.4,1.6-1.1,2.4l-0.1,0.1l-6.5,6.8c-1.4,1.4-2.5,2.6-3.5,3.4c-1,0.8-1.6,1.2-2,1.2
		c-0.4,0-0.9-0.2-1.6-0.6c-0.6-0.4-1-0.8-1.2-1.2c-0.2-0.4-0.3-1.1-0.4-2.2c-0.1-1.1-0.2-2.4-0.2-3.7c0-0.7,0.3-1.4,0.9-2
		c0.6-0.6,1.3-0.9,2-0.9c0.7,0,1.1,0.6,1.2,1.9c0,0.1,0,0.3,0,0.3c0.1,1,0.2,1.7,0.4,2c0.1,0.4,0.3,0.6,0.6,0.6
		c0.1,0,0.3-0.1,0.6-0.3c0.3-0.2,0.6-0.5,1-0.9l6.6-6.6c0.6-0.6,1.1-1,1.5-1.3c0.4-0.3,0.8-0.4,1.1-0.4c0.2,0,0.4,0.1,0.5,0.3
		c0.1,0.2,0.1,0.5,0.1,0.9V537.6z"/>
</g>
<g>
	<path class="st14" d="M942.6,670.7c0,0.8-0.4,1.6-1.1,2.4l-0.1,0.1l-6.5,6.8c-1.4,1.4-2.5,2.6-3.5,3.4c-1,0.8-1.6,1.2-2,1.2
		c-0.4,0-0.9-0.2-1.6-0.6c-0.6-0.4-1-0.8-1.2-1.2c-0.2-0.3-0.3-1.1-0.4-2.2c-0.1-1.1-0.2-2.4-0.2-3.7c0-0.7,0.3-1.4,0.9-2
		c0.6-0.6,1.3-0.9,2-0.9c0.7,0,1.1,0.6,1.2,1.9c0,0.1,0,0.3,0,0.3c0.1,1,0.2,1.6,0.4,2c0.1,0.4,0.3,0.6,0.6,0.6
		c0.1,0,0.3-0.1,0.6-0.3c0.3-0.2,0.6-0.5,1-0.9l6.6-6.6c0.6-0.6,1.1-1,1.5-1.3c0.4-0.3,0.8-0.4,1.1-0.4c0.2,0,0.4,0.1,0.5,0.3
		c0.1,0.2,0.1,0.5,0.1,0.9V670.7z"/>
</g>
<line class="st17" x1="980.6" y1="493.9" x2="1409.2" y2="493.9"/>
<rect x="9" y="1275.2" class="st18" width="136.5" height="137.8"/>
<text transform="matrix(0.9979 0 0 1 11.8974 1392.8066)"><tspan x="0" y="0" class="st8 st12 st19">Large Stout Box TOP</tspan><tspan x="0" y="14.7" class="st8 st12 st19">www.thegamecrafter.com</tspan></text>
<g>
	<path class="st20" d="M131.3,1331c0,28.1-22.7,50.9-50.8,50.9c-28.1,0-50.8-22.8-50.8-50.9c0-28.1,22.7-50.9,50.8-50.9
		C108.6,1280,131.3,1302.8,131.3,1331z"/>
	<path class="st21" d="M126.8,1331.2c0,25.6-20.7,46.3-46.2,46.3c-25.5,0-46.2-20.7-46.2-46.3c0-25.6,20.7-46.3,46.2-46.3
		C106.1,1285,126.8,1305.7,126.8,1331.2z"/>
	<g>
		<path d="M70.7,1321.1c-0.6,5.7-1.1,10.2-1.4,13.7l-2.1,0.1c0-0.1,0-0.2,0-0.4c0-0.3-0.1-0.6-0.3-1c-0.2-0.4-0.3-0.7-0.3-0.8
			c-0.5,0.1-1.1,0.5-1.6,1.1c-0.5,0.7-1,1-1.3,1c-0.2,0-0.5-0.1-0.8-0.2c-0.4,0.3-0.9,0.4-1.5,0.3c-0.5-0.1-1.1-0.2-1.6-0.2
			c0-0.7-0.7-1.3-2.1-1.9c0-0.3-0.1-0.7-0.4-1.3c-0.3-0.6-0.4-1-0.4-1.2c0-0.3,0.1-0.5,0.3-0.6c0-0.1-0.3-0.6-0.7-1.6
			c-0.3-0.7-0.4-1.3-0.4-1.9c0-0.4,0.1-0.8,0.3-1.1c-0.2-2.4-0.4-4.5-0.3-6.3c0-2.7,0.4-5.2,1.2-7.4c-0.1-0.3-0.1-0.7-0.1-1
			c0-1.8,0.7-3.1,1.9-3.8l0-0.6c1.2-1.5,2.8-2.6,4.7-3.3c1.2,0.3,2.3,0.5,3.5,0.8c1.3,0.5,2.2,1.2,2.7,2.3c0.4,0.2,0.6,0.7,0.6,1.4
			c0,0.8,0.1,1.3,0.3,1.6l-0.2,0.3c0.2,1.7,0.3,2.7,0.3,3.1c0,1.1-0.3,1.9-0.9,2.3c-0.2,0-0.7-0.2-1.6-0.5c-0.2,0.2-0.4,0.3-0.6,0.3
			c-0.1,0-0.3-0.1-0.6-0.2c-0.3-0.1-0.5-0.2-0.8-0.2c-0.1,0-0.3,0-0.4,0.1c0-2.3,0.1-4,0.2-5.1c-0.2-0.1-0.5-0.5-0.7-1
			c-0.2-0.5-0.5-0.8-0.9-0.9c-0.2,0.3-0.3,0.5-0.3,0.6l-0.8-0.3c-0.7,0.8-1.2,2.1-1.4,4c-0.2,2.2-0.5,3.6-0.9,4.3
			c0.3,0.3,0.5,0.8,0.4,1.3c0,0.2,0,0.5-0.1,1c-0.1,0.5-0.1,0.8-0.1,1c0,0.3,0,0.5,0.1,0.7l-0.5,0.5c0.2,1,0.3,2.2,0.4,3.7
			c0,1.3,0,2.5,0,3.8c0,0-0.3,0-0.7,0c-0.3,0-0.5,0.1-0.6,0.3c0.2,0,0.3,0,0.5,0c0.6,0,1.1,0.5,1.5,1.3c0.4,0.9,0.7,1.3,0.9,1.3
			c0.3,0,0.7-0.3,1.2-0.8c0.8-0.9,1.3-2.1,1.3-3.7c0-0.8-0.1-1.6-0.3-2.5c-0.2,0.1-0.3,0.4-0.3,0.9c-0.5,0-0.7,0.1-0.9,0.3
			c-0.2-0.1-0.3-0.2-0.2-0.5c0-0.4,0.1-0.6,0.1-0.6c0.3-0.1,0.5-0.3,0.5-0.5c0-0.1-0.1-0.2-0.2-0.5c-0.1-0.2-0.2-0.4-0.2-0.6
			c0-0.1,0-0.2,0.1-0.3l0.2-1.7c0.6,0.2,2,0.3,4.1,0.2c-0.1,0.1,0,0.3,0.2,0.6c0.2-0.2,0.4-0.3,0.6-0.3c0.2,0,0.4,0.1,0.8,0.2
			C70.3,1321.1,70.5,1321.1,70.7,1321.1z"/>
		<path d="M86.7,1336c-0.4-0.2-0.8-0.3-1.3-0.3c-0.4,0-0.9,0.1-1.6,0.2c-0.8,0.2-1.3,0.2-1.6,0.3c-0.3-0.6-0.5-1.4-0.6-2.5
			c-0.2-1.6-0.4-2.4-0.4-2.6c0.1-0.2,0.1-0.3,0.1-0.4c0-0.3-0.2-0.6-0.7-0.9c-0.5-0.3-0.7-0.4-0.7-0.6c0-0.2,0.3-0.4,0.9-0.8
			c-0.1-0.2-0.2-0.5-0.3-1.1c-0.1-0.5-0.2-0.9-0.4-1.1c-0.4,0.3-0.9,0.5-1.7,0.6c-0.8,0.1-1.3,0.2-1.6,0.4c0,2.2-0.3,3.7-1.1,4.5
			c-0.4-0.1-0.7,0.1-0.9,0.5c-0.3,0.5-0.5,0.8-0.7,0.8l0.3,0.3c-0.2,0.2-0.6,0.3-1.1,0.2c-0.8,0-1.2-0.1-1.3-0.1l-0.2-0.8l2.8-23.2
			c0-1.5,0.1-2.5,0.2-3c0-1.3,0.3-2.1,0.9-2.4c0.4,0.3,0.9,0.4,1.5,0.4c0.5,0,1.2-0.1,2.3-0.3c1-0.2,1.8-0.3,2.2-0.3
			c1.4,0,2,1,1.8,3c-0.1,1.6,0.1,3.7,0.8,6.3c0.7,2.8,1,4.9,1,6.3c0,0.4,0.1,1.3,0.1,1.8c-0.6,0.3-1.4,0.5-2.3,0.6
			c-0.8,0-1.7,0.1-2.5,0.1c-0.2-2.2-0.6-4.8-0.8-7c-0.3-2.6-0.6-4.7-1-6.4l-1.3,12.3c-0.1,1.1,0.4,1.6,1.4,1.6c0.3,0,0.7-0.1,1-0.2
			c0.3-0.1,0.6,0.1,1.1,0.6c0,0.9,0.2,1.4,0.5,1.6c0.5-0.3,1.1-0.6,1.8-0.9c0.7-0.2,1.3-0.5,1.9-0.7c0.4,0.5,0.6,1.2,0.7,2.2
			c0.1,1.4,0.2,2.2,0.3,2.4c0,0.5,0.3,1.7,0.7,3.5c0.3,1.4,0.4,2.6,0.4,3.5C86.8,1335.2,86.8,1335.6,86.7,1336z"/>
		<path d="M106.5,1315.5c0,0.1,0,0.6,0,1.5c0,0.7-0.1,1.3-0.3,1.7c-0.2,0.6-0.3,1.4-0.3,2.4c0,0.2,0,0.6,0,1.1c0,0.5,0,0.8,0,1.1
			c0,1.8-0.3,3.1-0.9,3.9c0,0.5,0.1,0.9,0.1,1.4c0,1.4-0.5,3.4-1.5,5.8c-0.3,0.1-0.5,0.1-0.6,0.1c-0.3,0-0.6-0.2-0.7-0.6
			c-0.2-0.4-0.3-0.8-0.4-1.1c0.1-2.2,0-5.4-0.1-9.6l0.3-0.3c-0.2-0.8-0.3-1.6-0.3-2.5c0-0.7,0.1-1.6,0.2-2.9
			c0.1-1.3,0.2-2.2,0.2-2.8c0-0.4,0-0.8,0-1.2c-1,2.4-1.7,6.4-2.1,12l-0.4,0.9c-0.1,0.3-0.4,0.4-0.7,0.5c-0.1-0.2-0.2-0.3-0.3-0.3
			c-0.1,0-0.2,0.1-0.5,0.3c-0.2,0.2-0.4,0.3-0.5,0.3l-0.6,0.5c0.3,0.3,0.8,0.4,1.6,0.1c0.7-0.2,1,0.1,1,0.8c0,0.6-0.1,1.3-0.5,2.3
			c-0.3,1-0.5,1.7-0.5,2.2c0,0.3,0,0.7,0.1,1l-3,0.5c-0.3-0.6-0.5-1.5-0.6-2.9c-0.1-1.4-0.3-2.3-0.6-2.9c0.2-0.2,0.3-0.4,0.3-0.6
			c0-0.2-0.1-0.5-0.2-0.9c-0.2-0.4-0.3-0.7-0.3-0.9c0-0.3-0.1-1.1-0.3-2.3c-0.1-1-0.2-1.7-0.2-2.3c0-0.3,0-0.5,0.1-0.8
			c0-0.2-0.1-0.5-0.3-0.9c-0.2-0.4-0.3-0.7-0.3-0.8c0-0.1,0.1-0.3,0.2-0.4c-0.2-0.2-0.3-0.6-0.2-1.2c0-0.6,0-1-0.2-1.2
			c-0.4,1.1-0.6,2.6-0.7,4.5c0,2.6,0,4.2-0.1,4.6l0.3,0.3l-0.3,0.3c0.2,1,0.3,2.4,0.3,4c-0.1,2.9-0.1,4.2-0.1,4
			c-0.4,0.4-1,0.5-1.7,0.5c-0.9,0-1.5,0.1-1.8,0.2c-0.4-0.6-0.5-1.5-0.5-2.5c0-0.8,0.1-1.7,0.4-2.8c-0.4-0.7-0.6-1.7-0.5-3
			c0-0.3,0-0.9,0.1-1.8c0-0.7,0.1-1.2,0-1.6c0.3-0.1,0.4-0.3,0.4-0.5c0-0.1-0.1-0.3-0.3-0.6c-0.2-0.3-0.3-0.5-0.3-0.6
			c0-0.2,0.1-0.3,0.4-0.5l-0.9-13.9c0.5-0.4,1.4-0.5,2.7-0.5c1.3,0.1,2.3,0,2.8-0.2c0.1-0.1,0.2-0.1,0.3-0.1c0.1,0,0.2,0.1,0.4,0.2
			c0.2,0.1,0.3,0.2,0.3,0.2c0.1,0,0.2-0.1,0.3-0.3l0.8,0.8c0.3,1,0.5,3,0.8,5.9c0.2,2.5,0.6,4.4,1.2,5.7c0.7-2.5,1.3-4.7,1.7-6.4
			l0.9-6.8l6.7-0.1c0,0.4,0.1,2.4,0.3,3.5c0.2,1,0.2,1.8,0.2,2.5c0,0.7-0.1,1.4-0.3,1.9c0.2,0.3,0.3,0.7,0.3,1.2
			C106.8,1314.8,106.7,1315.2,106.5,1315.5z"/>
		<path d="M120.2,1330.6L120.2,1330.6c-0.2,0.3-0.3,0.8-0.3,1.2c0,0.3,0,0.8,0,1.3c0,0.7,0,1.1,0,1.4c-0.2,0-1.1,0-2.7,0
			c-1,0-1.8,0.1-2.6,0.3l-0.8-0.9c-0.2,0.2-0.3,0.4-0.3,0.6c-0.1,0-0.8,0-2,0c-0.9,0-1.6-0.1-2.1-0.3c-0.5,0.5-1,0.5-1.6,0
			c-0.2-0.2-0.2-0.5-0.1-0.9c0.2-0.4,0.1-0.7-0.2-0.9c0-0.9,0.2-2.3,0.4-4.3c0.2-1.7,0.3-3.1,0.3-4c0-1.3-0.1-2.6-0.3-3.8
			c0.3-0.3,0.7-0.5,1.1-0.5c0.5,0,1,0.2,1.6,0.7c0.9,0.6,1.3,0.9,1.4,0.9l0.3,0.3c0-0.1,0.2-0.5,0.5-1.4c0.2-0.5,0.4-0.9,0.7-1.1
			l0.3,0.3c0.1-0.1,0.5-0.3,1.1-0.8c0.5-0.3,0.9-1.1,1.2-1.1c0.3,0,0.6,0.2,0.9,0.5c0.5,0.3,0.8,1.3,0.9,1.8
			c0.1,0.5,0.3,1.1,0.4,1.6c-1.3,0-2.3,0-3.2-0.1c-0.2,0.3-0.5,0.4-0.9,0.1c-0.4-0.2-0.6-0.2-0.8,0.1c0,0.5,0,1.4,0,2.8
			c-0.1,1.2-0.1,2.2,0,2.8c0,1.1,0.1,2,0.2,2.9c0.2,0,1.3,0,3.3,0.1C118,1330.2,119.2,1330.3,120.2,1330.6z M120.2,1309.9
			c-0.3,0-0.5,0-0.9,0c-0.7,0-1.5-0.1-2.6-0.3c-1.3-0.2-2.2-0.3-2.4-0.3c-0.4,0.6-0.6,1.4-0.6,2.5c0,2.4,0,3.4,0,3.1
			c0.4,0.2,0.6,0.7,0.6,1.3c0,0.9,0,1.3,0,1.3c-0.2,0.1-0.3,0.4-0.3,0.9c-0.3-0.1-0.6-0.4-1-0.7c-0.5-0.4-0.7,1-0.7,0.7l-0.3,0.9
			l-0.3-0.3c-0.2,0-0.6-0.1-1.2-0.4c-0.6-0.3-0.9-0.5-1.2-0.8c0-0.5,0.1-0.7,0.2-0.8l-0.5-0.6l-0.3,0.4c-0.3-3-0.2-8.6,0.2-11.7
			c1.1,0.2,2.3,0.3,3.6,0.4c0.9,0,2.1,0.1,3.7,0.1c1.8,0,3.2,0,4,0c0.3,0.3,0.5,0.7,0.5,1.3c0,0.3-0.1,0.8-0.3,1.5
			C120.3,1309.1,120.3,1309.6,120.2,1309.9z"/>
	</g>
	<g>
		<path d="M72,1356.6L72,1356.6c0,0-0.1,0.6-0.2,1.9c-0.1,0.8-0.3,1.4-0.6,1.8l-0.2-0.2c-0.3,0.7-0.8,1.2-1.4,1.3
			c-0.3,0.3-0.7,0.5-1.2,0.5c-0.3,0-1.1-0.1-2.2-0.3c-0.6-0.3-0.9-0.5-0.9-0.6c-0.4-0.3-0.5-0.5-0.5-0.8c-0.3-0.3-0.8-1-1-1.8
			c-0.2-0.9-0.4-0.9-0.6-1.2c-0.3,0.2-0.4-0.3-0.6-0.6l0.2-0.1c-0.1-0.1-0.2-0.2-0.2-0.3c0-0.1,0-0.2,0.1-0.3
			c0.1-0.1,0.1-0.2,0.1-0.3c0-0.1-0.1-0.2-0.2-0.3c0.1-0.7,0.2-1.7,0.4-3.1c0.2-0.1,0.3-0.4,0.3-0.7c0-0.4,0-0.6,0.1-0.7
			c0.5-1.1,1.4-1.8,2.7-2.2c0.1,0,0.4,0,1,0c0.4,0,0.7,0,0.9,0.1c0.4-0.1,0.7,0,1.1,0.3c0.3,0.2,0.6,0.5,1,0.7
			c0.6,0.6,0.9,1.4,1,2.2c0,0.3,0,0.6-0.1,0.9c-0.4,0-0.8,0.3-0.9,0.9l-1.7,0.2c-0.2-0.3-0.3-0.6-0.3-1c0-0.1,0-0.4,0-0.7
			c0-0.3,0-0.5,0-0.7c0-0.4-0.1-0.8-0.3-1.1l-0.5,0.3c-0.2-0.1-0.3-0.2-0.3-0.4c0-0.1,0-0.1,0-0.2c0-0.1,0-0.2,0-0.2
			c0-0.2-0.2-0.3-0.5-0.3c-0.2,1.9-0.3,3.9-0.2,6c0.1,0.1,0.2,0.1,0.5,0.1c0.2,0,0.3,0.1,0.3,0.2c0,0,0,0.1,0,0.2l-0.2,0.1
			c0.1,0.1,0.1,0.3,0.2,0.6c0,0.1,0,0.3,0,0.6c0,0.3,0,0.5,0,0.6c0,0.4,0.1,0.7,0.3,0.9c0,0.3,0.1,0.5,0.4,0.6
			c0.2-0.1,0.3-0.1,0.5-0.1c0.5,0,0.9,0.3,1.1,0.9c0,0,0,0.1,0,0.3c0,0.1,0.1,0.2,0.2,0.2c0.2-0.1,0.3-0.4,0.3-0.7
			c0-0.4,0-0.7,0.2-0.8c0-0.2-0.1-0.5-0.3-0.8c-0.2-0.4-0.3-0.6-0.3-0.8c0-0.2,0.1-0.4,0.2-0.6c-0.1,0-0.2-0.1-0.2-0.2
			c0-0.2,0-0.3,0-0.3C70.1,1356.4,71,1356.4,72,1356.6z"/>
		<path d="M79.7,1358.2L79.7,1358.2c-0.1,0.2-0.2,0.5-0.1,0.8c0,0.5,0.1,0.8,0.1,0.8c-0.1,0-0.2,0-0.3-0.1c-0.2,0.1-0.3,0.2-0.3,0.4
			c0,0,0,0.1,0,0.1c0,0.1,0,0.1,0,0.2c0,0.1,0,0.2-0.1,0.3c-0.2-0.1-0.5-0.2-0.9-0.2c-0.4,0-0.7-0.1-1.1-0.1c0-1.7-0.2-3.4-0.7-5.1
			c0,0,0-0.2,0-0.5c0-0.3-0.1-0.4-0.2-0.5l-0.2,0.1c0,0,0.1-0.1,0.2-0.2c0.1-0.1,0.2-0.2,0.2-0.2c0,0,0-0.1,0-0.1l-0.2-0.1
			c-0.3,0.1-0.4,0.3-0.4,0.7c0,0.3-0.1,0.4-0.3,0.5c0.1,0.1,0.1,0.1,0.1,0.2c0,0.1,0,0.1,0,0.2c0,0.1,0,0.2,0,0.2
			c0,0.1,0.1,0.2,0.2,0.3c0,0.1,0,0.8,0.1,2.1c0.1,0.8,0,1.5-0.1,2.1l0,0.3c-0.1,0-0.2,0-0.4,0c-0.2,0-0.4,0-0.7,0.1
			c-0.3,0-0.5,0.1-0.7,0.1c-0.6,0-1-0.1-1.2-0.3l-0.2-7.1c-0.1-0.3-0.2-0.8-0.2-1.5l-0.1-1.4c-0.1-0.7-0.1-1.2-0.3-1.5
			c0-0.2,0.3-0.4,0.6-0.4c0.2,0,0.6,0,1,0.1c0.2-0.1,0.4-0.1,0.8-0.2c0.1,0,0.2,0,0.4,0c0.2,0,0.4,0,0.5,0c0.6,0,1-0.2,1.2-0.6
			c0.3,0,0.6,0.1,0.9,0.3c0.3,0.2,0.6,0.3,0.9,0.3c0.7,0.4,1,1,1.1,2c0,0.2-0.1,1-0.2,2.4l-1.1,1c0.2,0.4,0.4,1.1,0.7,2.3
			C78.9,1357,79.3,1357.7,79.7,1358.2z M77.6,1350.1L77.6,1350.1c0,0.1,0-0.2,0-0.9c0-0.3-0.1-0.6-0.4-0.7c-0.1,0.2,0,0.3,0,0.7
			c-0.1,0.4-0.3,0.3-0.5,0.5c-0.4,0-0.5,0.2-0.6-0.1c-0.2-0.6-0.3-0.6-0.3-0.6l-0.2,0.1c-0.1,0.1-0.1,0.1-0.2,0.2
			c-0.1,0.1-0.2,0.1-0.2,0.1c0,0.1,0,0.2-0.1,0.4c-0.1,0.2-0.1,0.3-0.1,0.3c0,0.1,0.1,0.2,0.3,0.3c0,0.3,0,0.5,0,0.8
			c0,0.2,0,0.5,0.1,1c0.1,0.4,0.1,0.8,0.1,1.1c0.1,0,0.3,0,0.4,0c0.6,0,0.9-0.2,1.1-0.7c0.1-0.1,0.1-0.5,0.2-1.3
			C77.2,1350.7,77.4,1350.3,77.6,1350.1z"/>
		<path d="M88.7,1360.9c-0.2-0.1-0.5-0.1-0.7-0.1c-0.2,0-0.5,0.1-0.9,0.2c-0.4,0.1-0.7,0.2-0.9,0.2c-0.2-0.3-0.3-0.6-0.4-1.1
			c-0.2-0.7-0.3-1.1-0.3-1.1c0-0.1,0.1-0.1,0.1-0.2c0-0.1-0.2-0.3-0.4-0.3c-0.3-0.1-0.4-0.2-0.4-0.2c0-0.1,0.1-0.2,0.5-0.4
			c-0.1-0.1-0.2-0.2-0.2-0.5c-0.1-0.2-0.1-0.4-0.3-0.5c-0.2,0.2-0.5,0.3-0.9,0.3c-0.4,0.1-0.7,0.1-0.8,0.2c0.1,1,0,2.7-0.4,3.1
			c-0.2,0-0.4,0.1-0.5,0.2c-0.1,0.2-0.3,0.4-0.4,0.4l0.1,0.1c-0.1,0.1-0.3,0.1-0.6,0.1c-0.4,0-0.7,0-0.7,0l-0.2-0.3l0.7-11.4
			c0-0.6,0-1.1,0-1.3c-0.1-0.6,0.1-0.9,0.4-1.1c0.2,0.1,0.5,0.1,0.8,0.1c0.3,0,0.7-0.1,1.2-0.2c0.6-0.1,0.9-0.2,1.2-0.2
			c0.8,0,1.1,0.4,1.1,1.3c0,0.7,0.2,1.6,0.6,2.8c0.5,1.2,0.7,2.1,0.7,2.8c0,0.2,0.3,0.6,0.3,0.8c-0.3,0.2-0.7,0.3-1.3,0.4
			c-0.5,0.1-0.9,0.1-1.4,0.2c-0.2-1-0.6-2.1-0.8-3.1c-0.2-1.1-0.5-2.1-0.8-2.8l-0.3,5.5c0,0.5,0.3,0.7,0.8,0.7
			c0.2,0,0.4-0.1,0.5-0.1c0.1,0,0.3,0,0.6,0.2c0,0.4,0.1,0.6,0.3,0.7c0.2-0.2,0.6-0.3,1-0.5c0.4-0.1,0.7-0.3,1-0.4
			c0.2,0.2,0.4,0.5,0.5,0.9c0.1,0.6,0.2,1,0.2,1.1c0,0.2,0.2,0.8,0.5,1.5c0.2,0.6,0.3,1.1,0.3,1.5
			C88.7,1360.6,88.7,1360.8,88.7,1360.9z"/>
		<path d="M95.2,1348L95.2,1348c-0.2,0.3-0.4,0.3-0.7,0.2c-0.1,0-0.3,0-0.8,0c-0.4,0-0.7,0-0.9-0.1c0,0-0.1,0.1-0.3,0.1
			c-0.1,0.1-0.2,0.1-0.3,0.1c-0.1,0-0.1-0.1-0.2-0.2c0,0,0-0.1,0-0.3c0-0.1-0.1-0.2-0.2-0.3l-0.3,0.2c-0.1,0.1-0.1,0.1-0.1,0.2
			c0,0.1,0.1,0.2,0.2,0.3c0.1,0.1,0.2,0.2,0.2,0.2c0,0,0,0.6,0.1,1.7c0,0.7,0.2,1.3,0.4,1.7c0.1-0.1,0.2-0.1,0.4-0.1
			c0.2,0,0.4-0.1,0.5-0.2c0.1,0.1,0.4,0.1,0.7,0c0.3-0.1,0.6-0.1,0.8,0.1l0,1.7c-0.1,0-0.4-0.1-0.6-0.2c-0.1,0.2-0.2,0.4-0.5,0.5
			c-0.1,0-0.4,0.1-0.8,0.1c0-0.1-0.1-0.2-0.2-0.2c-0.4,0.2-0.6,0.7-0.5,1.5c0-0.1,0,0.1,0,0.4c0,0.2,0,0.4-0.1,0.5
			c-0.3,0-0.6,0-1-0.2c-0.4-0.2-0.7-0.2-0.9-0.2c-0.1,0-0.1,0-0.2,0l-0.4,0.1l-0.7-7.7l-0.1-1.5c0.6-0.2,1.3-0.3,2.2-0.4
			c0.7,0,1.6,0,2.6,0c0.1-0.1,0.2,0,0.4,0c0.1,0,0.2,0,0.4,0c0.2,0,0.3,0,0.4,0c0.1,0,0.2,0,0.3-0.1l0.1-0.1
			c0.3,0.1,0.5,0.3,0.5,0.5c0,0.1,0,0.3-0.1,0.5c-0.1,0.2-0.1,0.4-0.1,0.6C95.1,1347.8,95.1,1347.9,95.2,1348z M92.4,1360.8
			c-0.2,0.1-0.4,0.1-0.8,0.2c-0.5,0-0.7,0-0.8,0.1c-0.1,0-0.1,0-0.2-0.4c-0.1-0.3-0.2-0.4-0.5-0.4c-0.1,0-0.1,0-0.2,0l-0.4,0
			l-0.2-3.9c0.2-0.1,0.5-0.2,0.9-0.2c0.3,0,0.6,0,0.9,0.1c0,0.1,0.2,0.2,0.6,0.2l0.4,0C92.3,1357.6,92.4,1359.5,92.4,1360.8z"/>
		<path d="M104.6,1348.3L104.6,1348.3c-0.2,0-0.9,0.1-1.5,0.1c-0.5,0.1-0.8,0.1-1.1,0c-0.2,0.2-0.3,0.4-0.2,0.6l0.1,0.1
			c-0.1,0.1-0.2,0.2-0.1,0.3l0.1,0.1c0,2.3,0,3.5,0,3.7c0,0.6,0.1,1.1,0.2,1.6c-0.1,0.3-0.1,0.6-0.1,1c0,0.2,0.1,0.6,0.2,1.1
			c0.1,0.5,0.2,2.2,0.3,2.5c0,0.2,0,0.4,0,0.6c-0.2,0.1-0.4,0.1-0.7,0.2c-0.4,0-0.9-0.1-1.4-0.3c-0.1,0.1-0.1,0.1-0.2,0.2
			c-0.1,0.1-0.1,0.1-0.1,0.2c-0.2,0-0.4,0-0.6-0.2c-0.1-2.3-0.6-6.9-1.2-11.6c-0.2,0.2-0.6,0-1,0.1c-0.5,0.1-1,0-1.1,0.1
			c-0.2-0.3-0.2-0.3-0.2-0.7c0-0.4-0.2-1.4,0-1.8c0-0.1,0.9,0,1.4-0.1c0.7,0,0.9,0.1,0.9,0.1c0.1-0.1,0.4,0,0.7-0.1
			c0.2,0.1,0.3-0.1,0.3,0c0,0.1,0,0.6-0.1,0.7c-0.1,0.1-0.1,0.2-0.1,0.3c0,0.2,0.1-0.1,0.4,0c0.3,0,0.6,0,0.9,0
			c0.3,0,0.7-0.1,0.7,0.2c0.1-0.1,0.1,0.1,0.6-0.1c0.4-0.2,0.6-0.6,0.5-0.9c0-0.2,0.2-0.3,0-0.2c0.2-0.1,0,0,0.2-0.1
			c0.6,0.1,0.9,0,1,0c0.2,0,0.8,0.1,1,0.1c0.1,0.2,0.2,0.9,0.2,1.3C104.6,1348,104.6,1348.3,104.6,1348.3z"/>
		<path d="M112.2,1356.3L112.2,1356.3c-0.1,0.2-0.1,0.3-0.1,0.6c0,0.1,0,0.3,0,0.6c0,0.3,0,0.5,0.1,0.6c-0.1,0-0.6,0-1.5,0.1
			c-0.5,0-1,0.1-1.4,0.2l-0.5-0.4c-0.1,0.1-0.2,0.2-0.1,0.3c-0.1,0-0.4,0-1.1,0.1c-0.5,0-0.9,0-1.1,0c-0.2,0.2-0.5,0.2-0.9,0.1
			c-0.1-0.1-0.2-0.2-0.1-0.4c0.1-0.2,0-0.3-0.1-0.4c0-0.4,0-1,0.1-1.9c0.1-0.8,0.1-1.4,0-1.8c0-0.6-0.1-1.1-0.3-1.7
			c0.2-0.1,0.4-0.2,0.6-0.2c0.3,0,0.6,0.1,0.9,0.2c0.5,0.2,0.8,0.4,0.8,0.4l0.1,0.1c0,0,0.1-0.2,0.2-0.6c0.1-0.2,0.2-0.4,0.3-0.5
			l0.1,0.1c0.1,0,0.3-0.2,0.6-0.4c0.3-0.2,0.4-0.8,0.6-0.8c0.2,0,0.3,0.1,0.5,0.2c0.3,0.1,0.5,0.8,0.6,1c0.1,0.2,0.2,0.5,0.3,0.7
			c-0.7,0.1-1.3,0.1-1.7,0.1c-0.1,0.1-0.3,0.2-0.5,0.1c-0.2-0.1-0.4-0.1-0.4,0.1c0,0.2,0,0.6,0.1,1.2c0,0.5,0,1,0.1,1.3
			c0,0.5,0.1,0.9,0.2,1.3c0.1,0,0.7,0,1.8-0.1C111,1356.2,111.7,1356.2,112.2,1356.3z M111.5,1347.3c-0.1,0-0.3,0-0.5,0
			c-0.4,0-0.8,0-1.4,0c-0.7,0-1.2-0.1-1.3-0.1c-0.2,0.3-0.2,0.5-0.2,1c0.1,1,0.1,1.5,0.1,1.3c0.2,0.1,0.3,0.3,0.4,0.6
			c0,0.4,0,0.6,0,0.6c-0.1,0-0.2,0.2-0.1,0.4c-0.2,0-0.4-0.1-0.6-0.3c-0.3-0.2-0.3,0.4-0.3,0.3l-0.1,0.4l-0.1-0.1
			c-0.1,0-0.3,0-0.7-0.1c-0.3-0.1-0.5-0.2-0.7-0.3c0-0.2,0-0.3,0.1-0.3l-0.3-0.2l-0.1,0.2c-0.3-1.3-0.5-3.6-0.4-5
			c0.6,0,1.3-0.1,2-0.1c0.5,0,1.2-0.1,2.1-0.1c1-0.1,1.7-0.1,2.2-0.1c0.2,0.1,0.3,0.3,0.3,0.5c0,0.1,0,0.4-0.1,0.7
			C111.6,1346.8,111.5,1347.2,111.5,1347.3z"/>
		<path d="M120,1354.9L120,1354.9c-0.1,0.2-0.2,0.5-0.1,0.8c0,0.5,0.1,0.8,0.1,0.8c-0.1,0-0.2,0-0.3-0.1c-0.2,0.1-0.3,0.2-0.3,0.4
			c0,0,0,0.1,0,0.1c0,0.1,0,0.1,0,0.2c0,0.1,0,0.2-0.1,0.3c-0.2-0.1-0.5-0.2-0.9-0.2c-0.4,0-0.7-0.1-1.1-0.1c0-1.7-0.2-3.4-0.7-5.1
			c0,0,0-0.2,0-0.5c0-0.3-0.1-0.4-0.2-0.5l-0.2,0.1c0,0,0-0.1,0.2-0.2c0.1-0.1,0.2-0.2,0.2-0.2c0,0,0-0.1,0-0.1l-0.2-0.1
			c-0.3,0.1-0.4,0.3-0.4,0.7c0,0.3-0.1,0.4-0.3,0.5c0.1,0.1,0.1,0.1,0.1,0.2c0,0,0,0.1,0,0.2c0,0.1,0,0.2,0,0.2
			c0,0.1,0.1,0.2,0.2,0.3c0,0.1,0,0.8,0.1,2c0,0.8,0,1.5-0.1,2.1l0,0.3c-0.1,0-0.2,0-0.4,0c-0.2,0-0.4,0-0.7,0.1
			c-0.3,0-0.5,0.1-0.7,0.1c-0.6,0-1-0.1-1.2-0.3l-0.2-7.1c-0.1-0.3-0.2-0.8-0.2-1.5l-0.1-1.4c-0.1-0.7-0.1-1.2-0.3-1.5
			c0-0.2,0.3-0.4,0.6-0.4c0.2,0,0.6,0,1,0.1c0.2-0.1,0.4-0.1,0.8-0.2c0.1,0,0.2,0,0.5,0c0.2,0,0.4,0,0.5,0c0.6,0,1-0.2,1.2-0.6
			c0.3,0,0.6,0.1,0.9,0.3c0.3,0.2,0.6,0.3,0.9,0.3c0.7,0.4,1,1,1.1,2c0,0.2-0.1,1-0.2,2.4l-1.2,1c0.2,0.4,0.4,1.1,0.7,2.3
			C119.2,1353.7,119.6,1354.4,120,1354.9z M117.9,1346.8L117.9,1346.8c0,0.1,0-0.2,0-0.9c0-0.3-0.1-0.6-0.4-0.7
			c-0.1,0.2-0.2-0.2-0.2,0.2c-0.1,0.4-0.2,0.7-0.3,0.9c-0.4,0-0.5-0.2-0.7-0.6c-0.1-0.2-0.2,0-0.2,0l-0.1,0.1
			c-0.1,0.1-0.1,0.1-0.2,0.2s-0.2,0.1-0.2,0.1c0,0.1,0,0.2-0.1,0.4c-0.1,0.2-0.1,0.3-0.1,0.3c0,0.1,0.1,0.2,0.3,0.2
			c0,0.3,0,0.5,0,0.8c0,0.2,0,0.5,0.1,1c0.1,0.4,0.1,0.8,0.1,1.1c0.1,0,0.3,0,0.4,0c0.5,0,0.9-0.2,1.1-0.7c0.1-0.1,0.1-0.5,0.2-1.3
			C117.5,1347.4,117.7,1347.1,117.9,1346.8z"/>
	</g>
	<g>
		<path d="M42,1322.2L42,1322.2c-0.1,0.7-0.1,1.1-0.1,1.4c-0.1,0-0.2,0-0.4,0c-0.2,0-0.3-0.1-0.4,0c-0.1,0-0.2,0-0.2,0.1
			c-0.1-0.1-0.2-0.1-0.3-0.1c-0.1,0.1-0.2,0.2-0.2,0.3c0,0.1,0,0.2,0.1,0.3c0,0.1,0.1,0.2,0.1,0.3c0,0.1,0,0.2-0.1,0.4
			c0,0.2-0.1,0.4-0.1,0.5c0,0.1,0,0.4,0.1,0.7c0.1,0.3,0.1,0.6,0.1,0.7c-0.1,0.3-0.1,0.6-0.1,1c0,0.4,0.1,0.9,0.3,1.6
			c0,0,0.1,0,0.1,0c0.1,0,0.2-0.1,0.3-0.2c0.1-0.1,0.2-0.2,0.3-0.2c0.1,0,0.1,0,0.2,0c0.2,0.7,0.3,1.1,0.3,1.3c0,0.1,0,0.2,0,0.3
			c-0.3,0.1-0.5,0-0.7-0.3c0-0.1,0-0.2-0.1-0.3l-0.3,0.4c0.3,0.1,0.5,0.3,0.4,0.8c0,0.1-0.1,0.1-0.2,0.1c-0.2,0-0.3,0-0.3,0
			l-0.3-0.5l-0.1,0.1c-0.1-0.2-0.2-0.4-0.3-0.3c-0.1,0-0.2,0.1-0.4,0.2c-0.2,0.1-0.3,0.2-0.4,0.2c-0.1,0-0.2,0-0.3-0.1
			c0-0.1,0-0.3,0-0.4c0-0.1-0.1-0.2-0.2-0.3c0-0.4,0-1.3,0-2.8c0-1.1,0-2.1,0-2.8c0-0.3,0-0.6-0.1-0.9c-0.1-0.1-0.1-0.1-0.2-0.1
			c0,0-0.1,0.1-0.2,0.2c-0.1,0.1-0.2,0.1-0.2,0.1c0-0.1-0.1-0.3-0.2-0.6c-0.1-0.3-0.2-0.4-0.2-0.6c0-0.2,0.1-0.4,0.2-0.5l0.4,0.1
			c0.2-0.2,0.2-0.6,0.2-1.1c0-0.1,0-0.3,0-0.5c0-0.2,0-0.4,0-0.5c0-0.9,0.2-1.3,0.8-1.4c0.2,0,0.5,0,0.8,0.1l0.4,0.1
			c0,0.1,0,0.3,0.1,0.5c0,0.2,0,0.5,0,1c0,0.4,0,0.7,0,0.9c0,0.3,0.1,0.6,0.2,0.8c0.1,0,0.2-0.1,0.4-0.2c0.2-0.1,0.3-0.1,0.4-0.1
			C41.7,1322,41.9,1322,42,1322.2z M40.8,1323.4l0-0.4l-0.1-0.1L40.8,1323.4z"/>
		<path d="M46.7,1321L46.7,1321c0,0.3-0.1,0.6-0.1,0.9c-0.1,0.4-0.2,0.6-0.3,0.8c0,0-0.2-0.1-0.4-0.2c-0.2-0.1-0.3-0.1-0.5-0.1
			c-0.1,0.7-0.2,1.6-0.2,2.7c0,1.5,0,2.4,0,2.7c-0.2,0-0.3,0-0.4,0.2c-0.1,0.1-0.2,0.3-0.2,0.4c0,0.1,0,0.1,0,0.2
			c0,0.1,0.1,0.2,0.2,0.3c0.2,0.1,0.2,0.2,0.2,0.3c-0.1,0.2-0.2,0.4-0.4,0.4c-0.1,0-0.3,0-0.5-0.1c-0.3-0.1-0.4-0.1-0.5-0.1
			l-0.2-4.9c0.1-0.1,0.1-0.2,0.1-0.3l-0.1-0.1c0-0.2,0-1.2,0-3.1c0-1.3,0.1-2.3,0.1-3c0,0,0.3,0,1.1-0.1c0.4,0,0.7,0.1,0.9,0.4
			c0,0.3,0,0.7-0.1,1.3c0,0.6-0.1,1-0.1,1.3c0,0.4,0.1,0.7,0.2,1C45.7,1321.3,46.2,1321,46.7,1321z M48.4,1322
			c0,0.5,0.1,0.9,0.1,1.3c0.1,1.9,0.1,3.9-0.1,6.1c-0.2,0.1-0.4,0.2-0.8,0.1c-0.3-0.1-0.6,0-0.7,0.1c-0.2-0.3-0.3-0.7-0.3-1.4
			c0-1-0.1-1.5-0.1-1.5c0-2.4,0.2-4.4,0.7-5.8C47.8,1321.1,48.2,1321.5,48.4,1322z"/>
		<path d="M54.4,1324.5c-0.1,0.2-0.1,0.3-0.1,0.5s0,0.3,0,0.5c0,0.1-0.1,0.3-0.1,0.4c-0.1,0-0.2,0-0.3,0c-0.1,0-0.2,0-0.2,0.1
			c-0.1,0.1-0.1,0.1-0.2,0.1c-0.1,0-0.2,0-0.3-0.1l-0.8-1.2c0,0.3,0.1,0.6,0.2,0.9c0.1,0.1,0.1,0.3,0.2,0.4c-0.5,0.1-0.7,0.1-0.8,0
			l-0.1,0.1l-0.3-0.4c-0.2,0.3-0.3,0.7-0.1,1.2c0.1,0.6,0.2,1,0,1.2c0.2,0.3,0.4,0.4,0.6,0.4c0.1,0,0.2,0,0.3-0.1
			c0.1-0.3,0.2-0.6,0.3-0.8c0.2-0.3,0.4-0.5,0.6-0.5c0.2,0,0.3,0.1,0.6,0.2c0.3,0.1,0.4,0.2,0.4,0.4c0,0.1-0.1,0.2-0.2,0.4
			c-0.1,0.2-0.2,0.4-0.2,0.5c0,0,0,0.1,0,0.1c-0.2,0.1-0.3,0.3-0.4,0.6c-0.1,0.2-0.3,0.4-0.5,0.5c-0.2,0.2-0.4,0.3-0.5,0.3
			c-0.1,0-0.3-0.1-0.6-0.3s-0.5-0.3-0.7-0.3c-0.1-0.2-0.3-0.4-0.7-0.7c-0.4-0.2-0.6-0.5-0.7-0.8c0,0,0-0.1,0-0.3
			c0-0.1-0.1-0.2-0.1-0.2l0.1-0.1c-0.2,0-0.3-0.1-0.3-0.3c0,0,0-0.1,0-0.1c0-0.1,0-0.1,0-0.1c0-0.1-0.1-0.2-0.1-0.3l0-0.6
			c0-0.3-0.1-0.5-0.2-0.7c0.1-0.7,0.2-1.5,0.3-2.2c0.2-0.8,0.5-1.3,0.8-1.3c0.1,0,0.1,0,0.2,0c0.3-0.3,0.7-0.5,1.2-0.5
			c0.5,0,1.1,0.1,1.7,0.5C54,1322.7,54.3,1323.6,54.4,1324.5z M52,1322.6l-0.1,0.1c-0.1,0-0.2,0-0.3-0.1l0,0.4
			c-0.2,0.2-0.2,0.5-0.2,0.9c0,0.7,0.1,1,0,1l0.5,0c0.2-0.1,0.4-0.4,0.3-0.7c0-0.2-0.1-0.4-0.2-0.8C52.1,1323.1,52,1322.8,52,1322.6
			z"/>
	</g>
	<g>
		<polygon class="st20" points="58.4,1341.9 58.9,1342.1 60.7,1337.6 60.1,1337.4 58.4,1342 58.9,1342.3 58.4,1341.9 58.4,1341.9 		
			"/>
		<polygon class="st20" points="59.2,1341.2 59,1341.3 58.4,1341.9 58.9,1342.3 59.4,1341.7 59.2,1341.8 59.2,1341.2 59.2,1341.2 		
			"/>
		<polygon class="st20" points="63.4,1341.2 63.6,1341 59.2,1341.2 59.2,1341.8 63.7,1341.6 63.9,1341.4 63.4,1341.2 63.4,1341.2 
			63.4,1341.2 		"/>
		<polygon class="st20" points="65.4,1337 65.1,1336.6 63.4,1341.2 63.9,1341.4 65.7,1336.8 65.4,1336.4 65.4,1337 65.4,1337 
			65.4,1337 		"/>
		<polygon class="st20" points="61.2,1337.1 60.9,1337.2 65.4,1337 65.4,1336.4 60.9,1336.6 60.7,1336.7 61.2,1337.1 61.2,1337.1 
			61.2,1337.1 		"/>
		<polygon class="st20" points="60.7,1337.6 60.6,1337.7 61.2,1337.1 60.7,1336.7 60.2,1337.3 60.1,1337.4 60.7,1337.6 60.7,1337.6 
			60.7,1337.6 		"/>
		<polygon class="st20" points="64.4,1341.7 64.8,1341.6 63.8,1341 63.5,1341.6 64.5,1342.1 64.9,1341.9 64.3,1341.7 64.3,1341.7 
			64.4,1341.7 		"/>
		<polygon class="st20" points="66.2,1337.5 66.1,1337.2 64.3,1341.7 64.9,1341.9 66.6,1337.3 66.5,1337 66.2,1337.5 66.2,1337.5 		
			"/>
		<polygon class="st20" points="65.7,1336.8 65.2,1337 66.2,1337.5 66.5,1337 65.5,1336.5 65.1,1336.6 65.7,1336.8 65.7,1336.8 		
			"/>
		<polygon points="60.4,1337.5 60.4,1337.5 60.9,1336.9 65,1336.7 65.1,1336.6 65.4,1336.7 65.7,1336.8 65.6,1336.9 66.4,1337.3 
			66.6,1337.3 66.5,1337.6 68.6,1342.5 66.8,1347 64.6,1341.8 64.6,1341.8 64.4,1341.9 64.3,1341.7 64.4,1341.7 63.7,1341.3 
			63.5,1341.6 63.4,1341.3 59.2,1341.5 58.6,1342 		"/>
		<polygon class="st20" points="66.6,1346.9 67.1,1346.9 64.9,1341.7 64.4,1341.9 66.6,1347.1 67.1,1347.1 66.5,1346.9 66.5,1346.9 
			66.6,1346.9 		"/>
		<polygon class="st20" points="68.3,1342.6 68.3,1342.4 66.5,1346.9 67.1,1347.1 68.9,1342.6 68.8,1342.3 68.3,1342.6 68.3,1342.6 
					"/>
		<polygon class="st20" points="66.6,1337.3 66.1,1337.4 68.3,1342.6 68.8,1342.3 66.6,1337.1 66.1,1337.2 66.6,1337.3 66.6,1337.3 
					"/>
		<polygon class="st22" points="66.5,1338.5 66.7,1339.1 66.8,1339.6 66.8,1340.2 66.7,1340.7 66.4,1341.3 66,1341.8 65.5,1342.2 
			64.9,1342.6 64.6,1342.7 64.3,1342.9 63.9,1342.9 63.6,1343 63.3,1343 62.9,1343.1 62.6,1343 62.3,1343 62,1343 61.7,1342.9 
			61.4,1342.7 61.2,1342.6 60.9,1342.4 60.7,1342.2 60.5,1342 60.3,1341.8 60.1,1341.2 60,1340.7 60,1340.1 60.2,1339.6 
			60.4,1339.1 60.8,1338.5 61.3,1338.1 61.9,1337.7 62.2,1337.6 62.5,1337.4 62.9,1337.4 63.2,1337.3 63.5,1337.3 63.9,1337.2 
			64.2,1337.3 64.5,1337.3 64.8,1337.4 65.1,1337.5 65.4,1337.6 65.7,1337.7 65.9,1337.9 66.1,1338.1 66.3,1338.3 66.5,1338.5 
			66.5,1338.5 66.5,1338.5 		"/>
		<polygon class="st20" points="66.7,1339.4 67,1340 67.1,1340.5 67,1341.1 66.9,1341.6 66.6,1342.2 66.2,1342.7 65.8,1343.1 
			65.2,1343.5 64.8,1343.7 64.5,1343.8 64.2,1343.9 63.8,1343.9 63.5,1344 63.2,1344 62.9,1344 62.5,1343.9 62.2,1343.9 
			61.9,1343.8 61.7,1343.6 61.4,1343.5 61.1,1343.3 60.9,1343.1 60.7,1343 60.5,1342.7 60.3,1342.2 60.2,1341.6 60.2,1341 
			60.4,1340.5 60.6,1340 61,1339.5 61.5,1339 62.1,1338.6 62.4,1338.5 62.7,1338.4 63.1,1338.3 63.4,1338.2 63.7,1338.2 
			64.1,1338.1 64.4,1338.2 64.7,1338.2 65,1338.3 65.3,1338.4 65.6,1338.5 65.9,1338.6 66.1,1338.8 66.4,1339 66.5,1339.2 
			66.7,1339.5 66.7,1339.5 66.7,1339.4 		"/>
		<polygon class="st22" points="66.9,1340.1 67.1,1340.6 67.2,1341.2 67.2,1341.7 67,1342.2 66.8,1342.8 66.4,1343.3 65.9,1343.7 
			65.3,1344.1 65,1344.3 64.7,1344.4 64.3,1344.5 64,1344.5 63.7,1344.6 63.3,1344.6 63,1344.6 62.7,1344.5 62.4,1344.5 
			62.1,1344.4 61.8,1344.2 61.5,1344.1 61.3,1343.9 61.1,1343.7 60.9,1343.5 60.7,1343.3 60.4,1342.8 60.4,1342.2 60.4,1341.7 
			60.5,1341.1 60.8,1340.6 61.2,1340 61.7,1339.6 62.3,1339.2 62.6,1339.1 62.9,1338.9 63.2,1338.9 63.6,1338.8 63.9,1338.8 
			64.2,1338.7 64.6,1338.8 64.9,1338.8 65.2,1338.9 65.5,1339 65.8,1339.1 66,1339.3 66.3,1339.4 66.5,1339.6 66.7,1339.8 
			66.9,1340.1 66.9,1340.1 		"/>
		<polygon class="st20" points="67.1,1341 67.3,1341.5 67.4,1342 67.4,1342.6 67.2,1343.1 67,1343.7 66.6,1344.2 66.1,1344.6 
			65.5,1345 65.2,1345.2 64.9,1345.3 64.6,1345.4 64.2,1345.4 63.9,1345.5 63.6,1345.5 63.2,1345.5 62.9,1345.5 62.6,1345.4 
			62.3,1345.3 62,1345.2 61.7,1345 61.5,1344.8 61.3,1344.7 61.1,1344.5 60.9,1344.2 60.7,1343.7 60.6,1343.1 60.6,1342.6 
			60.8,1342 61,1341.5 61.4,1341 61.9,1340.5 62.5,1340.1 62.8,1340 63.1,1339.9 63.5,1339.8 63.8,1339.7 64.1,1339.7 64.5,1339.7 
			64.8,1339.7 65.1,1339.7 65.4,1339.8 65.7,1339.9 66,1340 66.3,1340.2 66.5,1340.3 66.7,1340.5 66.9,1340.7 67.1,1341 67.1,1341 
			67.1,1341 		"/>
		<polygon class="st22" points="67.4,1341.6 67.7,1342.1 67.8,1342.6 67.8,1343.2 67.6,1343.7 67.3,1344.3 66.9,1344.8 66.5,1345.2 
			65.9,1345.6 65.6,1345.8 65.2,1345.9 64.9,1346 64.5,1346 64.2,1346.1 63.9,1346.1 63.6,1346.1 63.2,1346 62.9,1346 62.6,1345.9 
			62.4,1345.7 62.1,1345.6 61.8,1345.4 61.6,1345.2 61.4,1345 61.3,1344.8 61,1344.3 60.9,1343.7 60.9,1343.1 61.1,1342.6 
			61.4,1342.1 61.7,1341.6 62.2,1341.1 62.8,1340.7 63.1,1340.6 63.5,1340.4 63.8,1340.4 64.1,1340.3 64.5,1340.3 64.8,1340.2 
			65.1,1340.3 65.4,1340.3 65.7,1340.4 66.1,1340.5 66.3,1340.6 66.6,1340.7 66.8,1340.9 67.1,1341.1 67.3,1341.3 67.4,1341.6 
			67.4,1341.6 		"/>
		<polygon class="st20" points="67.7,1342.5 67.9,1343 68,1343.6 68,1344.1 67.8,1344.7 67.6,1345.2 67.2,1345.7 66.7,1346.1 
			66.1,1346.5 65.8,1346.7 65.4,1346.8 65.1,1346.9 64.8,1346.9 64.4,1347 64.1,1347 63.8,1347 63.5,1347 63.2,1346.9 62.8,1346.8 
			62.6,1346.7 62.3,1346.5 62.1,1346.3 61.8,1346.2 61.6,1346 61.5,1345.7 61.2,1345.2 61.1,1344.6 61.1,1344.1 61.3,1343.5 
			61.6,1343 62,1342.5 62.4,1342 63,1341.7 63.3,1341.5 63.7,1341.4 64,1341.3 64.3,1341.2 64.7,1341.2 65,1341.1 65.3,1341.2 
			65.6,1341.2 66,1341.3 66.3,1341.4 66.5,1341.5 66.8,1341.7 67.1,1341.8 67.3,1342 67.5,1342.2 67.7,1342.5 67.7,1342.5 
			67.7,1342.5 		"/>
		<polygon class="st20" points="37.4,1335.5 37.4,1335.3 35.7,1339.9 36.2,1340.1 38,1335.5 38,1335.4 37.4,1335.5 37.4,1335.5 
			37.4,1335.5 		"/>
		<polygon class="st20" points="37.3,1335.2 37.4,1335.2 37.4,1335.5 38,1335.4 37.9,1335.1 37.9,1335.1 37.3,1335.2 37.3,1335.2 
			37.3,1335.2 		"/>
		<polygon class="st20" points="37.3,1335 37.3,1335.2 37.9,1335.1 37.9,1334.8 37.3,1335 37.3,1335 37.3,1335 		"/>
		<polygon class="st20" points="37.2,1334.7 37.3,1335 37.9,1334.8 37.8,1334.6 37.2,1334.7 37.2,1334.7 		"/>
		<polygon class="st20" points="37.1,1334.5 37.1,1334.5 37.2,1334.7 37.8,1334.6 37.7,1334.3 37.7,1334.3 37.1,1334.5 37.1,1334.5 
			37.1,1334.5 		"/>
		<polygon class="st20" points="37.1,1334.1 37.1,1334.2 37.1,1334.5 37.7,1334.3 37.6,1334.1 37.7,1334.2 37.1,1334.1 37.1,1334.1 
					"/>
		<polygon class="st20" points="37.7,1334 37.1,1333.9 37.1,1334.1 37.7,1334.2 37.7,1334 37.1,1333.9 37.6,1334 37.6,1334 
			37.7,1334 		"/>
		<polygon class="st23" points="38.2,1347.4 38.1,1347.1 37.5,1347.2 37.5,1347.5 38.2,1347.4 38.2,1347.4 38.2,1347.4 		"/>
		<polygon class="st20" points="39.4,1343.5 39.4,1343.4 37.7,1348 38.3,1348.1 40,1343.6 40,1343.4 39.4,1343.5 39.4,1343.5 
			39.4,1343.5 		"/>
		<polygon class="st20" points="39.4,1343.2 39.4,1343.5 40,1343.4 39.9,1343.1 39.4,1343.2 39.4,1343.2 39.4,1343.2 		"/>
		<polygon class="st20" points="39.3,1342.9 39.4,1343.2 39.9,1343.1 39.9,1342.8 39.3,1342.9 39.3,1342.9 39.3,1342.9 		"/>
		<polygon class="st20" points="39.2,1342.6 39.2,1342.6 39.3,1342.9 39.9,1342.8 39.8,1342.5 39.8,1342.5 39.2,1342.6 39.2,1342.6 
			39.2,1342.6 		"/>
		<polygon class="st20" points="39.8,1342.3 39.2,1342.2 39.2,1342.6 39.8,1342.5 39.8,1342.2 39.2,1342.1 39.8,1342.3 39.8,1342.3 
					"/>
		<g>
			<polygon class="st24" points="35.7,1339 35.4,1339 35.7,1339 			"/>
			<polygon class="st24" points="36,1339.9 36,1339.9 36.1,1339.9 36.2,1340.1 36,1340 			"/>
			<polygon points="35.3,1338.8 35.6,1338.7 35.6,1338.5 37.4,1333.9 37.4,1334 37.4,1334.1 37.4,1334.4 37.5,1334.6 37.6,1334.9 
				37.6,1335.1 37.7,1335.4 37.7,1335.4 38,1335.5 36.2,1340.1 36.1,1339.9 36,1339.9 36,1339.9 36,1340 36.2,1340.1 36,1340 
				36,1340.2 35.8,1340 35.7,1340 35.6,1339.8 35.7,1339.7 35.8,1339.4 35.5,1339.5 35.5,1339.3 35.4,1339 35.7,1339 35.7,1339 
				35.4,1339 35.4,1339 			"/>
		</g>
		<g>
			<polygon class="st25" points="49.5,1340 49.5,1340 49.8,1339.5 			"/>
			<polygon points="36,1339.7 48.7,1339.2 49,1339.3 49.1,1339.3 49.4,1339.4 49.4,1339.4 49.8,1339.5 50.1,1339.6 50.1,1339.6 
				50.4,1339.8 50.5,1339.8 50.7,1340 50.8,1340.1 50.9,1340.3 51,1340.3 51.1,1340.5 51.1,1340.6 50.5,1340.8 50.4,1340.6 
				50.4,1340.6 50.3,1340.4 50.3,1340.4 50.1,1340.3 50.1,1340.3 49.8,1340.2 49.8,1340.2 49.5,1340 49.5,1340 49.2,1339.9 
				48.9,1339.9 49,1339.9 48.7,1339.8 48.7,1339.8 36,1340.2 			"/>
			<polygon points="50.5,1340.8 50.5,1340.8 50.6,1340.8 			"/>
		</g>
		<polygon class="st20" points="57.3,1351.5 57.3,1351.3 55.6,1355.9 56.2,1356.1 57.9,1351.5 57.9,1351.3 57.3,1351.5 57.3,1351.5 
			57.3,1351.5 		"/>
		<polygon class="st20" points="52.3,1336.3 52.3,1336.2 57.3,1351.5 57.9,1351.3 52.8,1336 52.8,1335.9 52.3,1336.3 52.3,1336.3 
			52.3,1336.3 		"/>
		<polygon class="st20" points="52.2,1336.1 52.2,1336.1 52.3,1336.3 52.8,1335.9 52.7,1335.7 52.7,1335.7 52.2,1336.1 52.2,1336.1 
			52.2,1336.1 		"/>
		<polygon class="st20" points="52.1,1335.9 52,1335.9 52.2,1336.1 52.7,1335.7 52.5,1335.5 52.4,1335.4 52.1,1335.9 52.1,1335.9 
			52.1,1335.9 		"/>
		<polygon class="st20" points="51.9,1335.8 51.8,1335.7 52.1,1335.9 52.4,1335.4 52.2,1335.3 52.2,1335.2 51.9,1335.8 51.9,1335.8 
					"/>
		<polygon class="st20" points="51.6,1335.6 51.6,1335.6 51.9,1335.8 52.2,1335.2 51.8,1335.1 51.8,1335.1 51.6,1335.6 51.6,1335.6 
					"/>
		<polygon class="st20" points="51.3,1335.5 51.2,1335.5 51.6,1335.6 51.8,1335.1 51.5,1334.9 51.5,1334.9 51.3,1335.5 51.3,1335.5 
			51.3,1335.5 		"/>
		<polygon class="st20" points="51,1335.4 50.9,1335.4 51.3,1335.5 51.5,1334.9 51.1,1334.8 51.1,1334.8 51,1335.4 51,1335.4 
			51,1335.4 		"/>
		<polygon class="st20" points="50.7,1335.3 50.7,1335.3 51,1335.4 51.1,1334.8 50.8,1334.7 50.8,1334.7 50.7,1335.3 50.7,1335.3 
			50.7,1335.3 		"/>
		<polygon class="st20" points="50.4,1335.3 50.4,1335.3 50.7,1335.3 50.8,1334.7 50.4,1334.7 50.4,1334.7 50.4,1335.3 50.4,1335.3 
					"/>
		<polygon class="st20" points="38,1335.5 37.7,1335.7 50.4,1335.3 50.4,1334.7 37.7,1335.1 37.4,1335.3 38,1335.5 38,1335.5 
			38,1335.5 		"/>
		<polygon class="st24" points="41.2,1349.4 41.2,1349.4 41.2,1349.4 		"/>
		<g>
			<polygon class="st24" points="48.1,1351.5 48,1352.1 48.1,1351.5 			"/>
			<g>
				<polygon class="st25" points="48.1,1351.8 48,1352.1 48.1,1351.8 				"/>
				<g>
					<polygon class="st25" points="37.7,1346.8 37.7,1346.8 37.8,1346.8 					"/>
					<path d="M37.5,1347.5l0.1,0.3l0.1,0.3l0.1,0.2l0.8,0.4l0.8,0.4l0.8,0.4l0.8,0.4l0,0l0.8,0.3l0.8,0.3l0.8,0.3l0.8,0.3l0,0
						l0.9,0.2l0.9,0.2l0,0l1,0.1l1,0.2l0,0l1.1,0.1l0,0l1.2,0l1.3,0l1.3-0.1l0.3-0.2l1.7-4.6l-0.3-0.4l0,0.6l-0.1-0.1l0.1-0.2
						l-0.2,0l-0.1-0.1l0,0.1l-1,0.1h-1.3l-1.2,0l-1.1-0.1l-1.1-0.1l-1-0.2l-0.9-0.2l-0.9-0.2l-0.8-0.3l-0.8-0.3l-0.8-0.3l-0.8-0.4
						l-0.8-0.4l-0.8-0.4l-0.8-0.4l-0.5-0.3l0,0l-0.3-0.1l0,0l-0.1-0.3l-0.1-0.3l0-0.1l0.2-0.4l-0.3-0.1l0,0l0,0l-0.3-0.1l-1.7,4.6
						l0,0.1l0,0.3L37.5,1347.5z M37.7,1346.8L37.7,1346.8L37.7,1346.8L37.7,1346.8z"/>
				</g>
			</g>
		</g>
		<polygon class="st20" points="53.3,1347.6 54.7,1347.5 54.7,1346.9 53.3,1347 53.3,1347.6 53.3,1347.6 53.3,1347.6 		"/>
		<polygon class="st20" points="52.1,1347.6 53.3,1347.6 53.3,1347 52.1,1347 52.1,1347.6 52.1,1347.6 52.1,1347.6 		"/>
		<polygon class="st20" points="50.9,1347.6 50.9,1347.6 52.1,1347.6 52.1,1347 50.9,1347 50.9,1347 50.9,1347.6 50.9,1347.6 
			50.9,1347.6 		"/>
		<polygon class="st20" points="49.7,1347.5 49.8,1347.5 50.9,1347.6 50.9,1347 49.8,1346.9 49.8,1346.9 49.7,1347.5 49.7,1347.5 
			49.7,1347.5 		"/>
		<polygon class="st20" points="48.7,1347.4 49.7,1347.5 49.8,1346.9 48.8,1346.8 48.7,1347.4 48.7,1347.4 		"/>
		<polygon class="st20" points="47.7,1347.2 47.7,1347.2 48.7,1347.4 48.8,1346.8 47.8,1346.6 47.8,1346.6 47.7,1347.2 47.7,1347.2 
			47.7,1347.2 		"/>
		<polygon class="st20" points="46.8,1347 47.7,1347.2 47.8,1346.6 46.9,1346.4 46.8,1347 46.8,1347 46.8,1347 		"/>
		<polygon class="st20" points="45.9,1346.7 45.9,1346.7 46.8,1347 46.9,1346.4 46,1346.1 46.1,1346.2 45.9,1346.7 45.9,1346.7 		
			"/>
		<polygon class="st20" points="45,1346.4 45,1346.4 45.9,1346.7 46.1,1346.2 45.2,1345.8 45.3,1345.9 45,1346.4 45,1346.4 
			45,1346.4 		"/>
		<polygon class="st20" points="44.2,1346.1 45,1346.4 45.3,1345.9 44.4,1345.5 44.2,1346.1 44.2,1346.1 		"/>
		<polygon class="st20" points="43.4,1345.7 44.2,1346.1 44.4,1345.5 43.7,1345.2 43.4,1345.7 43.4,1345.7 		"/>
		<polygon class="st20" points="42.6,1345.4 42.7,1345.4 43.4,1345.7 43.7,1345.2 42.9,1344.8 42.9,1344.8 42.6,1345.4 42.6,1345.4 
			42.6,1345.4 		"/>
		<polygon class="st20" points="41.9,1345 42.6,1345.4 42.9,1344.8 42.1,1344.5 41.9,1345 41.9,1345 41.9,1345 		"/>
		<polygon class="st20" points="41.1,1344.6 41.9,1345 42.1,1344.5 41.4,1344 41.1,1344.6 41.1,1344.6 41.1,1344.6 		"/>
		<polygon class="st20" points="40.4,1344.2 41.1,1344.6 41.4,1344 40.6,1343.6 40.4,1344.2 40.4,1344.2 		"/>
		<polygon class="st20" points="40,1343.6 39.6,1343.7 40.4,1344.2 40.6,1343.6 39.9,1343.2 39.4,1343.4 40,1343.6 40,1343.6 
			40,1343.6 		"/>
		<polygon class="st20" points="119.4,1335.3 117.6,1339.9 123.3,1341.8 124.6,1338.8 124.7,1338.5 124.7,1338.2 124.6,1337.8 
			124.5,1337.5 124.4,1337.3 124.2,1337 124,1336.7 123.7,1336.4 123.5,1336.2 123.2,1335.9 122.9,1335.7 122.6,1335.5 
			122.3,1335.4 122,1335.2 121.7,1335.1 121.4,1335 121.2,1334.9 120.9,1334.8 120.6,1334.8 120.4,1334.9 120.1,1334.9 119.9,1335 
			119.6,1335.2 119.4,1335.3 119.4,1335.3 119.4,1335.3 		"/>
		<polygon class="st20" points="123.1,1341.7 123.4,1341.5 117.7,1339.6 117.5,1340.2 123.2,1342.1 123.6,1341.9 123.1,1341.7 
			123.1,1341.7 		"/>
		<g>
			<polygon class="st25" points="124.2,1343 124.2,1343.3 124.2,1343 			"/>
			<polygon class="st25" points="127.1,1339.9 127.3,1340.1 127.1,1339.9 			"/>
			<g>
				<polygon class="st25" points="127.3,1340.1 127.1,1339.9 127.1,1339.9 				"/>
				<g>
					<polygon class="st25" points="127.3,1340.1 127.1,1339.9 127.1,1339.9 					"/>
					<polygon points="35.3,1338.5 35.4,1338.4 37.1,1333.9 37.6,1334 36,1338.5 35.9,1338.7 35.9,1338.7 35.3,1338.8 35.3,1338.7 
											"/>
					<g>
						<polygon class="st25" points="127.3,1340.1 127.1,1339.9 127.1,1339.9 						"/>
						<polygon class="st24" points="63.2,1349.3 63.1,1349.4 63.1,1349.3 						"/>
						<g>
							<polygon class="st25" points="63.3,1349.6 63.5,1349.8 63.3,1349.6 							"/>
							<polygon class="st25" points="127.3,1340.1 127.1,1339.9 127.1,1339.9 							"/>
							<polygon class="st25" points="55.9,1356 55.9,1356 55.9,1356 55.6,1355.9 55.8,1355.9 							"/>
							<path d="M35.5,1339.5l0.1,0.3l0,0l0.4-0.1l-0.1,0.3l12.8-0.4l0.3,0l0.3,0.1l0.3,0.1l0.3,0.1l0.3,0.2l0.2,0.2l0.2,0.2l0.1,0.2
								l-0.3,0.1l5.1,15.3l0.3,0l0,0.2h0.5l0.4,0l0.4,0l0.4-0.1l0.4-0.1l0.4-0.2l0.3-0.3l0.4-0.4l0,0l0.2-0.3l0.3-0.3l0.3-0.4
								l0.2-0.4l0.3-0.4l0.3-0.4l0.2-0.4l0.3-0.4l0.2-0.3l0.3-0.4l0.3-0.4l0.3-0.3l0.3-0.3l0.3-0.3l0.3-0.2l0.3-0.2l0.1,0l-0.2-0.2
								l0,0l0.2,0.2l0.3-0.4l0.3-0.3l0.3-0.3l0.3-0.2l0.3-0.2l0.3-0.2l0.3-0.2l0.3-0.1l0.3-0.1l0.3-0.1l0.3-0.1l0.4-0.1l0.4-0.1
								l0.5,0l0.5,0l0.5,0l0,0l55-4.1l0.3,0l0.3-0.1l0.3-0.1l0.3-0.1l0.3-0.1l0.3-0.2l0.2-0.2l0.3-0.2l0.1-0.1l1-2.2l-0.5-0.3
								l0.2,0.2l0,0l-0.2-0.2l-0.2,0.6l-0.2,0.1l-0.2,0.1l-0.2,0.1l-0.2,0l-0.3,0.1l-0.3,0.1l-55,4.1l-0.4,0l-0.3,0l-0.3,0l-0.4,0.1
								h-0.4l-0.3,0l-0.4,0l-0.3,0l-0.4,0.1l-0.3,0l-0.3,0.1l-0.4,0.1l-0.3,0.1l-0.3,0.1l-0.3,0.1l-0.3,0.2l-0.7,0.4l-0.7,0.6
								l-0.7,0.7l-0.7,0.8l-0.6,0.9l-0.6,0.8l-0.5,0.7l-0.5,0.5l-0.3,0.1l-0.2,0l-0.3,0h-0.3h-0.3l-0.2,0l-0.3,0l-0.3,0l-5.1-15.3
								l-0.1-0.2l-0.2-0.2l-0.2-0.2l-0.3-0.2l-0.3-0.1l-0.3-0.1l-0.3-0.1l-0.3,0l-12.7,0.4l-1.5,4l0-0.1L35.5,1339.5z M127.1,1339.9
								L127.1,1339.9l0.2,0.2L127.1,1339.9z"/>
						</g>
					</g>
				</g>
			</g>
		</g>
		<polygon class="st20" points="125.2,1341.1 125.5,1341 125.8,1340.9 126,1340.9 126.3,1340.8 126.6,1340.7 126.8,1340.5 
			127.1,1340.3 127.3,1340.1 126.9,1339.7 126.7,1339.9 126.5,1340 126.3,1340.2 126.1,1340.2 125.9,1340.3 125.6,1340.4 
			125.4,1340.4 125.1,1340.4 125.2,1341.1 125.2,1341.1 		"/>
		<polygon class="st20" points="70.2,1345.2 125.2,1341.1 125.1,1340.4 70.1,1344.6 70.2,1345.2 70.2,1345.2 		"/>
		<polygon class="st20" points="64.8,1346.1 65.1,1346 65.4,1345.9 65.8,1345.8 66.1,1345.7 66.4,1345.6 66.7,1345.5 67.1,1345.5 
			67.4,1345.4 67.7,1345.4 68,1345.3 68.4,1345.3 68.7,1345.3 69.1,1345.2 69.4,1345.2 69.8,1345.2 70.2,1345.2 70.1,1344.6 
			69.7,1344.6 69.4,1344.6 69,1344.6 68.7,1344.7 68.3,1344.7 68,1344.7 67.7,1344.8 67.3,1344.8 67,1344.9 66.6,1344.9 66.3,1345 
			65.9,1345.1 65.6,1345.2 65.2,1345.3 64.8,1345.4 64.5,1345.6 64.8,1346.1 64.8,1346.1 64.8,1346.1 		"/>
		<polygon class="st20" points="59.8,1351.6 60,1351.5 60.2,1351.2 60.4,1350.9 60.7,1350.6 61,1350.2 61.3,1349.8 61.6,1349.4 
			61.9,1349 62.2,1348.6 62.5,1348.2 62.9,1347.8 63.2,1347.5 63.5,1347.1 63.8,1346.8 64.2,1346.5 64.5,1346.3 64.8,1346.1 
			64.5,1345.6 64.1,1345.8 63.8,1346 63.4,1346.3 63.1,1346.7 62.8,1347 62.4,1347.4 62.1,1347.8 61.7,1348.2 61.4,1348.7 
			61.1,1349.1 60.8,1349.5 60.5,1349.9 60.2,1350.2 60,1350.6 59.7,1350.9 59.5,1351.1 59.6,1351 59.8,1351.6 59.8,1351.6 
			59.8,1351.6 		"/>
		<polygon class="st25" points="119.3,1335.6 119.4,1335.3 119.6,1335.1 119.9,1334.9 120.3,1334.9 120.5,1334.9 120.8,1334.9 
			121,1335 121.2,1335 121.5,1335.1 121.7,1335.2 122,1335.3 122.3,1335.5 122.5,1335.6 122.8,1335.7 123,1335.9 123.2,1336.1 
			123.5,1336.3 123.7,1336.5 123.9,1336.7 124,1336.9 124.4,1337.3 124.5,1337.7 124.6,1338 124.7,1338.1 124.6,1338.4 
			124.6,1338.7 124.4,1339 124.1,1339.1 123.7,1339.2 123.5,1339.2 123.2,1339.2 123,1339.1 122.7,1339.1 122.4,1339 122.2,1338.9 
			121.9,1338.8 121.6,1338.6 121.3,1338.5 121.1,1338.4 120.8,1338.2 120.6,1338 120.3,1337.8 120.1,1337.6 119.9,1337.4 
			119.7,1337.2 119.5,1336.7 119.3,1336.3 119.3,1336.2 119.2,1335.9 		"/>
		<polygon class="st22" points="49.3,1335 50.4,1335 50.5,1335 40.8,1331.7 40.3,1332 49.3,1335 49.3,1335 49.3,1335 		"/>
		<polygon class="st22" points="49.3,1335 37.7,1335.4 37.6,1335.1 37.6,1334.9 37.5,1334.6 37.4,1334.4 37.4,1334.1 37.4,1334 
			37.4,1333.7 37.6,1333.6 38.1,1333.3 38.7,1332.9 39.2,1332.6 39.7,1332.3 40.2,1332 40.3,1332 49.3,1335 49.3,1335 49.3,1335 		
			"/>
		<polygon class="st26" points="42.2,1342.1 50.1,1341.6 53.2,1342.9 54.3,1346.1 54.7,1347.2 53.3,1347.3 52.1,1347.3 50.9,1347.3 
			49.8,1347.2 48.8,1347.1 47.8,1346.9 46.9,1346.7 46,1346.4 45.1,1346.1 44.3,1345.8 43.6,1345.5 42.8,1345.1 42,1344.7 
			41.3,1344.3 40.5,1343.9 39.7,1343.5 39.6,1343.2 39.6,1342.9 39.5,1342.5 39.5,1342.2 		"/>
		<polygon class="st22" points="62.1,1343 62.3,1343.1 63.3,1343.7 63.6,1343.2 62.6,1342.6 62.7,1342.7 62.1,1343 62.2,1343 
			62.3,1343.1 62.1,1343 62.1,1343 		"/>
		<polygon class="st22" points="53.1,1343.2 52.9,1343 54.4,1347.3 55,1347.1 53.5,1342.8 53.4,1342.6 53.5,1342.8 53.5,1342.6 
			53.4,1342.6 53.1,1343.2 53.1,1343.2 53.1,1343.2 		"/>
		<polygon class="st22" points="50.2,1341.9 50,1341.9 53.1,1343.2 53.4,1342.6 50.3,1341.3 50.2,1341.3 50.3,1341.3 50.2,1341.3 
			50.2,1341.3 50.2,1341.9 50.2,1341.9 50.2,1341.9 		"/>
		<polygon class="st22" points="39.8,1342.2 39.5,1342.5 50.2,1341.9 50.2,1341.3 39.5,1341.9 39.2,1342.2 39.5,1341.9 39.1,1341.9 
			39.2,1342.2 39.8,1342.2 39.8,1342.2 		"/>
		<polygon class="st22" points="39.9,1343.2 40,1343.4 40,1343.3 39.9,1343.1 39.9,1342.9 39.9,1342.8 39.9,1342.7 39.8,1342.5 
			39.8,1342.3 39.8,1342.2 39.2,1342.2 39.2,1342.4 39.2,1342.6 39.3,1342.8 39.3,1342.9 39.3,1343 39.4,1343.2 39.4,1343.4 
			39.4,1343.5 39.6,1343.7 39.4,1343.5 39.5,1343.7 39.6,1343.7 39.9,1343.2 39.9,1343.2 		"/>
		<polygon class="st22" points="54.4,1347.3 54.6,1346.9 53.3,1347 52.1,1347 50.9,1347 49.8,1346.9 48.8,1346.8 47.8,1346.6 
			46.9,1346.4 46.1,1346.2 45.2,1345.8 44.4,1345.5 43.7,1345.2 42.9,1344.8 42.1,1344.5 41.4,1344 40.6,1343.6 39.9,1343.2 
			39.6,1343.7 40.4,1344.2 41.1,1344.6 41.9,1345 42.6,1345.4 43.4,1345.7 44.2,1346.1 45,1346.4 45.9,1346.7 46.8,1347 
			47.7,1347.2 48.7,1347.4 49.8,1347.5 50.9,1347.6 52.1,1347.6 53.3,1347.6 54.7,1347.5 55,1347.1 54.7,1347.5 55.1,1347.5 
			55,1347.1 54.4,1347.3 54.4,1347.3 54.4,1347.3 		"/>
		<g>
			<polygon class="st25" points="59.9,1351.2 60.1,1351.4 59.9,1351.2 			"/>
			<polygon class="st25" points="57.9,1351.1 57.8,1351.1 57.8,1351.1 			"/>
			<polygon class="st25" points="52.9,1336.2 60.9,1338.9 52.9,1336.2 			"/>
		</g>
		<polygon class="st22" points="70.1,1344.6 69.7,1344.6 69.2,1344.6 68.8,1344.7 68.4,1344.7 68,1344.8 67.5,1344.8 67.1,1344.9 
			66.6,1345 66.2,1345.1 65.8,1345.2 65.4,1345.4 65,1345.5 64.7,1345.7 64.3,1345.8 64,1346.1 63.7,1346.3 64.1,1346.8 
			64.3,1346.6 64.6,1346.4 64.9,1346.2 65.3,1346.1 65.6,1345.9 66,1345.8 66.4,1345.7 66.8,1345.6 67.2,1345.5 67.6,1345.4 
			68,1345.4 68.4,1345.3 68.9,1345.3 69.3,1345.2 69.7,1345.2 70.2,1345.2 70.1,1344.6 70.1,1344.6 70.1,1344.6 		"/>
		<polygon class="st22" points="125.1,1340.4 70.1,1344.6 70.2,1345.2 125.2,1341.1 125.1,1340.4 125.1,1340.4 		"/>
		<polygon class="st22" points="126.1,1337.1 126.3,1337.4 126.6,1337.7 126.7,1338 126.9,1338.3 127,1338.6 127,1338.9 127,1339.1 
			127,1339.4 126.9,1339.5 126.8,1339.7 126.7,1339.9 126.5,1340.1 126.3,1340.2 125.9,1340.3 125.6,1340.4 125.1,1340.4 
			125.2,1341.1 125.7,1341 126.1,1340.9 126.5,1340.7 126.8,1340.6 127.1,1340.4 127.4,1340.1 127.5,1339.8 127.6,1339.5 
			127.6,1339.1 127.6,1338.8 127.5,1338.5 127.4,1338.1 127.3,1337.8 127.1,1337.4 126.8,1337 126.6,1336.7 126.1,1337.1 
			126.1,1337.1 		"/>
		<polygon class="st22" points="119.6,1333.9 120.1,1333.9 120.6,1334 121.1,1334.1 121.6,1334.2 122,1334.3 122.5,1334.5 
			123,1334.7 123.4,1334.9 123.8,1335.1 124.2,1335.4 124.6,1335.6 125,1335.9 125.3,1336.2 125.6,1336.5 125.9,1336.8 
			126.1,1337.1 126.6,1336.7 126.3,1336.4 126,1336.1 125.7,1335.7 125.3,1335.4 124.9,1335.2 124.5,1334.9 124.1,1334.6 
			123.7,1334.3 123.2,1334.1 122.7,1333.9 122.2,1333.8 121.7,1333.6 121.2,1333.5 120.7,1333.4 120.1,1333.3 119.5,1333.4 
			119.6,1333.9 119.6,1333.9 		"/>
		<polygon class="st22" points="70.9,1335.6 119.6,1333.9 119.5,1333.4 70.9,1335 70.9,1335.6 70.9,1335.6 		"/>
		<polygon class="st22" points="63.2,1334.4 63.7,1334.6 64.1,1334.7 64.6,1334.8 65.1,1334.9 65.6,1335 66.1,1335.2 66.6,1335.3 
			67.1,1335.3 67.6,1335.4 68.1,1335.5 68.6,1335.5 69,1335.6 69.5,1335.6 70,1335.6 70.5,1335.6 70.9,1335.6 70.9,1335 70.4,1335 
			70,1335 69.6,1335 69.1,1335 68.6,1334.9 68.1,1334.9 67.7,1334.8 67.2,1334.7 66.7,1334.6 66.2,1334.6 65.8,1334.5 65.3,1334.4 
			64.8,1334.2 64.3,1334.1 63.9,1334 63.4,1333.8 63.2,1334.4 63.2,1334.4 63.2,1334.4 		"/>
		<polygon class="st22" points="46.8,1329.9 47.6,1329.8 48.4,1329.7 49.2,1329.6 49.8,1329.6 50.5,1329.6 51.1,1329.6 51.7,1329.7 
			52.2,1329.7 52.7,1329.8 53.2,1329.9 53.7,1330 54.1,1330.1 54.5,1330.3 54.9,1330.4 55.3,1330.6 55.6,1330.8 56,1331 
			56.4,1331.1 56.8,1331.4 57.2,1331.6 57.6,1331.8 58,1332.1 58.4,1332.3 58.8,1332.5 59.3,1332.7 59.7,1333 60.2,1333.2 
			60.7,1333.5 61.3,1333.7 61.9,1333.9 62.5,1334.2 63.2,1334.4 63.4,1333.8 62.7,1333.6 62.1,1333.4 61.5,1333.2 61,1332.9 
			60.4,1332.7 60,1332.5 59.5,1332.2 59.1,1332 58.7,1331.7 58.2,1331.5 57.9,1331.3 57.5,1331 57.1,1330.8 56.7,1330.6 
			56.3,1330.4 55.9,1330.2 55.5,1330 55.1,1329.9 54.7,1329.7 54.3,1329.5 53.8,1329.4 53.3,1329.3 52.8,1329.2 52.3,1329.1 
			51.7,1329 51.1,1329 50.5,1329 49.8,1329 49.1,1329 48.3,1329.1 47.5,1329.2 46.7,1329.3 46.8,1329.9 46.8,1329.9 46.8,1329.9 		
			"/>
		<polygon class="st22" points="37.8,1333.9 38.3,1333.5 38.8,1333.2 39.3,1332.9 39.9,1332.6 40.4,1332.3 40.9,1332 41.5,1331.7 
			42,1331.4 42.6,1331.2 43.1,1330.9 43.7,1330.7 44.3,1330.5 44.9,1330.3 45.5,1330.1 46.1,1330 46.8,1329.9 46.7,1329.3 
			46,1329.4 45.4,1329.5 44.7,1329.7 44.1,1329.9 43.5,1330.1 42.9,1330.4 42.3,1330.6 41.8,1330.9 41.2,1331.2 40.6,1331.5 
			40.1,1331.7 39.6,1332.1 39,1332.4 38.5,1332.7 38,1333 37.5,1333.3 37.8,1333.8 37.8,1333.8 37.8,1333.9 		"/>
		<polygon class="st22" points="37.7,1335.1 38,1335.4 37.9,1335.1 37.9,1334.8 37.8,1334.6 37.7,1334.3 37.7,1334.1 37.7,1334 
			37.7,1333.9 37.8,1333.8 37.5,1333.3 37.2,1333.6 37.1,1333.9 37.1,1334.2 37.1,1334.5 37.2,1334.7 37.3,1335 37.4,1335.2 
			37.4,1335.4 37.7,1335.7 37.4,1335.4 37.4,1335.7 37.7,1335.7 37.7,1335.1 37.7,1335.1 		"/>
		<g>
			<polygon class="st25" points="60.2,1337.3 60.2,1337.3 60.1,1337.6 			"/>
			<polygon class="st26" points="60.2,1337.3 60.2,1337.3 60.2,1337.3 			"/>
			<polygon class="st26" points="60,1337.4 60.2,1337.3 60.1,1337.6 			"/>
			<g>
				<polygon class="st25" points="119.4,1335.3 119.6,1335.1 119.9,1334.9 120.3,1334.9 120.5,1334.9 120.8,1334.9 121,1335 
					121.2,1335 121.5,1335.1 121.7,1335.2 122,1335.3 122.3,1335.5 122.5,1335.6 122.8,1335.7 123,1335.9 123.2,1336.1 
					123.5,1336.3 123.7,1336.5 123.9,1336.7 124,1336.9 124.4,1337.3 124.5,1337.7 124.6,1338 124.7,1338.1 124.6,1338.4 
					124.6,1338.7 124.4,1339 124.1,1339.1 123.7,1339.2 123.5,1339.2 123.2,1339.2 123,1339.1 122.7,1339.1 122.4,1339 
					122.2,1338.9 121.9,1338.8 121.6,1338.6 121.3,1338.5 121.1,1338.4 120.8,1338.2 120.6,1338 120.3,1337.8 120.1,1337.6 
					119.9,1337.4 119.7,1337.2 119.5,1336.7 119.3,1336.3 119.3,1336.2 119.2,1335.9 119.3,1335.6 				"/>
				<polygon class="st25" points="66.4,1337.3 66.4,1337.3 66.1,1337.4 				"/>
				<polygon class="st25" points="68.3,1342.3 68.5,1342.4 68.6,1342.5 68,1343.1 63.4,1343.4 62.4,1342.9 62.4,1342.8 62.7,1342.7 
					60.7,1337.6 61.1,1337.2 65.2,1337 66.1,1337.5 68.3,1342.6 				"/>
				<polygon class="st25" points="52.7,1335.7 52.7,1335.7 60.3,1338.3 				"/>
				<g>
					<polygon class="st25" points="119.4,1335.3 119.6,1335.1 119.9,1334.9 120.3,1334.9 120.5,1334.9 120.8,1334.9 121,1335 
						121.2,1335 121.5,1335.1 121.7,1335.2 122,1335.3 122.3,1335.5 122.5,1335.6 122.8,1335.7 123,1335.9 123.2,1336.1 
						123.5,1336.3 123.7,1336.5 123.9,1336.7 124,1336.9 124.4,1337.3 124.5,1337.7 124.6,1338 124.7,1338.1 124.6,1338.4 
						124.6,1338.7 124.4,1339 124.1,1339.1 123.7,1339.2 123.5,1339.2 123.2,1339.2 123,1339.1 122.7,1339.1 122.4,1339 
						122.2,1338.9 121.9,1338.8 121.6,1338.6 121.3,1338.5 121.1,1338.4 120.8,1338.2 120.6,1338 120.3,1337.8 120.1,1337.6 
						119.9,1337.4 119.7,1337.2 119.5,1336.7 119.3,1336.3 119.3,1336.2 119.2,1335.9 119.3,1335.6 					"/>
					<polygon class="st25" points="65.2,1337 66.1,1337.5 68.3,1342.6 68.3,1342.3 68.5,1342.4 68.6,1342.5 68,1343.1 63.4,1343.4 
						62.4,1342.9 62.4,1342.8 62.7,1342.7 60.7,1337.6 61.1,1337.2 					"/>
					<polygon class="st25" points="52.7,1335.7 52.7,1335.7 60.3,1338.3 					"/>
					<g>
						<polygon class="st25" points="119.4,1335.3 119.6,1335.1 119.9,1334.9 120.3,1334.9 120.5,1334.9 120.8,1334.9 121,1335 
							121.2,1335 121.5,1335.1 121.7,1335.2 122,1335.3 122.3,1335.5 122.5,1335.6 122.8,1335.7 123,1335.9 123.2,1336.1 
							123.5,1336.3 123.7,1336.5 123.9,1336.7 124,1336.9 124.4,1337.3 124.5,1337.7 124.6,1338 124.7,1338.1 124.6,1338.4 
							124.6,1338.7 124.4,1339 124.1,1339.1 123.7,1339.2 123.5,1339.2 123.2,1339.2 123,1339.1 122.7,1339.1 122.4,1339 
							122.2,1338.9 121.9,1338.8 121.6,1338.6 121.3,1338.5 121.1,1338.4 120.8,1338.2 120.6,1338 120.3,1337.8 120.1,1337.6 
							119.9,1337.4 119.7,1337.2 119.5,1336.7 119.3,1336.3 119.3,1336.2 119.2,1335.9 119.3,1335.6 						"/>
						<polygon class="st25" points="65.2,1337 66.1,1337.5 68.3,1342.6 68.3,1342.3 68.5,1342.4 68.6,1342.5 68,1343.1 68,1342.8 
							63.4,1343.1 63.6,1343.2 63.5,1343.4 63.4,1343.4 62.4,1342.9 62.4,1342.8 62.7,1342.7 60.7,1337.6 61.1,1337.2 						"/>
						<polygon class="st25" points="52.7,1335.7 52.7,1335.7 60.3,1338.3 						"/>
						<g>
							<polygon class="st25" points="68.5,1341.4 77.2,1344.4 68.5,1341.4 							"/>
							<polygon class="st25" points="68.2,1340.9 78.3,1344.3 68.2,1340.9 							"/>
							<polygon class="st25" points="119.4,1335.3 119.6,1335.1 119.9,1334.9 120.3,1334.9 120.5,1334.9 120.8,1334.9 121,1335 
								121.2,1335 121.5,1335.1 121.7,1335.2 122,1335.3 122.3,1335.5 122.5,1335.6 122.8,1335.7 123,1335.9 123.2,1336.1 
								123.5,1336.3 123.7,1336.5 123.9,1336.7 124,1336.9 124.4,1337.3 124.5,1337.7 124.6,1338 124.7,1338.1 124.6,1338.4 
								124.6,1338.7 124.4,1339 124.1,1339.1 123.7,1339.2 123.5,1339.2 123.2,1339.2 123,1339.1 122.7,1339.1 122.4,1339 
								122.2,1338.9 121.9,1338.8 121.6,1338.6 121.3,1338.5 121.1,1338.4 120.8,1338.2 120.6,1338 120.3,1337.8 120.1,1337.6 
								119.9,1337.4 119.7,1337.2 119.5,1336.7 119.3,1336.3 119.3,1336.2 119.2,1335.9 119.3,1335.6 							"/>
							<polygon class="st25" points="65.2,1337 66.1,1337.5 68.3,1342.6 68.3,1342.3 68.5,1342.4 68.6,1342.5 68,1343.1 68,1343.1 
								63.5,1343.4 63.4,1343.4 62.4,1342.9 62.4,1342.8 62.7,1342.7 60.7,1337.6 61.1,1337.2 							"/>
							<polygon class="st25" points="52.7,1335.7 52.7,1335.7 60.3,1338.3 							"/>
							<polygon class="st26" points="68.2,1340.9 78.3,1344.3 77.2,1344.3 77.2,1344.4 68.5,1341.4 							"/>
							<g>
								<polygon class="st25" points="119.4,1335.3 119.6,1335.1 119.9,1334.9 120.3,1334.9 120.5,1334.9 120.8,1334.9 121,1335 
									121.2,1335 121.5,1335.1 121.7,1335.2 122,1335.3 122.3,1335.5 122.5,1335.6 122.8,1335.7 123,1335.9 123.2,1336.1 
									123.5,1336.3 123.7,1336.5 123.9,1336.7 124,1336.9 124.4,1337.3 124.5,1337.7 124.6,1338 124.7,1338.1 124.6,1338.4 
									124.6,1338.7 124.4,1339 124.1,1339.1 123.7,1339.2 123.5,1339.2 123.2,1339.2 123,1339.1 122.7,1339.1 122.4,1339 
									122.2,1338.9 121.9,1338.8 121.6,1338.6 121.3,1338.5 121.1,1338.4 120.8,1338.2 120.6,1338 120.3,1337.8 120.1,1337.6 
									119.9,1337.4 119.7,1337.2 119.5,1336.7 119.3,1336.3 119.3,1336.2 119.2,1335.9 119.3,1335.6 								"/>
								<polygon class="st25" points="65.2,1337 66.1,1337.5 68.2,1342.4 67.9,1342.8 63.4,1343.1 63.6,1343.2 63.5,1343.4 
									63.4,1343.4 62.4,1342.9 62.4,1342.8 62.7,1342.7 60.7,1337.6 61.1,1337.2 								"/>
								<polygon class="st25" points="68.3,1342.3 68.5,1342.4 68.5,1342.4 								"/>
								<polygon class="st25" points="52.7,1335.7 52.7,1335.7 60.3,1338.3 								"/>
								<path class="st26" d="M37.7,1335.7l12.7-0.4l0.3,0l0.2,0.1l0.3,0.1l0.3,0.1l0.3,0.2l0.2,0.1l0.1,0.2l0.1,0.1l5.1,15.3
									l0.1,0.2l0.2,0l0.3,0l0.3,0l0.4,0l0.3,0l0.3,0l0.3-0.1l0.3-0.1l0.3-0.2l0.3-0.3l0.3-0.4l0.3-0.3l0.3-0.3l0.2-0.3l0.2-0.3
									l0.2-0.3l0.2-0.3l0.2-0.3l0.2-0.3l0.2-0.3l0.2-0.2l0.2-0.3l0.3-0.3l0.3-0.3l0.3-0.3l-0.2-0.2l0.3-0.2l0.3-0.2l0.4-0.2
									l0.3-0.2l0.4-0.2l0.4-0.1l0.4-0.1l0.4-0.1l0.4-0.1l0.4-0.1l0.4-0.1l0.4-0.1l0.4,0l0.4,0l0.4,0l0.4,0l7.1-0.5l-8.7-2.9
									l-0.2-0.5l0,0l10,3.4l46.9-3.5l0.9-0.1l0.7-0.3l0.4-0.4l0.2-0.5v-0.6l0,0l-0.2-0.6l-0.3-0.6l-0.5-0.7l-0.3-0.3l-0.3-0.3
									l-0.3-0.3l-0.3-0.3l-0.4-0.3l-0.4-0.3l-0.4-0.3l-0.4-0.3l-0.5-0.2l-0.5-0.2l-0.5-0.2l-0.5-0.2l-0.5-0.1l-0.5-0.1l-0.5-0.1
									l-0.5,0l-7.1,0.3l-41.6,1.4h-0.5l-0.4,0l-0.5,0l-0.5-0.1l-0.5,0l-0.5,0l-0.5-0.1l-0.5-0.1l-0.5-0.1l-0.5-0.1l-0.5-0.1
									l-0.5-0.1l-0.5-0.1l-0.5-0.1l-0.4-0.1l-0.5-0.2l-0.7-0.2l-0.6-0.2l-0.6-0.2l-0.6-0.2l-0.5-0.3l-0.5-0.2l-0.5-0.3l-0.5-0.2
									l-0.4-0.3l-0.4-0.2l-0.4-0.2l-0.4-0.2l-0.4-0.2l-0.4-0.2l-0.4-0.2l-0.4-0.2l-0.4-0.2l-0.4-0.2l-0.4-0.1l-0.4-0.1l-0.5-0.2
									l-0.4-0.1l-0.5-0.1l-0.5-0.1l-0.5-0.1l-0.6,0l-0.6,0l-0.7,0l-0.7,0l-0.8,0.1l-0.8,0.1l-0.9,0.1l-0.6,0.1l-0.6,0.2l-0.6,0.2
									l-0.6,0.2l-0.6,0.2l-0.6,0.2l-0.6,0.2l-0.6,0.3l-0.5,0.3l-0.6,0.3l8.9,3l-12,0.4L37.7,1335.7z M119.2,1335.9l0.1-0.3
									l0.1-0.3l0.2-0.2l0.3-0.2l0.4-0.1l0.2,0l0.2,0l0.2,0l0.2,0l0.3,0.1l0.2,0.1l0.3,0.1l0.3,0.2l0.2,0.1l0.2,0.2l0.2,0.2
									l0.2,0.2l0.2,0.2l0.2,0.2l0.2,0.2l0.2,0.2l0.3,0.4l0.2,0.4l0.1,0.2l0,0.1l0,0.4l-0.1,0.3l-0.2,0.2l-0.3,0.1l-0.4,0.1l-0.2,0
									l-0.2,0l-0.3,0l-0.3-0.1l-0.2-0.1l-0.3-0.1l-0.3-0.1l-0.3-0.1l-0.3-0.1l-0.3-0.2l-0.2-0.2l-0.2-0.2l-0.2-0.2l-0.2-0.2
									l-0.2-0.2l-0.2-0.2l-0.3-0.4l-0.2-0.4l0-0.1L119.2,1335.9z M68.5,1342.4L68.5,1342.4l-0.2-0.2L68.5,1342.4z M60.7,1337.6
									l0.3-0.3l4.2-0.2l0.9,0.5l2.1,4.9l-0.3,0.4l-4.5,0.3l0.2,0l-0.2,0.2l0,0l-1-0.6l0,0l0.3-0.1L60.7,1337.6z"/>
							</g>
						</g>
					</g>
				</g>
			</g>
		</g>
		<polygon class="st20" points="116.4,1339.1 116.1,1339 116.1,1338.7 116.4,1338.6 116.5,1338.9 116.3,1338.7 116.4,1339.1 
			116.4,1339.1 		"/>
		<polygon class="st20" points="116.9,1338.8 116.8,1338.9 116.7,1339 116.6,1339 116.5,1339.1 116.4,1339.1 116.3,1338.7 
			116.3,1338.7 116.4,1338.7 116.5,1338.6 116.5,1338.6 116.5,1338.7 116.9,1338.8 116.9,1338.8 116.9,1338.8 		"/>
		<polygon class="st20" points="115.8,1336.5 115.9,1336.5 116,1336.7 116.3,1337 116.5,1337.2 116.7,1337.5 116.9,1337.8 
			117,1338.1 117,1338.5 116.9,1338.8 116.5,1338.7 116.6,1338.5 116.6,1338.2 116.5,1338 116.3,1337.7 116.2,1337.5 116,1337.2 
			115.7,1337 115.6,1336.8 115.6,1336.8 115.8,1336.5 115.8,1336.5 		"/>
		<polygon class="st20" points="112.5,1335.5 112.4,1335.5 112.9,1335.5 113.4,1335.5 113.8,1335.6 114.2,1335.7 114.6,1335.8 
			115,1336 115.4,1336.2 115.8,1336.5 115.6,1336.8 115.2,1336.6 114.9,1336.3 114.5,1336.2 114.1,1336.1 113.7,1336 113.3,1336 
			112.9,1335.9 112.5,1335.9 112.5,1335.9 112.4,1335.6 112.4,1335.6 112.5,1335.5 		"/>
		<polygon class="st20" points="76.7,1337.4 76.9,1337.3 112.4,1335.6 112.5,1335.9 76.9,1337.7 77.1,1337.6 76.7,1337.4 
			76.7,1337.4 		"/>
		<polygon class="st20" points="75.9,1338.7 75.5,1338.5 75.5,1338.3 75.6,1338.1 75.7,1337.8 75.9,1337.6 76.1,1337.5 76.3,1337.4 
			76.6,1337.3 76.9,1337.3 76.9,1337.7 76.6,1337.8 76.4,1337.8 76.3,1337.8 76.1,1338 76.1,1338.1 76,1338.2 75.9,1338.3 
			75.9,1338.6 75.5,1338.5 75.9,1338.7 75.9,1338.7 		"/>
		<g>
			<polygon class="st25" points="76.9,1337.3 76.9,1337.7 76.9,1337.3 			"/>
			<g>
				<polygon class="st25" points="75.9,1338.6 76,1338.4 76.1,1338.1 76.2,1337.9 76.4,1337.8 76.6,1337.8 76.9,1337.7 76.9,1337.7 
					112.5,1335.9 113.1,1336 113.6,1335.9 114,1336 114.5,1336.1 114.9,1336.3 115.2,1336.5 115.6,1336.8 115.9,1337.2 
					116.3,1337.6 116.5,1338 116.6,1338.3 116.6,1338.5 116.5,1338.6 116.3,1338.8 115.9,1338.9 115.3,1338.9 78.7,1340.8 
					78.7,1340.8 78.2,1340.8 77.7,1340.6 77.3,1340.4 76.9,1340.2 76.5,1339.9 76.3,1339.6 76.1,1339.3 76,1339 75.9,1338.8 				"/>
				<g>
					<path class="st25" d="M76,1338.4l0,0.2l0,0.2l0,0.2l0.2,0.3l0.2,0.3l0.2,0.3l0.3,0.3l0.4,0.2l0.4,0.2l0.5,0.1l0.5,0l0,0
						l36.5-1.9l0.6-0.1l0.4-0.1l0.2-0.1l0.1-0.2v-0.2l-0.1-0.3l-0.2-0.4l-0.3-0.4l-0.4-0.4l-0.3-0.3l-0.4-0.2l-0.4-0.2l-0.4-0.1
						l-0.5-0.1l-0.5,0l-0.6,0l-35.6,1.8l0,0l-0.3,0l-0.2,0l-0.2,0.1l-0.1,0.2L76,1338.4z M76.5,1338.1l35.6-1.8l0-0.1l0.5,0l0.5,0
						l0.4,0.1l0.4,0l0.4,0.1l0.4,0.2l0.4,0.2l0.4,0.3l0.2,0.2l0.1,0.1l0.1,0.2l0.1,0.1l0.2,0.2l0.1,0.2l0.1,0.2l0.1,0.2l0,0.1
						l-0.4,0.1l0,0.1l-0.1-0.2l-0.1-0.2l-0.1-0.1l-0.1-0.2l-0.1-0.1l-0.1-0.2l-0.1-0.1l-0.2-0.1l0,0l-0.3-0.2l-0.3-0.2l-0.3-0.1
						l-0.4-0.1l-0.4-0.1l-0.4,0l-0.4,0l-0.4,0l-35.5,1.8L76.5,1338.1z"/>
					<g>
						<path class="st25" d="M76,1338.4l0,0.2l0,0.2l0,0.2l0.2,0.3l0.2,0.3l0.2,0.3l0.3,0.3l0.4,0.2l0.4,0.2l0.5,0.1l0.5,0l0,0
							l36.5-1.9l0.6-0.1l0.4-0.1l0.2-0.1l0.1-0.2v-0.2l-0.1-0.3l-0.2-0.4l-0.3-0.4l-0.4-0.4l-0.3-0.3l-0.4-0.2l-0.4-0.2l-0.4-0.1
							l-0.5-0.1l-0.5,0l-0.6,0l-35.6,1.8l0,0l-0.3,0l-0.2,0l-0.2,0.1l-0.1,0.2L76,1338.4z"/>
						<g>
							<polygon class="st25" points="76.1,1338.1 76.2,1337.9 76.4,1337.8 76.6,1337.8 76.8,1337.7 76.5,1338.3 112.1,1336.5 
								112.5,1336.5 112.9,1336.5 113.4,1336.6 113.8,1336.7 114.2,1336.8 114.5,1336.9 114.9,1337.2 115.3,1337.4 115.4,1337.6 
								115.6,1337.7 115.7,1337.9 115.8,1338 115.9,1338.2 116,1338.4 116.1,1338.5 116.3,1338.7 116.3,1338.8 115.9,1338.9 
								115.3,1338.9 78.7,1340.8 78.7,1340.8 78.2,1340.8 77.7,1340.6 77.3,1340.4 76.9,1340.2 76.5,1339.9 76.3,1339.6 
								76.1,1339.3 76,1339 75.9,1338.8 75.9,1338.6 76,1338.4 							"/>
							<polygon points="116.1,1338.5 116,1338.4 115.9,1338.2 115.8,1338 115.7,1337.9 115.6,1337.7 115.4,1337.6 115.3,1337.4 
								114.9,1337.2 114.5,1336.9 114.2,1336.8 113.8,1336.7 113.4,1336.6 112.9,1336.5 112.5,1336.5 112.1,1336.5 76.5,1338.3 
								76.8,1337.7 76.9,1337.7 76.9,1337.7 112.5,1335.9 113.1,1336 113.6,1335.9 114,1336 114.5,1336.1 114.9,1336.3 
								115.2,1336.5 115.6,1336.8 115.9,1337.2 116.3,1337.6 116.5,1338 116.6,1338.3 116.6,1338.5 116.5,1338.6 116.3,1338.8 
								116.3,1338.8 116.3,1338.7 							"/>
							<g>
								<polygon class="st25" points="76,1338.3 76,1338.3 76.2,1338.3 76.5,1338.3 76.8,1337.7 76.9,1337.7 76.9,1337.7 
									112.5,1335.9 113.1,1336 113.6,1335.9 114,1336 114.5,1336.1 114.9,1336.3 115.2,1336.5 115.6,1336.8 115.9,1337.2 
									116.3,1337.6 116.5,1338 116.6,1338.3 116.6,1338.5 116.5,1338.6 116.3,1338.8 116.3,1338.8 115.9,1338.9 115.3,1338.9 
									78.7,1340.8 78.7,1340.8 78.2,1340.8 77.7,1340.6 77.3,1340.4 76.9,1340.2 76.5,1339.9 76.3,1339.6 76.1,1339.3 76,1339 
									75.9,1338.8 75.9,1338.6 76,1338.4 								"/>
								<path d="M75.5,1338.5l0,0.3l0.1,0.2l0.1,0.3l0.2,0.4l0.3,0.3l0.4,0.3l0.5,0.3l0.5,0.2l0.5,0.1l0.6,0l36.5-1.9l0.7-0.1
									l0.5-0.1l0.4-0.2l0.2-0.3l0-0.3l-0.1-0.4l-0.3-0.4l-0.4-0.5l-0.4-0.4l-0.4-0.3l-0.4-0.3l-0.4-0.2l-0.5-0.1l-0.5-0.1h-0.6
									l-0.6,0l-35.5,1.8v0l-0.4,0l-0.4,0.1l-0.3,0.2l-0.2,0.2l-0.1,0.3L75.5,1338.5z M75.9,1338.6l0-0.2l0,0l0,0h0.2l0.3,0
									l0.3-0.6l0.1,0l0,0l35.6-1.8l0.6,0l0.5,0l0.5,0.1l0.4,0.1l0.4,0.2l0.4,0.2l0.3,0.3l0.4,0.4l0.3,0.4l0.2,0.4l0.1,0.3v0.2
									l-0.1,0.2l-0.2,0.1l0,0l-0.4,0.1l-0.6,0.1l-36.5,1.9l0,0l-0.5,0l-0.5-0.1l-0.4-0.2l-0.4-0.2l-0.3-0.3l-0.2-0.3l-0.2-0.3
									L76,1339l0-0.2L75.9,1338.6z"/>
							</g>
						</g>
					</g>
				</g>
			</g>
		</g>
	</g>
</g>
</svg>
