<?xml version="1.0" encoding="utf-8"?>
<!-- Generator: Adobe Illustrator 22.1.0, SVG Export Plug-In . SVG Version: 6.00 Build 0)  -->
<svg version="1.1" id="Layer_1" xmlns="http://www.w3.org/2000/svg" xmlns:xlink="http://www.w3.org/1999/xlink" x="0px" y="0px"
	 viewBox="0 0 882 1098" style="enable-background:new 0 0 882 1098;" xml:space="preserve">
<style type="text/css">
	.st0{fill-opacity:0.5;}
	.st1{fill:#D0D1D2;}
	.st2{fill:#231F20;}
	.st3{font-family:'Arial-BoldMT';}
	.st4{font-size:9.0915px;}
	.st5{fill-rule:evenodd;clip-rule:evenodd;}
	.st6{fill-rule:evenodd;clip-rule:evenodd;fill:#B7D333;}
	.st7{fill-rule:evenodd;clip-rule:evenodd;fill:#FFFFFF;}
	.st8{fill-rule:evenodd;clip-rule:evenodd;fill:#4D494A;}
	.st9{fill:#4D494A;}
	.st10{fill:#FFFFFF;}
	.st11{fill:none;stroke:#00A551;stroke-miterlimit:10;}
	.st12{fill:none;stroke:#00ADEE;stroke-miterlimit:10;}
	.st13{fill:none;stroke:#00ADEE;stroke-miterlimit:10;stroke-dasharray:12.1177,12.1177;}
	.st14{fill:none;stroke:#00ADEE;stroke-miterlimit:10;stroke-dasharray:12.1274,12.1274;}
	.st15{fill:none;stroke:#00ADEE;stroke-miterlimit:10;stroke-dasharray:13.1988,13.1988;}
	.st16{fill:none;stroke:#00ADEE;stroke-miterlimit:10;stroke-dasharray:13.1994,13.1994;}
	.st17{fill:none;stroke:#00ADEE;stroke-miterlimit:10;stroke-dasharray:12.05,12.05;}
	.st18{fill:none;stroke:#00ADEE;stroke-miterlimit:10;stroke-dasharray:12.1224,12.1224;}
	.st19{fill:none;stroke:#EC1E28;}
	.st20{font-family:'Arial-Black';}
	.st21{font-size:11.4736px;}
	.st22{fill:#2BA6DE;}
	.st23{font-size:9.5613px;}
	.st24{fill:#EC1E28;}
	.st25{fill:#929497;}
	.st26{fill:none;stroke:#2BA6DE;}
	.st27{fill:none;stroke:#2BA6DE;stroke-dasharray:11.7014,8.776;}
	.st28{fill:none;stroke:#929497;}
</style>
<g>
	<g>
		<path class="st0" d="M0,0v1098h882V0H0z M873,868.9h-62.8c0,0-5,3.6-5,3.6v84.8h-64.1l-85-84.8l-1.4,153.8l-5,62.7H232.3l-5-62.7
			l-1.4-153.8l-85,84.8H76.8v-84.8l-5-3.6H9V229.1h62.8l5-3.6v-84.8h64.1l85,84.8l1.4-153.8l5-62.7h417.3l5,62.7l1.4,153.8l85-84.8
			h64.1l-0.3,84.8l5.3,3.6H873V868.9z"/>
	</g>
	<g>
		<rect x="9" y="973.4" class="st1" width="118.7" height="115.6"/>
		<text transform="matrix(1 0 0 1.0021 18.8799 1072)" class="st2 st3 st4">Medium Stout Box Top</text>
		<g>
			<path class="st5" d="M108.8,1018.4c0,22.3-18.1,40.5-40.4,40.5c-22.3,0-40.4-18.1-40.4-40.5c0-22.4,18.1-40.5,40.4-40.5
				C90.7,977.9,108.8,996.1,108.8,1018.4"/>
			<path class="st6" d="M105.1,1018.6c0,20.3-16.4,36.8-36.7,36.8c-20.3,0-36.7-16.5-36.7-36.8c0-20.3,16.4-36.8,36.7-36.8
				C88.7,981.8,105.1,998.3,105.1,1018.6"/>
			<path d="M60.5,1010.6c-0.5,4.5-0.9,8.1-1.1,10.9l-1.7,0.1c0-0.1,0-0.2,0-0.3c0-0.2-0.1-0.5-0.2-0.8c-0.2-0.3-0.2-0.5-0.3-0.6
				c-0.4,0.1-0.8,0.4-1.2,0.9c-0.4,0.5-0.8,0.8-1.1,0.8c-0.2,0-0.4-0.1-0.6-0.1c-0.3,0.2-0.7,0.3-1.2,0.3c-0.4-0.1-0.9-0.1-1.3-0.2
				c0-0.6-0.6-1.1-1.7-1.5c0-0.2-0.1-0.6-0.3-1c-0.2-0.4-0.3-0.8-0.3-0.9c0-0.2,0.1-0.4,0.2-0.5c0-0.1-0.2-0.5-0.6-1.3
				c-0.2-0.6-0.4-1.1-0.4-1.5c0-0.3,0.1-0.6,0.2-0.9c-0.2-1.9-0.3-3.6-0.3-5c0-2.1,0.3-4.1,0.9-5.9c0-0.3-0.1-0.5-0.1-0.8
				c0-1.4,0.5-2.4,1.5-3l0-0.4c1-1.2,2.2-2.1,3.8-2.6c0.9,0.2,1.9,0.4,2.8,0.6c1,0.4,1.8,1,2.2,1.8c0.3,0.2,0.5,0.6,0.5,1.1
				c0,0.6,0.1,1,0.2,1.2l-0.2,0.2c0.2,1.3,0.3,2.2,0.3,2.5c0,0.9-0.2,1.5-0.7,1.8c-0.2,0-0.6-0.1-1.3-0.4c-0.2,0.2-0.3,0.2-0.5,0.2
				c-0.1,0-0.3-0.1-0.5-0.1c-0.2-0.1-0.4-0.1-0.6-0.1c-0.1,0-0.2,0-0.3,0.1c0-1.8,0-3.1,0.2-4c-0.2-0.1-0.4-0.4-0.5-0.8
				c-0.2-0.4-0.4-0.6-0.7-0.7c-0.2,0.2-0.3,0.4-0.2,0.4l-0.6-0.2c-0.6,0.6-0.9,1.7-1.1,3.2c-0.2,1.7-0.4,2.9-0.7,3.4
				c0.2,0.3,0.4,0.6,0.4,1.1c0,0.2,0,0.4-0.1,0.8c-0.1,0.4-0.1,0.6-0.1,0.8c0,0.2,0,0.4,0.1,0.6l-0.4,0.4c0.2,0.8,0.3,1.8,0.3,3
				c0,1,0,2,0,3c0,0-0.2,0-0.6,0c-0.2,0-0.4,0.1-0.5,0.2c0.1,0,0.3,0,0.4,0c0.5,0,0.9,0.4,1.2,1.1c0.3,0.7,0.5,1.1,0.7,1.1
				c0.2,0,0.5-0.2,0.9-0.6c0.7-0.7,1-1.7,1-3c0-0.6-0.1-1.3-0.2-2c-0.2,0.1-0.2,0.3-0.3,0.7c-0.4,0-0.6,0.1-0.7,0.2
				c-0.2,0-0.2-0.2-0.2-0.4c0-0.3,0-0.5,0-0.5c0.3-0.1,0.4-0.2,0.4-0.4c0-0.1,0-0.2-0.1-0.4c-0.1-0.2-0.1-0.3-0.1-0.4
				c0-0.1,0-0.2,0.1-0.3l0.2-1.3c0.5,0.1,1.6,0.2,3.2,0.2c0,0.1,0,0.3,0.2,0.4c0.2-0.2,0.3-0.2,0.5-0.2c0.1,0,0.3,0.1,0.6,0.2
				C60.2,1010.5,60.4,1010.6,60.5,1010.6"/>
			<path d="M73.3,1022.4c-0.3-0.1-0.7-0.2-1-0.2c-0.3,0-0.8,0.1-1.3,0.2c-0.6,0.1-1,0.2-1.3,0.2c-0.2-0.5-0.4-1.1-0.5-2
				c-0.2-1.2-0.3-1.9-0.3-2.1c0.1-0.1,0.1-0.2,0.1-0.3c0-0.2-0.2-0.5-0.6-0.7c-0.4-0.2-0.6-0.4-0.6-0.5c0-0.1,0.2-0.3,0.7-0.6
				c-0.1-0.1-0.2-0.4-0.2-0.8c-0.1-0.4-0.2-0.7-0.3-0.8c-0.3,0.2-0.7,0.4-1.4,0.5c-0.6,0.1-1,0.2-1.3,0.3c0,1.8-0.3,3-0.9,3.6
				c-0.3-0.1-0.6,0-0.7,0.4c-0.2,0.4-0.4,0.6-0.6,0.7l0.2,0.2c-0.2,0.2-0.5,0.2-0.9,0.2c-0.6,0-1-0.1-1-0.1l-0.2-0.6l2.2-18.5
				c0-1.2,0.1-2,0.2-2.4c0-1,0.2-1.7,0.7-1.9c0.3,0.2,0.7,0.3,1.2,0.3c0.4,0,1-0.1,1.8-0.2c0.8-0.2,1.4-0.3,1.7-0.2
				c1.1,0,1.6,0.8,1.5,2.4c-0.1,1.3,0.1,3,0.6,5c0.5,2.2,0.8,3.9,0.8,5c0,0.3,0.1,1,0.1,1.4c-0.5,0.3-1.1,0.4-1.9,0.5
				c-0.7,0-1.3,0.1-2,0.1c-0.2-1.7-0.5-3.8-0.7-5.5c-0.2-2.1-0.5-3.8-0.8-5.1l-1.1,9.8c-0.1,0.8,0.3,1.3,1.1,1.3
				c0.3,0,0.5-0.1,0.8-0.2c0.2-0.1,0.5,0.1,0.8,0.5c0,0.7,0.1,1.1,0.4,1.3c0.4-0.2,0.8-0.5,1.4-0.7c0.5-0.2,1-0.4,1.5-0.6
				c0.3,0.4,0.5,1,0.6,1.8c0.1,1.1,0.2,1.7,0.2,1.9c0,0.4,0.2,1.4,0.5,2.8c0.2,1.1,0.3,2.1,0.3,2.8
				C73.4,1021.8,73.3,1022.1,73.3,1022.4"/>
			<path d="M89,1006.1c0,0.1,0,0.5,0,1.2c0,0.6-0.1,1-0.2,1.3c-0.2,0.5-0.3,1.1-0.3,1.9c0,0.2,0,0.5,0,0.9c0,0.4,0,0.7,0,0.9
				c0,1.4-0.3,2.5-0.7,3.1c0,0.4,0.1,0.7,0,1.1c0,1.1-0.4,2.7-1.2,4.6c-0.2,0.1-0.4,0.1-0.5,0.1c-0.3,0-0.5-0.2-0.6-0.5
				c-0.1-0.3-0.2-0.6-0.3-0.9c0.1-1.8,0-4.3-0.1-7.7l0.2-0.2c-0.2-0.6-0.2-1.3-0.2-2c0-0.5,0.1-1.3,0.2-2.3c0.1-1,0.2-1.7,0.2-2.3
				c0-0.3,0-0.6,0-0.9c-0.8,1.9-1.3,5.1-1.7,9.6l-0.3,0.7c-0.1,0.2-0.3,0.4-0.6,0.4c-0.1-0.2-0.2-0.2-0.3-0.2
				c-0.1,0-0.2,0.1-0.4,0.2c-0.2,0.2-0.3,0.2-0.4,0.2l-0.5,0.4c0.2,0.3,0.6,0.3,1.3,0.1c0.5-0.2,0.8,0,0.8,0.6
				c0,0.5-0.1,1.1-0.4,1.8c-0.3,0.8-0.4,1.3-0.4,1.7c0,0.3,0,0.5,0.1,0.8l-2.4,0.4c-0.2-0.5-0.4-1.2-0.5-2.3
				c-0.1-1.1-0.3-1.9-0.5-2.3c0.1-0.2,0.2-0.3,0.2-0.5c0-0.2-0.1-0.4-0.2-0.7c-0.1-0.3-0.2-0.6-0.2-0.7c0-0.2-0.1-0.9-0.2-1.8
				c-0.1-0.8-0.2-1.4-0.1-1.8c0-0.2,0-0.4,0-0.6c0-0.2-0.1-0.4-0.3-0.7c-0.2-0.3-0.3-0.5-0.3-0.7c0-0.1,0-0.2,0.1-0.3
				c-0.2-0.2-0.2-0.5-0.2-1c0-0.5,0-0.8-0.2-1c-0.3,0.9-0.5,2.1-0.5,3.6c0,2.1,0,3.3-0.1,3.6l0.2,0.2l-0.2,0.2
				c0.2,0.8,0.2,1.9,0.2,3.2c-0.1,2.3-0.1,3.4-0.1,3.2c-0.3,0.3-0.8,0.4-1.3,0.4c-0.7,0-1.2,0-1.4,0.2c-0.3-0.5-0.4-1.2-0.4-2
				c0-0.6,0.1-1.4,0.3-2.3c-0.3-0.6-0.5-1.4-0.4-2.4c0-0.3,0-0.7,0.1-1.4c0-0.6,0-1,0-1.3c0.2-0.1,0.3-0.2,0.4-0.4
				c0-0.1-0.1-0.2-0.2-0.5c-0.1-0.2-0.2-0.4-0.2-0.5c0-0.1,0.1-0.3,0.3-0.4L74,999.2c0.4-0.3,1.1-0.4,2.1-0.4c1.1,0,1.8,0,2.2-0.2
				c0.1,0,0.1-0.1,0.2-0.1c0.1,0,0.2,0.1,0.3,0.2c0.1,0.1,0.2,0.2,0.3,0.2c0.1,0,0.2-0.1,0.2-0.2l0.6,0.6c0.2,0.8,0.4,2.4,0.6,4.7
				c0.2,2,0.5,3.5,0.9,4.5c0.6-2,1-3.7,1.4-5.1l0.7-5.4l5.3-0.1c0,0.3,0.1,1.9,0.2,2.8c0.1,0.8,0.2,1.5,0.2,2c0,0.6-0.1,1.1-0.3,1.5
				c0.2,0.3,0.3,0.6,0.3,1C89.3,1005.5,89.2,1005.9,89,1006.1"/>
			<path d="M99.9,1018.1L99.9,1018.1c-0.1,0.3-0.2,0.6-0.3,1c0,0.2,0,0.6,0,1.1c0,0.5,0,0.9,0,1.1c-0.2,0-0.9,0-2.2,0
				c-0.8,0-1.5,0.1-2.1,0.2l-0.6-0.7c-0.2,0.2-0.3,0.3-0.2,0.4c-0.1,0-0.6,0-1.6,0c-0.7,0-1.3-0.1-1.6-0.2c-0.4,0.4-0.8,0.4-1.3,0
				c-0.2-0.1-0.2-0.4-0.1-0.7c0.1-0.3,0.1-0.6-0.1-0.7c0-0.7,0.1-1.9,0.3-3.4c0.2-1.4,0.2-2.4,0.3-3.2c0-1-0.1-2.1-0.2-3
				c0.3-0.2,0.5-0.4,0.9-0.4c0.4,0,0.8,0.2,1.3,0.5c0.7,0.5,1.1,0.7,1.1,0.7l0.2,0.2c0-0.1,0.1-0.4,0.4-1.1c0.1-0.4,0.3-0.7,0.5-0.8
				l0.2,0.2c0.1,0,0.4-0.3,0.9-0.6c0.4-0.3,0.7-0.9,0.9-0.9c0.3,0,0.5,0.1,0.7,0.4c0.4,0.2,0.6,1,0.7,1.5c0.1,0.4,0.2,0.8,0.3,1.3
				c-1,0-1.9,0-2.5-0.1c-0.2,0.2-0.4,0.3-0.7,0.1c-0.3-0.2-0.5-0.2-0.6,0.1c0,0.4,0,1.1,0,2.2c0,1,0,1.7,0,2.3
				c0,0.8,0.1,1.6,0.2,2.3c0.2,0,1,0,2.6,0C98.2,1017.8,99.1,1017.9,99.9,1018.1 M99.9,1001.7c-0.2,0-0.4,0-0.7,0
				c-0.5,0-1.2-0.1-2.1-0.2c-1.1-0.2-1.7-0.2-1.9-0.3c-0.3,0.5-0.5,1.1-0.5,2c0,1.9,0,2.7,0,2.4c0.3,0.2,0.5,0.5,0.5,1
				c0,0.7,0,1,0,1.1c-0.2,0.1-0.2,0.3-0.2,0.7c-0.2-0.1-0.5-0.3-0.8-0.6c-0.4-0.4-0.5,0.8-0.5,0.5l-0.2,0.7l-0.2-0.2
				c-0.2,0-0.5-0.1-0.9-0.3c-0.4-0.2-0.8-0.4-0.9-0.6c0-0.4,0.1-0.6,0.2-0.6l-0.4-0.5l-0.2,0.3c-0.3-2.4-0.2-6.8,0.1-9.3
				c0.9,0.2,1.8,0.2,2.9,0.3c0.7,0,1.7,0,3,0c1.5,0,2.5,0,3.1,0c0.3,0.3,0.4,0.6,0.4,1c0,0.3-0.1,0.7-0.2,1.2
				C100,1001,99.9,1001.4,99.9,1001.7"/>
			<path d="M61.6,1038.8L61.6,1038.8c0,0-0.1,0.5-0.2,1.5c-0.1,0.6-0.2,1.1-0.4,1.4l-0.1-0.1c-0.3,0.6-0.6,0.9-1.1,1.1
				c-0.2,0.2-0.6,0.4-1,0.4c-0.3,0-0.8-0.1-1.8-0.2c-0.4-0.3-0.7-0.4-0.7-0.5c-0.3-0.2-0.4-0.4-0.4-0.6c-0.3-0.3-0.7-0.8-0.8-1.4
				c-0.2-0.7-0.3-0.7-0.4-1c-0.3,0.2-0.4-0.2-0.5-0.5l0.1-0.1c-0.1-0.1-0.1-0.1-0.1-0.2c0-0.1,0-0.1,0.1-0.2c0-0.1,0.1-0.2,0.1-0.2
				c0-0.1-0.1-0.2-0.2-0.2c0.1-0.5,0.2-1.3,0.3-2.4c0.2-0.1,0.3-0.3,0.3-0.6c0-0.3,0-0.5,0.1-0.6c0.4-0.9,1.1-1.5,2.1-1.8
				c0.1,0,0.3,0,0.8,0c0.3,0,0.6,0,0.7,0.1c0.3,0,0.6,0,0.9,0.2c0.3,0.2,0.5,0.4,0.8,0.6c0.5,0.5,0.7,1.1,0.8,1.7c0,0.2,0,0.4,0,0.7
				c-0.3,0-0.6,0.2-0.7,0.7l-1.4,0.1c-0.1-0.2-0.2-0.5-0.2-0.8c0-0.1,0-0.3,0-0.5c0-0.2,0-0.4,0-0.5c0-0.4-0.1-0.6-0.3-0.8l-0.4,0.2
				c-0.2-0.1-0.3-0.2-0.3-0.3c0,0,0-0.1,0-0.2c0-0.1,0-0.1,0-0.2c0-0.1-0.1-0.2-0.4-0.3c-0.2,1.5-0.2,3.1-0.1,4.7
				c0,0.1,0.2,0.1,0.4,0.1c0.2,0,0.3,0.1,0.3,0.2c0,0,0,0.1,0,0.1l-0.1,0.1c0.1,0.1,0.1,0.3,0.1,0.5c0,0.1,0,0.3,0,0.5
				c0,0.2,0,0.4,0,0.5c0,0.3,0.1,0.6,0.2,0.7c0,0.2,0.1,0.4,0.3,0.5c0.1,0,0.2-0.1,0.4-0.1c0.4,0,0.7,0.2,0.9,0.7c0,0,0,0.1,0,0.2
				c0,0.1,0.1,0.1,0.1,0.2c0.2-0.1,0.3-0.3,0.3-0.6c0-0.3,0-0.5,0.1-0.6c0-0.2-0.1-0.4-0.3-0.7c-0.2-0.3-0.2-0.5-0.3-0.7
				c0-0.2,0-0.3,0.2-0.5c-0.1,0-0.1-0.1-0.1-0.2c0-0.2,0-0.2,0-0.2C60,1038.6,60.8,1038.6,61.6,1038.8"/>
			<path d="M67.7,1040L67.7,1040c-0.1,0.2-0.1,0.4-0.1,0.7c0,0.4,0.1,0.6,0.1,0.6c-0.1,0-0.1,0-0.2-0.1c-0.2,0.1-0.2,0.2-0.2,0.3
				c0,0,0,0.1,0,0.1c0,0.1,0,0.1,0,0.1c0,0.1,0,0.2-0.1,0.2c-0.2-0.1-0.4-0.2-0.7-0.2c-0.3,0-0.6-0.1-0.8-0.1c0-1.4-0.2-2.7-0.6-4
				c0,0,0-0.1,0-0.4c0-0.2,0-0.3-0.1-0.4l-0.1,0.1c0,0,0-0.1,0.1-0.1c0.1-0.1,0.1-0.1,0.1-0.2c0,0,0-0.1,0-0.1l-0.1-0.1
				c-0.2,0.1-0.3,0.3-0.3,0.6c0,0.2-0.1,0.3-0.2,0.4c0.1,0,0.1,0.1,0.1,0.2c0,0,0,0.1,0,0.2c0,0.1,0,0.1,0,0.2
				c0,0.1,0.1,0.2,0.1,0.2c0,0.1,0,0.6,0.1,1.6c0,0.7,0,1.2-0.1,1.7l0,0.3c-0.1,0-0.2,0-0.3,0c-0.1,0-0.3,0-0.5,0.1
				c-0.2,0-0.4,0-0.5,0.1c-0.5,0-0.8-0.1-1-0.2L62,1036c-0.1-0.3-0.2-0.7-0.2-1.2l-0.1-1.1c0-0.5-0.1-0.9-0.2-1.2
				c0-0.2,0.2-0.3,0.5-0.3c0.2,0,0.4,0,0.8,0.1c0.1-0.1,0.3-0.1,0.6-0.1c0.1,0,0.2,0,0.4,0c0.2,0,0.3,0,0.4,0c0.5,0,0.8-0.2,1-0.5
				c0.2,0,0.5,0.1,0.7,0.2c0.3,0.1,0.5,0.2,0.7,0.2c0.5,0.3,0.8,0.8,0.9,1.6c0,0.2-0.1,0.8-0.2,1.9l-0.9,0.8
				c0.2,0.3,0.3,0.9,0.6,1.9C67.1,1039.1,67.4,1039.7,67.7,1040 M66.1,1033.6L66.1,1033.6c0,0.1,0-0.2,0-0.7c0-0.3-0.1-0.5-0.3-0.6
				c-0.1,0.1,0,0.2,0,0.6c0,0.3-0.2,0.2-0.4,0.4c-0.3,0-0.4,0.2-0.4-0.1c-0.1-0.5-0.3-0.4-0.3-0.4l-0.1,0.1c0,0-0.1,0.1-0.2,0.1
				c-0.1,0.1-0.1,0.1-0.2,0.1c0,0.1,0,0.2-0.1,0.3c-0.1,0.1-0.1,0.2-0.1,0.3c0,0.1,0.1,0.2,0.2,0.2c0,0.2,0,0.4,0,0.6
				c0,0.1,0,0.4,0.1,0.8c0.1,0.3,0.1,0.6,0.1,0.9c0.1,0,0.2,0,0.3,0c0.4,0,0.7-0.2,0.9-0.5c0-0.1,0.1-0.4,0.1-1
				C65.7,1034.1,65.8,1033.8,66.1,1033.6"/>
			<path d="M74.8,1042.2c-0.2,0-0.4-0.1-0.6-0.1c-0.2,0-0.4,0.1-0.7,0.1c-0.3,0.1-0.6,0.1-0.7,0.1c-0.1-0.2-0.3-0.5-0.3-0.9
				c-0.1-0.5-0.2-0.8-0.3-0.9c0-0.1,0.1-0.1,0.1-0.2c0-0.1-0.1-0.2-0.3-0.3c-0.2-0.1-0.3-0.1-0.3-0.2c0-0.1,0.1-0.2,0.4-0.3
				c-0.1-0.1-0.1-0.2-0.2-0.4c0-0.2-0.1-0.3-0.2-0.4c-0.1,0.1-0.4,0.2-0.7,0.3c-0.3,0.1-0.6,0.1-0.7,0.2c0.1,0.8,0,2.2-0.3,2.5
				c-0.2,0-0.3,0-0.4,0.2c-0.1,0.2-0.2,0.3-0.3,0.3l0.1,0.1c-0.1,0.1-0.3,0.1-0.5,0.1c-0.4,0-0.5,0-0.6,0l-0.1-0.3l0.5-9.1
				c0-0.5,0-0.9,0-1c-0.1-0.5,0.1-0.7,0.3-0.9c0.2,0.1,0.4,0.1,0.7,0.1c0.2,0,0.5-0.1,1-0.2c0.4-0.1,0.8-0.2,0.9-0.2
				c0.6,0,0.9,0.3,0.9,1c0,0.6,0.1,1.3,0.5,2.2c0.4,1,0.6,1.7,0.6,2.2c0,0.1,0.2,0.5,0.2,0.6c-0.3,0.1-0.6,0.2-1,0.3
				c-0.4,0-0.7,0.1-1.1,0.1c-0.2-0.8-0.5-1.7-0.7-2.4c-0.2-0.9-0.4-1.6-0.6-2.2l-0.2,4.3c0,0.4,0.2,0.6,0.7,0.5c0.2,0,0.3,0,0.4-0.1
				c0.1,0,0.3,0,0.5,0.2c0,0.3,0.1,0.5,0.3,0.5c0.2-0.1,0.4-0.2,0.8-0.4c0.3-0.1,0.6-0.2,0.8-0.3c0.2,0.2,0.3,0.4,0.4,0.7
				c0.1,0.5,0.2,0.8,0.2,0.8c0,0.2,0.2,0.6,0.4,1.2c0.2,0.5,0.3,0.9,0.3,1.2C74.9,1042,74.8,1042.1,74.8,1042.2"/>
			<path d="M80,1032L80,1032c-0.1,0.2-0.3,0.3-0.6,0.1c0,0-0.3,0-0.7,0c-0.3,0-0.6,0-0.7,0c0,0-0.1,0-0.2,0.1
				c-0.1,0.1-0.2,0.1-0.2,0.1c-0.1,0-0.1-0.1-0.1-0.2c0,0,0-0.1,0-0.3c0-0.1-0.1-0.2-0.1-0.2l-0.2,0.2c-0.1,0.1-0.1,0.1-0.1,0.2
				c0,0.1,0,0.1,0.1,0.2c0.1,0.1,0.1,0.2,0.1,0.2c0,0,0,0.5,0.1,1.4c0,0.6,0.1,1,0.3,1.3c0-0.1,0.2-0.1,0.3-0.1c0.2,0,0.3,0,0.4-0.1
				c0.1,0.1,0.3,0.1,0.6,0c0.3-0.1,0.5-0.1,0.6,0.1l0,1.3c-0.1,0-0.3-0.1-0.5-0.2c-0.1,0.2-0.2,0.3-0.4,0.4c-0.1,0-0.3,0-0.6,0.1
				c0-0.1,0-0.1-0.2-0.2c-0.3,0.2-0.5,0.5-0.4,1.2c0-0.1,0,0,0,0.3c0,0.2,0,0.3-0.1,0.4c-0.2,0-0.5,0-0.8-0.1
				c-0.3-0.1-0.6-0.2-0.7-0.2c-0.1,0-0.1,0-0.2,0l-0.3,0.1l-0.6-6.1l-0.1-1.2c0.5-0.2,1-0.3,1.7-0.3c0.5,0,1.2,0,2.1,0
				c0.1-0.1,0.2,0,0.3,0c0.1,0,0.2,0,0.3,0c0.1,0,0.2,0,0.3,0c0.1,0,0.1,0,0.2,0l0.1-0.1c0.3,0.1,0.4,0.2,0.4,0.4
				c0,0.1,0,0.2-0.1,0.4c-0.1,0.2-0.1,0.3-0.1,0.4C79.9,1031.8,80,1031.9,80,1032 M77.8,1042.1c-0.1,0.1-0.3,0.1-0.6,0.1
				c-0.4,0-0.6,0-0.7,0.1c0,0-0.1,0-0.2-0.3c0-0.2-0.2-0.3-0.4-0.3c0,0-0.1,0-0.2,0l-0.3,0l-0.2-3.1c0.2-0.1,0.4-0.1,0.7-0.2
				c0.3,0,0.5,0,0.7,0.1c0,0.1,0.2,0.2,0.5,0.1l0.4,0C77.7,1039.6,77.8,1041.1,77.8,1042.1"/>
			<path d="M87.5,1032.2L87.5,1032.2c-0.2,0-0.7,0-1.2,0.1c-0.4,0-0.7,0-0.8,0c-0.2,0.1-0.2,0.3-0.2,0.5l0.1,0.1
				c-0.1,0.1-0.1,0.2-0.1,0.2l0.1,0.1c0,1.8,0,2.8,0,3c0,0.5,0.1,0.9,0.2,1.2c-0.1,0.2-0.1,0.5-0.1,0.8c0,0.2,0.1,0.5,0.1,0.9
				c0.1,0.4,0.2,1.8,0.2,2c0,0.2,0,0.3,0,0.5c-0.2,0.1-0.4,0.1-0.6,0.1c-0.3,0-0.7,0-1.1-0.2c0,0-0.1,0.1-0.2,0.1
				c-0.1,0-0.1,0.1,0,0.2c-0.1,0-0.3,0-0.5-0.2c-0.1-1.8-0.4-5.5-0.9-9.2c-0.2,0.2-0.5,0-0.8,0.1c-0.4,0-0.8,0-0.9,0.1
				c-0.2-0.2-0.1-0.3-0.2-0.6c0-0.3-0.1-1.1,0-1.5c0-0.1,0.7,0,1.1-0.1c0.6,0,0.7,0.1,0.7,0.1c0-0.1,0.3,0,0.5,0
				c0.1,0.1,0.3-0.1,0.3,0c0,0.1,0,0.4,0,0.6c0,0.1-0.1,0.2-0.1,0.2c0,0.1,0.1-0.1,0.3,0c0.2,0,0.5,0,0.7,0c0.3,0,0.6-0.1,0.5,0.2
				c0-0.1,0.1,0.1,0.5-0.1c0.3-0.1,0.5-0.5,0.4-0.7c0-0.1,0.1-0.2,0-0.1c0.1-0.1,0,0,0.2-0.1c0.5,0,0.7,0,0.8,0c0.2,0,0.7,0.1,0.8,0
				c0.1,0.2,0.1,0.7,0.2,1C87.5,1031.9,87.5,1032.2,87.5,1032.2"/>
			<path d="M93.6,1038.5L93.6,1038.5c-0.1,0.1-0.1,0.3-0.1,0.4c0,0.1,0,0.3,0,0.5c0,0.2,0,0.4,0.1,0.5c-0.1,0-0.5,0-1.2,0.1
				c-0.4,0-0.8,0.1-1.1,0.2l-0.4-0.3c-0.1,0.1-0.1,0.2-0.1,0.2c-0.1,0-0.3,0-0.9,0c-0.4,0-0.7,0-0.9,0c-0.2,0.2-0.4,0.2-0.7,0
				c-0.1-0.1-0.1-0.2-0.1-0.3c0.1-0.2,0-0.3-0.1-0.3c0-0.3,0-0.8,0-1.5c0-0.6,0-1.1,0-1.4c0-0.5-0.1-0.9-0.2-1.3
				c0.1-0.1,0.3-0.2,0.5-0.2c0.2,0,0.4,0,0.7,0.2c0.4,0.2,0.6,0.3,0.6,0.3l0.1,0.1c0,0,0.1-0.2,0.2-0.5c0.1-0.2,0.1-0.3,0.3-0.4
				l0.1,0.1c0,0,0.2-0.1,0.5-0.3c0.2-0.1,0.3-0.6,0.5-0.6c0.1,0,0.3,0,0.4,0.2c0.2,0.1,0.4,0.6,0.5,0.8c0.1,0.2,0.2,0.4,0.2,0.5
				c-0.6,0.1-1,0.1-1.4,0.1c-0.1,0.1-0.2,0.1-0.4,0.1c-0.2-0.1-0.3,0-0.4,0.1c0,0.2,0,0.5,0.1,1c0,0.4,0,0.8,0.1,1
				c0,0.4,0.1,0.7,0.2,1c0.1,0,0.6,0,1.4-0.1C92.6,1038.5,93.1,1038.5,93.6,1038.5 M93,1031.4c-0.1,0-0.2,0-0.4,0
				c-0.3,0-0.7,0-1.1,0c-0.6,0-0.9,0-1.1,0c-0.2,0.2-0.2,0.4-0.2,0.8c0,0.8,0.1,1.2,0.1,1.1c0.2,0.1,0.3,0.2,0.3,0.4
				c0,0.3,0,0.5,0,0.5c-0.1,0-0.1,0.1-0.1,0.3c-0.1,0-0.3-0.1-0.4-0.2c-0.2-0.1-0.3,0.4-0.3,0.2l-0.1,0.3l-0.1-0.1
				c-0.1,0-0.3,0-0.5-0.1c-0.2-0.1-0.4-0.2-0.5-0.2c0-0.2,0-0.3,0.1-0.3l-0.3-0.2l-0.1,0.1c-0.2-1-0.4-2.9-0.3-4
				c0.5,0,1-0.1,1.6-0.1c0.4,0,0.9,0,1.6-0.1c0.8-0.1,1.4-0.1,1.7-0.1c0.2,0.1,0.2,0.2,0.2,0.4c0,0.1,0,0.3-0.1,0.5
				C93,1031,93,1031.3,93,1031.4"/>
			<path d="M99.8,1037.4L99.8,1037.4c-0.1,0.2-0.1,0.4-0.1,0.7c0,0.4,0.1,0.6,0.1,0.6c-0.1,0-0.1,0-0.2-0.1
				c-0.2,0.1-0.2,0.2-0.2,0.3c0,0,0,0.1,0,0.1c0,0.1,0,0.1,0,0.1c0,0.1,0,0.2-0.1,0.2c-0.2-0.1-0.4-0.2-0.7-0.2
				c-0.3,0-0.6-0.1-0.8-0.1c0-1.4-0.2-2.7-0.6-4c0,0,0-0.1,0-0.4c0-0.2,0-0.3-0.1-0.4l-0.1,0.1c0,0,0-0.1,0.1-0.1
				c0.1-0.1,0.1-0.1,0.1-0.2c0,0,0-0.1,0-0.1l-0.1-0.1c-0.2,0.1-0.3,0.3-0.3,0.6c0,0.2-0.1,0.3-0.2,0.4c0.1,0,0.1,0.1,0.1,0.2
				c0,0,0,0.1,0,0.2c0,0.1,0,0.1,0,0.2c0,0.1,0.1,0.2,0.1,0.2c0,0.1,0,0.6,0.1,1.6c0,0.7,0,1.2-0.1,1.7l0,0.3c-0.1,0-0.2,0-0.3,0
				c-0.1,0-0.3,0-0.5,0.1c-0.2,0-0.4,0-0.5,0.1c-0.5,0-0.8-0.1-1-0.2l-0.2-5.6c-0.1-0.3-0.2-0.7-0.2-1.2l-0.1-1.1
				c0-0.5-0.1-0.9-0.2-1.2c0-0.2,0.2-0.3,0.5-0.3c0.2,0,0.4,0,0.8,0.1c0.1-0.1,0.3-0.1,0.6-0.1c0.1,0,0.2,0,0.4,0c0.2,0,0.3,0,0.4,0
				c0.5,0,0.8-0.2,1-0.4c0.2,0,0.5,0.1,0.7,0.2c0.3,0.1,0.5,0.2,0.7,0.2c0.5,0.3,0.8,0.8,0.9,1.6c0,0.2-0.1,0.8-0.2,1.9l-0.9,0.8
				c0.2,0.3,0.3,0.9,0.6,1.9C99.1,1036.5,99.4,1037.1,99.8,1037.4 M98.1,1031L98.1,1031c0,0.1,0-0.2,0-0.7c0-0.3-0.1-0.5-0.3-0.6
				c-0.1,0.1-0.1-0.2-0.2,0.1c0,0.3-0.1,0.6-0.2,0.7c-0.3,0-0.4-0.2-0.6-0.4c-0.1-0.2-0.2,0-0.2,0l-0.1,0.1c-0.1,0-0.1,0.1-0.2,0.1
				c-0.1,0.1-0.1,0.1-0.2,0.1c0,0.1,0,0.2-0.1,0.3c-0.1,0.1-0.1,0.2-0.1,0.3c0,0.1,0.1,0.2,0.2,0.2c0,0.2,0,0.4,0,0.6
				c0,0.1,0,0.4,0.1,0.8c0.1,0.3,0.1,0.6,0.1,0.9c0.1,0,0.2,0,0.3,0c0.4,0,0.7-0.2,0.8-0.5c0-0.1,0.1-0.4,0.1-1
				C97.7,1031.5,97.9,1031.2,98.1,1031"/>
			<path d="M37.7,1011.5L37.7,1011.5c-0.1,0.5-0.1,0.9-0.1,1.1c-0.1,0-0.2,0-0.3,0c-0.2,0-0.3,0-0.3,0c-0.1,0-0.1,0-0.2,0.1
				c-0.1-0.1-0.2-0.1-0.2-0.1c-0.1,0.1-0.1,0.1-0.1,0.3c0,0,0,0.1,0.1,0.2c0,0.1,0.1,0.2,0.1,0.2c0,0.1,0,0.2,0,0.3
				c0,0.2-0.1,0.3,0,0.4c0,0.1,0,0.3,0.1,0.6c0,0.2,0.1,0.4,0.1,0.6c-0.1,0.2-0.1,0.5-0.1,0.8c0,0.3,0.1,0.7,0.3,1.2
				c0,0,0.1,0,0.1,0c0.1,0,0.1,0,0.2-0.1c0.1-0.1,0.2-0.1,0.2-0.1c0,0,0.1,0,0.2,0c0.2,0.5,0.2,0.9,0.3,1c0,0.1,0,0.1,0,0.2
				c-0.2,0.1-0.4,0-0.5-0.2c0-0.1,0-0.1-0.1-0.2L37,1018c0.3,0,0.4,0.2,0.3,0.6c0,0.1-0.1,0.1-0.2,0.1c-0.2,0-0.2,0-0.2,0l-0.2-0.4
				l-0.1,0.1c-0.1-0.2-0.2-0.3-0.3-0.3c-0.1,0-0.2,0-0.3,0.1c-0.1,0.1-0.2,0.1-0.3,0.1c-0.1,0-0.1,0-0.2-0.1c0-0.1,0-0.2,0-0.3
				c0-0.1-0.1-0.2-0.2-0.2c0-0.3,0-1,0-2.2c0-0.9,0-1.7,0-2.2c0-0.2,0-0.5,0-0.7c-0.1-0.1-0.1-0.1-0.1-0.1c0,0-0.1,0-0.2,0.1
				c-0.1,0.1-0.1,0.1-0.2,0.1c0-0.1,0-0.2-0.1-0.4c-0.1-0.2-0.1-0.3-0.1-0.4c0-0.2,0-0.3,0.2-0.4l0.3,0.1c0.1-0.2,0.2-0.5,0.2-0.9
				c0-0.1,0-0.2,0-0.4c0-0.2,0-0.3,0-0.4c0-0.7,0.2-1.1,0.6-1.1c0.2,0,0.4,0,0.6,0.1l0.3,0.1c0,0.1,0,0.2,0,0.4c0,0.2,0,0.4,0,0.8
				c0,0.3,0,0.6,0,0.7c0,0.2,0.1,0.5,0.1,0.7c0.1,0,0.2,0,0.3-0.1c0.2-0.1,0.3-0.1,0.3-0.1C37.5,1011.3,37.6,1011.3,37.7,1011.5
				 M36.8,1012.4l0-0.3l-0.1-0.1L36.8,1012.4z"/>
			<path d="M41.5,1010.5L41.5,1010.5c0,0.2-0.1,0.5-0.1,0.7c0,0.3-0.1,0.5-0.2,0.7c0,0-0.1-0.1-0.3-0.2c-0.1-0.1-0.3-0.1-0.4-0.1
				c-0.1,0.5-0.1,1.3-0.1,2.2c0,1.2,0,1.9,0,2.1c-0.1,0-0.2,0-0.3,0.1c-0.1,0.1-0.1,0.2-0.2,0.3c0,0.1,0,0.1,0,0.2
				c0,0.1,0.1,0.1,0.2,0.2c0.1,0.1,0.2,0.1,0.2,0.2c-0.1,0.2-0.2,0.3-0.3,0.3c-0.1,0-0.2,0-0.4-0.1c-0.2-0.1-0.3-0.1-0.4-0.1
				l-0.2-3.9c0.1-0.1,0.1-0.2,0.1-0.2l-0.1-0.1c0-0.2,0-1,0-2.5c0-1,0-1.8,0.1-2.4c0,0,0.3,0,0.8-0.1c0.4,0,0.6,0.1,0.7,0.3
				c0,0.2,0,0.5-0.1,1c0,0.4-0.1,0.8,0,1c0,0.3,0.1,0.6,0.1,0.8C40.7,1010.7,41.1,1010.5,41.5,1010.5 M42.8,1011.3
				c0,0.4,0,0.7,0.1,1.1c0.1,1.5,0.1,3.1-0.1,4.9c-0.1,0.1-0.3,0.1-0.6,0.1c-0.3-0.1-0.5,0-0.6,0.1c-0.2-0.2-0.2-0.6-0.3-1.1
				c0-0.8-0.1-1.2-0.1-1.2c0-1.9,0.2-3.5,0.6-4.6C42.3,1010.6,42.6,1010.9,42.8,1011.3"/>
			<path d="M47.6,1013.3c-0.1,0.1-0.1,0.3-0.1,0.4c0,0.1,0,0.3,0,0.4c0,0.1,0,0.2-0.1,0.3c-0.1,0-0.2,0-0.2,0c-0.1,0-0.1,0-0.2,0.1
				c-0.1,0-0.1,0.1-0.2,0.1c-0.1,0-0.1,0-0.2-0.1l-0.6-0.9c0,0.3,0.1,0.5,0.2,0.7c0,0.1,0.1,0.2,0.2,0.3c-0.4,0.1-0.6,0.1-0.6,0
				l-0.1,0.1l-0.2-0.3c-0.2,0.2-0.2,0.5-0.1,0.9c0.1,0.4,0.1,0.8,0,1c0.1,0.2,0.3,0.3,0.5,0.3c0.1,0,0.2,0,0.2-0.1
				c0.1-0.2,0.2-0.4,0.3-0.7c0.1-0.3,0.3-0.4,0.4-0.4c0.1,0,0.3,0.1,0.4,0.2c0.2,0.1,0.3,0.2,0.3,0.3c0,0.1,0,0.2-0.1,0.4
				c-0.1,0.2-0.1,0.3-0.1,0.4c0,0,0,0.1,0,0.1c-0.1,0.1-0.2,0.2-0.4,0.4c-0.1,0.2-0.2,0.3-0.4,0.4c-0.1,0.1-0.3,0.2-0.4,0.2
				c-0.1,0-0.2-0.1-0.4-0.2c-0.2-0.2-0.4-0.2-0.6-0.2c-0.1-0.2-0.2-0.3-0.5-0.5c-0.3-0.2-0.5-0.4-0.5-0.6c0,0,0-0.1,0-0.2
				c0-0.1,0-0.1-0.1-0.2l0.1-0.1c-0.1,0-0.2-0.1-0.2-0.2c0,0,0-0.1,0-0.1c0,0,0-0.1,0-0.1c0-0.1,0-0.2-0.1-0.2l0-0.5
				c0-0.2-0.1-0.4-0.1-0.5c0.1-0.6,0.2-1.2,0.3-1.7c0.1-0.7,0.4-1,0.7-1c0,0,0.1,0,0.1,0c0.3-0.3,0.6-0.4,0.9-0.4
				c0.4,0,0.9,0.1,1.4,0.4C47.3,1011.8,47.5,1012.5,47.6,1013.3 M45.7,1011.8l-0.1,0.1c-0.1,0-0.1,0-0.2-0.1l0,0.3
				c-0.1,0.2-0.2,0.4-0.2,0.7c0,0.5,0,0.8,0,0.8l0.4,0c0.2-0.1,0.3-0.3,0.3-0.5c0-0.1,0-0.3-0.1-0.6
				C45.8,1012.1,45.7,1011.9,45.7,1011.8"/>
			<polygon class="st5" points="50.8,1027.1 51.2,1027.3 52.6,1023.7 52.1,1023.5 50.8,1027.2 51.2,1027.4 			"/>
			<polygon class="st5" points="51.4,1026.6 51.2,1026.6 50.8,1027.1 51.2,1027.4 51.6,1026.9 51.4,1027 			"/>
			<polygon class="st5" points="54.7,1026.5 54.9,1026.4 51.4,1026.6 51.4,1027 55,1026.9 55.2,1026.7 			"/>
			<polygon class="st5" points="56.3,1023.2 56.1,1022.9 54.7,1026.5 55.2,1026.7 56.6,1023.1 56.3,1022.8 			"/>
			<polygon class="st5" points="53,1023.3 52.8,1023.4 56.3,1023.2 56.3,1022.8 52.8,1022.9 52.6,1023 			"/>
			<polygon class="st5" points="52.6,1023.7 52.5,1023.8 53,1023.3 52.6,1023 52.2,1023.4 52.1,1023.5 			"/>
			<polygon class="st5" points="55.5,1027 55.8,1026.8 55.1,1026.4 54.8,1026.8 55.6,1027.3 56,1027.1 55.5,1027 			"/>
			<polygon class="st5" points="57,1023.6 56.9,1023.3 55.5,1027 56,1027.1 57.3,1023.5 57.2,1023.2 			"/>
			<polygon class="st5" points="56.6,1023.1 56.2,1023.2 57,1023.6 57.2,1023.2 56.5,1022.8 56.1,1022.9 			"/>
			<polygon points="52.4,1023.6 52.3,1023.6 52.8,1023.2 56.1,1023 56.1,1022.9 56.3,1023 56.6,1023.1 56.5,1023.1 57.1,1023.4 
				57.3,1023.5 57.2,1023.7 58.8,1027.5 57.5,1031.2 55.7,1027 55.5,1027.1 55.5,1027 55.5,1026.9 55,1026.6 54.8,1026.8 
				54.8,1026.6 51.4,1026.8 51,1027.2 			"/>
			<polygon class="st5" points="57.3,1031.1 57.7,1031.1 56,1026.9 55.5,1027.1 57.3,1031.3 57.7,1031.3 57.3,1031.1 			"/>
			<polygon class="st5" points="58.6,1027.6 58.6,1027.5 57.3,1031.1 57.7,1031.3 59.1,1027.6 59.1,1027.5 			"/>
			<polygon class="st5" points="57.3,1023.5 56.9,1023.5 58.6,1027.6 59.1,1027.5 57.3,1023.3 56.9,1023.3 			"/>
			<polygon class="st7" points="57.2,1024.4 57.4,1024.9 57.5,1025.3 57.5,1025.7 57.3,1026.2 57.1,1026.6 56.8,1027 56.4,1027.3 
				56,1027.7 55.7,1027.8 55.5,1027.9 55.2,1027.9 54.9,1028 54.7,1028 54.4,1028 54.1,1028 53.9,1028 53.6,1027.9 53.4,1027.9 
				53.2,1027.8 53,1027.6 52.8,1027.5 52.6,1027.4 52.4,1027.2 52.3,1027 52.1,1026.6 52,1026.1 52,1025.7 52.2,1025.3 52.4,1024.8 
				52.7,1024.4 53.1,1024.1 53.5,1023.8 53.8,1023.7 54.1,1023.6 54.3,1023.5 54.6,1023.4 54.9,1023.4 55.1,1023.4 55.4,1023.4 
				55.6,1023.4 55.9,1023.5 56.1,1023.6 56.3,1023.7 56.6,1023.8 56.7,1023.9 56.9,1024.1 57.1,1024.3 			"/>
			<polygon class="st5" points="57.4,1025.1 57.6,1025.6 57.7,1026 57.6,1026.5 57.5,1026.9 57.3,1027.3 57,1027.7 56.6,1028.1 
				56.1,1028.4 55.9,1028.5 55.6,1028.6 55.4,1028.7 55.1,1028.7 54.8,1028.8 54.6,1028.8 54.3,1028.8 54,1028.7 53.8,1028.7 
				53.6,1028.6 53.4,1028.5 53.1,1028.4 53,1028.3 52.8,1028.1 52.6,1027.9 52.5,1027.7 52.3,1027.3 52.2,1026.9 52.2,1026.4 
				52.3,1026 52.5,1025.6 52.8,1025.2 53.2,1024.8 53.7,1024.5 54,1024.4 54.2,1024.3 54.5,1024.2 54.8,1024.2 55,1024.2 
				55.3,1024.1 55.5,1024.2 55.8,1024.2 56,1024.2 56.3,1024.3 56.5,1024.4 56.7,1024.5 56.9,1024.6 57.1,1024.8 57.2,1025 
				57.4,1025.2 			"/>
			<polygon class="st7" points="57.5,1025.6 57.7,1026 57.8,1026.5 57.8,1026.9 57.6,1027.4 57.4,1027.8 57.1,1028.2 56.8,1028.6 
				56.3,1028.9 56,1029 55.8,1029.1 55.5,1029.1 55.2,1029.2 55,1029.2 54.7,1029.3 54.5,1029.2 54.2,1029.2 53.9,1029.1 
				53.7,1029.1 53.5,1029 53.3,1028.8 53.1,1028.7 52.9,1028.6 52.8,1028.4 52.6,1028.2 52.4,1027.8 52.3,1027.4 52.4,1026.9 
				52.5,1026.5 52.7,1026 53,1025.6 53.4,1025.3 53.8,1025 54.1,1024.9 54.4,1024.8 54.6,1024.7 54.9,1024.7 55.2,1024.6 
				55.4,1024.6 55.7,1024.6 55.9,1024.7 56.2,1024.7 56.4,1024.8 56.7,1024.9 56.9,1025 57,1025.1 57.2,1025.3 57.4,1025.4 			"/>
			<polygon class="st5" points="57.7,1026.4 57.9,1026.8 58,1027.2 58,1027.7 57.8,1028.1 57.6,1028.5 57.3,1028.9 56.9,1029.3 
				56.4,1029.6 56.2,1029.7 55.9,1029.8 55.7,1029.9 55.4,1029.9 55.1,1030 54.9,1030 54.6,1030 54.4,1029.9 54.1,1029.9 
				53.9,1029.8 53.7,1029.7 53.4,1029.6 53.3,1029.4 53.1,1029.3 52.9,1029.1 52.8,1028.9 52.6,1028.5 52.5,1028.1 52.5,1027.6 
				52.7,1027.2 52.9,1026.8 53.2,1026.4 53.6,1026 54,1025.7 54.3,1025.6 54.5,1025.5 54.8,1025.4 55.1,1025.4 55.3,1025.3 
				55.6,1025.3 55.9,1025.4 56.1,1025.4 56.3,1025.4 56.6,1025.5 56.8,1025.6 57,1025.7 57.2,1025.9 57.4,1026 57.6,1026.2 
				57.7,1026.4 			"/>
			<polygon class="st7" points="57.9,1026.8 58.1,1027.2 58.2,1027.7 58.2,1028.1 58.1,1028.6 57.9,1029 57.6,1029.4 57.2,1029.7 
				56.7,1030 56.5,1030.2 56.2,1030.3 55.9,1030.3 55.7,1030.4 55.4,1030.4 55.1,1030.4 54.9,1030.4 54.6,1030.4 54.4,1030.3 
				54.1,1030.2 53.9,1030.2 53.7,1030.1 53.5,1029.9 53.4,1029.8 53.2,1029.6 53.1,1029.4 52.9,1029 52.8,1028.5 52.8,1028.1 
				52.9,1027.7 53.1,1027.2 53.4,1026.8 53.8,1026.5 54.3,1026.2 54.5,1026.1 54.8,1026 55.1,1025.9 55.3,1025.8 55.6,1025.8 
				55.9,1025.8 56.1,1025.8 56.4,1025.8 56.6,1025.9 56.9,1026 57.1,1026.1 57.3,1026.2 57.5,1026.3 57.7,1026.5 57.8,1026.6 			"/>
			<polygon class="st5" points="58.1,1027.6 58.3,1028 58.4,1028.4 58.4,1028.9 58.3,1029.3 58.1,1029.7 57.7,1030.1 57.4,1030.5 
				56.9,1030.8 56.6,1030.9 56.4,1031 56.1,1031.1 55.8,1031.1 55.6,1031.1 55.3,1031.2 55.1,1031.1 54.8,1031.1 54.6,1031.1 
				54.3,1031 54.1,1030.9 53.9,1030.8 53.7,1030.6 53.5,1030.5 53.4,1030.3 53.2,1030.1 53,1029.7 52.9,1029.3 53,1028.8 
				53.1,1028.4 53.3,1028 53.6,1027.6 54,1027.2 54.5,1026.9 54.7,1026.8 55,1026.7 55.2,1026.6 55.5,1026.6 55.8,1026.5 56,1026.5 
				56.3,1026.5 56.5,1026.6 56.8,1026.6 57,1026.7 57.3,1026.8 57.5,1026.9 57.7,1027.1 57.8,1027.2 58,1027.4 			"/>
			<polygon class="st5" points="34.1,1022 34.1,1021.9 32.7,1025.5 33.2,1025.6 34.5,1022 34.5,1021.9 			"/>
			<polygon class="st5" points="34,1021.8 34,1021.8 34.1,1022 34.5,1021.9 34.5,1021.7 34.5,1021.7 			"/>
			<polygon class="st5" points="34,1021.6 34,1021.8 34.5,1021.7 34.4,1021.5 			"/>
			
				<rect x="34" y="1021.3" transform="matrix(0.9545 -0.2983 0.2983 0.9545 -303.1401 56.7038)" class="st5" width="0.5" height="0.2"/>
			<polygon class="st5" points="33.9,1021.2 33.9,1021.2 33.9,1021.4 34.4,1021.3 34.3,1021.1 34.3,1021.1 			"/>
			<polygon class="st5" points="33.8,1020.9 33.8,1021 33.9,1021.2 34.3,1021.1 34.3,1020.9 34.3,1021 			"/>
			<polygon class="st5" points="34.3,1020.8 33.8,1020.8 33.8,1020.9 34.3,1021 34.3,1020.8 33.8,1020.7 34.3,1020.9 			"/>
			<polygon class="st8" points="34.7,1031.5 34.6,1031.2 34.2,1031.3 34.2,1031.6 			"/>
			<polygon class="st5" points="35.7,1028.4 35.7,1028.3 34.3,1031.9 34.8,1032.1 36.2,1028.4 36.1,1028.3 			"/>
			<polygon class="st5" points="35.7,1028.2 35.7,1028.4 36.1,1028.3 36.1,1028.1 35.6,1028.2 			"/>
			<polygon class="st5" points="35.6,1027.9 35.6,1028.2 36.1,1028.1 36,1027.8 			"/>
			<polygon class="st5" points="35.5,1027.7 35.6,1027.7 35.6,1027.9 36,1027.8 36,1027.6 36,1027.6 			"/>
			<polygon class="st5" points="36,1027.4 35.5,1027.4 35.5,1027.7 36,1027.6 36,1027.3 35.5,1027.3 			"/>
			<path class="st9" d="M32.7,1024.8l-0.2,0.1L32.7,1024.8z"/>
			<polygon class="st9" points="32.9,1025.5 33,1025.5 33.1,1025.5 33.2,1025.6 32.9,1025.6 			"/>
			<polygon points="32.4,1024.6 32.7,1024.6 32.7,1024.4 34.1,1020.8 34.1,1020.8 34.1,1020.9 34.1,1021.1 34.2,1021.3 34.2,1021.5 
				34.3,1021.7 34.3,1021.9 34.5,1022 33.2,1025.6 33.1,1025.5 33,1025.5 32.9,1025.5 32.9,1025.6 33.2,1025.6 33,1025.6 33,1025.8 
				32.8,1025.6 32.7,1025.6 32.7,1025.4 32.8,1025.4 32.8,1025.2 32.6,1025.2 32.5,1025 32.5,1024.8 32.7,1024.8 32.5,1024.8 
				32.5,1024.8 			"/>
			<polygon points="32.9,1025.3 43.1,1025 43.3,1025 43.4,1025 43.6,1025.1 43.7,1025.1 43.9,1025.2 44.2,1025.3 44.2,1025.3 
				44.4,1025.4 44.5,1025.5 44.7,1025.6 44.7,1025.7 44.9,1025.8 44.9,1025.9 45,1026 45,1026.1 44.5,1026.2 44.5,1026.1 
				44.4,1026.1 44.3,1026 44.3,1026 44.2,1025.8 44.2,1025.9 44,1025.7 44,1025.7 43.7,1025.6 43.5,1025.6 43.2,1025.5 43.3,1025.5 
				43.1,1025.5 43.1,1025.5 33,1025.8 			"/>
			<polygon points="44.5,1026.2 44.5,1026.2 44.6,1026.2 			"/>
			<polygon class="st5" points="49.9,1034.7 49.9,1034.6 48.5,1038.2 49,1038.4 50.4,1034.7 50.4,1034.6 			"/>
			<polygon class="st5" points="45.9,1022.6 45.9,1022.6 49.9,1034.7 50.4,1034.6 46.4,1022.4 46.3,1022.4 			"/>
			<polygon class="st5" points="45.8,1022.5 45.8,1022.5 45.9,1022.6 46.4,1022.4 46.3,1022.2 46.2,1022.2 45.8,1022.5 			"/>
			<polygon class="st5" points="45.8,1022.3 45.7,1022.3 45.8,1022.5 46.2,1022.2 46.1,1022 46,1022 			"/>
			<polygon class="st5" points="45.6,1022.2 45.6,1022.2 45.8,1022.3 46,1022 45.8,1021.8 45.8,1021.8 			"/>
			<polygon class="st5" points="45.4,1022.1 45.4,1022.1 45.6,1022.2 45.8,1021.8 45.6,1021.7 45.5,1021.7 			"/>
			<polygon class="st5" points="45.1,1022 45.1,1022 45.4,1022.1 45.5,1021.7 45.3,1021.6 45.3,1021.5 45.1,1022 			"/>
			<polygon class="st5" points="44.9,1021.9 44.9,1021.9 45.1,1022 45.3,1021.5 45,1021.5 44.9,1021.9 			"/>
			<polygon class="st5" points="44.7,1021.9 44.6,1021.8 44.9,1021.9 45,1021.5 44.7,1021.4 44.7,1021.4 			"/>
			<polygon class="st5" points="44.4,1021.8 44.4,1021.9 44.7,1021.9 44.7,1021.4 44.5,1021.3 44.4,1021.4 			"/>
			<polygon class="st5" points="34.6,1022 34.3,1022.2 44.4,1021.8 44.4,1021.4 34.3,1021.7 34.1,1021.9 34.5,1022 			"/>
			<polygon class="st9" points="37.1,1033.1 37.1,1033.1 37.1,1033.1 			"/>
			<path class="st9" d="M42.6,1034.7l0,0.5L42.6,1034.7z"/>
			<path d="M34.2,1031.6l0,0.2l0.1,0.2l0.1,0.2l0.6,0.3l0.6,0.3l0.6,0.3l0.6,0.3l0,0l0.6,0.3l0.6,0.3l0.7,0.3l0.7,0.2l0,0l0.7,0.2
				l0.7,0.2l0,0l0.8,0.1l0.8,0.1l0,0l0.9,0.1l0,0l0.9,0l1,0l1.1-0.1l0.2-0.1l1.4-3.6l-0.2-0.3l0,0.5l-0.1-0.1l0.1-0.1l-0.2,0
				l-0.1-0.1l0,0.1l-0.8,0h-1l-0.9,0l-0.9,0l-0.8-0.1l-0.8-0.1l-0.7-0.2l-0.7-0.2l-0.7-0.2l-0.6-0.2l-0.6-0.3l-0.6-0.3l-0.6-0.3
				l-0.6-0.3l-0.6-0.3l-0.4-0.2l0,0l-0.2-0.1l-0.1-0.3l0-0.2l0-0.1l0.2-0.4l-0.2-0.1l0,0l-0.2-0.1l-1.4,3.6l0,0.1l0,0.3L34.2,1031.6
				z M34.4,1031L34.4,1031L34.4,1031L34.4,1031z"/>
			<polygon class="st5" points="46.8,1031.6 47.8,1031.6 47.8,1031.1 46.7,1031.2 			"/>
			
				<rect x="45.7" y="1031.2" transform="matrix(0.9996 -2.728339e-02 2.728339e-02 0.9996 -28.1231 1.6459)" class="st5" width="1" height="0.5"/>
			<polygon class="st5" points="44.8,1031.6 44.8,1031.6 45.8,1031.7 45.7,1031.2 44.8,1031.2 44.8,1031.2 44.8,1031.6 			"/>
			<polygon class="st5" points="43.9,1031.6 43.9,1031.6 44.8,1031.6 44.8,1031.2 44,1031.1 44,1031.1 			"/>
			<polygon class="st5" points="43.1,1031.5 43.9,1031.6 44,1031.1 43.2,1031 			"/>
			<polygon class="st5" points="42.3,1031.3 42.3,1031.3 43.1,1031.5 43.2,1031 42.4,1030.9 42.4,1030.9 			"/>
			<polygon class="st5" points="41.6,1031.1 42.3,1031.3 42.4,1030.9 41.7,1030.7 41.6,1031.2 			"/>
			<polygon class="st5" points="40.8,1031 40.8,1031 41.6,1031.2 41.7,1030.7 41,1030.5 41,1030.5 			"/>
			<polygon class="st5" points="40.2,1030.7 40.2,1030.7 40.8,1031 41,1030.5 40.3,1030.2 40.3,1030.3 40.1,1030.7 			"/>
			<polygon class="st5" points="39.5,1030.4 40.1,1030.7 40.3,1030.3 39.7,1030 			"/>
			<polygon class="st5" points="38.9,1030.2 39.5,1030.4 39.7,1030 39.1,1029.7 			"/>
			<polygon class="st5" points="38.3,1029.9 38.3,1029.9 38.9,1030.2 39.1,1029.7 38.4,1029.4 38.5,1029.4 38.2,1029.9 			"/>
			<polygon class="st5" points="37.7,1029.6 38.2,1029.9 38.5,1029.4 37.9,1029.1 37.6,1029.6 			"/>
			<polygon class="st5" points="37.1,1029.2 37.6,1029.6 37.9,1029.1 37.3,1028.8 37,1029.2 			"/>
			<polygon class="st5" points="36.4,1028.9 37,1029.2 37.3,1028.8 36.7,1028.5 			"/>
			<polygon class="st5" points="36.2,1028.4 35.8,1028.6 36.4,1028.9 36.7,1028.5 36,1028.2 35.7,1028.3 			"/>
			<polygon class="st5" points="99.2,1021.9 97.9,1025.5 102.4,1027 103.4,1024.6 103.5,1024.4 103.5,1024.1 103.4,1023.9 
				103.3,1023.6 103.2,1023.4 103.1,1023.2 102.9,1022.9 102.7,1022.7 102.5,1022.5 102.3,1022.3 102,1022.2 101.8,1022 
				101.6,1021.9 101.3,1021.8 101.1,1021.7 100.9,1021.6 100.7,1021.5 100.5,1021.5 100.3,1021.5 100,1021.5 99.8,1021.5 
				99.6,1021.6 99.4,1021.7 			"/>
			<polygon class="st5" points="102.2,1026.9 102.5,1026.8 97.9,1025.3 97.8,1025.7 102.3,1027.2 102.6,1027.1 			"/>
			<polygon points="32.4,1024.4 32.5,1024.3 33.8,1020.7 34.3,1020.9 32.9,1024.4 32.9,1024.6 32.9,1024.5 32.4,1024.6 32.4,1024.6 
							"/>
			<polygon class="st9" points="54.6,1033 54.5,1033 54.5,1033 			"/>
			<path d="M32.6,1025.2l0.1,0.2l0,0l0.4-0.1l-0.1,0.2l10.1-0.3l0.2,0l0.3,0.1l0.3,0.1l0.3,0.1l0.2,0.2l0.2,0.1l0.1,0.2l0.1,0.2
				l-0.2,0.1l4,12.2l0.2,0l0,0.1h0.4l0.3,0l0.3,0l0.3-0.1l0.3-0.1l0.3-0.1l0.3-0.2l0.3-0.3l0,0l0.2-0.3l0.2-0.3l0.2-0.3l0.2-0.3
				l0.2-0.3l0.2-0.3l0.2-0.3l0.2-0.3l0.2-0.3l0.3-0.3l0.2-0.3l0.3-0.3l0.2-0.2l0.2-0.2l0.2-0.2l0.3-0.2l0.1,0l-0.2-0.2l0.2,0.2
				l0.3-0.3l0.2-0.2l0.2-0.2l0.2-0.2l0.2-0.2l0.2-0.1l0.2-0.1l0.2-0.1l0.3-0.1l0.3-0.1l0.3-0.1l0.3,0l0.3-0.1l0.4,0l0.4,0l0.4,0l0,0
				l43.7-3.3l0.3,0l0.2,0l0.2,0l0.2-0.1l0.2-0.1l0.2-0.1l0.2-0.2l0.2-0.2l0-0.1l0.8-1.8l-0.4-0.3l0.2,0.2l0,0l-0.2-0.1l-0.2,0.4
				l-0.1,0.1l-0.2,0.1l-0.2,0.1l-0.2,0l-0.2,0l-0.2,0l-43.7,3.3l-0.3,0l-0.3,0l-0.3,0l-0.3,0h-0.3l-0.3,0l-0.3,0l-0.3,0l-0.3,0
				l-0.3,0l-0.3,0.1l-0.3,0.1l-0.3,0.1l-0.3,0.1l-0.3,0.1l-0.3,0.1l-0.5,0.3l-0.5,0.5l-0.6,0.6l-0.5,0.6l-0.5,0.7l-0.4,0.6l-0.4,0.6
				l-0.4,0.4l-0.2,0.1l-0.2,0l-0.2,0H51h-0.2l-0.2,0l-0.2,0l-0.2,0l-4-12.1l-0.1-0.2l-0.1-0.2l-0.2-0.1l-0.3-0.2l-0.3-0.1l-0.3-0.1
				l-0.2-0.1l-0.2,0l-10.1,0.3l-1.2,3.2l0,0L32.6,1025.2z M105.4,1025.6L105.4,1025.6l0.2,0.1L105.4,1025.6z"/>
			<polygon class="st5" points="103.8,1026.5 104.1,1026.4 104.3,1026.3 104.5,1026.3 104.8,1026.2 105,1026.1 105.2,1026 
				105.3,1025.9 105.5,1025.7 105.2,1025.3 105,1025.5 104.9,1025.6 104.7,1025.7 104.6,1025.8 104.4,1025.8 104.2,1025.9 
				104,1025.9 103.8,1025.9 			"/>
			<polygon class="st5" points="60.1,1029.7 103.8,1026.5 103.8,1025.9 60.1,1029.2 			"/>
			<polygon class="st5" points="55.8,1030.5 56.1,1030.4 56.3,1030.3 56.6,1030.2 56.9,1030.1 57.2,1030 57.4,1030 57.7,1029.9 
				57.9,1029.9 58.2,1029.9 58.4,1029.8 58.7,1029.8 59,1029.8 59.3,1029.8 59.5,1029.7 59.8,1029.7 60.1,1029.7 60.1,1029.2 
				59.8,1029.2 59.5,1029.3 59.2,1029.3 58.9,1029.3 58.7,1029.3 58.4,1029.4 58.1,1029.4 57.8,1029.4 57.6,1029.5 57.3,1029.5 
				57,1029.6 56.7,1029.6 56.5,1029.7 56.2,1029.8 55.9,1029.9 55.6,1030 			"/>
			<polygon class="st5" points="51.9,1034.8 52,1034.7 52.2,1034.5 52.4,1034.3 52.6,1034 52.8,1033.7 53.1,1033.4 53.3,1033.1 
				53.5,1032.8 53.8,1032.4 54.1,1032.1 54.3,1031.8 54.6,1031.5 54.9,1031.2 55.1,1031 55.4,1030.8 55.6,1030.6 55.8,1030.5 
				55.6,1030 55.3,1030.2 55.1,1030.4 54.8,1030.6 54.5,1030.9 54.2,1031.2 54,1031.5 53.7,1031.8 53.4,1032.2 53.2,1032.5 
				52.9,1032.8 52.7,1033.1 52.4,1033.4 52.2,1033.7 52,1034 51.8,1034.2 51.7,1034.4 51.8,1034.4 			"/>
			<polygon class="st7" points="43.5,1021.6 44.4,1021.6 44.5,1021.6 36.8,1019 36.4,1019.3 43.5,1021.6 			"/>
			<polygon class="st7" points="43.5,1021.6 34.3,1021.9 34.3,1021.7 34.2,1021.5 34.2,1021.3 34.1,1021.1 34.1,1020.9 34.1,1020.8 
				34.1,1020.6 34.3,1020.5 34.7,1020.2 35.1,1020 35.5,1019.7 35.9,1019.5 36.3,1019.2 36.4,1019.3 43.5,1021.6 			"/>
			<polygon class="st10" points="37.9,1027.2 44.2,1026.9 46.7,1027.9 47.5,1030.5 47.8,1031.3 46.8,1031.4 45.7,1031.4 
				44.8,1031.4 43.9,1031.3 43.1,1031.2 42.3,1031.1 41.6,1030.9 40.9,1030.7 40.2,1030.5 39.6,1030.2 39,1029.9 38.4,1029.6 
				37.7,1029.3 37.1,1029 36.6,1028.7 35.9,1028.4 35.9,1028.1 35.8,1027.9 35.8,1027.6 35.7,1027.4 			"/>
			<polygon class="st7" points="53.8,1028 53.8,1028.1 54.7,1028.6 54.9,1028.1 54.1,1027.6 54.2,1027.8 53.8,1028 53.8,1028 
				53.8,1028.1 			"/>
			<polygon class="st7" points="46.6,1028.1 46.4,1027.9 47.6,1031.4 48,1031.3 46.9,1027.8 46.8,1027.7 46.9,1027.8 46.9,1027.7 
				46.8,1027.7 			"/>
			<polygon class="st7" points="44.2,1027.1 44.1,1027.1 46.6,1028.1 46.8,1027.7 44.3,1026.7 44.2,1026.6 44.3,1026.7 44.3,1026.6 
				44.2,1026.6 			"/>
			<polygon class="st7" points="36,1027.3 35.8,1027.6 44.2,1027.1 44.2,1026.6 35.7,1027.1 35.5,1027.4 35.7,1027.1 35.5,1027.1 
				35.5,1027.4 			"/>
			<polygon class="st7" points="36,1028.2 36.1,1028.3 36.1,1028.2 36.1,1028.1 36.1,1027.9 36.1,1027.8 36.1,1027.7 36,1027.6 
				36,1027.5 36,1027.3 35.5,1027.4 35.5,1027.5 35.5,1027.7 35.6,1027.8 35.6,1027.9 35.6,1028 35.6,1028.2 35.7,1028.3 
				35.7,1028.4 35.8,1028.6 35.7,1028.4 35.7,1028.5 35.8,1028.6 			"/>
			<polygon class="st7" points="47.6,1031.4 47.8,1031.1 46.7,1031.2 45.7,1031.2 44.8,1031.2 44,1031.1 43.2,1031 42.4,1030.9 
				41.7,1030.7 41,1030.5 40.3,1030.2 39.7,1030 39.1,1029.7 38.5,1029.4 37.9,1029.1 37.3,1028.8 36.7,1028.5 36,1028.2 
				35.8,1028.6 36.4,1028.9 37,1029.2 37.6,1029.6 38.2,1029.9 38.9,1030.2 39.5,1030.4 40.2,1030.7 40.8,1031 41.6,1031.2 
				42.3,1031.3 43.1,1031.5 43.9,1031.6 44.8,1031.6 45.8,1031.7 46.8,1031.6 47.8,1031.6 48,1031.3 47.8,1031.6 48.1,1031.6 
				48,1031.3 47.6,1031.4 			"/>
			<polygon class="st7" points="60.1,1029.2 59.7,1029.2 59.4,1029.3 59.1,1029.3 58.7,1029.3 58.4,1029.4 58,1029.4 57.7,1029.5 
				57.3,1029.6 57,1029.6 56.7,1029.7 56.4,1029.9 56.1,1030 55.8,1030.1 55.5,1030.2 55.2,1030.4 55,1030.6 55.3,1031 55.5,1030.8 
				55.7,1030.7 56,1030.5 56.2,1030.4 56.5,1030.3 56.8,1030.2 57.1,1030.1 57.4,1030 57.8,1030 58.1,1029.9 58.4,1029.9 
				58.7,1029.8 59.1,1029.8 59.5,1029.7 59.8,1029.7 60.1,1029.7 			"/>
			<polygon class="st7" points="103.8,1025.9 60.1,1029.2 60.1,1029.7 103.8,1026.5 			"/>
			<polygon class="st7" points="104.6,1023.3 104.8,1023.5 105,1023.8 105.1,1024 105.2,1024.3 105.3,1024.5 105.3,1024.7 
				105.3,1024.9 105.3,1025.1 105.2,1025.2 105.2,1025.4 105.1,1025.5 104.9,1025.7 104.7,1025.8 104.5,1025.8 104.2,1025.9 
				103.8,1025.9 103.8,1026.5 104.2,1026.4 104.6,1026.3 104.9,1026.2 105.2,1026 105.4,1025.9 105.6,1025.6 105.7,1025.4 
				105.8,1025.2 105.8,1024.9 105.8,1024.6 105.7,1024.4 105.6,1024.1 105.5,1023.8 105.4,1023.5 105.2,1023.2 105,1023 			"/>
			<polygon class="st7" points="99.4,1020.8 99.8,1020.8 100.2,1020.8 100.6,1020.9 101,1020.9 101.4,1021.1 101.7,1021.2 
				102.1,1021.4 102.4,1021.5 102.8,1021.7 103.1,1021.9 103.4,1022.1 103.7,1022.3 103.9,1022.6 104.2,1022.8 104.4,1023.1 
				104.6,1023.3 105,1023 104.8,1022.7 104.5,1022.5 104.3,1022.2 104,1022 103.7,1021.7 103.3,1021.5 103,1021.3 102.7,1021.1 
				102.3,1020.9 101.9,1020.8 101.5,1020.6 101.1,1020.5 100.7,1020.4 100.3,1020.3 99.8,1020.3 99.4,1020.3 			"/>
			<polygon class="st7" points="60.7,1022.1 99.4,1020.8 99.4,1020.3 60.7,1021.7 			"/>
			<polygon class="st7" points="54.6,1021.1 55,1021.3 55.3,1021.4 55.7,1021.5 56.1,1021.6 56.5,1021.7 56.9,1021.8 57.3,1021.8 
				57.7,1021.9 58.1,1022 58.5,1022 58.9,1022.1 59.2,1022.1 59.6,1022.1 60,1022.1 60.4,1022.1 60.7,1022.1 60.7,1021.7 
				60.3,1021.7 60,1021.6 59.7,1021.6 59.3,1021.6 58.9,1021.6 58.5,1021.5 58.2,1021.5 57.8,1021.4 57.4,1021.3 57,1021.3 
				56.6,1021.2 56.2,1021.1 55.8,1021 55.4,1020.9 55.1,1020.8 54.7,1020.7 54.6,1021.2 			"/>
			<polygon class="st7" points="41.5,1017.6 42.2,1017.5 42.8,1017.4 43.4,1017.4 44,1017.3 44.5,1017.3 45,1017.4 45.4,1017.4 
				45.8,1017.4 46.3,1017.5 46.6,1017.6 47,1017.6 47.3,1017.7 47.7,1017.9 48,1018 48.3,1018.1 48.6,1018.3 48.9,1018.4 
				49.2,1018.6 49.5,1018.7 49.8,1018.9 50.1,1019.1 50.4,1019.3 50.7,1019.4 51.1,1019.7 51.5,1019.8 51.8,1020 52.2,1020.2 
				52.6,1020.4 53.1,1020.6 53.6,1020.8 54.1,1021 54.6,1021.2 54.7,1020.7 54.2,1020.5 53.7,1020.3 53.3,1020.2 52.8,1020 
				52.4,1019.8 52,1019.6 51.7,1019.4 51.3,1019.2 51,1019 50.7,1018.9 50.3,1018.7 50,1018.5 49.7,1018.3 49.4,1018.1 49.1,1018 
				48.8,1017.8 48.5,1017.7 48.2,1017.5 47.8,1017.4 47.5,1017.3 47.1,1017.2 46.7,1017.1 46.3,1017 45.9,1016.9 45.5,1016.9 
				45,1016.9 44.5,1016.9 44,1016.9 43.4,1016.9 42.8,1016.9 42.1,1017 41.5,1017.1 41.5,1017.5 			"/>
			<polygon class="st7" points="34.4,1020.7 34.8,1020.4 35.2,1020.2 35.6,1020 36.1,1019.7 36.5,1019.5 36.9,1019.2 37.3,1019 
				37.7,1018.8 38.2,1018.6 38.7,1018.4 39.1,1018.2 39.6,1018 40.1,1017.9 40.5,1017.8 41,1017.6 41.5,1017.5 41.5,1017.1 
				40.9,1017.2 40.4,1017.3 39.9,1017.4 39.4,1017.6 39,1017.8 38.5,1017.9 38,1018.1 37.6,1018.3 37.1,1018.6 36.6,1018.8 
				36.2,1019 35.8,1019.3 35.4,1019.5 35,1019.8 34.6,1020 34.2,1020.3 34.4,1020.7 			"/>
			<polygon class="st7" points="34.3,1021.7 34.6,1021.9 34.5,1021.7 34.4,1021.5 34.4,1021.3 34.3,1021.1 34.3,1020.9 34.3,1020.8 
				34.3,1020.7 34.4,1020.7 34.2,1020.3 33.9,1020.5 33.8,1020.7 33.8,1021 33.9,1021.2 33.9,1021.4 34,1021.6 34,1021.8 34.1,1022 
				34.3,1022.2 34.1,1022 34.1,1022.2 34.3,1022.2 			"/>
			<polygon class="st10" points="52.2,1023.4 52.2,1023.4 52.2,1023.4 			"/>
			<polygon class="st10" points="52.1,1023.5 52.2,1023.4 52.1,1023.7 			"/>
			<polygon class="st10" points="58.6,1026.3 66.6,1029 65.7,1029 65.7,1029.1 58.8,1026.7 			"/>
			<path class="st10" d="M34.3,1022.2l10.1-0.3l0.2,0l0.2,0.1l0.3,0.1l0.2,0.1l0.2,0.1l0.2,0.1l0.1,0.2l0.1,0.1l4,12.2l0.1,0.2
				l0.2,0l0.2,0l0.2,0l0.3,0l0.3,0l0.3,0l0.2-0.1l0.3-0.1l0.2-0.1l0.3-0.3l0.2-0.3l0.2-0.2l0.2-0.2l0.2-0.2l0.2-0.2l0.1-0.2l0.2-0.2
				l0.1-0.2l0.2-0.2l0.2-0.2l0.2-0.2l0.2-0.2l0.2-0.2l0.2-0.2l0.3-0.2l-0.1-0.2l0.2-0.2l0.2-0.2l0.3-0.1l0.3-0.1l0.3-0.1l0.3-0.1
				l0.3-0.1l0.3-0.1l0.3,0l0.3-0.1l0.4,0l0.3-0.1l0.3,0l0.4,0l0.3,0l0.3,0l5.6-0.4l-6.9-2.3l-0.2-0.4l8,2.7l37.3-2.8l0.7-0.1
				l0.5-0.2l0.4-0.3l0.1-0.4l0-0.4l0,0l-0.1-0.5l-0.2-0.5l-0.4-0.5l-0.2-0.2l-0.2-0.2l-0.3-0.3l-0.3-0.2l-0.3-0.2l-0.3-0.2l-0.3-0.2
				l-0.3-0.2l-0.4-0.1l-0.4-0.2l-0.4-0.1l-0.4-0.1l-0.4-0.1l-0.4-0.1l-0.4,0l-0.4,0l-5.6,0.2l-33,1.1h-0.4l-0.3,0l-0.4,0l-0.4,0
				l-0.4,0l-0.4,0l-0.4,0l-0.4-0.1l-0.4-0.1l-0.4-0.1l-0.4-0.1l-0.4-0.1l-0.4-0.1l-0.4-0.1L55,1021l-0.4-0.1l-0.5-0.2l-0.5-0.2
				l-0.5-0.2l-0.4-0.2l-0.4-0.2l-0.4-0.2l-0.4-0.2l-0.4-0.2l-0.3-0.2l-0.3-0.2l-0.3-0.2l-0.3-0.2l-0.3-0.2l-0.3-0.2l-0.3-0.1
				l-0.3-0.2l-0.3-0.2l-0.3-0.1l-0.3-0.1l-0.3-0.1l-0.4-0.1l-0.4-0.1l-0.4-0.1l-0.4-0.1l-0.4,0l-0.5,0l-0.5,0l-0.5,0l-0.5,0
				l-0.6,0.1l-0.6,0.1l-0.7,0.1l-0.5,0.1l-0.5,0.1l-0.5,0.1l-0.5,0.2L39,1018l-0.5,0.2l-0.4,0.2l-0.5,0.2l-0.4,0.2l-0.4,0.2l7.1,2.4
				l-9.5,0.3L34.3,1022.2z M99.1,1022.4l0-0.3l0.1-0.2l0.2-0.2l0.3-0.1l0.3,0l0.2,0l0.2,0l0.2,0l0.2,0l0.2,0.1l0.2,0.1l0.2,0.1
				l0.2,0.1l0.2,0.1l0.2,0.1l0.2,0.1l0.2,0.2l0.2,0.1l0.1,0.2l0.2,0.2l0.1,0.2l0.3,0.3l0.1,0.3l0.1,0.2l0,0.1l0,0.3l-0.1,0.2
				l-0.2,0.2l-0.2,0.1l-0.3,0.1l-0.2,0l-0.2,0l-0.2,0l-0.2,0l-0.2-0.1l-0.2-0.1l-0.2-0.1l-0.2-0.1l-0.2-0.1l-0.2-0.1l-0.2-0.1
				l-0.2-0.2l-0.2-0.1l-0.2-0.2l-0.2-0.2l-0.1-0.2l-0.2-0.3l-0.1-0.3l0-0.1L99.1,1022.4z M58.8,1027.5L58.8,1027.5l-0.2-0.1
				L58.8,1027.5z M52.6,1023.7l0.3-0.3l3.3-0.2l0.7,0.4l1.7,3.9l-0.3,0.3l-3.6,0.3l0.2,0l-0.1,0.2h0l-0.8-0.5l0,0l0.2-0.1
				L52.6,1023.7z"/>
			<polygon class="st5" points="96.9,1024.9 96.7,1024.8 96.6,1024.6 96.9,1024.5 97,1024.7 96.8,1024.6 			"/>
			<polygon class="st5" points="97.3,1024.7 97.2,1024.7 97.1,1024.8 97.1,1024.8 97,1024.9 96.9,1024.9 96.8,1024.6 96.8,1024.6 
				96.9,1024.5 97,1024.5 97,1024.5 97,1024.5 97.2,1024.7 			"/>
			<polygon class="st5" points="96.4,1022.8 96.5,1022.8 96.6,1023 96.8,1023.2 96.9,1023.4 97.1,1023.6 97.2,1023.9 97.3,1024.1 
				97.3,1024.4 97.2,1024.7 97,1024.5 97,1024.4 97,1024.2 97,1024 96.8,1023.8 96.7,1023.6 96.5,1023.4 96.4,1023.2 96.2,1023 
				96.2,1023.1 			"/>
			<polygon class="st5" points="93.8,1022.1 93.7,1022 94.1,1022.1 94.5,1022.1 94.8,1022.1 95.2,1022.2 95.5,1022.2 95.8,1022.4 
				96.1,1022.6 96.4,1022.8 96.2,1023.1 95.9,1022.9 95.7,1022.7 95.4,1022.5 95.1,1022.5 94.8,1022.4 94.4,1022.4 94.1,1022.4 
				93.8,1022.4 93.8,1022.4 93.7,1022.1 			"/>
			<polygon class="st5" points="65.3,1023.5 65.5,1023.5 93.7,1022.1 93.8,1022.4 65.5,1023.8 65.6,1023.7 			"/>
			<polygon class="st5" points="64.7,1024.5 64.4,1024.4 64.4,1024.2 64.5,1024 64.5,1023.9 64.7,1023.7 64.8,1023.6 65,1023.6 
				65.2,1023.5 65.5,1023.5 65.5,1023.8 65.3,1023.8 65.1,1023.9 65,1023.9 64.9,1024 64.8,1024 64.7,1024.1 64.7,1024.3 
				64.7,1024.5 64.4,1024.4 			"/>
			<polygon points="96.7,1024.4 96.6,1024.3 96.5,1024.2 96.4,1024 96.3,1023.9 96.2,1023.8 96.1,1023.7 96,1023.6 95.7,1023.3 
				95.4,1023.1 95.1,1023 94.8,1022.9 94.5,1022.9 94.1,1022.8 93.8,1022.8 93.4,1022.8 65.2,1024.2 65.4,1023.8 65.5,1023.8 
				65.5,1023.8 93.8,1022.4 94.2,1022.4 94.6,1022.4 95,1022.4 95.4,1022.5 95.7,1022.6 95.9,1022.8 96.2,1023 96.5,1023.4 
				96.8,1023.7 97,1024 97.1,1024.2 97.1,1024.4 97,1024.5 96.8,1024.6 96.8,1024.6 96.8,1024.6 			"/>
			<path d="M64.4,1024.4l0,0.3l0.1,0.2l0.1,0.3l0.2,0.3l0.2,0.2l0.3,0.3l0.4,0.2l0.4,0.2l0.4,0.1l0.5,0l29-1.5l0.6-0.1l0.4-0.1
				l0.3-0.2l0.2-0.3l0-0.3l-0.1-0.3l-0.2-0.3l-0.3-0.4l-0.3-0.3l-0.3-0.3l-0.3-0.2l-0.3-0.2l-0.4-0.1l-0.4-0.1h-0.4l-0.5,0
				l-28.2,1.4v0l-0.3,0l-0.3,0.1l-0.2,0.2l-0.1,0.2l-0.1,0.2L64.4,1024.4z M64.7,1024.5l0-0.2l0,0l0,0h0.1l0.2,0l0.2-0.4l0.1,0l0,0
				l28.3-1.4l0.5,0l0.4,0l0.4,0.1l0.3,0.1l0.3,0.2l0.3,0.2l0.3,0.2l0.3,0.3l0.3,0.3l0.2,0.3l0.1,0.2v0.1l-0.1,0.1l-0.2,0.1l0,0
				l-0.3,0.1l-0.5,0.1l-29,1.5l0,0l-0.4,0l-0.4-0.1l-0.4-0.2l-0.3-0.2l-0.3-0.3l-0.2-0.3l-0.2-0.2l-0.1-0.2l0-0.2L64.7,1024.5z"/>
		</g>
		<g>
			<g>
				<path class="st2" d="M23,1078.9l0.6,1.9c0.1,0.4,0.2,0.8,0.3,1.2h0c0.1-0.4,0.2-0.8,0.4-1.2l0.7-1.9h0.6l0.6,1.9
					c0.1,0.5,0.3,0.9,0.4,1.2h0c0.1-0.4,0.2-0.8,0.3-1.2l0.6-1.9h0.7l-1.3,3.8h-0.7l-0.6-1.8c-0.2-0.4-0.3-0.8-0.4-1.3h0
					c-0.1,0.5-0.2,0.9-0.4,1.3l-0.7,1.8h-0.7l-1.2-3.8H23z"/>
				<path class="st2" d="M29.2,1078.9l0.6,1.9c0.1,0.4,0.2,0.8,0.3,1.2h0c0.1-0.4,0.2-0.8,0.4-1.2l0.7-1.9h0.6l0.6,1.9
					c0.1,0.5,0.3,0.9,0.4,1.2h0c0.1-0.4,0.2-0.8,0.3-1.2l0.6-1.9h0.7l-1.3,3.8h-0.7l-0.6-1.8c-0.2-0.4-0.3-0.8-0.4-1.3h0
					c-0.1,0.5-0.2,0.9-0.4,1.3l-0.7,1.8h-0.7l-1.2-3.8H29.2z"/>
				<path class="st2" d="M35.4,1078.9l0.6,1.9c0.1,0.4,0.2,0.8,0.3,1.2h0c0.1-0.4,0.2-0.8,0.4-1.2l0.7-1.9h0.6l0.6,1.9
					c0.1,0.5,0.3,0.9,0.4,1.2h0c0.1-0.4,0.2-0.8,0.3-1.2l0.6-1.9h0.7l-1.3,3.8h-0.7l-0.6-1.8c-0.2-0.4-0.3-0.8-0.4-1.3h0
					c-0.1,0.5-0.2,0.9-0.4,1.3l-0.7,1.8h-0.7l-1.2-3.8H35.4z"/>
				<path class="st2" d="M41.1,1082.3c0-0.3,0.2-0.5,0.5-0.5c0.3,0,0.5,0.2,0.5,0.5c0,0.3-0.2,0.5-0.5,0.5
					C41.3,1082.8,41.1,1082.6,41.1,1082.3z"/>
				<path class="st2" d="M43.8,1077.8v1.1h1.1v0.5h-1.1v2c0,0.5,0.1,0.8,0.6,0.8c0.2,0,0.4,0,0.4-0.1l0,0.5
					c-0.1,0.1-0.4,0.1-0.7,0.1c-0.3,0-0.6-0.1-0.8-0.3c-0.2-0.2-0.3-0.6-0.3-1v-2h-0.6v-0.5h0.6v-0.9L43.8,1077.8z"/>
				<path class="st2" d="M45.8,1077.1h0.7v2.5h0c0.1-0.2,0.3-0.4,0.6-0.5c0.2-0.1,0.5-0.2,0.8-0.2c0.5,0,1.5,0.3,1.5,1.7v2.2h-0.7
					v-2.1c0-0.7-0.3-1.2-1-1.2c-0.5,0-0.9,0.4-1,0.7c0,0.1-0.1,0.2-0.1,0.3v2.2h-0.7V1077.1z"/>
				<path class="st2" d="M50.9,1081c0,0.8,0.6,1.3,1.4,1.3c0.6,0,0.9-0.1,1.2-0.2l0.1,0.5c-0.2,0.1-0.7,0.3-1.4,0.3
					c-1.2,0-2-0.8-2-1.9c0-1.1,0.7-2.1,1.9-2.1c1.4,0,1.7,1.2,1.7,1.8c0,0.1,0,0.2,0,0.3H50.9z M53.1,1080.4c0-0.3-0.1-1.1-1.1-1.1
					c-0.8,0-1.1,0.7-1.2,1.1H53.1z"/>
				<path class="st2" d="M58.3,1078.9c0,0.3,0,0.6,0,1v2.2c0,0.8-0.2,1.4-0.6,1.8c-0.4,0.4-1,0.5-1.5,0.5c-0.5,0-1.1-0.1-1.4-0.4
					l0.2-0.5c0.3,0.2,0.7,0.3,1.2,0.3c0.8,0,1.4-0.4,1.4-1.4v-0.4h0c-0.2,0.4-0.7,0.7-1.4,0.7c-1,0-1.8-0.8-1.8-1.8
					c0-1.2,0.9-2,1.9-2c0.7,0,1.1,0.4,1.3,0.7h0l0-0.6H58.3z M57.6,1080.5c0-0.1,0-0.2,0-0.3c-0.1-0.4-0.5-0.8-1.1-0.8
					c-0.7,0-1.3,0.5-1.3,1.4c0,0.7,0.4,1.3,1.3,1.3c0.5,0,0.9-0.3,1.1-0.8c0-0.1,0.1-0.2,0.1-0.4V1080.5z"/>
				<path class="st2" d="M61.8,1082.7l-0.1-0.5h0c-0.2,0.3-0.7,0.6-1.3,0.6c-0.8,0-1.2-0.6-1.2-1.1c0-0.9,0.8-1.4,2.5-1.4v-0.1
					c0-0.2-0.1-0.9-0.9-0.9c-0.4,0-0.8,0.1-1.1,0.3l-0.2-0.5c0.4-0.2,0.9-0.4,1.4-0.4c1.3,0,1.6,0.9,1.6,1.6v1.3
					c0,0.3,0,0.7,0.1,0.9H61.8z M61.7,1080.8c-0.9,0-1.8,0.1-1.8,0.8c0,0.4,0.3,0.7,0.7,0.7c0.6,0,0.9-0.4,1-0.7c0-0.1,0-0.2,0-0.2
					V1080.8z"/>
				<path class="st2" d="M63.6,1080c0-0.4,0-0.7,0-1h0.6l0,0.7h0c0.2-0.4,0.6-0.7,1.3-0.7c0.6,0,1,0.4,1.2,0.8h0
					c0.1-0.2,0.3-0.4,0.4-0.5c0.3-0.2,0.5-0.3,0.9-0.3c0.5,0,1.4,0.3,1.4,1.7v2.1h-0.7v-2.1c0-0.8-0.3-1.2-0.9-1.2
					c-0.4,0-0.8,0.3-0.9,0.6c0,0.1-0.1,0.2-0.1,0.3v2.3h-0.7v-2.2c0-0.7-0.3-1.1-0.9-1.1c-0.5,0-0.8,0.4-1,0.7
					c0,0.1-0.1,0.2-0.1,0.3v2.2h-0.7V1080z"/>
				<path class="st2" d="M71,1081c0,0.8,0.6,1.3,1.4,1.3c0.6,0,0.9-0.1,1.2-0.2l0.1,0.5c-0.2,0.1-0.7,0.3-1.4,0.3
					c-1.2,0-2-0.8-2-1.9c0-1.1,0.7-2.1,1.9-2.1c1.4,0,1.7,1.2,1.7,1.8c0,0.1,0,0.2,0,0.3H71z M73.3,1080.4c0-0.3-0.1-1.1-1.1-1.1
					c-0.8,0-1.1,0.7-1.2,1.1H73.3z"/>
				<path class="st2" d="M77.9,1082.5c-0.2,0.1-0.6,0.2-1.2,0.2c-1.2,0-2-0.8-2-1.9c0-1.2,0.9-2,2.2-2c0.5,0,0.9,0.1,1.1,0.2
					l-0.2,0.5c-0.2-0.1-0.5-0.2-0.9-0.2c-0.9,0-1.5,0.6-1.5,1.4c0,0.9,0.6,1.4,1.5,1.4c0.5,0,0.8-0.1,1-0.2L77.9,1082.5z"/>
				<path class="st2" d="M78.8,1080.2c0-0.5,0-0.9,0-1.2h0.6l0,0.8h0c0.2-0.6,0.6-0.9,1.1-0.9c0.1,0,0.1,0,0.2,0v0.7
					c-0.1,0-0.2,0-0.3,0c-0.5,0-0.9,0.4-1,0.9c0,0.1,0,0.2,0,0.3v2h-0.7V1080.2z"/>
				<path class="st2" d="M83.9,1082.7l-0.1-0.5h0c-0.2,0.3-0.7,0.6-1.3,0.6c-0.8,0-1.2-0.6-1.2-1.1c0-0.9,0.8-1.4,2.5-1.4v-0.1
					c0-0.2-0.1-0.9-0.9-0.9c-0.4,0-0.8,0.1-1.1,0.3l-0.2-0.5c0.4-0.2,0.9-0.4,1.4-0.4c1.3,0,1.6,0.9,1.6,1.6v1.3
					c0,0.3,0,0.7,0.1,0.9H83.9z M83.8,1080.8c-0.9,0-1.8,0.1-1.8,0.8c0,0.4,0.3,0.7,0.7,0.7c0.6,0,0.9-0.4,1-0.7c0-0.1,0-0.2,0-0.2
					V1080.8z"/>
				<path class="st2" d="M85.7,1082.7v-3.2h-0.5v-0.5h0.5v-0.2c0-0.6,0.1-1.1,0.5-1.4c0.3-0.2,0.6-0.4,1-0.4c0.3,0,0.5,0.1,0.6,0.1
					l-0.1,0.5c-0.1-0.1-0.3-0.1-0.5-0.1c-0.6,0-0.8,0.5-0.8,1.1v0.2h1v0.5h-1v3.2H85.7z"/>
				<path class="st2" d="M88.9,1077.8v1.1H90v0.5h-1.1v2c0,0.5,0.1,0.8,0.6,0.8c0.2,0,0.4,0,0.4-0.1l0,0.5c-0.1,0.1-0.4,0.1-0.7,0.1
					c-0.3,0-0.6-0.1-0.8-0.3c-0.2-0.2-0.3-0.6-0.3-1v-2h-0.6v-0.5h0.6v-0.9L88.9,1077.8z"/>
				<path class="st2" d="M91.2,1081c0,0.8,0.6,1.3,1.4,1.3c0.6,0,0.9-0.1,1.2-0.2l0.1,0.5c-0.2,0.1-0.7,0.3-1.4,0.3
					c-1.2,0-2-0.8-2-1.9c0-1.1,0.7-2.1,1.9-2.1c1.4,0,1.7,1.2,1.7,1.8c0,0.1,0,0.2,0,0.3H91.2z M93.5,1080.4c0-0.3-0.1-1.1-1.1-1.1
					c-0.8,0-1.1,0.7-1.2,1.1H93.5z"/>
				<path class="st2" d="M95.1,1080.2c0-0.5,0-0.9,0-1.2h0.6l0,0.8h0c0.2-0.6,0.6-0.9,1.1-0.9c0.1,0,0.1,0,0.2,0v0.7
					c-0.1,0-0.2,0-0.3,0c-0.5,0-0.9,0.4-1,0.9c0,0.1,0,0.2,0,0.3v2h-0.7V1080.2z"/>
				<path class="st2" d="M97.7,1082.3c0-0.3,0.2-0.5,0.5-0.5c0.3,0,0.5,0.2,0.5,0.5c0,0.3-0.2,0.5-0.5,0.5
					C97.9,1082.8,97.7,1082.6,97.7,1082.3z"/>
				<path class="st2" d="M102.5,1082.5c-0.2,0.1-0.6,0.2-1.2,0.2c-1.2,0-2-0.8-2-1.9c0-1.2,0.9-2,2.2-2c0.5,0,0.9,0.1,1.1,0.2
					l-0.2,0.5c-0.2-0.1-0.5-0.2-0.9-0.2c-0.9,0-1.5,0.6-1.5,1.4c0,0.9,0.6,1.4,1.5,1.4c0.5,0,0.8-0.1,1-0.2L102.5,1082.5z"/>
				<path class="st2" d="M107.2,1080.8c0,1.4-1.1,2-2.1,2c-1.1,0-2-0.8-2-1.9c0-1.2,0.9-2,2.1-2
					C106.4,1078.8,107.2,1079.7,107.2,1080.8z M103.8,1080.8c0,0.9,0.6,1.4,1.3,1.4c0.7,0,1.3-0.5,1.3-1.5c0-0.7-0.4-1.4-1.3-1.4
					C104.3,1079.3,103.8,1080.1,103.8,1080.8z"/>
				<path class="st2" d="M108.1,1080c0-0.4,0-0.7,0-1h0.6l0,0.7h0c0.2-0.4,0.6-0.7,1.3-0.7c0.6,0,1,0.4,1.2,0.8h0
					c0.1-0.2,0.3-0.4,0.4-0.5c0.3-0.2,0.5-0.3,0.9-0.3c0.5,0,1.4,0.3,1.4,1.7v2.1h-0.7v-2.1c0-0.8-0.3-1.2-0.9-1.2
					c-0.4,0-0.8,0.3-0.9,0.6c0,0.1-0.1,0.2-0.1,0.3v2.3h-0.7v-2.2c0-0.7-0.3-1.1-0.9-1.1c-0.5,0-0.8,0.4-1,0.7
					c0,0.1-0.1,0.2-0.1,0.3v2.2h-0.7V1080z"/>
			</g>
		</g>
	</g>
	<rect x="225.9" y="225" class="st11" width="430.2" height="648"/>
	<g>
		<g>
			<polyline class="st12" points="240.9,864 234.9,864 234.9,858 			"/>
			<line class="st13" x1="234.9" y1="845.9" x2="234.9" y2="246.1"/>
			<polyline class="st12" points="234.9,240 234.9,234 240.9,234 			"/>
			<line class="st14" x1="253" y1="234" x2="635" y2="234"/>
			<polyline class="st12" points="641.1,234 647.1,234 647.1,240 			"/>
			<line class="st13" x1="647.1" y1="252.1" x2="647.1" y2="851.9"/>
			<polyline class="st12" points="647.1,858 647.1,864 641.1,864 			"/>
			<line class="st14" x1="629" y1="864" x2="247" y2="864"/>
		</g>
	</g>
	<rect x="656.1" y="225" class="st11" width="148.8" height="648"/>
	<g>
		<g>
			<polyline class="st12" points="671.1,864 665.1,864 665.1,858 			"/>
			<line class="st13" x1="665.1" y1="845.9" x2="665.1" y2="246.1"/>
			<polyline class="st12" points="665.1,240 665.1,234 671.1,234 			"/>
			<line class="st15" x1="684.3" y1="234" x2="783.3" y2="234"/>
			<polyline class="st12" points="789.9,234 795.9,234 795.9,240 			"/>
			<line class="st13" x1="795.9" y1="252.1" x2="795.9" y2="851.9"/>
			<polyline class="st12" points="795.9,858 795.9,864 789.9,864 			"/>
			<line class="st15" x1="776.7" y1="864" x2="677.7" y2="864"/>
		</g>
	</g>
	<rect x="77.1" y="225" class="st11" width="148.8" height="648"/>
	<g>
		<g>
			<polyline class="st12" points="92.1,864 86.1,864 86.1,858 			"/>
			<line class="st13" x1="86.1" y1="845.9" x2="86.1" y2="246.1"/>
			<polyline class="st12" points="86.1,240 86.1,234 92.1,234 			"/>
			<line class="st15" x1="105.3" y1="234" x2="204.3" y2="234"/>
			<polyline class="st12" points="210.9,234 216.9,234 216.9,240 			"/>
			<line class="st13" x1="216.9" y1="252.1" x2="216.9" y2="851.9"/>
			<polyline class="st12" points="216.9,858 216.9,864 210.9,864 			"/>
			<line class="st15" x1="197.7" y1="864" x2="98.7" y2="864"/>
		</g>
	</g>
	<polygon class="st11" points="225.9,225 227.2,76.2 654.7,76.2 656.1,225 	"/>
	<g>
		<g>
			<polyline class="st12" points="241,216 235,216 235,210 			"/>
			<line class="st16" x1="235.2" y1="196.8" x2="236.1" y2="97.8"/>
			<polyline class="st12" points="236.1,91.2 236.2,85.2 242.2,85.2 			"/>
			<line class="st17" x1="254.2" y1="85.2" x2="633.8" y2="85.2"/>
			<polyline class="st12" points="639.8,85.2 645.8,85.2 645.9,91.2 			"/>
			<line class="st16" x1="646" y1="104.4" x2="646.9" y2="203.4"/>
			<polyline class="st12" points="647,210 647,216 641,216 			"/>
			<line class="st18" x1="628.9" y1="216" x2="247" y2="216"/>
		</g>
	</g>
	<polygon class="st11" points="656.1,873 654.8,1021.8 227.3,1021.8 225.9,873 	"/>
	<g>
		<g>
			<polyline class="st12" points="242.2,1012.8 236.2,1012.8 236.1,1006.8 			"/>
			<line class="st16" x1="236" y1="993.6" x2="235.1" y2="894.6"/>
			<polyline class="st12" points="235,888 235,882 241,882 			"/>
			<line class="st18" x1="253.1" y1="882" x2="635" y2="882"/>
			<polyline class="st12" points="641,882 647,882 647,888 			"/>
			<line class="st16" x1="646.8" y1="901.2" x2="646" y2="1000.2"/>
			<polyline class="st12" points="645.9,1006.8 645.8,1012.8 639.8,1012.8 			"/>
			<line class="st17" x1="627.8" y1="1012.8" x2="248.2" y2="1012.8"/>
		</g>
	</g>
	<polygon class="st19" points="9,229.1 71.8,229.1 76.8,225.5 76.8,140.7 140.9,140.7 225.9,225.5 227.3,71.7 227.3,71.7 232.3,9 
		649.7,9 654.7,71.7 654.7,71.7 656.1,225.5 741.1,140.7 805.2,140.7 804.9,225.5 810.2,229.1 873,229.1 873,868.9 810.2,868.9 
		805.2,872.5 805.2,957.3 741.1,957.3 656.1,872.5 654.7,1026.3 654.7,1026.3 649.7,1089 232.3,1089 227.3,1026.3 227.3,1026.3 
		225.9,872.5 140.9,957.3 76.8,957.3 76.8,872.5 71.8,868.9 9,868.9 	"/>
	<g>
		<text transform="matrix(1 0 0 1.0021 564.5256 284.8916)"><tspan x="0" y="0" class="st2 st20 st21">Sa</tspan><tspan x="15.9" y="0" class="st2 st20 st21">f</tspan><tspan x="20.2" y="0" class="st2 st20 st21">e Zone</tspan></text>
		<text transform="matrix(1 0 0 1.0021 494.1106 296.3887)"><tspan x="0" y="0" class="st22 st3 st23">DO NOT place</tspan><tspan x="64.3" y="0" class="st22 st3 st23"> </tspan><tspan x="66.6" y="0" class="st22 st3 st23">AN</tspan><tspan x="80.4" y="0" class="st22 st3 st23">Y</tspan><tspan x="86.6" y="0" class="st22 st3 st23"> important</tspan></text>
		<text transform="matrix(1 0 0 1.0021 518.5403 307.8867)" class="st22 st3 st23">text/images beyond this</text>
		<text transform="matrix(1 0 0 1.0021 490.7747 319.3838)"><tspan x="0" y="0" class="st22 st3 st23">dotted line.</tspan><tspan x="51" y="0" class="st22 st3 st23"> </tspan><tspan x="53.3" y="0" class="st22 st3 st23">Anything past the </tspan></text>
		<text transform="matrix(1 0 0 1.0021 482.4475 330.8818)" class="st22 st3 st23">dotted line has the potential for </text>
		<text transform="matrix(1 0 0 1.0021 461.1731 342.3789)" class="st22 st3 st23">being trimmed. This line is provided </text>
		<text transform="matrix(1 0 0 1.0021 444.6985 353.876)" class="st22 st3 st23">to prevent trimming of your text/images.</text>
		<text transform="matrix(1 0 0 1.0021 568.6702 379.1709)"><tspan x="0" y="0" class="st2 st20 st21">T</tspan><tspan x="7.8" y="0" class="st2 st20 st21">rim Line</tspan></text>
		<text transform="matrix(1 0 0 1.0021 504.7327 390.6689)" class="st24 st3 st23">This is the actual cutline of</text>
		<text transform="matrix(1 0 0 1.0021 548.304 402.167)" class="st24 st3 st23">your final design.</text>
		<text transform="matrix(1 0 0 1.0021 556.6838 427.46)" class="st2 st20 st21">Bleed Zone</text>
		<text transform="matrix(1 0 0 1.0021 456.9075 438.959)" class="st25 st3 st23">Extend any game artwork/color to the</text>
		<text transform="matrix(1 0 0 1.0021 440.4524 450.4561)" class="st25 st3 st23">edge (covering the gray) if you want your</text>
		<text transform="matrix(1 0 0 1.0021 444.1926 461.9541)" class="st25 st3 st23">design to extend to the edge on the final</text>
		<text transform="matrix(1 0 0 1.0021 411.9036 473.4512)"><tspan x="0" y="0" class="st25 st3 st23">print. </tspan><tspan x="26.6" y="0" class="st25 st3 st23">W</tspan><tspan x="35.4" y="0" class="st25 st3 st23">e require a bleed of 1/8. Please use the</tspan></text>
		<text transform="matrix(1 0 0 1.0021 427.717 484.9482)" class="st25 st3 st23"> Safe Zone guide line to prevent trimming of</text>
		<text transform="matrix(1 0 0 1.0021 426.5891 496.4473)" class="st25 st3 st23"> essential text/images. The bleed is to make </text>
		<text transform="matrix(1 0 0 1.0021 380.9534 507.9443)" class="st25 st3 st23">sure your design/color extends to the edge of the box.</text>
		<text transform="matrix(1 0 0 1.0021 534.7004 534.3877)"><tspan x="0" y="0" class="st2 st20 st21">PLEASE N</tspan><tspan x="63.1" y="0" class="st2 st20 st21">O</tspan><tspan x="72.4" y="0" class="st2 st20 st21">TE:</tspan></text>
		<text transform="matrix(1 0 0 1.0021 453.6643 545.8848)"><tspan x="0" y="0" class="st2 st20 st23">R</tspan><tspan x="7.2" y="0" class="st2 st20 st23">em</tspan><tspan x="23.1" y="0" class="st2 st20 st23">o</tspan><tspan x="29.2" y="0" class="st2 st20 st23">v</tspan><tspan x="34.8" y="0" class="st2 st20 st23">e this la</tspan><tspan x="76.8" y="0" class="st2 st20 st23">y</tspan><tspan x="82.5" y="0" class="st2 st20 st23">er be</tspan><tspan x="109" y="0" class="st2 st20 st23">f</tspan><tspan x="112.6" y="0" class="st2 st20 st23">o</tspan><tspan x="119" y="0" class="st2 st20 st23">r</tspan><tspan x="123.4" y="0" class="st2 st20 st23">e sending</tspan></text>
		<text transform="matrix(1 0 0 1.0021 475.9905 557.3818)"><tspan x="0" y="0" class="st2 st20 st23">the file to print. </tspan><tspan x="84.5" y="0" class="st2 st20 st23">T</tspan><tspan x="91.6" y="0" class="st2 st20 st23">his la</tspan><tspan x="119.8" y="0" class="st2 st20 st23">y</tspan><tspan x="125.4" y="0" class="st2 st20 st23">er is </tspan></text>
		<text transform="matrix(1 0 0 1.0021 466.4485 568.8799)"><tspan x="0" y="0" class="st2 st20 st23">p</tspan><tspan x="6.4" y="0" class="st2 st20 st23">r</tspan><tspan x="10.8" y="0" class="st2 st20 st23">o</tspan><tspan x="16.8" y="0" class="st2 st20 st23">vided as a guide </tspan><tspan x="105" y="0" class="st2 st20 st23">f</tspan><tspan x="108.6" y="0" class="st2 st20 st23">or set u</tspan><tspan x="148.4" y="0" class="st2 st20 st23">p</tspan><tspan x="154.7" y="0" class="st2 st20 st23">. </tspan></text>
		<text transform="matrix(1 0 0 1.0021 519.6272 580.377)" class="st2 st20 st23">DELETE AFTER USE.</text>
		<path class="st24" d="M563.5,274.8c0,0.7-0.3,1.3-0.9,1.9l-0.1,0.1l-5.2,5.5c-1.1,1.2-2,2.1-2.8,2.7c-0.8,0.6-1.3,1-1.6,1
			c-0.3,0-0.8-0.2-1.3-0.5c-0.5-0.3-0.8-0.6-1-1c-0.1-0.3-0.2-0.9-0.3-1.8c-0.1-0.9-0.2-1.9-0.2-3c0-0.6,0.2-1.1,0.7-1.6
			c0.5-0.5,1-0.7,1.6-0.7c0.6,0,0.9,0.5,1,1.5c0,0.1,0,0.2,0,0.3c0.1,0.8,0.2,1.3,0.3,1.6c0.1,0.3,0.3,0.5,0.5,0.5
			c0.1,0,0.2-0.1,0.5-0.3c0.2-0.2,0.5-0.4,0.8-0.7l5.3-5.3c0.4-0.4,0.8-0.8,1.2-1c0.4-0.2,0.7-0.3,0.9-0.3c0.2,0,0.3,0.1,0.4,0.2
			c0.1,0.1,0.1,0.4,0.1,0.7V274.8z"/>
		<path class="st24" d="M567.6,368.4c0,0.7-0.3,1.3-0.9,1.9l-0.1,0.1l-5.2,5.5c-1.1,1.2-2,2.1-2.8,2.7c-0.8,0.6-1.3,1-1.6,1
			c-0.3,0-0.8-0.2-1.3-0.5c-0.5-0.3-0.8-0.6-1-1c-0.1-0.3-0.2-0.9-0.3-1.8c-0.1-0.9-0.2-1.9-0.2-3c0-0.6,0.2-1.1,0.7-1.6
			c0.5-0.5,1-0.7,1.6-0.7c0.6,0,0.9,0.5,1,1.5c0,0.1,0,0.2,0,0.3c0.1,0.8,0.2,1.3,0.3,1.6c0.1,0.3,0.3,0.5,0.5,0.5
			c0.1,0,0.2-0.1,0.5-0.3c0.2-0.2,0.5-0.4,0.8-0.7l5.3-5.3c0.4-0.5,0.9-0.8,1.2-1c0.4-0.2,0.7-0.3,0.9-0.3c0.2,0,0.3,0.1,0.4,0.2
			c0.1,0.1,0.1,0.4,0.1,0.7V368.4z"/>
		<path class="st24" d="M554.9,416.9c0,0.7-0.3,1.3-0.9,1.9l-0.1,0.1l-5.2,5.5c-1.1,1.2-2,2.1-2.8,2.7c-0.8,0.6-1.3,1-1.6,1
			c-0.3,0-0.8-0.2-1.3-0.5c-0.5-0.3-0.8-0.6-1-1c-0.1-0.3-0.2-0.9-0.3-1.8c-0.1-0.9-0.2-1.9-0.2-3c0-0.6,0.2-1.1,0.7-1.6
			c0.5-0.5,1-0.7,1.6-0.7c0.6,0,0.9,0.5,1,1.5c0,0.1,0,0.2,0,0.3c0.1,0.8,0.2,1.3,0.3,1.6c0.1,0.3,0.3,0.5,0.5,0.5
			c0.1,0,0.2-0.1,0.5-0.3c0.2-0.2,0.5-0.4,0.8-0.7l5.3-5.3c0.4-0.5,0.9-0.8,1.2-1c0.4-0.2,0.7-0.3,0.9-0.3c0.2,0,0.3,0.1,0.4,0.2
			c0.1,0.1,0.1,0.4,0.1,0.7V416.9z"/>
		<path class="st24" d="M534.5,523.8c0,0.7-0.3,1.3-0.9,1.9l-0.1,0.1l-5.2,5.5c-1.1,1.2-2,2.1-2.8,2.7c-0.8,0.6-1.3,1-1.6,1
			c-0.3,0-0.8-0.2-1.3-0.5c-0.5-0.3-0.8-0.6-1-1c-0.1-0.3-0.2-0.9-0.3-1.8c-0.1-0.9-0.2-1.9-0.2-3c0-0.6,0.2-1.1,0.7-1.6
			c0.5-0.5,1-0.7,1.6-0.7c0.6,0,0.9,0.5,1,1.5c0,0.1,0,0.2,0,0.3c0.1,0.8,0.2,1.3,0.3,1.6c0.1,0.3,0.3,0.5,0.5,0.5
			c0.1,0,0.2-0.1,0.5-0.3c0.2-0.2,0.5-0.4,0.8-0.7l5.3-5.3c0.4-0.5,0.9-0.8,1.2-1c0.4-0.2,0.7-0.3,0.9-0.3c0.2,0,0.3,0.1,0.4,0.2
			c0.1,0.1,0.1,0.4,0.1,0.7V523.8z"/>
		<g>
			<g>
				<line class="st26" x1="564.8" y1="286.4" x2="570.8" y2="286.4"/>
				<line class="st27" x1="579.6" y1="286.4" x2="636.6" y2="286.4"/>
				<line class="st26" x1="641" y1="286.4" x2="647" y2="286.4"/>
			</g>
		</g>
		<line class="st28" x1="549.5" y1="429.2" x2="873" y2="429.2"/>
		<line class="st19" x1="567.7" y1="379.5" x2="873" y2="379.5"/>
	</g>
</g>
</svg>
