<?xml version="1.0" encoding="UTF-8" standalone="no"?>
<!-- Created with Inkscape (http://www.inkscape.org/) -->

<svg
     width="2550"
     height="1125"
     viewBox="0 0 2550 1125"
     version="1.1"
     id="svg5"
     xml:space="preserve"
     inkscape:version="1.2.2 (732a01da63, 2022-12-09)"
     sodipodi:docname="MintTinAccordion4.svg"
     xmlns:inkscape="http://www.inkscape.org/namespaces/inkscape"
     xmlns:sodipodi="http://sodipodi.sourceforge.net/DTD/sodipodi-0.dtd"
     xmlns="http://www.w3.org/2000/svg"
     xmlns:svg="http://www.w3.org/2000/svg"><sodipodi:namedview
         id="namedview7"
         pagecolor="#ffffff"
         bordercolor="#999999"
         borderopacity="1"
         inkscape:showpageshadow="0"
         inkscape:pageopacity="0"
         inkscape:pagecheckerboard="0"
         inkscape:deskcolor="#d1d1d1"
         inkscape:document-units="mm"
         showgrid="false"
         inkscape:zoom="0.2287265"
         inkscape:cx="1777.2317"
         inkscape:cy="1615.4665"
         inkscape:window-width="2560"
         inkscape:window-height="1351"
         inkscape:window-x="1491"
         inkscape:window-y="585"
         inkscape:window-maximized="1"
         inkscape:current-layer="layer1" /><defs
         id="defs2" /><g
         inkscape:label="Layer 1"
         inkscape:groupmode="layer"
         id="layer1"
         transform="translate(-1351.9899,-34.976223)"><g
             id="g1232"><rect
                 style="fill:#7d567d;stroke-width:4.79274;paint-order:markers fill stroke"
                 id="rect908"
                 width="2550"
                 height="1125"
                 x="1351.9899"
                 y="34.976223" /><g
                 id="g1224"
                 transform="translate(597.39604,-1538.9559)"><path
                     id="path978"
                     style="color:black;solid-color:black;fill:#a773a7;stroke-width:207.6;stroke-linejoin:round;-inkscape-stroke:none;paint-order:markers fill stroke"
                     d="m 944.39919,1661.6939 a 103.81038,103.81038 0 0 0 -103.79883,103.8008 v 741.875 a 103.81038,103.81038 0 0 0 103.79883,103.8006 h 328.18751 a 103.81038,103.81038 0 0 0 103.7989,-103.8006 v -741.875 a 103.81038,103.81038 0 0 0 -103.7989,-103.8008 z" /><path
                     id="path978-0"
                     style="color:black;solid-color:black;fill:#a773a7;stroke-width:207.6;stroke-linejoin:round;-inkscape-stroke:none;paint-order:markers fill stroke"
                     d="m 1558.4664,1661.6939 a 103.81038,103.81038 0 0 0 -103.7988,103.8008 v 741.875 a 103.81038,103.81038 0 0 0 103.7988,103.8006 h 328.1875 a 103.81038,103.81038 0 0 0 103.7989,-103.8006 v -741.875 a 103.81038,103.81038 0 0 0 -103.7989,-103.8008 z" /><path
                     id="path978-8"
                     style="color:black;solid-color:black;fill:#a773a7;stroke-width:207.6;stroke-linejoin:round;-inkscape-stroke:none;paint-order:markers fill stroke"
                     d="m 2172.5337,1661.6939 a 103.81038,103.81038 0 0 0 -103.7989,103.8008 v 741.875 a 103.81038,103.81038 0 0 0 103.7989,103.8006 h 328.1875 A 103.81038,103.81038 0 0 0 2604.52,2507.3697 v -741.875 a 103.81038,103.81038 0 0 0 -103.7988,-103.8008 z" /><path
                     id="path978-1"
                     style="color:black;solid-color:black;fill:#a773a7;stroke-width:207.6;stroke-linejoin:round;-inkscape-stroke:none;paint-order:markers fill stroke"
                     d="m 2786.601,1661.6939 a 103.81038,103.81038 0 0 0 -103.7989,103.8008 v 741.875 a 103.81038,103.81038 0 0 0 103.7989,103.8006 h 328.1875 a 103.81038,103.81038 0 0 0 103.7988,-103.8006 v -741.875 a 103.81038,103.81038 0 0 0 -103.7988,-103.8008 z" /></g></g></g></svg>
