<?xml version="1.0" encoding="utf-8"?>
<!-- Generator: Adobe Illustrator 15.0.0, SVG Export Plug-In . SVG Version: 6.00 Build 0)  -->
<!DOCTYPE svg PUBLIC "-//W3C//DTD SVG 1.1//EN" "http://www.w3.org/Graphics/SVG/1.1/DTD/svg11.dtd">
<svg version="1.1" xmlns="http://www.w3.org/2000/svg" xmlns:xlink="http://www.w3.org/1999/xlink" x="0px" y="0px" width="612px"
	 height="468px" viewBox="0 0 612 468" enable-background="new 0 0 612 468" xml:space="preserve">
<g id="Background">
	<polygon fill="#929497" points="0,-0.25 0,467.75 612,467.75 612,-0.25 0,-0.25 	"/>
</g>
<g id="cuts">
	<g id="XMLID_1_">
		<g>
			<path fill="#FFFFFF" d="M86.76,430.76H9v-54v-254c0-29.82,24.17-54,54-54h23.76V45c0-19.88,16.11-36,36-36h110
				c19.88,0,36,16.12,36,36v23.76h23.76c29.82,0,54,24.18,54,54h73c0,22,36,22,36,0h73h70.561v254H528.52v70.761h-182V430.76h-77.76
				v23.761h-182V430.76z"/>
		</g>
		<g>
			<line fill="none" stroke="#EC1C24" stroke-miterlimit="10" x1="9" y1="376.76" x2="9" y2="122.76"/>
			<path fill="none" stroke="#EC1C24" stroke-miterlimit="10" d="M528.52,122.76h-73c0,22-36,22-36,0h-73"/>
			<polyline fill="none" stroke="#EC1C24" stroke-miterlimit="10" points="528.52,376.76 599.08,376.76 599.08,122.76 
				528.52,122.76 			"/>
			<path fill="none" stroke="#EC1C24" stroke-miterlimit="10" d="M9,122.76c0-29.82,24.17-54,54-54h23.76"/>
			<path fill="none" stroke="#EC1C24" stroke-miterlimit="10" d="M346.52,122.76c0-29.82-24.18-54-54-54h-23.76"/>
			<polyline fill="none" stroke="#EC1C24" stroke-miterlimit="10" points="86.76,151.56 86.76,68.76 86.76,45 115.56,45 			"/>
			<polyline fill="none" stroke="#EC1C24" stroke-miterlimit="10" points="268.76,151.56 268.76,68.76 268.76,45 239.96,45 			"/>
			<path fill="none" stroke="#EC1C24" stroke-miterlimit="10" d="M86.76,45c0-19.88,16.11-36,36-36h110"/>
			<path fill="none" stroke="#EC1C24" stroke-miterlimit="10" d="M268.76,45c0-19.88-16.12-36-36-36"/>
			<polyline fill="none" stroke="#EC1C24" stroke-miterlimit="10" points="346.52,430.76 346.52,447.521 528.52,447.521 
				528.52,376.76 			"/>
			<polyline fill="none" stroke="#EC1C24" stroke-miterlimit="10" points="268.76,430.76 346.52,430.76 346.52,376.76 			"/>
			<polyline fill="none" stroke="#EC1C24" stroke-miterlimit="10" points="86.76,430.76 86.76,454.521 268.76,454.521 
				268.76,430.76 268.76,376.76 			"/>
			<polyline fill="none" stroke="#EC1C24" stroke-miterlimit="10" points="9,376.76 9,430.76 86.76,430.76 86.76,376.76 			"/>
		</g>
	</g>
</g>
<g id="folds">
	<rect x="86.689" y="151.477" fill="none" stroke="#8BC53F" stroke-miterlimit="10" width="182" height="225.201"/>
	<line fill="none" stroke="#8BC53F" stroke-width="1.0138" stroke-miterlimit="10" x1="86.222" y1="376.678" x2="9" y2="376.678"/>
	
		<line fill="none" stroke="#8BC53F" stroke-width="0.9314" stroke-miterlimit="10" x1="86.689" y1="122.676" x2="8.997" y2="122.676"/>
	<polyline fill="none" stroke="#8BC53F" stroke-miterlimit="10" points="268.689,376.677 346.517,376.677 346.517,122.676 
		268.689,122.676 	"/>
	<line fill="none" stroke="#8BC53F" stroke-miterlimit="10" x1="528.516" y1="376.678" x2="528.516" y2="122.676"/>
	<line fill="none" stroke="#8BC53F" stroke-miterlimit="10" x1="115.49" y1="45.004" x2="239.89" y2="45.004"/>
	
		<line fill="none" stroke="#8BC53F" stroke-width="1.0321" stroke-miterlimit="10" x1="86.689" y1="122.677" x2="280.565" y2="122.677"/>
	
		<line fill="none" stroke="#8BC53F" stroke-width="1.0058" stroke-miterlimit="10" x1="344.416" y1="376.678" x2="528.52" y2="376.678"/>
</g>
<g id="instructions">
	<rect x="554.833" y="129.677" fill="#E6E6E6" width="37.728" height="239.999"/>
	<text transform="matrix(0 -1 1 0 578.8887 265.2129)" fill="#A6A8AB" font-family="'MyriadPro-Regular'" font-size="12">Glue</text>
	<g>
		<path fill="#EC1E28" d="M450.829,166.698c0,0.888-0.403,1.754-1.207,2.597l-0.127,0.125l-7.04,7.417
			c-1.496,1.571-2.771,2.787-3.821,3.646c-1.052,0.859-1.796,1.287-2.228,1.287c-0.456,0-1.021-0.214-1.698-0.644
			c-0.676-0.428-1.112-0.872-1.311-1.327c-0.166-0.38-0.325-1.185-0.473-2.416c-0.147-1.229-0.222-2.563-0.222-3.998
			c0-0.782,0.327-1.506,0.979-2.171c0.653-0.665,1.375-0.997,2.164-0.997c0.754,0,1.2,0.688,1.344,2.062
			c0.018,0.159,0.027,0.278,0.037,0.354c0.119,1.056,0.261,1.792,0.419,2.21c0.161,0.418,0.378,0.627,0.65,0.627
			c0.113,0,0.327-0.124,0.639-0.37c0.31-0.248,0.684-0.583,1.116-1.009l7.234-7.166c0.607-0.607,1.149-1.066,1.629-1.379
			c0.479-0.311,0.884-0.467,1.219-0.467c0.252,0,0.429,0.096,0.537,0.285c0.105,0.19,0.158,0.51,0.158,0.958V166.698z"/>
	</g>
	<line fill="none" stroke="#EC1C24" x1="483.585" y1="167.922" x2="483.585" y2="122.958"/>
	<text transform="matrix(1 0 0 1 450.9141 179.6245)" font-family="'ArialMT'" font-size="14">Trim Line</text>
	<line fill="none" stroke="#8BC53F" x1="240.049" y1="182.58" x2="268.849" y2="182.247"/>
	<rect x="364.595" y="41.852" fill="#E6E7E8" width="221.426" height="74.891"/>
	<text transform="matrix(1 0 0 1 496.5 57.3677)"><tspan x="0" y="0" fill="#231F20" font-family="'Arial-Black'" font-size="8.2702">PLEASE NOTE:</tspan><tspan x="-48.717" y="9.924" fill="#231F20" font-family="'Arial-Black'" font-size="8.2702">Remove this layer before </tspan><tspan x="-44.117" y="19.849" fill="#231F20" font-family="'Arial-Black'" font-size="8.2702">sending the file to print. </tspan><tspan x="-54.225" y="29.772" fill="#231F20" font-family="'Arial-Black'" font-size="8.2702">This layer is provided as a </tspan><tspan x="-9.207" y="39.697" fill="#231F20" font-family="'Arial-Black'" font-size="8.2702">guide for set up. </tspan><tspan x="-59.74" y="49.621" fill="#231F20" font-family="'Arial-Black'" font-size="8.2702">DELETE LAYER AFTER USE.</tspan></text>
	<g>
		<path fill="#EC1E28" d="M496.454,49.524c0,0.565-0.257,1.118-0.77,1.655l-0.081,0.081l-4.491,4.732
			c-0.955,1.001-1.768,1.776-2.438,2.326c-0.671,0.546-1.146,0.82-1.421,0.82c-0.291,0-0.652-0.137-1.084-0.411
			c-0.432-0.272-0.709-0.555-0.836-0.846c-0.106-0.242-0.207-0.756-0.301-1.542c-0.096-0.784-0.143-1.635-0.143-2.55
			c0-0.501,0.209-0.961,0.625-1.387c0.418-0.423,0.877-0.635,1.381-0.635c0.48,0,0.766,0.438,0.857,1.316
			c0.012,0.101,0.018,0.176,0.023,0.225c0.076,0.674,0.166,1.143,0.268,1.409s0.241,0.401,0.414,0.401
			c0.073,0,0.209-0.08,0.408-0.237c0.197-0.157,0.437-0.371,0.713-0.644l4.615-4.57c0.388-0.388,0.733-0.682,1.039-0.881
			c0.305-0.199,0.564-0.299,0.777-0.299c0.16,0,0.273,0.062,0.342,0.183c0.068,0.122,0.102,0.325,0.102,0.611V49.524z"/>
	</g>
	<g>
		<circle fill-rule="evenodd" clip-rule="evenodd" cx="400.261" cy="78.573" r="33.053"/>
		<circle fill-rule="evenodd" clip-rule="evenodd" fill="#B7D333" cx="400.284" cy="78.755" r="30.049"/>
		<g>
			<path d="M393.851,72.203c-0.417,3.682-0.727,6.643-0.934,8.874l-1.369,0.061c0.02-0.074,0.028-0.159,0.031-0.252
				c0.002-0.167-0.059-0.388-0.185-0.661c-0.126-0.271-0.198-0.445-0.216-0.52c-0.354,0.052-0.693,0.298-1.018,0.736
				c-0.324,0.441-0.618,0.662-0.878,0.658c-0.149-0.005-0.317-0.044-0.501-0.121c-0.246,0.163-0.562,0.233-0.955,0.209
				c-0.352-0.063-0.696-0.115-1.031-0.158c-0.012-0.467-0.469-0.874-1.376-1.226c0.004-0.187-0.091-0.463-0.28-0.831
				c-0.189-0.366-0.282-0.623-0.279-0.772c0.002-0.167,0.069-0.306,0.203-0.416c-0.02-0.055-0.173-0.403-0.459-1.043
				c-0.196-0.469-0.292-0.871-0.287-1.205c0.005-0.261,0.064-0.502,0.182-0.724c-0.16-1.587-0.23-2.948-0.21-4.084
				c0.028-1.751,0.278-3.359,0.753-4.824c-0.034-0.225-0.05-0.448-0.047-0.672c0.021-1.174,0.428-1.985,1.215-2.439l0.008-0.363
				c0.781-0.993,1.809-1.712,3.082-2.156c0.764,0.182,1.523,0.353,2.284,0.516c0.853,0.294,1.44,0.797,1.763,1.511
				c0.258,0.154,0.385,0.464,0.377,0.927c-0.009,0.524,0.051,0.861,0.178,1.012l-0.143,0.164c0.148,1.103,0.223,1.775,0.218,2.016
				c-0.013,0.71-0.198,1.209-0.557,1.501c-0.13-0.001-0.473-0.118-1.027-0.353c-0.134,0.128-0.275,0.191-0.423,0.188
				c-0.075-0.001-0.211-0.042-0.404-0.12c-0.193-0.077-0.357-0.115-0.487-0.117c-0.093-0.002-0.187,0.014-0.28,0.049
				c-0.012-1.471,0.035-2.569,0.14-3.295c-0.147-0.096-0.297-0.315-0.449-0.65c-0.153-0.339-0.351-0.529-0.591-0.569
				c-0.152,0.185-0.221,0.305-0.203,0.361l-0.5-0.177c-0.455,0.495-0.759,1.356-0.909,2.583c-0.155,1.415-0.348,2.352-0.578,2.813
				c0.2,0.209,0.299,0.499,0.29,0.872c-0.001,0.129-0.023,0.345-0.066,0.641c-0.043,0.298-0.064,0.522-0.066,0.672
				c-0.002,0.167,0.012,0.316,0.049,0.446l-0.342,0.33c0.138,0.636,0.218,1.439,0.239,2.409c-0.014,0.818-0.02,1.639-0.014,2.458
				c-0.02,0-0.178,0.007-0.476,0.021c-0.186-0.005-0.319,0.059-0.395,0.188c0.111-0.017,0.215-0.024,0.307-0.021
				c0.41,0.005,0.731,0.296,0.963,0.868c0.234,0.572,0.434,0.86,0.602,0.864c0.187,0.001,0.441-0.171,0.765-0.521
				c0.549-0.585,0.833-1.392,0.851-2.416c0.01-0.503-0.047-1.044-0.168-1.623c-0.131,0.071-0.2,0.257-0.205,0.555
				c-0.298-0.004-0.486,0.058-0.562,0.186c-0.129-0.039-0.184-0.143-0.162-0.309c0.021-0.242,0.033-0.374,0.033-0.393
				c0.227-0.068,0.338-0.171,0.342-0.3c0-0.057-0.039-0.161-0.121-0.312c-0.08-0.149-0.119-0.271-0.119-0.365
				c0-0.073,0.021-0.147,0.06-0.223l0.13-1.088c0.409,0.12,1.293,0.171,2.654,0.159c-0.04,0.09,0.014,0.214,0.162,0.363
				c0.131-0.128,0.271-0.191,0.422-0.187c0.11,0.002,0.277,0.051,0.498,0.147C393.6,72.152,393.756,72.202,393.851,72.203z"/>
			<path d="M404.281,81.828c-0.26-0.115-0.538-0.175-0.835-0.182c-0.262-0.004-0.617,0.046-1.066,0.15
				c-0.506,0.103-0.851,0.162-1.037,0.178c-0.199-0.395-0.338-0.937-0.418-1.629c-0.15-1.008-0.246-1.577-0.279-1.711
				c0.059-0.11,0.088-0.203,0.088-0.275c0.004-0.206-0.156-0.391-0.479-0.556c-0.325-0.162-0.485-0.292-0.482-0.386
				c0.001-0.108,0.189-0.274,0.566-0.492c-0.091-0.112-0.158-0.342-0.199-0.687c-0.039-0.346-0.125-0.576-0.253-0.69
				c-0.228,0.202-0.597,0.331-1.11,0.386c-0.514,0.059-0.854,0.141-1.023,0.248c0.011,1.454-0.229,2.43-0.721,2.923
				c-0.26-0.06-0.459,0.04-0.592,0.3c-0.193,0.312-0.355,0.495-0.486,0.549l0.164,0.198c-0.15,0.128-0.395,0.181-0.729,0.156
				c-0.521-0.028-0.801-0.042-0.838-0.042l-0.158-0.508l1.82-15.089c0.018-0.95,0.064-1.595,0.145-1.928
				c-0.023-0.84,0.172-1.358,0.584-1.556c0.259,0.172,0.584,0.261,0.975,0.269c0.318,0.006,0.812-0.061,1.484-0.199
				c0.676-0.137,1.142-0.205,1.402-0.201c0.912,0.018,1.311,0.676,1.197,1.979c-0.093,1.042,0.07,2.415,0.487,4.117
				c0.436,1.835,0.646,3.208,0.63,4.122c-0.006,0.277,0.087,0.857,0.063,1.136c-0.396,0.217-0.899,0.349-1.515,0.393
				c-0.541,0.029-1.093,0.059-1.651,0.084c-0.144-1.419-0.394-3.127-0.538-4.528c-0.176-1.68-0.395-3.061-0.656-4.147l-0.863,7.979
				c-0.066,0.689,0.245,1.04,0.935,1.052c0.224,0.004,0.437-0.049,0.646-0.157c0.168-0.053,0.4,0.071,0.692,0.375
				c-0.011,0.577,0.104,0.924,0.345,1.041c0.303-0.2,0.696-0.39,1.184-0.569c0.431-0.158,0.855-0.31,1.268-0.452
				c0.234,0.321,0.387,0.798,0.451,1.434c0.076,0.896,0.133,1.42,0.168,1.567c0.031,0.355,0.176,1.121,0.435,2.301
				c0.19,0.933,0.279,1.69,0.271,2.268C404.345,81.327,404.321,81.587,404.281,81.828z"/>
			<path d="M417.151,68.517c-0.021,0.057-0.025,0.383-0.016,0.979c-0.01,0.485-0.07,0.847-0.187,1.087
				c-0.139,0.371-0.21,0.902-0.224,1.591c-0.003,0.149,0.002,0.382,0.016,0.698c-0.006,0.318-0.009,0.551-0.011,0.699
				c-0.021,1.174-0.222,2.026-0.604,2.561c0.033,0.301,0.047,0.598,0.044,0.896c-0.017,0.932-0.336,2.185-0.959,3.759
				c-0.169,0.054-0.311,0.077-0.423,0.076c-0.223-0.005-0.383-0.135-0.482-0.387c-0.099-0.253-0.19-0.492-0.279-0.717
				c0.061-1.433,0.031-3.521-0.091-6.264l0.171-0.165c-0.123-0.484-0.178-1.026-0.168-1.622c0.007-0.43,0.061-1.053,0.156-1.871
				c0.1-0.818,0.151-1.434,0.158-1.843c0.006-0.261-0.002-0.511-0.014-0.754c-0.643,1.536-1.097,4.136-1.363,7.802l-0.234,0.556
				c-0.077,0.187-0.237,0.286-0.479,0.301c-0.073-0.131-0.146-0.198-0.22-0.199c-0.057-0.003-0.155,0.065-0.297,0.204
				c-0.144,0.137-0.261,0.195-0.353,0.176l-0.371,0.328c0.164,0.208,0.518,0.232,1.062,0.076c0.429-0.125,0.65,0.038,0.662,0.485
				c0.012,0.372-0.09,0.874-0.305,1.505c-0.217,0.628-0.326,1.102-0.332,1.42c-0.004,0.224,0.021,0.447,0.072,0.67l-1.934,0.303
				c-0.18-0.375-0.313-1.007-0.402-1.894c-0.086-0.884-0.221-1.518-0.4-1.893c0.113-0.128,0.172-0.266,0.174-0.416
				c0.002-0.131-0.049-0.327-0.157-0.589c-0.106-0.265-0.168-0.46-0.186-0.592c-0.015-0.204-0.08-0.701-0.198-1.484
				c-0.082-0.634-0.121-1.131-0.115-1.482c0.004-0.188,0.017-0.355,0.037-0.505c0.002-0.129-0.07-0.321-0.213-0.577
				c-0.146-0.253-0.217-0.436-0.213-0.548c0-0.093,0.038-0.175,0.113-0.249c-0.128-0.152-0.18-0.413-0.154-0.784
				c0.025-0.374-0.027-0.636-0.153-0.785c-0.274,0.72-0.42,1.696-0.442,2.925c-0.01,1.715-0.027,2.704-0.05,2.963l0.193,0.174
				l-0.198,0.161c0.137,0.673,0.198,1.533,0.18,2.575c-0.051,1.882-0.074,2.757-0.073,2.629c-0.265,0.235-0.63,0.352-1.097,0.343
				c-0.576-0.009-0.97,0.041-1.176,0.147c-0.234-0.414-0.348-0.946-0.336-1.598c0.008-0.504,0.094-1.116,0.256-1.842
				c-0.254-0.472-0.373-1.124-0.359-1.963c0.004-0.206,0.029-0.595,0.076-1.174c0.027-0.463,0.032-0.809,0.019-1.032
				c0.187-0.09,0.282-0.189,0.283-0.303c0.003-0.074-0.056-0.202-0.175-0.381c-0.118-0.177-0.176-0.313-0.176-0.408
				c0.003-0.111,0.079-0.222,0.229-0.332l-0.603-9.039c0.359-0.235,0.939-0.347,1.74-0.333c0.875,0.034,1.474-0.013,1.791-0.135
				c0.058-0.039,0.122-0.056,0.197-0.056c0.076,0.003,0.162,0.046,0.264,0.131s0.17,0.129,0.207,0.129
				c0.074,0.001,0.141-0.054,0.199-0.166l0.521,0.515c0.176,0.655,0.341,1.925,0.496,3.808c0.158,1.625,0.406,2.852,0.748,3.677
				c0.457-1.65,0.833-3.033,1.132-4.145l0.606-4.425l4.333-0.095c0.017,0.241,0.069,1.538,0.187,2.286
				c0.099,0.652,0.146,1.185,0.14,1.594c-0.007,0.467-0.079,0.886-0.218,1.255c0.145,0.208,0.217,0.47,0.211,0.784
				C417.384,68.057,417.303,68.313,417.151,68.517z"/>
			<path d="M426.041,78.313l0.001-0.028c-0.115,0.239-0.187,0.519-0.209,0.835c-0.021,0.204-0.028,0.492-0.016,0.865
				c0.011,0.428,0.016,0.727,0.014,0.896c-0.15-0.003-0.746-0.014-1.789-0.03c-0.634-0.011-1.202,0.044-1.708,0.167l-0.521-0.568
				c-0.153,0.146-0.21,0.266-0.175,0.359c-0.092-0.02-0.521-0.026-1.285-0.021c-0.596-0.009-1.043-0.075-1.337-0.19
				c-0.306,0.313-0.659,0.306-1.063-0.018c-0.146-0.113-0.162-0.306-0.047-0.573c0.117-0.269,0.083-0.469-0.1-0.604
				c0.027-0.595,0.109-1.517,0.242-2.764c0.131-1.114,0.2-1.99,0.211-2.623c0.014-0.857-0.045-1.679-0.181-2.463
				c0.21-0.201,0.442-0.3,0.704-0.295c0.299,0.003,0.65,0.15,1.055,0.438c0.568,0.397,0.867,0.602,0.884,0.602l0.163,0.197
				c0.021-0.057,0.119-0.353,0.295-0.89c0.1-0.352,0.244-0.581,0.433-0.691l0.165,0.171c0.075-0.035,0.319-0.209,0.736-0.519
				c0.317-0.22,0.58-0.736,0.766-0.73c0.206,0.001,0.396,0.118,0.581,0.345c0.313,0.171,0.511,0.842,0.609,1.187
				c0.096,0.348,0.188,0.688,0.276,1.027c-0.838,0.022-1.529,0-2.068-0.064c-0.133,0.203-0.32,0.232-0.561,0.089
				c-0.239-0.143-0.416-0.123-0.531,0.059c-0.006,0.337-0.018,0.944-0.031,1.818c-0.033,0.781-0.042,1.396-0.03,1.845
				c0.006,0.689,0.051,1.323,0.134,1.901c0.148,0.004,0.856,0.017,2.123,0.038C424.657,78.094,425.41,78.171,426.041,78.313z
				 M426.101,64.924c-0.168,0.017-0.353,0.022-0.559,0.02c-0.428-0.007-0.996-0.075-1.701-0.198
				c-0.875-0.125-1.404-0.199-1.591-0.222c-0.267,0.386-0.405,0.934-0.419,1.642c-0.025,1.528-0.025,2.189-0.005,1.984
				c0.259,0.153,0.384,0.437,0.376,0.846c-0.028,0.559-0.032,0.849-0.014,0.866c-0.131,0.053-0.2,0.238-0.205,0.555
				c-0.205-0.077-0.416-0.23-0.635-0.458c-0.294-0.285-0.45,0.68-0.428,0.439l-0.178,0.573l-0.164-0.17
				c-0.15,0.017-0.405-0.062-0.765-0.236c-0.362-0.175-0.614-0.334-0.761-0.488c0.006-0.298,0.055-0.465,0.148-0.501l-0.356-0.396
				l-0.171,0.247c-0.21-1.942-0.158-5.571,0.098-7.617c0.708,0.122,1.489,0.202,2.346,0.235c0.578,0.028,1.387,0.042,2.431,0.042
				c1.193,0.001,2.052,0.005,2.573,0.014c0.218,0.208,0.326,0.481,0.32,0.816c-0.002,0.206-0.061,0.536-0.17,0.989
				C426.161,64.363,426.104,64.699,426.101,64.924z"/>
		</g>
		<g>
			<path d="M394.69,95.213v-0.015c0,0.01-0.049,0.422-0.145,1.233c-0.049,0.498-0.168,0.891-0.36,1.176l-0.122-0.098
				c-0.227,0.474-0.533,0.763-0.925,0.865c-0.187,0.196-0.456,0.305-0.808,0.326c-0.209,0.013-0.691-0.049-1.447-0.182
				c-0.366-0.228-0.566-0.354-0.602-0.379c-0.23-0.172-0.34-0.347-0.328-0.526c-0.222-0.226-0.535-0.631-0.652-1.137
				c-0.143-0.562-0.229-0.591-0.361-0.789c-0.211,0.156-0.287-0.174-0.408-0.373l0.109-0.083c-0.068-0.05-0.105-0.106-0.109-0.169
				c-0.002-0.044,0.019-0.108,0.056-0.196c0.04-0.086,0.06-0.15,0.056-0.195c-0.005-0.069-0.046-0.131-0.126-0.178
				c0.085-0.441,0.162-1.103,0.231-1.982c0.15-0.081,0.221-0.234,0.213-0.466c-0.008-0.229,0.025-0.382,0.098-0.456
				c0.354-0.714,0.934-1.194,1.734-1.444c0.044,0.005,0.258,0.001,0.644-0.011c0.264-0.007,0.464,0.016,0.599,0.071
				c0.24-0.042,0.48,0.018,0.72,0.171c0.208,0.157,0.417,0.312,0.622,0.47c0.389,0.42,0.599,0.897,0.63,1.427
				c0.01,0.175-0.002,0.363-0.034,0.559c-0.287-0.008-0.49,0.179-0.611,0.569l-1.117,0.104c-0.119-0.17-0.189-0.397-0.205-0.681
				c-0.006-0.097-0.004-0.239,0-0.424c0.005-0.188,0.006-0.329,0-0.426c-0.018-0.292-0.085-0.521-0.206-0.694l-0.335,0.192
				c-0.137-0.054-0.205-0.133-0.212-0.239c-0.002-0.035,0.003-0.088,0.016-0.153c0.013-0.069,0.019-0.114,0.017-0.142
				c-0.006-0.114-0.109-0.183-0.309-0.21c-0.137,1.259-0.178,2.552-0.123,3.878c0.035,0.043,0.142,0.071,0.318,0.09
				c0.145,0.017,0.219,0.062,0.222,0.131c0.003,0.028-0.005,0.063-0.026,0.109l-0.109,0.086c0.059,0.093,0.096,0.227,0.105,0.394
				c0.004,0.087,0.002,0.223-0.01,0.406c-0.012,0.183-0.015,0.318-0.01,0.405c0.017,0.265,0.082,0.466,0.201,0.602
				c-0.012,0.193,0.068,0.328,0.236,0.396c0.107-0.041,0.205-0.062,0.295-0.068c0.34-0.021,0.576,0.166,0.709,0.556
				c0.001,0.01-0.002,0.075-0.004,0.201c0.004,0.071,0.039,0.116,0.106,0.14c0.148-0.09,0.222-0.249,0.22-0.479
				c-0.003-0.265,0.031-0.436,0.102-0.51c-0.018-0.124-0.09-0.302-0.22-0.532c-0.13-0.233-0.196-0.414-0.206-0.548
				c-0.008-0.141,0.035-0.275,0.125-0.404c-0.078-0.024-0.113-0.074-0.107-0.155c0.004-0.125,0.006-0.191,0.006-0.199
				C393.446,95.076,394.065,95.072,394.69,95.213z"/>
			<path d="M399.748,96.25h-0.014c-0.065,0.126-0.085,0.311-0.063,0.548c0.031,0.336,0.048,0.509,0.048,0.517
				c-0.05,0.021-0.12-0.006-0.204-0.074c-0.13,0.049-0.193,0.131-0.186,0.245c0,0.018,0.008,0.046,0.021,0.086
				c0.001,0.049,0.005,0.082,0.005,0.099c0.006,0.09-0.021,0.157-0.08,0.203c-0.148-0.082-0.344-0.135-0.584-0.159
				c-0.244-0.021-0.475-0.044-0.689-0.063c-0.004-1.121-0.154-2.22-0.453-3.289c0,0.008-0.006-0.101-0.02-0.334
				c0.002-0.164-0.035-0.281-0.111-0.352l-0.102,0.092c-0.002-0.017,0.031-0.047,0.101-0.097s0.104-0.1,0.1-0.149
				c-0.003-0.024-0.009-0.049-0.021-0.071l-0.112-0.081c-0.19,0.062-0.278,0.216-0.265,0.459c0.01,0.165-0.057,0.281-0.194,0.346
				c0.054,0.039,0.081,0.089,0.083,0.145c0.004,0.033-0.001,0.08-0.014,0.139c-0.013,0.057-0.018,0.102-0.015,0.137
				c0.003,0.071,0.044,0.132,0.117,0.177c0.004,0.05,0.028,0.494,0.077,1.333c0.031,0.534,0.016,0.987-0.043,1.361l0.012,0.209
				c-0.072-0.003-0.155-0.001-0.246,0.002c-0.102,0.008-0.25,0.022-0.443,0.047c-0.191,0.023-0.336,0.037-0.427,0.043
				c-0.378,0.021-0.644-0.043-0.796-0.19l-0.159-4.604c-0.075-0.225-0.124-0.541-0.147-0.943l-0.051-0.889
				c-0.036-0.435-0.092-0.769-0.167-1.003c0.032-0.16,0.171-0.246,0.416-0.26c0.153-0.009,0.358,0.011,0.618,0.063
				c0.119-0.055,0.287-0.09,0.502-0.104c0.061-0.006,0.158-0.006,0.291-0.006c0.143-0.008,0.245-0.014,0.306-0.018
				c0.4-0.021,0.663-0.145,0.794-0.367c0.186-0.003,0.386,0.057,0.604,0.175c0.215,0.12,0.406,0.185,0.57,0.189
				c0.436,0.255,0.669,0.679,0.705,1.271c0.008,0.132-0.045,0.654-0.156,1.567l-0.746,0.648c0.127,0.232,0.279,0.738,0.457,1.521
				C399.216,95.468,399.442,95.945,399.748,96.25z M398.368,91.011l0.016,0.011c0.015,0.057,0.008-0.146-0.02-0.603
				c-0.012-0.223-0.094-0.383-0.244-0.482c-0.084,0.12,0.013,0.177-0.028,0.454c-0.038,0.279-0.204,0.201-0.3,0.322
				c-0.256,0-0.314,0.154-0.37-0.09c-0.114-0.398-0.214-0.363-0.215-0.37l-0.108,0.064c-0.04,0.035-0.084,0.074-0.132,0.12
				c-0.048,0.045-0.099,0.058-0.15,0.046c0.003,0.05-0.021,0.126-0.071,0.232s-0.074,0.178-0.072,0.22
				c0.006,0.075,0.063,0.129,0.18,0.164c-0.021,0.165-0.026,0.339-0.018,0.52c0.007,0.098,0.029,0.324,0.071,0.676
				c0.047,0.277,0.065,0.516,0.056,0.713c0.094,0.003,0.18,0.003,0.262-0.001c0.358-0.021,0.591-0.163,0.698-0.424
				c0.036-0.075,0.077-0.352,0.122-0.823C398.083,91.404,398.191,91.152,398.368,91.011z"/>
			<path d="M405.552,98.038c-0.146-0.043-0.301-0.058-0.465-0.048c-0.143,0.008-0.335,0.044-0.576,0.106
				c-0.275,0.065-0.462,0.106-0.562,0.119c-0.125-0.165-0.22-0.399-0.287-0.699c-0.119-0.439-0.19-0.687-0.213-0.743
				c0.029-0.05,0.041-0.093,0.039-0.127c-0.006-0.09-0.102-0.164-0.282-0.225c-0.185-0.058-0.276-0.11-0.278-0.15
				c-0.002-0.049,0.094-0.128,0.294-0.238c-0.055-0.048-0.098-0.146-0.132-0.298c-0.035-0.149-0.088-0.246-0.164-0.292
				c-0.117,0.099-0.314,0.17-0.594,0.216c-0.279,0.043-0.463,0.093-0.555,0.149c0.059,0.638,0,1.762-0.251,1.998
				c-0.144-0.016-0.247,0.035-0.314,0.156c-0.095,0.145-0.177,0.232-0.245,0.262l0.096,0.079c-0.079,0.064-0.21,0.096-0.393,0.099
				c-0.287,0.008-0.439,0.012-0.461,0.013l-0.104-0.218l0.431-7.402c-0.023-0.418-0.02-0.703,0.011-0.853
				c-0.042-0.369,0.048-0.606,0.267-0.71c0.148,0.066,0.328,0.092,0.543,0.08c0.173-0.01,0.444-0.057,0.807-0.146
				c0.363-0.087,0.617-0.134,0.761-0.143c0.5-0.028,0.741,0.245,0.724,0.823c-0.015,0.462,0.123,1.06,0.412,1.794
				c0.302,0.789,0.463,1.387,0.486,1.791c0.008,0.122,0.173,0.385,0.17,0.509c-0.211,0.11-0.482,0.187-0.817,0.231
				c-0.296,0.035-0.595,0.069-0.901,0.103c-0.128-0.619-0.418-1.371-0.545-1.984c-0.156-0.732-0.324-1.331-0.504-1.802l-0.195,3.55
				c-0.012,0.306,0.172,0.447,0.549,0.426c0.121-0.007,0.238-0.039,0.348-0.095c0.092-0.029,0.221,0.017,0.392,0.138
				c0.015,0.256,0.091,0.405,0.228,0.445c0.157-0.1,0.367-0.199,0.627-0.296c0.23-0.087,0.457-0.171,0.678-0.249
				c0.142,0.132,0.238,0.337,0.299,0.612c0.072,0.394,0.121,0.619,0.146,0.686c0.029,0.154,0.136,0.487,0.318,0.996
				c0.138,0.403,0.213,0.733,0.228,0.987C405.567,97.812,405.565,97.929,405.552,98.038z"/>
			<path d="M409.782,89.639h0.015c-0.122,0.181-0.278,0.215-0.47,0.103c-0.041-0.008-0.226,0.004-0.553,0.031
				c-0.274,0.017-0.475,0.001-0.602-0.04c-0.029,0.004-0.091,0.033-0.178,0.091c-0.09,0.062-0.153,0.089-0.195,0.092
				c-0.061,0.006-0.096-0.048-0.102-0.155c-0.002-0.015-0.006-0.086-0.012-0.208c-0.005-0.082-0.045-0.139-0.117-0.167l-0.191,0.148
				c-0.059,0.044-0.088,0.09-0.084,0.14c0.002,0.04,0.037,0.099,0.104,0.174c0.064,0.074,0.104,0.128,0.115,0.158
				c0.002,0.026,0.023,0.396,0.064,1.11c0.015,0.455,0.1,0.816,0.248,1.087c0.037-0.043,0.131-0.067,0.279-0.07
				c0.148-0.005,0.246-0.037,0.295-0.098c0.098,0.083,0.258,0.09,0.484,0.015c0.228-0.076,0.391-0.052,0.49,0.076l-0.03,1.091
				c-0.093-0.013-0.229-0.057-0.407-0.136c-0.053,0.158-0.154,0.26-0.305,0.3c-0.062,0.021-0.234,0.038-0.52,0.055
				c0.008-0.05-0.037-0.101-0.134-0.151c-0.277,0.132-0.384,0.446-0.313,0.945c0.008-0.051,0.018,0.036,0.031,0.258
				c0.008,0.139-0.021,0.241-0.09,0.302c-0.174,0.025-0.393-0.013-0.66-0.116c-0.266-0.104-0.458-0.153-0.57-0.146
				c-0.05,0.003-0.098,0.01-0.137,0.021l-0.287,0.09l-0.459-4.981l-0.055-0.949c0.381-0.128,0.854-0.21,1.416-0.242
				c0.439-0.025,1.014-0.021,1.723,0.011c0.045-0.093,0.129,0.028,0.232,0.024c0.051-0.004,0.127,0.002,0.23,0.016
				c0.104,0.015,0.182,0.021,0.233,0.018c0.06-0.003,0.115-0.015,0.165-0.033l0.072-0.08c0.209,0.062,0.318,0.173,0.327,0.327
				c0.005,0.066-0.017,0.18-0.059,0.338c-0.04,0.159-0.06,0.281-0.056,0.362C409.729,89.518,409.749,89.584,409.782,89.639z
				 M407.989,97.952c-0.108,0.057-0.277,0.089-0.502,0.104c-0.295,0.017-0.473,0.032-0.535,0.043
				c-0.031-0.031-0.07-0.006-0.137-0.266c-0.043-0.171-0.15-0.252-0.322-0.24c-0.042,0.002-0.091,0.009-0.152,0.02l-0.276,0.018
				l-0.147-2.522c0.151-0.073,0.338-0.117,0.562-0.131c0.215-0.012,0.405,0.01,0.571,0.064c-0.003,0.093,0.127,0.132,0.392,0.113
				l0.292-0.018C407.907,95.848,408.015,97.127,407.989,97.952z"/>
			<path d="M415.909,89.855l0.016,0.012c-0.145-0.01-0.606,0.022-0.963,0.066c-0.305,0.035-0.535,0.041-0.689,0.017
				c-0.148,0.1-0.203,0.234-0.162,0.403l0.095,0.057c-0.078,0.073-0.105,0.127-0.081,0.167l0.081,0.081
				c-0.019,1.462-0.022,2.27-0.012,2.426c0.021,0.387,0.066,0.726,0.134,1.02c-0.061,0.185-0.084,0.396-0.069,0.635
				c0.009,0.154,0.045,0.402,0.11,0.741c0.067,0.338,0.154,1.45,0.165,1.624c0.007,0.129,0.005,0.255-0.009,0.369
				c-0.142,0.059-0.293,0.092-0.456,0.103c-0.276,0.016-0.571-0.041-0.888-0.172c-0.037,0.035-0.081,0.072-0.131,0.113
				c-0.048,0.04-0.061,0.085-0.037,0.133c-0.102,0.028-0.243-0.012-0.424-0.125c-0.097-1.479-0.359-4.493-0.752-7.538
				c-0.139,0.124-0.393,0.021-0.656,0.054c-0.315,0.034-0.625-0.015-0.745,0.042c-0.153-0.164-0.119-0.213-0.134-0.483
				c-0.017-0.263-0.102-0.911-0.033-1.182c0.014-0.06,0.586-0.025,0.923-0.054c0.459-0.025,0.561,0.083,0.591,0.08
				c0.037-0.059,0.262-0.029,0.424-0.04c0.105,0.051,0.221-0.047,0.224,0.028c0.005,0.049,0,0.359-0.034,0.448
				c-0.036,0.09-0.053,0.155-0.051,0.195c0.006,0.099,0.077-0.046,0.243,0.011c0.185-0.004,0.374-0.011,0.567-0.021
				c0.217,0.02,0.466-0.058,0.446,0.125c0.037-0.053,0.062,0.039,0.371-0.086c0.229-0.105,0.37-0.374,0.325-0.559
				c-0.025-0.102,0.113-0.168,0.026-0.12c0.111-0.062,0.011-0.019,0.131-0.067c0.383,0.038,0.593-0.002,0.665-0.006
				c0.154-0.01,0.535,0.088,0.643,0.033c0.08,0.144,0.121,0.594,0.125,0.841C415.9,89.62,415.908,89.83,415.909,89.855z"/>
			<path d="M420.874,95l-0.002-0.012c-0.055,0.109-0.084,0.235-0.084,0.376c-0.008,0.09,0,0.218,0.021,0.384
				c0.022,0.187,0.034,0.317,0.039,0.393c-0.083,0.004-0.41,0.021-0.982,0.058c-0.346,0.02-0.655,0.065-0.929,0.141l-0.306-0.231
				c-0.077,0.071-0.104,0.127-0.081,0.166c-0.051-0.005-0.287,0.009-0.705,0.041c-0.328,0.02-0.574,0.008-0.741-0.031
				c-0.154,0.148-0.349,0.16-0.581,0.033c-0.084-0.043-0.1-0.127-0.045-0.251c0.054-0.123,0.027-0.21-0.078-0.261
				c-0.004-0.263,0.008-0.672,0.037-1.227c0.034-0.497,0.041-0.886,0.024-1.166c-0.022-0.377-0.085-0.736-0.185-1.077
				c0.107-0.097,0.231-0.147,0.374-0.155c0.163-0.012,0.36,0.04,0.595,0.148c0.326,0.155,0.494,0.232,0.504,0.232l0.097,0.079
				c0.009-0.022,0.052-0.159,0.13-0.404c0.043-0.157,0.113-0.265,0.213-0.318l0.096,0.067c0.04-0.018,0.17-0.104,0.385-0.256
				c0.168-0.11,0.283-0.511,0.387-0.516c0.11-0.007,0.222,0.036,0.33,0.128c0.177,0.064,0.318,0.514,0.383,0.662
				c0.064,0.149,0.128,0.296,0.188,0.44c-0.459,0.043-0.839,0.062-1.135,0.054c-0.066,0.096-0.169,0.116-0.304,0.062
				c-0.137-0.055-0.233-0.037-0.291,0.049c0.01,0.146,0.025,0.413,0.047,0.8c0.011,0.346,0.025,0.616,0.047,0.812
				c0.027,0.304,0.076,0.581,0.142,0.835c0.082-0.007,0.472-0.028,1.165-0.067C420.106,94.959,420.521,94.963,420.874,95z
				 M420.398,89.201c-0.091,0.013-0.194,0.024-0.308,0.028c-0.232,0.015-0.543,0.009-0.938-0.019
				c-0.482-0.021-0.775-0.033-0.879-0.036c-0.131,0.183-0.149,0.328-0.131,0.641c0.039,0.673,0.062,0.965,0.066,0.874
				c0.146,0.058,0.227,0.178,0.235,0.359c0.005,0.246,0.011,0.371,0.022,0.381c-0.07,0.026-0.1,0.113-0.094,0.253
				c-0.113-0.027-0.234-0.086-0.363-0.178c-0.172-0.113-0.225,0.289-0.221,0.183l-0.077,0.252l-0.097-0.071
				c-0.08,0.014-0.223-0.011-0.426-0.074c-0.203-0.062-0.35-0.124-0.434-0.185c-0.006-0.13,0.013-0.205,0.062-0.226l-0.209-0.162
				l-0.084,0.118c-0.182-0.849-0.305-2.342-0.234-3.253c0.391,0.027,0.848-0.039,1.316-0.059c0.316-0.011,0.763-0.035,1.334-0.077
				c0.653-0.046,1.121-0.078,1.406-0.095c0.129,0.084,0.199,0.2,0.206,0.347c0.007,0.092-0.013,0.238-0.058,0.442
				C420.45,88.851,420.394,89.101,420.398,89.201z"/>
			<path d="M425.97,94.124l-0.015,0.002c-0.063,0.128-0.085,0.311-0.062,0.546c0.031,0.338,0.045,0.511,0.047,0.519
				c-0.051,0.021-0.119-0.004-0.205-0.074c-0.131,0.049-0.192,0.131-0.186,0.246c0.002,0.017,0.008,0.043,0.02,0.084
				c0.003,0.05,0.005,0.082,0.007,0.1c0.005,0.09-0.022,0.157-0.081,0.203c-0.148-0.083-0.344-0.136-0.586-0.159
				c-0.242-0.022-0.471-0.046-0.688-0.067c-0.004-1.118-0.154-2.215-0.451-3.287c0,0.01-0.008-0.102-0.02-0.332
				c0-0.164-0.037-0.281-0.113-0.352l-0.102,0.093c0-0.016,0.031-0.049,0.102-0.098c0.067-0.05,0.102-0.1,0.1-0.149
				c-0.004-0.024-0.01-0.049-0.021-0.074l-0.112-0.081c-0.19,0.062-0.279,0.214-0.263,0.462c0.008,0.164-0.059,0.281-0.197,0.346
				c0.053,0.038,0.082,0.086,0.086,0.143c0.002,0.034-0.004,0.079-0.016,0.136c-0.012,0.06-0.018,0.105-0.016,0.14
				c0.004,0.072,0.043,0.133,0.117,0.179c0.004,0.05,0.029,0.492,0.078,1.331c0.031,0.534,0.018,0.989-0.044,1.362l0.014,0.21
				c-0.071-0.004-0.154-0.004-0.247,0.003c-0.102,0.006-0.25,0.02-0.443,0.043c-0.193,0.024-0.334,0.039-0.428,0.044
				c-0.376,0.021-0.643-0.04-0.794-0.189l-0.16-4.604c-0.075-0.227-0.124-0.541-0.147-0.943l-0.052-0.888
				c-0.035-0.436-0.089-0.771-0.165-1.005c0.031-0.158,0.17-0.245,0.414-0.259c0.155-0.01,0.359,0.011,0.619,0.063
				c0.121-0.058,0.287-0.093,0.501-0.104c0.062-0.004,0.159-0.005,0.291-0.005c0.144-0.008,0.247-0.015,0.308-0.019
				c0.398-0.021,0.664-0.146,0.795-0.366c0.184-0.001,0.385,0.056,0.6,0.174c0.217,0.121,0.408,0.184,0.575,0.189
				c0.433,0.256,0.669,0.679,0.702,1.272c0.007,0.132-0.045,0.654-0.155,1.568l-0.747,0.646c0.127,0.233,0.279,0.739,0.459,1.52
				C425.437,93.344,425.667,93.82,425.97,94.124z M424.589,88.887l0.017,0.011c0.014,0.057,0.007-0.146-0.019-0.603
				c-0.014-0.226-0.096-0.384-0.244-0.481c-0.084,0.118-0.102-0.161-0.141,0.118c-0.04,0.279-0.107,0.478-0.202,0.6
				c-0.257-0.001-0.316-0.154-0.47-0.369c-0.096-0.136-0.141-0.018-0.141-0.025l-0.07,0.056c-0.039,0.036-0.082,0.075-0.131,0.12
				c-0.049,0.044-0.1,0.059-0.152,0.045c0.004,0.049-0.021,0.128-0.07,0.233c-0.049,0.104-0.074,0.179-0.072,0.221
				c0.006,0.074,0.064,0.126,0.181,0.163c-0.022,0.165-0.028,0.339-0.019,0.521c0.008,0.098,0.029,0.322,0.071,0.675
				c0.046,0.277,0.065,0.516,0.058,0.714c0.093,0.004,0.179,0.002,0.261-0.003c0.356-0.021,0.59-0.162,0.697-0.423
				c0.035-0.077,0.077-0.353,0.122-0.824C424.305,89.277,424.415,89.028,424.589,88.887z"/>
		</g>
		<g>
			<path d="M375.167,72.889V72.9c-0.045,0.428-0.061,0.724-0.044,0.885c-0.065,0.027-0.153,0.031-0.257,0.014
				c-0.137-0.022-0.215-0.033-0.236-0.032c-0.061,0.003-0.107,0.024-0.143,0.062c-0.086-0.054-0.143-0.076-0.172-0.068
				c-0.08,0.049-0.117,0.117-0.113,0.207c0.003,0.038,0.017,0.102,0.045,0.193c0.025,0.094,0.041,0.159,0.043,0.204
				c0.002,0.061-0.009,0.153-0.037,0.282c-0.025,0.128-0.037,0.232-0.034,0.315c0.006,0.096,0.025,0.249,0.063,0.456
				c0.036,0.206,0.057,0.362,0.062,0.466c-0.042,0.203-0.058,0.409-0.048,0.618c0.014,0.253,0.084,0.592,0.209,1.019
				c0.023,0.007,0.045,0.01,0.068,0.007c0.051-0.002,0.113-0.039,0.185-0.11c0.071-0.068,0.132-0.104,0.185-0.107
				c0.037-0.003,0.078,0.005,0.123,0.025c0.136,0.434,0.205,0.714,0.211,0.84c0.003,0.061,0.002,0.124-0.001,0.189
				c-0.2,0.049-0.341-0.02-0.425-0.201c0.012-0.053-0.018-0.108-0.086-0.165l-0.224,0.236c0.218,0.033,0.304,0.2,0.261,0.5
				c-0.021,0.062-0.066,0.095-0.142,0.098c-0.128-0.002-0.187-0.002-0.179-0.002l-0.184-0.327l-0.074,0.093
				c-0.061-0.153-0.131-0.227-0.213-0.222c-0.045,0.003-0.123,0.039-0.234,0.11c-0.113,0.074-0.206,0.111-0.279,0.114
				c-0.061,0.006-0.119-0.011-0.182-0.044c-0.005-0.09-0.015-0.182-0.031-0.279c-0.016-0.096-0.066-0.157-0.148-0.183
				c-0.005-0.233,0.003-0.839,0.02-1.825c0.008-0.746,0-1.351-0.024-1.812c-0.01-0.193-0.022-0.383-0.04-0.567
				c-0.039-0.058-0.078-0.086-0.115-0.083c-0.03,0.001-0.076,0.032-0.135,0.096c-0.061,0.062-0.113,0.091-0.158,0.086
				c-0.004-0.074-0.038-0.194-0.102-0.358c-0.064-0.164-0.098-0.282-0.104-0.357c-0.006-0.127,0.041-0.237,0.141-0.331l0.262,0.062
				c0.104-0.146,0.147-0.393,0.13-0.743c-0.003-0.066-0.013-0.175-0.026-0.318c-0.017-0.145-0.025-0.249-0.029-0.316
				c-0.027-0.573,0.148-0.869,0.527-0.889c0.141-0.008,0.312,0.018,0.518,0.075l0.25,0.065c0.02,0.096,0.032,0.194,0.037,0.3
				c0.006,0.143,0.002,0.349-0.02,0.622c-0.02,0.274-0.025,0.474-0.02,0.599c0.01,0.202,0.043,0.384,0.105,0.545
				c0.059-0.004,0.152-0.037,0.281-0.098c0.127-0.063,0.219-0.096,0.279-0.099C375.017,72.739,375.102,72.786,375.167,72.889z
				 M374.39,73.688l-0.013-0.256l-0.081-0.075L374.39,73.688z"/>
			<path d="M378.235,72.085l0.012-0.001c-0.027,0.203-0.058,0.406-0.092,0.609c-0.04,0.232-0.106,0.415-0.197,0.547
				c-0.015-0.007-0.107-0.049-0.273-0.132c-0.116-0.061-0.219-0.085-0.307-0.074c-0.068,0.438-0.104,1.031-0.111,1.785
				c-0.004,0.962-0.013,1.544-0.023,1.745c-0.113-0.008-0.196,0.027-0.252,0.109c-0.057,0.081-0.107,0.162-0.156,0.248
				c-0.02,0.046-0.028,0.087-0.027,0.124c0.003,0.06,0.055,0.118,0.154,0.171c0.1,0.055,0.15,0.115,0.154,0.183
				c-0.043,0.159-0.139,0.242-0.279,0.249c-0.065,0.003-0.183-0.018-0.35-0.06c-0.164-0.045-0.281-0.065-0.35-0.062l-0.161-3.191
				c0.063-0.084,0.091-0.143,0.082-0.171l-0.093-0.062c0.008-0.135,0.016-0.806,0.021-2.006c0.005-0.813,0.035-1.471,0.092-1.974
				c-0.006,0.001,0.223-0.015,0.69-0.046c0.29-0.015,0.479,0.066,0.562,0.241c0.001,0.163-0.016,0.438-0.049,0.829
				c-0.033,0.359-0.047,0.637-0.037,0.83c0.014,0.238,0.05,0.451,0.112,0.643C377.608,72.282,377.901,72.103,378.235,72.085z
				 M379.345,72.768c0.021,0.297,0.039,0.587,0.055,0.871c0.062,1.234,0.043,2.556-0.058,3.963
				c-0.106,0.096-0.272,0.115-0.496,0.062c-0.222-0.053-0.383-0.03-0.482,0.062c-0.128-0.164-0.202-0.46-0.224-0.894
				c-0.032-0.625-0.048-0.948-0.049-0.971c-0.027-1.563,0.127-2.829,0.458-3.793C378.935,72.169,379.198,72.401,379.345,72.768z"/>
			<path d="M383.261,74.389c-0.049,0.1-0.068,0.204-0.062,0.314c0.004,0.113,0.01,0.221,0.017,0.326
				c-0.013,0.089-0.036,0.179-0.076,0.273c-0.067-0.021-0.124-0.029-0.17-0.027c-0.052,0.003-0.104,0.021-0.157,0.058
				c-0.055,0.038-0.098,0.057-0.127,0.057c-0.046,0.004-0.105-0.014-0.182-0.046l-0.52-0.756c0.02,0.222,0.07,0.417,0.152,0.585
				c0.042,0.086,0.084,0.174,0.125,0.26c-0.303,0.056-0.475,0.064-0.514,0.027l-0.072,0.094l-0.18-0.236
				c-0.141,0.171-0.174,0.421-0.097,0.754c0.093,0.36,0.098,0.62,0.017,0.782c0.113,0.166,0.246,0.244,0.403,0.236
				c0.067-0.004,0.124-0.027,0.176-0.075c0.073-0.185,0.146-0.366,0.219-0.55c0.108-0.221,0.229-0.335,0.362-0.342
				c0.104-0.006,0.227,0.049,0.367,0.162c0.166,0.059,0.253,0.136,0.258,0.231c0.002,0.061-0.035,0.159-0.114,0.29
				c-0.079,0.137-0.117,0.24-0.114,0.315c0.003,0.028,0.007,0.054,0.016,0.078c-0.107,0.078-0.203,0.199-0.289,0.359
				c-0.086,0.162-0.197,0.272-0.336,0.332c-0.121,0.116-0.233,0.179-0.338,0.184c-0.082,0.004-0.204-0.06-0.367-0.188
				c-0.162-0.131-0.314-0.189-0.457-0.185c-0.058-0.13-0.203-0.277-0.435-0.436c-0.231-0.159-0.376-0.333-0.43-0.516
				c0.001,0.015-0.002-0.045-0.008-0.178c-0.005-0.075-0.036-0.123-0.097-0.142l0.084-0.082c-0.113-0.003-0.17-0.065-0.176-0.193
				c-0.002-0.014-0.003-0.045-0.006-0.09c0.006-0.037,0.008-0.066,0.007-0.09c-0.004-0.089-0.034-0.149-0.087-0.186l-0.02-0.389
				c-0.011-0.202-0.051-0.346-0.125-0.432c0.074-0.472,0.148-0.947,0.221-1.42c0.121-0.55,0.303-0.833,0.539-0.844
				c0.039-0.001,0.074,0.004,0.112,0.015c0.216-0.21,0.473-0.324,0.778-0.341c0.334-0.016,0.705,0.087,1.111,0.304
				C382.988,73.205,383.185,73.773,383.261,74.389z M381.722,73.155l-0.074,0.095c-0.051,0.009-0.113-0.017-0.182-0.08l0.012,0.256
				c-0.113,0.125-0.158,0.318-0.139,0.579c0.022,0.446,0.033,0.661,0.033,0.646l0.334-0.004c0.16-0.091,0.234-0.239,0.224-0.448
				c-0.005-0.104-0.04-0.275-0.109-0.515C381.753,73.445,381.72,73.271,381.722,73.155z"/>
		</g>
		<g>
			<polygon fill-rule="evenodd" clip-rule="evenodd" points="385.882,85.646 386.215,85.838 387.343,82.878 386.966,82.753 
				385.839,85.714 386.167,85.923 385.882,85.646 385.882,85.646 			"/>
			<polygon fill-rule="evenodd" clip-rule="evenodd" points="386.376,85.237 386.239,85.291 385.882,85.646 386.167,85.923 
				386.53,85.547 386.388,85.619 386.376,85.237 386.376,85.237 			"/>
			<polygon fill-rule="evenodd" clip-rule="evenodd" points="389.104,85.215 389.266,85.088 386.376,85.237 386.388,85.619 
				389.278,85.472 389.462,85.334 389.104,85.215 389.104,85.215 389.104,85.215 			"/>
			<polygon fill-rule="evenodd" clip-rule="evenodd" points="390.41,82.493 390.213,82.248 389.104,85.215 389.462,85.334 
				390.589,82.373 390.394,82.128 390.41,82.493 390.41,82.493 390.41,82.493 			"/>
			<polygon fill-rule="evenodd" clip-rule="evenodd" points="387.657,82.587 387.514,82.658 390.41,82.493 390.394,82.128 
				387.509,82.258 387.366,82.33 387.657,82.587 387.657,82.587 387.657,82.587 			"/>
			<polygon fill-rule="evenodd" clip-rule="evenodd" points="387.343,82.878 387.3,82.942 387.657,82.587 387.366,82.33 
				387.007,82.688 386.966,82.753 387.343,82.878 387.343,82.878 387.343,82.878 			"/>
			<polygon fill-rule="evenodd" clip-rule="evenodd" points="389.742,85.566 389.999,85.451 389.38,85.107 389.183,85.459 
				389.82,85.81 390.101,85.686 389.724,85.561 389.724,85.561 389.742,85.566 			"/>
			<polygon fill-rule="evenodd" clip-rule="evenodd" points="390.952,82.833 390.851,82.6 389.724,85.561 390.101,85.686 
				391.226,82.725 391.124,82.493 390.952,82.833 390.952,82.833 			"/>
			<polygon fill-rule="evenodd" clip-rule="evenodd" points="390.589,82.373 390.31,82.498 390.952,82.833 391.124,82.493 
				390.506,82.147 390.213,82.248 390.589,82.373 390.589,82.373 			"/>
			<polygon points="387.163,82.82 387.145,82.813 387.503,82.455 390.185,82.325 390.213,82.248 390.41,82.312 390.589,82.373 
				390.577,82.405 391.048,82.665 391.226,82.725 391.153,82.917 392.466,86.037 391.355,89.004 389.921,85.627 389.921,85.627 
				389.735,85.703 389.724,85.561 389.737,85.524 389.285,85.275 389.183,85.459 389.126,85.282 386.376,85.415 386.018,85.773 			
				"/>
			<polygon fill-rule="evenodd" clip-rule="evenodd" points="391.177,88.943 391.54,88.926 390.105,85.549 389.735,85.703 
				391.171,89.082 391.535,89.063 391.159,88.938 391.159,88.938 391.177,88.943 			"/>
			<polygon fill-rule="evenodd" clip-rule="evenodd" points="392.299,86.122 392.286,85.978 391.159,88.938 391.535,89.063 
				392.662,86.104 392.65,85.962 392.299,86.122 392.299,86.122 			"/>
			<polygon fill-rule="evenodd" clip-rule="evenodd" points="391.226,82.725 390.862,82.743 392.299,86.122 392.65,85.962 
				391.216,82.582 390.851,82.6 391.226,82.725 391.226,82.725 			"/>
			<polygon fill-rule="evenodd" clip-rule="evenodd" fill="#FFFFFF" points="391.132,83.488 391.292,83.84 391.351,84.195 
				391.334,84.547 391.231,84.912 391.054,85.269 390.809,85.585 390.493,85.875 390.111,86.127 389.903,86.217 389.694,86.305 
				389.462,86.347 389.247,86.395 389.04,86.422 388.812,86.446 388.604,86.418 388.39,86.406 388.204,86.364 388.009,86.297 
				387.817,86.215 387.651,86.119 387.509,86.013 387.347,85.898 387.217,85.756 387.109,85.6 386.946,85.25 386.888,84.892 
				386.888,84.535 387.009,84.177 387.163,83.831 387.413,83.498 387.729,83.206 388.128,82.963 388.319,82.867 388.546,82.783 
				388.759,82.736 388.974,82.689 389.2,82.664 389.408,82.636 389.618,82.664 389.832,82.678 390.028,82.74 390.225,82.808 
				390.403,82.867 390.587,82.97 390.737,83.059 390.892,83.188 391,83.344 391.132,83.488 391.132,83.488 391.132,83.488 			"/>
			<polygon fill-rule="evenodd" clip-rule="evenodd" points="391.272,84.072 391.435,84.425 391.487,84.799 391.472,85.15 
				391.374,85.496 391.214,85.859 390.945,86.186 390.653,86.467 390.254,86.71 390.04,86.816 389.832,86.905 389.616,86.952 
				389.386,86.997 389.177,87.025 388.974,87.038 388.759,87.025 388.532,86.99 388.348,86.947 388.15,86.883 387.979,86.805 
				387.794,86.703 387.646,86.613 387.507,86.488 387.371,86.363 387.251,86.186 387.085,85.852 387.026,85.493 387.048,85.123 
				387.145,84.778 387.306,84.415 387.551,84.099 387.866,83.807 388.265,83.564 388.479,83.457 388.683,83.384 388.902,83.319 
				389.136,83.279 389.337,83.266 389.546,83.237 389.755,83.266 389.968,83.279 390.172,83.326 390.368,83.391 390.541,83.469 
				390.731,83.555 390.874,83.659 391.036,83.771 391.142,83.928 391.269,84.09 391.269,84.09 391.272,84.072 			"/>
			<polygon fill-rule="evenodd" clip-rule="evenodd" fill="#FFFFFF" points="391.374,84.482 391.543,84.816 391.596,85.191 
				391.576,85.545 391.482,85.888 391.304,86.246 391.052,86.578 390.761,86.858 390.362,87.102 390.165,87.216 389.938,87.3 
				389.724,87.347 389.491,87.389 389.283,87.42 389.081,87.431 388.864,87.42 388.639,87.383 388.455,87.34 388.258,87.275 
				388.086,87.197 387.901,87.097 387.753,87.006 387.597,86.876 387.483,86.738 387.358,86.578 387.192,86.246 387.132,85.885 
				387.149,85.535 387.251,85.172 387.412,84.81 387.662,84.476 387.989,84.208 388.372,83.956 388.587,83.851 388.795,83.76 
				389.011,83.713 389.242,83.671 389.45,83.643 389.653,83.63 389.886,83.647 390.077,83.671 390.279,83.721 390.476,83.786 
				390.665,83.867 390.833,83.964 390.981,84.055 391.142,84.166 391.249,84.322 391.374,84.482 391.374,84.482 			"/>
			<polygon fill-rule="evenodd" clip-rule="evenodd" points="391.518,85.065 391.679,85.418 391.739,85.776 391.739,86.131 
				391.618,86.489 391.464,86.835 391.195,87.162 390.898,87.463 390.499,87.705 390.308,87.799 390.081,87.883 389.866,87.932 
				389.653,87.977 389.425,88.002 389.218,88.03 389.009,88.002 388.795,87.99 388.592,87.943 388.396,87.876 388.222,87.799 
				388.038,87.698 387.895,87.59 387.753,87.484 387.621,87.34 387.495,87.18 387.353,86.834 387.274,86.471 387.294,86.119 
				387.395,85.756 387.567,85.415 387.817,85.083 388.134,84.791 388.515,84.542 388.724,84.451 388.933,84.362 389.165,84.321 
				389.38,84.272 389.588,84.243 389.809,84.238 390.021,84.25 390.22,84.255 390.423,84.303 390.618,84.369 390.809,84.451 
				390.976,84.547 391.138,84.66 391.28,84.77 391.411,84.912 391.511,85.084 391.511,85.084 391.518,85.065 			"/>
			<polygon fill-rule="evenodd" clip-rule="evenodd" fill="#FFFFFF" points="391.727,85.451 391.894,85.788 391.952,86.145 
				391.946,86.52 391.851,86.865 391.673,87.223 391.404,87.55 391.112,87.83 390.731,88.08 390.517,88.188 390.29,88.271 
				390.075,88.318 389.86,88.364 389.634,88.39 389.433,88.402 389.218,88.39 389.009,88.359 388.807,88.312 388.61,88.246 
				388.437,88.168 388.265,88.092 388.103,87.977 387.966,87.853 387.836,87.709 387.728,87.556 387.56,87.222 387.489,86.841 
				387.507,86.488 387.621,86.148 387.782,85.787 388.031,85.451 388.343,85.179 388.724,84.93 388.938,84.822 389.146,84.731 
				389.373,84.709 389.593,84.643 389.802,84.613 390.021,84.607 390.237,84.62 390.427,84.643 390.63,84.691 390.845,84.763 
				391.017,84.839 391.19,84.917 391.351,85.03 391.487,85.156 391.62,85.3 391.727,85.451 391.727,85.451 			"/>
			<polygon fill-rule="evenodd" clip-rule="evenodd" points="391.888,86.044 392.03,86.389 392.108,86.752 392.089,87.104 
				391.987,87.467 391.815,87.807 391.564,88.141 391.249,88.434 390.867,88.683 390.659,88.771 390.432,88.854 390.22,88.901 
				390.005,88.95 389.796,88.979 389.569,89.002 389.36,88.975 389.146,88.961 388.962,88.919 388.747,88.848 388.573,88.77 
				388.407,88.676 388.245,88.562 388.103,88.454 387.972,88.311 387.864,88.157 387.704,87.806 387.627,87.442 387.646,87.09 
				387.765,86.731 387.919,86.386 388.169,86.053 388.485,85.761 388.885,85.518 389.075,85.423 389.302,85.34 389.517,85.291 
				389.73,85.246 389.958,85.22 390.165,85.19 390.374,85.22 390.571,85.227 390.792,85.281 390.987,85.347 391.161,85.425 
				391.327,85.519 391.487,85.632 391.63,85.739 391.761,85.883 391.888,86.044 391.888,86.044 391.888,86.044 			"/>
			<polygon fill-rule="evenodd" clip-rule="evenodd" points="372.189,81.497 372.208,81.384 371.074,84.361 371.433,84.479 
				372.565,81.502 372.57,81.426 372.189,81.497 372.189,81.497 372.189,81.497 			"/>
			<polygon fill-rule="evenodd" clip-rule="evenodd" points="372.159,81.346 372.165,81.33 372.189,81.497 372.57,81.426 
				372.529,81.252 372.536,81.234 372.159,81.346 372.159,81.346 372.159,81.346 			"/>
			<polygon fill-rule="evenodd" clip-rule="evenodd" points="372.118,81.175 372.159,81.346 372.536,81.234 372.493,81.061 
				372.118,81.175 372.118,81.175 372.118,81.175 			"/>
			<polygon fill-rule="evenodd" clip-rule="evenodd" points="372.07,81.021 372.118,81.175 372.493,81.061 372.446,80.907 
				372.07,81.021 372.07,81.021 			"/>
			<polygon fill-rule="evenodd" clip-rule="evenodd" points="372.028,80.847 372.028,80.847 372.07,81.021 372.446,80.907 
				372.403,80.735 372.399,80.753 372.028,80.847 372.028,80.847 372.028,80.847 			"/>
			<polygon fill-rule="evenodd" clip-rule="evenodd" points="371.981,80.633 371.981,80.693 372.028,80.847 372.399,80.753 
				372.352,80.597 372.369,80.662 371.981,80.633 371.981,80.633 			"/>
			<polygon fill-rule="evenodd" clip-rule="evenodd" points="372.362,80.561 371.987,80.495 371.981,80.633 372.369,80.662 
				372.374,80.526 371.999,80.459 372.356,80.579 372.356,80.579 372.362,80.561 			"/>
			<polygon fill-rule="evenodd" clip-rule="evenodd" fill="#4C4849" points="372.688,89.229 372.651,89.037 372.254,89.104 
				372.282,89.312 372.688,89.229 372.688,89.229 372.688,89.229 			"/>
			<polygon fill-rule="evenodd" clip-rule="evenodd" points="373.517,86.746 373.528,86.65 372.401,89.611 372.76,89.729 
				373.886,86.769 373.88,86.667 373.517,86.746 373.517,86.746 373.517,86.746 			"/>
			<polygon fill-rule="evenodd" clip-rule="evenodd" points="373.487,86.536 373.517,86.746 373.88,86.667 373.851,86.46 
				373.47,86.531 373.47,86.531 373.487,86.536 			"/>
			<polygon fill-rule="evenodd" clip-rule="evenodd" points="373.435,86.342 373.47,86.531 373.851,86.46 373.798,86.264 
				373.435,86.342 373.435,86.342 373.435,86.342 			"/>
			<polygon fill-rule="evenodd" clip-rule="evenodd" points="373.387,86.127 373.398,86.148 373.435,86.342 373.798,86.264 
				373.768,86.053 373.779,86.079 373.387,86.127 373.387,86.127 373.387,86.127 			"/>
			<polygon fill-rule="evenodd" clip-rule="evenodd" points="373.744,85.947 373.362,85.898 373.387,86.127 373.779,86.079 
				373.749,85.872 373.368,85.823 373.744,85.947 373.744,85.947 			"/>
			<g>
				<polygon fill="#4C4849" points="371.075,83.771 370.896,83.825 371.075,83.771 				"/>
				<polygon fill="#4C4849" points="371.265,84.391 371.271,84.375 371.364,84.382 371.433,84.479 371.266,84.426 				"/>
				<polygon points="370.853,83.653 371.046,83.615 371.052,83.479 372.185,80.504 372.179,80.52 372.179,80.64 372.208,80.789 
					372.268,80.968 372.315,81.123 372.356,81.294 372.386,81.443 372.386,81.443 372.565,81.502 371.433,84.479 371.364,84.382 
					371.271,84.375 371.265,84.391 371.266,84.426 371.433,84.479 371.267,84.471 371.271,84.606 371.156,84.464 371.063,84.457 
					371.038,84.29 371.106,84.275 371.181,84.084 370.991,84.137 370.937,83.998 370.896,83.825 371.075,83.771 371.075,83.771 
					370.896,83.825 370.901,83.807 				"/>
			</g>
			<g>
				<polygon fill="none" points="380.077,84.467 380.077,84.467 380.239,84.103 				"/>
				<polygon points="371.259,84.226 379.554,83.953 379.767,83.964 379.804,83.979 380.006,84.026 380.024,84.033 380.239,84.103 
					380.448,84.193 380.465,84.198 380.662,84.323 380.698,84.334 380.853,84.467 380.9,84.503 381.014,84.639 381.024,84.663 
					381.103,84.788 381.108,84.83 380.743,84.939 380.685,84.849 380.681,84.866 380.585,84.734 380.586,84.734 380.458,84.633 
					380.489,84.663 380.286,84.557 380.287,84.554 380.077,84.467 380.077,84.467 379.898,84.405 379.696,84.36 379.733,84.371 
					379.541,84.347 379.541,84.329 371.271,84.606 				"/>
				<polygon points="380.734,84.944 380.743,84.939 380.763,84.973 				"/>
			</g>
			<polygon fill-rule="evenodd" clip-rule="evenodd" points="385.165,91.902 385.165,91.785 384.031,94.763 384.407,94.888 
				385.54,91.908 385.54,91.792 385.165,91.902 385.165,91.902 385.165,91.902 			"/>
			<polygon fill-rule="evenodd" clip-rule="evenodd" points="381.892,82.011 381.866,81.965 385.165,91.902 385.54,91.792 
				382.241,81.851 382.234,81.812 381.892,82.011 381.892,82.011 381.892,82.011 			"/>
			<polygon fill-rule="evenodd" clip-rule="evenodd" points="381.823,81.913 381.813,81.889 381.892,82.011 382.234,81.812 
				382.159,81.686 382.141,81.677 381.806,81.906 381.806,81.906 381.823,81.913 			"/>
			<polygon fill-rule="evenodd" clip-rule="evenodd" points="381.747,81.786 381.717,81.757 381.806,81.906 382.141,81.677 
				382.015,81.52 381.985,81.487 381.747,81.786 381.747,81.786 381.747,81.786 			"/>
			<polygon fill-rule="evenodd" clip-rule="evenodd" points="381.615,81.703 381.587,81.673 381.747,81.786 381.985,81.487 
				381.823,81.376 381.795,81.345 381.615,81.703 381.615,81.703 			"/>
			<polygon fill-rule="evenodd" clip-rule="evenodd" points="381.437,81.583 381.419,81.578 381.615,81.703 381.795,81.345 
				381.593,81.238 381.574,81.232 381.437,81.583 381.437,81.583 			"/>
			<polygon fill-rule="evenodd" clip-rule="evenodd" points="381.247,81.501 381.204,81.505 381.437,81.583 381.574,81.232 
				381.366,81.143 381.349,81.138 381.224,81.512 381.224,81.512 381.247,81.501 			"/>
			<polygon fill-rule="evenodd" clip-rule="evenodd" points="381.032,81.43 381.009,81.44 381.224,81.512 381.349,81.138 
				381.133,81.066 381.133,81.066 381.024,81.445 381.024,81.445 381.032,81.43 			"/>
			<polygon fill-rule="evenodd" clip-rule="evenodd" points="380.865,81.392 380.829,81.381 381.024,81.445 381.133,81.066 
				380.913,81.013 380.896,81.006 380.865,81.392 380.865,81.392 380.865,81.392 			"/>
			<polygon fill-rule="evenodd" clip-rule="evenodd" points="380.674,81.369 380.668,81.385 380.865,81.392 380.896,81.006 
				380.687,80.975 380.662,80.988 380.674,81.369 380.674,81.369 			"/>
			<polygon fill-rule="evenodd" clip-rule="evenodd" points="372.583,81.509 372.38,81.638 380.674,81.369 380.662,80.988 
				372.386,81.266 372.208,81.384 372.565,81.502 372.565,81.502 372.583,81.509 			"/>
			<polygon fill="#4C4849" points="374.666,90.564 374.638,90.548 374.655,90.54 			"/>
			<g>
				<polygon fill="#4C4849" points="379.146,91.903 379.112,92.306 379.146,91.903 				"/>
				<g>
					<polygon fill="none" points="379.13,92.096 379.112,92.306 379.13,92.096 					"/>
					<g>
						<polygon fill="none" points="372.408,88.872 372.421,88.842 372.428,88.88 						"/>
						<path d="M372.282,89.312l0.036,0.19l0.072,0.204l0.089,0.148l0.507,0.269l0.506,0.267l0.488,0.264l0.495,0.243l0.018,0.007
							l0.501,0.225l0.5,0.229l0.542,0.219l0.549,0.203l0.018,0.006l0.584,0.154l0.583,0.155l0.019,0.007l0.645,0.096l0.66,0.103
							l0.02,0.005l0.719,0.04l0.025-0.011l0.768,0.02l0.822-0.026l0.871-0.046l0.179-0.119l1.126-2.96l-0.19-0.263l0.012,0.383
							l-0.06-0.075l0.043-0.111l-0.125,0.009l-0.054-0.067l-0.028,0.074l-0.646,0.037h-0.834l-0.77-0.016l-0.702-0.037l-0.685-0.09
							l-0.638-0.111l-0.585-0.156l-0.584-0.155l-0.547-0.203l-0.531-0.198l-0.5-0.226l-0.494-0.243l-0.514-0.251l-0.488-0.263
							l-0.488-0.262l-0.338-0.18l0.01-0.03l-0.178-0.06l0,0l-0.047-0.213l-0.037-0.191l-0.014-0.065l0.134-0.292l-0.188-0.062
							l-0.01-0.004l0,0l-0.178-0.058l-1.127,2.96l-0.012,0.096l0.029,0.207L372.282,89.312z M372.421,88.842l0.007,0.038
							l-0.02-0.008L372.421,88.842z"/>
					</g>
				</g>
			</g>
			<polygon fill-rule="evenodd" clip-rule="evenodd" points="382.573,89.37 383.443,89.323 383.432,88.94 382.562,88.989 
				382.573,89.37 382.573,89.37 382.573,89.37 			"/>
			<polygon fill-rule="evenodd" clip-rule="evenodd" points="381.752,89.395 382.573,89.37 382.562,88.989 381.739,89.014 
				381.752,89.395 381.752,89.395 381.752,89.395 			"/>
			<polygon fill-rule="evenodd" clip-rule="evenodd" points="380.966,89.37 380.983,89.374 381.752,89.395 381.739,89.014 
				380.972,88.994 380.995,88.982 380.958,89.386 380.958,89.386 380.966,89.37 			"/>
			<polygon fill-rule="evenodd" clip-rule="evenodd" points="380.226,89.323 380.244,89.326 380.958,89.386 380.995,88.982 
				380.274,88.939 380.292,88.946 380.226,89.323 380.226,89.323 380.226,89.323 			"/>
			<polygon fill-rule="evenodd" clip-rule="evenodd" points="379.559,89.238 380.226,89.323 380.292,88.946 379.63,88.844 
				379.559,89.238 379.559,89.238 			"/>
			<polygon fill-rule="evenodd" clip-rule="evenodd" points="378.902,89.118 378.921,89.126 379.559,89.238 379.63,88.844 
				378.969,88.742 378.987,88.748 378.902,89.118 378.902,89.118 378.902,89.118 			"/>
			<polygon fill-rule="evenodd" clip-rule="evenodd" points="378.319,88.962 378.902,89.118 378.987,88.748 378.403,88.594 
				378.312,88.981 378.312,88.981 378.319,88.962 			"/>
			<polygon fill-rule="evenodd" clip-rule="evenodd" points="377.711,88.82 377.729,88.826 378.312,88.981 378.403,88.594 
				377.819,88.438 377.837,88.445 377.711,88.82 377.711,88.82 			"/>
			<polygon fill-rule="evenodd" clip-rule="evenodd" points="377.163,88.616 377.163,88.616 377.711,88.82 377.837,88.445 
				377.288,88.242 377.308,88.247 377.147,88.611 377.147,88.611 377.163,88.616 			"/>
			<polygon fill-rule="evenodd" clip-rule="evenodd" points="376.621,88.396 377.147,88.611 377.308,88.247 376.782,88.032 
				376.621,88.396 376.621,88.396 			"/>
			<polygon fill-rule="evenodd" clip-rule="evenodd" points="376.12,88.169 376.621,88.396 376.782,88.032 376.276,87.823 
				376.12,88.169 376.12,88.169 			"/>
			<polygon fill-rule="evenodd" clip-rule="evenodd" points="375.608,87.919 375.62,87.944 376.12,88.169 376.276,87.823 
				375.765,87.576 375.781,87.581 375.603,87.938 375.603,87.938 375.608,87.919 			"/>
			<polygon fill-rule="evenodd" clip-rule="evenodd" points="375.114,87.676 375.603,87.938 375.781,87.581 375.286,87.336 
				375.108,87.692 375.108,87.692 375.114,87.676 			"/>
			<polygon fill-rule="evenodd" clip-rule="evenodd" points="374.625,87.413 375.108,87.692 375.286,87.336 374.799,87.075 
				374.606,87.409 374.606,87.409 374.625,87.413 			"/>
			<polygon fill-rule="evenodd" clip-rule="evenodd" points="374.119,87.145 374.606,87.409 374.799,87.075 374.31,86.81 
				374.119,87.145 374.119,87.145 			"/>
			<polygon fill-rule="evenodd" clip-rule="evenodd" points="373.886,86.769 373.612,86.876 374.119,87.145 374.31,86.81 
				373.804,86.543 373.528,86.65 373.886,86.769 373.886,86.769 373.886,86.769 			"/>
			<polygon fill-rule="evenodd" clip-rule="evenodd" points="425.536,81.404 424.402,84.383 428.103,85.617 428.961,83.639 
				428.984,83.449 428.991,83.251 428.961,83.042 428.89,82.84 428.771,82.662 428.675,82.471 428.521,82.28 428.36,82.108 
				428.192,81.953 428.008,81.792 427.817,81.647 427.632,81.547 427.453,81.428 427.245,81.338 427.06,81.236 426.882,81.178 
				426.722,81.124 426.528,81.1 426.357,81.084 426.19,81.106 426.022,81.131 425.845,81.188 425.688,81.296 425.536,81.404 
				425.536,81.404 425.536,81.404 			"/>
			<polygon fill-rule="evenodd" clip-rule="evenodd" points="427.936,85.521 428.168,85.421 424.468,84.187 424.343,84.562 
				428.044,85.795 428.292,85.699 427.936,85.521 427.936,85.521 			"/>
			<g>
				<polygon fill="none" points="428.649,86.379 428.673,86.581 428.649,86.379 				"/>
				<polygon fill="none" points="430.559,84.386 430.694,84.516 430.546,84.411 				"/>
				<g>
					<polygon fill="none" points="430.694,84.516 430.546,84.411 430.559,84.386 					"/>
					<g>
						<polygon fill="none" points="430.694,84.516 430.546,84.411 430.559,84.386 						"/>
						<polygon points="370.853,83.475 370.872,83.419 371.999,80.459 372.356,80.579 371.263,83.504 371.241,83.622 371.236,83.58 
							370.853,83.653 370.849,83.611 						"/>
						<g>
							<polygon fill="none" points="430.694,84.516 430.546,84.411 430.559,84.386 							"/>
							<polygon fill="#4C4849" points="388.997,90.482 388.931,90.521 388.925,90.516 							"/>
							<g>
								<polygon fill="none" points="389.068,90.654 389.21,90.79 389.068,90.654 								"/>
								<polygon fill="none" points="430.694,84.516 430.546,84.411 430.559,84.386 								"/>
								<polygon fill="none" points="384.211,94.821 384.224,94.821 384.224,94.827 384.031,94.763 384.192,94.764 								"/>
								<path d="M370.991,84.137l0.041,0.172l0.006-0.019l0.289-0.06l-0.073,0.191l8.294-0.271l0.195,0.006l0.216,0.073l0.214,0.068
									l0.215,0.074l0.196,0.124l0.161,0.113l0.113,0.139l0.07,0.137l-0.194,0.06l3.297,9.938l0.194,0.002l0.004,0.122h0.297
									l0.28-0.006l0.257,0.006l0.232-0.04l0.236-0.062l0.24-0.115l0.219-0.186l0.263-0.251l0.006-0.019l0.149-0.207l0.172-0.221
									l0.198-0.231l0.138-0.233l0.173-0.28l0.179-0.238l0.147-0.266l0.19-0.276l0.155-0.227l0.222-0.243l0.18-0.238l0.208-0.21
									l0.183-0.195l0.199-0.174l0.189-0.153l0.221-0.124l0.047-0.025l-0.142-0.136l0,0l0.142,0.136l0.222-0.243l0.202-0.193
									l0.179-0.176l0.192-0.156l0.185-0.136l0.194-0.114l0.174-0.1l0.19-0.096l0.214-0.049l0.209-0.088l0.215-0.048l0.25-0.036
									l0.273-0.049l0.305-0.018l0.328-0.028l0.32-0.013l0.02,0.008l35.791-2.675l0.21-0.027l0.19-0.038l0.173-0.041l0.179-0.06
									l0.166-0.083l0.175-0.103l0.144-0.13l0.166-0.144l0.035-0.047l0.625-1.459l-0.324-0.21l0.143,0.142L430.53,84.4
									l-0.158-0.111l-0.155,0.365l-0.106,0.062l-0.137,0.055l-0.16,0.064l-0.15,0.03l-0.189,0.036l-0.191,0.035l-35.811,2.668
									l-0.229,0.022l-0.219,0.007l-0.219,0.006l-0.234,0.038h-0.238l-0.207,0.032l-0.228,0.023l-0.208,0.031l-0.232,0.041
									l-0.209,0.029l-0.213,0.047l-0.239,0.061l-0.216,0.047l-0.227,0.084l-0.227,0.084l-0.214,0.106l-0.423,0.256l-0.43,0.394
									l-0.451,0.464l-0.438,0.53l-0.422,0.554l-0.363,0.495l-0.357,0.477l-0.297,0.358l-0.175,0.04l-0.149,0.03l-0.185,0.019
									h-0.179h-0.18l-0.154-0.013l-0.195-0.007l-0.174-0.019l-3.286-9.914l-0.071-0.143l-0.113-0.137l-0.16-0.113l-0.216-0.131
									l-0.208-0.09l-0.215-0.073l-0.203-0.047l-0.196-0.006l-8.288,0.254l-0.996,2.619l-0.006-0.035L370.991,84.137z
									 M430.546,84.411l0.013-0.025l0.136,0.13L430.546,84.411z"/>
							</g>
						</g>
					</g>
				</g>
			</g>
			<polygon fill-rule="evenodd" clip-rule="evenodd" points="429.294,85.142 429.508,85.092 429.698,85.058 429.872,85.014 
				430.052,84.955 430.218,84.871 430.391,84.771 430.526,84.658 430.694,84.516 430.411,84.24 430.283,84.378 430.153,84.475 
				430.026,84.551 429.89,84.604 429.759,84.64 429.604,84.688 429.438,84.711 429.253,84.729 429.294,85.142 429.294,85.142 			"/>
			<polygon fill-rule="evenodd" clip-rule="evenodd" points="393.507,87.797 429.294,85.142 429.253,84.729 393.46,87.402 
				393.507,87.797 393.507,87.797 			"/>
			<polygon fill-rule="evenodd" clip-rule="evenodd" points="389.997,88.432 390.206,88.343 390.409,88.271 390.653,88.193 
				390.856,88.122 391.076,88.058 391.285,88.028 391.494,87.997 391.726,87.957 391.917,87.919 392.137,87.915 392.364,87.891 
				392.591,87.868 392.815,87.844 393.019,87.832 393.263,87.813 393.507,87.797 393.46,87.402 393.232,87.426 393.009,87.449 
				392.77,87.449 392.542,87.474 392.321,87.48 392.108,87.527 391.886,87.532 391.643,87.55 391.427,87.599 391.214,87.646 
				390.981,87.688 390.742,87.747 390.54,87.818 390.296,87.895 390.052,87.973 389.837,88.079 389.997,88.432 389.997,88.432 
				389.997,88.432 			"/>
			<polygon fill-rule="evenodd" clip-rule="evenodd" points="386.791,91.968 386.868,91.915 387.03,91.729 387.173,91.54 
				387.345,91.32 387.524,91.081 387.728,90.832 387.913,90.574 388.12,90.307 388.329,90.04 388.544,89.754 388.763,89.509 
				388.979,89.282 389.198,89.037 389.384,88.841 389.616,88.683 389.808,88.527 389.997,88.432 389.837,88.079 389.593,88.218 
				389.384,88.364 389.141,88.562 388.909,88.783 388.693,89.009 388.478,89.235 388.241,89.533 388.031,89.801 387.823,90.068 
				387.614,90.337 387.431,90.594 387.226,90.843 387.048,91.081 386.874,91.302 386.733,91.493 386.601,91.647 386.673,91.609 
				386.791,91.968 386.791,91.968 386.791,91.968 			"/>
			<polygon fill="none" points="425.458,81.576 425.536,81.404 425.678,81.273 425.893,81.166 426.144,81.131 426.28,81.136 
				426.436,81.148 426.583,81.178 426.732,81.207 426.911,81.269 427.073,81.322 427.245,81.398 427.43,81.5 427.585,81.571 
				427.746,81.686 427.888,81.792 428.045,81.924 428.205,82.035 428.317,82.173 428.456,82.298 428.568,82.436 428.776,82.703 
				428.884,82.978 428.938,83.115 428.968,83.205 428.949,83.438 428.906,83.621 428.774,83.775 428.585,83.87 428.329,83.924 
				428.187,83.938 428.038,83.906 427.865,83.889 427.681,83.847 427.519,83.793 427.341,83.732 427.149,83.652 426.981,83.555 
				426.811,83.477 426.624,83.376 426.464,83.265 426.31,83.131 426.165,83.024 426.018,82.877 425.886,82.732 425.774,82.594 
				425.591,82.313 425.48,82.042 425.452,81.952 425.421,81.803 			"/>
			<polygon fill-rule="evenodd" clip-rule="evenodd" fill="#FFFFFF" points="379.936,81.202 380.674,81.189 380.734,81.189 
				374.389,79.074 374.067,79.264 379.929,81.22 379.929,81.22 379.936,81.202 			"/>
			<polygon fill-rule="evenodd" clip-rule="evenodd" fill="#FFFFFF" points="379.936,81.202 372.386,81.443 372.356,81.294 
				372.315,81.123 372.268,80.968 372.208,80.789 372.179,80.64 372.179,80.52 372.226,80.377 372.356,80.281 372.667,80.068 
				373.011,79.865 373.356,79.662 373.703,79.46 374.032,79.25 374.067,79.264 379.929,81.22 379.929,81.22 379.936,81.202 			"/>
			<polygon fill="#FFFFFF" points="375.346,85.787 380.489,85.497 382.501,86.308 383.211,88.41 383.427,89.137 382.573,89.189 
				381.739,89.189 380.97,89.174 380.268,89.137 379.583,89.047 378.945,88.936 378.36,88.779 377.776,88.624 377.229,88.421 
				376.698,88.223 376.198,87.997 375.704,87.754 375.19,87.503 374.702,87.24 374.214,86.979 373.708,86.709 373.661,86.496 
				373.624,86.305 373.577,86.091 373.546,85.881 			"/>
			<polygon fill-rule="evenodd" clip-rule="evenodd" fill="#FFFFFF" points="388.3,86.375 388.372,86.46 389.033,86.858 
				389.247,86.515 388.586,86.114 388.651,86.215 388.3,86.375 388.323,86.422 388.372,86.46 388.3,86.375 388.3,86.375 			"/>
			<polygon fill-rule="evenodd" clip-rule="evenodd" fill="#FFFFFF" points="382.419,86.499 382.306,86.361 383.248,89.196 
				383.622,89.083 382.683,86.247 382.579,86.134 382.683,86.247 382.651,86.158 382.579,86.134 382.419,86.499 382.419,86.499 
				382.419,86.499 			"/>
			<polygon fill-rule="evenodd" clip-rule="evenodd" fill="#FFFFFF" points="380.507,85.684 380.411,85.67 382.419,86.499 
				382.579,86.134 380.573,85.307 380.495,85.301 380.573,85.307 380.536,85.295 380.495,85.301 380.507,85.684 380.507,85.684 
				380.507,85.684 			"/>
			<polygon fill-rule="evenodd" clip-rule="evenodd" fill="#FFFFFF" points="373.749,85.872 373.56,86.084 380.507,85.684 
				380.495,85.301 373.548,85.703 373.362,85.898 373.548,85.703 373.326,85.707 373.362,85.898 373.749,85.872 373.749,85.872 			
				"/>
			<polygon fill-rule="evenodd" clip-rule="evenodd" fill="#FFFFFF" points="373.804,86.543 373.88,86.667 373.874,86.566 
				373.851,86.46 373.845,86.358 373.815,86.269 373.81,86.168 373.785,86.062 373.755,85.971 373.749,85.872 373.362,85.898 
				373.361,86.019 373.38,86.144 373.409,86.23 373.417,86.333 373.445,86.422 373.47,86.531 373.511,86.645 373.517,86.746 
				373.612,86.876 373.517,86.746 373.546,86.834 373.612,86.876 373.804,86.543 373.804,86.543 			"/>
			<polygon fill-rule="evenodd" clip-rule="evenodd" fill="#FFFFFF" points="383.252,89.179 383.413,88.936 382.562,88.989 
				381.739,89.014 380.995,88.982 380.274,88.939 379.63,88.844 378.987,88.748 378.403,88.594 377.837,88.445 377.288,88.242 
				376.782,88.032 376.276,87.823 375.781,87.581 375.286,87.336 374.799,87.075 374.31,86.81 373.804,86.543 373.612,86.876 
				374.119,87.145 374.606,87.409 375.108,87.692 375.603,87.938 376.12,88.169 376.621,88.396 377.163,88.616 377.711,88.82 
				378.312,88.981 378.902,89.118 379.559,89.238 380.244,89.326 380.958,89.386 381.752,89.395 382.573,89.37 383.46,89.328 
				383.622,89.083 383.46,89.328 383.706,89.311 383.622,89.083 383.248,89.196 383.248,89.196 383.252,89.179 			"/>
			<g>
				<polygon fill="none" points="386.847,91.697 386.993,91.839 386.847,91.697 				"/>
				<polygon fill="none" points="385.528,91.647 385.494,91.648 385.494,91.648 				"/>
				<polygon fill="none" points="382.294,82.008 387.509,83.749 382.294,82.008 				"/>
			</g>
			<polygon fill-rule="evenodd" clip-rule="evenodd" fill="#FFFFFF" points="393.46,87.402 393.198,87.414 392.905,87.456 
				392.644,87.467 392.358,87.489 392.085,87.538 391.792,87.581 391.499,87.623 391.219,87.688 390.938,87.754 390.696,87.83 
				390.427,87.919 390.177,88.015 389.962,88.122 389.706,88.235 389.497,88.385 389.306,88.538 389.546,88.838 389.729,88.699 
				389.909,88.58 390.104,88.467 390.331,88.385 390.552,88.26 390.79,88.2 391.069,88.135 391.315,88.058 391.583,88.028 
				391.821,87.967 392.108,87.944 392.382,87.897 392.674,87.854 392.959,87.83 393.228,87.802 393.507,87.797 393.46,87.402 
				393.46,87.402 393.46,87.402 			"/>
			<polygon fill-rule="evenodd" clip-rule="evenodd" fill="#FFFFFF" points="429.253,84.729 393.46,87.402 393.507,87.797 
				429.294,85.142 429.253,84.729 429.253,84.729 			"/>
			<polygon fill-rule="evenodd" clip-rule="evenodd" fill="#FFFFFF" points="429.921,82.548 430.069,82.757 430.224,82.949 
				430.297,83.151 430.409,83.348 430.468,83.526 430.487,83.71 430.491,83.871 430.48,84.026 430.438,84.151 430.379,84.271 
				430.301,84.384 430.163,84.497 430.021,84.57 429.794,84.652 429.558,84.711 429.253,84.729 429.294,85.142 429.622,85.109 
				429.909,85.026 430.157,84.931 430.379,84.809 430.582,84.675 430.724,84.483 430.802,84.312 430.874,84.098 430.868,83.877 
				430.879,83.664 430.831,83.449 430.753,83.206 430.665,82.995 430.546,82.757 430.391,82.508 430.236,82.316 429.921,82.548 
				429.921,82.548 			"/>
			<polygon fill-rule="evenodd" clip-rule="evenodd" fill="#FFFFFF" points="425.653,80.51 425.977,80.498 426.304,80.529 
				426.638,80.601 426.958,80.648 427.263,80.75 427.567,80.851 427.858,80.988 428.134,81.12 428.419,81.273 428.681,81.44 
				428.962,81.614 429.163,81.779 429.378,81.971 429.587,82.18 429.759,82.376 429.921,82.548 430.236,82.316 430.052,82.097 
				429.843,81.889 429.634,81.677 429.402,81.482 429.146,81.298 428.89,81.113 428.628,80.945 428.331,80.766 428.021,80.625 
				427.704,80.498 427.382,80.392 427.044,80.277 426.708,80.206 426.368,80.152 425.98,80.123 425.644,80.127 425.653,80.51 
				425.653,80.51 			"/>
			<polygon fill-rule="evenodd" clip-rule="evenodd" fill="#FFFFFF" points="393.985,81.601 425.653,80.51 425.644,80.127 
				393.991,81.225 393.985,81.601 393.985,81.601 			"/>
			<polygon fill-rule="evenodd" clip-rule="evenodd" fill="#FFFFFF" points="388.987,80.805 389.284,80.926 389.601,80.992 
				389.905,81.092 390.22,81.158 390.552,81.231 390.862,81.313 391.202,81.366 391.507,81.408 391.823,81.476 392.149,81.504 
				392.472,81.552 392.788,81.558 393.091,81.6 393.414,81.587 393.704,81.607 393.985,81.601 393.991,81.225 393.692,81.225 
				393.401,81.207 393.126,81.195 392.817,81.173 392.507,81.146 392.198,81.123 391.895,81.081 391.573,81.034 391.257,80.968 
				390.954,80.926 390.644,80.844 390.321,80.796 390.012,80.71 389.683,80.622 389.408,80.551 389.106,80.449 388.981,80.824 
				388.981,80.824 388.987,80.805 			"/>
			<polygon fill-rule="evenodd" clip-rule="evenodd" fill="#FFFFFF" points="378.304,77.879 378.846,77.801 379.356,77.752 
				379.847,77.716 380.294,77.688 380.717,77.669 381.099,77.717 381.491,77.729 381.819,77.759 382.159,77.812 382.476,77.88 
				382.772,77.939 383.042,78.028 383.327,78.123 383.552,78.218 383.833,78.331 384.054,78.444 384.31,78.572 384.565,78.695 
				384.816,78.84 385.067,78.982 385.317,79.124 385.579,79.293 385.836,79.417 386.115,79.59 386.425,79.733 386.723,79.912 
				387.056,80.043 387.378,80.21 387.74,80.37 388.135,80.504 388.553,80.68 388.981,80.824 389.106,80.449 388.677,80.306 
				388.254,80.146 387.901,80.007 387.532,79.864 387.194,79.69 386.901,79.555 386.604,79.374 386.312,79.238 386.025,79.083 
				385.758,78.934 385.507,78.791 385.245,78.623 384.995,78.48 384.737,78.356 384.483,78.231 384.249,78.093 383.994,77.969 
				383.714,77.854 383.451,77.748 383.166,77.652 382.862,77.552 382.546,77.486 382.226,77.438 381.872,77.36 381.51,77.317 
				381.134,77.313 380.698,77.307 380.282,77.306 379.799,77.322 379.31,77.359 378.794,77.424 378.257,77.484 378.286,77.871 
				378.286,77.871 378.304,77.879 			"/>
			<polygon fill-rule="evenodd" clip-rule="evenodd" fill="#FFFFFF" points="372.458,80.456 372.767,80.239 373.112,80.036 
				373.459,79.836 373.81,79.615 374.132,79.425 374.496,79.228 374.836,79.043 375.187,78.883 375.563,78.711 375.938,78.537 
				376.308,78.384 376.689,78.252 377.101,78.152 377.476,78.037 377.887,77.938 378.286,77.871 378.257,77.484 377.809,77.572 
				377.386,77.651 376.969,77.769 376.575,77.876 376.183,78.041 375.776,78.186 375.409,78.342 375.032,78.514 374.651,78.704 
				374.288,78.9 373.947,79.085 373.602,79.286 373.255,79.49 372.91,79.69 372.584,79.9 372.255,80.107 372.438,80.449 
				372.438,80.449 372.458,80.456 			"/>
			<polygon fill-rule="evenodd" clip-rule="evenodd" fill="#FFFFFF" points="372.386,81.266 372.589,81.431 372.529,81.252 
				372.493,81.061 372.446,80.907 372.403,80.735 372.38,80.626 372.362,80.561 372.392,80.473 372.438,80.449 372.255,80.107 
				372.083,80.268 371.992,80.478 371.969,80.669 372.028,80.847 372.07,81.021 372.118,81.175 372.165,81.33 372.194,81.479 
				372.38,81.638 372.194,81.479 372.202,81.638 372.38,81.638 372.386,81.266 372.386,81.266 			"/>
			<g>
				<polygon fill="none" points="387.007,82.688 387.01,82.689 386.96,82.891 				"/>
				<polygon fill="#FFFFFF" points="387.015,82.671 387.01,82.689 387.007,82.688 				"/>
				<polygon fill="#FFFFFF" points="386.925,82.76 387.007,82.688 386.96,82.891 				"/>
				<g>
					<polygon fill="none" points="425.536,81.404 425.678,81.273 425.893,81.166 426.144,81.131 426.28,81.136 426.436,81.148 
						426.583,81.178 426.732,81.207 426.911,81.269 427.073,81.322 427.245,81.398 427.43,81.5 427.585,81.571 427.746,81.686 
						427.888,81.792 428.045,81.924 428.205,82.035 428.317,82.173 428.456,82.298 428.568,82.436 428.776,82.703 428.884,82.978 
						428.938,83.115 428.968,83.205 428.949,83.438 428.906,83.621 428.774,83.775 428.585,83.87 428.329,83.924 428.187,83.938 
						428.038,83.906 427.865,83.889 427.681,83.847 427.519,83.793 427.341,83.732 427.149,83.652 426.981,83.555 426.811,83.477 
						426.624,83.376 426.464,83.265 426.31,83.131 426.165,83.024 426.018,82.877 425.886,82.732 425.774,82.594 425.591,82.313 
						425.48,82.042 425.452,81.952 425.421,81.803 425.458,81.576 					"/>
					<polygon fill="none" points="391.041,82.662 391.041,82.662 390.862,82.743 					"/>
					<polygon fill="none" points="392.327,85.912 392.454,86.014 392.466,86.037 392.126,86.461 389.134,86.674 388.485,86.3 
						388.481,86.293 388.651,86.215 387.379,82.865 387.589,82.654 390.31,82.498 390.886,82.799 392.299,86.122 					"/>
					<polygon fill="none" points="382.121,81.653 382.121,81.653 387.126,83.322 					"/>
					<g>
						<polygon fill="none" points="425.536,81.404 425.678,81.273 425.893,81.166 426.144,81.131 426.28,81.136 426.436,81.148 
							426.583,81.178 426.732,81.207 426.911,81.269 427.073,81.322 427.245,81.398 427.43,81.5 427.585,81.571 427.746,81.686 
							427.888,81.792 428.045,81.924 428.205,82.035 428.317,82.173 428.456,82.298 428.568,82.436 428.776,82.703 428.884,82.978 
							428.938,83.115 428.968,83.205 428.949,83.438 428.906,83.621 428.774,83.775 428.585,83.87 428.329,83.924 428.187,83.938 
							428.038,83.906 427.865,83.889 427.681,83.847 427.519,83.793 427.341,83.732 427.149,83.652 426.981,83.555 426.811,83.477 
							426.624,83.376 426.464,83.265 426.31,83.131 426.165,83.024 426.018,82.877 425.886,82.732 425.774,82.594 425.591,82.313 
							425.48,82.042 425.452,81.952 425.421,81.803 425.458,81.576 						"/>
						<polygon fill="none" points="390.31,82.498 390.886,82.799 392.299,86.122 392.327,85.912 392.454,86.014 392.466,86.037 
							392.126,86.461 389.134,86.674 388.485,86.3 388.481,86.293 388.651,86.215 387.379,82.865 387.589,82.654 						"/>
						<polygon fill="none" points="382.121,81.653 382.121,81.653 387.126,83.322 						"/>
						<g>
							<polygon fill="none" points="425.536,81.404 425.678,81.273 425.893,81.166 426.144,81.131 426.28,81.136 426.436,81.148 
								426.583,81.178 426.732,81.207 426.911,81.269 427.073,81.322 427.245,81.398 427.43,81.5 427.585,81.571 427.746,81.686 
								427.888,81.792 428.045,81.924 428.205,82.035 428.317,82.173 428.456,82.298 428.568,82.436 428.776,82.703 428.884,82.978 
								428.938,83.115 428.968,83.205 428.949,83.438 428.906,83.621 428.774,83.775 428.585,83.87 428.329,83.924 428.187,83.938 
								428.038,83.906 427.865,83.889 427.681,83.847 427.519,83.793 427.341,83.732 427.149,83.652 426.981,83.555 426.811,83.477 
								426.624,83.376 426.464,83.265 426.31,83.131 426.165,83.024 426.018,82.877 425.886,82.732 425.774,82.594 425.591,82.313 
								425.48,82.042 425.452,81.952 425.421,81.803 425.458,81.576 							"/>
							<polygon fill="none" points="390.31,82.498 390.886,82.799 392.299,86.122 392.327,85.912 392.454,86.014 392.466,86.037 
								392.13,86.456 392.108,86.275 389.118,86.489 389.247,86.515 389.147,86.673 389.134,86.674 388.485,86.3 388.481,86.293 
								388.651,86.215 387.379,82.865 387.589,82.654 							"/>
							<polygon fill="none" points="382.121,81.653 382.121,81.653 387.126,83.322 							"/>
							<g>
								<polygon fill="none" points="392.403,85.382 398.072,87.272 392.403,85.382 								"/>
								<polygon fill="none" points="392.257,85.034 398.786,87.214 392.257,85.034 								"/>
								<polygon fill="none" points="425.536,81.404 425.678,81.273 425.893,81.166 426.144,81.131 426.28,81.136 426.436,81.148 
									426.583,81.178 426.732,81.207 426.911,81.269 427.073,81.322 427.245,81.398 427.43,81.5 427.585,81.571 427.746,81.686 
									427.888,81.792 428.045,81.924 428.205,82.035 428.317,82.173 428.456,82.298 428.568,82.436 428.776,82.703 
									428.884,82.978 428.938,83.115 428.968,83.205 428.949,83.438 428.906,83.621 428.774,83.775 428.585,83.87 428.329,83.924 
									428.187,83.938 428.038,83.906 427.865,83.889 427.681,83.847 427.519,83.793 427.341,83.732 427.149,83.652 
									426.981,83.555 426.811,83.477 426.624,83.376 426.464,83.265 426.31,83.131 426.165,83.024 426.018,82.877 425.886,82.732 
									425.774,82.594 425.591,82.313 425.48,82.042 425.452,81.952 425.421,81.803 425.458,81.576 								"/>
								<polygon fill="none" points="390.31,82.498 390.886,82.799 392.299,86.122 392.327,85.912 392.454,86.014 392.466,86.037 
									392.13,86.456 392.126,86.461 389.147,86.673 389.134,86.674 388.485,86.3 388.481,86.293 388.651,86.215 387.379,82.865 
									387.589,82.654 								"/>
								<polygon fill="none" points="382.121,81.653 382.121,81.653 387.126,83.322 								"/>
								<polygon fill="#FFFFFF" points="392.257,85.034 398.786,87.214 398.077,87.255 398.072,87.272 392.403,85.382 								"/>
								<g>
									<polygon fill="none" points="425.536,81.404 425.678,81.273 425.893,81.166 426.144,81.131 426.28,81.136 426.436,81.148 
										426.583,81.178 426.732,81.207 426.911,81.269 427.073,81.322 427.245,81.398 427.43,81.5 427.585,81.571 427.746,81.686 
										427.888,81.792 428.045,81.924 428.205,82.035 428.317,82.173 428.456,82.298 428.568,82.436 428.776,82.703 
										428.884,82.978 428.938,83.115 428.968,83.205 428.949,83.438 428.906,83.621 428.774,83.775 428.585,83.87 
										428.329,83.924 428.187,83.938 428.038,83.906 427.865,83.889 427.681,83.847 427.519,83.793 427.341,83.732 
										427.149,83.652 426.981,83.555 426.811,83.477 426.624,83.376 426.464,83.265 426.31,83.131 426.165,83.024 
										426.018,82.877 425.886,82.732 425.774,82.594 425.591,82.313 425.48,82.042 425.452,81.952 425.421,81.803 
										425.458,81.576 									"/>
									<polygon fill="none" points="390.31,82.498 390.886,82.799 392.251,86.01 392.039,86.281 389.118,86.489 389.247,86.515 
										389.147,86.673 389.134,86.674 388.485,86.3 388.481,86.293 388.651,86.215 387.379,82.865 387.589,82.654 									"/>
									<polygon fill="none" points="392.327,85.912 392.454,86.014 392.454,86.014 									"/>
									<polygon fill="none" points="382.121,81.653 382.121,81.653 387.126,83.322 									"/>
									<path fill="#FFFFFF" d="M372.38,81.638l8.294-0.269l0.173,0.016l0.162,0.056l0.215,0.071l0.195,0.066l0.178,0.119
										l0.133,0.082l0.076,0.127l0.061,0.059l3.299,9.938l0.047,0.154l0.162-0.005l0.166-0.023l0.191,0.023l0.232,0.019
										l0.219-0.007l0.216,0.014l0.196-0.055l0.22-0.064l0.179-0.119l0.215-0.229l0.18-0.236l0.167-0.202l0.166-0.2l0.144-0.193
										l0.137-0.173l0.119-0.177l0.144-0.192l0.118-0.178l0.139-0.172l0.136-0.174l0.149-0.149l0.156-0.167l0.179-0.178
										l0.179-0.181l0.227-0.199l-0.121-0.151l0.179-0.148l0.204-0.131l0.232-0.101l0.214-0.107l0.232-0.1l0.262-0.073l0.269-0.09
										l0.262-0.068l0.25-0.038l0.275-0.049l0.291-0.04l0.275-0.047l0.285-0.024l0.285-0.024l0.27-0.029l0.262-0.011l4.601-0.333
										l-5.669-1.891l-0.146-0.348l0,0l6.529,2.18l30.496-2.276l0.566-0.089l0.424-0.196l0.293-0.28l0.104-0.321v-0.357
										l0.008-0.019l-0.101-0.41l-0.202-0.407l-0.294-0.435l-0.171-0.195l-0.191-0.203l-0.209-0.207l-0.219-0.174l-0.232-0.198
										l-0.262-0.165l-0.28-0.174l-0.28-0.173l-0.3-0.119l-0.292-0.137l-0.322-0.108l-0.338-0.111l-0.32-0.048l-0.335-0.072
										l-0.348-0.036l-0.337,0.007l-4.606,0.169l-27.046,0.927h-0.299l-0.278,0.005l-0.317-0.005l-0.303-0.042l-0.311-0.024
										l-0.309-0.024l-0.305-0.043l-0.322-0.047l-0.322-0.047l-0.314-0.065l-0.316-0.068l-0.315-0.064l-0.327-0.087l-0.309-0.087
										l-0.295-0.076l-0.303-0.1l-0.429-0.146l-0.422-0.161l-0.37-0.142l-0.369-0.145l-0.322-0.165l-0.311-0.143l-0.32-0.169
										l-0.293-0.137l-0.279-0.173l-0.251-0.144l-0.269-0.148l-0.25-0.143l-0.268-0.147l-0.25-0.146l-0.238-0.119l-0.25-0.143
										l-0.258-0.125l-0.262-0.107l-0.25-0.084l-0.286-0.096l-0.304-0.101l-0.29-0.078l-0.323-0.047l-0.34-0.055l-0.346-0.035
										l-0.387-0.029l-0.412-0.02l-0.422,0.019l-0.441,0.011l-0.494,0.054l-0.514,0.048l-0.56,0.071l-0.417,0.06l-0.412,0.101
										l-0.41,0.101l-0.383,0.132l-0.403,0.145l-0.388,0.146l-0.367,0.154l-0.377,0.173l-0.357,0.179l-0.364,0.198l5.788,1.93
										l-7.791,0.262L372.38,81.638z M425.421,81.803l0.037-0.227l0.078-0.172l0.142-0.131l0.215-0.107l0.251-0.035l0.137,0.005
										l0.155,0.013l0.147,0.029l0.149,0.029l0.179,0.062l0.162,0.054l0.172,0.076l0.185,0.102l0.155,0.071l0.161,0.114
										l0.142,0.106l0.157,0.132l0.16,0.111l0.112,0.138l0.139,0.125l0.112,0.138l0.208,0.268l0.107,0.274l0.054,0.138l0.03,0.09
										l-0.019,0.232l-0.043,0.184l-0.132,0.154l-0.189,0.095l-0.256,0.054l-0.143,0.014l-0.148-0.031l-0.173-0.018l-0.185-0.042
										l-0.162-0.054l-0.178-0.061l-0.191-0.08l-0.168-0.098l-0.171-0.078l-0.187-0.101l-0.16-0.111l-0.154-0.134l-0.145-0.106
										l-0.147-0.147l-0.132-0.145l-0.111-0.139l-0.184-0.28l-0.11-0.271l-0.028-0.09L425.421,81.803z M392.454,86.014
										L392.454,86.014l-0.127-0.102L392.454,86.014z M387.379,82.865l0.21-0.211l2.721-0.156l0.576,0.301l1.365,3.211
										l-0.212,0.271l-2.921,0.208l0.129,0.025l-0.1,0.158l-0.014,0.001l-0.648-0.374l-0.004-0.007l0.17-0.078L387.379,82.865z"/>
								</g>
							</g>
						</g>
					</g>
				</g>
			</g>
			<polygon fill-rule="evenodd" clip-rule="evenodd" points="423.579,83.869 423.413,83.774 423.384,83.625 423.622,83.564 
				423.67,83.721 423.526,83.613 423.579,83.869 423.579,83.869 			"/>
			<polygon fill-rule="evenodd" clip-rule="evenodd" points="423.903,83.679 423.866,83.728 423.806,83.786 423.733,83.821 
				423.665,83.856 423.579,83.869 423.526,83.613 423.562,83.625 423.616,83.583 423.682,83.564 423.688,83.548 423.675,83.583 
				423.897,83.696 423.897,83.696 423.903,83.679 			"/>
			<polygon fill-rule="evenodd" clip-rule="evenodd" points="423.229,82.184 423.247,82.188 423.36,82.326 423.509,82.476 
				423.651,82.643 423.788,82.827 423.902,83.023 423.967,83.244 423.968,83.482 423.897,83.696 423.675,83.583 423.724,83.439 
				423.712,83.299 423.67,83.124 423.562,82.971 423.444,82.792 423.314,82.648 423.163,82.498 423.05,82.362 423.067,82.368 
				423.229,82.184 423.229,82.184 			"/>
			<polygon fill-rule="evenodd" clip-rule="evenodd" points="421.037,81.551 421.019,81.544 421.335,81.551 421.632,81.551 
				421.912,81.604 422.181,81.634 422.454,81.707 422.71,81.832 422.978,81.98 423.229,82.184 423.067,82.368 422.823,82.206 
				422.591,82.069 422.372,81.957 422.134,81.896 421.871,81.85 421.603,81.818 421.329,81.808 421.049,81.813 421.055,81.796 
				421.013,81.562 421.013,81.562 421.037,81.551 			"/>
			<polygon fill-rule="evenodd" clip-rule="evenodd" points="397.786,82.771 397.888,82.703 421.013,81.562 421.055,81.796 
				397.923,82.955 398.026,82.889 397.786,82.771 397.786,82.771 			"/>
			<polygon fill-rule="evenodd" clip-rule="evenodd" points="397.238,83.579 396.987,83.496 397.006,83.322 397.054,83.181 
				397.125,83.025 397.22,82.917 397.345,82.84 397.506,82.775 397.685,82.717 397.888,82.703 397.923,82.955 397.731,82.99 
				397.561,83.031 397.476,83.042 397.392,83.115 397.353,83.181 397.286,83.259 397.251,83.365 397.257,83.525 397.006,83.44 
				397.238,83.579 397.238,83.579 			"/>
			<g>
				<polygon fill="none" points="397.888,82.71 397.923,82.955 397.888,82.71 				"/>
				<g>
					<polygon fill="none" points="397.257,83.525 397.286,83.376 397.356,83.223 397.417,83.104 397.542,83.025 397.69,82.995 
						397.899,82.966 397.923,82.955 421.055,81.796 421.44,81.825 421.765,81.813 422.067,81.854 422.347,81.909 422.604,82.034 
						422.835,82.17 423.05,82.362 423.296,82.643 423.509,82.893 423.665,83.142 423.741,83.326 423.741,83.446 423.688,83.548 
						423.54,83.637 423.259,83.703 422.866,83.749 399.097,84.974 399.079,84.969 398.746,84.956 398.418,84.866 398.126,84.729 
						397.876,84.586 397.667,84.378 397.52,84.169 397.388,83.967 397.286,83.795 397.267,83.668 					"/>
					<g>
						<path fill="none" d="M397.286,83.376l-0.029,0.149l0.01,0.143l0.02,0.127l0.102,0.172l0.132,0.202l0.147,0.209l0.209,0.208
							l0.25,0.143l0.292,0.138l0.328,0.09l0.333,0.013l0.018,0.005l23.77-1.225l0.393-0.046l0.281-0.066l0.148-0.089l0.053-0.102
							v-0.12l-0.076-0.185l-0.156-0.249l-0.213-0.25l-0.246-0.28l-0.215-0.192l-0.23-0.136l-0.258-0.125l-0.279-0.055l-0.303-0.041
							l-0.324,0.012l-0.386-0.029l-23.132,1.159l-0.023,0.011l-0.209,0.029l-0.148,0.03l-0.125,0.079l-0.061,0.118L397.286,83.376z
							 M397.613,83.228l23.132-1.158l0.011-0.035l0.31,0.023h0.299l0.281,0.053l0.267,0.03l0.274,0.072l0.256,0.125l0.25,0.143
							l0.268,0.209l0.102,0.111l0.09,0.091l0.084,0.107l0.07,0.082l0.102,0.116l0.078,0.123l0.064,0.1l0.066,0.103l0.006,0.042
							l-0.238,0.061l0.006,0.042l-0.061-0.119l-0.063-0.102l-0.091-0.089l-0.065-0.103l-0.071-0.082l-0.084-0.108l-0.088-0.088
							l-0.107-0.096l0.008-0.009l-0.212-0.158l-0.227-0.156l-0.226-0.096l-0.238-0.061l-0.262-0.049l-0.269-0.026l-0.292-0.021
							l-0.28,0.007l-23.124,1.143L397.613,83.228z"/>
						<g>
							<path fill="none" d="M397.286,83.376l-0.029,0.149l0.01,0.143l0.02,0.127l0.102,0.172l0.132,0.202l0.147,0.209l0.209,0.208
								l0.25,0.143l0.292,0.138l0.328,0.09l0.333,0.013l0.018,0.005l23.77-1.225l0.393-0.046l0.281-0.066l0.148-0.089l0.053-0.102
								v-0.12l-0.076-0.185l-0.156-0.249l-0.213-0.25l-0.246-0.28l-0.215-0.192l-0.23-0.136l-0.258-0.125l-0.279-0.055l-0.303-0.041
								l-0.324,0.012l-0.386-0.029l-23.132,1.159l-0.023,0.011l-0.209,0.029l-0.148,0.03l-0.125,0.079l-0.061,0.118L397.286,83.376z
								"/>
							<g>
								<polygon fill="none" points="397.356,83.223 397.417,83.104 397.542,83.025 397.69,82.995 397.827,82.977 397.638,83.336 
									420.769,82.177 421.065,82.177 421.341,82.188 421.621,82.241 421.889,82.272 422.144,82.338 422.39,82.439 422.633,82.601 
									422.872,82.779 422.954,82.886 423.044,82.977 423.128,83.081 423.218,83.173 423.282,83.272 423.367,83.38 423.433,83.482 
									423.509,83.606 423.519,83.643 423.259,83.703 422.866,83.749 399.097,84.974 399.079,84.969 398.746,84.956 
									398.418,84.866 398.126,84.729 397.876,84.586 397.667,84.378 397.52,84.169 397.388,83.967 397.286,83.795 397.267,83.668 
									397.257,83.525 397.286,83.376 								"/>
								<polygon points="423.433,83.482 423.367,83.38 423.282,83.272 423.218,83.173 423.128,83.081 423.044,82.977 
									422.954,82.886 422.872,82.779 422.633,82.601 422.39,82.439 422.144,82.338 421.889,82.272 421.621,82.241 421.341,82.188 
									421.065,82.177 420.769,82.177 397.638,83.336 397.827,82.977 397.899,82.966 397.923,82.955 421.055,81.796 421.44,81.825 
									421.765,81.813 422.067,81.854 422.347,81.909 422.604,82.034 422.835,82.17 423.05,82.362 423.296,82.643 423.509,82.893 
									423.665,83.142 423.741,83.326 423.741,83.446 423.688,83.548 423.54,83.637 423.519,83.643 423.509,83.606 								"/>
								<g>
									<polygon fill="none" points="397.296,83.354 397.315,83.348 397.435,83.348 397.638,83.336 397.83,82.977 397.899,82.966 
										397.923,82.955 421.055,81.796 421.44,81.825 421.765,81.813 422.067,81.854 422.347,81.909 422.604,82.034 422.835,82.17 
										423.05,82.362 423.296,82.643 423.509,82.893 423.665,83.142 423.741,83.326 423.741,83.446 423.688,83.548 423.54,83.637 
										423.519,83.643 423.259,83.703 422.866,83.749 399.097,84.974 399.079,84.969 398.746,84.956 398.418,84.866 
										398.126,84.729 397.876,84.586 397.667,84.378 397.52,84.169 397.388,83.967 397.286,83.795 397.267,83.668 
										397.257,83.525 397.286,83.376 									"/>
									<path d="M396.987,83.496l0.025,0.226l0.046,0.155l0.066,0.219l0.155,0.252l0.189,0.202l0.244,0.222l0.293,0.197
										l0.328,0.147l0.344,0.095l0.418,0.001l23.762-1.206l0.453-0.047l0.32-0.071l0.234-0.16l0.131-0.216l-0.006-0.221
										l-0.089-0.268l-0.173-0.256l-0.238-0.299l-0.244-0.28l-0.263-0.228l-0.279-0.171l-0.274-0.132l-0.297-0.059l-0.357-0.06
										h-0.357l-0.406,0.022l-23.125,1.141v0.007l-0.245,0.012l-0.251,0.096l-0.165,0.143l-0.114,0.161l-0.076,0.173
										L396.987,83.496z M397.257,83.525l0.029-0.149l0.01-0.022l0.02-0.006h0.119l0.203-0.012l0.192-0.359l0.069-0.011
										l0.023-0.011l23.132-1.159l0.386,0.029l0.324-0.012l0.303,0.041l0.279,0.055l0.258,0.125l0.23,0.136l0.215,0.192
										l0.246,0.28l0.213,0.25l0.156,0.249l0.076,0.185v0.12l-0.053,0.102l-0.148,0.089l-0.021,0.006l-0.26,0.061l-0.393,0.046
										l-23.77,1.225l-0.018-0.005l-0.333-0.013l-0.328-0.09l-0.292-0.138l-0.25-0.143l-0.209-0.208l-0.147-0.209l-0.132-0.202
										l-0.102-0.172l-0.02-0.127L397.257,83.525z"/>
								</g>
							</g>
						</g>
					</g>
				</g>
			</g>
		</g>
	</g>
	<rect x="364.595" y="3.911" fill="#E6E7E8" width="221.426" height="37.94"/>
	<text transform="matrix(1 0 0 1 368.4131 18.1655)"><tspan x="0" y="0" fill="#231F20" font-family="'Arial-BoldMT'" font-size="16.3494">72 Card Tuck Box Template</tspan><tspan x="0" y="18.685" fill="#231F20" font-family="'Arial-BoldMT'" font-size="16.3494">www.thegamecrafter.com</tspan></text>
	<g>
		<path fill="#EC1E28" d="M180.288,173.983c0,0.888-0.403,1.754-1.207,2.597l-0.127,0.125l-7.04,7.417
			c-1.496,1.571-2.771,2.787-3.821,3.646c-1.052,0.859-1.796,1.287-2.228,1.287c-0.456,0-1.021-0.214-1.698-0.644
			c-0.676-0.428-1.112-0.872-1.311-1.327c-0.166-0.38-0.325-1.185-0.473-2.416c-0.147-1.229-0.222-2.563-0.222-3.998
			c0-0.782,0.327-1.506,0.979-2.171c0.653-0.665,1.375-0.997,2.164-0.997c0.754,0,1.2,0.688,1.344,2.062
			c0.018,0.159,0.027,0.278,0.037,0.354c0.119,1.056,0.261,1.792,0.419,2.21c0.161,0.418,0.378,0.627,0.65,0.627
			c0.113,0,0.327-0.124,0.639-0.37c0.31-0.248,0.684-0.583,1.116-1.009l7.234-7.166c0.607-0.607,1.149-1.066,1.629-1.379
			c0.479-0.311,0.884-0.467,1.219-0.467c0.252,0,0.429,0.096,0.537,0.285c0.105,0.19,0.158,0.51,0.158,0.958V173.983z"/>
	</g>
	<text transform="matrix(1 0 0 1 180.373 186.9092)" font-family="'ArialMT'" font-size="14">Fold Line</text>
	<g>
		<path fill="#EC1E28" d="M292.707,447.88c0,0.889-0.403,1.755-1.207,2.598l-0.127,0.125l-7.04,7.418
			c-1.496,1.571-2.771,2.787-3.821,3.646c-1.052,0.858-1.796,1.287-2.228,1.287c-0.456,0-1.021-0.214-1.698-0.644
			c-0.676-0.428-1.112-0.871-1.311-1.327c-0.166-0.38-0.325-1.185-0.473-2.416c-0.147-1.229-0.222-2.563-0.222-3.998
			c0-0.782,0.327-1.507,0.979-2.171c0.653-0.664,1.375-0.996,2.164-0.996c0.754,0,1.2,0.688,1.344,2.062
			c0.018,0.159,0.027,0.278,0.037,0.354c0.119,1.056,0.261,1.792,0.419,2.21c0.161,0.418,0.378,0.627,0.65,0.627
			c0.113,0,0.327-0.124,0.639-0.37c0.31-0.247,0.684-0.583,1.116-1.009l7.234-7.166c0.607-0.607,1.149-1.066,1.629-1.379
			c0.479-0.311,0.884-0.467,1.219-0.467c0.252,0,0.429,0.096,0.537,0.284c0.105,0.19,0.158,0.51,0.158,0.958V447.88z"/>
	</g>
	<text transform="matrix(1 0 0 1 292.7925 460.8066)" font-family="'ArialMT'" font-size="14">Bleed Zone</text>
	<g>
		<g>
			<g>
				<path fill="none" stroke="#00ADEE" stroke-miterlimit="10" stroke-dasharray="5" d="M465.402,132.121h-2.462
					c-0.084,0.526-0.258,1.067-0.539,1.613c-0.118,0.23-0.239,0.459-0.365,0.685"/>
				<path fill="none" stroke="#00ADEE" stroke-miterlimit="10" stroke-dasharray="5" d="M459.48,138.307
					c-5.709,7.327-14.734,11.671-24.164,10.624c-8.46-0.939-17.262-4.807-21.549-12.349"/>
				<path fill="none" stroke="#00ADEE" stroke-miterlimit="10" stroke-dasharray="5" d="M412.74,134.499
					c-0.133-0.314-0.257-0.633-0.375-0.958c-0.181-0.499-0.273-0.972-0.306-1.42h-2.462"/>
				
					<line fill="none" stroke="#00ADEE" stroke-miterlimit="10" stroke-dasharray="5" x1="405.073" y1="132.121" x2="362.093" y2="132.121"/>
				<polyline fill="none" stroke="#00ADEE" stroke-miterlimit="10" stroke-dasharray="5" points="359.83,132.121 357.368,132.121 
					357.368,134.607 				"/>
				
					<line fill="none" stroke="#00ADEE" stroke-miterlimit="10" stroke-dasharray="5" x1="357.368" y1="139.503" x2="357.368" y2="362.297"/>
				<polyline fill="none" stroke="#00ADEE" stroke-miterlimit="10" stroke-dasharray="5" points="357.368,364.746 357.368,367.232 
					359.83,367.232 				"/>
				
					<line fill="none" stroke="#00ADEE" stroke-miterlimit="10" stroke-dasharray="5" x1="364.893" y1="367.232" x2="514.217" y2="367.232"/>
				<polyline fill="none" stroke="#00ADEE" stroke-miterlimit="10" stroke-dasharray="5" points="516.749,367.232 519.211,367.232 
					519.211,364.746 				"/>
				
					<line fill="none" stroke="#00ADEE" stroke-miterlimit="10" stroke-dasharray="5" x1="519.211" y1="359.85" x2="519.211" y2="137.055"/>
				<polyline fill="none" stroke="#00ADEE" stroke-miterlimit="10" stroke-dasharray="5" points="519.211,134.607 519.211,132.121 
					516.749,132.121 				"/>
				
					<line fill="none" stroke="#00ADEE" stroke-miterlimit="10" stroke-dasharray="5" x1="512.082" y1="132.121" x2="467.737" y2="132.121"/>
			</g>
		</g>
	</g>
	<g>
		<g>
			<g>
				<polyline fill="none" stroke="#00ADEE" stroke-miterlimit="10" stroke-dasharray="5" points="258.606,364.746 258.606,367.232 
					256.145,367.232 				"/>
				
					<line fill="none" stroke="#00ADEE" stroke-miterlimit="10" stroke-dasharray="5" x1="251.083" y1="367.232" x2="101.766" y2="367.232"/>
				<polyline fill="none" stroke="#00ADEE" stroke-miterlimit="10" stroke-dasharray="5" points="99.235,367.232 96.773,367.232 
					96.773,364.746 				"/>
				
					<line fill="none" stroke="#00ADEE" stroke-miterlimit="10" stroke-dasharray="5" x1="96.773" y1="359.85" x2="96.773" y2="137.055"/>
				<polyline fill="none" stroke="#00ADEE" stroke-miterlimit="10" stroke-dasharray="5" points="96.773,134.606 96.773,132.121 
					99.235,132.121 				"/>
				
					<line fill="none" stroke="#00ADEE" stroke-miterlimit="10" stroke-dasharray="5" x1="104.296" y1="132.121" x2="253.614" y2="132.121"/>
				<polyline fill="none" stroke="#00ADEE" stroke-miterlimit="10" stroke-dasharray="5" points="256.145,132.121 258.606,132.121 
					258.606,134.606 				"/>
				
					<line fill="none" stroke="#00ADEE" stroke-miterlimit="10" stroke-dasharray="5" x1="258.606" y1="139.504" x2="258.606" y2="362.298"/>
			</g>
		</g>
	</g>
	<line fill="none" stroke="#00ADEE" stroke-miterlimit="10" x1="257.716" y1="297.244" x2="227.716" y2="297.244"/>
	<g>
		<path fill="#EC1E28" d="M162.288,287.983c0,0.888-0.403,1.754-1.207,2.597l-0.127,0.126l-7.04,7.417
			c-1.496,1.571-2.771,2.786-3.821,3.646c-1.052,0.859-1.796,1.287-2.228,1.287c-0.456,0-1.021-0.215-1.698-0.644
			c-0.676-0.429-1.112-0.872-1.311-1.327c-0.166-0.38-0.325-1.185-0.473-2.416c-0.147-1.229-0.222-2.562-0.222-3.998
			c0-0.782,0.327-1.506,0.979-2.171c0.653-0.665,1.375-0.997,2.164-0.997c0.754,0,1.2,0.688,1.344,2.062
			c0.018,0.159,0.027,0.277,0.037,0.354c0.119,1.056,0.261,1.793,0.419,2.21c0.161,0.418,0.378,0.627,0.65,0.627
			c0.113,0,0.327-0.124,0.639-0.37c0.31-0.248,0.684-0.582,1.116-1.009l7.234-7.166c0.607-0.607,1.149-1.066,1.629-1.379
			c0.479-0.312,0.884-0.468,1.219-0.468c0.252,0,0.429,0.097,0.537,0.285c0.105,0.189,0.158,0.51,0.158,0.958V287.983z"/>
	</g>
	<text transform="matrix(1 0 0 1 162.373 300.9092)" font-family="'ArialMT'" font-size="14">Safe Zone</text>
	<g>
		<g>
			<g>
				<polyline fill="none" stroke="#00ADEE" stroke-miterlimit="10" stroke-dasharray="5.7967" points="77.421,364.971 
					77.421,367.457 64.458,367.457 				"/>
				<polyline fill="none" stroke="#00ADEE" stroke-miterlimit="10" stroke-dasharray="5.7967" points="30.803,367.457 
					17.84,367.457 17.84,364.971 				"/>
				
					<line fill="none" stroke="#00ADEE" stroke-miterlimit="10" stroke-dasharray="5.7967" x1="17.84" y1="360.074" x2="17.84" y2="137.279"/>
				<polyline fill="none" stroke="#00ADEE" stroke-miterlimit="10" stroke-dasharray="5.7967" points="17.84,134.831 17.84,132.345 
					30.803,132.345 				"/>
				<polyline fill="none" stroke="#00ADEE" stroke-miterlimit="10" stroke-dasharray="5.7967" points="64.458,132.345 
					77.421,132.345 77.421,134.831 				"/>
				
					<line fill="none" stroke="#00ADEE" stroke-miterlimit="10" stroke-dasharray="5.7967" x1="77.421" y1="139.728" x2="77.421" y2="362.521"/>
			</g>
		</g>
	</g>
	<g>
		<g>
			<g>
				<polyline fill="none" stroke="#00ADEE" stroke-miterlimit="10" stroke-dasharray="5.7449" points="336.09,364.747 
					336.09,367.232 323.79,367.232 				"/>
				<polyline fill="none" stroke="#00ADEE" stroke-miterlimit="10" stroke-dasharray="5.7449" points="291.862,367.232 
					279.565,367.232 279.565,364.747 				"/>
				
					<line fill="none" stroke="#00ADEE" stroke-miterlimit="10" stroke-dasharray="5.7449" x1="279.565" y1="359.851" x2="279.565" y2="137.055"/>
				<polyline fill="none" stroke="#00ADEE" stroke-miterlimit="10" stroke-dasharray="5.7449" points="279.565,134.607 
					279.565,132.121 291.862,132.121 				"/>
				<polyline fill="none" stroke="#00ADEE" stroke-miterlimit="10" stroke-dasharray="5.7449" points="323.79,132.121 
					336.09,132.121 336.09,134.607 				"/>
				
					<line fill="none" stroke="#00ADEE" stroke-miterlimit="10" stroke-dasharray="5.7449" x1="336.09" y1="139.504" x2="336.09" y2="362.298"/>
			</g>
		</g>
	</g>
	<g>
		<g>
			<g>
				<polyline fill="none" stroke="#00ADEE" stroke-miterlimit="10" stroke-dasharray="5.5519" points="258.606,101.622 
					258.606,112.626 256.144,112.626 				"/>
				
					<line fill="none" stroke="#00ADEE" stroke-miterlimit="10" stroke-dasharray="5.5519" x1="251.083" y1="112.626" x2="101.765" y2="112.626"/>
				<polyline fill="none" stroke="#00ADEE" stroke-miterlimit="10" stroke-dasharray="5.5519" points="99.234,112.626 
					96.772,112.626 96.772,101.622 				"/>
				
					<line fill="none" stroke="#00ADEE" stroke-miterlimit="10" stroke-dasharray="5.5519" x1="96.772" y1="90.053" x2="96.772" y2="72.698"/>
				<polyline fill="none" stroke="#00ADEE" stroke-miterlimit="10" stroke-dasharray="5.5519" points="96.772,66.914 96.772,55.91 
					99.234,55.91 				"/>
				
					<line fill="none" stroke="#00ADEE" stroke-miterlimit="10" stroke-dasharray="5.5519" x1="104.296" y1="55.91" x2="253.614" y2="55.91"/>
				<polyline fill="none" stroke="#00ADEE" stroke-miterlimit="10" stroke-dasharray="5.5519" points="256.144,55.91 258.606,55.91 
					258.606,66.914 				"/>
				
					<line fill="none" stroke="#00ADEE" stroke-miterlimit="10" stroke-dasharray="5.5519" x1="258.606" y1="78.483" x2="258.606" y2="95.836"/>
			</g>
		</g>
	</g>
	<g>
		<g>
			<g>
				<polyline fill="none" stroke="#00ADEE" stroke-miterlimit="10" stroke-dasharray="5.9325" points="258.481,433.757 
					258.481,445.16 256.019,445.16 				"/>
				
					<line fill="none" stroke="#00ADEE" stroke-miterlimit="10" stroke-dasharray="5.9325" x1="250.958" y1="445.16" x2="101.64" y2="445.16"/>
				<polyline fill="none" stroke="#00ADEE" stroke-miterlimit="10" stroke-dasharray="5.9325" points="99.109,445.16 96.647,445.16 
					96.647,433.757 				"/>
				
					<line fill="none" stroke="#00ADEE" stroke-miterlimit="10" stroke-dasharray="5.9325" x1="96.647" y1="421.769" x2="96.647" y2="403.789"/>
				<polyline fill="none" stroke="#00ADEE" stroke-miterlimit="10" stroke-dasharray="5.9325" points="96.647,397.793 
					96.647,386.393 99.109,386.393 				"/>
				
					<line fill="none" stroke="#00ADEE" stroke-miterlimit="10" stroke-dasharray="5.9325" x1="104.171" y1="386.393" x2="253.489" y2="386.393"/>
				<polyline fill="none" stroke="#00ADEE" stroke-miterlimit="10" stroke-dasharray="5.9325" points="256.019,386.393 
					258.481,386.393 258.481,397.793 				"/>
				
					<line fill="none" stroke="#00ADEE" stroke-miterlimit="10" stroke-dasharray="5.9325" x1="258.481" y1="409.784" x2="258.481" y2="427.765"/>
			</g>
		</g>
	</g>
	<rect x="354.244" y="398.926" fill="#E6E6E6" width="166.121" height="41.234"/>
</g>
</svg>
