<?xml version="1.0" encoding="UTF-8" standalone="no"?>
<!-- Created with Inkscape (http://www.inkscape.org/) -->

<svg
   xmlns:dc="http://purl.org/dc/elements/1.1/"
   xmlns:cc="http://creativecommons.org/ns#"
   xmlns:rdf="http://www.w3.org/1999/02/22-rdf-syntax-ns#"
   xmlns:svg="http://www.w3.org/2000/svg"
   xmlns="http://www.w3.org/2000/svg"
   xmlns:sodipodi="http://sodipodi.sourceforge.net/DTD/sodipodi-0.dtd"
   xmlns:inkscape="http://www.inkscape.org/namespaces/inkscape"
   width="69.861252mm"
   height="95.265419mm"
   viewBox="0 0 69.861252 95.265419"
   version="1.1"
   id="svg3301"
   inkscape:version="0.92.2 5c3e80d, 2017-08-06"
   sodipodi:docname="defector.svg">
  <defs
     id="defs3295" />
  <sodipodi:namedview
     id="base"
     pagecolor="#ffffff"
     bordercolor="#666666"
     borderopacity="1.0"
     inkscape:pageopacity="0.0"
     inkscape:pageshadow="2"
     inkscape:zoom="0.7"
     inkscape:cx="-733.2182"
     inkscape:cy="582.09475"
     inkscape:document-units="mm"
     inkscape:current-layer="layer1"
     showgrid="false"
     inkscape:snap-global="false"
     inkscape:window-width="2510"
     inkscape:window-height="1395"
     inkscape:window-x="41"
     inkscape:window-y="0"
     inkscape:window-maximized="0"
     fit-margin-top="0"
     fit-margin-left="0"
     fit-margin-right="0"
     fit-margin-bottom="0" />
  <metadata
     id="metadata3298">
    <rdf:RDF>
      <cc:Work
         rdf:about="">
        <dc:format>image/svg+xml</dc:format>
        <dc:type
           rdf:resource="http://purl.org/dc/dcmitype/StillImage" />
        <dc:title></dc:title>
      </cc:Work>
    </rdf:RDF>
  </metadata>
  <g
     inkscape:label="Layer 1"
     inkscape:groupmode="layer"
     id="layer1"
     transform="translate(129.98569,-19.435909)">
    <g
       id="g922">
      <rect
         style="fill:none;fill-opacity:1;stroke-width:0.28222224"
         x="-129.98569"
         y="19.435909"
         width="69.861252"
         height="95.265419"
         id="rect15628-4-3-6-9-2" />
      <path
         style="fill:#eaeaea;fill-opacity:1;stroke-width:0.28222224"
         inkscape:connector-curvature="0"
         d="m -80.13199,25.313908 -2.319416,0.051 -0.618151,0.630004 -0.315016,2.169527 -0.315271,2.007334 -1.35605,0.726073 -1.113394,0.55516 1.938499,0.702084 0.747156,0.07188 v 0.02709 l -0.09613,1.200348 0.339061,1.992235 0.627042,0.525159 -0.0059,0.789037 -0.07205,0.606185 -0.242937,0.713994 -0.117151,-0.0028 -1.887276,1.320263 -2.061379,0.783111 -2.370357,0.948182 -0.612168,5.932057 0.09613,2.634291 -0.435159,2.379528 h 16.676851 l -0.072,-1.371148 0.132023,-1.644425 0.57912,-1.449126 0.291141,-0.06596 0.1951,0.128948 0.803967,3.627543 0.189173,0.774249 h 4.098629 l -1.395222,-5.661914 -2.265539,-6.112059 -3.771562,-1.161232 -2.379443,-1.989299 -0.153078,0.102023 -0.471085,-1.248184 0.558038,-1.500294 0.543137,-0.237179 0.29114,-0.485987 0.141055,-1.383256 h 0.09598 l 1.092087,-0.678123 1.014222,-1.524142 -0.192137,-0.849178 -1.329069,-0.55214 -0.777184,-0.02399 -0.726214,-2.049328 -0.506984,-0.702084 -2.466368,-0.705132 v 0 h -0.0028 -0.0028 z m -15.131712,7.357223 -0.260999,4.662876 -1.071175,-2.295455 -0.08701,3.606603 1.614283,1.380123 -3.099534,1.968444 -0.11715,0.188976 0.05709,0.128975 1.707304,4.119598 0.05986,1.011259 0.678236,1.554339 -0.387096,1.098014 0.291169,0.711087 0.287951,0.0961 -0.128919,0.678039 0.482883,0.354048 0.03621,0.141168 h 4.674842 l -0.08707,-0.945219 -0.102052,-0.393079 0.164988,-0.159117 -0.09892,-0.585047 -0.192222,-0.05997 0.195185,-0.14097 0.09906,-0.663138 -0.228036,-0.25812 -0.417124,-0.06892 h -0.909122 l 0.22795,-0.483023 -0.29399,-0.420088 -0.354133,-0.03607 1.584255,-0.678039 0.174131,-0.495215 0.114046,-0.03302 0.569891,-0.357011 -0.792113,-1.452288 0.255101,-0.186041 0.09313,-0.08103 -0.02709,-0.119831 -0.06596,-0.09909 -2.808506,-5.070913 0.777183,-1.116245 -0.825133,-2.631469 -0.453051,1.821491 z"
         id="path15634-0-2-1-6-7" />
    </g>
  </g>
</svg>
