<?xml version="1.0" encoding="UTF-8" standalone="no"?>
<!-- Generator: Adobe Illustrator 15.0.0, SVG Export Plug-In . SVG Version: 6.00 Build 0)  -->

<svg
   version="1.1"
   x="0px"
   y="0px"
   width="450"
   height="450"
   viewBox="0 0 450 450"
   enable-background="new 0 0 108 108"
   xml:space="preserve"
   id="svg580"
   sodipodi:docname="largeRing.svg"
   inkscape:version="1.2.2 (b0a8486, 2022-12-01)"
   xmlns:inkscape="http://www.inkscape.org/namespaces/inkscape"
   xmlns:sodipodi="http://sodipodi.sourceforge.net/DTD/sodipodi-0.dtd"
   xmlns="http://www.w3.org/2000/svg"
   xmlns:svg="http://www.w3.org/2000/svg"><defs
   id="defs584" /><sodipodi:namedview
   id="namedview582"
   pagecolor="#ffffff"
   bordercolor="#666666"
   borderopacity="1.0"
   inkscape:showpageshadow="2"
   inkscape:pageopacity="0.0"
   inkscape:pagecheckerboard="0"
   inkscape:deskcolor="#d1d1d1"
   showgrid="false"
   inkscape:zoom="1.0150463"
   inkscape:cx="61.080957"
   inkscape:cy="294.07526"
   inkscape:window-width="1861"
   inkscape:window-height="1027"
   inkscape:window-x="59"
   inkscape:window-y="25"
   inkscape:window-maximized="1"
   inkscape:current-layer="svg580" />
<g
   id="Outlines"
   style="stroke:none;stroke-opacity:1"
   transform="scale(4.1666667)">
	<polygon
   fill="#757a7a"
   points="108,108 108,0 0,0 0,108 "
   id="polygon132"
   style="stroke:none;stroke-opacity:1" />
	<path
   fill="#ffffff"
   stroke="#C92027"
   d="M 54,9 C 29.148,9 9,29.147 9,54 9,78.853 29.148,99 54,99 78.854,99 99,78.853 99,54 99,29.147 78.854,9 54,9 Z m 0,81 C 34.119,90 18,73.882 18,54 18,34.118 34.119,18 54,18 73.883,18 90,34.118 90,54 90,73.882 73.883,90 54,90 Z"
   id="path134"
   style="stroke:none;stroke-opacity:1" />
</g>

</svg>
