<?xml version="1.0" encoding="UTF-8" standalone="no"?>
<!-- Generator: Adobe Illustrator 15.0.0, SVG Export Plug-In . SVG Version: 6.00 Build 0)  -->

<svg
   version="1.1"
   x="0px"
   y="0px"
   width="375"
   height="375"
   viewBox="0 0 375 375"
   enable-background="new 0 0 90 90"
   xml:space="preserve"
   id="svg4423"
   sodipodi:docname="mediumRing.svg"
   inkscape:version="1.2.2 (b0a8486, 2022-12-01)"
   xmlns:inkscape="http://www.inkscape.org/namespaces/inkscape"
   xmlns:sodipodi="http://sodipodi.sourceforge.net/DTD/sodipodi-0.dtd"
   xmlns="http://www.w3.org/2000/svg"
   xmlns:svg="http://www.w3.org/2000/svg"><defs
   id="defs4427" /><sodipodi:namedview
   id="namedview4425"
   pagecolor="#ffffff"
   bordercolor="#666666"
   borderopacity="1.0"
   inkscape:showpageshadow="2"
   inkscape:pageopacity="0.0"
   inkscape:pagecheckerboard="0"
   inkscape:deskcolor="#d1d1d1"
   showgrid="false"
   inkscape:zoom="9.7444444"
   inkscape:cx="44.948689"
   inkscape:cy="28.68301"
   inkscape:window-width="1861"
   inkscape:window-height="1027"
   inkscape:window-x="59"
   inkscape:window-y="25"
   inkscape:window-maximized="1"
   inkscape:current-layer="svg4423" />
<g
   id="Outlines"
   style="stroke:none"
   transform="scale(4.1666667)">
	<polygon
   fill="#757a7a"
   points="90,90 90,0 0,0 0,90 "
   id="polygon3975"
   style="stroke:none" />
	<path
   fill="#ffffff"
   stroke="#C92027"
   d="M 81,45 C 81,25.117 64.883,9 45,9 25.118,9 9,25.117 9,45 9,64.883 25.118,81 45,81 64.882,81 81,64.883 81,45 Z M 18,45 C 18,30.088 30.088,18 45,18 59.912,18 72,30.088 72,45 72,59.912 59.912,72 45,72 30.088,72 18,59.912 18,45 Z"
   id="path3977"
   style="stroke:none" />
</g>

</svg>
