<?xml version="1.0" encoding="UTF-8" standalone="no"?>
<!-- Generator: Adobe Illustrator 15.0.0, SVG Export Plug-In . SVG Version: 6.00 Build 0)  -->

<svg
   version="1.1"
   x="0px"
   y="0px"
   width="3075"
   height="2250"
   viewBox="0 0 3075 2250"
   enable-background="new 0 0 738 540"
   xml:space="preserve"
   id="svg24704"
   sodipodi:docname="pokerTuckBox108.svg"
   inkscape:version="1.2.2 (b0a8486, 2022-12-01)"
   xmlns:inkscape="http://www.inkscape.org/namespaces/inkscape"
   xmlns:sodipodi="http://sodipodi.sourceforge.net/DTD/sodipodi-0.dtd"
   xmlns="http://www.w3.org/2000/svg"
   xmlns:svg="http://www.w3.org/2000/svg"><defs
   id="defs24708">
	
	
	
	
	
	
	
	
	
	
	
	
	
	
	
	
	
	
	
	
	
	
	
	
	
	
	

	

		
		
	
			
			
			
			
			
			
			
			
			
			
			
			
			
		
			
		</defs><sodipodi:namedview
   id="namedview24706"
   pagecolor="#ffffff"
   bordercolor="#666666"
   borderopacity="1.0"
   inkscape:showpageshadow="2"
   inkscape:pageopacity="0.0"
   inkscape:pagecheckerboard="0"
   inkscape:deskcolor="#d1d1d1"
   showgrid="false"
   inkscape:zoom="1.1483938"
   inkscape:cx="340.47554"
   inkscape:cy="353.10187"
   inkscape:window-width="1861"
   inkscape:window-height="1027"
   inkscape:window-x="59"
   inkscape:window-y="25"
   inkscape:window-maximized="1"
   inkscape:current-layer="svg24704" />

<path
   fill="none"
   stroke="#ec1c24"
   stroke-miterlimit="10"
   d="m 133.2,45.799 c 0,-19.88 16.12,-36 36,-36 h 110"
   id="path24066"
   style="stroke:none" /><path
   fill="none"
   stroke="#ec1c24"
   stroke-miterlimit="10"
   d="m 315.2,45.799 c 0,-19.88 -16.12,-36 -36,-36"
   id="path24068"
   style="stroke:none" /><polyline
   fill="none"
   stroke="#ec1c24"
   stroke-miterlimit="10"
   points="430.4,469 430.4,523.199 612.4,523.199 612.4,415    "
   id="polyline24070"
   style="stroke:none" /><polyline
   fill="none"
   stroke="#ec1c24"
   stroke-miterlimit="10"
   points="315.2,469 430.4,469 430.4,415    "
   id="polyline24072"
   style="stroke:none" /><polyline
   fill="none"
   stroke="#ec1c24"
   stroke-miterlimit="10"
   points="133.2,469 133.2,530.199 315.2,530.199 315.2,469      315.2,415    "
   id="polyline24074"
   style="stroke:none" /><polyline
   fill="none"
   stroke="#ec1c24"
   stroke-miterlimit="10"
   points="18,415 18,469 133.2,469 133.2,415    "
   id="polyline24076"
   style="stroke:none" />

<g
   id="g25835"
   transform="scale(4.1666667)"><g
     id="Background">
	<polygon
   fill="#929497"
   points="738,0 0,0 0,540 738,540 "
   id="polygon24045" />
</g><g
     id="g25733"><path
       fill="#ffffff"
       d="m 315.2,469 v 61.199 h -182 V 469 H 18 V 415 161 c 0,-29.82 24.18,-54 54,-54 h 61.2 V 45.8 c 0,-19.88 16.12,-36 36,-36 h 110 c 19.88,0 36,16.12 36,36 V 107 h 61.2 c 29.819,0 54,24.18 54,54 h 73 c 0,22 36,22 36,0 h 73 108 v 254 h -108 v 108.199 h -182 V 469 Z"
       id="path24048"
       style="stroke:none" /><g
       id="g25634"><line
         fill="none"
         stroke="#ec1c24"
         stroke-miterlimit="10"
         x1="18"
         y1="415"
         x2="18"
         y2="161"
         id="line24052"
         style="stroke:none" /><path
         fill="none"
         stroke="#ec1c24"
         stroke-miterlimit="10"
         d="m 612.4,161 h -73 c 0,22 -36,22 -36,0 h -73"
         id="path24054"
         style="stroke:none" /><polyline
         fill="none"
         stroke="#ec1c24"
         stroke-miterlimit="10"
         points="612.4,415 720.4,415 720.4,161 612.4,161    "
         id="polyline24056"
         style="stroke:none" /><path
         fill="none"
         stroke="#ec1c24"
         stroke-miterlimit="10"
         d="m 18,161 c 0,-29.82 24.18,-54 54,-54 h 61.2"
         id="path24058"
         style="stroke:none" /><path
         fill="none"
         stroke="#ec1c24"
         stroke-miterlimit="10"
         d="m 430.4,161 c 0,-29.82 -24.181,-54 -54,-54 h -61.2"
         id="path24060"
         style="stroke:none" /><polyline
         fill="none"
         stroke="#ec1c24"
         stroke-miterlimit="10"
         points="133.2,189.799 133.2,107 133.2,45.799 162,45.799    "
         id="polyline24062"
         style="stroke:none" /><polyline
         fill="none"
         stroke="#ec1c24"
         stroke-miterlimit="10"
         points="315.2,189.799 315.2,107 315.2,45.799 286.4,45.799         "
         id="polyline24064"
         style="stroke:none" /><g
         id="folds">
	<line
   fill="none"
   stroke="#8bc53f"
   stroke-miterlimit="10"
   x1="160.946"
   y1="45.799999"
   x2="287.746"
   y2="45.799999"
   id="line24082" />
	<rect
   x="133.34599"
   y="190.067"
   fill="none"
   stroke="#8bc53f"
   stroke-miterlimit="10"
   width="181.99899"
   height="225.201"
   id="rect24084" />
	<line
   fill="none"
   stroke="#8bc53f"
   stroke-miterlimit="10"
   x1="143.769"
   y1="415.26801"
   x2="18"
   y2="415.26801"
   id="line24086" />
	<line
   fill="none"
   stroke="#8bc53f"
   stroke-miterlimit="10"
   x1="143.769"
   y1="161.26801"
   x2="18"
   y2="161.26801"
   id="line24088" />
	<polyline
   fill="none"
   stroke="#8bc53f"
   stroke-miterlimit="10"
   points="315.113,415.268 430.4,415.268 430.4,161.268    315.113,161.268  "
   id="polyline24090" />
	<line
   fill="none"
   stroke="#8bc53f"
   stroke-miterlimit="10"
   x1="612.36902"
   y1="415.26801"
   x2="612.36902"
   y2="161.26801"
   id="line24092" />
	<line
   fill="none"
   stroke="#8bc53f"
   stroke-miterlimit="10"
   x1="144.15601"
   y1="161.26801"
   x2="326.155"
   y2="161.26801"
   id="line24094" />
	<line
   fill="none"
   stroke="#8bc53f"
   stroke-miterlimit="10"
   x1="419.36899"
   y1="415.26801"
   x2="612.40002"
   y2="415.26801"
   id="line24096" />
</g><g
         id="g24563">
		<g
   id="g24561">
			<g
   id="g24559">
				<path
   fill="none"
   stroke="#00adee"
   stroke-miterlimit="10"
   stroke-dasharray="5"
   d="m 548.442,171.592 h -2.462 c -0.084,0.526 -0.258,1.067 -0.539,1.613 -0.118,0.23 -0.239,0.459 -0.365,0.685"
   id="path24535" />
				<path
   fill="none"
   stroke="#00adee"
   stroke-miterlimit="10"
   stroke-dasharray="5"
   d="m 542.521,177.778 c -5.709,7.327 -14.734,11.671 -24.164,10.624 -8.46,-0.939 -17.262,-4.807 -21.549,-12.349"
   id="path24537" />
				<path
   fill="none"
   stroke="#00adee"
   stroke-miterlimit="10"
   stroke-dasharray="5"
   d="m 495.78,173.97 c -0.133,-0.314 -0.257,-0.633 -0.375,-0.958 -0.181,-0.499 -0.273,-0.972 -0.306,-1.42 h -2.462"
   id="path24539" />
				
					<line
   fill="none"
   stroke="#00adee"
   stroke-miterlimit="10"
   stroke-dasharray="5"
   x1="488.11301"
   y1="171.592"
   x2="445.133"
   y2="171.592"
   id="line24541" />
				<polyline
   fill="none"
   stroke="#00adee"
   stroke-miterlimit="10"
   stroke-dasharray="5"
   points="442.87,171.592 440.408,171.592       440.408,174.079     "
   id="polyline24543" />
				
					<line
   fill="none"
   stroke="#00adee"
   stroke-miterlimit="10"
   stroke-dasharray="5"
   x1="440.40799"
   y1="178.97501"
   x2="440.40799"
   y2="401.76901"
   id="line24545" />
				<polyline
   fill="none"
   stroke="#00adee"
   stroke-miterlimit="10"
   stroke-dasharray="5"
   points="440.408,404.218 440.408,406.704       442.87,406.704     "
   id="polyline24547" />
				
					<line
   fill="none"
   stroke="#00adee"
   stroke-miterlimit="10"
   stroke-dasharray="5"
   x1="447.93301"
   y1="406.70401"
   x2="597.25702"
   y2="406.70401"
   id="line24549" />
				<polyline
   fill="none"
   stroke="#00adee"
   stroke-miterlimit="10"
   stroke-dasharray="5"
   points="599.789,406.704 602.251,406.704       602.251,404.218     "
   id="polyline24551" />
				
					<line
   fill="none"
   stroke="#00adee"
   stroke-miterlimit="10"
   stroke-dasharray="5"
   x1="602.25098"
   y1="399.32101"
   x2="602.25098"
   y2="176.52699"
   id="line24553" />
				<polyline
   fill="none"
   stroke="#00adee"
   stroke-miterlimit="10"
   stroke-dasharray="5"
   points="602.251,174.079 602.251,171.592       599.789,171.592     "
   id="polyline24555" />
				
					<line
   fill="none"
   stroke="#00adee"
   stroke-miterlimit="10"
   stroke-dasharray="5"
   x1="595.12201"
   y1="171.592"
   x2="550.77698"
   y2="171.592"
   id="line24557" />
			</g>
		</g>
	</g><g
         id="g24585">
		<g
   id="g24583">
			<g
   id="g24581">
				<polyline
   fill="none"
   stroke="#00adee"
   stroke-miterlimit="10"
   stroke-dasharray="5"
   points="305.807,404.183 305.807,406.669       303.346,406.669     "
   id="polyline24565" />
				
					<line
   fill="none"
   stroke="#00adee"
   stroke-miterlimit="10"
   stroke-dasharray="5"
   x1="298.28299"
   y1="406.66901"
   x2="148.966"
   y2="406.66901"
   id="line24567" />
				<polyline
   fill="none"
   stroke="#00adee"
   stroke-miterlimit="10"
   stroke-dasharray="5"
   points="146.436,406.669 143.974,406.669       143.974,404.183     "
   id="polyline24569" />
				
					<line
   fill="none"
   stroke="#00adee"
   stroke-miterlimit="10"
   stroke-dasharray="5"
   x1="143.974"
   y1="399.28601"
   x2="143.974"
   y2="176.491"
   id="line24571" />
				<polyline
   fill="none"
   stroke="#00adee"
   stroke-miterlimit="10"
   stroke-dasharray="5"
   points="143.974,174.043 143.974,171.557       146.436,171.557     "
   id="polyline24573" />
				
					<line
   fill="none"
   stroke="#00adee"
   stroke-miterlimit="10"
   stroke-dasharray="5"
   x1="151.49699"
   y1="171.55701"
   x2="300.814"
   y2="171.55701"
   id="line24575" />
				<polyline
   fill="none"
   stroke="#00adee"
   stroke-miterlimit="10"
   stroke-dasharray="5"
   points="303.346,171.557 305.807,171.557       305.807,174.043     "
   id="polyline24577" />
				
					<line
   fill="none"
   stroke="#00adee"
   stroke-miterlimit="10"
   stroke-dasharray="5"
   x1="305.80701"
   y1="178.94"
   x2="305.80701"
   y2="401.73401"
   id="line24579" />
			</g>
		</g>
	</g><g
         id="g24615">
		<g
   id="g24613">
			<g
   id="g24611">
				<polyline
   fill="none"
   stroke="#00adee"
   stroke-miterlimit="10"
   stroke-dasharray="6.4298"
   points="305.807,133.128       305.807,151.666 303.346,151.666     "
   id="polyline24595" />
				
					<line
   fill="none"
   stroke="#00adee"
   stroke-miterlimit="10"
   stroke-dasharray="6.4298"
   x1="298.28299"
   y1="151.666"
   x2="148.966"
   y2="151.666"
   id="line24597" />
				<polyline
   fill="none"
   stroke="#00adee"
   stroke-miterlimit="10"
   stroke-dasharray="6.4298"
   points="146.436,151.666       143.974,151.666 143.974,133.128     "
   id="polyline24599" />
				
					<line
   fill="none"
   stroke="#00adee"
   stroke-miterlimit="10"
   stroke-dasharray="6.4298"
   x1="143.974"
   y1="113.639"
   x2="143.974"
   y2="84.402"
   id="line24601" />
				<polyline
   fill="none"
   stroke="#00adee"
   stroke-miterlimit="10"
   stroke-dasharray="6.4298"
   points="143.974,74.659       143.974,56.121 146.436,56.121     "
   id="polyline24603" />
				
					<line
   fill="none"
   stroke="#00adee"
   stroke-miterlimit="10"
   stroke-dasharray="6.4298"
   x1="151.49699"
   y1="56.120998"
   x2="300.814"
   y2="56.120998"
   id="line24605" />
				<polyline
   fill="none"
   stroke="#00adee"
   stroke-miterlimit="10"
   stroke-dasharray="6.4298"
   points="303.346,56.121       305.807,56.121 305.807,74.659     "
   id="polyline24607" />
				
					<line
   fill="none"
   stroke="#00adee"
   stroke-miterlimit="10"
   stroke-dasharray="6.4298"
   x1="305.80701"
   y1="94.147003"
   x2="305.80701"
   y2="123.381"
   id="line24609" />
			</g>
		</g>
	</g><g
         id="g24637">
		<g
   id="g24635">
			<g
   id="g24633">
				<polyline
   fill="none"
   stroke="#00adee"
   stroke-miterlimit="10"
   stroke-dasharray="6.3702"
   points="306.057,503.129       306.057,521.664 303.596,521.664     "
   id="polyline24617" />
				
					<line
   fill="none"
   stroke="#00adee"
   stroke-miterlimit="10"
   stroke-dasharray="6.3702"
   x1="298.53299"
   y1="521.664"
   x2="149.216"
   y2="521.664"
   id="line24619" />
				<polyline
   fill="none"
   stroke="#00adee"
   stroke-miterlimit="10"
   stroke-dasharray="6.3702"
   points="146.686,521.664       144.224,521.664 144.224,503.129     "
   id="polyline24621" />
				
					<line
   fill="none"
   stroke="#00adee"
   stroke-miterlimit="10"
   stroke-dasharray="6.3702"
   x1="144.224"
   y1="483.646"
   x2="144.224"
   y2="454.423"
   id="line24623" />
				<polyline
   fill="none"
   stroke="#00adee"
   stroke-miterlimit="10"
   stroke-dasharray="6.3702"
   points="144.224,444.678       144.224,426.148 146.686,426.148     "
   id="polyline24625" />
				
					<line
   fill="none"
   stroke="#00adee"
   stroke-miterlimit="10"
   stroke-dasharray="6.3702"
   x1="151.74699"
   y1="426.14801"
   x2="301.064"
   y2="426.14801"
   id="line24627" />
				<polyline
   fill="none"
   stroke="#00adee"
   stroke-miterlimit="10"
   stroke-dasharray="6.3702"
   points="303.596,426.148       306.057,426.148 306.057,444.678     "
   id="polyline24629" />
				
					<line
   fill="none"
   stroke="#00adee"
   stroke-miterlimit="10"
   stroke-dasharray="6.3702"
   x1="306.05701"
   y1="464.168"
   x2="306.05701"
   y2="493.39099"
   id="line24631" />
			</g>
		</g>
	</g><g
         id="g24661">
		<g
   id="g24659">
			<g
   id="g24657">
				<polyline
   fill="none"
   stroke="#00adee"
   stroke-miterlimit="10"
   stroke-dasharray="6.3882"
   points="124.495,404.183       124.495,406.669 123.017,406.669     "
   id="polyline24641" />
				
					<line
   fill="none"
   stroke="#00adee"
   stroke-miterlimit="10"
   stroke-dasharray="6.3882"
   x1="119.978"
   y1="406.66901"
   x2="30.330999"
   y2="406.66901"
   id="line24643" />
				<polyline
   fill="none"
   stroke="#00adee"
   stroke-miterlimit="10"
   stroke-dasharray="6.3882"
   points="28.812,406.669       27.333,406.669 27.333,404.183     "
   id="polyline24645" />
				
					<line
   fill="none"
   stroke="#00adee"
   stroke-miterlimit="10"
   stroke-dasharray="6.3882"
   x1="27.333"
   y1="399.28601"
   x2="27.333"
   y2="176.491"
   id="line24647" />
				<polyline
   fill="none"
   stroke="#00adee"
   stroke-miterlimit="10"
   stroke-dasharray="6.3882"
   points="27.333,174.043       27.333,171.557 28.812,171.557     "
   id="polyline24649" />
				
					<line
   fill="none"
   stroke="#00adee"
   stroke-miterlimit="10"
   stroke-dasharray="6.3882"
   x1="31.851"
   y1="171.55701"
   x2="121.497"
   y2="171.55701"
   id="line24651" />
				<polyline
   fill="none"
   stroke="#00adee"
   stroke-miterlimit="10"
   stroke-dasharray="6.3882"
   points="123.017,171.557       124.495,171.557 124.495,174.043     "
   id="polyline24653" />
				
					<line
   fill="none"
   stroke="#00adee"
   stroke-miterlimit="10"
   stroke-dasharray="6.3882"
   x1="124.495"
   y1="178.94"
   x2="124.495"
   y2="401.73401"
   id="line24655" />
			</g>
		</g>
	</g><g
         id="g24679">
		<g
   id="g24677">
			<g
   id="g24675">
				<path
   fill="none"
   stroke="#00adee"
   stroke-miterlimit="10"
   stroke-dasharray="5.5572"
   d="M 335.974,176.491"
   id="path24663" />
				<path
   fill="none"
   stroke="#00adee"
   stroke-miterlimit="10"
   stroke-dasharray="5.5572"
   d="M 335.974,399.286"
   id="path24665" />
				<path
   fill="none"
   stroke="#00adee"
   stroke-miterlimit="10"
   stroke-dasharray="5.5572"
   d="M 407.232,171.557"
   id="path24667" />
				<path
   fill="none"
   stroke="#00adee"
   stroke-miterlimit="10"
   stroke-dasharray="5.5572"
   d="M 339.391,171.557"
   id="path24669" />
				<path
   fill="none"
   stroke="#00adee"
   stroke-miterlimit="10"
   stroke-dasharray="5.5572"
   d="M 409.5,401.734"
   id="path24671" />
				<path
   fill="none"
   stroke="#00adee"
   stroke-miterlimit="10"
   stroke-dasharray="5.5572"
   d="M 409.5,178.94"
   id="path24673" />
			</g>
		</g>
	</g><g
         id="g24701">
		<g
   id="g24699">
			<g
   id="g24697">
				<polyline
   fill="none"
   stroke="#00adee"
   stroke-miterlimit="10"
   stroke-dasharray="6.3882"
   points="421.381,403.337       421.381,405.823 419.902,405.823     "
   id="polyline24681" />
				
					<line
   fill="none"
   stroke="#00adee"
   stroke-miterlimit="10"
   stroke-dasharray="6.3882"
   x1="416.86301"
   y1="405.823"
   x2="327.21701"
   y2="405.823"
   id="line24683" />
				<polyline
   fill="none"
   stroke="#00adee"
   stroke-miterlimit="10"
   stroke-dasharray="6.3882"
   points="325.698,405.823       324.22,405.823 324.22,403.337     "
   id="polyline24685" />
				
					<line
   fill="none"
   stroke="#00adee"
   stroke-miterlimit="10"
   stroke-dasharray="6.3882"
   x1="324.22"
   y1="398.44"
   x2="324.22"
   y2="175.646"
   id="line24687" />
				<polyline
   fill="none"
   stroke="#00adee"
   stroke-miterlimit="10"
   stroke-dasharray="6.3882"
   points="324.22,173.197       324.22,170.711 325.698,170.711     "
   id="polyline24689" />
				
					<line
   fill="none"
   stroke="#00adee"
   stroke-miterlimit="10"
   stroke-dasharray="6.3882"
   x1="328.737"
   y1="170.711"
   x2="418.383"
   y2="170.711"
   id="line24691" />
				<polyline
   fill="none"
   stroke="#00adee"
   stroke-miterlimit="10"
   stroke-dasharray="6.3882"
   points="419.902,170.711       421.381,170.711 421.381,173.197     "
   id="polyline24693" />
				
					<line
   fill="none"
   stroke="#00adee"
   stroke-miterlimit="10"
   stroke-dasharray="6.3882"
   x1="421.38101"
   y1="178.095"
   x2="421.38101"
   y2="400.88901"
   id="line24695" />
			</g>
		</g>
	</g></g></g></g>
</svg>
