<?xml version="1.0" encoding="UTF-8" standalone="no"?>
<svg
   viewBox="0 0 3600 3000"
   version="1.1"
   id="svg30950"
   sodipodi:docname="smallStoutBoxTop.svg"
   inkscape:version="1.2.2 (b0a8486, 2022-12-01)"
   width="3600"
   height="3000"
   xmlns:inkscape="http://www.inkscape.org/namespaces/inkscape"
   xmlns:sodipodi="http://sodipodi.sourceforge.net/DTD/sodipodi-0.dtd"
   xmlns="http://www.w3.org/2000/svg"
   xmlns:svg="http://www.w3.org/2000/svg">
  <sodipodi:namedview
     id="namedview30952"
     pagecolor="#ffffff"
     bordercolor="#666666"
     borderopacity="1.0"
     inkscape:showpageshadow="2"
     inkscape:pageopacity="0.0"
     inkscape:pagecheckerboard="0"
     inkscape:deskcolor="#d1d1d1"
     showgrid="false"
     inkscape:zoom="0.60902778"
     inkscape:cx="472.88483"
     inkscape:cy="582.07526"
     inkscape:window-width="1861"
     inkscape:window-height="1027"
     inkscape:window-x="59"
     inkscape:window-y="25"
     inkscape:window-maximized="1"
     inkscape:current-layer="svg30950" />
  <defs
     id="defs30234">
    <style
       id="style30232">
      .cls-1, .cls-2, .cls-3, .cls-4, .cls-5, .cls-6, .cls-7, .cls-8, .cls-9, .cls-10, .cls-11, .cls-12, .cls-13, .cls-14, .cls-15, .cls-16, .cls-17, .cls-18 {
        fill: none;
      }

      .cls-19 {
        letter-spacing: -.018em;
      }

      .cls-20 {
        font-size: 10.147px;
      }

      .cls-20, .cls-21, .cls-22 {
        font-family: Arial-Black, Arial Black;
      }

      .cls-20, .cls-21, .cls-22, .cls-23, .cls-24, .cls-25, .cls-26, .cls-27 {
        isolation: isolate;
      }

      .cls-20, .cls-21, .cls-22, .cls-27 {
        fill: #231f20;
      }

      .cls-21 {
        font-size: 12.177px;
      }

      .cls-28 {
        letter-spacing: -.043em;
      }

      .cls-2 {
        stroke-dasharray: 0 0 4.938 4.938;
      }

      .cls-2, .cls-3, .cls-4, .cls-5, .cls-6, .cls-7, .cls-8, .cls-9, .cls-10, .cls-11, .cls-12, .cls-13, .cls-14, .cls-17, .cls-18 {
        stroke-miterlimit: 10;
      }

      .cls-2, .cls-4, .cls-5, .cls-6, .cls-7, .cls-8, .cls-9, .cls-10, .cls-13, .cls-14 {
        stroke: #2ba8e0;
      }

      .cls-29 {
        letter-spacing: -.034em;
      }

      .cls-30 {
        letter-spacing: -.034em;
      }

      .cls-3 {
        stroke-width: .846px;
      }

      .cls-3, .cls-11, .cls-17, .cls-18 {
        stroke: #00a54e;
      }

      .cls-31 {
        fill: #020202;
      }

      .cls-32, .cls-25 {
        fill: #e9292f;
      }

      .cls-33 {
        fill: #fff;
      }

      .cls-34 {
        fill: #b7d335;
      }

      .cls-35 {
        fill: #d1d2d2;
      }

      .cls-36 {
        fill: #4f4b4c;
      }

      .cls-37 {
        letter-spacing: 0em;
      }

      .cls-22 {
        font-size: 9.001px;
      }

      .cls-23 {
        fill: #919395;
      }

      .cls-23, .cls-24, .cls-25 {
        font-size: 7.501px;
      }

      .cls-23, .cls-24, .cls-25, .cls-27 {
        font-family: Arial-BoldMT, Arial;
      }

      .cls-24 {
        fill: #30a2db;
      }

      .cls-4 {
        stroke-dasharray: 0 0 4.954 4.954;
      }

      .cls-38 {
        letter-spacing: -.025em;
      }

      .cls-39 {
        letter-spacing: -.018em;
      }

      .cls-5 {
        stroke-dasharray: 0 0 4.954 4.954;
      }

      .cls-6 {
        stroke-dasharray: 0 0 4.963 4.963;
      }

      .cls-7 {
        stroke-dasharray: 0 0 4.963 4.963;
      }

      .cls-40 {
        letter-spacing: -.037em;
      }

      .cls-8 {
        stroke-dasharray: 0 0 5.161 5.161;
      }

      .cls-41 {
        letter-spacing: -.037em;
      }

      .cls-42 {
        letter-spacing: .027em;
      }

      .cls-43 {
        letter-spacing: 0em;
      }

      .cls-44 {
        letter-spacing: -.055em;
      }

      .cls-45 {
        letter-spacing: .016em;
      }

      .cls-46 {
        letter-spacing: -.026em;
      }

      .cls-47 {
        letter-spacing: 0em;
      }

      .cls-9 {
        stroke-dasharray: 0 0 4.944 4.944;
      }

      .cls-48 {
        letter-spacing: 0em;
      }

      .cls-10 {
        stroke-dasharray: 0 0 5.058 5.058;
      }

      .cls-12 {
        stroke: red;
      }

      .cls-14 {
        stroke-dasharray: 0 0 4.943 4.943;
      }

      .cls-49 {
        opacity: .5;
      }

      .cls-50 {
        letter-spacing: 0em;
      }

      .cls-15 {
        stroke: #919395;
      }

      .cls-16 {
        stroke: #e9292f;
      }

      .cls-51 {
        letter-spacing: -.017em;
      }

      .cls-52 {
        letter-spacing: -.017em;
      }

      .cls-27 {
        font-size: 7.528px;
      }

      .cls-17 {
        stroke-width: .999px;
      }

      .cls-18 {
        stroke-width: .999px;
      }

      .cls-53 {
        letter-spacing: -.026em;
      }
    </style>
  </defs>
  <g
     id="g31492"
     transform="scale(4.1666667)">
    <g
       id="Bleed_Zone"
       data-name="Bleed Zone">
      <path
         class="cls-49"
         d="M 0,0 V 720 H 864 V 0 Z m 851,496.271 h -46.799 v 4.252 l -154.745,2.159 64.296,62.103 v 84.724 h -52.843 l -4.252,4.252 h -7.2 l -4.252,49.179 H 218.797 l -4.252,-49.179 h -7.2 l -4.252,-4.252 h -52.844 v -84.724 l 64.297,-62.103 -154.745,-2.159 v -4.252 H 13.002 V 224.087 h 46.799 v -4.252 L 214.546,217.676 150.25,155.573 V 70.849 h 52.843 l 4.252,-4.252 h 7.2 l 4.252,-49.179 h 426.408 l 4.252,49.179 h 7.2 l 4.252,4.252 h 52.844 v 84.724 l -64.297,62.103 154.745,2.159 v 4.252 H 851 Z"
         id="path30236" />
    </g>
    <g
       id="Safe_Zone"
       data-name="Safe Zone">
      <g
         id="g30255">
        <polyline
           class="cls-13"
           points="226.045 493.503 223.545 493.503 223.545 491.003"
           id="polyline30239" />
        <line
           class="cls-9"
           x1="223.545"
           y1="486.05899"
           x2="223.545"
           y2="231.468"
           id="line30241" />
        <polyline
           class="cls-13"
           points="223.545 228.997 223.545 226.497 226.045 226.497"
           id="polyline30243" />
        <line
           class="cls-6"
           x1="231.008"
           y1="226.49699"
           x2="635.474"
           y2="226.49699"
           id="line30245" />
        <polyline
           class="cls-13"
           points="637.955 226.497 640.455 226.497 640.455 228.997"
           id="polyline30247" />
        <line
           class="cls-9"
           x1="640.45502"
           y1="233.94"
           x2="640.45502"
           y2="488.53101"
           id="line30249" />
        <polyline
           class="cls-13"
           points="640.455 491.003 640.455 493.503 637.955 493.503"
           id="polyline30251" />
        <line
           class="cls-6"
           x1="632.992"
           y1="493.50299"
           x2="228.526"
           y2="493.50299"
           id="line30253" />
      </g>
      <g
         id="g30273">
        <polyline
           class="cls-13"
           points="226.046 208.497 223.546 208.497 223.546 205.997"
           id="polyline30257" />
        <line
           class="cls-14"
           x1="223.54601"
           y1="201.054"
           x2="223.54601"
           y2="84.900002"
           id="line30259" />
        <polyline
           class="cls-13"
           points="223.546 82.428 223.546 79.928 226.046 79.928"
           id="polyline30261" />
        <line
           class="cls-7"
           x1="231.008"
           y1="79.928001"
           x2="635.47302"
           y2="79.928001"
           id="line30263" />
        <polyline
           class="cls-13"
           points="637.954 79.928 640.454 79.928 640.454 82.428"
           id="polyline30265" />
        <line
           class="cls-14"
           x1="640.45398"
           y1="87.371002"
           x2="640.45398"
           y2="203.52499"
           id="line30267" />
        <polyline
           class="cls-13"
           points="640.454 205.997 640.454 208.497 637.954 208.497"
           id="polyline30269" />
        <line
           class="cls-7"
           x1="632.992"
           y1="208.49699"
           x2="228.52699"
           y2="208.49699"
           id="line30271" />
      </g>
      <g
         id="g30291">
        <polyline
           class="cls-13"
           points="226.046 640.073 223.546 640.073 223.546 637.573"
           id="polyline30275" />
        <line
           class="cls-14"
           x1="223.54601"
           y1="632.63"
           x2="223.54601"
           y2="516.47601"
           id="line30277" />
        <polyline
           class="cls-13"
           points="223.546 514.004 223.546 511.504 226.046 511.504"
           id="polyline30279" />
        <line
           class="cls-7"
           x1="231.008"
           y1="511.504"
           x2="635.47302"
           y2="511.504"
           id="line30281" />
        <polyline
           class="cls-13"
           points="637.954 511.504 640.454 511.504 640.454 514.004"
           id="polyline30283" />
        <line
           class="cls-14"
           x1="640.45398"
           y1="518.94702"
           x2="640.45398"
           y2="635.10101"
           id="line30285" />
        <polyline
           class="cls-13"
           points="640.454 637.573 640.454 640.073 637.954 640.073"
           id="polyline30287" />
        <line
           class="cls-7"
           x1="632.992"
           y1="640.073"
           x2="228.52699"
           y2="640.073"
           id="line30289" />
      </g>
      <g
         id="g30309">
        <polyline
           class="cls-13"
           points="79.219 491.392 76.719 491.354 76.719 488.854"
           id="polyline30293" />
        <line
           class="cls-10"
           x1="76.719002"
           y1="483.79599"
           x2="76.719002"
           y2="233.431"
           id="line30295" />
        <polyline
           class="cls-13"
           points="76.719 230.902 76.719 228.402 79.219 228.367"
           id="polyline30297" />
        <line
           class="cls-5"
           x1="84.171997"
           y1="228.299"
           x2="200.569"
           y2="226.69"
           id="line30299" />
        <polyline
           class="cls-13"
           points="203.045 226.656 205.545 226.622 205.545 229.122"
           id="polyline30301" />
        <line
           class="cls-2"
           x1="205.545"
           y1="234.06"
           x2="205.545"
           y2="488.392"
           id="line30303" />
        <polyline
           class="cls-13"
           points="205.545 490.861 205.545 493.361 203.045 493.322"
           id="polyline30305" />
        <line
           class="cls-4"
           x1="198.092"
           y1="493.245"
           x2="81.695"
           y2="491.431"
           id="line30307" />
      </g>
      <g
         id="g30327">
        <polyline
           class="cls-13"
           points="784.948 228.59 787.447 228.629 787.447 231.129"
           id="polyline30311" />
        <line
           class="cls-10"
           x1="787.44702"
           y1="236.187"
           x2="787.44702"
           y2="486.552"
           id="line30313" />
        <polyline
           class="cls-13"
           points="787.447 489.081 787.447 491.581 784.948 491.616"
           id="polyline30315" />
        <line
           class="cls-5"
           x1="779.995"
           y1="491.68399"
           x2="663.59802"
           y2="493.293"
           id="line30317" />
        <polyline
           class="cls-13"
           points="661.122 493.327 658.622 493.361 658.622 490.861"
           id="polyline30319" />
        <line
           class="cls-2"
           x1="658.62201"
           y1="485.923"
           x2="658.62201"
           y2="231.591"
           id="line30321" />
        <polyline
           class="cls-13"
           points="658.622 229.122 658.622 226.622 661.121 226.661"
           id="polyline30323" />
        <line
           class="cls-4"
           x1="666.07501"
           y1="226.73801"
           x2="782.47101"
           y2="228.552"
           id="line30325" />
      </g>
    </g>
    <g
       id="Fold_Line"
       data-name="Fold Line">
      <rect
         class="cls-3"
         x="214.545"
         y="217.49699"
         width="434.91"
         height="285.00699"
         id="rect30330" />
      <rect
         class="cls-17"
         x="214.54601"
         y="502.50299"
         width="434.909"
         height="146.57001"
         id="rect30332" />
      <rect
         class="cls-18"
         x="214.54601"
         y="70.928001"
         width="434.909"
         height="146.569"
         id="rect30334" />
      <g
         id="g30340">
        <line
           class="cls-11"
           x1="796.28101"
           y1="219.787"
           x2="796.28101"
           y2="500.47501"
           id="line30336" />
        <line
           class="cls-11"
           x1="67.719002"
           y1="219.52499"
           x2="67.719002"
           y2="500.21301"
           id="line30338" />
      </g>
    </g>
    <g
       id="Trim_Line"
       data-name="Trim Line"
       style="stroke:none">
      <polygon
         class="cls-12"
         points="214.712,502.503 150.416,564.606 150.415,649.33 203.259,649.33 207.511,653.582 214.711,653.582 218.963,702.761 645.371,702.761 649.623,653.582 656.823,653.582 661.075,649.33 713.919,649.33 713.918,564.606 649.622,502.503 804.367,500.344 804.367,496.092 851.166,496.092 851.166,223.908 804.367,223.908 804.367,219.656 649.622,217.497 713.918,155.394 713.919,70.67 661.075,70.67 656.823,66.418 649.623,66.418 645.371,17.239 218.963,17.239 214.711,66.418 207.511,66.418 203.259,70.67 150.415,70.67 150.416,155.394 214.712,217.497 59.967,219.656 59.967,223.908 13.168,223.908 13.168,496.092 59.967,496.092 59.967,500.344 "
         id="polygon30945"
         style="stroke:none" />
      <polygon
         class="cls-12"
         points="214.545,502.503 150.249,564.606 150.248,649.33 203.092,649.33 207.344,653.582 214.544,653.582 218.796,702.761 645.204,702.761 649.456,653.582 656.656,653.582 660.908,649.33 713.752,649.33 713.751,564.606 649.455,502.503 804.2,500.344 804.2,496.092 850.999,496.092 850.999,223.908 804.2,223.908 804.2,219.656 649.455,217.497 713.751,155.394 713.752,70.67 660.908,70.67 656.656,66.418 649.456,66.418 645.204,17.239 218.796,17.239 214.544,66.418 207.344,66.418 203.092,70.67 150.248,70.67 150.249,155.394 214.545,217.497 59.8,219.656 59.8,223.908 13.001,223.908 13.001,496.092 59.8,496.092 59.8,500.344 "
         id="polygon30947"
         style="stroke:none" />
    </g>
  </g>
</svg>
