<?xml version="1.0" encoding="utf-8"?>
<!-- Generator: Adobe Illustrator 15.0.0, SVG Export Plug-In . SVG Version: 6.00 Build 0)  -->
<!DOCTYPE svg PUBLIC "-//W3C//DTD SVG 1.1//EN" "http://www.w3.org/Graphics/SVG/1.1/DTD/svg11.dtd">
<svg version="1.1" xmlns="http://www.w3.org/2000/svg" xmlns:xlink="http://www.w3.org/1999/xlink" x="0px" y="0px" width="108px"
	 height="108px" viewBox="0 0 108 108" enable-background="new 0 0 108 108" xml:space="preserve">
<g id="Outlines">
	<polygon fill="#757A7A" points="108,0 0,0 0,108 108,108 108,0 	"/>
	<path fill="#FFFFFF" stroke="#C92027" d="M54,9C29.148,9,9,29.147,9,54c0,24.853,20.148,45,45,45c24.854,0,45-20.147,45-45
		C99,29.147,78.854,9,54,9z M54,90c-19.881,0-36-16.118-36-36s16.119-36,36-36c19.883,0,36,16.118,36,36S73.883,90,54,90z"/>
</g>
<g id="Text">
	<g>
		<g>
			<path fill="#C82127" d="M7.842,2.476c0,0.23-0.104,0.45-0.309,0.669L7.5,3.177L5.688,5.084c-0.386,0.406-0.713,0.72-0.98,0.941
				c-0.274,0.219-0.466,0.33-0.576,0.33c-0.117,0-0.262-0.057-0.436-0.167C3.521,6.08,3.409,5.966,3.359,5.849
				c-0.045-0.1-0.087-0.305-0.122-0.624c-0.041-0.316-0.06-0.657-0.06-1.028c0-0.201,0.085-0.387,0.252-0.556
				C3.6,3.469,3.784,3.382,3.987,3.382c0.195,0,0.31,0.176,0.346,0.531c0.005,0.041,0.008,0.073,0.01,0.092
				c0.031,0.271,0.067,0.462,0.109,0.57c0.04,0.103,0.095,0.157,0.166,0.157c0.028,0,0.084-0.027,0.164-0.091
				c0.081-0.065,0.177-0.151,0.287-0.26L6.93,2.535c0.156-0.154,0.299-0.273,0.42-0.352C7.473,2.101,7.577,2.06,7.665,2.06
				c0.062,0,0.11,0.026,0.138,0.076c0.026,0.048,0.039,0.129,0.039,0.246V2.476z"/>
		</g>
		<text transform="matrix(0.9992 0 0 1 4.9482 6.7104)"><tspan x="0" y="0" fill="#121111" font-family="'Arial-Black'" font-size="2.9127">    </tspan><tspan x="3.885" y="0" fill="#121111" font-family="'Arial-Black'" font-size="4.656">Bleed Zone</tspan></text>
	</g>
	<g>
		<polygon fill="#DDDEDA" points="80.957,0 80.957,4.803 80.957,4.803 80.958,14.267 108,14.267 108,4.803 108,4.787 108,0 		"/>
		<text transform="matrix(0.9352 0 0 1 99.2285 6.7515)"><tspan x="0" y="0" fill="#121110" font-family="'Arial-Black'" font-size="1.047">PLEASE NOTE:</tspan><tspan x="-6.167" y="1.256" fill="#121110" font-family="'Arial-Black'" font-size="1.047">Remove this layer before </tspan><tspan x="-5.586" y="2.513" fill="#121110" font-family="'Arial-Black'" font-size="1.047">sending the file to print. </tspan><tspan x="-6.865" y="3.769" fill="#121110" font-family="'Arial-Black'" font-size="1.047">This layer is provided as a </tspan><tspan x="-1.165" y="5.026" fill="#121110" font-family="'Arial-Black'" font-size="1.047">guide for set up. </tspan><tspan x="-7.563" y="6.282" fill="#121110" font-family="'Arial-Black'" font-size="1.047">DELETE LAYER AFTER USE.</tspan></text>
		<g>
			<path fill="#C82127" d="M99.222,5.757c0,0.071-0.031,0.141-0.09,0.209l-0.012,0.01l-0.531,0.599
				c-0.112,0.128-0.21,0.227-0.287,0.294c-0.08,0.068-0.136,0.104-0.169,0.104c-0.034,0-0.078-0.018-0.128-0.052
				c-0.053-0.034-0.084-0.07-0.101-0.107c-0.01-0.031-0.022-0.096-0.034-0.195c-0.012-0.098-0.018-0.208-0.018-0.323
				c0-0.064,0.026-0.12,0.074-0.174c0.051-0.055,0.104-0.082,0.165-0.082c0.055,0,0.089,0.056,0.101,0.166
				c0.001,0.013,0.001,0.023,0.003,0.028c0.008,0.085,0.019,0.146,0.032,0.18c0.011,0.033,0.027,0.051,0.048,0.051
				c0.009,0,0.025-0.01,0.049-0.03c0.022-0.021,0.049-0.047,0.084-0.081l0.548-0.58c0.045-0.048,0.086-0.085,0.122-0.111
				c0.036-0.025,0.066-0.037,0.093-0.037c0.017,0,0.031,0.007,0.038,0.023c0.01,0.014,0.013,0.041,0.013,0.078V5.757z"/>
		</g>
		<g>
			<ellipse fill-rule="evenodd" clip-rule="evenodd" cx="86.143" cy="9.434" rx="3.914" ry="4.186"/>
			<ellipse fill-rule="evenodd" clip-rule="evenodd" fill="#9EC43B" cx="86.146" cy="9.457" rx="3.558" ry="3.805"/>
			<g>
				<path d="M85.386,8.63c-0.051,0.463-0.089,0.839-0.113,1.123l-0.161,0.006c0.003-0.009,0.004-0.021,0.004-0.033
					c0-0.02-0.009-0.047-0.022-0.083c-0.013-0.033-0.021-0.056-0.024-0.065c-0.043,0.007-0.08,0.039-0.122,0.092
					c-0.036,0.056-0.072,0.085-0.104,0.085c-0.018-0.001-0.036-0.007-0.06-0.017c-0.027,0.021-0.066,0.031-0.111,0.028
					c-0.043-0.008-0.083-0.015-0.122-0.021c-0.003-0.06-0.055-0.11-0.165-0.155c0.001-0.024-0.01-0.058-0.033-0.104
					c-0.019-0.046-0.031-0.08-0.031-0.099c0-0.021,0.007-0.039,0.024-0.052c-0.001-0.007-0.021-0.051-0.056-0.131
					c-0.021-0.06-0.033-0.112-0.033-0.153c0-0.034,0.007-0.064,0.021-0.094c-0.02-0.201-0.028-0.373-0.024-0.515
					c0.003-0.223,0.03-0.427,0.087-0.611c-0.002-0.03-0.004-0.057-0.004-0.086c0.002-0.148,0.05-0.251,0.145-0.308l0.001-0.046
					c0.091-0.125,0.213-0.217,0.364-0.273c0.09,0.023,0.179,0.044,0.271,0.066c0.104,0.036,0.17,0.099,0.209,0.19
					c0.031,0.02,0.043,0.059,0.042,0.118c0,0.067,0.009,0.107,0.023,0.127l-0.015,0.021c0.015,0.14,0.023,0.225,0.022,0.256
					c0,0.09-0.022,0.152-0.065,0.189c-0.017,0-0.057-0.017-0.12-0.045c-0.015,0.016-0.034,0.026-0.051,0.023
					c-0.009-0.001-0.026-0.003-0.048-0.016c-0.023-0.009-0.042-0.014-0.058-0.014c-0.012-0.001-0.022,0.002-0.034,0.006
					c0-0.187,0.004-0.325,0.018-0.417c-0.018-0.012-0.036-0.04-0.052-0.081C84.968,7.5,84.946,7.474,84.917,7.47
					c-0.019,0.023-0.028,0.037-0.024,0.047l-0.06-0.023c-0.055,0.062-0.089,0.171-0.108,0.327c-0.019,0.179-0.041,0.298-0.068,0.356
					c0.025,0.026,0.036,0.063,0.034,0.11c0,0.016-0.003,0.044-0.007,0.082c-0.005,0.037-0.009,0.065-0.009,0.084
					c0,0.021,0.003,0.04,0.008,0.058l-0.044,0.041c0.018,0.08,0.028,0.183,0.031,0.305c-0.003,0.104-0.003,0.207-0.003,0.312
					c-0.001,0-0.021,0.001-0.055,0.002c-0.023,0-0.04,0.009-0.047,0.024c0.014-0.002,0.023-0.003,0.035-0.003
					c0.049,0,0.085,0.039,0.114,0.11c0.029,0.073,0.052,0.109,0.073,0.11c0.02,0,0.051-0.022,0.089-0.066
					c0.065-0.074,0.097-0.176,0.101-0.306c0-0.065-0.006-0.133-0.021-0.207c-0.013,0.011-0.021,0.033-0.021,0.069
					c-0.036,0-0.059,0.009-0.068,0.024c-0.016-0.004-0.021-0.017-0.019-0.039c0.002-0.031,0.003-0.047,0.003-0.05
					c0.027-0.008,0.038-0.022,0.042-0.038c0-0.007-0.006-0.02-0.015-0.04c-0.012-0.018-0.017-0.033-0.017-0.045
					c0-0.01,0.005-0.02,0.01-0.029l0.014-0.137c0.05,0.015,0.155,0.021,0.316,0.02c-0.003,0.011,0,0.027,0.019,0.047
					c0.016-0.017,0.031-0.025,0.049-0.025c0.015,0,0.034,0.006,0.062,0.019C85.354,8.624,85.376,8.63,85.386,8.63z"/>
				<path d="M86.619,9.847c-0.031-0.015-0.063-0.022-0.099-0.022c-0.032-0.001-0.071,0.005-0.126,0.019
					c-0.061,0.012-0.103,0.019-0.124,0.023c-0.022-0.052-0.039-0.119-0.049-0.207c-0.019-0.129-0.029-0.2-0.032-0.218
					c0.007-0.012,0.009-0.025,0.009-0.033c0-0.027-0.019-0.051-0.055-0.071c-0.041-0.021-0.057-0.037-0.057-0.05
					c0-0.013,0.021-0.034,0.066-0.062c-0.01-0.013-0.02-0.042-0.024-0.086c-0.005-0.044-0.016-0.072-0.03-0.087
					c-0.028,0.026-0.069,0.041-0.132,0.049c-0.061,0.007-0.101,0.018-0.12,0.031c0,0.185-0.026,0.307-0.086,0.369
					c-0.029-0.007-0.054,0.005-0.069,0.038c-0.023,0.04-0.044,0.062-0.06,0.071l0.021,0.025c-0.019,0.014-0.045,0.023-0.088,0.019
					c-0.061-0.005-0.093-0.005-0.097-0.005l-0.02-0.064l0.216-1.91c0.003-0.121,0.007-0.202,0.018-0.245
					c-0.003-0.107,0.021-0.172,0.07-0.197c0.028,0.021,0.068,0.034,0.114,0.035c0.036,0,0.097-0.009,0.176-0.025
					c0.081-0.018,0.135-0.026,0.167-0.025c0.104,0.001,0.152,0.085,0.141,0.25c-0.011,0.131,0.008,0.306,0.057,0.521
					c0.053,0.234,0.078,0.407,0.077,0.522C86.48,8.545,86.49,8.62,86.488,8.653c-0.047,0.027-0.105,0.045-0.18,0.05
					c-0.064,0.004-0.129,0.008-0.195,0.012c-0.015-0.18-0.046-0.396-0.062-0.574c-0.021-0.211-0.048-0.386-0.081-0.524L85.87,8.625
					c-0.007,0.088,0.029,0.132,0.111,0.135c0.027,0,0.051-0.006,0.077-0.021c0.019-0.004,0.044,0.009,0.082,0.048
					C86.14,8.86,86.151,8.903,86.18,8.919c0.037-0.025,0.083-0.05,0.141-0.071c0.05-0.021,0.103-0.04,0.151-0.059
					c0.027,0.042,0.046,0.102,0.051,0.184c0.011,0.112,0.018,0.177,0.022,0.197c0.003,0.045,0.021,0.142,0.051,0.291
					c0.021,0.117,0.033,0.213,0.033,0.288C86.628,9.784,86.625,9.816,86.619,9.847z"/>
				<path d="M88.143,8.163C88.14,8.169,88.14,8.209,88.14,8.286c0,0.061-0.007,0.106-0.021,0.138
					c-0.017,0.045-0.026,0.113-0.027,0.2c0,0.02,0,0.05,0.001,0.089c0,0.041-0.001,0.07-0.001,0.09
					c-0.002,0.146-0.025,0.254-0.071,0.322c0.007,0.038,0.008,0.077,0.008,0.114c-0.002,0.118-0.043,0.278-0.114,0.476
					c-0.02,0.008-0.039,0.009-0.052,0.009c-0.024,0-0.045-0.017-0.057-0.047c-0.01-0.034-0.021-0.063-0.032-0.092
					c0.009-0.18,0.003-0.446-0.012-0.793l0.021-0.021c-0.015-0.061-0.021-0.129-0.021-0.205c0.003-0.055,0.009-0.133,0.021-0.236
					c0.012-0.105,0.017-0.183,0.017-0.235c0-0.033,0-0.063-0.001-0.094c-0.076,0.193-0.131,0.522-0.158,0.987l-0.031,0.07
					c-0.01,0.024-0.026,0.036-0.055,0.039c-0.011-0.017-0.018-0.024-0.026-0.024c-0.008,0-0.019,0.007-0.035,0.024
					c-0.019,0.017-0.032,0.023-0.044,0.022l-0.042,0.042c0.02,0.026,0.06,0.028,0.125,0.009c0.052-0.015,0.077,0.005,0.078,0.062
					c0.001,0.047-0.012,0.112-0.035,0.189c-0.025,0.08-0.038,0.142-0.042,0.18c0,0.029,0.006,0.058,0.01,0.085l-0.228,0.04
					c-0.022-0.048-0.036-0.128-0.048-0.24c-0.013-0.112-0.027-0.193-0.048-0.241c0.014-0.014,0.02-0.032,0.02-0.052
					c0-0.017-0.005-0.041-0.018-0.074c-0.013-0.034-0.021-0.059-0.022-0.076c-0.001-0.025-0.01-0.087-0.023-0.187
					c-0.01-0.081-0.013-0.144-0.012-0.188c0-0.024,0.001-0.044,0.002-0.063c0-0.017-0.008-0.042-0.023-0.074
					c-0.018-0.033-0.026-0.056-0.024-0.07c0-0.012,0.002-0.021,0.011-0.031c-0.013-0.02-0.021-0.052-0.02-0.1
					c0.005-0.048-0.001-0.081-0.016-0.098c-0.033,0.09-0.051,0.212-0.054,0.369c-0.001,0.218-0.001,0.343-0.004,0.377l0.022,0.021
					l-0.023,0.02c0.016,0.086,0.023,0.195,0.021,0.326c-0.006,0.238-0.01,0.349-0.01,0.333c-0.029,0.029-0.073,0.045-0.131,0.042
					c-0.065,0-0.113,0.006-0.14,0.019c-0.026-0.05-0.041-0.118-0.036-0.201c0-0.064,0.01-0.141,0.029-0.234
					c-0.029-0.06-0.045-0.142-0.041-0.248c0-0.027,0.002-0.076,0.007-0.149c0.005-0.059,0.005-0.104,0.001-0.131
					c0.024-0.01,0.034-0.023,0.034-0.039c0-0.009-0.005-0.025-0.021-0.049c-0.015-0.021-0.02-0.038-0.02-0.05
					c0-0.015,0.01-0.028,0.027-0.042l-0.072-1.144c0.043-0.03,0.111-0.045,0.206-0.042c0.103,0.003,0.177-0.003,0.214-0.018
					c0.004-0.005,0.013-0.008,0.021-0.008c0.012,0.002,0.02,0.006,0.03,0.019c0.011,0.01,0.02,0.014,0.025,0.014
					c0.007,0,0.016-0.005,0.022-0.02l0.062,0.065c0.021,0.083,0.042,0.244,0.06,0.482c0.018,0.206,0.048,0.362,0.088,0.465
					c0.054-0.208,0.1-0.383,0.135-0.524l0.072-0.56l0.512-0.012c0,0.031,0.009,0.193,0.023,0.29c0.01,0.082,0.017,0.15,0.017,0.202
					c-0.001,0.059-0.011,0.113-0.027,0.159c0.018,0.024,0.027,0.059,0.026,0.099C88.172,8.103,88.161,8.136,88.143,8.163z"/>
				<path d="M89.196,9.403V9.398c-0.016,0.032-0.023,0.065-0.024,0.106c-0.002,0.025-0.005,0.062,0,0.108c0,0.054,0,0.093,0,0.113
					c-0.018,0-0.09,0-0.212-0.003c-0.076,0-0.146,0.005-0.203,0.022l-0.062-0.073c-0.02,0.02-0.024,0.034-0.021,0.047
					c-0.01-0.004-0.06-0.004-0.151-0.004c-0.069-0.001-0.122-0.009-0.159-0.023c-0.035,0.038-0.077,0.038-0.124-0.003
					c-0.019-0.015-0.022-0.04-0.007-0.072c0.015-0.034,0.01-0.06-0.012-0.077c0.004-0.075,0.016-0.191,0.028-0.351
					c0.014-0.14,0.025-0.25,0.025-0.332c0.001-0.108-0.006-0.212-0.022-0.312c0.026-0.025,0.054-0.038,0.084-0.036
					c0.036,0,0.078,0.019,0.123,0.055c0.071,0.05,0.105,0.077,0.107,0.077l0.02,0.024c0.003-0.007,0.015-0.043,0.034-0.113
					c0.013-0.044,0.029-0.073,0.051-0.086l0.021,0.021c0.007-0.005,0.037-0.025,0.086-0.064c0.036-0.029,0.069-0.093,0.092-0.093
					c0.022,0.001,0.045,0.015,0.068,0.044c0.035,0.02,0.059,0.105,0.069,0.149c0.012,0.045,0.025,0.086,0.036,0.13
					c-0.101,0.004-0.182,0-0.246-0.008c-0.017,0.026-0.039,0.03-0.067,0.012c-0.027-0.018-0.05-0.015-0.061,0.007
					c0,0.042-0.002,0.12-0.006,0.23c-0.003,0.099-0.005,0.176-0.003,0.232c0.001,0.088,0.007,0.168,0.015,0.241
					c0.02,0,0.103,0.001,0.252,0.005C89.033,9.374,89.121,9.384,89.196,9.403z M89.203,7.706c-0.021,0.003-0.043,0.003-0.064,0.003
					c-0.053,0-0.122-0.009-0.202-0.024c-0.104-0.017-0.169-0.026-0.189-0.029c-0.032,0.048-0.048,0.119-0.05,0.208
					c-0.002,0.193-0.002,0.277,0,0.251c0.03,0.02,0.045,0.056,0.045,0.107C88.74,8.293,88.739,8.33,88.74,8.332
					c-0.014,0.006-0.024,0.031-0.025,0.07c-0.022-0.009-0.047-0.029-0.076-0.059c-0.034-0.035-0.053,0.087-0.049,0.056l-0.021,0.073
					L88.548,8.45c-0.017,0.003-0.047-0.007-0.091-0.028c-0.042-0.023-0.072-0.043-0.087-0.063c0-0.037,0.005-0.059,0.015-0.063
					l-0.043-0.051l-0.019,0.033c-0.026-0.246-0.02-0.705,0.012-0.965c0.084,0.016,0.177,0.026,0.279,0.031
					c0.066,0.004,0.163,0.005,0.288,0.005c0.142,0,0.24,0,0.303,0c0.027,0.028,0.041,0.062,0.04,0.105
					c0,0.026-0.01,0.067-0.022,0.126C89.211,7.635,89.204,7.679,89.203,7.706z"/>
			</g>
			<g>
				<path d="M85.482,11.543v-0.004c0,0-0.005,0.053-0.016,0.156c-0.006,0.062-0.021,0.111-0.042,0.148l-0.015-0.012
					c-0.029,0.06-0.064,0.098-0.111,0.11c-0.02,0.024-0.053,0.039-0.095,0.042c-0.025,0-0.081-0.006-0.17-0.023
					c-0.045-0.03-0.067-0.045-0.072-0.048c-0.027-0.021-0.04-0.044-0.039-0.066c-0.028-0.03-0.062-0.081-0.077-0.145
					c-0.018-0.072-0.028-0.076-0.042-0.101c-0.025,0.021-0.036-0.021-0.048-0.046l0.012-0.011c-0.009-0.007-0.012-0.014-0.012-0.021
					c0-0.005,0.001-0.013,0.004-0.025c0.007-0.012,0.008-0.019,0.008-0.024c0-0.009-0.007-0.017-0.016-0.023
					c0.009-0.055,0.021-0.139,0.028-0.25c0.019-0.011,0.026-0.029,0.026-0.058c-0.001-0.031,0.001-0.049,0.011-0.059
					c0.043-0.09,0.111-0.151,0.205-0.182c0.004,0,0.031,0,0.076,0c0.032-0.002,0.057,0.001,0.069,0.008
					c0.031-0.006,0.057,0.003,0.087,0.022c0.025,0.02,0.049,0.039,0.075,0.06c0.046,0.053,0.068,0.113,0.071,0.181
					c0,0.022,0,0.045-0.003,0.069c-0.033,0-0.056,0.024-0.071,0.073l-0.13,0.014c-0.019-0.021-0.027-0.05-0.028-0.086
					c-0.001-0.012-0.001-0.029,0-0.053s0.001-0.042,0-0.054c-0.002-0.036-0.011-0.065-0.022-0.089l-0.041,0.026
					c-0.015-0.007-0.023-0.017-0.023-0.032c-0.001-0.004,0-0.009,0.001-0.019c0.001-0.008,0.001-0.014,0.001-0.018
					c0-0.014-0.012-0.024-0.036-0.026c-0.019,0.159-0.021,0.325-0.014,0.492c0.004,0.003,0.017,0.008,0.038,0.011
					c0.019,0.001,0.022,0.007,0.025,0.015c0,0.005-0.003,0.009-0.005,0.016l-0.011,0.01c0.009,0.012,0.01,0.029,0.011,0.049
					c0,0.012,0,0.028-0.001,0.051c-0.001,0.024-0.001,0.042-0.001,0.052c0.002,0.034,0.01,0.059,0.024,0.075
					c-0.001,0.026,0.009,0.042,0.03,0.05c0.011-0.003,0.021-0.007,0.033-0.009c0.041-0.001,0.067,0.022,0.083,0.071
					c0,0,0,0.01,0,0.027c0,0.006,0.005,0.013,0.011,0.016c0.021-0.011,0.026-0.032,0.026-0.06c0-0.036,0.005-0.056,0.013-0.066
					c-0.002-0.015-0.01-0.038-0.025-0.066c-0.016-0.03-0.024-0.053-0.024-0.069c0-0.019,0.005-0.036,0.015-0.052
					c-0.008-0.003-0.015-0.008-0.013-0.019c0.001-0.017,0.001-0.025,0.001-0.025C85.335,11.524,85.411,11.524,85.482,11.543z"/>
				<path d="M86.081,11.673L86.081,11.673c-0.007,0.015-0.011,0.04-0.007,0.069c0.003,0.042,0.005,0.063,0.005,0.064
					c-0.005,0.003-0.015-0.001-0.023-0.008c-0.016,0.006-0.024,0.016-0.023,0.03c0,0.002,0,0.006,0.005,0.011
					c0,0.008,0,0.01,0,0.012c0,0.011-0.005,0.021-0.009,0.026c-0.02-0.011-0.043-0.017-0.07-0.021
					c-0.029-0.002-0.057-0.006-0.08-0.008c0-0.142-0.021-0.281-0.056-0.416c0,0-0.001-0.014-0.002-0.043
					c0-0.021-0.005-0.036-0.013-0.043l-0.011,0.01c-0.004-0.002,0.002-0.005,0.011-0.011c0.006-0.006,0.013-0.012,0.012-0.019
					c0-0.004-0.001-0.007-0.004-0.01l-0.014-0.011c-0.021,0.008-0.033,0.027-0.032,0.059c0.002,0.021-0.005,0.035-0.021,0.044
					c0.007,0.003,0.01,0.01,0.01,0.017c0,0.004,0,0.011-0.001,0.018c-0.002,0.008-0.002,0.014-0.002,0.017
					c0,0.009,0.004,0.018,0.014,0.022c0,0.007,0.003,0.063,0.008,0.168c0.004,0.069,0.001,0.127-0.005,0.172l0.003,0.027
					c-0.009,0-0.019,0-0.029,0c-0.013,0.003-0.03,0.003-0.054,0.007c-0.021,0.002-0.039,0.004-0.05,0.006
					c-0.044,0.001-0.077-0.006-0.095-0.024l-0.02-0.584c-0.008-0.028-0.014-0.069-0.016-0.12l-0.007-0.113
					c-0.002-0.055-0.012-0.096-0.021-0.125c0.008-0.021,0.021-0.032,0.053-0.033c0.018-0.002,0.04,0.001,0.072,0.008
					c0.016-0.007,0.033-0.012,0.06-0.014c0.008-0.001,0.02-0.001,0.035-0.001c0.017,0,0.028-0.002,0.034-0.002
					c0.05-0.004,0.078-0.019,0.095-0.046c0.022-0.001,0.047,0.006,0.07,0.022c0.026,0.016,0.05,0.023,0.067,0.023
					c0.052,0.031,0.081,0.086,0.084,0.161c0.002,0.017-0.005,0.084-0.017,0.2l-0.09,0.082c0.018,0.029,0.034,0.092,0.055,0.191
					C86.02,11.574,86.045,11.635,86.081,11.673z M85.919,11.009l0.002,0.001c0.001,0.007,0.001-0.018-0.002-0.076
					c-0.004-0.029-0.013-0.048-0.028-0.061c-0.009,0.014,0.001,0.021-0.003,0.057c-0.006,0.035-0.025,0.026-0.038,0.041
					c-0.029,0-0.036,0.02-0.041-0.01c-0.017-0.051-0.028-0.046-0.028-0.048l-0.012,0.008c-0.004,0.005-0.011,0.01-0.015,0.016
					c-0.006,0.006-0.012,0.007-0.019,0.006c0,0.006-0.001,0.016-0.01,0.028c-0.004,0.013-0.007,0.024-0.007,0.029
					c0.001,0.009,0.006,0.016,0.021,0.022c-0.004,0.02-0.005,0.042-0.004,0.064c0.001,0.013,0.006,0.04,0.011,0.085
					c0.007,0.036,0.008,0.066,0.007,0.09c0.011,0,0.021,0,0.032,0c0.04-0.002,0.068-0.021,0.08-0.054
					c0.004-0.009,0.012-0.043,0.016-0.104C85.886,11.059,85.898,11.027,85.919,11.009z"/>
				<path d="M86.77,11.899c-0.017-0.006-0.036-0.008-0.057-0.006c-0.016,0-0.036,0.005-0.066,0.013
					c-0.033,0.009-0.055,0.014-0.067,0.016c-0.014-0.021-0.024-0.05-0.033-0.088c-0.014-0.056-0.023-0.088-0.025-0.094
					c0.002-0.006,0.003-0.011,0.003-0.016c-0.001-0.012-0.011-0.021-0.033-0.029c-0.021-0.007-0.031-0.014-0.031-0.018
					c0-0.007,0.011-0.017,0.032-0.032c-0.004-0.004-0.008-0.018-0.013-0.036c-0.006-0.02-0.011-0.033-0.02-0.038
					c-0.016,0.011-0.039,0.022-0.07,0.028c-0.032,0.005-0.055,0.011-0.065,0.019c0.006,0.081,0,0.223-0.031,0.252
					c-0.016-0.001-0.027,0.005-0.036,0.021c-0.012,0.02-0.021,0.029-0.027,0.033l0.009,0.009c-0.009,0.01-0.023,0.013-0.045,0.013
					c-0.035,0-0.053,0.001-0.058,0.003l-0.011-0.029l0.053-0.936c-0.003-0.053-0.003-0.089,0.001-0.108
					c-0.007-0.047,0.004-0.077,0.032-0.09c0.016,0.008,0.038,0.011,0.062,0.009c0.02,0,0.052-0.006,0.096-0.019
					c0.043-0.01,0.072-0.015,0.091-0.017c0.059-0.004,0.088,0.03,0.086,0.104c-0.001,0.059,0.013,0.134,0.049,0.227
					c0.035,0.1,0.053,0.177,0.056,0.227c0.001,0.015,0.022,0.049,0.022,0.064c-0.025,0.014-0.059,0.023-0.1,0.03
					c-0.036,0.003-0.07,0.008-0.105,0.012c-0.016-0.078-0.049-0.174-0.064-0.25c-0.019-0.093-0.037-0.168-0.06-0.229l-0.022,0.45
					c-0.002,0.038,0.02,0.057,0.063,0.054c0.016-0.002,0.028-0.006,0.044-0.013c0.009-0.003,0.023,0.003,0.045,0.017
					c0,0.033,0.011,0.053,0.026,0.058c0.019-0.014,0.045-0.025,0.073-0.038c0.029-0.012,0.057-0.021,0.079-0.032
					c0.021,0.018,0.031,0.043,0.039,0.078c0.007,0.05,0.012,0.078,0.013,0.086c0.006,0.02,0.02,0.062,0.041,0.126
					c0.019,0.052,0.024,0.093,0.028,0.125C86.772,11.871,86.772,11.885,86.77,11.899z"/>
				<path d="M87.271,10.834L87.271,10.834c-0.014,0.023-0.032,0.028-0.053,0.015c-0.007-0.001-0.029,0-0.066,0.003
					c-0.032,0.001-0.057,0-0.07-0.004c-0.004,0-0.011,0.003-0.021,0.012c-0.01,0.008-0.02,0.01-0.021,0.01
					c-0.011,0.001-0.012-0.006-0.015-0.019c0-0.001-0.001-0.012-0.001-0.026c0-0.011-0.005-0.019-0.014-0.021l-0.022,0.018
					c-0.009,0.007-0.012,0.012-0.011,0.018c0,0.005,0.004,0.013,0.012,0.023c0.009,0.009,0.013,0.016,0.014,0.02
					c0.001,0.003,0.004,0.049,0.01,0.141c0,0.057,0.012,0.103,0.027,0.138c0.004-0.006,0.018-0.009,0.033-0.009
					c0.019,0,0.032-0.005,0.036-0.013c0.012,0.01,0.03,0.011,0.057,0.002c0.026-0.011,0.045-0.006,0.059,0.008l-0.004,0.139
					c-0.012-0.001-0.026-0.007-0.047-0.019c-0.008,0.022-0.019,0.035-0.038,0.041c-0.007,0-0.027,0.004-0.062,0.007
					c0.002-0.007-0.001-0.013-0.014-0.019c-0.033,0.017-0.047,0.056-0.037,0.119c0.001-0.006,0.002,0.005,0.003,0.033
					c0.003,0.017-0.002,0.03-0.008,0.038c-0.024,0.003-0.049-0.002-0.082-0.015c-0.029-0.014-0.054-0.02-0.069-0.02
					c-0.004,0.003-0.01,0.003-0.014,0.003l-0.033,0.011l-0.054-0.631l-0.007-0.12c0.044-0.017,0.101-0.025,0.168-0.031
					c0.051-0.004,0.118-0.002,0.202,0.001c0.007-0.012,0.016,0.004,0.027,0.004c0.008,0,0.018,0,0.029,0.002
					c0.013,0.001,0.021,0.003,0.025,0.001c0.009,0,0.015-0.001,0.022-0.003l0.007-0.011c0.024,0.007,0.038,0.022,0.04,0.041
					c0,0.008-0.002,0.023-0.009,0.043c-0.004,0.021-0.007,0.036-0.005,0.046C87.265,10.82,87.267,10.829,87.271,10.834z
					 M87.06,11.888c-0.015,0.007-0.033,0.011-0.061,0.013c-0.035,0.003-0.056,0.005-0.064,0.005c-0.003-0.003-0.006,0-0.016-0.032
					c-0.006-0.024-0.017-0.033-0.039-0.032c-0.004,0.001-0.009,0.001-0.018,0.004l-0.033,0.001l-0.017-0.32
					c0.017-0.009,0.04-0.015,0.067-0.016c0.026-0.001,0.049,0.001,0.066,0.006c-0.001,0.012,0.016,0.019,0.047,0.015l0.034-0.002
					C87.05,11.623,87.06,11.784,87.06,11.888z"/>
				<path d="M87.995,10.863L87.995,10.863c-0.013,0.001-0.07,0.005-0.11,0.01c-0.037,0.005-0.064,0.005-0.082,0.003
					c-0.019,0.012-0.022,0.029-0.02,0.05l0.013,0.006c-0.012,0.01-0.014,0.016-0.012,0.022l0.012,0.009
					c-0.005,0.185-0.005,0.288-0.002,0.309c0.002,0.049,0.005,0.091,0.013,0.128c-0.007,0.023-0.008,0.05-0.008,0.081
					c0.001,0.02,0.007,0.052,0.017,0.093c0.006,0.043,0.018,0.183,0.018,0.208c0.002,0.015,0.002,0.031,0,0.046
					c-0.017,0.007-0.037,0.012-0.053,0.014c-0.036,0.001-0.07-0.006-0.108-0.022c-0.005,0.004-0.01,0.009-0.016,0.014
					c-0.004,0.005-0.005,0.01-0.003,0.017c-0.012,0.002-0.031-0.001-0.048-0.016c-0.017-0.187-0.044-0.568-0.091-0.954
					c-0.017,0.015-0.049,0.003-0.078,0.007c-0.039,0.004-0.074-0.002-0.087,0.006c-0.019-0.022-0.018-0.029-0.018-0.062
					c-0.001-0.034-0.013-0.116-0.005-0.15c0.004-0.007,0.07-0.003,0.111-0.007c0.054-0.003,0.065,0.011,0.068,0.011
					c0.005-0.009,0.032-0.003,0.052-0.005c0.014,0.006,0.024-0.006,0.024,0.002c0.002,0.006,0,0.046-0.006,0.059
					c-0.001,0.01-0.003,0.02-0.003,0.024c0,0.014,0.009-0.004,0.031,0.001c0.018,0,0.041-0.001,0.064-0.002
					c0.025,0.002,0.055-0.008,0.053,0.016c0.005-0.006,0.008,0.005,0.046-0.011c0.025-0.014,0.044-0.048,0.037-0.07
					c-0.003-0.013,0.012-0.022,0.001-0.016c0.015-0.008,0.003-0.002,0.016-0.008c0.047,0.004,0.072,0,0.08-0.001
					c0.018-0.001,0.063,0.012,0.077,0.003c0.006,0.019,0.015,0.075,0.015,0.107C87.995,10.833,87.995,10.86,87.995,10.863z"/>
				<path d="M88.583,11.515v-0.002c-0.004,0.015-0.009,0.031-0.009,0.048c-0.002,0.012,0,0.027,0.004,0.048
					c0.002,0.023,0.003,0.041,0.003,0.05c-0.011,0-0.048,0.002-0.117,0.006c-0.039,0.003-0.079,0.01-0.11,0.019l-0.034-0.028
					c-0.01,0.008-0.013,0.014-0.012,0.02c-0.006,0-0.033,0-0.082,0.004c-0.038,0.004-0.067,0.001-0.09-0.004
					c-0.017,0.02-0.039,0.021-0.067,0.004c-0.01-0.004-0.012-0.016-0.005-0.031c0.005-0.016,0.003-0.026-0.012-0.033
					c0-0.035,0.002-0.086,0.006-0.156c0.006-0.062,0.006-0.112,0.005-0.147c-0.004-0.047-0.012-0.093-0.021-0.138
					c0.01-0.011,0.025-0.018,0.044-0.019c0.018-0.001,0.04,0.005,0.071,0.019c0.037,0.021,0.057,0.03,0.057,0.03l0.013,0.009
					c0.001-0.002,0.004-0.019,0.016-0.05c0.006-0.02,0.011-0.034,0.022-0.04l0.015,0.007c0.003-0.003,0.019-0.013,0.043-0.032
					c0.02-0.014,0.036-0.064,0.049-0.066c0.013,0,0.024,0.006,0.037,0.018c0.021,0.007,0.04,0.065,0.046,0.083
					c0.006,0.02,0.015,0.037,0.021,0.057c-0.055,0.005-0.1,0.008-0.134,0.006c-0.007,0.011-0.021,0.015-0.035,0.008
					c-0.017-0.007-0.027-0.006-0.035,0.006c0.002,0.018,0.004,0.05,0.005,0.1c0.003,0.043,0.003,0.079,0.006,0.104
					c0.004,0.038,0.009,0.074,0.016,0.105c0.011,0,0.057-0.003,0.14-0.008C88.492,11.509,88.541,11.51,88.583,11.515z M88.529,10.78
					c-0.013,0.001-0.025,0.002-0.038,0.003c-0.027,0.002-0.064,0-0.111-0.002c-0.059-0.002-0.091-0.003-0.104-0.003
					c-0.016,0.021-0.018,0.04-0.016,0.08c0.004,0.085,0.009,0.122,0.009,0.11c0.018,0.008,0.027,0.023,0.028,0.046
					c0,0.03,0,0.048,0.001,0.049c-0.008,0.004-0.012,0.014-0.011,0.033c-0.013-0.004-0.027-0.01-0.04-0.023
					c-0.022-0.015-0.03,0.037-0.03,0.023l-0.008,0.031l-0.012-0.007c-0.007,0-0.024-0.002-0.05-0.011
					c-0.024-0.008-0.039-0.016-0.051-0.023c0-0.017,0.001-0.026,0.007-0.028l-0.024-0.021l-0.011,0.016
					c-0.021-0.109-0.035-0.297-0.027-0.413c0.046,0.003,0.101-0.005,0.154-0.007c0.041-0.001,0.091-0.004,0.159-0.01
					c0.077-0.006,0.135-0.009,0.166-0.012c0.016,0.012,0.025,0.025,0.026,0.044c0,0.012-0.001,0.031-0.01,0.056
					C88.534,10.737,88.528,10.767,88.529,10.78z"/>
				<path d="M89.188,11.404h-0.002c-0.007,0.017-0.01,0.04-0.007,0.069c0.002,0.043,0.005,0.063,0.005,0.065
					c-0.005,0.002-0.012-0.001-0.023-0.008c-0.018,0.005-0.021,0.015-0.021,0.031c0,0.001,0,0.005,0.001,0.011
					c0,0.006,0,0.008,0,0.012c0,0.011-0.001,0.02-0.007,0.025c-0.017-0.011-0.042-0.017-0.072-0.019
					c-0.026-0.004-0.055-0.006-0.081-0.01c0-0.142-0.019-0.28-0.053-0.416c0,0.001,0-0.013-0.001-0.042
					c0-0.021-0.005-0.037-0.015-0.045l-0.014,0.011c0-0.002,0.007-0.004,0.014-0.011c0.01-0.006,0.014-0.015,0.012-0.019
					c0-0.003-0.001-0.006-0.002-0.01l-0.013-0.01c-0.022,0.007-0.034,0.027-0.033,0.058c0.002,0.022-0.004,0.035-0.02,0.044
					c0.004,0.004,0.008,0.011,0.011,0.017c0,0.005-0.003,0.012-0.004,0.018c-0.003,0.009-0.003,0.014-0.003,0.018
					c0,0.011,0.008,0.019,0.015,0.024c0,0.006,0.003,0.061,0.007,0.168c0.007,0.068,0.005,0.125-0.004,0.172l0.003,0.027
					c-0.009,0-0.021,0-0.03,0c-0.013,0-0.028,0.002-0.052,0.006c-0.022,0.002-0.04,0.004-0.051,0.004
					c-0.044,0.003-0.076-0.004-0.094-0.022l-0.021-0.584c-0.007-0.029-0.015-0.069-0.018-0.12l-0.006-0.112
					c-0.005-0.054-0.009-0.098-0.019-0.126c0.003-0.021,0.021-0.031,0.047-0.033c0.021-0.001,0.043,0.002,0.074,0.008
					c0.016-0.008,0.035-0.013,0.058-0.015c0.011,0,0.022,0,0.036,0c0.019,0,0.029-0.002,0.038-0.002
					c0.046-0.003,0.078-0.017,0.095-0.046c0.021,0,0.043,0.006,0.069,0.022c0.026,0.015,0.049,0.022,0.069,0.023
					c0.05,0.033,0.078,0.085,0.083,0.16c0,0.018-0.006,0.084-0.021,0.198l-0.087,0.083c0.015,0.029,0.031,0.093,0.053,0.192
					C89.124,11.305,89.15,11.365,89.188,11.404z M89.024,10.74l0.001,0.003c0.001,0.005,0-0.02-0.002-0.077
					c-0.001-0.029-0.012-0.05-0.029-0.061c-0.008,0.014-0.013-0.021-0.017,0.014c-0.005,0.035-0.014,0.06-0.022,0.076
					c-0.03,0-0.037-0.019-0.058-0.046c-0.01-0.017-0.017-0.001-0.017-0.004l-0.007,0.008c-0.004,0.004-0.007,0.009-0.015,0.016
					c-0.004,0.005-0.013,0.007-0.02,0.005c0,0.005-0.003,0.017-0.007,0.03c-0.008,0.012-0.009,0.022-0.009,0.027
					c0,0.01,0.007,0.017,0.021,0.021c-0.004,0.022-0.004,0.044-0.001,0.065c0,0.014,0.003,0.042,0.006,0.085
					c0.007,0.037,0.01,0.066,0.009,0.092c0.012,0.002,0.021,0.002,0.03-0.001c0.041-0.001,0.071-0.019,0.083-0.053
					c0.003-0.01,0.008-0.045,0.015-0.105C88.991,10.79,89.004,10.758,89.024,10.74z"/>
			</g>
			<g>
				<path d="M83.172,8.717L83.172,8.717c-0.005,0.054-0.008,0.091-0.005,0.113c-0.008,0.002-0.018,0.002-0.029,0.001
					c-0.018-0.004-0.027-0.005-0.029-0.005c-0.006,0-0.012,0.004-0.017,0.008c-0.01-0.008-0.018-0.01-0.021-0.008
					c-0.008,0.006-0.012,0.015-0.012,0.025c0,0.005,0.001,0.013,0.005,0.025c0.002,0.011,0.002,0.019,0.003,0.025
					c0.002,0.009-0.001,0.02-0.003,0.035c-0.003,0.018-0.005,0.029-0.004,0.042c0.001,0.01,0.004,0.031,0.006,0.057
					c0.006,0.025,0.007,0.044,0.008,0.058c-0.005,0.027-0.008,0.053-0.005,0.08c0,0.033,0.009,0.076,0.025,0.128
					c0.003,0.001,0.006,0.001,0.009,0.001c0.005-0.001,0.012-0.004,0.019-0.015c0.012-0.008,0.017-0.013,0.022-0.013
					c0.005,0,0.01,0,0.015,0.004c0.017,0.056,0.024,0.089,0.025,0.106c0,0.007,0,0.016,0,0.024c-0.024,0.005-0.04-0.002-0.048-0.026
					c0.001-0.007-0.003-0.014-0.014-0.021l-0.025,0.03c0.024,0.006,0.038,0.025,0.033,0.065c-0.006,0.007-0.011,0.011-0.018,0.012
					c-0.016,0-0.023,0-0.021,0l-0.022-0.042l-0.008,0.012c-0.008-0.02-0.018-0.029-0.027-0.028c-0.003,0-0.014,0.004-0.025,0.013
					c-0.016,0.01-0.027,0.015-0.034,0.015c-0.008,0.001-0.015-0.001-0.021-0.006c0-0.011-0.002-0.021-0.003-0.035
					c-0.003-0.012-0.009-0.02-0.019-0.023c-0.001-0.029,0-0.105,0.005-0.229c0.001-0.095,0-0.171-0.006-0.231
					c-0.002-0.024-0.003-0.049-0.004-0.071c-0.005-0.008-0.009-0.012-0.016-0.011c-0.003,0-0.007,0.002-0.015,0.012
					c-0.005,0.007-0.014,0.01-0.019,0.01c-0.002-0.009-0.005-0.023-0.013-0.045c-0.007-0.022-0.011-0.036-0.012-0.046
					c0-0.015,0.005-0.028,0.018-0.042l0.032,0.009c0.009-0.019,0.017-0.05,0.013-0.095c0-0.009-0.002-0.022-0.004-0.04
					c-0.001-0.02-0.002-0.032-0.004-0.04c-0.002-0.073,0.02-0.111,0.064-0.113c0.017,0,0.037,0.002,0.061,0.009l0.031,0.009
					c0.001,0.012,0.002,0.024,0.002,0.037c0.003,0.019,0,0.045-0.001,0.078c-0.001,0.036-0.001,0.062-0.001,0.076
					c0,0.027,0.003,0.049,0.012,0.069c0.007,0,0.019-0.004,0.032-0.011c0.014-0.009,0.028-0.013,0.033-0.013
					C83.154,8.695,83.164,8.701,83.172,8.717z M83.081,8.816l-0.003-0.032l-0.009-0.01L83.081,8.816z"/>
				<path d="M83.536,8.613L83.536,8.613c-0.003,0.026-0.006,0.05-0.01,0.078c-0.005,0.027-0.013,0.052-0.022,0.069
					c-0.004-0.002-0.013-0.006-0.032-0.017c-0.014-0.007-0.028-0.013-0.038-0.009c-0.006,0.053-0.012,0.13-0.014,0.226
					c0,0.12-0.001,0.195-0.003,0.221c-0.012-0.001-0.021,0.002-0.028,0.013c-0.008,0.011-0.014,0.021-0.019,0.031
					c-0.004,0.006-0.004,0.011-0.004,0.017c0,0.007,0.007,0.015,0.018,0.02c0.013,0.009,0.017,0.017,0.019,0.024
					c-0.004,0.02-0.016,0.031-0.032,0.032c-0.008,0-0.021-0.003-0.041-0.008c-0.02-0.006-0.034-0.009-0.044-0.008l-0.019-0.405
					c0.009-0.009,0.012-0.017,0.012-0.02l-0.012-0.008c0-0.018,0.004-0.103,0.004-0.253c0-0.104,0.003-0.187,0.01-0.251
					c-0.002,0,0.027-0.001,0.081-0.006c0.035-0.002,0.057,0.01,0.067,0.031c0,0.02-0.001,0.054-0.007,0.105
					c-0.003,0.044-0.005,0.08-0.004,0.105c0.001,0.03,0.007,0.057,0.014,0.081C83.46,8.639,83.495,8.616,83.536,8.613z M83.665,8.7
					c0.005,0.037,0.007,0.073,0.009,0.109c0.009,0.157,0.002,0.325-0.009,0.502c-0.012,0.012-0.03,0.015-0.059,0.007
					c-0.026-0.005-0.045-0.002-0.058,0.009c-0.013-0.021-0.022-0.059-0.024-0.113c-0.003-0.079-0.007-0.122-0.007-0.123
					c-0.002-0.198,0.016-0.357,0.055-0.481C83.618,8.624,83.65,8.653,83.665,8.7z"/>
				<path d="M84.13,8.905c-0.004,0.012-0.008,0.025-0.008,0.039c0.002,0.016,0.002,0.029,0.004,0.042
					c-0.002,0.012-0.006,0.022-0.011,0.034c-0.007-0.003-0.015-0.003-0.021-0.003s-0.012,0.003-0.017,0.008
					c-0.008,0.004-0.014,0.007-0.016,0.007c-0.004,0-0.014-0.002-0.021-0.006l-0.062-0.095c0.001,0.027,0.008,0.053,0.018,0.073
					c0.006,0.011,0.01,0.022,0.015,0.032c-0.033,0.009-0.055,0.009-0.062,0.004l-0.008,0.012L83.92,9.023
					c-0.016,0.022-0.019,0.053-0.01,0.095c0.01,0.045,0.01,0.079,0.002,0.098c0.015,0.021,0.029,0.033,0.047,0.032
					c0.01,0,0.016-0.005,0.021-0.011c0.01-0.023,0.018-0.046,0.027-0.07c0.012-0.027,0.024-0.042,0.041-0.042
					c0.015-0.001,0.03,0.005,0.047,0.02c0.018,0.007,0.027,0.018,0.029,0.03c0,0.007-0.007,0.019-0.013,0.036
					c-0.012,0.019-0.017,0.031-0.016,0.04c0,0.003,0.001,0.006,0.001,0.01c-0.013,0.01-0.022,0.025-0.033,0.045
					c-0.012,0.022-0.022,0.035-0.038,0.042c-0.017,0.016-0.029,0.023-0.041,0.024c-0.01,0-0.025-0.008-0.043-0.024
					c-0.021-0.017-0.038-0.024-0.057-0.024c-0.004-0.017-0.021-0.033-0.05-0.055c-0.026-0.02-0.045-0.043-0.051-0.064
					c0,0.001,0-0.007-0.002-0.023c0-0.01-0.004-0.016-0.01-0.019l0.01-0.01c-0.013,0-0.02-0.008-0.022-0.024
					c-0.001-0.002-0.001-0.006-0.001-0.01c0.001-0.005,0.001-0.01,0.001-0.013c-0.001-0.011-0.002-0.017-0.01-0.023l-0.002-0.049
					c0-0.026-0.006-0.044-0.016-0.054c0.01-0.061,0.018-0.122,0.026-0.181c0.016-0.07,0.035-0.105,0.064-0.106
					c0.006,0,0.009,0.001,0.014,0.002c0.026-0.026,0.058-0.042,0.091-0.043c0.041-0.002,0.084,0.011,0.133,0.037
					C84.098,8.755,84.12,8.826,84.13,8.905z M83.948,8.748l-0.01,0.014c-0.004,0-0.012-0.003-0.021-0.01l0.001,0.031
					c-0.013,0.016-0.017,0.041-0.015,0.073c0.002,0.057,0.004,0.083,0.004,0.083l0.04-0.002c0.017-0.011,0.027-0.031,0.025-0.056
					c-0.001-0.014-0.004-0.035-0.014-0.066C83.951,8.786,83.948,8.763,83.948,8.748z"/>
			</g>
			<g>
				<polygon fill-rule="evenodd" clip-rule="evenodd" points="84.44,10.331 84.481,10.355 84.614,9.98 84.568,9.964 84.437,10.338 
					84.473,10.365 84.44,10.331 84.44,10.331 				"/>
				<polygon fill-rule="evenodd" clip-rule="evenodd" points="84.5,10.279 84.484,10.285 84.44,10.331 84.473,10.365 84.516,10.317 
					84.5,10.327 84.5,10.279 84.5,10.279 				"/>
				<polygon fill-rule="evenodd" clip-rule="evenodd" points="84.823,10.276 84.841,10.26 84.5,10.279 84.5,10.327 84.843,10.309 
					84.863,10.291 84.823,10.276 84.823,10.276 84.823,10.276 				"/>
				<polygon fill-rule="evenodd" clip-rule="evenodd" points="84.978,9.931 84.955,9.9 84.823,10.276 84.863,10.291 85,9.916 
					84.974,9.885 84.978,9.931 84.978,9.931 84.978,9.931 				"/>
				<polygon fill-rule="evenodd" clip-rule="evenodd" points="84.651,9.944 84.633,9.952 84.978,9.931 84.974,9.885 84.633,9.902 
					84.617,9.911 84.651,9.944 84.651,9.944 84.651,9.944 				"/>
				<polygon fill-rule="evenodd" clip-rule="evenodd" points="84.614,9.98 84.61,9.987 84.651,9.944 84.617,9.911 84.573,9.956 
					84.568,9.964 84.614,9.98 84.614,9.98 84.614,9.98 				"/>
				<polygon fill-rule="evenodd" clip-rule="evenodd" points="84.898,10.32 84.929,10.306 84.854,10.262 84.83,10.307 
					84.906,10.351 84.94,10.336 84.895,10.319 84.895,10.319 84.898,10.32 				"/>
				<polygon fill-rule="evenodd" clip-rule="evenodd" points="85.04,9.974 85.028,9.945 84.895,10.319 84.94,10.336 85.073,9.959 
					85.062,9.931 85.04,9.974 85.04,9.974 				"/>
				<polygon fill-rule="evenodd" clip-rule="evenodd" points="85,9.916 84.967,9.931 85.04,9.974 85.062,9.931 84.989,9.887 
					84.955,9.9 85,9.916 85,9.916 				"/>
				<polygon points="84.593,9.972 84.589,9.972 84.632,9.926 84.953,9.91 84.955,9.9 84.978,9.908 85,9.916 84.995,9.919 
					85.051,9.954 85.073,9.959 85.065,9.984 85.221,10.38 85.091,10.755 84.918,10.329 84.918,10.329 84.895,10.337 84.895,10.319 
					84.896,10.314 84.843,10.284 84.83,10.307 84.825,10.284 84.5,10.301 84.457,10.346 				"/>
				<polygon fill-rule="evenodd" clip-rule="evenodd" points="85.068,10.747 85.111,10.745 84.94,10.317 84.895,10.337 
					85.068,10.765 85.11,10.763 85.065,10.747 85.065,10.747 85.068,10.747 				"/>
				<polygon fill-rule="evenodd" clip-rule="evenodd" points="85.201,10.391 85.199,10.373 85.065,10.747 85.11,10.763 
					85.244,10.387 85.239,10.37 85.201,10.391 85.201,10.391 				"/>
				<polygon fill-rule="evenodd" clip-rule="evenodd" points="85.073,9.959 85.028,9.962 85.201,10.391 85.239,10.37 85.072,9.941 
					85.028,9.945 85.073,9.959 85.073,9.959 				"/>
				<polygon fill-rule="evenodd" clip-rule="evenodd" fill="#FFFFFF" points="85.062,10.059 85.082,10.102 85.091,10.147 
					85.085,10.191 85.073,10.237 85.054,10.282 85.022,10.322 84.988,10.359 84.942,10.391 84.918,10.403 84.893,10.413 
					84.863,10.419 84.84,10.425 84.815,10.428 84.789,10.431 84.761,10.428 84.738,10.426 84.717,10.422 84.692,10.413 
					84.67,10.403 84.651,10.391 84.633,10.376 84.614,10.362 84.6,10.344 84.585,10.325 84.567,10.28 84.56,10.234 84.56,10.188 
					84.577,10.144 84.593,10.1 84.621,10.059 84.661,10.022 84.706,9.99 84.729,9.978 84.757,9.967 84.78,9.961 84.807,9.956 
					84.834,9.954 84.86,9.949 84.883,9.954 84.909,9.954 84.932,9.962 84.956,9.972 84.977,9.978 85,9.992 85.017,10.001 
					85.034,10.018 85.045,10.039 85.062,10.059 85.062,10.059 85.062,10.059 				"/>
				<polygon fill-rule="evenodd" clip-rule="evenodd" points="85.08,10.13 85.098,10.175 85.104,10.224 85.101,10.267 
					85.091,10.312 85.072,10.357 85.04,10.399 85.007,10.435 84.957,10.464 84.935,10.479 84.909,10.49 84.883,10.496 
					84.858,10.501 84.829,10.505 84.807,10.506 84.78,10.505 84.756,10.5 84.734,10.495 84.71,10.486 84.688,10.477 84.667,10.464 
					84.65,10.453 84.633,10.436 84.617,10.422 84.602,10.399 84.583,10.356 84.578,10.311 84.579,10.264 84.589,10.221 
					84.611,10.174 84.638,10.134 84.675,10.097 84.723,10.067 84.749,10.052 84.772,10.044 84.799,10.036 84.826,10.031 
					84.85,10.028 84.874,10.024 84.899,10.028 84.923,10.031 84.95,10.037 84.972,10.044 84.991,10.055 85.014,10.064 
					85.029,10.079 85.051,10.094 85.062,10.113 85.08,10.134 85.08,10.134 85.08,10.13 				"/>
				<polygon fill-rule="evenodd" clip-rule="evenodd" fill="#FFFFFF" points="85.091,10.184 85.111,10.225 85.117,10.273 
					85.115,10.317 85.103,10.362 85.083,10.406 85.054,10.448 85.02,10.484 84.972,10.513 84.95,10.528 84.922,10.539 
					84.895,10.545 84.87,10.552 84.843,10.555 84.821,10.556 84.794,10.555 84.768,10.548 84.746,10.545 84.723,10.536 
					84.701,10.526 84.68,10.513 84.662,10.501 84.644,10.485 84.632,10.469 84.616,10.448 84.596,10.406 84.589,10.361 
					84.59,10.316 84.602,10.27 84.621,10.224 84.651,10.181 84.688,10.148 84.735,10.117 84.76,10.104 84.788,10.091 84.812,10.086 
					84.84,10.08 84.861,10.077 84.888,10.075 84.915,10.077 84.937,10.08 84.96,10.086 84.986,10.095 85.007,10.105 85.026,10.117 
					85.045,10.129 85.062,10.143 85.077,10.162 85.091,10.184 85.091,10.184 				"/>
				<polygon fill-rule="evenodd" clip-rule="evenodd" points="85.106,10.257 85.127,10.301 85.135,10.346 85.135,10.392 
					85.118,10.438 85.101,10.48 85.071,10.522 85.035,10.561 84.988,10.591 84.965,10.602 84.938,10.614 84.912,10.619 
					84.888,10.625 84.861,10.63 84.835,10.632 84.812,10.63 84.788,10.627 84.761,10.622 84.74,10.613 84.717,10.602 84.694,10.59 
					84.679,10.577 84.662,10.564 84.647,10.545 84.632,10.524 84.616,10.48 84.606,10.435 84.61,10.391 84.618,10.344 
					84.639,10.301 84.67,10.26 84.706,10.222 84.752,10.191 84.778,10.179 84.801,10.168 84.828,10.162 84.854,10.156 
					84.881,10.153 84.906,10.152 84.93,10.153 84.955,10.154 84.978,10.161 85.001,10.168 85.022,10.179 85.044,10.191 
					85.062,10.206 85.081,10.219 85.094,10.237 85.106,10.26 85.106,10.26 85.106,10.257 				"/>
				<polygon fill-rule="evenodd" clip-rule="evenodd" fill="#FFFFFF" points="85.134,10.306 85.153,10.347 85.158,10.394 
					85.158,10.44 85.146,10.485 85.126,10.529 85.094,10.571 85.06,10.607 85.014,10.638 84.989,10.652 84.962,10.662 
					84.937,10.668 84.911,10.674 84.885,10.678 84.861,10.679 84.835,10.678 84.812,10.674 84.789,10.668 84.761,10.659 
					84.744,10.65 84.723,10.639 84.703,10.625 84.686,10.609 84.672,10.591 84.661,10.572 84.639,10.529 84.632,10.482 
					84.633,10.436 84.647,10.394 84.666,10.347 84.694,10.306 84.733,10.272 84.778,10.241 84.804,10.226 84.827,10.215 
					84.854,10.211 84.881,10.204 84.905,10.199 84.93,10.198 84.956,10.201 84.978,10.204 85.003,10.209 85.028,10.219 
					85.048,10.227 85.07,10.239 85.091,10.251 85.104,10.269 85.121,10.287 85.134,10.306 85.134,10.306 				"/>
				<polygon fill-rule="evenodd" clip-rule="evenodd" points="85.153,10.381 85.167,10.423 85.179,10.471 85.176,10.514 
					85.164,10.561 85.146,10.603 85.114,10.647 85.077,10.682 85.029,10.714 85.007,10.726 84.978,10.737 84.955,10.743 
					84.929,10.748 84.904,10.751 84.878,10.754 84.851,10.751 84.827,10.75 84.807,10.744 84.779,10.735 84.759,10.726 
					84.74,10.714 84.721,10.699 84.703,10.686 84.688,10.668 84.675,10.648 84.655,10.603 84.648,10.557 84.65,10.513 
					84.663,10.468 84.683,10.423 84.711,10.382 84.749,10.344 84.795,10.313 84.821,10.301 84.846,10.292 84.873,10.285 
					84.895,10.279 84.923,10.276 84.95,10.273 84.974,10.276 84.995,10.277 85.022,10.284 85.045,10.292 85.065,10.301 
					85.085,10.313 85.104,10.329 85.121,10.343 85.136,10.359 85.153,10.381 85.153,10.381 85.153,10.381 				"/>
				<polygon fill-rule="evenodd" clip-rule="evenodd" points="82.82,9.805 82.822,9.792 82.687,10.168 82.73,10.184 82.864,9.805 
					82.864,9.795 82.82,9.805 82.82,9.805 82.82,9.805 				"/>
				<polygon fill-rule="evenodd" clip-rule="evenodd" points="82.814,9.787 82.816,9.784 82.82,9.805 82.864,9.795 82.859,9.774 
					82.859,9.772 82.814,9.787 82.814,9.787 82.814,9.787 				"/>
				<polygon fill-rule="evenodd" clip-rule="evenodd" points="82.812,9.764 82.814,9.787 82.859,9.772 82.854,9.749 82.812,9.764 
					82.812,9.764 82.812,9.764 				"/>
				<polygon fill-rule="evenodd" clip-rule="evenodd" points="82.805,9.745 82.812,9.764 82.854,9.749 82.851,9.73 82.805,9.745 
					82.805,9.745 				"/>
				<polygon fill-rule="evenodd" clip-rule="evenodd" points="82.801,9.723 82.801,9.723 82.805,9.745 82.851,9.73 82.845,9.709 
					82.845,9.709 82.801,9.723 82.801,9.723 82.801,9.723 				"/>
				<polygon fill-rule="evenodd" clip-rule="evenodd" points="82.795,9.696 82.795,9.703 82.801,9.723 82.845,9.709 82.839,9.692 
					82.842,9.701 82.795,9.696 82.795,9.696 				"/>
				<polygon fill-rule="evenodd" clip-rule="evenodd" points="82.84,9.686 82.796,9.679 82.795,9.696 82.842,9.701 82.842,9.682 
					82.798,9.673 82.84,9.688 82.84,9.688 82.84,9.686 				"/>
				<polygon fill-rule="evenodd" clip-rule="evenodd" fill="#343130" points="82.881,10.784 82.874,10.76 82.826,10.768 
					82.83,10.793 82.881,10.784 82.881,10.784 82.881,10.784 				"/>
				<polygon fill-rule="evenodd" clip-rule="evenodd" points="82.976,10.469 82.978,10.456 82.845,10.833 82.887,10.848 
					83.021,10.473 83.021,10.459 82.976,10.469 82.976,10.469 82.976,10.469 				"/>
				<polygon fill-rule="evenodd" clip-rule="evenodd" points="82.974,10.442 82.976,10.469 83.021,10.459 83.016,10.433 
					82.972,10.442 82.972,10.442 82.974,10.442 				"/>
				<polygon fill-rule="evenodd" clip-rule="evenodd" points="82.967,10.418 82.972,10.442 83.016,10.433 83.011,10.407 
					82.967,10.418 82.967,10.418 82.967,10.418 				"/>
				<polygon fill-rule="evenodd" clip-rule="evenodd" points="82.962,10.391 82.963,10.394 82.967,10.418 83.011,10.407 
					83.007,10.382 83.009,10.385 82.962,10.391 82.962,10.391 82.962,10.391 				"/>
				<polygon fill-rule="evenodd" clip-rule="evenodd" points="83.003,10.367 82.959,10.362 82.962,10.391 83.009,10.385 
					83.005,10.359 82.959,10.353 83.003,10.367 83.003,10.367 				"/>
				<g>
					<polygon fill="#343130" points="82.687,10.094 82.666,10.1 82.687,10.094 					"/>
					<polygon fill="#343130" points="82.71,10.171 82.711,10.169 82.723,10.171 82.73,10.184 82.71,10.175 					"/>
					<polygon points="82.661,10.079 82.686,10.073 82.686,10.057 82.817,9.679 82.817,9.682 82.817,9.697 82.822,9.715 
						82.828,9.738 82.837,9.756 82.84,9.778 82.842,9.799 82.842,9.799 82.864,9.805 82.73,10.184 82.723,10.171 82.711,10.169 
						82.71,10.171 82.71,10.175 82.73,10.184 82.71,10.181 82.711,10.198 82.697,10.18 82.686,10.18 82.685,10.16 82.692,10.156 
						82.698,10.132 82.677,10.138 82.672,10.122 82.666,10.1 82.687,10.094 82.687,10.094 82.666,10.1 82.668,10.097 					"/>
				</g>
				<g>
					<polygon fill="none" points="83.753,10.181 83.753,10.181 83.773,10.135 					"/>
					<polygon points="82.71,10.15 83.692,10.116 83.717,10.117 83.721,10.118 83.745,10.125 83.748,10.126 83.773,10.135 
						83.798,10.147 83.799,10.147 83.821,10.162 83.828,10.163 83.844,10.181 83.852,10.186 83.863,10.204 83.864,10.206 
						83.873,10.222 83.874,10.226 83.832,10.241 83.825,10.23 83.825,10.231 83.814,10.215 83.814,10.215 83.798,10.201 
						83.802,10.206 83.778,10.191 83.778,10.191 83.753,10.181 83.753,10.181 83.731,10.173 83.708,10.168 83.715,10.169 
						83.691,10.165 83.691,10.163 82.711,10.198 					"/>
					<polygon points="83.832,10.242 83.832,10.241 83.834,10.244 					"/>
				</g>
				<polygon fill-rule="evenodd" clip-rule="evenodd" points="84.356,11.123 84.356,11.108 84.222,11.484 84.268,11.5 
					84.401,11.123 84.401,11.108 84.356,11.123 84.356,11.123 84.356,11.123 				"/>
				<polygon fill-rule="evenodd" clip-rule="evenodd" points="83.969,9.869 83.964,9.863 84.356,11.123 84.401,11.108 84.009,9.849 
					84.009,9.843 83.969,9.869 83.969,9.869 83.969,9.869 				"/>
				<polygon fill-rule="evenodd" clip-rule="evenodd" points="83.959,9.858 83.959,9.854 83.969,9.869 84.009,9.843 84,9.828 
					83.997,9.828 83.959,9.857 83.959,9.857 83.959,9.858 				"/>
				<polygon fill-rule="evenodd" clip-rule="evenodd" points="83.95,9.842 83.948,9.838 83.959,9.857 83.997,9.828 83.983,9.808 
					83.979,9.805 83.95,9.842 83.95,9.842 83.95,9.842 				"/>
				<polygon fill-rule="evenodd" clip-rule="evenodd" points="83.938,9.832 83.934,9.826 83.95,9.842 83.979,9.805 83.959,9.79 
					83.957,9.786 83.938,9.832 83.938,9.832 				"/>
				<polygon fill-rule="evenodd" clip-rule="evenodd" points="83.915,9.816 83.914,9.814 83.938,9.832 83.957,9.786 83.934,9.772 
					83.932,9.772 83.915,9.816 83.915,9.816 				"/>
				<polygon fill-rule="evenodd" clip-rule="evenodd" points="83.892,9.805 83.886,9.805 83.915,9.816 83.932,9.772 83.905,9.759 
					83.904,9.759 83.888,9.806 83.888,9.806 83.892,9.805 				"/>
				<polygon fill-rule="evenodd" clip-rule="evenodd" points="83.867,9.795 83.863,9.798 83.888,9.806 83.904,9.759 83.88,9.751 
					83.88,9.751 83.864,9.799 83.864,9.799 83.867,9.795 				"/>
				<polygon fill-rule="evenodd" clip-rule="evenodd" points="83.848,9.792 83.842,9.79 83.864,9.799 83.88,9.751 83.853,9.743 
					83.852,9.743 83.848,9.792 83.848,9.792 83.848,9.792 				"/>
				<polygon fill-rule="evenodd" clip-rule="evenodd" points="83.825,9.789 83.823,9.792 83.848,9.792 83.852,9.743 83.828,9.738 
					83.821,9.739 83.825,9.789 83.825,9.789 				"/>
				<polygon fill-rule="evenodd" clip-rule="evenodd" points="82.865,9.805 82.842,9.822 83.825,9.789 83.821,9.739 82.842,9.775 
					82.822,9.792 82.864,9.805 82.864,9.805 82.865,9.805 				"/>
				<polygon fill="#343130" points="83.113,10.953 83.108,10.95 83.11,10.95 				"/>
				<g>
					<polygon fill="#343130" points="83.643,11.123 83.641,11.174 83.643,11.123 					"/>
					<g>
						<polygon fill="none" points="83.642,11.146 83.641,11.174 83.642,11.146 						"/>
						<g>
							<polygon fill="none" points="82.845,10.737 82.848,10.735 82.848,10.74 							"/>
							<path d="M82.83,10.793l0.007,0.024l0.006,0.026l0.011,0.019l0.059,0.034l0.062,0.034l0.06,0.033l0.057,0.031h0.002
								l0.061,0.028l0.06,0.03l0.063,0.026l0.065,0.028h0.002l0.067,0.019l0.07,0.02v0.001l0.079,0.013l0.079,0.012l0.002,0.001
								l0.084,0.003l0.003-0.002l0.091,0.004l0.098-0.004l0.103-0.005l0.022-0.015l0.132-0.375l-0.023-0.033l0.002,0.048
								l-0.005-0.009l0.003-0.013h-0.014l-0.007-0.008l-0.002,0.009l-0.079,0.005h-0.099l-0.09-0.001l-0.084-0.005l-0.081-0.012
								l-0.075-0.015l-0.07-0.021l-0.068-0.02l-0.063-0.024l-0.064-0.024l-0.058-0.029l-0.059-0.03l-0.061-0.032l-0.058-0.033
								l-0.059-0.033l-0.039-0.022v-0.004l-0.021-0.008l0,0l-0.006-0.026l-0.004-0.025v-0.007l0.014-0.039l-0.021-0.006
								l-0.001-0.002l0,0l-0.021-0.006l-0.134,0.375l-0.002,0.012l0.004,0.025L82.83,10.793z M82.848,10.735v0.005l-0.003-0.003
								L82.848,10.735z"/>
						</g>
					</g>
				</g>
				<polygon fill-rule="evenodd" clip-rule="evenodd" points="84.048,10.801 84.151,10.795 84.149,10.747 84.048,10.753 
					84.048,10.801 84.048,10.801 84.048,10.801 				"/>
				<polygon fill-rule="evenodd" clip-rule="evenodd" points="83.951,10.805 84.048,10.801 84.048,10.753 83.949,10.755 
					83.951,10.805 83.951,10.805 83.951,10.805 				"/>
				<polygon fill-rule="evenodd" clip-rule="evenodd" points="83.858,10.801 83.862,10.804 83.951,10.805 83.949,10.755 
					83.859,10.754 83.863,10.753 83.857,10.805 83.857,10.805 83.858,10.801 				"/>
				<polygon fill-rule="evenodd" clip-rule="evenodd" points="83.771,10.795 83.773,10.797 83.857,10.805 83.863,10.753 
					83.776,10.747 83.778,10.748 83.771,10.795 83.771,10.795 83.771,10.795 				"/>
				<polygon fill-rule="evenodd" clip-rule="evenodd" points="83.692,10.784 83.771,10.795 83.778,10.748 83.701,10.735 
					83.692,10.784 83.692,10.784 				"/>
				<polygon fill-rule="evenodd" clip-rule="evenodd" points="83.615,10.77 83.615,10.771 83.692,10.784 83.701,10.735 
					83.621,10.721 83.624,10.723 83.615,10.77 83.615,10.77 83.615,10.77 				"/>
				<polygon fill-rule="evenodd" clip-rule="evenodd" points="83.546,10.75 83.615,10.77 83.624,10.723 83.555,10.704 
					83.546,10.753 83.546,10.753 83.546,10.75 				"/>
				<polygon fill-rule="evenodd" clip-rule="evenodd" points="83.475,10.732 83.476,10.732 83.546,10.753 83.555,10.704 
					83.487,10.683 83.488,10.685 83.475,10.732 83.475,10.732 				"/>
				<polygon fill-rule="evenodd" clip-rule="evenodd" points="83.408,10.706 83.408,10.706 83.475,10.732 83.488,10.685 
					83.422,10.659 83.428,10.659 83.406,10.705 83.406,10.705 83.408,10.706 				"/>
				<polygon fill-rule="evenodd" clip-rule="evenodd" points="83.347,10.678 83.406,10.705 83.428,10.659 83.363,10.632 
					83.347,10.678 83.347,10.678 				"/>
				<polygon fill-rule="evenodd" clip-rule="evenodd" points="83.284,10.65 83.347,10.678 83.363,10.632 83.304,10.605 
					83.284,10.65 83.284,10.65 				"/>
				<polygon fill-rule="evenodd" clip-rule="evenodd" points="83.225,10.618 83.227,10.622 83.284,10.65 83.304,10.605 
					83.242,10.575 83.244,10.575 83.223,10.619 83.223,10.619 83.225,10.618 				"/>
				<polygon fill-rule="evenodd" clip-rule="evenodd" points="83.166,10.587 83.223,10.619 83.244,10.575 83.187,10.544 
					83.164,10.59 83.164,10.59 83.166,10.587 				"/>
				<polygon fill-rule="evenodd" clip-rule="evenodd" points="83.108,10.555 83.164,10.59 83.187,10.544 83.131,10.511 
					83.105,10.553 83.105,10.553 83.108,10.555 				"/>
				<polygon fill-rule="evenodd" clip-rule="evenodd" points="83.049,10.519 83.105,10.553 83.131,10.511 83.069,10.479 
					83.049,10.519 83.049,10.519 				"/>
				<polygon fill-rule="evenodd" clip-rule="evenodd" points="83.021,10.473 82.989,10.485 83.049,10.519 83.069,10.479 
					83.011,10.443 82.978,10.456 83.021,10.473 83.021,10.473 83.021,10.473 				"/>
				<polygon fill-rule="evenodd" clip-rule="evenodd" points="89.138,9.792 89.003,10.171 89.439,10.327 89.542,10.076 
					89.545,10.051 89.547,10.028 89.542,10.001 89.533,9.975 89.518,9.954 89.507,9.929 89.489,9.905 89.472,9.882 89.45,9.862 
					89.428,9.842 89.406,9.824 89.383,9.811 89.364,9.795 89.338,9.786 89.315,9.772 89.295,9.764 89.278,9.758 89.256,9.755 
					89.233,9.753 89.214,9.755 89.191,9.758 89.172,9.766 89.154,9.778 89.138,9.792 89.138,9.792 89.138,9.792 				"/>
				<polygon fill-rule="evenodd" clip-rule="evenodd" points="89.42,10.314 89.447,10.301 89.008,10.147 88.994,10.193 
					89.435,10.349 89.463,10.337 89.42,10.314 89.42,10.314 				"/>
				<g>
					<polygon fill="none" points="89.506,10.422 89.507,10.448 89.506,10.422 					"/>
					<polygon fill="none" points="89.729,10.171 89.748,10.187 89.729,10.174 					"/>
					<g>
						<polygon fill="none" points="89.748,10.187 89.729,10.174 89.729,10.171 						"/>
						<g>
							<polygon fill="none" points="89.748,10.187 89.729,10.174 89.729,10.171 							"/>
							<polygon points="82.661,10.057 82.664,10.049 82.798,9.673 82.84,9.688 82.71,10.059 82.708,10.074 82.707,10.069 
								82.661,10.079 82.66,10.072 							"/>
							<g>
								<polygon fill="none" points="89.748,10.187 89.729,10.174 89.729,10.171 								"/>
								<polygon fill="#343130" points="84.811,10.943 84.8,10.946 84.8,10.946 								"/>
								<g>
									<polygon fill="none" points="84.817,10.964 84.834,10.981 84.817,10.964 									"/>
									<polygon fill="none" points="89.748,10.187 89.729,10.174 89.729,10.171 									"/>
									<polygon fill="none" points="84.242,11.492 84.242,11.492 84.242,11.492 84.222,11.484 84.241,11.484 									"/>
									<path d="M82.677,10.138l0.008,0.022V10.16l0.033-0.009l-0.008,0.024l0.981-0.034h0.023l0.024,0.009l0.025,0.01l0.025,0.01
										l0.024,0.015l0.018,0.015l0.015,0.017l0.007,0.017l-0.021,0.009l0.39,1.258h0.021l0.002,0.015h0.036h0.033h0.031
										l0.026-0.004l0.03-0.009l0.025-0.014l0.026-0.024l0.031-0.032V11.43l0.02-0.026l0.02-0.029l0.023-0.028l0.019-0.029
										l0.018-0.036l0.021-0.03l0.017-0.033l0.025-0.036l0.017-0.028l0.025-0.031l0.022-0.03l0.024-0.026l0.021-0.024l0.023-0.023
										L84.804,11l0.024-0.016l0.006-0.003l-0.017-0.017l0,0l0.017,0.017l0.027-0.031l0.023-0.023l0.021-0.021l0.022-0.021
										l0.024-0.017l0.021-0.015l0.021-0.013l0.024-0.01l0.021-0.007l0.028-0.012l0.023-0.005l0.03-0.005l0.033-0.006l0.034-0.001
										l0.041-0.004l0.038-0.001l0.001,0.001l4.237-0.339l0.026-0.004l0.021-0.004l0.022-0.005l0.02-0.009l0.019-0.007
										l0.021-0.014l0.02-0.018l0.02-0.018l0.002-0.006l0.073-0.184l-0.037-0.026l0.016,0.018l-0.002,0.002l-0.018-0.014
										l-0.02,0.044l-0.013,0.009l-0.016,0.007l-0.019,0.007l-0.019,0.004l-0.021,0.005l-0.023,0.005l-4.238,0.338l-0.03,0.003
										l-0.025,0h-0.025l-0.028,0.005h-0.028l-0.025,0.003l-0.025,0.004l-0.022,0.004l-0.03,0.004l-0.023,0.004l-0.026,0.007
										l-0.028,0.008L85,10.627l-0.03,0.01l-0.025,0.011l-0.026,0.013l-0.048,0.033l-0.053,0.05l-0.057,0.06l-0.05,0.066
										l-0.049,0.07l-0.044,0.063l-0.04,0.059l-0.037,0.045l-0.02,0.005l-0.018,0.004l-0.021,0.002h-0.021h-0.023l-0.019,0
										l-0.021-0.002l-0.021-0.002L83.989,9.86l-0.01-0.018l-0.016-0.018L83.948,9.81L83.92,9.792l-0.021-0.011L83.87,9.773
										l-0.022-0.006l-0.022-0.001l-0.983,0.033l-0.116,0.332v-0.004L82.677,10.138z M89.729,10.174v-0.002l0.02,0.015
										L89.729,10.174z"/>
								</g>
							</g>
						</g>
					</g>
				</g>
				<polygon fill-rule="evenodd" clip-rule="evenodd" points="89.581,10.267 89.606,10.26 89.628,10.256 89.649,10.25 
					89.671,10.243 89.689,10.231 89.711,10.22 89.727,10.206 89.748,10.187 89.713,10.153 89.699,10.169 89.683,10.181 
					89.669,10.191 89.652,10.198 89.635,10.204 89.619,10.209 89.599,10.211 89.577,10.214 89.581,10.267 89.581,10.267 				"/>
				<polygon fill-rule="evenodd" clip-rule="evenodd" points="85.345,10.602 89.581,10.267 89.577,10.214 85.34,10.553 
					85.345,10.602 85.345,10.602 				"/>
				<polygon fill-rule="evenodd" clip-rule="evenodd" points="84.929,10.682 84.954,10.671 84.977,10.662 85.007,10.652 
					85.028,10.644 85.057,10.635 85.081,10.632 85.104,10.627 85.134,10.624 85.156,10.618 85.181,10.618 85.209,10.614 
					85.235,10.612 85.262,10.608 85.286,10.607 85.313,10.605 85.345,10.602 85.34,10.553 85.311,10.556 85.286,10.558 
					85.256,10.558 85.23,10.562 85.203,10.564 85.179,10.568 85.153,10.569 85.123,10.571 85.098,10.577 85.072,10.584 
					85.045,10.588 85.017,10.596 84.991,10.605 84.963,10.615 84.935,10.625 84.91,10.638 84.929,10.682 84.929,10.682 
					84.929,10.682 				"/>
				<polygon fill-rule="evenodd" clip-rule="evenodd" points="84.549,11.129 84.557,11.125 84.578,11.1 84.595,11.076 
					84.614,11.048 84.633,11.018 84.661,10.986 84.683,10.954 84.706,10.919 84.733,10.887 84.757,10.85 84.781,10.818 
					84.807,10.791 84.834,10.76 84.858,10.734 84.883,10.714 84.905,10.695 84.929,10.682 84.91,10.638 84.881,10.657 
					84.858,10.674 84.827,10.699 84.799,10.728 84.772,10.755 84.749,10.784 84.721,10.822 84.694,10.857 84.671,10.89 
					84.646,10.924 84.625,10.957 84.6,10.989 84.579,11.018 84.557,11.046 84.541,11.07 84.525,11.089 84.534,11.085 84.549,11.129 
					84.549,11.129 84.549,11.129 				"/>
				<polygon fill="none" points="89.127,9.814 89.138,9.792 89.151,9.776 89.179,9.763 89.209,9.758 89.224,9.759 89.245,9.762 
					89.26,9.764 89.278,9.769 89.299,9.775 89.316,9.782 89.338,9.792 89.359,9.805 89.379,9.813 89.398,9.828 89.414,9.842 
					89.435,9.859 89.451,9.873 89.466,9.891 89.48,9.905 89.494,9.924 89.521,9.956 89.533,9.992 89.54,10.009 89.544,10.022 
					89.54,10.05 89.536,10.074 89.518,10.094 89.498,10.105 89.467,10.112 89.45,10.114 89.433,10.11 89.412,10.108 89.391,10.102 
					89.371,10.096 89.349,10.087 89.328,10.079 89.31,10.064 89.288,10.057 89.267,10.043 89.246,10.028 89.227,10.012 
					89.212,9.998 89.191,9.98 89.177,9.961 89.165,9.945 89.143,9.908 89.13,9.873 89.127,9.862 89.123,9.843 				"/>
				<polygon fill-rule="evenodd" clip-rule="evenodd" fill="#FFFFFF" points="83.737,9.767 83.825,9.766 83.832,9.766 83.081,9.499 
					83.042,9.521 83.737,9.77 83.737,9.77 83.737,9.767 				"/>
				<polygon fill-rule="evenodd" clip-rule="evenodd" fill="#FFFFFF" points="83.737,9.767 82.842,9.799 82.84,9.778 82.837,9.756 
					82.828,9.738 82.822,9.715 82.817,9.697 82.817,9.682 82.823,9.663 82.84,9.649 82.875,9.624 82.916,9.598 82.959,9.573 
					82.999,9.547 83.037,9.52 83.042,9.521 83.737,9.77 83.737,9.77 83.737,9.767 				"/>
				<polygon fill="#FFFFFF" points="83.194,10.347 83.802,10.312 84.041,10.413 84.124,10.679 84.149,10.773 84.048,10.779 
					83.949,10.779 83.859,10.778 83.775,10.773 83.694,10.761 83.619,10.747 83.549,10.726 83.48,10.706 83.417,10.681 
					83.353,10.657 83.295,10.627 83.236,10.597 83.176,10.565 83.118,10.532 83.06,10.499 82.999,10.464 82.993,10.438 
					82.989,10.413 82.983,10.386 82.98,10.359 				"/>
				<polygon fill-rule="evenodd" clip-rule="evenodd" fill="#FFFFFF" points="84.727,10.422 84.735,10.433 84.813,10.484 
					84.84,10.44 84.76,10.389 84.768,10.403 84.727,10.422 84.732,10.428 84.735,10.433 84.727,10.422 84.727,10.422 				"/>
				<polygon fill-rule="evenodd" clip-rule="evenodd" fill="#FFFFFF" points="84.03,10.438 84.017,10.422 84.129,10.78 
					84.173,10.765 84.062,10.406 84.049,10.392 84.062,10.406 84.06,10.395 84.049,10.392 84.03,10.438 84.03,10.438 84.03,10.438 
									"/>
				<polygon fill-rule="evenodd" clip-rule="evenodd" fill="#FFFFFF" points="83.806,10.335 83.793,10.333 84.03,10.438 
					84.049,10.392 83.813,10.287 83.803,10.287 83.813,10.287 83.809,10.286 83.803,10.287 83.806,10.335 83.806,10.335 
					83.806,10.335 				"/>
				<polygon fill-rule="evenodd" clip-rule="evenodd" fill="#FFFFFF" points="83.005,10.359 82.981,10.386 83.806,10.335 
					83.803,10.287 82.98,10.337 82.959,10.362 82.98,10.337 82.954,10.337 82.959,10.362 83.005,10.359 83.005,10.359 				"/>
				<polygon fill-rule="evenodd" clip-rule="evenodd" fill="#FFFFFF" points="83.011,10.443 83.021,10.459 83.02,10.447 
					83.016,10.433 83.016,10.422 83.012,10.409 83.012,10.397 83.009,10.382 83.005,10.373 83.005,10.359 82.959,10.362 
					82.959,10.377 82.96,10.394 82.964,10.405 82.966,10.418 82.971,10.428 82.972,10.442 82.976,10.456 82.976,10.469 
					82.989,10.485 82.976,10.469 82.98,10.48 82.989,10.485 83.011,10.443 83.011,10.443 				"/>
				<polygon fill-rule="evenodd" clip-rule="evenodd" fill="#FFFFFF" points="84.129,10.778 84.147,10.747 84.048,10.753 
					83.949,10.755 83.863,10.753 83.776,10.747 83.701,10.735 83.624,10.723 83.555,10.704 83.488,10.685 83.422,10.659 
					83.363,10.632 83.304,10.605 83.244,10.575 83.187,10.544 83.131,10.511 83.069,10.479 83.011,10.443 82.989,10.485 
					83.049,10.519 83.105,10.553 83.164,10.59 83.223,10.619 83.284,10.65 83.347,10.678 83.408,10.706 83.475,10.732 
					83.546,10.753 83.615,10.77 83.692,10.784 83.773,10.797 83.857,10.805 83.951,10.805 84.048,10.801 84.153,10.797 
					84.173,10.765 84.153,10.797 84.184,10.793 84.173,10.765 84.129,10.78 84.129,10.78 84.129,10.778 				"/>
				<g>
					<polygon fill="none" points="84.555,11.097 84.572,11.113 84.555,11.097 					"/>
					<polygon fill="none" points="84.4,11.089 84.395,11.089 84.395,11.089 					"/>
					<polygon fill="none" points="84.016,9.869 84.633,10.091 84.016,9.869 					"/>
				</g>
				<polygon fill-rule="evenodd" clip-rule="evenodd" fill="#FFFFFF" points="85.34,10.553 85.306,10.555 85.271,10.56 
					85.239,10.561 85.208,10.564 85.175,10.569 85.142,10.575 85.105,10.581 85.073,10.588 85.04,10.597 85.012,10.607 
					84.978,10.618 84.951,10.631 84.923,10.644 84.894,10.657 84.87,10.676 84.846,10.697 84.874,10.734 84.895,10.717 
					84.918,10.703 84.94,10.687 84.968,10.676 84.994,10.661 85.022,10.654 85.056,10.645 85.084,10.635 85.115,10.632 
					85.146,10.625 85.179,10.622 85.209,10.615 85.245,10.609 85.28,10.607 85.311,10.603 85.345,10.602 85.34,10.553 85.34,10.553 
					85.34,10.553 				"/>
				<polygon fill-rule="evenodd" clip-rule="evenodd" fill="#FFFFFF" points="89.577,10.214 85.34,10.553 85.345,10.602 
					89.581,10.267 89.577,10.214 89.577,10.214 				"/>
				<polygon fill-rule="evenodd" clip-rule="evenodd" fill="#FFFFFF" points="89.655,9.938 89.673,9.965 89.69,9.989 89.7,10.014 
					89.713,10.041 89.722,10.062 89.723,10.085 89.723,10.105 89.723,10.125 89.717,10.141 89.71,10.156 89.7,10.171 89.683,10.185 
					89.668,10.193 89.64,10.204 89.613,10.211 89.577,10.214 89.581,10.267 89.62,10.262 89.655,10.251 89.683,10.241 89.71,10.224 
					89.733,10.207 89.75,10.184 89.76,10.162 89.769,10.134 89.768,10.106 89.769,10.08 89.761,10.051 89.755,10.022 89.745,9.995 
					89.729,9.965 89.711,9.934 89.69,9.91 89.655,9.938 89.655,9.938 				"/>
				<polygon fill-rule="evenodd" clip-rule="evenodd" fill="#FFFFFF" points="89.149,9.68 89.188,9.679 89.225,9.682 89.267,9.692 
					89.304,9.697 89.339,9.709 89.376,9.723 89.411,9.739 89.443,9.756 89.478,9.776 89.509,9.798 89.544,9.819 89.564,9.841 
					89.592,9.863 89.614,9.892 89.635,9.916 89.655,9.938 89.69,9.91 89.671,9.882 89.646,9.854 89.622,9.828 89.593,9.803 
					89.562,9.778 89.533,9.756 89.501,9.735 89.467,9.712 89.429,9.695 89.393,9.679 89.354,9.664 89.314,9.649 89.277,9.642 
					89.234,9.635 89.188,9.631 89.149,9.631 89.149,9.68 89.149,9.68 				"/>
				<polygon fill-rule="evenodd" clip-rule="evenodd" fill="#FFFFFF" points="85.399,9.818 89.149,9.68 89.149,9.631 85.4,9.77 
					85.399,9.818 85.399,9.818 				"/>
				<polygon fill-rule="evenodd" clip-rule="evenodd" fill="#FFFFFF" points="84.808,9.719 84.843,9.732 84.882,9.741 84.918,9.754 
					84.955,9.763 84.994,9.772 85.028,9.782 85.072,9.788 85.105,9.793 85.146,9.801 85.184,9.805 85.221,9.812 85.259,9.812 
					85.294,9.818 85.332,9.816 85.367,9.819 85.399,9.818 85.4,9.77 85.365,9.77 85.331,9.769 85.297,9.767 85.262,9.764 
					85.224,9.759 85.188,9.756 85.153,9.753 85.115,9.746 85.077,9.738 85.04,9.732 85.004,9.723 84.968,9.715 84.93,9.706 
					84.889,9.693 84.86,9.686 84.823,9.672 84.807,9.719 84.807,9.719 84.808,9.719 				"/>
				<polygon fill-rule="evenodd" clip-rule="evenodd" fill="#FFFFFF" points="83.542,9.347 83.606,9.337 83.67,9.33 83.727,9.325 
					83.78,9.322 83.83,9.321 83.873,9.327 83.92,9.328 83.959,9.331 84,9.338 84.039,9.347 84.073,9.354 84.105,9.366 84.138,9.378 
					84.164,9.391 84.198,9.404 84.223,9.418 84.255,9.434 84.283,9.45 84.314,9.468 84.345,9.486 84.372,9.504 84.405,9.526 
					84.437,9.541 84.469,9.563 84.505,9.581 84.54,9.604 84.579,9.621 84.618,9.642 84.662,9.662 84.706,9.679 84.757,9.701 
					84.807,9.719 84.823,9.672 84.772,9.653 84.723,9.634 84.68,9.616 84.636,9.598 84.596,9.576 84.562,9.559 84.525,9.536 
					84.491,9.519 84.459,9.5 84.426,9.48 84.397,9.461 84.367,9.44 84.336,9.423 84.305,9.407 84.275,9.391 84.246,9.374 
					84.217,9.358 84.186,9.344 84.151,9.33 84.118,9.318 84.083,9.305 84.046,9.297 84.009,9.292 83.964,9.281 83.923,9.276 
					83.88,9.274 83.828,9.274 83.776,9.274 83.721,9.276 83.662,9.281 83.603,9.291 83.537,9.297 83.542,9.347 83.542,9.347 
					83.542,9.347 				"/>
				<polygon fill-rule="evenodd" clip-rule="evenodd" fill="#FFFFFF" points="82.853,9.673 82.888,9.646 82.929,9.621 82.972,9.596 
					83.012,9.566 83.051,9.543 83.094,9.518 83.134,9.495 83.174,9.474 83.22,9.453 83.265,9.431 83.308,9.411 83.352,9.395 
					83.4,9.381 83.446,9.366 83.494,9.354 83.542,9.347 83.537,9.297 83.484,9.307 83.434,9.318 83.385,9.334 83.338,9.347 
					83.293,9.367 83.243,9.385 83.202,9.405 83.155,9.428 83.11,9.451 83.066,9.477 83.027,9.5 82.985,9.524 82.945,9.551 
					82.905,9.576 82.865,9.602 82.826,9.63 82.85,9.672 82.85,9.672 82.853,9.673 				"/>
				<polygon fill-rule="evenodd" clip-rule="evenodd" fill="#FFFFFF" points="82.842,9.775 82.866,9.797 82.859,9.774 82.854,9.749 
					82.851,9.73 82.845,9.709 82.842,9.695 82.84,9.686 82.844,9.676 82.85,9.672 82.826,9.63 82.807,9.649 82.798,9.676 
					82.794,9.701 82.801,9.723 82.805,9.745 82.812,9.764 82.816,9.784 82.82,9.803 82.842,9.822 82.82,9.803 82.822,9.822 
					82.842,9.822 82.842,9.775 82.842,9.775 				"/>
				<g>
					<polygon fill="none" points="84.573,9.956 84.577,9.956 84.568,9.981 					"/>
					<polygon fill="#FFFFFF" points="84.577,9.954 84.577,9.956 84.573,9.956 					"/>
					<polygon fill="#FFFFFF" points="84.565,9.965 84.573,9.956 84.568,9.981 					"/>
					<g>
						<polygon fill="none" points="89.138,9.792 89.151,9.776 89.179,9.763 89.209,9.758 89.224,9.759 89.245,9.762 89.26,9.764 
							89.278,9.769 89.299,9.775 89.316,9.782 89.338,9.792 89.359,9.805 89.379,9.813 89.398,9.828 89.414,9.842 89.435,9.859 
							89.451,9.873 89.466,9.891 89.48,9.905 89.494,9.924 89.521,9.956 89.533,9.992 89.54,10.009 89.544,10.022 89.54,10.05 
							89.536,10.074 89.518,10.094 89.498,10.105 89.467,10.112 89.45,10.114 89.433,10.11 89.412,10.108 89.391,10.102 
							89.371,10.096 89.349,10.087 89.328,10.079 89.31,10.064 89.288,10.057 89.267,10.043 89.246,10.028 89.227,10.012 
							89.212,9.998 89.191,9.98 89.177,9.961 89.165,9.945 89.143,9.908 89.13,9.873 89.127,9.862 89.123,9.843 89.127,9.814 						
							"/>
						<polygon fill="none" points="85.051,9.954 85.051,9.954 85.028,9.962 						"/>
						<polygon fill="none" points="85.203,10.364 85.22,10.376 85.221,10.38 85.179,10.433 84.825,10.459 84.749,10.413 
							84.749,10.411 84.768,10.403 84.618,9.978 84.644,9.952 84.967,9.931 85.034,9.969 85.201,10.391 						"/>
						<polygon fill="none" points="83.995,9.825 83.995,9.825 84.589,10.037 						"/>
						<g>
							<polygon fill="none" points="89.138,9.792 89.151,9.776 89.179,9.763 89.209,9.758 89.224,9.759 89.245,9.762 89.26,9.764 
								89.278,9.769 89.299,9.775 89.316,9.782 89.338,9.792 89.359,9.805 89.379,9.813 89.398,9.828 89.414,9.842 89.435,9.859 
								89.451,9.873 89.466,9.891 89.48,9.905 89.494,9.924 89.521,9.956 89.533,9.992 89.54,10.009 89.544,10.022 89.54,10.05 
								89.536,10.074 89.518,10.094 89.498,10.105 89.467,10.112 89.45,10.114 89.433,10.11 89.412,10.108 89.391,10.102 
								89.371,10.096 89.349,10.087 89.328,10.079 89.31,10.064 89.288,10.057 89.267,10.043 89.246,10.028 89.227,10.012 
								89.212,9.998 89.191,9.98 89.177,9.961 89.165,9.945 89.143,9.908 89.13,9.873 89.127,9.862 89.123,9.843 89.127,9.814 
															"/>
							<polygon fill="none" points="84.967,9.931 85.034,9.969 85.201,10.391 85.203,10.364 85.22,10.376 85.221,10.38 
								85.179,10.433 84.825,10.459 84.749,10.413 84.749,10.411 84.768,10.403 84.618,9.978 84.644,9.952 							"/>
							<polygon fill="none" points="83.995,9.825 83.995,9.825 84.589,10.037 							"/>
							<g>
								<polygon fill="none" points="89.138,9.792 89.151,9.776 89.179,9.763 89.209,9.758 89.224,9.759 89.245,9.762 89.26,9.764 
									89.278,9.769 89.299,9.775 89.316,9.782 89.338,9.792 89.359,9.805 89.379,9.813 89.398,9.828 89.414,9.842 89.435,9.859 
									89.451,9.873 89.466,9.891 89.48,9.905 89.494,9.924 89.521,9.956 89.533,9.992 89.54,10.009 89.544,10.022 89.54,10.05 
									89.536,10.074 89.518,10.094 89.498,10.105 89.467,10.112 89.45,10.114 89.433,10.11 89.412,10.108 89.391,10.102 
									89.371,10.096 89.349,10.087 89.328,10.079 89.31,10.064 89.288,10.057 89.267,10.043 89.246,10.028 89.227,10.012 
									89.212,9.998 89.191,9.98 89.177,9.961 89.165,9.945 89.143,9.908 89.13,9.873 89.127,9.862 89.123,9.843 89.127,9.814 
																	"/>
								<polygon fill="none" points="84.967,9.931 85.034,9.969 85.201,10.391 85.203,10.364 85.22,10.376 85.221,10.38 
									85.18,10.433 85.179,10.41 84.824,10.438 84.84,10.44 84.828,10.459 84.825,10.459 84.749,10.413 84.749,10.411 
									84.768,10.403 84.618,9.978 84.644,9.952 								"/>
								<polygon fill="none" points="83.995,9.825 83.995,9.825 84.589,10.037 								"/>
								<g>
									<polygon fill="none" points="85.214,10.296 85.883,10.536 85.214,10.296 									"/>
									<polygon fill="none" points="85.198,10.252 85.969,10.528 85.198,10.252 									"/>
									<polygon fill="none" points="89.138,9.792 89.151,9.776 89.179,9.763 89.209,9.758 89.224,9.759 89.245,9.762 89.26,9.764 
										89.278,9.769 89.299,9.775 89.316,9.782 89.338,9.792 89.359,9.805 89.379,9.813 89.398,9.828 89.414,9.842 89.435,9.859 
										89.451,9.873 89.466,9.891 89.48,9.905 89.494,9.924 89.521,9.956 89.533,9.992 89.54,10.009 89.544,10.022 89.54,10.05 
										89.536,10.074 89.518,10.094 89.498,10.105 89.467,10.112 89.45,10.114 89.433,10.11 89.412,10.108 89.391,10.102 
										89.371,10.096 89.349,10.087 89.328,10.079 89.31,10.064 89.288,10.057 89.267,10.043 89.246,10.028 89.227,10.012 
										89.212,9.998 89.191,9.98 89.177,9.961 89.165,9.945 89.143,9.908 89.13,9.873 89.127,9.862 89.123,9.843 89.127,9.814 
																			"/>
									<polygon fill="none" points="84.967,9.931 85.034,9.969 85.201,10.391 85.203,10.364 85.22,10.376 85.221,10.38 
										85.18,10.433 85.179,10.433 84.828,10.459 84.825,10.459 84.749,10.413 84.749,10.411 84.768,10.403 84.618,9.978 
										84.644,9.952 									"/>
									<polygon fill="none" points="83.995,9.825 83.995,9.825 84.589,10.037 									"/>
									<polygon fill="#FFFFFF" points="85.198,10.252 85.969,10.528 85.883,10.535 85.883,10.536 85.214,10.296 									"/>
									<g>
										<polygon fill="none" points="89.138,9.792 89.151,9.776 89.179,9.763 89.209,9.758 89.224,9.759 89.245,9.762 
											89.26,9.764 89.278,9.769 89.299,9.775 89.316,9.782 89.338,9.792 89.359,9.805 89.379,9.813 89.398,9.828 89.414,9.842 
											89.435,9.859 89.451,9.873 89.466,9.891 89.48,9.905 89.494,9.924 89.521,9.956 89.533,9.992 89.54,10.009 89.544,10.022 
											89.54,10.05 89.536,10.074 89.518,10.094 89.498,10.105 89.467,10.112 89.45,10.114 89.433,10.11 89.412,10.108 
											89.391,10.102 89.371,10.096 89.349,10.087 89.328,10.079 89.31,10.064 89.288,10.057 89.267,10.043 89.246,10.028 
											89.227,10.012 89.212,9.998 89.191,9.98 89.177,9.961 89.165,9.945 89.143,9.908 89.13,9.873 89.127,9.862 89.123,9.843 
											89.127,9.814 										"/>
										<polygon fill="none" points="84.967,9.931 85.034,9.969 85.197,10.376 85.168,10.41 84.824,10.438 84.84,10.44 
											84.828,10.459 84.825,10.459 84.749,10.413 84.749,10.411 84.768,10.403 84.618,9.978 84.644,9.952 										"/>
										<polygon fill="none" points="85.203,10.364 85.22,10.376 85.22,10.376 										"/>
										<polygon fill="none" points="83.995,9.825 83.995,9.825 84.589,10.037 										"/>
										<path fill="#FFFFFF" d="M82.842,9.822l0.983-0.034l0.019,0.003l0.02,0.006l0.024,0.008l0.026,0.008l0.021,0.015
											l0.014,0.011l0.011,0.017l0.005,0.005l0.393,1.26l0.004,0.019l0.021-0.001l0.02-0.002l0.019,0.002l0.031,0.002
											l0.025-0.001l0.026,0.002l0.022-0.007l0.024-0.009l0.022-0.015l0.026-0.028l0.02-0.03l0.021-0.026l0.021-0.025
											l0.016-0.024l0.017-0.021l0.015-0.022l0.017-0.025l0.014-0.023l0.018-0.021l0.014-0.023l0.021-0.02l0.018-0.02
											l0.021-0.023l0.021-0.022l0.026-0.025l-0.013-0.019l0.021-0.019l0.023-0.018l0.029-0.012l0.022-0.015l0.031-0.012
											l0.031-0.009l0.028-0.013l0.033-0.007l0.029-0.005l0.031-0.006l0.037-0.006l0.03-0.004l0.034-0.004l0.033-0.002
											l0.032-0.004l0.033-0.001l0.541-0.042l-0.669-0.24l-0.016-0.044l0,0l0.771,0.276l3.611-0.288l0.065-0.011l0.05-0.026
											l0.036-0.035l0.014-0.042v-0.045l0.002-0.003l-0.014-0.052L89.71,9.976l-0.034-0.054l-0.021-0.024l-0.024-0.026
											l-0.024-0.027l-0.025-0.022l-0.028-0.024l-0.03-0.021l-0.034-0.022l-0.032-0.021L89.42,9.719l-0.035-0.018l-0.037-0.012
											L89.31,9.673l-0.041-0.006l-0.039-0.008l-0.041-0.005l-0.039,0.001l-0.546,0.022L85.4,9.792h-0.035l-0.033,0.001
											l-0.037-0.001l-0.036-0.004l-0.035-0.002l-0.037-0.004L85.15,9.775L85.111,9.77l-0.038-0.006l-0.037-0.007L85,9.748
											l-0.04-0.01l-0.037-0.01l-0.036-0.009l-0.036-0.012l-0.034-0.01l-0.054-0.02l-0.048-0.019l-0.044-0.019l-0.043-0.018
											l-0.039-0.022l-0.038-0.019l-0.036-0.021L84.48,9.543L84.448,9.52l-0.031-0.019l-0.033-0.019l-0.027-0.019l-0.032-0.018
											L84.293,9.43l-0.029-0.016l-0.026-0.019l-0.031-0.017l-0.032-0.013l-0.027-0.011l-0.034-0.011L84.074,9.33l-0.032-0.009
											l-0.039-0.007l-0.042-0.007L83.92,9.304l-0.046-0.006l-0.046,0l-0.052,0l-0.052,0.003l-0.06,0.006l-0.061,0.007
											L83.54,9.322L83.491,9.33l-0.049,0.013l-0.049,0.011l-0.045,0.018L83.3,9.391l-0.048,0.02l-0.041,0.02L83.166,9.45
											l-0.044,0.023l-0.041,0.026l0.684,0.244l-0.923,0.033V9.822z M89.123,9.843l0.004-0.029l0.011-0.022l0.014-0.017
											l0.027-0.013l0.03-0.005l0.015,0.001l0.021,0.003l0.015,0.002l0.019,0.005l0.021,0.006l0.018,0.007l0.021,0.01
											l0.021,0.013l0.02,0.008l0.02,0.015l0.016,0.014l0.021,0.017l0.017,0.014l0.015,0.018l0.015,0.014l0.014,0.019
											l0.027,0.032l0.012,0.036l0.007,0.017l0.004,0.014L89.54,10.05l-0.004,0.023l-0.019,0.02l-0.02,0.012l-0.031,0.006
											l-0.017,0.002l-0.018-0.003l-0.021-0.002l-0.021-0.006l-0.02-0.006l-0.022-0.009l-0.021-0.009l-0.019-0.015l-0.021-0.007
											l-0.021-0.014l-0.021-0.015l-0.02-0.016l-0.015-0.014L89.191,9.98l-0.015-0.019l-0.012-0.017l-0.022-0.037L89.13,9.873
											l-0.003-0.011L89.123,9.843z M85.22,10.376L85.22,10.376l-0.017-0.012L85.22,10.376z M84.618,9.978l0.025-0.026
											l0.323-0.021l0.067,0.038l0.163,0.407l-0.029,0.034l-0.344,0.028l0.016,0.002l-0.012,0.019h-0.003l-0.076-0.047v-0.002
											l0.019-0.008L84.618,9.978z"/>
									</g>
								</g>
							</g>
						</g>
					</g>
				</g>
				<polygon fill-rule="evenodd" clip-rule="evenodd" points="88.904,10.105 88.886,10.094 88.881,10.074 88.91,10.067 
					88.914,10.086 88.897,10.072 88.904,10.105 88.904,10.105 				"/>
				<polygon fill-rule="evenodd" clip-rule="evenodd" points="88.943,10.082 88.938,10.087 88.931,10.095 88.923,10.1 
					88.914,10.104 88.904,10.105 88.897,10.072 88.904,10.074 88.91,10.069 88.916,10.067 88.918,10.064 88.915,10.069 
					88.943,10.083 88.943,10.083 88.943,10.082 				"/>
				<polygon fill-rule="evenodd" clip-rule="evenodd" points="88.866,9.892 88.867,9.893 88.877,9.91 88.895,9.929 88.913,9.949 
					88.929,9.974 88.943,9.998 88.951,10.025 88.951,10.057 88.943,10.083 88.915,10.069 88.922,10.051 88.921,10.034 
					88.914,10.012 88.904,9.992 88.889,9.969 88.874,9.952 88.856,9.931 88.841,9.916 88.845,9.916 88.866,9.892 88.866,9.892 				
					"/>
				<polygon fill-rule="evenodd" clip-rule="evenodd" points="88.604,9.812 88.602,9.81 88.638,9.812 88.674,9.812 88.708,9.819 
					88.74,9.822 88.77,9.832 88.802,9.849 88.833,9.866 88.866,9.892 88.845,9.916 88.813,9.894 88.788,9.878 88.762,9.862 
					88.732,9.855 88.703,9.849 88.671,9.845 88.637,9.843 88.604,9.843 88.604,9.843 88.602,9.813 88.602,9.813 88.604,9.812 				
					"/>
				<polygon fill-rule="evenodd" clip-rule="evenodd" points="85.849,9.966 85.862,9.956 88.602,9.813 88.604,9.843 85.866,9.99 
					85.88,9.981 85.849,9.966 85.849,9.966 				"/>
				<polygon fill-rule="evenodd" clip-rule="evenodd" points="85.787,10.068 85.756,10.059 85.758,10.037 85.765,10.018 
					85.771,9.998 85.785,9.984 85.798,9.975 85.818,9.967 85.837,9.959 85.862,9.956 85.866,9.99 85.843,9.995 85.823,9.999 
					85.813,10.001 85.804,10.009 85.799,10.018 85.791,10.028 85.787,10.041 85.787,10.062 85.758,10.051 85.787,10.068 
					85.787,10.068 				"/>
				<g>
					<polygon fill="none" points="85.862,9.958 85.866,9.99 85.862,9.958 					"/>
					<g>
						<polygon fill="none" points="85.787,10.062 85.791,10.043 85.799,10.022 85.808,10.007 85.821,9.998 85.84,9.995 
							85.863,9.991 85.866,9.99 88.604,9.843 88.651,9.847 88.688,9.843 88.727,9.849 88.759,9.857 88.789,9.873 88.814,9.891 
							88.841,9.916 88.871,9.949 88.895,9.981 88.914,10.012 88.925,10.037 88.925,10.051 88.918,10.064 88.897,10.075 
							88.867,10.084 88.821,10.091 86.005,10.245 86.004,10.244 85.965,10.243 85.926,10.231 85.891,10.214 85.858,10.197 
							85.836,10.169 85.82,10.143 85.804,10.117 85.791,10.096 85.788,10.08 						"/>
						<g>
							<path fill="none" d="M85.791,10.043l-0.004,0.019l0.001,0.019l0.003,0.016l0.013,0.021l0.017,0.026l0.016,0.026l0.022,0.028
								l0.032,0.017l0.035,0.017l0.039,0.012l0.039,0.001l0.001,0l2.816-0.154l0.046-0.006l0.03-0.009l0.021-0.011l0.007-0.013
								v-0.015l-0.011-0.024l-0.02-0.031l-0.023-0.032l-0.03-0.033l-0.026-0.025l-0.025-0.018l-0.03-0.016l-0.032-0.008
								l-0.038-0.006l-0.037,0.003l-0.047-0.003L85.866,9.99l-0.003,0L85.84,9.995l-0.019,0.003l-0.014,0.009l-0.009,0.016
								L85.791,10.043z M85.831,10.024l2.738-0.146V9.873l0.036,0.002h0.036l0.033,0.006l0.033,0.005l0.032,0.009l0.028,0.016
								L88.8,9.929l0.033,0.026l0.011,0.015l0.012,0.01l0.012,0.014l0.005,0.01l0.012,0.014l0.009,0.017l0.01,0.013l0.008,0.013
								v0.005l-0.029,0.007v0.006l-0.006-0.016l-0.008-0.013l-0.01-0.011l-0.01-0.013l-0.008-0.011l-0.009-0.013l-0.01-0.012
								L88.806,9.98l0.003-0.001l-0.025-0.02l-0.026-0.02L88.73,9.927l-0.027-0.008l-0.032-0.005L88.638,9.91l-0.034-0.001H88.57
								l-2.738,0.144L85.831,10.024z"/>
							<g>
								<path fill="none" d="M85.791,10.043l-0.004,0.019l0.001,0.019l0.003,0.016l0.013,0.021l0.017,0.026l0.016,0.026l0.022,0.028
									l0.032,0.017l0.035,0.017l0.039,0.012l0.039,0.001l0.001,0l2.816-0.154l0.046-0.006l0.03-0.009l0.021-0.011l0.007-0.013
									v-0.015l-0.011-0.024l-0.02-0.031l-0.023-0.032l-0.03-0.033l-0.026-0.025l-0.025-0.018l-0.03-0.016l-0.032-0.008
									l-0.038-0.006l-0.037,0.003l-0.047-0.003L85.866,9.99l-0.003,0L85.84,9.995l-0.019,0.003l-0.014,0.009l-0.009,0.016
									L85.791,10.043z"/>
								<g>
									<polygon fill="none" points="85.799,10.022 85.808,10.007 85.821,9.998 85.84,9.995 85.854,9.992 85.832,10.038 
										88.57,9.892 88.605,9.892 88.638,9.893 88.672,9.899 88.704,9.904 88.733,9.912 88.763,9.924 88.793,9.945 88.822,9.967 
										88.831,9.981 88.841,9.992 88.851,10.005 88.863,10.017 88.871,10.03 88.88,10.044 88.888,10.057 88.895,10.072 
										88.897,10.077 88.867,10.084 88.821,10.091 86.005,10.245 86.004,10.244 85.965,10.243 85.926,10.231 85.891,10.214 
										85.858,10.197 85.836,10.169 85.82,10.143 85.804,10.117 85.791,10.096 85.788,10.08 85.787,10.062 85.791,10.043 
																			"/>
									<polygon points="88.888,10.057 88.88,10.044 88.871,10.03 88.863,10.017 88.851,10.005 88.841,9.992 88.831,9.981 
										88.822,9.967 88.793,9.945 88.763,9.924 88.733,9.912 88.704,9.904 88.672,9.899 88.638,9.893 88.605,9.892 88.57,9.892 
										85.832,10.038 85.854,9.992 85.863,9.991 85.866,9.99 88.604,9.843 88.651,9.847 88.688,9.843 88.727,9.849 88.759,9.857 
										88.789,9.873 88.814,9.891 88.841,9.916 88.871,9.949 88.895,9.981 88.914,10.012 88.925,10.037 88.925,10.051 
										88.918,10.064 88.897,10.075 88.897,10.077 88.895,10.072 									"/>
									<g>
										<polygon fill="none" points="85.792,10.041 85.797,10.041 85.809,10.041 85.832,10.038 85.854,9.992 85.863,9.991 
											85.866,9.99 88.604,9.843 88.651,9.847 88.688,9.843 88.727,9.849 88.759,9.857 88.789,9.873 88.814,9.891 88.841,9.916 
											88.871,9.949 88.895,9.981 88.914,10.012 88.925,10.037 88.925,10.051 88.918,10.064 88.897,10.075 88.897,10.077 
											88.867,10.084 88.821,10.091 86.005,10.245 86.004,10.244 85.965,10.243 85.926,10.231 85.891,10.214 85.858,10.197 
											85.836,10.169 85.82,10.143 85.804,10.117 85.791,10.096 85.788,10.08 85.787,10.062 85.791,10.043 										"/>
										<path d="M85.756,10.059l0.002,0.028l0.007,0.02l0.007,0.028l0.018,0.031l0.024,0.026l0.028,0.028l0.036,0.024l0.036,0.02
											l0.042,0.012h0.049l2.816-0.154l0.051-0.004l0.038-0.009l0.028-0.021l0.017-0.026l-0.001-0.03l-0.011-0.033l-0.021-0.032
											l-0.03-0.038l-0.025-0.035l-0.033-0.03l-0.033-0.021l-0.033-0.017l-0.035-0.007l-0.04-0.008h-0.044l-0.047,0.003
											l-2.739,0.143v0.002l-0.03,0.001l-0.028,0.012L85.786,9.99l-0.017,0.021l-0.009,0.02L85.756,10.059z M85.787,10.062
											l0.004-0.019l0.001-0.002h0.005h0.012l0.023-0.002l0.022-0.046l0.009-0.001l0.003,0l2.738-0.147l0.047,0.003l0.037-0.003
											l0.038,0.006l0.032,0.008l0.03,0.016l0.025,0.018l0.026,0.025l0.03,0.033l0.023,0.032l0.02,0.031l0.011,0.024v0.015
											l-0.007,0.013l-0.021,0.011v0.001l-0.03,0.008l-0.046,0.006l-2.816,0.154l-0.001,0l-0.039-0.001l-0.039-0.012
											l-0.035-0.017l-0.032-0.017l-0.022-0.028l-0.016-0.026l-0.017-0.026l-0.013-0.021l-0.003-0.016L85.787,10.062z"/>
									</g>
								</g>
							</g>
						</g>
					</g>
				</g>
			</g>
		</g>
		<text transform="matrix(0.9352 0 0 1 81.5254 1.8071)"><tspan x="0" y="0" fill="#121110" font-family="'Arial-BoldMT'" font-size="2.0698">1.25 Large Ring</tspan><tspan x="16.448" y="0" fill="#121110" font-family="'Arial-BoldMT'" font-size="2.0698" letter-spacing="3.208">	</tspan><tspan x="0" y="2.366" fill="#121110" font-family="'Arial-BoldMT'" font-size="2.0698">www.thegamecrafter.com</tspan></text>
	</g>
	<g>
		<text transform="matrix(0.878 0 0 1 38.4077 52.9482)"><tspan x="0" y="0" fill="#231F20" font-family="'Arial-Black'" font-size="5.9109">   Trim Line</tspan><tspan x="0" y="5.911" fill="#231F20" font-family="'Arial-BoldMT'" font-size="4.9258">This is the actual </tspan><tspan x="0" y="11.821" fill="#231F20" font-family="'Arial-BoldMT'" font-size="4.9258">cutline of your </tspan><tspan x="0" y="17.733" fill="#231F20" font-family="'Arial-BoldMT'" font-size="4.9258">final design.</tspan></text>
		<g>
			<path fill="#C82127" d="M42.979,48.618c0,0.289-0.117,0.572-0.346,0.846l-0.036,0.043l-2.019,2.421
				c-0.432,0.513-0.797,0.91-1.101,1.192c-0.301,0.278-0.513,0.418-0.637,0.418c-0.133,0-0.292-0.069-0.484-0.208
				c-0.196-0.142-0.32-0.288-0.38-0.433c-0.043-0.125-0.088-0.388-0.132-0.792c-0.044-0.399-0.063-0.836-0.063-1.304
				c0-0.256,0.091-0.495,0.28-0.709c0.188-0.218,0.397-0.328,0.619-0.328c0.216,0,0.345,0.224,0.385,0.674
				c0.008,0.05,0.008,0.091,0.012,0.118c0.032,0.343,0.076,0.585,0.12,0.722c0.048,0.136,0.109,0.206,0.189,0.206
				c0.032,0,0.092-0.044,0.18-0.124c0.092-0.08,0.196-0.189,0.321-0.33l2.075-2.342c0.177-0.196,0.333-0.344,0.468-0.446
				c0.136-0.103,0.253-0.153,0.352-0.153c0.069,0,0.12,0.029,0.152,0.091c0.029,0.063,0.045,0.167,0.045,0.314V48.618z"/>
		</g>
		<line fill="none" stroke="#C82127" stroke-width="0.5" x1="37.75" y1="54" x2="89.617" y2="54"/>
	</g>
</g>
</svg>
