<?xml version="1.0" encoding="utf-8"?>
<!-- Generator: Adobe Illustrator 15.0.0, SVG Export Plug-In . SVG Version: 6.00 Build 0)  -->
<!DOCTYPE svg PUBLIC "-//W3C//DTD SVG 1.1//EN" "http://www.w3.org/Graphics/SVG/1.1/DTD/svg11.dtd">
<svg version="1.1" xmlns="http://www.w3.org/2000/svg" xmlns:xlink="http://www.w3.org/1999/xlink" x="0px" y="0px" width="198px"
	 height="180px" viewBox="0 0 198 180" enable-background="new 0 0 198 180" xml:space="preserve">
<g id="Outlines">
	<polygon fill="#929497" points="0,0 0,180 198,180 198,0 0,0 	"/>
	<path fill="#FFFFFF" stroke="#EB242B" d="M51.048,165.146L9.945,93.955c-1.261-2.185-1.261-5.726,0-7.91l41.103-71.19
		c1.261-2.185,4.328-3.955,6.85-3.955h82.205c2.521,0,5.589,1.771,6.85,3.955l41.103,71.19c1.261,2.185,1.261,5.726,0,7.91
		l-41.103,71.19c-1.261,2.186-4.328,3.955-6.85,3.955H57.897C55.376,169.101,52.309,167.331,51.048,165.146z"/>
	<polygon fill="none" stroke="#2DA6DE" stroke-dasharray="1.3324" points="58.527,160.101 18.054,90 58.527,19.899 139.473,19.899 
		179.946,90 139.473,160.101 	"/>
</g>
<g id="Text">
	<rect x="62.825" y="22.667" fill="#E8E7E7" width="72.351" height="12.237"/>
	<text transform="matrix(0.9924 0 0 1 125.957 41.4204)" fill="#232020" font-family="'Arial-Black'" font-size="3.4175">Safe Zone</text>
	<text transform="matrix(0.9924 0 0 1 64.5239 45.1797)" fill="#2DA6DE" font-family="'Arial-BoldMT'" font-size="3.4175">DO NOT place ANY important text/images beyond</text>
	<text transform="matrix(0.9924 0 0 1 71.8887 48.939)" fill="#2DA6DE" font-family="'Arial-BoldMT'" font-size="3.4175">this dotted line. Anything past the dotted line</text>
	<text transform="matrix(0.9924 0 0 1 68.4854 52.6982)" fill="#2DA6DE" font-family="'Arial-BoldMT'" font-size="3.4175">has the potential for being trimmed. This line is</text>
	<text transform="matrix(0.9924 0 0 1 64.5259 56.4575)" fill="#2DA6DE" font-family="'Arial-BoldMT'" font-size="3.4175">provided to prevent trimming of your text/images.</text>
	<text transform="matrix(0.9924 0 0 1 127.0938 63.9761)" fill="#232020" font-family="'Arial-Black'" font-size="3.4175">Trim Line</text>
	<text transform="matrix(0.9924 0 0 1 72.064 67.7354)" fill="#EB242B" font-family="'Arial-BoldMT'" font-size="3.4175">This is the actual cutline of your final design.</text>
	<text transform="matrix(0.9924 0 0 1 123.6953 75.2539)" fill="#232020" font-family="'Arial-Black'" font-size="3.4175">Bleed Zone</text>
	<text transform="matrix(0.9924 0 0 1 84.1216 79.0132)" fill="#929497" font-family="'Arial-BoldMT'" font-size="3.4175">Extend any artwork/color to the edge </text>
	<text transform="matrix(0.9924 0 0 1 70.1826 82.7725)" fill="#929497" font-family="'Arial-BoldMT'" font-size="3.4175">(covering the gray) if you want your design to </text>
	<text transform="matrix(0.9924 0 0 1 63.9644 86.5317)" fill="#929497" font-family="'Arial-BoldMT'" font-size="3.4175">extend to the edge on the final print. We require a </text>
	<text transform="matrix(0.9924 0 0 1 64.8916 90.291)" fill="#929497" font-family="'Arial-BoldMT'" font-size="3.4175">bleed of 1/8”. Please use the Safe Zone guideline </text>
	<text transform="matrix(0.9924 0 0 1 70.7373 94.0508)" fill="#929497" font-family="'Arial-BoldMT'" font-size="3.4175">  to prevent trimming of essential text/images.</text>
	<text transform="matrix(0.9924 0 0 1 72.8091 97.8105)" fill="#929497" font-family="'Arial-BoldMT'" font-size="3.4175">The bleed is to make sure your design/color </text>
	<text transform="matrix(0.9924 0 0 1 91.4741 101.5684)" fill="#929497" font-family="'Arial-BoldMT'" font-size="3.4175">extends to the edge of the paper.</text>
	<text transform="matrix(0.9924 0 0 1 122.3828 109.0879)" fill="#232020" font-family="'Arial-Black'" font-size="3.4175">Border Area</text>
	<text transform="matrix(0.8823 0 0 1 65.7417 114.0371)" fill="#FAA61C" font-family="'Arial-BoldMT'" font-size="3.42"> </text>
	<text transform="matrix(0.9991 0 0 1 66.5801 114.0371)" fill="#FAA61A" font-family="'Arial-BoldMT'" font-size="3.42">This is the minimum recommended border area.</text>
	<text transform="matrix(0.9991 0 0 1 72.1006 118.9883)" fill="#FAA61A" font-family="'Arial-BoldMT'" font-size="3.42">If you want a border around the edge of your</text>
	<text transform="matrix(0.9991 0 0 1 81.4048 123.9375)" fill="#FAA61A" font-family="'Arial-BoldMT'" font-size="3.42">tile, you will want it to extend the width</text>
	<text transform="matrix(0.9991 0 0 1 85.5776 128.8867)" fill="#FAA61A" font-family="'Arial-BoldMT'" font-size="3.42">of this guide on each side of the tile.</text>
	<text transform="matrix(0.9924 0 0 1 64.5156 27.2661)"><tspan x="0" y="0" fill="#232020" font-family="'Arial-BoldMT'" font-size="5.2736">2.5” Medium Hex Tile</tspan><tspan x="0" y="6.027" fill="#232020" font-family="'Arial-BoldMT'" font-size="5.2736">www.thegamecrafter.com</tspan></text>
	
		<rect x="164.138" y="109.409" transform="matrix(0.5 -0.866 0.866 0.5 -15.8626 209.3421)" fill="#FAA61C" width="18.458" height="18"/>
	<line fill="none" stroke="#FAA61C" x1="122.197" y1="109.84" x2="172.499" y2="109.84"/>
	<line fill="none" stroke="#EB242B" x1="127.683" y1="64.6" x2="175.472" y2="64.6"/>
	<line fill="none" stroke="#929497" x1="123.835" y1="75.943" x2="191.825" y2="75.943"/>
	<line fill="none" stroke="#2DA6DE" stroke-dasharray="0.9301" x1="126.253" y1="41.99" x2="152.534" y2="41.99"/>
	<g>
		<path fill="#EB242B" d="M126.255,38.04c0,0.234-0.104,0.464-0.314,0.685l-0.033,0.034l-1.842,1.955
			c-0.391,0.414-0.727,0.734-1,0.96c-0.275,0.228-0.469,0.34-0.584,0.34c-0.119,0-0.268-0.057-0.443-0.169
			c-0.176-0.113-0.289-0.23-0.344-0.351c-0.043-0.1-0.086-0.312-0.121-0.636c-0.039-0.325-0.059-0.677-0.059-1.055
			c0-0.206,0.086-0.398,0.254-0.572c0.172-0.176,0.359-0.262,0.568-0.262c0.197,0,0.314,0.181,0.35,0.543
			c0.004,0.042,0.008,0.074,0.01,0.093c0.031,0.278,0.068,0.473,0.111,0.584c0.041,0.108,0.098,0.163,0.168,0.163
			c0.031,0,0.088-0.032,0.172-0.097c0.078-0.064,0.176-0.153,0.289-0.265l1.893-1.889c0.158-0.161,0.301-0.282,0.424-0.365
			c0.129-0.083,0.234-0.123,0.32-0.123c0.066,0,0.113,0.025,0.143,0.076c0.025,0.049,0.039,0.134,0.039,0.252V38.04z"/>
	</g>
	<g>
		<path fill="#EB242B" d="M126.942,60.24c0,0.234-0.105,0.462-0.314,0.684l-0.033,0.035l-1.844,1.955
			c-0.393,0.415-0.723,0.733-0.998,0.961c-0.277,0.225-0.473,0.338-0.586,0.338c-0.117,0-0.264-0.055-0.443-0.168
			c-0.178-0.115-0.289-0.23-0.342-0.352c-0.043-0.1-0.082-0.312-0.123-0.636c-0.037-0.325-0.059-0.676-0.059-1.055
			c0-0.207,0.088-0.396,0.258-0.572c0.17-0.174,0.359-0.262,0.564-0.262c0.197,0,0.316,0.18,0.352,0.543
			c0.004,0.042,0.008,0.072,0.01,0.093c0.031,0.279,0.068,0.474,0.111,0.584c0.043,0.109,0.098,0.165,0.17,0.165
			c0.027,0,0.088-0.033,0.166-0.098c0.082-0.065,0.178-0.154,0.293-0.267l1.891-1.888c0.16-0.16,0.303-0.281,0.428-0.363
			c0.125-0.083,0.23-0.125,0.318-0.125c0.066,0,0.113,0.026,0.141,0.076s0.041,0.135,0.041,0.253V60.24z"/>
	</g>
	<g>
		<path fill="#EB242B" d="M123.833,71.291c0,0.232-0.104,0.461-0.314,0.684l-0.033,0.033l-1.842,1.955
			c-0.393,0.416-0.725,0.734-1,0.963c-0.275,0.225-0.469,0.338-0.584,0.338c-0.119,0-0.268-0.057-0.443-0.17s-0.289-0.23-0.344-0.35
			c-0.043-0.1-0.084-0.312-0.123-0.637c-0.037-0.324-0.059-0.676-0.059-1.055c0-0.205,0.088-0.396,0.258-0.572
			c0.172-0.176,0.359-0.262,0.564-0.262c0.199,0,0.314,0.18,0.354,0.543c0.002,0.043,0.006,0.072,0.008,0.094
			c0.029,0.279,0.068,0.473,0.111,0.582c0.041,0.111,0.098,0.166,0.17,0.166c0.027,0,0.084-0.033,0.166-0.098
			s0.18-0.154,0.291-0.268l1.895-1.889c0.16-0.16,0.303-0.281,0.428-0.361c0.125-0.084,0.229-0.125,0.316-0.125
			c0.064,0,0.113,0.025,0.139,0.076c0.029,0.049,0.043,0.135,0.043,0.25V71.291z"/>
	</g>
	<g>
		<rect x="60.11" y="141.114" fill="#E8E7E7" width="77.779" height="13.759"/>
		<text transform="matrix(0.9924 0 0 1 116.3398 145.1543)"><tspan x="0" y="0" fill="#232020" font-family="'Arial-Black'" font-size="2.151">PLEASE NOTE:</tspan><tspan x="-42.308" y="2.582" fill="#232020" font-family="'Arial-Black'" font-size="2.151">Remove this layer before  sending the file to print. </tspan><tspan x="-33.944" y="5.162" fill="#232020" font-family="'Arial-Black'" font-size="2.151">This layer is provided as a guide for set up. </tspan><tspan x="-15.538" y="7.744" fill="#232020" font-family="'Arial-Black'" font-size="2.151">DELETE LAYER AFTER USE.</tspan></text>
		<g>
			<path fill="#EB242B" d="M116.326,143.108c0,0.146-0.065,0.29-0.199,0.431l-0.02,0.021l-1.161,1.23
				c-0.245,0.262-0.457,0.461-0.63,0.604c-0.172,0.143-0.294,0.214-0.365,0.214c-0.075,0-0.168-0.036-0.279-0.105
				c-0.113-0.073-0.185-0.146-0.216-0.222c-0.029-0.063-0.053-0.195-0.078-0.401c-0.026-0.204-0.037-0.426-0.037-0.663
				c0-0.129,0.053-0.248,0.161-0.359c0.107-0.111,0.227-0.166,0.355-0.166c0.126,0,0.199,0.113,0.222,0.34
				c0.003,0.029,0.005,0.049,0.007,0.062c0.021,0.176,0.044,0.298,0.067,0.365c0.027,0.069,0.064,0.104,0.107,0.104
				c0.021,0,0.056-0.021,0.106-0.061c0.053-0.04,0.113-0.097,0.185-0.168l1.19-1.188c0.102-0.101,0.189-0.177,0.268-0.229
				c0.081-0.053,0.146-0.08,0.201-0.08c0.042,0,0.071,0.021,0.09,0.05c0.017,0.03,0.025,0.084,0.025,0.158V143.108z"/>
		</g>
		<g>
			<ellipse fill-rule="evenodd" clip-rule="evenodd" fill="#010201" cx="67.797" cy="147.957" rx="5.846" ry="5.89"/>
			<ellipse fill-rule="evenodd" clip-rule="evenodd" fill="#B8D434" cx="67.8" cy="147.99" rx="5.314" ry="5.356"/>
			<g>
				<path fill="#010201" d="M66.663,146.821c-0.073,0.657-0.13,1.184-0.167,1.581l-0.241,0.012c0.003-0.013,0.005-0.026,0.005-0.044
					c0-0.029-0.011-0.069-0.033-0.117c-0.022-0.049-0.035-0.08-0.037-0.093c-0.064,0.009-0.124,0.053-0.183,0.129
					c-0.057,0.079-0.109,0.119-0.155,0.117c-0.025,0-0.055-0.007-0.087-0.019c-0.044,0.028-0.099,0.041-0.17,0.035
					c-0.06-0.011-0.123-0.021-0.181-0.027c-0.002-0.084-0.084-0.157-0.245-0.219c0.001-0.033-0.015-0.083-0.049-0.146
					c-0.033-0.065-0.049-0.113-0.049-0.139c0-0.029,0.013-0.055,0.035-0.075c-0.002-0.009-0.029-0.071-0.079-0.185
					c-0.037-0.084-0.053-0.156-0.051-0.215c0-0.048,0.011-0.09,0.031-0.132c-0.027-0.281-0.04-0.523-0.037-0.727
					c0.005-0.311,0.049-0.599,0.133-0.857c-0.007-0.043-0.009-0.081-0.009-0.121c0.004-0.208,0.077-0.355,0.216-0.435l0.001-0.063
					c0.137-0.18,0.32-0.307,0.544-0.386c0.135,0.033,0.268,0.062,0.405,0.092c0.149,0.051,0.253,0.143,0.31,0.269
					c0.046,0.027,0.068,0.082,0.068,0.166c-0.002,0.095,0.007,0.153,0.031,0.181l-0.025,0.027c0.025,0.197,0.038,0.317,0.038,0.361
					c-0.001,0.126-0.035,0.216-0.099,0.267c-0.023,0-0.084-0.021-0.181-0.062c-0.023,0.022-0.049,0.033-0.075,0.033
					c-0.015,0-0.037-0.007-0.071-0.021c-0.035-0.012-0.064-0.021-0.087-0.022c-0.017,0-0.033,0.004-0.048,0.011
					c-0.003-0.263,0.006-0.458,0.024-0.588c-0.027-0.015-0.053-0.057-0.08-0.114c-0.026-0.061-0.062-0.096-0.104-0.104
					c-0.027,0.035-0.038,0.055-0.035,0.065l-0.089-0.03c-0.08,0.089-0.133,0.242-0.161,0.462c-0.027,0.252-0.062,0.416-0.102,0.5
					c0.035,0.036,0.053,0.089,0.051,0.153c0,0.025-0.003,0.062-0.011,0.116c-0.009,0.054-0.011,0.092-0.013,0.119
					c0,0.029,0.002,0.057,0.009,0.08l-0.061,0.059c0.024,0.113,0.039,0.258,0.042,0.429c-0.003,0.146-0.003,0.293-0.003,0.438
					c-0.002,0-0.031,0-0.083,0.004c-0.033,0-0.056,0.011-0.071,0.032c0.02-0.001,0.038-0.003,0.055-0.001
					c0.073,0,0.129,0.051,0.171,0.155c0.041,0.1,0.075,0.151,0.104,0.153c0.035,0,0.079-0.031,0.137-0.096
					c0.097-0.104,0.146-0.248,0.149-0.431c0.002-0.088-0.007-0.187-0.029-0.286c-0.024,0.013-0.037,0.044-0.037,0.097
					c-0.053,0-0.086,0.011-0.101,0.032c-0.022-0.005-0.031-0.025-0.027-0.053c0.004-0.044,0.005-0.067,0.005-0.071
					c0.041-0.013,0.061-0.031,0.061-0.055c0-0.007-0.007-0.027-0.02-0.053c-0.017-0.027-0.022-0.048-0.022-0.065
					c0-0.015,0.001-0.027,0.009-0.04l0.024-0.194c0.073,0.021,0.228,0.031,0.469,0.027c-0.007,0.019,0.003,0.039,0.029,0.066
					c0.023-0.024,0.049-0.035,0.075-0.033c0.018,0,0.049,0.008,0.088,0.025C66.617,146.814,66.646,146.821,66.663,146.821z"/>
				<path fill="#010201" d="M68.507,148.536c-0.044-0.021-0.093-0.031-0.148-0.031c-0.045,0-0.107,0.009-0.188,0.027
					c-0.089,0.019-0.151,0.029-0.183,0.031c-0.037-0.069-0.06-0.168-0.073-0.288c-0.028-0.182-0.046-0.281-0.051-0.308
					c0.011-0.018,0.016-0.036,0.016-0.047c0-0.038-0.027-0.071-0.085-0.099c-0.057-0.029-0.086-0.055-0.084-0.069
					c0-0.022,0.033-0.052,0.099-0.088c-0.015-0.021-0.027-0.062-0.035-0.124s-0.022-0.103-0.044-0.124
					c-0.04,0.038-0.106,0.061-0.197,0.069c-0.091,0.011-0.151,0.025-0.181,0.044c0.002,0.259-0.04,0.435-0.128,0.521
					c-0.045-0.011-0.08,0.008-0.104,0.054c-0.035,0.057-0.062,0.087-0.086,0.099l0.029,0.034c-0.027,0.023-0.071,0.033-0.129,0.029
					c-0.091-0.006-0.143-0.007-0.148-0.007l-0.027-0.092l0.321-2.689c0.002-0.17,0.011-0.282,0.025-0.345
					c-0.005-0.148,0.031-0.241,0.104-0.275c0.044,0.03,0.103,0.045,0.172,0.047c0.057,0.002,0.144-0.009,0.263-0.034
					s0.201-0.037,0.249-0.037c0.161,0.004,0.23,0.121,0.211,0.353c-0.018,0.188,0.013,0.433,0.086,0.736
					c0.077,0.324,0.113,0.569,0.111,0.733c-0.002,0.048,0.015,0.149,0.011,0.201c-0.069,0.04-0.159,0.062-0.269,0.069
					c-0.097,0.007-0.192,0.013-0.292,0.017c-0.024-0.254-0.069-0.558-0.095-0.808c-0.031-0.299-0.069-0.546-0.115-0.741
					l-0.155,1.426c-0.011,0.123,0.044,0.183,0.168,0.185c0.038,0.002,0.077-0.007,0.113-0.027c0.029-0.007,0.071,0.013,0.122,0.067
					c-0.001,0.103,0.019,0.163,0.062,0.185c0.053-0.034,0.123-0.069,0.208-0.101c0.077-0.027,0.151-0.055,0.225-0.082
					c0.042,0.059,0.067,0.143,0.078,0.256c0.015,0.16,0.026,0.256,0.031,0.281c0.005,0.063,0.031,0.199,0.077,0.409
					c0.033,0.166,0.047,0.303,0.047,0.405C68.52,148.45,68.514,148.494,68.507,148.536z"/>
				<path fill="#010201" d="M70.784,146.166c-0.004,0.01-0.004,0.067-0.002,0.174c-0.002,0.086-0.011,0.149-0.033,0.193
					c-0.026,0.065-0.039,0.161-0.041,0.285c-0.001,0.025,0,0.067,0.002,0.124c0,0.057,0,0.097-0.002,0.124
					c-0.003,0.208-0.038,0.359-0.106,0.456c0.006,0.055,0.007,0.106,0.007,0.161c-0.001,0.164-0.058,0.387-0.169,0.668
					c-0.029,0.011-0.055,0.015-0.075,0.015c-0.04-0.002-0.067-0.025-0.085-0.069c-0.017-0.044-0.033-0.088-0.049-0.128
					c0.011-0.256,0.005-0.628-0.015-1.117l0.029-0.029c-0.022-0.086-0.031-0.183-0.029-0.288c0-0.077,0.011-0.187,0.027-0.333
					c0.018-0.147,0.027-0.257,0.027-0.328c0.002-0.048,0-0.093-0.002-0.135c-0.113,0.273-0.193,0.737-0.243,1.391l-0.04,0.097
					c-0.013,0.035-0.042,0.053-0.086,0.055c-0.011-0.023-0.024-0.034-0.039-0.034c-0.009-0.002-0.027,0.011-0.051,0.036
					c-0.026,0.022-0.046,0.033-0.064,0.029l-0.064,0.059c0.029,0.038,0.091,0.044,0.188,0.015c0.077-0.022,0.115,0.007,0.115,0.088
					c0.003,0.065-0.015,0.155-0.053,0.267c-0.037,0.111-0.057,0.196-0.058,0.253c0,0.039,0.003,0.079,0.014,0.119l-0.343,0.055
					c-0.033-0.067-0.055-0.179-0.071-0.336c-0.017-0.159-0.039-0.272-0.071-0.34c0.02-0.023,0.031-0.047,0.031-0.073
					c0-0.021-0.009-0.058-0.027-0.105c-0.018-0.048-0.031-0.082-0.035-0.105c-0.001-0.037-0.013-0.125-0.033-0.264
					c-0.015-0.113-0.022-0.202-0.02-0.265c0-0.034,0.002-0.063,0.005-0.089c0-0.024-0.013-0.059-0.038-0.106
					c-0.026-0.044-0.039-0.074-0.039-0.095c0-0.019,0.007-0.033,0.022-0.046c-0.022-0.027-0.031-0.071-0.029-0.141
					c0.007-0.065-0.003-0.113-0.025-0.139c-0.047,0.13-0.073,0.304-0.079,0.522c-0.002,0.305-0.004,0.482-0.009,0.525l0.035,0.031
					l-0.036,0.031c0.025,0.12,0.036,0.272,0.033,0.46c-0.009,0.332-0.013,0.489-0.013,0.468c-0.046,0.042-0.111,0.062-0.194,0.06
					c-0.102-0.001-0.171,0.008-0.208,0.027c-0.042-0.072-0.062-0.169-0.06-0.286c0.003-0.09,0.016-0.199,0.043-0.327
					c-0.043-0.084-0.063-0.2-0.06-0.351c0-0.036,0.004-0.105,0.013-0.208c0.004-0.084,0.005-0.146,0.004-0.185
					c0.033-0.016,0.051-0.032,0.051-0.053c0-0.015-0.011-0.036-0.033-0.069c-0.022-0.031-0.031-0.057-0.031-0.073
					c0.001-0.018,0.013-0.04,0.04-0.058l-0.106-1.61c0.064-0.042,0.166-0.062,0.309-0.061c0.153,0.006,0.259-0.002,0.316-0.023
					c0.009-0.008,0.02-0.012,0.035-0.012c0.013,0,0.029,0.01,0.045,0.026c0.02,0.015,0.033,0.021,0.039,0.021
					c0.013,0,0.023-0.011,0.035-0.029l0.093,0.092c0.029,0.116,0.059,0.343,0.086,0.679c0.029,0.288,0.073,0.508,0.133,0.653
					c0.081-0.294,0.148-0.54,0.201-0.737l0.108-0.789l0.767-0.016c0,0.042,0.011,0.271,0.031,0.406
					c0.018,0.117,0.025,0.212,0.025,0.283c-0.001,0.084-0.015,0.159-0.04,0.223c0.027,0.039,0.04,0.086,0.039,0.141
					C70.826,146.084,70.811,146.13,70.784,146.166z"/>
				<path fill="#010201" d="M72.357,147.91v-0.004c-0.022,0.044-0.035,0.093-0.037,0.149c-0.005,0.035-0.007,0.088-0.004,0.153
					c0.002,0.077,0.004,0.132,0.002,0.159c-0.027,0-0.131-0.002-0.316-0.006c-0.113,0-0.211,0.01-0.301,0.029l-0.093-0.099
					c-0.027,0.024-0.037,0.048-0.033,0.062c-0.015-0.004-0.091-0.004-0.226-0.004c-0.104,0-0.183-0.011-0.237-0.034
					c-0.051,0.056-0.115,0.055-0.187-0.002c-0.025-0.019-0.031-0.055-0.009-0.103c0.021-0.048,0.014-0.084-0.017-0.107
					c0.003-0.106,0.018-0.271,0.042-0.491c0.024-0.201,0.035-0.356,0.038-0.47c0.002-0.153-0.009-0.297-0.033-0.439
					c0.039-0.035,0.079-0.052,0.124-0.05c0.053,0,0.115,0.024,0.187,0.077c0.1,0.071,0.153,0.107,0.157,0.107l0.027,0.035
					c0.006-0.012,0.022-0.064,0.055-0.159c0.016-0.062,0.042-0.103,0.075-0.124l0.031,0.031c0.011-0.006,0.055-0.039,0.128-0.094
					c0.059-0.038,0.104-0.131,0.135-0.128c0.038,0,0.071,0.019,0.104,0.059c0.055,0.033,0.091,0.153,0.108,0.212
					c0.016,0.064,0.035,0.124,0.049,0.183c-0.148,0.004-0.271,0-0.365-0.009c-0.026,0.034-0.057,0.042-0.101,0.015
					c-0.042-0.024-0.073-0.021-0.093,0.011c-0.001,0.061-0.003,0.168-0.005,0.323c-0.007,0.139-0.007,0.25-0.005,0.328
					c0,0.123,0.007,0.237,0.024,0.34c0.027,0,0.151,0.004,0.376,0.007C72.113,147.871,72.244,147.886,72.357,147.91z
					 M72.368,145.525c-0.031,0.004-0.062,0.004-0.099,0.004c-0.077-0.004-0.177-0.015-0.303-0.037
					c-0.155-0.021-0.249-0.034-0.281-0.04c-0.046,0.071-0.073,0.168-0.073,0.294c-0.007,0.272-0.007,0.389-0.002,0.353
					c0.046,0.029,0.068,0.08,0.068,0.151c-0.007,0.101-0.007,0.151-0.004,0.155c-0.023,0.009-0.035,0.042-0.035,0.099
					c-0.037-0.015-0.075-0.04-0.113-0.082c-0.053-0.05-0.08,0.12-0.077,0.078l-0.029,0.103l-0.031-0.029
					c-0.025,0.002-0.071-0.011-0.135-0.044c-0.064-0.029-0.107-0.059-0.135-0.087c0.001-0.052,0.011-0.083,0.027-0.088l-0.062-0.073
					l-0.031,0.048c-0.039-0.348-0.029-0.993,0.017-1.358c0.126,0.021,0.265,0.036,0.416,0.042c0.103,0.002,0.245,0.007,0.427,0.007
					c0.214,0,0.365,0.002,0.457,0.002c0.04,0.036,0.059,0.086,0.057,0.146c0,0.036-0.009,0.095-0.029,0.175
					C72.377,145.425,72.368,145.485,72.368,145.525z"/>
			</g>
			<g>
				<path fill="#010201" d="M66.811,150.922v-0.002c0,0.002-0.007,0.075-0.025,0.222c-0.007,0.087-0.029,0.157-0.064,0.208
					l-0.02-0.019c-0.042,0.086-0.095,0.137-0.164,0.155c-0.033,0.035-0.081,0.053-0.143,0.057c-0.039,0.004-0.123-0.007-0.257-0.033
					c-0.064-0.038-0.099-0.06-0.104-0.065c-0.042-0.031-0.061-0.062-0.059-0.093c-0.04-0.04-0.095-0.113-0.117-0.203
					c-0.024-0.101-0.041-0.105-0.062-0.141c-0.038,0.027-0.051-0.031-0.075-0.067l0.022-0.015c-0.013-0.009-0.02-0.019-0.022-0.029
					c0-0.009,0.004-0.018,0.011-0.036c0.007-0.015,0.011-0.025,0.011-0.033c-0.002-0.015-0.009-0.025-0.024-0.032
					c0.017-0.081,0.029-0.197,0.042-0.351c0.026-0.019,0.041-0.044,0.039-0.086c-0.002-0.04,0.003-0.067,0.017-0.082
					c0.062-0.126,0.164-0.212,0.307-0.256c0.007,0,0.043,0,0.113-0.002c0.047-0.002,0.082,0.002,0.105,0.013
					c0.042-0.009,0.086,0.002,0.128,0.029c0.037,0.027,0.073,0.055,0.11,0.084c0.069,0.075,0.105,0.16,0.111,0.256
					c0.001,0.029,0,0.063-0.006,0.099c-0.051,0-0.087,0.032-0.107,0.102l-0.199,0.017c-0.02-0.027-0.033-0.071-0.035-0.118
					c-0.002-0.019-0.002-0.044,0-0.077c0-0.033,0-0.059,0-0.076c-0.003-0.052-0.016-0.092-0.037-0.125l-0.058,0.035
					c-0.026-0.009-0.039-0.023-0.041-0.042c0-0.007,0.002-0.017,0.004-0.025c0.002-0.015,0.003-0.022,0.003-0.029
					c-0.001-0.019-0.02-0.031-0.055-0.036c-0.023,0.226-0.031,0.456-0.022,0.689c0.006,0.011,0.024,0.015,0.057,0.019
					c0.026,0.004,0.039,0.011,0.041,0.023c0,0.006-0.002,0.011-0.006,0.021l-0.02,0.015c0.011,0.017,0.019,0.04,0.019,0.069
					c0.001,0.015,0,0.04,0,0.073c-0.004,0.032-0.004,0.055-0.004,0.072c0.004,0.048,0.015,0.082,0.037,0.106
					c-0.002,0.034,0.013,0.059,0.042,0.071c0.02-0.008,0.037-0.013,0.051-0.013c0.06-0.004,0.102,0.029,0.126,0.099
					c0,0.003,0,0.015-0.002,0.036c0.002,0.013,0.009,0.021,0.02,0.025c0.025-0.019,0.04-0.044,0.04-0.086
					c-0.001-0.047,0.004-0.078,0.017-0.089c-0.002-0.024-0.015-0.055-0.039-0.096c-0.023-0.042-0.035-0.074-0.036-0.099
					c-0.002-0.025,0.007-0.049,0.021-0.072c-0.014-0.004-0.02-0.015-0.018-0.025c0-0.022,0-0.037,0-0.037
					C66.59,150.898,66.701,150.898,66.811,150.922z"/>
				<path fill="#010201" d="M67.707,151.108h-0.003c-0.011,0.022-0.017,0.055-0.011,0.097c0.004,0.061,0.007,0.09,0.007,0.094
					c-0.007,0.001-0.02-0.002-0.035-0.015c-0.023,0.009-0.035,0.025-0.033,0.043c0,0.004,0,0.01,0.003,0.015c0,0.01,0,0.015,0,0.019
					c0.002,0.015-0.003,0.029-0.014,0.036c-0.026-0.014-0.059-0.025-0.103-0.028c-0.044-0.004-0.084-0.008-0.122-0.012
					c0-0.2-0.027-0.394-0.081-0.586c0,0.002-0.002-0.019-0.003-0.06c0-0.028-0.006-0.05-0.02-0.062l-0.017,0.019
					c0-0.004,0.003-0.012,0.017-0.019c0.013-0.009,0.018-0.019,0.018-0.025c-0.002-0.006-0.002-0.011-0.004-0.015l-0.02-0.015
					c-0.035,0.011-0.047,0.04-0.045,0.084c0.002,0.029-0.011,0.049-0.037,0.061c0.011,0.007,0.017,0.016,0.017,0.027
					c0,0.005,0,0.015-0.004,0.021c-0.002,0.011-0.002,0.021-0.002,0.025c0,0.015,0.007,0.023,0.022,0.031
					c0,0.009,0.004,0.09,0.013,0.239c0.003,0.095,0.001,0.175-0.007,0.241v0.036c-0.011,0-0.028,0-0.042,0
					c-0.019,0.004-0.044,0.006-0.079,0.009c-0.035,0.006-0.059,0.006-0.077,0.01c-0.066,0.004-0.113-0.01-0.139-0.035l-0.029-0.821
					c-0.013-0.04-0.022-0.097-0.026-0.166l-0.009-0.159c-0.006-0.078-0.017-0.137-0.029-0.179c0.003-0.027,0.029-0.046,0.073-0.046
					c0.028-0.004,0.064,0,0.11,0.011c0.02-0.011,0.049-0.016,0.087-0.018c0.013-0.002,0.029-0.002,0.053-0.002
					c0.025-0.002,0.042-0.002,0.055-0.002c0.069-0.004,0.117-0.025,0.139-0.065c0.033-0.002,0.069,0.007,0.108,0.029
					c0.038,0.021,0.071,0.032,0.1,0.036c0.079,0.044,0.119,0.118,0.125,0.227c0.001,0.021-0.007,0.113-0.028,0.277l-0.131,0.115
					c0.022,0.042,0.049,0.133,0.081,0.271C67.612,150.968,67.652,151.054,67.707,151.108z M67.462,150.174l0.002,0.004
					c0.003,0.009,0.002-0.027-0.003-0.11c0-0.038-0.017-0.067-0.042-0.085c-0.015,0.021,0.001,0.03-0.006,0.082
					c-0.007,0.049-0.036,0.036-0.053,0.059c-0.046,0-0.055,0.027-0.066-0.019c-0.02-0.069-0.037-0.065-0.038-0.065l-0.019,0.011
					c-0.007,0.007-0.016,0.015-0.023,0.021c-0.009,0.009-0.019,0.011-0.027,0.009c0.001,0.008-0.004,0.024-0.013,0.043
					c-0.009,0.018-0.013,0.032-0.011,0.036c0,0.015,0.009,0.023,0.031,0.031c-0.004,0.027-0.004,0.06-0.004,0.093
					c0.002,0.019,0.005,0.057,0.013,0.12c0.009,0.048,0.011,0.092,0.011,0.126c0.016,0.002,0.029,0.002,0.045,0
					c0.062-0.003,0.104-0.029,0.123-0.074c0.005-0.015,0.015-0.062,0.022-0.148C67.412,150.245,67.432,150.199,67.462,150.174z"/>
				<path fill="#010201" d="M68.733,151.426c-0.027-0.007-0.053-0.011-0.084-0.009c-0.026,0.002-0.059,0.009-0.103,0.021
					c-0.047,0.011-0.08,0.018-0.097,0.02c-0.024-0.027-0.04-0.071-0.053-0.124c-0.02-0.078-0.033-0.122-0.039-0.133
					c0.005-0.008,0.009-0.015,0.009-0.022c-0.002-0.015-0.019-0.029-0.051-0.04s-0.047-0.019-0.047-0.025
					c-0.002-0.011,0.015-0.022,0.049-0.044c-0.009-0.008-0.017-0.025-0.022-0.053c-0.005-0.025-0.017-0.042-0.029-0.052
					c-0.022,0.017-0.057,0.031-0.104,0.039c-0.049,0.007-0.082,0.016-0.099,0.025c0.011,0.113,0,0.313-0.045,0.357
					c-0.024-0.003-0.042,0.006-0.053,0.025c-0.018,0.027-0.033,0.044-0.045,0.048l0.018,0.015c-0.015,0.011-0.038,0.017-0.071,0.019
					c-0.049,0-0.077,0.002-0.08,0.002l-0.02-0.039l0.078-1.319c-0.005-0.075-0.005-0.125,0-0.152
					c-0.007-0.065,0.009-0.109,0.048-0.127c0.027,0.013,0.058,0.018,0.097,0.015c0.029-0.002,0.079-0.012,0.142-0.026
					c0.064-0.015,0.11-0.021,0.135-0.025c0.089-0.004,0.13,0.044,0.128,0.148c-0.002,0.082,0.02,0.188,0.073,0.319
					c0.051,0.139,0.083,0.248,0.086,0.317c0.002,0.023,0.031,0.069,0.029,0.092c-0.037,0.018-0.084,0.032-0.144,0.04
					c-0.053,0.007-0.104,0.015-0.159,0.018c-0.023-0.109-0.073-0.242-0.097-0.352c-0.027-0.13-0.057-0.236-0.089-0.322l-0.035,0.634
					c-0.002,0.055,0.031,0.079,0.097,0.075c0.022-0.002,0.044-0.006,0.062-0.017c0.017-0.006,0.039,0.004,0.069,0.025
					c0.004,0.044,0.017,0.069,0.041,0.081c0.029-0.019,0.065-0.037,0.111-0.056c0.04-0.015,0.08-0.03,0.12-0.043
					c0.024,0.021,0.041,0.06,0.053,0.109c0.011,0.069,0.02,0.109,0.025,0.12c0.004,0.029,0.024,0.088,0.057,0.179
					c0.024,0.073,0.037,0.132,0.04,0.176C68.737,151.386,68.735,151.408,68.733,151.426z"/>
				<path fill="#010201" d="M69.48,149.929h0.003c-0.021,0.033-0.049,0.04-0.084,0.019c-0.007,0-0.04,0-0.097,0.006
					c-0.049,0.003-0.084,0-0.106-0.006c-0.005,0-0.016,0.006-0.035,0.015c-0.015,0.011-0.025,0.017-0.033,0.019
					c-0.009,0-0.017-0.012-0.017-0.029c0-0.004-0.001-0.015-0.001-0.037c-0.002-0.015-0.009-0.025-0.022-0.029l-0.035,0.026
					c-0.009,0.007-0.017,0.015-0.015,0.025c0.002,0.005,0.007,0.017,0.018,0.029c0.011,0.015,0.019,0.023,0.02,0.029
					c0,0.003,0.006,0.071,0.011,0.197c0.003,0.08,0.018,0.146,0.045,0.193c0.007-0.008,0.022-0.011,0.047-0.011
					c0.028,0,0.046-0.008,0.053-0.019c0.018,0.015,0.045,0.015,0.086,0.002c0.04-0.013,0.069-0.01,0.087,0.017l-0.005,0.191
					c-0.017-0.002-0.042-0.01-0.071-0.023c-0.011,0.027-0.029,0.047-0.055,0.051c-0.011,0.007-0.042,0.011-0.093,0.011
					c0.002-0.007-0.003-0.015-0.022-0.025c-0.049,0.023-0.067,0.08-0.057,0.168c0.002-0.009,0.004,0.007,0.007,0.046
					c0,0.027-0.005,0.043-0.018,0.053c-0.029,0.005-0.067,0-0.117-0.019c-0.046-0.019-0.081-0.027-0.101-0.025
					c-0.007,0-0.017,0-0.024,0l-0.051,0.019l-0.081-0.888l-0.009-0.17c0.065-0.021,0.149-0.038,0.25-0.042
					c0.077-0.005,0.179-0.004,0.303,0c0.009-0.015,0.024,0.004,0.042,0.004c0.009,0,0.024,0,0.041,0.004
					c0.02,0.003,0.033,0.003,0.042,0.003c0.011,0,0.018-0.003,0.029-0.007l0.013-0.011c0.036,0.011,0.057,0.029,0.058,0.057
					c0,0.011-0.003,0.032-0.011,0.06c-0.005,0.029-0.011,0.052-0.011,0.066C69.471,149.907,69.475,149.92,69.48,149.929z
					 M69.162,151.411c-0.018,0.01-0.047,0.015-0.087,0.019c-0.053,0.004-0.084,0.008-0.095,0.008c-0.005-0.004-0.013,0-0.023-0.048
					c-0.009-0.029-0.027-0.044-0.057-0.042c-0.007,0-0.017,0.002-0.027,0.002l-0.049,0.004l-0.026-0.449
					c0.028-0.013,0.061-0.022,0.101-0.022c0.037-0.003,0.069,0,0.101,0.011c-0.002,0.015,0.022,0.022,0.069,0.021l0.051-0.002
					C69.149,151.035,69.168,151.266,69.162,151.411z"/>
				<path fill="#010201" d="M70.564,149.969h0.003c-0.025,0-0.109,0.004-0.171,0.014c-0.053,0.007-0.093,0.007-0.123,0.003
					c-0.025,0.017-0.036,0.042-0.027,0.071l0.017,0.011c-0.015,0.013-0.02,0.021-0.015,0.029l0.015,0.015
					c-0.003,0.26-0.005,0.405-0.003,0.433c0.005,0.068,0.013,0.128,0.025,0.181c-0.011,0.033-0.017,0.071-0.013,0.113
					c0.001,0.029,0.007,0.073,0.018,0.134c0.013,0.057,0.029,0.257,0.031,0.29c0,0.021,0,0.044-0.002,0.064
					c-0.025,0.011-0.051,0.016-0.082,0.018c-0.048,0.002-0.101-0.007-0.157-0.031c-0.005,0.008-0.013,0.014-0.022,0.021
					c-0.007,0.009-0.011,0.017-0.007,0.023c-0.018,0.004-0.042-0.002-0.075-0.021c-0.017-0.263-0.062-0.8-0.133-1.344
					c-0.024,0.021-0.067,0.004-0.115,0.011c-0.056,0.006-0.111-0.004-0.133,0.006c-0.025-0.027-0.02-0.037-0.021-0.086
					c-0.004-0.048-0.019-0.161-0.007-0.21c0.003-0.011,0.106-0.006,0.164-0.009c0.081-0.006,0.099,0.014,0.104,0.014
					c0.007-0.011,0.046-0.005,0.075-0.007c0.02,0.011,0.038-0.009,0.038,0.004c0.002,0.011,0,0.065-0.005,0.082
					s-0.009,0.027-0.009,0.032c0.002,0.017,0.015-0.009,0.044,0.002c0.033,0,0.066-0.002,0.101-0.003
					c0.038,0.003,0.084-0.01,0.078,0.021c0.007-0.009,0.011,0.008,0.066-0.015c0.042-0.019,0.066-0.065,0.059-0.101
					c-0.006-0.017,0.02-0.029,0.005-0.02c0.018-0.011,0-0.004,0.022-0.013c0.065,0.005,0.106,0,0.119,0
					c0.025-0.002,0.093,0.016,0.113,0.005c0.013,0.025,0.021,0.106,0.021,0.15C70.562,149.926,70.562,149.964,70.564,149.969z"/>
				<path fill="#010201" d="M71.442,150.886v-0.004c-0.011,0.022-0.016,0.044-0.016,0.069c-0.002,0.015,0,0.037,0.005,0.067
					c0.003,0.033,0.005,0.057,0.005,0.068c-0.015,0.003-0.071,0.003-0.173,0.011c-0.06,0.004-0.115,0.011-0.165,0.025l-0.055-0.04
					c-0.013,0.013-0.016,0.021-0.013,0.029c-0.011,0-0.051,0-0.126,0.007c-0.057,0.004-0.101,0.002-0.129-0.007
					c-0.027,0.029-0.062,0.029-0.104,0.007c-0.015-0.007-0.017-0.021-0.007-0.044c0.011-0.021,0.005-0.036-0.015-0.047
					c0-0.048,0.001-0.121,0.007-0.22c0.007-0.087,0.007-0.156,0.003-0.206c-0.003-0.067-0.015-0.131-0.033-0.191
					c0.018-0.019,0.042-0.025,0.065-0.029c0.029-0.004,0.066,0.007,0.106,0.025c0.059,0.029,0.088,0.044,0.089,0.044l0.017,0.013
					c0.002-0.002,0.009-0.029,0.024-0.071c0.007-0.027,0.02-0.047,0.038-0.057l0.017,0.013c0.007-0.003,0.031-0.018,0.069-0.047
					c0.027-0.019,0.049-0.092,0.066-0.092c0.02-0.002,0.038,0.006,0.058,0.022c0.033,0.013,0.057,0.091,0.069,0.116
					c0.011,0.029,0.022,0.055,0.033,0.081c-0.083,0.007-0.148,0.011-0.201,0.011c-0.011,0.015-0.031,0.02-0.053,0.011
					c-0.025-0.011-0.042-0.007-0.051,0.008c0.002,0.025,0.002,0.072,0.007,0.142c0.002,0.062,0.005,0.11,0.009,0.145
					c0.003,0.055,0.013,0.104,0.023,0.151c0.017-0.004,0.084-0.007,0.208-0.015C71.306,150.879,71.379,150.879,71.442,150.886z
					 M71.358,149.853c-0.016,0.002-0.035,0.004-0.055,0.004c-0.042,0.003-0.097,0.001-0.166-0.002
					c-0.084-0.006-0.137-0.008-0.155-0.008c-0.023,0.031-0.027,0.057-0.023,0.115c0.007,0.118,0.013,0.17,0.013,0.153
					c0.025,0.011,0.038,0.035,0.04,0.065c0.002,0.044,0.003,0.066,0.003,0.067c-0.011,0.006-0.016,0.021-0.016,0.046
					c-0.019-0.003-0.04-0.015-0.064-0.032c-0.029-0.019-0.04,0.051-0.04,0.032l-0.011,0.044l-0.018-0.009
					c-0.013,0.002-0.039-0.004-0.075-0.017c-0.037-0.011-0.062-0.021-0.077-0.033c-0.002-0.021,0.001-0.034,0.011-0.04l-0.037-0.029
					l-0.016,0.022c-0.033-0.15-0.053-0.417-0.041-0.581c0.069,0.008,0.15-0.005,0.232-0.011c0.057,0,0.135-0.006,0.237-0.011
					c0.115-0.01,0.199-0.015,0.249-0.019c0.022,0.015,0.035,0.036,0.037,0.062c0,0.018-0.002,0.043-0.011,0.08
					C71.368,149.79,71.357,149.834,71.358,149.853z"/>
				<path fill="#010201" d="M72.343,150.729h-0.002c-0.011,0.023-0.013,0.055-0.011,0.099c0.005,0.059,0.009,0.09,0.009,0.092
					c-0.009,0.003-0.022,0-0.036-0.013c-0.024,0.009-0.033,0.023-0.033,0.045c0,0.002,0.002,0.006,0.004,0.013
					c0,0.01,0,0.017,0,0.017c0.001,0.019-0.004,0.029-0.013,0.038c-0.028-0.015-0.062-0.023-0.104-0.028
					c-0.043-0.004-0.084-0.01-0.122-0.014c0-0.196-0.027-0.394-0.081-0.584c0,0-0.001-0.018-0.001-0.061
					c0-0.028-0.007-0.049-0.021-0.06l-0.018,0.015c0-0.004,0.005-0.008,0.018-0.019c0.011-0.007,0.019-0.015,0.017-0.025
					c0-0.006,0-0.008-0.003-0.013l-0.019-0.015c-0.035,0.011-0.049,0.038-0.049,0.082c0.004,0.031-0.011,0.051-0.033,0.062
					c0.009,0.007,0.013,0.015,0.015,0.025c0,0.003-0.002,0.015-0.004,0.021c0,0.011-0.001,0.019-0.001,0.025
					c0.001,0.015,0.007,0.026,0.022,0.031c0,0.011,0.001,0.09,0.013,0.239c0.005,0.095,0.001,0.176-0.007,0.243l0.002,0.036
					c-0.013-0.002-0.028-0.002-0.044,0.002c-0.019,0-0.044,0.004-0.077,0.007c-0.037,0.004-0.061,0.008-0.079,0.008
					c-0.066,0.004-0.111-0.008-0.139-0.033l-0.029-0.821c-0.013-0.04-0.022-0.097-0.025-0.168l-0.009-0.157
					c-0.007-0.078-0.017-0.139-0.029-0.181c0.005-0.027,0.029-0.046,0.073-0.046c0.027-0.002,0.064,0,0.109,0.012
					c0.022-0.012,0.049-0.017,0.089-0.019c0.009,0,0.029,0,0.051,0c0.025-0.004,0.044-0.004,0.055-0.004
					c0.069-0.004,0.117-0.025,0.141-0.065c0.031,0,0.067,0.009,0.104,0.032c0.039,0.021,0.075,0.029,0.103,0.033
					c0.078,0.044,0.12,0.121,0.126,0.225c0,0.023-0.009,0.119-0.029,0.281l-0.132,0.115c0.022,0.042,0.051,0.131,0.081,0.27
					C72.25,150.59,72.292,150.674,72.343,150.729z M72.098,149.796l0.005,0.002c0,0.009,0-0.025-0.005-0.106
					c-0.002-0.04-0.017-0.069-0.042-0.087c-0.015,0.021-0.019-0.027-0.024,0.021c-0.009,0.051-0.018,0.084-0.037,0.105
					c-0.045,0-0.057-0.027-0.082-0.063c-0.018-0.027-0.027-0.006-0.027-0.006l-0.011,0.012c-0.009,0.003-0.015,0.013-0.024,0.018
					c-0.009,0.01-0.017,0.013-0.025,0.01c0,0.009-0.006,0.023-0.015,0.042c-0.007,0.018-0.013,0.03-0.013,0.038
					c0.001,0.015,0.013,0.023,0.033,0.031c-0.004,0.029-0.004,0.059-0.002,0.091c0,0.019,0.004,0.059,0.011,0.121
					c0.009,0.049,0.013,0.091,0.011,0.127c0.015,0,0.031,0,0.045,0c0.062-0.003,0.104-0.028,0.125-0.076
					c0.005-0.013,0.013-0.062,0.022-0.146C72.047,149.865,72.069,149.819,72.098,149.796z"/>
			</g>
			<g>
				<path fill="#010201" d="M63.358,146.945L63.358,146.945c-0.007,0.077-0.011,0.132-0.007,0.159
					c-0.013,0.004-0.027,0.006-0.046,0.002c-0.023-0.004-0.038-0.006-0.042-0.004c-0.011,0-0.02,0.002-0.025,0.011
					c-0.015-0.011-0.024-0.016-0.031-0.014c-0.013,0.009-0.02,0.021-0.02,0.036c0,0.007,0.004,0.019,0.009,0.034
					c0.004,0.019,0.007,0.029,0.007,0.039c0.002,0.009-0.002,0.025-0.005,0.049c-0.005,0.023-0.007,0.042-0.007,0.055
					c0.002,0.021,0.005,0.046,0.011,0.082c0.007,0.039,0.011,0.066,0.013,0.084c-0.009,0.037-0.011,0.073-0.009,0.11
					c0.001,0.045,0.015,0.104,0.036,0.183c0.004,0,0.007,0,0.013,0c0.007,0,0.018-0.008,0.031-0.019
					c0.015-0.013,0.024-0.019,0.033-0.022c0.007,0,0.014,0.004,0.021,0.008c0.026,0.076,0.037,0.126,0.039,0.147
					c0,0.013,0,0.024,0,0.035c-0.037,0.007-0.06-0.004-0.075-0.037c0.001-0.009-0.004-0.018-0.017-0.028l-0.04,0.043
					c0.038,0.004,0.055,0.035,0.047,0.088c-0.004,0.011-0.013,0.017-0.025,0.019c-0.024,0-0.033,0-0.031,0l-0.033-0.059
					l-0.013,0.015c-0.011-0.027-0.024-0.04-0.039-0.038c-0.007,0-0.022,0.005-0.042,0.02c-0.02,0.013-0.037,0.019-0.049,0.019
					c-0.009,0.004-0.02,0-0.031-0.008c-0.002-0.016-0.004-0.032-0.006-0.049c-0.003-0.017-0.011-0.027-0.027-0.033
					c0-0.042,0-0.147,0.004-0.324c0.001-0.134,0-0.241-0.004-0.323c-0.002-0.033-0.003-0.067-0.007-0.099
					c-0.007-0.012-0.013-0.017-0.02-0.017c-0.005,0-0.013,0.005-0.023,0.017c-0.011,0.011-0.021,0.018-0.028,0.015
					c-0.001-0.013-0.007-0.035-0.018-0.062c-0.011-0.029-0.018-0.051-0.018-0.065c-0.002-0.022,0.007-0.04,0.023-0.059l0.046,0.011
					c0.018-0.023,0.027-0.071,0.025-0.131c-0.003-0.012-0.003-0.029-0.007-0.059c-0.002-0.025-0.003-0.044-0.003-0.055
					c-0.006-0.103,0.025-0.155,0.093-0.159c0.024-0.002,0.055,0.004,0.091,0.013l0.044,0.011c0.004,0.019,0.005,0.037,0.007,0.055
					c0.002,0.026,0,0.062-0.003,0.113c-0.004,0.048-0.004,0.084-0.004,0.104c0.002,0.036,0.007,0.067,0.018,0.097
					c0.011,0,0.027-0.008,0.049-0.017c0.024-0.013,0.041-0.017,0.049-0.017C63.333,146.917,63.347,146.926,63.358,146.945z
					 M63.221,147.086l-0.003-0.045l-0.013-0.015L63.221,147.086z"/>
				<path fill="#010201" d="M63.902,146.804h0.002c-0.005,0.032-0.011,0.071-0.019,0.105c-0.005,0.04-0.018,0.073-0.033,0.097
					c-0.003-0.002-0.02-0.007-0.049-0.023c-0.02-0.011-0.038-0.015-0.055-0.011c-0.013,0.076-0.018,0.183-0.02,0.317
					c0,0.172-0.002,0.275-0.004,0.311c-0.018-0.002-0.035,0.005-0.043,0.018c-0.011,0.017-0.021,0.031-0.027,0.044
					c-0.004,0.012-0.006,0.019-0.006,0.026c0,0.009,0.009,0.018,0.027,0.028c0.017,0.01,0.027,0.022,0.027,0.033
					c-0.007,0.027-0.025,0.044-0.049,0.044c-0.013,0-0.033-0.004-0.062-0.011c-0.029-0.008-0.049-0.011-0.062-0.011l-0.029-0.57
					c0.013-0.013,0.017-0.023,0.015-0.029l-0.016-0.011c0.001-0.025,0.003-0.143,0.005-0.357c0-0.146,0.005-0.262,0.015-0.353
					c0,0,0.04-0.002,0.122-0.008c0.051-0.001,0.086,0.013,0.101,0.042c0,0.029-0.003,0.081-0.009,0.15
					c-0.005,0.062-0.009,0.113-0.007,0.146c0.004,0.044,0.009,0.08,0.02,0.115C63.791,146.836,63.842,146.804,63.902,146.804z
					 M64.098,146.924c0.004,0.051,0.005,0.103,0.009,0.153c0.011,0.223,0.007,0.456-0.009,0.707
					c-0.02,0.016-0.049,0.021-0.089,0.011c-0.039-0.01-0.066-0.006-0.084,0.011c-0.022-0.029-0.037-0.082-0.04-0.157
					c-0.006-0.111-0.007-0.17-0.009-0.173c-0.004-0.279,0.022-0.504,0.082-0.676C64.025,146.814,64.072,146.858,64.098,146.924z"/>
				<path fill="#010201" d="M64.79,147.211c-0.007,0.02-0.011,0.038-0.011,0.057c0.002,0.021,0.002,0.04,0.003,0.058
					c-0.001,0.017-0.007,0.033-0.015,0.05c-0.011-0.004-0.021-0.006-0.029-0.006c-0.009,0-0.019,0.004-0.028,0.011
					c-0.011,0.008-0.018,0.012-0.023,0.012c-0.007,0-0.017-0.004-0.031-0.012l-0.091-0.133c0.002,0.038,0.011,0.075,0.027,0.104
					c0.007,0.018,0.013,0.03,0.021,0.047c-0.053,0.01-0.084,0.011-0.091,0.004l-0.011,0.017l-0.033-0.042
					c-0.024,0.031-0.031,0.076-0.017,0.135c0.017,0.065,0.017,0.109,0.002,0.139c0.02,0.031,0.044,0.044,0.073,0.042
					c0.011-0.002,0.021-0.004,0.031-0.013c0.013-0.033,0.025-0.063,0.039-0.099c0.018-0.04,0.04-0.059,0.063-0.061
					c0.019-0.001,0.041,0.01,0.064,0.027c0.029,0.012,0.046,0.026,0.048,0.044c0,0.01-0.007,0.025-0.022,0.052
					c-0.013,0.023-0.02,0.044-0.02,0.057c0,0.003,0.001,0.009,0.003,0.013c-0.02,0.015-0.037,0.036-0.053,0.063
					c-0.015,0.029-0.035,0.05-0.059,0.061c-0.02,0.02-0.04,0.031-0.059,0.032c-0.015,0-0.036-0.011-0.065-0.034
					s-0.057-0.035-0.083-0.031c-0.009-0.025-0.036-0.051-0.075-0.08c-0.042-0.025-0.067-0.059-0.077-0.092
					c0,0.004,0-0.007-0.002-0.03c-0.001-0.013-0.007-0.024-0.016-0.024l0.015-0.018c-0.021,0-0.031-0.012-0.033-0.033
					c0-0.004,0-0.007,0-0.015c0-0.007,0.002-0.013,0-0.017c0-0.017-0.003-0.027-0.013-0.032l-0.005-0.069
					c-0.002-0.037-0.007-0.061-0.022-0.079c0.015-0.084,0.027-0.168,0.04-0.252c0.022-0.099,0.053-0.147,0.095-0.149
					c0.007,0,0.015,0,0.02,0.002c0.037-0.039,0.084-0.059,0.137-0.061c0.061-0.004,0.126,0.015,0.197,0.053
					C64.742,147.001,64.775,147.103,64.79,147.211z M64.518,146.991l-0.013,0.019c-0.009,0.002-0.02-0.006-0.033-0.017l0.003,0.046
					c-0.022,0.023-0.029,0.057-0.025,0.104c0.003,0.081,0.005,0.117,0.005,0.115h0.059c0.029-0.017,0.043-0.044,0.04-0.078
					c0-0.021-0.007-0.052-0.018-0.094C64.523,147.043,64.518,147.012,64.518,146.991z"/>
			</g>
			<g>
				<polygon fill-rule="evenodd" clip-rule="evenodd" fill="#010201" points="65.253,149.217 65.313,149.252 65.513,148.724 
					65.445,148.702 65.246,149.231 65.305,149.269 65.253,149.217 65.253,149.217 				"/>
				<polygon fill-rule="evenodd" clip-rule="evenodd" fill="#010201" points="65.341,149.146 65.317,149.155 65.253,149.217 
					65.305,149.269 65.369,149.2 65.343,149.213 65.341,149.146 65.341,149.146 				"/>
				<polygon fill-rule="evenodd" clip-rule="evenodd" fill="#010201" points="65.825,149.141 65.852,149.118 65.341,149.146 
					65.343,149.213 65.854,149.188 65.887,149.162 65.825,149.141 65.825,149.141 65.825,149.141 				"/>
				<polygon fill-rule="evenodd" clip-rule="evenodd" fill="#010201" points="66.055,148.654 66.019,148.612 65.825,149.141 
					65.887,149.162 66.088,148.635 66.051,148.591 66.055,148.654 66.055,148.654 66.055,148.654 				"/>
				<polygon fill-rule="evenodd" clip-rule="evenodd" fill="#010201" points="65.567,148.673 65.542,148.686 66.055,148.654 
					66.051,148.591 65.542,148.614 65.516,148.627 65.567,148.673 65.567,148.673 65.567,148.673 				"/>
				<polygon fill-rule="evenodd" clip-rule="evenodd" fill="#010201" points="65.513,148.724 65.503,148.735 65.567,148.673 
					65.516,148.627 65.453,148.691 65.445,148.702 65.513,148.724 65.513,148.724 65.513,148.724 				"/>
				<polygon fill-rule="evenodd" clip-rule="evenodd" fill="#010201" points="65.936,149.202 65.982,149.185 65.873,149.122 
					65.837,149.185 65.949,149.248 66,149.225 65.933,149.202 65.933,149.202 65.936,149.202 				"/>
				<polygon fill-rule="evenodd" clip-rule="evenodd" fill="#010201" points="66.152,148.717 66.133,148.675 65.933,149.202 
					66,149.225 66.199,148.698 66.181,148.654 66.152,148.717 66.152,148.717 				"/>
				<polygon fill-rule="evenodd" clip-rule="evenodd" fill="#010201" points="66.088,148.635 66.037,148.658 66.152,148.717 
					66.181,148.654 66.071,148.595 66.019,148.612 66.088,148.635 66.088,148.635 				"/>
				<polygon fill="#010201" points="65.48,148.713 65.476,148.713 65.542,148.649 66.015,148.625 66.019,148.612 66.055,148.625 
					66.088,148.635 66.084,148.642 66.166,148.688 66.199,148.698 66.187,148.731 66.418,149.29 66.221,149.815 65.967,149.213 
					65.967,149.213 65.935,149.228 65.933,149.202 65.935,149.195 65.856,149.151 65.837,149.185 65.827,149.153 65.341,149.177 
					65.277,149.239 				"/>
				<polygon fill-rule="evenodd" clip-rule="evenodd" fill="#010201" points="66.19,149.805 66.254,149.803 66.002,149.2 
					65.935,149.228 66.19,149.83 66.254,149.827 66.187,149.805 66.187,149.805 66.19,149.805 				"/>
				<polygon fill-rule="evenodd" clip-rule="evenodd" fill="#010201" points="66.389,149.305 66.385,149.277 66.187,149.805 
					66.254,149.827 66.453,149.297 66.451,149.275 66.389,149.305 66.389,149.305 				"/>
				<polygon fill-rule="evenodd" clip-rule="evenodd" fill="#010201" points="66.199,148.698 66.135,148.702 66.389,149.305 
					66.451,149.275 66.197,148.673 66.133,148.675 66.199,148.698 66.199,148.698 				"/>
				<polygon fill-rule="evenodd" clip-rule="evenodd" fill="#FFFFFF" points="66.181,148.834 66.21,148.896 66.221,148.96 
					66.217,149.023 66.199,149.087 66.168,149.149 66.126,149.206 66.069,149.257 66.002,149.305 65.965,149.319 65.929,149.336 
					65.887,149.341 65.849,149.353 65.812,149.355 65.772,149.361 65.735,149.355 65.697,149.354 65.664,149.345 65.629,149.334 
					65.597,149.319 65.565,149.303 65.542,149.283 65.513,149.263 65.491,149.239 65.471,149.21 65.441,149.147 65.432,149.084 
					65.432,149.02 65.453,148.958 65.48,148.892 65.525,148.836 65.58,148.782 65.651,148.738 65.684,148.723 65.725,148.706 
					65.763,148.698 65.801,148.691 65.841,148.688 65.876,148.682 65.915,148.688 65.953,148.688 65.987,148.702 66.022,148.713 
					66.053,148.723 66.088,148.74 66.111,148.757 66.139,148.779 66.159,148.808 66.181,148.834 66.181,148.834 66.181,148.834 				
					"/>
				<polygon fill-rule="evenodd" clip-rule="evenodd" fill="#010201" points="66.207,148.938 66.236,149.002 66.245,149.067 
					66.241,149.129 66.225,149.191 66.197,149.257 66.148,149.313 66.099,149.363 66.027,149.407 65.989,149.425 65.953,149.439 
					65.915,149.451 65.873,149.458 65.836,149.464 65.801,149.467 65.763,149.464 65.721,149.458 65.69,149.451 65.655,149.439 
					65.624,149.425 65.591,149.407 65.565,149.391 65.542,149.367 65.516,149.345 65.496,149.313 65.467,149.254 65.456,149.191 
					65.459,149.126 65.476,149.063 65.505,148.998 65.549,148.943 65.606,148.892 65.675,148.847 65.713,148.828 65.748,148.815 
					65.787,148.803 65.829,148.797 65.865,148.793 65.901,148.788 65.938,148.793 65.977,148.797 66.013,148.805 66.047,148.815 
					66.077,148.83 66.11,148.845 66.137,148.863 66.165,148.885 66.183,148.912 66.207,148.939 66.207,148.939 66.207,148.938 				
					"/>
				<polygon fill-rule="evenodd" clip-rule="evenodd" fill="#FFFFFF" points="66.225,149.013 66.254,149.071 66.265,149.137 
					66.261,149.2 66.245,149.261 66.212,149.326 66.166,149.385 66.115,149.437 66.046,149.479 66.011,149.498 65.971,149.513 
					65.933,149.521 65.891,149.529 65.854,149.535 65.819,149.538 65.781,149.535 65.741,149.527 65.708,149.521 65.673,149.507 
					65.644,149.494 65.609,149.477 65.585,149.46 65.558,149.437 65.537,149.412 65.515,149.385 65.485,149.326 65.474,149.261 
					65.478,149.199 65.496,149.135 65.523,149.069 65.569,149.009 65.626,148.961 65.693,148.918 65.732,148.899 65.768,148.881 
					65.807,148.874 65.847,148.864 65.885,148.863 65.92,148.857 65.962,148.863 65.995,148.864 66.031,148.874 66.066,148.885 
					66.099,148.901 66.13,148.918 66.155,148.933 66.183,148.954 66.203,148.983 66.225,149.013 66.225,149.013 				"/>
				<polygon fill-rule="evenodd" clip-rule="evenodd" fill="#010201" points="66.25,149.115 66.279,149.177 66.289,149.242 
					66.289,149.305 66.269,149.368 66.241,149.429 66.194,149.487 66.141,149.542 66.071,149.586 66.037,149.601 65.997,149.617 
					65.958,149.626 65.92,149.633 65.879,149.637 65.843,149.645 65.807,149.637 65.768,149.635 65.732,149.626 65.699,149.615 
					65.668,149.601 65.635,149.582 65.609,149.563 65.585,149.546 65.56,149.521 65.54,149.491 65.513,149.429 65.5,149.365 
					65.503,149.303 65.522,149.239 65.551,149.177 65.597,149.118 65.651,149.063 65.719,149.02 65.755,149.005 65.792,148.987 
					65.834,148.983 65.873,148.973 65.909,148.969 65.947,148.969 65.985,148.969 66.02,148.969 66.057,148.978 66.091,148.99 
					66.126,149.005 66.155,149.023 66.183,149.044 66.208,149.062 66.232,149.087 66.25,149.118 66.25,149.118 66.25,149.115 				
					"/>
				<polygon fill-rule="evenodd" clip-rule="evenodd" fill="#FFFFFF" points="66.287,149.185 66.316,149.242 66.327,149.307 
					66.327,149.374 66.309,149.437 66.278,149.498 66.23,149.557 66.179,149.607 66.11,149.651 66.073,149.67 66.033,149.687 
					65.995,149.695 65.957,149.703 65.918,149.706 65.881,149.71 65.843,149.706 65.807,149.703 65.77,149.691 65.735,149.681 
					65.706,149.668 65.675,149.653 65.646,149.633 65.622,149.611 65.599,149.586 65.58,149.557 65.551,149.498 65.538,149.433 
					65.542,149.367 65.56,149.309 65.589,149.242 65.633,149.185 65.69,149.135 65.755,149.091 65.794,149.071 65.831,149.053 
					65.873,149.051 65.911,149.04 65.947,149.034 65.985,149.032 66.024,149.034 66.057,149.04 66.093,149.047 66.131,149.06 
					66.161,149.074 66.194,149.089 66.221,149.109 66.245,149.129 66.269,149.157 66.287,149.185 66.287,149.185 				"/>
				<polygon fill-rule="evenodd" clip-rule="evenodd" fill="#010201" points="66.316,149.29 66.341,149.351 66.354,149.414 
					66.351,149.479 66.334,149.542 66.303,149.604 66.259,149.662 66.203,149.714 66.135,149.759 66.099,149.775 66.059,149.79 
					66.02,149.798 65.984,149.807 65.945,149.812 65.907,149.815 65.869,149.812 65.831,149.809 65.799,149.801 65.759,149.79 
					65.73,149.773 65.701,149.758 65.671,149.737 65.646,149.721 65.622,149.691 65.604,149.666 65.577,149.604 65.562,149.538 
					65.565,149.477 65.585,149.41 65.613,149.349 65.659,149.29 65.713,149.239 65.785,149.195 65.817,149.179 65.858,149.162 
					65.896,149.155 65.935,149.147 65.975,149.143 66.011,149.137 66.047,149.143 66.082,149.144 66.123,149.151 66.155,149.166 
					66.187,149.179 66.215,149.195 66.245,149.217 66.271,149.233 66.294,149.261 66.316,149.29 66.316,149.29 66.316,149.29 				
					"/>
				<polygon fill-rule="evenodd" clip-rule="evenodd" fill="#010201" points="62.833,148.478 62.836,148.457 62.635,148.987 
					62.697,149.009 62.898,148.479 62.9,148.465 62.833,148.478 62.833,148.478 62.833,148.478 				"/>
				<polygon fill-rule="evenodd" clip-rule="evenodd" fill="#010201" points="62.827,148.45 62.829,148.45 62.833,148.478 
					62.9,148.465 62.893,148.436 62.893,148.432 62.827,148.45 62.827,148.45 62.827,148.45 				"/>
				<polygon fill-rule="evenodd" clip-rule="evenodd" fill="#010201" points="62.82,148.421 62.827,148.45 62.893,148.432 
					62.885,148.401 62.82,148.421 62.82,148.421 62.82,148.421 				"/>
				<polygon fill-rule="evenodd" clip-rule="evenodd" fill="#010201" points="62.811,148.392 62.82,148.421 62.885,148.401 
					62.878,148.372 62.811,148.392 62.811,148.392 				"/>
				<polygon fill-rule="evenodd" clip-rule="evenodd" fill="#010201" points="62.803,148.362 62.803,148.362 62.811,148.392 
					62.878,148.372 62.869,148.345 62.869,148.345 62.803,148.362 62.803,148.362 62.803,148.362 				"/>
				<polygon fill-rule="evenodd" clip-rule="evenodd" fill="#010201" points="62.796,148.326 62.796,148.335 62.803,148.362 
					62.869,148.345 62.86,148.317 62.864,148.33 62.796,148.326 62.796,148.326 				"/>
				<polygon fill-rule="evenodd" clip-rule="evenodd" fill="#010201" points="62.862,148.312 62.796,148.301 62.796,148.326 
					62.864,148.33 62.865,148.306 62.798,148.293 62.862,148.315 62.862,148.315 62.862,148.312 				"/>
				<polygon fill-rule="evenodd" clip-rule="evenodd" fill="#4D494A" points="62.92,149.856 62.913,149.823 62.843,149.834 
					62.849,149.871 62.92,149.856 62.92,149.856 62.92,149.856 				"/>
				<polygon fill-rule="evenodd" clip-rule="evenodd" fill="#010201" points="63.066,149.414 63.07,149.397 62.869,149.926 
					62.933,149.943 63.132,149.418 63.13,149.401 63.066,149.414 63.066,149.414 63.066,149.414 				"/>
				<polygon fill-rule="evenodd" clip-rule="evenodd" fill="#010201" points="63.061,149.374 63.066,149.414 63.13,149.401 
					63.126,149.363 63.059,149.374 63.059,149.374 63.061,149.374 				"/>
				<polygon fill-rule="evenodd" clip-rule="evenodd" fill="#010201" points="63.052,149.341 63.059,149.374 63.126,149.363 
					63.117,149.326 63.052,149.341 63.052,149.341 63.052,149.341 				"/>
				<polygon fill-rule="evenodd" clip-rule="evenodd" fill="#010201" points="63.042,149.305 63.046,149.309 63.052,149.341 
					63.117,149.326 63.112,149.29 63.114,149.294 63.042,149.305 63.042,149.305 63.042,149.305 				"/>
				<polygon fill-rule="evenodd" clip-rule="evenodd" fill="#010201" points="63.108,149.271 63.041,149.263 63.042,149.305 
					63.114,149.294 63.108,149.257 63.041,149.25 63.108,149.271 63.108,149.271 				"/>
				<g>
					<polygon fill="#4D494A" points="62.635,148.885 62.603,148.892 62.635,148.885 					"/>
					<polygon fill="#4D494A" points="62.668,148.994 62.67,148.99 62.685,148.992 62.697,149.009 62.668,149.002 					"/>
					<polygon fill="#010201" points="62.595,148.863 62.63,148.855 62.63,148.834 62.831,148.301 62.829,148.304 62.829,148.326 
						62.836,148.352 62.845,148.385 62.854,148.412 62.862,148.443 62.867,148.469 62.867,148.469 62.898,148.479 62.697,149.009 
						62.685,148.992 62.67,148.99 62.668,148.994 62.668,149.002 62.697,149.009 62.67,149.007 62.67,149.032 62.65,149.005 
						62.632,149.005 62.628,148.976 62.641,148.975 62.654,148.939 62.619,148.95 62.61,148.925 62.603,148.892 62.635,148.885 
						62.635,148.885 62.603,148.892 62.604,148.892 					"/>
				</g>
				<g>
					<polygon fill="none" points="64.228,149.007 64.228,149.007 64.255,148.943 					"/>
					<polygon fill="#010201" points="62.667,148.965 64.134,148.918 64.171,148.918 64.178,148.921 64.214,148.931 64.216,148.931 
						64.255,148.943 64.293,148.96 64.295,148.96 64.33,148.983 64.337,148.983 64.364,149.007 64.374,149.017 64.392,149.038 
						64.396,149.044 64.408,149.063 64.41,149.073 64.346,149.093 64.335,149.074 64.333,149.078 64.317,149.057 64.317,149.057 
						64.293,149.038 64.3,149.044 64.264,149.023 64.264,149.023 64.228,149.007 64.228,149.007 64.194,148.998 64.16,148.987 
						64.165,148.99 64.132,148.987 64.132,148.983 62.67,149.032 					"/>
					<polygon fill="#010201" points="64.344,149.093 64.346,149.093 64.35,149.099 					"/>
				</g>
				<polygon fill-rule="evenodd" clip-rule="evenodd" fill="#010201" points="65.125,150.332 65.125,150.312 64.927,150.842 
					64.992,150.864 65.193,150.334 65.193,150.312 65.125,150.332 65.125,150.332 65.125,150.332 				"/>
				<polygon fill-rule="evenodd" clip-rule="evenodd" fill="#010201" points="64.549,148.57 64.543,148.563 65.125,150.332 
					65.193,150.312 64.611,148.541 64.609,148.534 64.549,148.57 64.549,148.57 64.549,148.57 				"/>
				<polygon fill-rule="evenodd" clip-rule="evenodd" fill="#010201" points="64.536,148.553 64.534,148.549 64.549,148.57 
					64.609,148.534 64.596,148.513 64.592,148.513 64.532,148.553 64.532,148.553 64.536,148.553 				"/>
				<polygon fill-rule="evenodd" clip-rule="evenodd" fill="#010201" points="64.521,148.53 64.518,148.525 64.532,148.553 
					64.592,148.513 64.571,148.483 64.565,148.478 64.521,148.53 64.521,148.53 64.521,148.53 				"/>
				<polygon fill-rule="evenodd" clip-rule="evenodd" fill="#010201" points="64.5,148.514 64.494,148.509 64.521,148.53 
					64.565,148.478 64.536,148.457 64.53,148.45 64.5,148.514 64.5,148.514 				"/>
				<polygon fill-rule="evenodd" clip-rule="evenodd" fill="#010201" points="64.468,148.494 64.465,148.494 64.5,148.514 
					64.53,148.45 64.494,148.432 64.492,148.432 64.468,148.494 64.468,148.494 				"/>
				<polygon fill-rule="evenodd" clip-rule="evenodd" fill="#010201" points="64.434,148.479 64.426,148.479 64.468,148.494 
					64.492,148.432 64.454,148.416 64.452,148.414 64.43,148.481 64.43,148.481 64.434,148.479 				"/>
				<polygon fill-rule="evenodd" clip-rule="evenodd" fill="#010201" points="64.396,148.467 64.392,148.469 64.43,148.481 
					64.452,148.414 64.414,148.401 64.414,148.401 64.396,148.471 64.396,148.471 64.396,148.467 				"/>
				<polygon fill-rule="evenodd" clip-rule="evenodd" fill="#010201" points="64.366,148.459 64.359,148.457 64.396,148.471 
					64.414,148.401 64.375,148.392 64.372,148.392 64.366,148.459 64.366,148.459 64.366,148.459 				"/>
				<polygon fill-rule="evenodd" clip-rule="evenodd" fill="#010201" points="64.333,148.457 64.332,148.457 64.366,148.459 
					64.372,148.392 64.335,148.385 64.33,148.388 64.333,148.457 64.333,148.457 				"/>
				<polygon fill-rule="evenodd" clip-rule="evenodd" fill="#010201" points="62.902,148.481 62.865,148.503 64.333,148.457 
					64.33,148.388 62.867,148.439 62.836,148.457 62.898,148.479 62.898,148.479 62.902,148.481 				"/>
				<polygon fill="#4D494A" points="63.271,150.094 63.265,150.092 63.267,150.09 				"/>
				<g>
					<polygon fill="#4D494A" points="64.063,150.332 64.056,150.403 64.063,150.332 					"/>
					<g>
						<polygon fill="none" points="64.06,150.367 64.056,150.403 64.06,150.367 						"/>
						<g>
							<polygon fill="none" points="62.869,149.794 62.873,149.787 62.875,149.796 							"/>
							<path fill="#010201" d="M62.849,149.871l0.005,0.032l0.013,0.038l0.017,0.027l0.087,0.048l0.091,0.048l0.086,0.047
								l0.087,0.044h0.004l0.089,0.04l0.087,0.04l0.095,0.039l0.099,0.038h0.002l0.104,0.025l0.102,0.029h0.004l0.113,0.019
								l0.117,0.018h0.003l0.128,0.008h0.005l0.135,0.004l0.144-0.008l0.155-0.007l0.031-0.022l0.199-0.525l-0.033-0.048
								l0.002,0.069l-0.011-0.015l0.009-0.02l-0.024,0.002l-0.009-0.012l-0.006,0.015l-0.113,0.004h-0.147l-0.135-0.004
								l-0.126-0.005l-0.121-0.017l-0.113-0.021l-0.102-0.027l-0.104-0.025l-0.097-0.036l-0.093-0.037l-0.089-0.04l-0.088-0.044
								l-0.091-0.044l-0.085-0.047l-0.086-0.044l-0.061-0.036l0.002-0.004l-0.031-0.011l0,0l-0.009-0.037l-0.007-0.034l-0.002-0.011
								l0.026-0.054l-0.035-0.011h-0.002l0,0l-0.031-0.011l-0.199,0.527l-0.002,0.019l0.005,0.034L62.849,149.871z M62.873,149.787
								l0.002,0.009l-0.005-0.002L62.873,149.787z"/>
						</g>
					</g>
				</g>
				<polygon fill-rule="evenodd" clip-rule="evenodd" fill="#010201" points="64.669,149.882 64.823,149.874 64.821,149.805 
					64.666,149.814 64.669,149.882 64.669,149.882 64.669,149.882 				"/>
				<polygon fill-rule="evenodd" clip-rule="evenodd" fill="#010201" points="64.523,149.885 64.669,149.882 64.666,149.814 
					64.521,149.817 64.523,149.885 64.523,149.885 64.523,149.885 				"/>
				<polygon fill-rule="evenodd" clip-rule="evenodd" fill="#010201" points="64.384,149.882 64.388,149.882 64.523,149.885 
					64.521,149.817 64.386,149.814 64.388,149.812 64.384,149.885 64.384,149.885 64.384,149.882 				"/>
				<polygon fill-rule="evenodd" clip-rule="evenodd" fill="#010201" points="64.253,149.874 64.256,149.874 64.384,149.885 
					64.388,149.812 64.262,149.805 64.264,149.807 64.253,149.874 64.253,149.874 64.253,149.874 				"/>
				<polygon fill-rule="evenodd" clip-rule="evenodd" fill="#010201" points="64.134,149.857 64.253,149.874 64.264,149.807 
					64.147,149.787 64.134,149.857 64.134,149.857 				"/>
				<polygon fill-rule="evenodd" clip-rule="evenodd" fill="#010201" points="64.019,149.838 64.023,149.838 64.134,149.857 
					64.147,149.787 64.032,149.771 64.034,149.772 64.019,149.838 64.019,149.838 64.019,149.838 				"/>
				<polygon fill-rule="evenodd" clip-rule="evenodd" fill="#010201" points="63.915,149.809 64.019,149.838 64.034,149.772 
					63.932,149.743 63.915,149.812 63.915,149.812 63.915,149.809 				"/>
				<polygon fill-rule="evenodd" clip-rule="evenodd" fill="#010201" points="63.809,149.783 63.811,149.783 63.915,149.812 
					63.932,149.743 63.828,149.716 63.831,149.717 63.809,149.783 63.809,149.783 				"/>
				<polygon fill-rule="evenodd" clip-rule="evenodd" fill="#010201" points="63.71,149.746 63.71,149.746 63.809,149.783 
					63.831,149.717 63.734,149.681 63.736,149.681 63.709,149.746 63.709,149.746 63.71,149.746 				"/>
				<polygon fill-rule="evenodd" clip-rule="evenodd" fill="#010201" points="63.616,149.706 63.709,149.746 63.736,149.681 
					63.645,149.645 63.616,149.706 63.616,149.706 				"/>
				<polygon fill-rule="evenodd" clip-rule="evenodd" fill="#010201" points="63.526,149.668 63.616,149.706 63.645,149.645 
					63.556,149.605 63.526,149.668 63.526,149.668 				"/>
				<polygon fill-rule="evenodd" clip-rule="evenodd" fill="#010201" points="63.437,149.622 63.438,149.628 63.526,149.668 
					63.556,149.605 63.464,149.561 63.468,149.563 63.435,149.626 63.435,149.626 63.437,149.622 				"/>
				<polygon fill-rule="evenodd" clip-rule="evenodd" fill="#010201" points="63.349,149.578 63.435,149.626 63.468,149.563 
					63.38,149.519 63.347,149.582 63.347,149.582 63.349,149.578 				"/>
				<polygon fill-rule="evenodd" clip-rule="evenodd" fill="#010201" points="63.263,149.533 63.347,149.582 63.38,149.519 
					63.294,149.473 63.26,149.533 63.26,149.533 63.263,149.533 				"/>
				<polygon fill-rule="evenodd" clip-rule="evenodd" fill="#010201" points="63.174,149.485 63.26,149.533 63.294,149.473 
					63.207,149.425 63.174,149.485 63.174,149.485 				"/>
				<polygon fill-rule="evenodd" clip-rule="evenodd" fill="#010201" points="63.132,149.418 63.083,149.437 63.174,149.485 
					63.207,149.425 63.117,149.378 63.07,149.397 63.132,149.418 63.132,149.418 63.132,149.418 				"/>
				<polygon fill-rule="evenodd" clip-rule="evenodd" fill="#010201" points="72.266,148.461 72.065,148.992 72.721,149.213 
					72.872,148.859 72.877,148.826 72.877,148.79 72.872,148.753 72.859,148.717 72.839,148.688 72.823,148.651 72.795,148.618 
					72.766,148.587 72.737,148.56 72.704,148.532 72.671,148.505 72.639,148.486 72.605,148.465 72.569,148.45 72.536,148.432 
					72.505,148.421 72.478,148.412 72.443,148.406 72.412,148.404 72.383,148.41 72.354,148.414 72.321,148.423 72.293,148.443 
					72.266,148.461 72.266,148.461 72.266,148.461 				"/>
				<polygon fill-rule="evenodd" clip-rule="evenodd" fill="#010201" points="72.691,149.195 72.731,149.177 72.078,148.958 
					72.056,149.025 72.711,149.244 72.755,149.228 72.691,149.195 72.691,149.195 				"/>
				<g>
					<polygon fill="none" points="72.819,149.349 72.823,149.385 72.819,149.349 					"/>
					<polygon fill="none" points="73.153,148.994 73.179,149.017 73.153,148.998 					"/>
					<g>
						<polygon fill="none" points="73.179,149.017 73.153,148.998 73.153,148.994 						"/>
						<g>
							<polygon fill="none" points="73.179,149.017 73.153,148.998 73.153,148.994 							"/>
							<polygon fill="#010201" points="62.595,148.83 62.599,148.821 62.798,148.293 62.862,148.315 62.667,148.836 62.665,148.857 
								62.665,148.849 62.595,148.863 62.595,148.855 							"/>
							<g>
								<polygon fill="none" points="73.179,149.017 73.153,148.998 73.153,148.994 								"/>
								<polygon fill="#4D494A" points="65.805,150.08 65.792,150.086 65.792,150.084 								"/>
								<g>
									<polygon fill="none" points="65.816,150.111 65.843,150.134 65.816,150.111 									"/>
									<polygon fill="none" points="73.179,149.017 73.153,148.998 73.153,148.994 									"/>
									<polygon fill="none" points="64.958,150.853 64.961,150.853 64.961,150.854 64.927,150.842 64.954,150.842 									"/>
									<path fill="#010201" d="M62.619,148.95l0.009,0.029v-0.004l0.051-0.009l-0.013,0.031l1.466-0.048h0.037l0.038,0.017
										l0.037,0.009l0.039,0.015l0.035,0.022l0.029,0.021l0.018,0.025l0.013,0.022l-0.033,0.011l0.583,1.771h0.035v0.021h0.053
										h0.049h0.044l0.042-0.007l0.042-0.012l0.042-0.021l0.04-0.033l0.047-0.042v-0.005l0.026-0.037l0.031-0.04l0.035-0.04
										l0.024-0.04l0.031-0.052l0.033-0.042l0.025-0.047l0.033-0.05l0.027-0.04l0.041-0.044l0.031-0.043l0.037-0.037l0.033-0.034
										l0.035-0.031l0.035-0.029l0.039-0.021l0.009-0.005l-0.027-0.022l0,0l0.027,0.022l0.038-0.044l0.037-0.033l0.031-0.029
										l0.035-0.029l0.033-0.025l0.033-0.02l0.031-0.017l0.033-0.019l0.039-0.009l0.038-0.015l0.037-0.01l0.044-0.007l0.049-0.007
										l0.053-0.004l0.059-0.004l0.057-0.004h0.003l6.332-0.475l0.037-0.004l0.031-0.007l0.033-0.009l0.033-0.01l0.029-0.015
										l0.029-0.018l0.025-0.026l0.029-0.025l0.007-0.007l0.111-0.26l-0.059-0.036l0.024,0.023l-0.002,0.004l-0.029-0.021
										l-0.025,0.066l-0.02,0.011l-0.025,0.011l-0.029,0.011l-0.026,0.004l-0.033,0.008l-0.035,0.007l-6.333,0.475l-0.04,0.004
										l-0.039,0.002h-0.038l-0.042,0.005h-0.042l-0.037,0.008l-0.042,0.005l-0.035,0.002l-0.042,0.012l-0.037,0.003l-0.038,0.01
										l-0.042,0.009l-0.039,0.009l-0.04,0.017l-0.04,0.015l-0.039,0.019l-0.075,0.044l-0.075,0.071l-0.081,0.084l-0.077,0.095
										l-0.073,0.099l-0.065,0.086l-0.064,0.087l-0.051,0.062l-0.033,0.007l-0.025,0.008l-0.033,0.004h-0.031h-0.031l-0.027-0.002
										l-0.035-0.002l-0.031-0.004l-0.581-1.768l-0.013-0.025l-0.02-0.025l-0.029-0.019l-0.038-0.025l-0.037-0.015l-0.037-0.015
										l-0.036-0.007h-0.035l-1.466,0.044l-0.177,0.467v-0.005L62.619,148.95z M73.153,148.998v-0.004l0.025,0.022L73.153,148.998
										z"/>
								</g>
							</g>
						</g>
					</g>
				</g>
				<polygon fill-rule="evenodd" clip-rule="evenodd" fill="#010201" points="72.931,149.129 72.969,149.118 73.003,149.115 
					73.035,149.105 73.065,149.095 73.097,149.08 73.126,149.063 73.149,149.044 73.179,149.017 73.129,148.969 73.106,148.99 
					73.084,149.009 73.06,149.023 73.038,149.032 73.015,149.04 72.985,149.047 72.958,149.053 72.925,149.053 72.931,149.129 
					72.931,149.129 				"/>
				<polygon fill-rule="evenodd" clip-rule="evenodd" fill="#010201" points="66.601,149.601 72.931,149.129 72.925,149.053 
					66.593,149.531 66.601,149.601 66.601,149.601 				"/>
				<polygon fill-rule="evenodd" clip-rule="evenodd" fill="#010201" points="65.982,149.714 66.019,149.699 66.053,149.687 
					66.099,149.674 66.133,149.659 66.172,149.647 66.208,149.641 66.247,149.637 66.287,149.63 66.32,149.622 66.36,149.622 
					66.4,149.619 66.44,149.615 66.48,149.609 66.515,149.607 66.559,149.604 66.601,149.601 66.593,149.531 66.553,149.535 
					66.515,149.538 66.471,149.538 66.431,149.546 66.393,149.546 66.354,149.553 66.316,149.553 66.272,149.557 66.234,149.565 
					66.197,149.575 66.155,149.582 66.111,149.593 66.077,149.604 66.033,149.619 65.991,149.632 65.953,149.651 65.982,149.714 
					65.982,149.714 65.982,149.714 				"/>
				<polygon fill-rule="evenodd" clip-rule="evenodd" fill="#010201" points="65.414,150.346 65.429,150.334 65.456,150.302 
					65.481,150.269 65.513,150.229 65.543,150.188 65.58,150.141 65.613,150.097 65.649,150.048 65.686,150.002 65.725,149.951 
					65.763,149.907 65.801,149.867 65.839,149.823 65.873,149.787 65.915,149.759 65.947,149.731 65.982,149.714 65.953,149.651 
					65.911,149.677 65.873,149.703 65.831,149.737 65.789,149.777 65.752,149.817 65.713,149.856 65.669,149.911 65.633,149.958 
					65.597,150.008 65.56,150.055 65.527,150.101 65.491,150.145 65.459,150.188 65.429,150.225 65.405,150.26 65.381,150.287 
					65.392,150.279 65.414,150.346 65.414,150.346 65.414,150.346 				"/>
				<polygon fill="none" points="72.253,148.492 72.266,148.461 72.292,148.439 72.33,148.421 72.374,148.414 72.399,148.414 
					72.427,148.416 72.452,148.421 72.479,148.429 72.511,148.439 72.538,148.446 72.569,148.461 72.602,148.479 72.629,148.492 
					72.657,148.513 72.684,148.532 72.711,148.556 72.739,148.574 72.759,148.6 72.785,148.622 72.803,148.647 72.841,148.695 
					72.859,148.742 72.87,148.768 72.874,148.782 72.87,148.826 72.863,148.857 72.841,148.885 72.805,148.901 72.761,148.91 
					72.737,148.914 72.709,148.906 72.679,148.906 72.646,148.897 72.618,148.889 72.585,148.877 72.553,148.863 72.523,148.845 
					72.492,148.832 72.459,148.813 72.432,148.793 72.403,148.77 72.379,148.75 72.352,148.724 72.33,148.698 72.31,148.675 
					72.277,148.625 72.259,148.574 72.253,148.56 72.248,148.532 				"/>
				<polygon fill-rule="evenodd" clip-rule="evenodd" fill="#FFFFFF" points="64.202,148.427 64.333,148.425 64.344,148.425 
					63.221,148.047 63.165,148.08 64.2,148.429 64.2,148.429 64.202,148.427 				"/>
				<polygon fill-rule="evenodd" clip-rule="evenodd" fill="#FFFFFF" points="64.202,148.427 62.867,148.469 62.862,148.443 
					62.854,148.412 62.845,148.385 62.836,148.352 62.829,148.326 62.829,148.304 62.838,148.278 62.862,148.262 62.917,148.224 
					62.979,148.188 63.039,148.15 63.101,148.116 63.158,148.078 63.165,148.08 64.2,148.429 64.2,148.429 64.202,148.427 				"/>
				<polygon fill="#FFFFFF" points="63.391,149.242 64.3,149.191 64.655,149.336 64.782,149.71 64.821,149.84 64.669,149.849 
					64.521,149.849 64.386,149.845 64.26,149.84 64.14,149.823 64.026,149.803 63.924,149.775 63.82,149.75 63.724,149.714 
					63.63,149.677 63.541,149.637 63.453,149.593 63.362,149.549 63.276,149.502 63.19,149.458 63.101,149.407 63.092,149.37 
					63.084,149.336 63.077,149.297 63.072,149.261 				"/>
				<polygon fill-rule="evenodd" clip-rule="evenodd" fill="#FFFFFF" points="65.681,149.349 65.693,149.363 65.812,149.437 
					65.849,149.374 65.732,149.301 65.745,149.319 65.681,149.349 65.686,149.355 65.693,149.363 65.681,149.349 65.681,149.349 
									"/>
				<polygon fill-rule="evenodd" clip-rule="evenodd" fill="#FFFFFF" points="64.642,149.37 64.622,149.345 64.788,149.851 
					64.854,149.83 64.688,149.326 64.671,149.305 64.688,149.326 64.682,149.311 64.671,149.305 64.642,149.37 64.642,149.37 
					64.642,149.37 				"/>
				<polygon fill-rule="evenodd" clip-rule="evenodd" fill="#FFFFFF" points="64.302,149.225 64.286,149.223 64.642,149.37 
					64.671,149.305 64.315,149.158 64.3,149.157 64.315,149.158 64.308,149.157 64.3,149.157 64.302,149.225 64.302,149.225 
					64.302,149.225 				"/>
				<polygon fill-rule="evenodd" clip-rule="evenodd" fill="#FFFFFF" points="63.108,149.257 63.074,149.296 64.302,149.225 
					64.3,149.157 63.072,149.228 63.041,149.263 63.072,149.228 63.033,149.228 63.041,149.263 63.108,149.257 63.108,149.257 				
					"/>
				<polygon fill-rule="evenodd" clip-rule="evenodd" fill="#FFFFFF" points="63.117,149.378 63.13,149.401 63.13,149.383 
					63.126,149.363 63.125,149.345 63.119,149.328 63.119,149.312 63.114,149.29 63.11,149.275 63.108,149.257 63.041,149.263 
					63.039,149.284 63.042,149.307 63.048,149.323 63.05,149.341 63.053,149.355 63.059,149.374 63.064,149.396 63.066,149.414 
					63.083,149.437 63.066,149.414 63.072,149.429 63.083,149.437 63.117,149.378 63.117,149.378 				"/>
				<polygon fill-rule="evenodd" clip-rule="evenodd" fill="#FFFFFF" points="64.788,149.847 64.817,149.803 64.666,149.814 
					64.521,149.817 64.388,149.812 64.262,149.805 64.147,149.787 64.034,149.772 63.932,149.743 63.831,149.717 63.734,149.681 
					63.645,149.645 63.556,149.605 63.468,149.563 63.38,149.519 63.294,149.473 63.207,149.425 63.117,149.378 63.083,149.437 
					63.174,149.485 63.26,149.533 63.347,149.582 63.435,149.626 63.526,149.668 63.616,149.706 63.71,149.746 63.809,149.783 
					63.915,149.812 64.019,149.838 64.134,149.857 64.256,149.874 64.384,149.885 64.523,149.885 64.669,149.882 64.826,149.874 
					64.854,149.83 64.826,149.874 64.87,149.871 64.854,149.83 64.788,149.851 64.788,149.851 64.788,149.847 				"/>
				<g>
					<polygon fill="none" points="65.425,150.296 65.451,150.323 65.425,150.296 					"/>
					<polygon fill="none" points="65.191,150.287 65.186,150.287 65.186,150.287 					"/>
					<polygon fill="none" points="64.618,148.57 65.542,148.879 64.618,148.57 					"/>
				</g>
				<polygon fill-rule="evenodd" clip-rule="evenodd" fill="#FFFFFF" points="66.593,149.531 66.548,149.533 66.495,149.542 
					66.449,149.542 66.398,149.546 66.351,149.553 66.298,149.563 66.249,149.571 66.197,149.582 66.148,149.593 66.104,149.607 
					66.057,149.622 66.013,149.639 65.975,149.659 65.929,149.681 65.893,149.706 65.859,149.731 65.901,149.787 65.935,149.761 
					65.965,149.741 66.002,149.721 66.04,149.706 66.079,149.685 66.121,149.674 66.172,149.662 66.214,149.647 66.261,149.641 
					66.305,149.632 66.354,149.628 66.402,149.62 66.455,149.611 66.506,149.607 66.553,149.601 66.601,149.601 66.593,149.531 
					66.593,149.531 66.593,149.531 				"/>
				<polygon fill-rule="evenodd" clip-rule="evenodd" fill="#FFFFFF" points="72.925,149.053 66.593,149.531 66.601,149.601 
					72.931,149.129 72.925,149.053 72.925,149.053 				"/>
				<polygon fill-rule="evenodd" clip-rule="evenodd" fill="#FFFFFF" points="73.042,148.666 73.067,148.702 73.097,148.738 
					73.107,148.775 73.129,148.808 73.139,148.841 73.143,148.874 73.144,148.901 73.143,148.931 73.133,148.95 73.124,148.973 
					73.109,148.994 73.086,149.013 73.06,149.025 73.02,149.042 72.978,149.053 72.925,149.053 72.931,149.129 72.991,149.122 
					73.04,149.107 73.086,149.091 73.124,149.069 73.159,149.045 73.185,149.013 73.199,148.979 73.212,148.939 73.21,148.903 
					73.212,148.864 73.203,148.826 73.19,148.782 73.175,148.746 73.153,148.702 73.126,148.658 73.097,148.625 73.042,148.666 
					73.042,148.666 				"/>
				<polygon fill-rule="evenodd" clip-rule="evenodd" fill="#FFFFFF" points="72.288,148.304 72.345,148.301 72.403,148.306 
					72.461,148.318 72.518,148.326 72.573,148.345 72.625,148.362 72.677,148.388 72.728,148.412 72.777,148.439 72.823,148.469 
					72.872,148.498 72.909,148.53 72.947,148.563 72.983,148.6 73.015,148.637 73.042,148.666 73.097,148.625 73.065,148.585 
					73.029,148.549 72.993,148.513 72.951,148.476 72.907,148.443 72.861,148.41 72.813,148.381 72.761,148.348 72.706,148.322 
					72.651,148.301 72.595,148.282 72.534,148.261 72.474,148.249 72.416,148.238 72.346,148.234 72.286,148.234 72.288,148.304 
					72.288,148.304 				"/>
				<polygon fill-rule="evenodd" clip-rule="evenodd" fill="#FFFFFF" points="66.687,148.498 72.288,148.304 72.286,148.234 
					66.688,148.43 66.687,148.498 66.687,148.498 				"/>
				<polygon fill-rule="evenodd" clip-rule="evenodd" fill="#FFFFFF" points="65.803,148.355 65.856,148.377 65.911,148.388 
					65.965,148.406 66.02,148.417 66.079,148.432 66.135,148.446 66.195,148.457 66.249,148.461 66.305,148.476 66.362,148.479 
					66.418,148.486 66.475,148.49 66.528,148.498 66.586,148.494 66.637,148.498 66.687,148.498 66.688,148.43 66.635,148.43 
					66.583,148.429 66.533,148.425 66.48,148.421 66.425,148.416 66.371,148.412 66.316,148.404 66.259,148.396 66.205,148.385 
					66.152,148.377 66.095,148.362 66.04,148.354 65.984,148.339 65.925,148.322 65.876,148.31 65.825,148.293 65.801,148.359 
					65.801,148.359 65.803,148.355 				"/>
				<polygon fill-rule="evenodd" clip-rule="evenodd" fill="#FFFFFF" points="63.913,147.833 64.008,147.82 64.1,147.812 
					64.186,147.806 64.266,147.8 64.34,147.795 64.408,147.806 64.478,147.808 64.536,147.812 64.596,147.822 64.651,147.833 
					64.704,147.844 64.751,147.862 64.802,147.877 64.841,147.896 64.89,147.913 64.93,147.936 64.974,147.957 65.021,147.979 
					65.065,148.005 65.109,148.03 65.153,148.056 65.201,148.085 65.246,148.107 65.295,148.138 65.35,148.165 65.403,148.196 
					65.461,148.22 65.518,148.249 65.582,148.278 65.651,148.301 65.726,148.333 65.801,148.359 65.825,148.293 65.748,148.268 
					65.673,148.238 65.609,148.213 65.545,148.188 65.485,148.156 65.434,148.133 65.381,148.1 65.33,148.078 65.279,148.049 
					65.231,148.023 65.188,147.997 65.142,147.965 65.096,147.94 65.053,147.917 65.007,147.897 64.965,147.871 64.919,147.85 
					64.87,147.829 64.824,147.812 64.773,147.793 64.718,147.774 64.664,147.764 64.607,147.757 64.545,147.742 64.481,147.734 
					64.414,147.734 64.337,147.73 64.264,147.73 64.178,147.734 64.09,147.74 63.999,147.753 63.906,147.764 63.91,147.833 
					63.91,147.833 63.913,147.833 				"/>
				<polygon fill-rule="evenodd" clip-rule="evenodd" fill="#FFFFFF" points="62.88,148.293 62.933,148.253 62.995,148.219 
					63.057,148.184 63.119,148.144 63.176,148.11 63.24,148.074 63.3,148.041 63.362,148.012 63.428,147.982 63.495,147.953 
					63.561,147.925 63.628,147.898 63.7,147.883 63.767,147.862 63.84,147.844 63.91,147.833 63.906,147.764 63.826,147.778 
					63.751,147.793 63.678,147.814 63.608,147.833 63.539,147.862 63.466,147.888 63.402,147.917 63.334,147.946 63.267,147.981 
					63.203,148.016 63.143,148.049 63.083,148.085 63.021,148.121 62.96,148.156 62.902,148.192 62.843,148.231 62.876,148.293 
					62.876,148.293 62.88,148.293 				"/>
				<polygon fill-rule="evenodd" clip-rule="evenodd" fill="#FFFFFF" points="62.867,148.439 62.902,148.467 62.893,148.436 
					62.885,148.401 62.878,148.372 62.869,148.345 62.865,148.322 62.862,148.312 62.867,148.297 62.876,148.293 62.843,148.231 
					62.812,148.261 62.798,148.297 62.792,148.33 62.803,148.362 62.811,148.392 62.82,148.421 62.829,148.45 62.833,148.476 
					62.865,148.503 62.833,148.476 62.834,148.503 62.865,148.503 62.867,148.439 62.867,148.439 				"/>
				<g>
					<polygon fill="none" points="65.453,148.691 65.453,148.691 65.443,148.728 					"/>
					<polygon fill="#FFFFFF" points="65.454,148.688 65.453,148.691 65.453,148.691 					"/>
					<polygon fill="#FFFFFF" points="65.438,148.702 65.453,148.691 65.443,148.728 					"/>
					<g>
						<polygon fill="none" points="72.266,148.461 72.292,148.439 72.33,148.421 72.374,148.414 72.399,148.414 72.427,148.416 
							72.452,148.421 72.479,148.429 72.511,148.439 72.538,148.446 72.569,148.461 72.602,148.479 72.629,148.492 72.657,148.513 
							72.684,148.532 72.711,148.556 72.739,148.574 72.759,148.6 72.785,148.622 72.803,148.647 72.841,148.695 72.859,148.742 
							72.87,148.768 72.874,148.782 72.87,148.826 72.863,148.857 72.841,148.885 72.805,148.901 72.761,148.91 72.737,148.914 
							72.709,148.906 72.679,148.906 72.646,148.897 72.618,148.889 72.585,148.877 72.553,148.863 72.523,148.845 72.492,148.832 
							72.459,148.813 72.432,148.793 72.403,148.77 72.379,148.75 72.352,148.724 72.33,148.698 72.31,148.675 72.277,148.625 
							72.259,148.574 72.253,148.56 72.248,148.532 72.253,148.492 						"/>
						<polygon fill="none" points="66.165,148.688 66.165,148.688 66.135,148.702 						"/>
						<polygon fill="none" points="66.395,149.267 66.417,149.283 66.418,149.29 66.358,149.363 65.829,149.403 65.713,149.334 
							65.713,149.334 65.745,149.319 65.518,148.723 65.557,148.684 66.037,148.658 66.139,148.709 66.389,149.305 						"/>
						<polygon fill="none" points="64.589,148.505 64.589,148.505 65.474,148.805 						"/>
						<g>
							<polygon fill="none" points="72.266,148.461 72.292,148.439 72.33,148.421 72.374,148.414 72.399,148.414 72.427,148.416 
								72.452,148.421 72.479,148.429 72.511,148.439 72.538,148.446 72.569,148.461 72.602,148.479 72.629,148.492 72.657,148.513 
								72.684,148.532 72.711,148.556 72.739,148.574 72.759,148.6 72.785,148.622 72.803,148.647 72.841,148.695 72.859,148.742 
								72.87,148.768 72.874,148.782 72.87,148.826 72.863,148.857 72.841,148.885 72.805,148.901 72.761,148.91 72.737,148.914 
								72.709,148.906 72.679,148.906 72.646,148.897 72.618,148.889 72.585,148.877 72.553,148.863 72.523,148.845 72.492,148.832 
								72.459,148.813 72.432,148.793 72.403,148.77 72.379,148.75 72.352,148.724 72.33,148.698 72.31,148.675 72.277,148.625 
								72.259,148.574 72.253,148.56 72.248,148.532 72.253,148.492 							"/>
							<polygon fill="none" points="66.037,148.658 66.139,148.709 66.389,149.305 66.395,149.267 66.417,149.283 66.418,149.29 
								66.358,149.363 65.829,149.403 65.713,149.334 65.713,149.334 65.745,149.319 65.518,148.723 65.557,148.684 							"/>
							<polygon fill="none" points="64.589,148.505 64.589,148.505 65.474,148.805 							"/>
							<g>
								<polygon fill="none" points="72.266,148.461 72.292,148.439 72.33,148.421 72.374,148.414 72.399,148.414 72.427,148.416 
									72.452,148.421 72.479,148.429 72.511,148.439 72.538,148.446 72.569,148.461 72.602,148.479 72.629,148.492 
									72.657,148.513 72.684,148.532 72.711,148.556 72.739,148.574 72.759,148.6 72.785,148.622 72.803,148.647 72.841,148.695 
									72.859,148.742 72.87,148.768 72.874,148.782 72.87,148.826 72.863,148.857 72.841,148.885 72.805,148.901 72.761,148.91 
									72.737,148.914 72.709,148.906 72.679,148.906 72.646,148.897 72.618,148.889 72.585,148.877 72.553,148.863 
									72.523,148.845 72.492,148.832 72.459,148.813 72.432,148.793 72.403,148.77 72.379,148.75 72.352,148.724 72.33,148.698 
									72.31,148.675 72.277,148.625 72.259,148.574 72.253,148.56 72.248,148.532 72.253,148.492 								"/>
								<polygon fill="none" points="66.037,148.658 66.139,148.709 66.389,149.305 66.395,149.267 66.417,149.283 66.418,149.29 
									66.358,149.363 66.354,149.33 65.825,149.368 65.849,149.374 65.832,149.401 65.829,149.403 65.713,149.334 65.713,149.334 
									65.745,149.319 65.518,148.723 65.557,148.684 								"/>
								<polygon fill="none" points="64.589,148.505 64.589,148.505 65.474,148.805 								"/>
								<g>
									<polygon fill="none" points="66.407,149.173 67.41,149.507 66.407,149.173 									"/>
									<polygon fill="none" points="66.38,149.109 67.536,149.498 66.38,149.109 									"/>
									<polygon fill="none" points="72.266,148.461 72.292,148.439 72.33,148.421 72.374,148.414 72.399,148.414 72.427,148.416 
										72.452,148.421 72.479,148.429 72.511,148.439 72.538,148.446 72.569,148.461 72.602,148.479 72.629,148.492 
										72.657,148.513 72.684,148.532 72.711,148.556 72.739,148.574 72.759,148.6 72.785,148.622 72.803,148.647 72.841,148.695 
										72.859,148.742 72.87,148.768 72.874,148.782 72.87,148.826 72.863,148.857 72.841,148.885 72.805,148.901 72.761,148.91 
										72.737,148.914 72.709,148.906 72.679,148.906 72.646,148.897 72.618,148.889 72.585,148.877 72.553,148.863 
										72.523,148.845 72.492,148.832 72.459,148.813 72.432,148.793 72.403,148.77 72.379,148.75 72.352,148.724 72.33,148.698 
										72.31,148.675 72.277,148.625 72.259,148.574 72.253,148.56 72.248,148.532 72.253,148.492 									"/>
									<polygon fill="none" points="66.037,148.658 66.139,148.709 66.389,149.305 66.395,149.267 66.417,149.283 66.418,149.29 
										66.358,149.363 66.358,149.363 65.832,149.401 65.829,149.403 65.713,149.334 65.713,149.334 65.745,149.319 
										65.518,148.723 65.557,148.684 									"/>
									<polygon fill="none" points="64.589,148.505 64.589,148.505 65.474,148.805 									"/>
									<polygon fill="#FFFFFF" points="66.38,149.109 67.536,149.498 67.412,149.506 67.41,149.507 66.407,149.173 									"/>
									<g>
										<polygon fill="none" points="72.266,148.461 72.292,148.439 72.33,148.421 72.374,148.414 72.399,148.414 72.427,148.416 
											72.452,148.421 72.479,148.429 72.511,148.439 72.538,148.446 72.569,148.461 72.602,148.479 72.629,148.492 
											72.657,148.513 72.684,148.532 72.711,148.556 72.739,148.574 72.759,148.6 72.785,148.622 72.803,148.647 
											72.841,148.695 72.859,148.742 72.87,148.768 72.874,148.782 72.87,148.826 72.863,148.857 72.841,148.885 
											72.805,148.901 72.761,148.91 72.737,148.914 72.709,148.906 72.679,148.906 72.646,148.897 72.618,148.889 
											72.585,148.877 72.553,148.863 72.523,148.845 72.492,148.832 72.459,148.813 72.432,148.793 72.403,148.77 
											72.379,148.75 72.352,148.724 72.33,148.698 72.31,148.675 72.277,148.625 72.259,148.574 72.253,148.56 72.248,148.532 
											72.253,148.492 										"/>
										<polygon fill="none" points="66.037,148.658 66.139,148.709 66.38,149.283 66.343,149.33 65.825,149.368 65.849,149.374 
											65.832,149.401 65.829,149.403 65.713,149.334 65.713,149.334 65.745,149.319 65.518,148.723 65.557,148.684 										
											"/>
										<polygon fill="none" points="66.395,149.267 66.417,149.283 66.417,149.283 										"/>
										<polygon fill="none" points="64.589,148.505 64.589,148.505 65.474,148.805 										"/>
										<path fill="#FFFFFF" d="M62.865,148.503l1.468-0.046h0.031l0.027,0.012l0.039,0.013l0.035,0.013l0.031,0.02l0.024,0.017
											l0.013,0.022l0.011,0.011l0.583,1.769l0.009,0.028h0.027l0.031-0.004l0.033,0.004l0.042,0.003l0.04-0.003l0.037,0.005
											l0.035-0.013l0.038-0.011l0.033-0.019l0.038-0.044l0.031-0.042l0.029-0.034l0.029-0.037l0.025-0.034l0.023-0.029
											l0.022-0.033l0.026-0.032l0.022-0.033l0.023-0.031l0.024-0.031l0.025-0.027l0.029-0.029l0.031-0.03l0.031-0.031
											l0.04-0.036l-0.022-0.026l0.033-0.029l0.035-0.021l0.042-0.019l0.038-0.018l0.041-0.019l0.045-0.015l0.047-0.015
											l0.047-0.011l0.044-0.008l0.047-0.009l0.053-0.008l0.047-0.009l0.051-0.004l0.051-0.003l0.048-0.006l0.045-0.002
											l0.814-0.061l-1.002-0.334l-0.027-0.063l0,0l1.156,0.389l5.393-0.405l0.102-0.019l0.075-0.032l0.051-0.052l0.019-0.058
											v-0.061l0.002-0.006l-0.021-0.073l-0.033-0.072l-0.055-0.077l-0.029-0.036l-0.035-0.037l-0.035-0.036l-0.04-0.029
											l-0.042-0.034l-0.046-0.031l-0.049-0.029l-0.049-0.031l-0.053-0.023l-0.051-0.022l-0.057-0.02l-0.06-0.021l-0.057-0.007
											l-0.06-0.015l-0.061-0.006l-0.06,0.002l-0.816,0.029l-4.782,0.164h-0.053h-0.049h-0.055l-0.055-0.007l-0.055-0.004
											l-0.057-0.004l-0.051-0.007l-0.058-0.011l-0.057-0.008l-0.057-0.011l-0.055-0.013l-0.057-0.01l-0.057-0.018l-0.055-0.015
											l-0.053-0.015l-0.053-0.019l-0.077-0.025l-0.075-0.029l-0.066-0.021l-0.066-0.027l-0.057-0.031l-0.055-0.023l-0.057-0.031
											l-0.051-0.024l-0.049-0.03l-0.046-0.026l-0.045-0.025l-0.046-0.025l-0.047-0.025l-0.044-0.029l-0.042-0.019l-0.045-0.025
											l-0.044-0.021l-0.045-0.019l-0.046-0.017l-0.049-0.017l-0.055-0.018l-0.051-0.017l-0.057-0.006l-0.06-0.011l-0.062-0.007
											l-0.067-0.004l-0.073-0.004l-0.075,0.004h-0.079l-0.086,0.011l-0.091,0.007l-0.099,0.015l-0.075,0.012l-0.073,0.017
											l-0.073,0.018l-0.066,0.023l-0.073,0.026l-0.069,0.025l-0.064,0.029l-0.066,0.031l-0.064,0.03l-0.064,0.035l1.022,0.345
											l-1.376,0.048L62.865,148.503z M72.248,148.532l0.006-0.04l0.013-0.031l0.025-0.021l0.039-0.019l0.043-0.007h0.026
											l0.027,0.002l0.025,0.005l0.027,0.008l0.031,0.011l0.027,0.007l0.031,0.015l0.033,0.019l0.027,0.013l0.027,0.021
											l0.027,0.02l0.027,0.023l0.027,0.019l0.02,0.025l0.026,0.022l0.018,0.025l0.039,0.048l0.018,0.047l0.011,0.025
											l0.004,0.015l-0.004,0.044l-0.007,0.031l-0.021,0.027l-0.037,0.017l-0.044,0.009l-0.024,0.004l-0.027-0.008h-0.031
											l-0.033-0.009l-0.027-0.009l-0.033-0.012l-0.033-0.014l-0.029-0.019l-0.031-0.013l-0.033-0.019l-0.027-0.021l-0.029-0.023
											l-0.023-0.02l-0.028-0.026l-0.021-0.025l-0.021-0.023l-0.033-0.05l-0.018-0.051l-0.005-0.015L72.248,148.532z
											 M66.417,149.283L66.417,149.283l-0.022-0.017L66.417,149.283z M65.518,148.723l0.039-0.039l0.48-0.025l0.102,0.051
											l0.241,0.574l-0.037,0.047l-0.519,0.038l0.024,0.006l-0.017,0.027l-0.003,0.002l-0.115-0.069l0,0l0.031-0.015
											L65.518,148.723z"/>
									</g>
								</g>
							</g>
						</g>
					</g>
				</g>
				<polygon fill-rule="evenodd" clip-rule="evenodd" fill="#010201" points="71.921,148.901 71.892,148.885 71.886,148.857 
					71.93,148.847 71.938,148.874 71.912,148.855 71.921,148.901 71.921,148.901 				"/>
				<polygon fill-rule="evenodd" clip-rule="evenodd" fill="#010201" points="71.979,148.868 71.972,148.874 71.961,148.885 
					71.948,148.892 71.938,148.899 71.921,148.901 71.912,148.855 71.917,148.857 71.928,148.85 71.939,148.847 71.939,148.845 
					71.938,148.85 71.978,148.872 71.978,148.872 71.979,148.868 				"/>
				<polygon fill-rule="evenodd" clip-rule="evenodd" fill="#010201" points="71.859,148.6 71.862,148.602 71.883,148.625 
					71.91,148.653 71.934,148.684 71.958,148.715 71.979,148.75 71.988,148.79 71.99,148.834 71.978,148.872 71.938,148.85 
					71.946,148.826 71.943,148.799 71.938,148.768 71.917,148.742 71.897,148.709 71.875,148.684 71.848,148.658 71.828,148.633 
					71.83,148.635 71.859,148.6 71.859,148.6 				"/>
				<polygon fill-rule="evenodd" clip-rule="evenodd" fill="#010201" points="71.47,148.486 71.468,148.486 71.523,148.486 
					71.576,148.486 71.627,148.498 71.673,148.503 71.722,148.514 71.768,148.538 71.815,148.563 71.859,148.6 71.83,148.635 
					71.788,148.605 71.746,148.58 71.708,148.562 71.666,148.549 71.62,148.541 71.572,148.534 71.523,148.534 71.474,148.534 
					71.474,148.532 71.466,148.49 71.466,148.49 71.47,148.486 				"/>
				<polygon fill-rule="evenodd" clip-rule="evenodd" fill="#010201" points="67.358,148.706 67.377,148.695 71.466,148.49 
					71.474,148.532 67.382,148.738 67.4,148.728 67.358,148.706 67.358,148.706 				"/>
				<polygon fill-rule="evenodd" clip-rule="evenodd" fill="#010201" points="67.262,148.849 67.218,148.836 67.222,148.805 
					67.229,148.779 67.242,148.75 67.26,148.731 67.28,148.717 67.309,148.706 67.342,148.695 67.377,148.695 67.382,148.738 
					67.349,148.744 67.318,148.752 67.304,148.753 67.289,148.768 67.282,148.779 67.271,148.792 67.262,148.812 67.264,148.841 
					67.222,148.826 67.262,148.849 67.262,148.849 				"/>
				<g>
					<polygon fill="none" points="67.377,148.695 67.382,148.738 67.377,148.695 					"/>
					<g>
						<polygon fill="none" points="67.264,148.841 67.271,148.813 67.282,148.786 67.293,148.765 67.314,148.75 67.342,148.746 
							67.378,148.74 67.382,148.738 71.474,148.532 71.543,148.536 71.6,148.534 71.652,148.541 71.704,148.553 71.748,148.574 
							71.79,148.6 71.828,148.633 71.872,148.684 71.91,148.728 71.938,148.771 71.95,148.805 71.95,148.826 71.939,148.845 
							71.914,148.859 71.864,148.872 71.795,148.879 67.59,149.099 67.587,149.099 67.528,149.095 67.47,149.078 67.419,149.053 
							67.375,149.027 67.336,148.99 67.311,148.954 67.289,148.919 67.271,148.889 67.267,148.864 						"/>
						<g>
							<path fill="none" d="M67.271,148.813l-0.007,0.027l0.003,0.023l0.004,0.024l0.018,0.03l0.022,0.035l0.025,0.036l0.039,0.037
								l0.044,0.025l0.051,0.025l0.059,0.017l0.059,0.004h0.003l4.205-0.22l0.069-0.007l0.049-0.013l0.025-0.015l0.011-0.019v-0.021
								l-0.013-0.033l-0.027-0.044l-0.039-0.044l-0.044-0.051L71.79,148.6l-0.042-0.025l-0.044-0.021l-0.051-0.012l-0.053-0.007
								l-0.057,0.002l-0.069-0.004l-4.091,0.206l-0.004,0.002l-0.037,0.006l-0.027,0.004l-0.021,0.015l-0.011,0.021L67.271,148.813z
								 M67.328,148.786l4.093-0.206l0.001-0.006l0.055,0.004h0.051l0.051,0.011l0.047,0.004l0.047,0.015l0.044,0.021l0.045,0.025
								l0.048,0.037l0.018,0.018l0.015,0.019l0.017,0.019l0.011,0.015l0.018,0.02l0.015,0.022l0.011,0.02l0.013,0.019l0.002,0.006
								l-0.044,0.011v0.007l-0.009-0.02l-0.011-0.019l-0.017-0.017l-0.011-0.018l-0.013-0.013l-0.017-0.019l-0.015-0.019
								l-0.02-0.019h0.002l-0.037-0.028l-0.042-0.029l-0.04-0.015l-0.041-0.012l-0.045-0.009l-0.049-0.006l-0.051-0.003
								l-0.049,0.003l-4.089,0.203L67.328,148.786z"/>
							<g>
								<path fill="none" d="M67.271,148.813l-0.007,0.027l0.003,0.023l0.004,0.024l0.018,0.03l0.022,0.035l0.025,0.036l0.039,0.037
									l0.044,0.025l0.051,0.025l0.059,0.017l0.059,0.004h0.003l4.205-0.22l0.069-0.007l0.049-0.013l0.025-0.015l0.011-0.019
									v-0.021l-0.013-0.033l-0.027-0.044l-0.039-0.044l-0.044-0.051L71.79,148.6l-0.042-0.025l-0.044-0.021l-0.051-0.012
									l-0.053-0.007l-0.057,0.002l-0.069-0.004l-4.091,0.206l-0.004,0.002l-0.037,0.006l-0.027,0.004l-0.021,0.015l-0.011,0.021
									L67.271,148.813z"/>
								<g>
									<polygon fill="none" points="67.282,148.786 67.293,148.765 67.314,148.75 67.342,148.746 67.366,148.742 67.333,148.808 
										71.422,148.6 71.477,148.6 71.525,148.602 71.574,148.611 71.622,148.618 71.667,148.629 71.709,148.647 71.753,148.675 
										71.795,148.706 71.81,148.728 71.826,148.742 71.841,148.761 71.857,148.779 71.866,148.797 71.884,148.815 
										71.896,148.834 71.91,148.855 71.91,148.863 71.864,148.872 71.795,148.879 67.59,149.099 67.587,149.099 67.528,149.095 
										67.47,149.078 67.419,149.053 67.375,149.027 67.336,148.99 67.311,148.954 67.289,148.919 67.271,148.889 67.267,148.864 
										67.264,148.841 67.271,148.813 									"/>
									<polygon fill="#010201" points="71.896,148.834 71.884,148.815 71.866,148.797 71.857,148.779 71.841,148.761 
										71.826,148.742 71.81,148.728 71.795,148.706 71.753,148.675 71.709,148.647 71.667,148.629 71.622,148.618 
										71.574,148.611 71.525,148.602 71.477,148.6 71.422,148.6 67.333,148.808 67.366,148.742 67.378,148.74 67.382,148.738 
										71.474,148.532 71.543,148.536 71.6,148.534 71.652,148.541 71.704,148.553 71.748,148.574 71.79,148.6 71.828,148.633 
										71.872,148.684 71.91,148.728 71.938,148.771 71.95,148.805 71.95,148.826 71.939,148.845 71.914,148.859 71.91,148.863 
										71.91,148.855 									"/>
									<g>
										<polygon fill="none" points="67.272,148.808 67.276,148.808 67.296,148.808 67.333,148.808 67.366,148.742 67.378,148.74 
											67.382,148.738 71.474,148.532 71.543,148.536 71.6,148.534 71.652,148.541 71.704,148.553 71.748,148.574 71.79,148.6 
											71.828,148.633 71.872,148.684 71.91,148.728 71.938,148.771 71.95,148.805 71.95,148.826 71.939,148.845 71.914,148.859 
											71.91,148.863 71.864,148.872 71.795,148.879 67.59,149.099 67.587,149.099 67.528,149.095 67.47,149.078 67.419,149.053 
											67.375,149.027 67.336,148.99 67.311,148.954 67.289,148.919 67.271,148.889 67.267,148.864 67.264,148.841 
											67.271,148.813 										"/>
										<path fill="#010201" d="M67.218,148.836l0.004,0.038l0.009,0.029l0.011,0.036l0.027,0.048l0.033,0.036l0.044,0.04
											l0.053,0.035l0.057,0.023l0.062,0.019h0.073l4.203-0.216l0.083-0.007l0.056-0.012l0.041-0.032l0.022-0.037v-0.04
											l-0.015-0.047l-0.031-0.044l-0.044-0.055l-0.042-0.05l-0.045-0.04l-0.051-0.031l-0.047-0.021l-0.053-0.011l-0.062-0.012
											H71.54l-0.073,0.004l-4.089,0.205l0,0l-0.042,0.003l-0.046,0.015l-0.029,0.025l-0.02,0.029l-0.013,0.031L67.218,148.836z
											 M67.264,148.841l0.007-0.027l0.001-0.006h0.004h0.02h0.037l0.033-0.065l0.013-0.002l0.004-0.002l4.091-0.206l0.069,0.004
											l0.057-0.002l0.053,0.007l0.051,0.012l0.044,0.021l0.042,0.025l0.038,0.033l0.044,0.051l0.039,0.044l0.027,0.044
											l0.013,0.033v0.021l-0.011,0.019l-0.025,0.015l-0.003,0.004l-0.046,0.009l-0.069,0.007l-4.205,0.22h-0.003l-0.059-0.004
											l-0.059-0.017l-0.051-0.025l-0.044-0.025l-0.039-0.037l-0.025-0.036l-0.022-0.035l-0.018-0.03l-0.004-0.024
											L67.264,148.841z"/>
									</g>
								</g>
							</g>
						</g>
					</g>
				</g>
			</g>
		</g>
	</g>
	<g>
		<path fill="#EB242B" d="M121.839,105.867c0,0.232-0.104,0.461-0.314,0.684l-0.033,0.033l-1.842,1.955
			c-0.393,0.416-0.725,0.734-1,0.963c-0.275,0.225-0.469,0.338-0.584,0.338c-0.119,0-0.268-0.057-0.443-0.17s-0.289-0.23-0.344-0.35
			c-0.043-0.1-0.084-0.312-0.123-0.637c-0.037-0.324-0.059-0.676-0.059-1.055c0-0.205,0.088-0.396,0.258-0.572
			c0.172-0.176,0.359-0.262,0.564-0.262c0.199,0,0.314,0.18,0.354,0.543c0.002,0.043,0.006,0.072,0.008,0.094
			c0.029,0.279,0.068,0.473,0.111,0.582c0.041,0.111,0.098,0.166,0.17,0.166c0.027,0,0.084-0.033,0.166-0.098
			s0.18-0.154,0.291-0.268l1.895-1.889c0.16-0.16,0.303-0.281,0.428-0.361c0.125-0.084,0.229-0.125,0.316-0.125
			c0.064,0,0.113,0.025,0.139,0.076c0.029,0.049,0.043,0.135,0.043,0.25V105.867z"/>
	</g>
</g>
<g id="Your_Artwork_Here">
</g>
</svg>
