<?xml version="1.0" encoding="utf-8"?>
<!-- Generator: Adobe Illustrator 15.0.0, SVG Export Plug-In . SVG Version: 6.00 Build 0)  -->
<!DOCTYPE svg PUBLIC "-//W3C//DTD SVG 1.1//EN" "http://www.w3.org/Graphics/SVG/1.1/DTD/svg11.dtd">
<svg version="1.1" xmlns="http://www.w3.org/2000/svg" xmlns:xlink="http://www.w3.org/1999/xlink" x="0px" y="0px" width="90px"
	 height="90px" viewBox="0 0 90 90" enable-background="new 0 0 90 90" xml:space="preserve">
<g id="Outlines">
	<polygon fill="#757A7A" points="90,0 0,0 0,90 90,90 90,0 	"/>
	<path fill="#FFFFFF" stroke="#C92027" d="M81,45C81,25.117,64.883,9,45,9C25.118,9,9,25.117,9,45s16.118,36,36,36S81,64.883,81,45z
		 M18,45c0-14.912,12.088-27,27-27s27,12.088,27,27S59.912,72,45,72S18,59.912,18,45z"/>
</g>
<g id="Text">
	<g>
		<g>
			<path fill="#C82127" d="M6.408,3.366c0,0.173-0.079,0.338-0.232,0.504L6.151,3.894L4.787,5.329
				C4.497,5.635,4.25,5.871,4.049,6.038C3.843,6.203,3.698,6.286,3.615,6.286c-0.088,0-0.197-0.043-0.328-0.126
				C3.156,6.078,3.072,5.993,3.035,5.905C3.001,5.83,2.969,5.675,2.943,5.435C2.912,5.197,2.898,4.94,2.898,4.661
				c0-0.151,0.064-0.291,0.189-0.418c0.128-0.129,0.267-0.195,0.419-0.195c0.146,0,0.233,0.133,0.26,0.4
				c0.003,0.031,0.006,0.055,0.008,0.069c0.023,0.205,0.05,0.348,0.082,0.429c0.03,0.078,0.071,0.118,0.125,0.118
				c0.021,0,0.063-0.021,0.124-0.069c0.061-0.049,0.133-0.114,0.216-0.196l1.4-1.389c0.117-0.116,0.225-0.206,0.316-0.265
				C6.13,3.083,6.209,3.053,6.275,3.053c0.047,0,0.083,0.02,0.104,0.057c0.02,0.036,0.029,0.097,0.029,0.185V3.366z"/>
		</g>
		<text transform="matrix(0.9992 0 0 1 4.23 6.5527)"><tspan x="0" y="0" fill="#121111" font-family="'Arial-Black'" font-size="2.192">    </tspan><tspan x="2.924" y="0" fill="#121111" font-family="'Arial-Black'" font-size="3.504">Bleed Zone</tspan></text>
	</g>
	<g>
		<polygon fill="#DDDEDA" points="64.62,0.814 64.62,4.91 64.62,4.91 64.621,12.981 89.28,12.981 89.28,4.91 89.28,4.896 
			89.28,0.814 		"/>
		<text transform="matrix(1 0 0 1 81.2812 6.5703)"><tspan x="0" y="0" fill="#121110" font-family="'Arial-Black'" font-size="0.8929">PLEASE NOTE:</tspan><tspan x="-5.26" y="1.071" fill="#121110" font-family="'Arial-Black'" font-size="0.8929">Remove this layer before </tspan><tspan x="-4.764" y="2.143" fill="#121110" font-family="'Arial-Black'" font-size="0.8929">sending the file to print. </tspan><tspan x="-5.854" y="3.214" fill="#121110" font-family="'Arial-Black'" font-size="0.8929">This layer is provided as a </tspan><tspan x="-0.994" y="4.286" fill="#121110" font-family="'Arial-Black'" font-size="0.8929">guide for set up. </tspan><tspan x="-6.449" y="5.357" fill="#121110" font-family="'Arial-Black'" font-size="0.8929">DELETE LAYER AFTER USE.</tspan></text>
		<g>
			<path fill="#C82127" d="M81.275,5.724c0,0.061-0.028,0.121-0.082,0.178l-0.011,0.009l-0.484,0.511
				c-0.103,0.109-0.191,0.193-0.262,0.251c-0.073,0.058-0.124,0.089-0.154,0.089c-0.031,0-0.071-0.015-0.116-0.044
				c-0.048-0.029-0.077-0.06-0.092-0.092c-0.009-0.026-0.021-0.082-0.031-0.167c-0.011-0.083-0.016-0.177-0.016-0.275
				c0-0.055,0.023-0.103,0.067-0.148c0.046-0.047,0.095-0.069,0.15-0.069c0.05,0,0.081,0.047,0.092,0.141
				c0.001,0.011,0.001,0.02,0.003,0.024c0.007,0.073,0.017,0.125,0.029,0.153c0.01,0.028,0.024,0.043,0.043,0.043
				c0.009,0,0.023-0.008,0.045-0.026c0.021-0.018,0.045-0.041,0.076-0.069l0.5-0.495c0.041-0.041,0.078-0.073,0.111-0.094
				s0.061-0.032,0.085-0.032c0.015,0,0.028,0.006,0.034,0.02c0.009,0.012,0.012,0.035,0.012,0.066V5.724z"/>
		</g>
		<g>
			<circle fill-rule="evenodd" clip-rule="evenodd" cx="69.349" cy="8.859" r="3.569"/>
			<circle fill-rule="evenodd" clip-rule="evenodd" fill="#9EC43B" cx="69.352" cy="8.879" r="3.245"/>
			<g>
				<path d="M68.658,8.173c-0.046,0.395-0.081,0.716-0.103,0.958l-0.147,0.005c0.003-0.008,0.004-0.018,0.004-0.028
					c0-0.017-0.008-0.04-0.021-0.071c-0.012-0.028-0.02-0.048-0.022-0.056c-0.039,0.006-0.073,0.033-0.111,0.079
					c-0.033,0.048-0.065,0.073-0.095,0.073c-0.016-0.001-0.032-0.006-0.054-0.015c-0.025,0.018-0.061,0.026-0.102,0.024
					c-0.039-0.007-0.076-0.013-0.111-0.018c-0.003-0.051-0.05-0.094-0.15-0.132c0.001-0.021-0.009-0.05-0.03-0.089
					c-0.018-0.04-0.028-0.068-0.028-0.084c0-0.018,0.006-0.033,0.021-0.044c-0.001-0.006-0.019-0.043-0.051-0.112
					c-0.02-0.051-0.03-0.095-0.03-0.13c0-0.029,0.007-0.055,0.02-0.08c-0.018-0.172-0.025-0.318-0.021-0.439
					c0.002-0.19,0.027-0.364,0.079-0.521c-0.002-0.025-0.004-0.048-0.004-0.074c0.002-0.126,0.046-0.214,0.132-0.263l0.001-0.039
					c0.083-0.107,0.194-0.186,0.332-0.233c0.082,0.02,0.163,0.038,0.247,0.056c0.094,0.031,0.154,0.084,0.19,0.162
					c0.028,0.017,0.039,0.05,0.038,0.101c0,0.057,0.008,0.092,0.021,0.109L68.649,7.33c0.014,0.119,0.021,0.191,0.021,0.218
					c0,0.077-0.021,0.13-0.06,0.162c-0.015,0-0.052-0.014-0.109-0.039c-0.014,0.014-0.031,0.022-0.046,0.02
					c-0.009-0.001-0.024-0.003-0.044-0.013c-0.021-0.008-0.038-0.012-0.053-0.012c-0.011-0.001-0.021,0.002-0.031,0.005
					c0-0.16,0.004-0.277,0.017-0.355c-0.017-0.01-0.033-0.034-0.048-0.069c-0.019-0.037-0.038-0.059-0.064-0.062
					c-0.018,0.02-0.026,0.032-0.022,0.04l-0.055-0.02c-0.05,0.053-0.081,0.146-0.099,0.279c-0.017,0.152-0.037,0.254-0.062,0.304
					c0.023,0.022,0.033,0.054,0.031,0.094c0,0.014-0.003,0.038-0.006,0.07c-0.005,0.032-0.008,0.056-0.008,0.072
					c0,0.018,0.002,0.034,0.007,0.049l-0.04,0.035c0.016,0.068,0.025,0.156,0.028,0.26c-0.003,0.089-0.003,0.176-0.003,0.266
					c-0.001,0-0.019,0.001-0.05,0.002c-0.021,0-0.036,0.007-0.043,0.021c0.013-0.002,0.021-0.002,0.032-0.002
					c0.045,0,0.078,0.033,0.104,0.094c0.026,0.062,0.047,0.093,0.066,0.094c0.019,0,0.047-0.019,0.081-0.056
					c0.06-0.063,0.089-0.15,0.092-0.261c0-0.055-0.005-0.113-0.02-0.176c-0.012,0.009-0.02,0.028-0.02,0.059
					c-0.033,0-0.054,0.008-0.062,0.021c-0.014-0.004-0.019-0.014-0.017-0.033c0.002-0.026,0.003-0.04,0.003-0.042
					c0.024-0.007,0.034-0.019,0.038-0.033c0-0.006-0.006-0.017-0.014-0.034c-0.011-0.015-0.015-0.028-0.015-0.039
					c0-0.009,0.004-0.017,0.009-0.025l0.013-0.117c0.045,0.013,0.142,0.018,0.288,0.017c-0.003,0.009,0,0.023,0.017,0.041
					c0.015-0.015,0.029-0.022,0.045-0.021c0.014,0,0.031,0.005,0.056,0.016C68.63,8.168,68.649,8.173,68.658,8.173z"/>
				<path d="M69.783,9.211c-0.028-0.013-0.058-0.019-0.09-0.02c-0.029-0.001-0.065,0.005-0.115,0.017
					c-0.055,0.01-0.093,0.016-0.112,0.02c-0.021-0.044-0.036-0.102-0.045-0.176c-0.017-0.11-0.026-0.171-0.029-0.186
					c0.006-0.01,0.008-0.021,0.008-0.028c0-0.023-0.017-0.043-0.05-0.061c-0.037-0.018-0.052-0.031-0.052-0.043
					c0-0.011,0.02-0.029,0.061-0.053c-0.009-0.011-0.018-0.036-0.022-0.073c-0.004-0.038-0.014-0.062-0.027-0.075
					c-0.025,0.022-0.063,0.035-0.12,0.042c-0.056,0.006-0.092,0.015-0.109,0.027c0,0.157-0.024,0.262-0.078,0.315
					c-0.027-0.006-0.05,0.004-0.063,0.032c-0.021,0.034-0.04,0.053-0.055,0.061l0.019,0.021c-0.017,0.012-0.041,0.02-0.08,0.017
					c-0.055-0.005-0.084-0.005-0.088-0.005l-0.018-0.055l0.196-1.629c0.003-0.103,0.007-0.172,0.017-0.208
					c-0.003-0.091,0.019-0.146,0.063-0.168c0.026,0.019,0.062,0.029,0.104,0.03c0.033,0,0.088-0.007,0.16-0.021
					c0.074-0.016,0.123-0.022,0.152-0.021c0.095,0.001,0.139,0.073,0.128,0.213c-0.01,0.112,0.008,0.261,0.052,0.444
					c0.049,0.199,0.071,0.347,0.07,0.445c-0.002,0.03,0.007,0.093,0.005,0.122c-0.043,0.023-0.097,0.039-0.164,0.042
					c-0.059,0.004-0.117,0.007-0.178,0.01c-0.014-0.154-0.042-0.338-0.057-0.49c-0.019-0.18-0.043-0.329-0.073-0.447L69.101,8.17
					c-0.007,0.075,0.026,0.112,0.102,0.115c0.024,0,0.046-0.005,0.07-0.018c0.017-0.004,0.04,0.007,0.074,0.041
					c-0.001,0.062,0.01,0.099,0.036,0.112c0.033-0.021,0.075-0.042,0.128-0.061c0.046-0.019,0.094-0.034,0.138-0.05
					c0.025,0.036,0.042,0.087,0.047,0.157c0.01,0.095,0.016,0.151,0.021,0.168c0.003,0.038,0.019,0.121,0.046,0.248
					c0.02,0.1,0.03,0.182,0.03,0.245C69.791,9.158,69.789,9.185,69.783,9.211z"/>
				<path d="M71.173,7.775C71.17,7.78,71.17,7.815,71.17,7.88c0,0.052-0.006,0.091-0.019,0.118c-0.016,0.039-0.024,0.096-0.025,0.17
					c0,0.017,0,0.042,0.001,0.076c0,0.035-0.001,0.06-0.001,0.077c-0.002,0.125-0.022,0.217-0.064,0.274
					c0.006,0.033,0.007,0.065,0.007,0.097c-0.002,0.101-0.039,0.237-0.104,0.406c-0.018,0.007-0.035,0.008-0.047,0.008
					c-0.022,0-0.041-0.015-0.052-0.041c-0.009-0.029-0.02-0.054-0.029-0.078c0.008-0.154,0.003-0.38-0.011-0.676l0.02-0.018
					c-0.014-0.052-0.02-0.11-0.02-0.175c0.003-0.047,0.008-0.113,0.019-0.201c0.011-0.089,0.016-0.156,0.016-0.201
					c0-0.028,0-0.054-0.001-0.08c-0.069,0.165-0.119,0.446-0.145,0.842l-0.028,0.06c-0.009,0.021-0.024,0.03-0.05,0.033
					c-0.01-0.015-0.017-0.021-0.024-0.021c-0.007,0-0.017,0.006-0.032,0.021c-0.017,0.015-0.029,0.02-0.04,0.019l-0.038,0.036
					c0.018,0.022,0.055,0.024,0.114,0.008c0.047-0.013,0.07,0.004,0.071,0.053c0.001,0.04-0.011,0.095-0.032,0.162
					c-0.023,0.068-0.035,0.121-0.038,0.154c0,0.024,0.005,0.049,0.009,0.072l-0.208,0.034c-0.021-0.041-0.032-0.109-0.043-0.205
					c-0.012-0.096-0.025-0.165-0.044-0.206c0.013-0.012,0.018-0.027,0.018-0.044c0-0.015-0.004-0.035-0.016-0.063
					c-0.012-0.029-0.02-0.05-0.021-0.065c-0.001-0.021-0.009-0.074-0.021-0.159c-0.009-0.069-0.012-0.123-0.011-0.16
					c0-0.021,0.001-0.038,0.002-0.054c0-0.015-0.007-0.036-0.021-0.063c-0.016-0.028-0.024-0.048-0.022-0.06
					c0-0.01,0.002-0.018,0.01-0.026c-0.012-0.017-0.019-0.044-0.018-0.085c0.005-0.042-0.001-0.069-0.015-0.084
					c-0.03,0.077-0.046,0.181-0.049,0.314c-0.001,0.186-0.001,0.293-0.003,0.322l0.021,0.018l-0.021,0.017
					c0.014,0.073,0.021,0.167,0.02,0.278c-0.006,0.203-0.009,0.297-0.009,0.284c-0.027,0.025-0.067,0.039-0.12,0.036
					c-0.06,0-0.103,0.005-0.127,0.016c-0.024-0.043-0.037-0.1-0.033-0.171c0-0.055,0.009-0.121,0.027-0.2
					c-0.027-0.051-0.041-0.121-0.038-0.211c0-0.023,0.002-0.065,0.007-0.127c0.004-0.05,0.004-0.088,0.001-0.112
					c0.021-0.009,0.031-0.02,0.031-0.033c0-0.008-0.005-0.021-0.02-0.042c-0.013-0.018-0.018-0.033-0.018-0.042
					c0-0.013,0.009-0.024,0.025-0.036L69.843,7.17c0.039-0.026,0.102-0.039,0.188-0.036c0.093,0.003,0.161-0.002,0.194-0.016
					c0.004-0.004,0.012-0.006,0.02-0.006c0.011,0.001,0.019,0.005,0.028,0.016c0.01,0.008,0.018,0.012,0.022,0.012
					c0.007,0,0.015-0.004,0.021-0.017l0.058,0.055c0.02,0.071,0.038,0.208,0.054,0.411c0.017,0.175,0.044,0.309,0.08,0.397
					c0.05-0.177,0.091-0.327,0.123-0.447l0.066-0.477l0.467-0.011c0,0.027,0.008,0.165,0.021,0.248
					c0.01,0.07,0.016,0.128,0.016,0.172c-0.001,0.05-0.01,0.096-0.025,0.136c0.017,0.021,0.025,0.05,0.024,0.084
					C71.199,7.724,71.189,7.752,71.173,7.775z"/>
				<path d="M72.134,8.833V8.829c-0.015,0.027-0.021,0.056-0.022,0.091c-0.002,0.021-0.005,0.053,0,0.092c0,0.046,0,0.08,0,0.097
					c-0.017,0-0.082,0-0.193-0.003c-0.069,0-0.133,0.004-0.186,0.019l-0.056-0.062c-0.018,0.017-0.022,0.029-0.02,0.04
					c-0.009-0.003-0.055-0.003-0.139-0.003c-0.062,0-0.111-0.007-0.145-0.02c-0.032,0.033-0.07,0.033-0.113-0.003
					c-0.017-0.012-0.021-0.034-0.006-0.062c0.013-0.029,0.009-0.051-0.011-0.065c0.003-0.064,0.014-0.163,0.025-0.299
					c0.013-0.12,0.023-0.214,0.023-0.283c0.001-0.092-0.006-0.181-0.021-0.266c0.023-0.021,0.049-0.032,0.076-0.031
					c0.033,0,0.071,0.016,0.112,0.046c0.065,0.043,0.097,0.066,0.098,0.066l0.019,0.021c0.002-0.006,0.013-0.037,0.031-0.097
					c0.011-0.038,0.026-0.062,0.046-0.073l0.02,0.018c0.006-0.005,0.034-0.022,0.078-0.055c0.033-0.024,0.063-0.08,0.084-0.08
					c0.021,0.001,0.041,0.013,0.062,0.038c0.032,0.017,0.054,0.09,0.063,0.127c0.011,0.038,0.022,0.073,0.032,0.111
					c-0.092,0.003-0.165,0-0.224-0.007c-0.016,0.022-0.036,0.026-0.062,0.011s-0.046-0.013-0.056,0.006
					c0,0.037-0.002,0.102-0.005,0.197c-0.003,0.084-0.005,0.15-0.003,0.198c0.001,0.075,0.006,0.144,0.014,0.206
					c0.018,0,0.093,0.001,0.229,0.004C71.984,8.808,72.064,8.817,72.134,8.833z M72.14,7.386c-0.019,0.002-0.039,0.002-0.059,0.002
					c-0.048,0-0.111-0.008-0.185-0.021c-0.095-0.015-0.154-0.022-0.173-0.025c-0.029,0.041-0.044,0.102-0.045,0.177
					c-0.002,0.165-0.002,0.236,0,0.214c0.027,0.017,0.041,0.047,0.041,0.091c-0.002,0.061-0.003,0.092-0.002,0.093
					c-0.013,0.005-0.022,0.026-0.023,0.06c-0.021-0.008-0.043-0.024-0.069-0.05c-0.031-0.03-0.048,0.074-0.045,0.048L71.562,8.04
					l-0.02-0.02c-0.015,0.003-0.043-0.006-0.083-0.024c-0.038-0.02-0.065-0.037-0.079-0.054c0-0.031,0.005-0.05,0.014-0.054
					l-0.039-0.043l-0.018,0.028c-0.023-0.21-0.018-0.602,0.011-0.823c0.077,0.014,0.161,0.022,0.255,0.026
					c0.061,0.003,0.148,0.004,0.263,0.004c0.129,0,0.219,0,0.276,0c0.024,0.024,0.037,0.053,0.036,0.089
					c0,0.022-0.009,0.057-0.021,0.107C72.146,7.325,72.141,7.362,72.14,7.386z"/>
			</g>
			<g>
				<path d="M68.747,10.658v-0.003c0,0-0.005,0.045-0.015,0.133c-0.005,0.053-0.019,0.095-0.038,0.126l-0.014-0.01
					c-0.026,0.051-0.059,0.083-0.102,0.094c-0.018,0.021-0.048,0.033-0.086,0.036c-0.023,0-0.074-0.005-0.155-0.02
					c-0.041-0.025-0.062-0.039-0.065-0.041c-0.025-0.018-0.037-0.038-0.036-0.056c-0.025-0.025-0.056-0.069-0.07-0.124
					c-0.016-0.062-0.025-0.064-0.038-0.086c-0.023,0.018-0.033-0.018-0.044-0.039l0.011-0.009c-0.008-0.006-0.011-0.012-0.011-0.019
					c0-0.004,0.001-0.011,0.004-0.021c0.006-0.01,0.007-0.016,0.007-0.021c0-0.008-0.006-0.014-0.014-0.02
					c0.008-0.046,0.019-0.118,0.025-0.213c0.017-0.009,0.024-0.025,0.024-0.05c-0.001-0.026,0.001-0.042,0.01-0.05
					c0.039-0.077,0.102-0.129,0.187-0.155c0.004,0,0.028,0,0.069,0c0.029-0.002,0.052,0.001,0.063,0.007
					c0.028-0.005,0.052,0.002,0.079,0.019c0.023,0.017,0.045,0.033,0.068,0.051c0.042,0.045,0.062,0.096,0.065,0.154
					c0,0.019,0,0.039-0.003,0.059c-0.03,0-0.051,0.021-0.064,0.062l-0.119,0.012c-0.017-0.018-0.024-0.042-0.025-0.074
					c-0.001-0.01-0.001-0.025,0-0.045s0.001-0.036,0-0.046c-0.002-0.031-0.01-0.055-0.021-0.076l-0.037,0.022
					c-0.014-0.006-0.021-0.014-0.021-0.027c-0.001-0.003,0-0.008,0.001-0.016c0.001-0.007,0.001-0.012,0.001-0.015
					c0-0.012-0.011-0.021-0.033-0.022c-0.017,0.135-0.02,0.277-0.013,0.419c0.004,0.003,0.016,0.007,0.035,0.009
					c0.017,0.001,0.021,0.006,0.022,0.013c0,0.004-0.002,0.008-0.004,0.013l-0.01,0.009c0.008,0.01,0.009,0.024,0.01,0.042
					c0,0.01,0,0.024-0.001,0.043c-0.001,0.021-0.001,0.035-0.001,0.044c0.002,0.029,0.009,0.05,0.022,0.064
					c-0.001,0.022,0.008,0.036,0.027,0.043c0.01-0.003,0.02-0.006,0.03-0.007c0.037-0.001,0.062,0.019,0.076,0.061
					c0,0,0,0.008,0,0.023c0,0.005,0.004,0.011,0.01,0.014c0.019-0.009,0.023-0.027,0.023-0.051c0-0.03,0.005-0.047,0.012-0.056
					c-0.002-0.013-0.009-0.032-0.023-0.056c-0.014-0.025-0.021-0.045-0.021-0.059c0-0.016,0.004-0.03,0.013-0.044
					c-0.007-0.003-0.013-0.007-0.012-0.017c0.001-0.014,0.001-0.021,0.001-0.021C68.612,10.642,68.682,10.642,68.747,10.658z"/>
				<path d="M69.293,10.769L69.293,10.769c-0.007,0.013-0.01,0.034-0.007,0.059c0.003,0.036,0.005,0.054,0.005,0.055
					c-0.005,0.002-0.014-0.001-0.021-0.007c-0.015,0.005-0.022,0.013-0.021,0.026c0,0.002,0,0.005,0.005,0.009
					c0,0.006,0,0.008,0,0.01c0,0.01-0.005,0.018-0.009,0.022c-0.018-0.009-0.039-0.015-0.063-0.018
					c-0.027-0.002-0.052-0.005-0.073-0.007c0-0.121-0.019-0.24-0.051-0.354c0,0-0.001-0.012-0.002-0.037
					c0-0.018-0.004-0.03-0.012-0.037l-0.01,0.008c-0.003-0.001,0.002-0.004,0.01-0.009c0.006-0.005,0.012-0.01,0.011-0.016
					c0-0.004-0.001-0.006-0.003-0.008l-0.013-0.009c-0.02,0.007-0.03,0.023-0.029,0.05c0.002,0.018-0.005,0.03-0.02,0.038
					c0.006,0.003,0.009,0.008,0.009,0.015c0,0.004,0,0.009-0.001,0.015c-0.002,0.006-0.002,0.012-0.002,0.014
					c0,0.008,0.004,0.015,0.013,0.019c0,0.006,0.003,0.054,0.007,0.144c0.004,0.059,0.001,0.109-0.004,0.147l0.002,0.023
					c-0.008,0-0.017,0-0.026,0c-0.012,0.002-0.027,0.003-0.049,0.006c-0.02,0.001-0.036,0.003-0.046,0.005
					c-0.04,0.001-0.07-0.005-0.086-0.021l-0.018-0.498c-0.008-0.023-0.013-0.059-0.015-0.102l-0.006-0.096
					c-0.002-0.046-0.011-0.082-0.02-0.107c0.007-0.018,0.02-0.027,0.048-0.028c0.016-0.002,0.036,0.001,0.065,0.007
					c0.015-0.006,0.03-0.011,0.055-0.012c0.007-0.001,0.018-0.001,0.032-0.001s0.025-0.001,0.031-0.001
					c0.045-0.003,0.071-0.016,0.086-0.04c0.021-0.001,0.043,0.005,0.064,0.019c0.023,0.014,0.045,0.02,0.062,0.02
					c0.047,0.027,0.073,0.073,0.076,0.137c0.002,0.014-0.004,0.071-0.015,0.17l-0.082,0.07c0.016,0.024,0.031,0.079,0.05,0.163
					C69.236,10.684,69.26,10.736,69.293,10.769z M69.145,10.203l0.002,0.001c0.001,0.006,0.001-0.016-0.002-0.064
					c-0.003-0.025-0.012-0.041-0.025-0.052c-0.008,0.012,0.001,0.018-0.003,0.049c-0.005,0.03-0.023,0.022-0.034,0.035
					c-0.027,0-0.033,0.017-0.038-0.009c-0.015-0.043-0.025-0.04-0.025-0.041l-0.011,0.007c-0.004,0.004-0.01,0.008-0.014,0.014
					c-0.005,0.005-0.011,0.006-0.017,0.005c0,0.005-0.001,0.013-0.009,0.024c-0.004,0.011-0.007,0.02-0.007,0.024
					c0.001,0.008,0.006,0.013,0.02,0.019c-0.003,0.017-0.004,0.036-0.003,0.055c0.001,0.011,0.005,0.034,0.01,0.073
					c0.006,0.031,0.007,0.056,0.006,0.077c0.01,0,0.019,0,0.029,0c0.037-0.002,0.062-0.018,0.073-0.046
					c0.004-0.007,0.011-0.037,0.015-0.089C69.114,10.245,69.126,10.218,69.145,10.203z"/>
				<path d="M69.921,10.962c-0.016-0.005-0.033-0.007-0.052-0.005c-0.015,0-0.033,0.004-0.061,0.011
					c-0.03,0.008-0.05,0.012-0.062,0.013c-0.013-0.018-0.022-0.043-0.03-0.075c-0.013-0.048-0.021-0.075-0.023-0.081
					c0.002-0.005,0.003-0.009,0.003-0.014c-0.001-0.01-0.01-0.018-0.03-0.024c-0.019-0.006-0.028-0.012-0.028-0.016
					c0-0.006,0.01-0.014,0.029-0.027c-0.004-0.003-0.008-0.016-0.012-0.031c-0.006-0.017-0.01-0.028-0.018-0.032
					c-0.015,0.01-0.036,0.019-0.064,0.024c-0.029,0.004-0.05,0.009-0.06,0.016c0.005,0.069,0,0.19-0.028,0.215
					c-0.015-0.001-0.025,0.004-0.033,0.018c-0.011,0.017-0.02,0.024-0.025,0.028l0.009,0.008C69.427,10.998,69.414,11,69.395,11
					c-0.032,0-0.049,0.001-0.053,0.002l-0.01-0.025l0.048-0.798c-0.003-0.045-0.003-0.076,0.001-0.092
					c-0.006-0.041,0.004-0.066,0.029-0.077c0.015,0.007,0.035,0.009,0.057,0.008c0.019,0,0.048-0.005,0.088-0.016
					c0.039-0.008,0.065-0.013,0.083-0.014c0.053-0.003,0.08,0.026,0.078,0.088c-0.001,0.05,0.012,0.114,0.044,0.193
					c0.032,0.085,0.049,0.151,0.051,0.194c0.001,0.012,0.021,0.042,0.021,0.055c-0.022,0.012-0.053,0.02-0.091,0.026
					c-0.032,0.003-0.063,0.007-0.096,0.01c-0.015-0.067-0.045-0.148-0.059-0.214c-0.018-0.079-0.034-0.144-0.055-0.195l-0.021,0.384
					c-0.002,0.033,0.018,0.048,0.058,0.046c0.015-0.001,0.026-0.005,0.04-0.011c0.009-0.003,0.021,0.002,0.041,0.014
					c0,0.028,0.01,0.045,0.024,0.049c0.017-0.012,0.041-0.021,0.066-0.032c0.027-0.01,0.052-0.019,0.072-0.027
					c0.019,0.015,0.028,0.037,0.036,0.066c0.006,0.042,0.011,0.066,0.012,0.074c0.005,0.017,0.018,0.053,0.037,0.108
					c0.017,0.044,0.022,0.079,0.025,0.106C69.923,10.938,69.923,10.949,69.921,10.962z"/>
				<path d="M70.377,10.054L70.377,10.054c-0.012,0.02-0.029,0.023-0.048,0.013c-0.006-0.001-0.026,0-0.061,0.002
					c-0.029,0.001-0.052,0-0.064-0.003c-0.003,0-0.01,0.002-0.02,0.01c-0.009,0.007-0.018,0.008-0.02,0.008
					c-0.01,0.001-0.011-0.005-0.013-0.016c0-0.001-0.001-0.01-0.001-0.022c0-0.01-0.005-0.016-0.013-0.019l-0.021,0.016
					c-0.008,0.006-0.011,0.01-0.01,0.015c0,0.005,0.004,0.011,0.011,0.02c0.008,0.008,0.012,0.014,0.013,0.017
					c0.001,0.003,0.003,0.042,0.009,0.12c0,0.048,0.011,0.087,0.024,0.118c0.004-0.005,0.017-0.008,0.03-0.008
					c0.018,0,0.029-0.004,0.033-0.011c0.011,0.009,0.027,0.009,0.052,0.002c0.024-0.009,0.041-0.005,0.054,0.007L70.33,10.44
					c-0.011-0.001-0.024-0.006-0.043-0.016c-0.007,0.019-0.017,0.029-0.034,0.035c-0.007,0-0.025,0.004-0.058,0.006
					c0.002-0.006-0.001-0.011-0.012-0.016c-0.03,0.014-0.043,0.047-0.034,0.101c0.001-0.005,0.002,0.004,0.003,0.028
					c0.002,0.015-0.002,0.026-0.008,0.033c-0.021,0.002-0.044-0.002-0.074-0.013c-0.027-0.012-0.049-0.017-0.063-0.017
					c-0.004,0.002-0.009,0.002-0.013,0.003l-0.03,0.01l-0.049-0.538l-0.006-0.102c0.04-0.015,0.092-0.021,0.153-0.026
					c0.046-0.003,0.107-0.001,0.184,0.001c0.007-0.01,0.015,0.003,0.025,0.003c0.007,0,0.016,0,0.026,0.001
					c0.012,0.001,0.019,0.002,0.023,0.001c0.008,0,0.014-0.001,0.021-0.002l0.006-0.009c0.022,0.006,0.035,0.019,0.037,0.035
					c0,0.007-0.002,0.02-0.009,0.037c-0.003,0.018-0.006,0.031-0.004,0.04C70.372,10.042,70.374,10.049,70.377,10.054z
					 M70.185,10.952c-0.013,0.006-0.03,0.01-0.055,0.011c-0.032,0.003-0.051,0.004-0.059,0.004c-0.003-0.002-0.006,0-0.015-0.027
					c-0.005-0.02-0.015-0.028-0.035-0.027c-0.004,0.001-0.009,0.001-0.017,0.003l-0.03,0.001l-0.015-0.273
					c0.015-0.008,0.036-0.013,0.062-0.013c0.023-0.001,0.044,0,0.061,0.005c-0.001,0.01,0.014,0.016,0.042,0.013l0.031-0.001
					C70.176,10.726,70.185,10.863,70.185,10.952z"/>
				<path d="M71.038,10.078L71.038,10.078c-0.012,0.001-0.064,0.004-0.101,0.008c-0.034,0.004-0.059,0.005-0.075,0.003
					c-0.017,0.01-0.021,0.025-0.018,0.043l0.012,0.005c-0.011,0.009-0.013,0.014-0.011,0.019l0.011,0.008
					c-0.005,0.158-0.005,0.245-0.002,0.263c0.002,0.042,0.005,0.078,0.012,0.109c-0.006,0.02-0.007,0.043-0.007,0.069
					c0.001,0.017,0.006,0.044,0.015,0.08c0.006,0.037,0.017,0.156,0.017,0.177c0.001,0.013,0.001,0.027,0,0.039
					c-0.016,0.006-0.034,0.011-0.049,0.012c-0.032,0.001-0.063-0.005-0.099-0.019c-0.004,0.003-0.009,0.007-0.014,0.012
					c-0.004,0.004-0.005,0.009-0.003,0.014c-0.011,0.002-0.028-0.001-0.044-0.014c-0.015-0.159-0.04-0.484-0.083-0.814
					c-0.015,0.013-0.044,0.002-0.071,0.006c-0.035,0.003-0.067-0.002-0.079,0.005c-0.017-0.019-0.016-0.025-0.016-0.052
					c-0.001-0.029-0.012-0.099-0.005-0.128c0.004-0.006,0.064-0.002,0.102-0.006c0.049-0.002,0.06,0.009,0.062,0.009
					c0.005-0.007,0.029-0.003,0.047-0.004c0.013,0.005,0.022-0.005,0.022,0.002c0.002,0.005,0,0.04-0.005,0.05
					c-0.001,0.008-0.003,0.017-0.003,0.021c0,0.012,0.008-0.004,0.028,0.001c0.017,0,0.037-0.001,0.059-0.002
					c0.023,0.002,0.05-0.006,0.049,0.014c0.004-0.005,0.007,0.004,0.041-0.009c0.023-0.012,0.04-0.041,0.034-0.06
					c-0.003-0.011,0.011-0.019,0.001-0.014c0.014-0.007,0.003-0.002,0.015-0.007c0.042,0.004,0.065,0,0.072-0.001
					c0.017-0.001,0.059,0.01,0.07,0.003c0.006,0.016,0.014,0.064,0.014,0.091C71.038,10.053,71.038,10.075,71.038,10.078z"/>
				<path d="M71.574,10.634v-0.002c-0.004,0.013-0.008,0.026-0.008,0.042c-0.002,0.01,0,0.023,0.003,0.041
					c0.002,0.02,0.003,0.035,0.003,0.043c-0.01,0-0.044,0.002-0.106,0.005c-0.036,0.003-0.072,0.008-0.101,0.016l-0.031-0.024
					c-0.009,0.007-0.012,0.012-0.011,0.017c-0.006,0-0.03,0-0.075,0.004c-0.034,0.003-0.062,0.001-0.082-0.004
					c-0.015,0.017-0.035,0.019-0.062,0.004c-0.009-0.004-0.011-0.014-0.004-0.026c0.004-0.013,0.003-0.022-0.011-0.028
					c0-0.03,0.002-0.074,0.005-0.133c0.006-0.053,0.006-0.095,0.005-0.125c-0.004-0.04-0.011-0.079-0.02-0.118
					c0.009-0.009,0.023-0.015,0.04-0.016c0.016-0.001,0.036,0.004,0.064,0.016c0.034,0.018,0.052,0.026,0.052,0.026l0.012,0.008
					c0.001-0.002,0.004-0.016,0.015-0.043c0.005-0.017,0.01-0.029,0.021-0.034l0.013,0.006c0.003-0.002,0.018-0.011,0.04-0.027
					c0.018-0.012,0.032-0.055,0.044-0.056c0.012,0,0.022,0.005,0.034,0.015c0.019,0.006,0.036,0.056,0.042,0.071
					c0.005,0.017,0.013,0.032,0.02,0.048c-0.05,0.004-0.091,0.007-0.122,0.005c-0.007,0.01-0.019,0.013-0.032,0.007
					c-0.016-0.006-0.025-0.005-0.032,0.005c0.002,0.016,0.004,0.043,0.005,0.085c0.002,0.037,0.002,0.067,0.005,0.088
					c0.004,0.032,0.008,0.062,0.015,0.09c0.01,0,0.052-0.003,0.127-0.007C71.491,10.629,71.536,10.63,71.574,10.634z M71.525,10.007
					c-0.012,0.001-0.023,0.002-0.035,0.003c-0.024,0.002-0.059,0-0.102-0.002c-0.053-0.002-0.083-0.003-0.095-0.003
					c-0.015,0.018-0.017,0.034-0.015,0.068c0.004,0.072,0.008,0.104,0.008,0.094c0.017,0.006,0.025,0.02,0.026,0.039
					c0,0.026,0,0.041,0.001,0.042c-0.008,0.003-0.011,0.012-0.01,0.028c-0.012-0.003-0.025-0.009-0.037-0.02
					c-0.021-0.012-0.027,0.031-0.027,0.02l-0.007,0.027l-0.011-0.006c-0.007,0-0.022-0.001-0.046-0.009
					c-0.022-0.007-0.035-0.013-0.046-0.02c0-0.014,0.001-0.022,0.006-0.024l-0.022-0.019l-0.01,0.014
					c-0.019-0.093-0.031-0.253-0.024-0.352c0.042,0.003,0.092-0.004,0.141-0.006c0.037-0.001,0.083-0.004,0.146-0.009
					c0.07-0.005,0.122-0.007,0.151-0.01c0.014,0.01,0.022,0.021,0.023,0.038c0,0.011-0.001,0.026-0.009,0.048
					C71.529,9.97,71.524,9.996,71.525,10.007z"/>
				<path d="M72.125,10.539L72.125,10.539c-0.008,0.014-0.011,0.034-0.008,0.059c0.002,0.037,0.005,0.054,0.005,0.056
					c-0.005,0.002-0.011-0.001-0.021-0.007c-0.017,0.005-0.02,0.013-0.02,0.027c0,0.001,0,0.004,0.001,0.009c0,0.005,0,0.007,0,0.01
					c0,0.009-0.001,0.017-0.007,0.021c-0.015-0.009-0.038-0.014-0.065-0.016c-0.024-0.003-0.05-0.005-0.074-0.008
					c0-0.121-0.017-0.239-0.048-0.355c0,0.001,0-0.011-0.001-0.035c0-0.019-0.005-0.031-0.014-0.039l-0.012,0.009
					c0-0.002,0.006-0.003,0.012-0.009c0.009-0.005,0.013-0.012,0.011-0.016c0-0.003-0.001-0.005-0.002-0.008l-0.011-0.009
					c-0.021,0.006-0.031,0.023-0.03,0.05c0.001,0.019-0.004,0.03-0.019,0.037c0.004,0.004,0.008,0.009,0.01,0.014
					c0,0.005-0.002,0.01-0.003,0.015c-0.003,0.008-0.003,0.012-0.003,0.015c0,0.009,0.007,0.016,0.014,0.021
					c0,0.005,0.002,0.052,0.006,0.144c0.006,0.058,0.005,0.106-0.004,0.146l0.003,0.023c-0.008,0-0.019,0-0.027,0
					c-0.012,0-0.026,0.001-0.047,0.005c-0.021,0.001-0.037,0.004-0.047,0.004c-0.04,0.003-0.069-0.004-0.085-0.019l-0.02-0.498
					c-0.006-0.024-0.013-0.059-0.016-0.102l-0.005-0.096c-0.005-0.046-0.009-0.083-0.018-0.108c0.003-0.018,0.019-0.026,0.043-0.028
					c0.02,0,0.039,0.002,0.067,0.007c0.015-0.007,0.032-0.011,0.053-0.013c0.01,0,0.021,0,0.033,0c0.017,0,0.026-0.002,0.034-0.002
					c0.042-0.002,0.071-0.015,0.087-0.039c0.02,0,0.039,0.005,0.063,0.019c0.023,0.013,0.044,0.019,0.062,0.02
					c0.046,0.028,0.071,0.073,0.076,0.137c0,0.015-0.006,0.072-0.019,0.168l-0.079,0.071c0.013,0.025,0.028,0.08,0.048,0.164
					C72.067,10.455,72.092,10.506,72.125,10.539z M71.977,9.973l0.001,0.002c0.001,0.004,0-0.017-0.002-0.065
					c-0.001-0.025-0.011-0.042-0.026-0.052C71.942,9.87,71.938,9.84,71.934,9.87c-0.004,0.029-0.012,0.051-0.021,0.064
					c-0.027,0-0.033-0.016-0.052-0.04c-0.01-0.014-0.016-0.001-0.016-0.003L71.84,9.898c-0.004,0.003-0.007,0.007-0.014,0.014
					c-0.004,0.004-0.012,0.006-0.018,0.004c0,0.005-0.003,0.014-0.007,0.025c-0.007,0.011-0.008,0.019-0.008,0.023
					c0,0.008,0.007,0.014,0.019,0.018c-0.003,0.019-0.003,0.038-0.001,0.056c0,0.012,0.003,0.036,0.006,0.073
					c0.006,0.031,0.009,0.057,0.008,0.078c0.011,0.001,0.02,0.001,0.027-0.001c0.038-0.001,0.065-0.016,0.076-0.045
					c0.003-0.009,0.007-0.038,0.014-0.089C71.946,10.016,71.958,9.989,71.977,9.973z"/>
			</g>
			<g>
				<path d="M66.64,8.248L66.64,8.248c-0.004,0.046-0.007,0.078-0.004,0.096c-0.008,0.002-0.017,0.002-0.027,0.001
					c-0.016-0.004-0.024-0.004-0.026-0.004c-0.006,0-0.011,0.003-0.016,0.007c-0.009-0.007-0.016-0.008-0.019-0.007
					c-0.007,0.005-0.011,0.013-0.011,0.022c0,0.004,0.001,0.011,0.005,0.021c0.002,0.01,0.002,0.016,0.003,0.021
					c0.001,0.008-0.001,0.017-0.003,0.03c-0.003,0.015-0.005,0.025-0.004,0.035c0.001,0.009,0.004,0.027,0.006,0.048
					c0.005,0.021,0.006,0.038,0.007,0.049c-0.005,0.023-0.007,0.045-0.005,0.068c0,0.028,0.009,0.065,0.023,0.109
					c0.003,0.001,0.006,0.001,0.008,0.001c0.005-0.001,0.011-0.004,0.018-0.013c0.011-0.006,0.015-0.011,0.021-0.011
					c0.004,0,0.009,0,0.013,0.003c0.016,0.047,0.022,0.076,0.023,0.09c0,0.006,0,0.013,0,0.021
					c-0.022,0.004-0.036-0.002-0.044-0.022c0.001-0.006-0.002-0.012-0.012-0.018l-0.023,0.025c0.022,0.005,0.034,0.021,0.03,0.055
					c-0.006,0.006-0.01,0.01-0.017,0.01c-0.014,0-0.021,0-0.02,0l-0.021-0.036l-0.007,0.01c-0.007-0.017-0.016-0.025-0.024-0.024
					c-0.003,0-0.013,0.003-0.023,0.011c-0.015,0.009-0.025,0.013-0.031,0.013c-0.007,0.001-0.014-0.001-0.02-0.005
					c0-0.009-0.002-0.019-0.003-0.03c-0.003-0.01-0.008-0.017-0.017-0.02c-0.001-0.024,0-0.09,0.004-0.196
					c0.001-0.081,0-0.146-0.005-0.197c-0.002-0.021-0.003-0.042-0.004-0.061c-0.004-0.007-0.008-0.01-0.014-0.009
					c-0.003,0-0.007,0.002-0.014,0.01c-0.005,0.006-0.013,0.009-0.017,0.009c-0.002-0.008-0.005-0.02-0.012-0.039
					s-0.01-0.031-0.011-0.04c0-0.013,0.004-0.024,0.016-0.035l0.029,0.007c0.009-0.016,0.016-0.042,0.012-0.081
					c0-0.008-0.002-0.019-0.003-0.034c-0.001-0.017-0.002-0.027-0.004-0.034c-0.002-0.062,0.018-0.095,0.059-0.097
					c0.016,0,0.034,0.001,0.056,0.008l0.028,0.008c0.001,0.01,0.002,0.021,0.002,0.032c0.002,0.016,0,0.039-0.001,0.067
					c-0.001,0.031-0.001,0.053-0.001,0.064c0,0.023,0.003,0.042,0.011,0.059c0.006,0,0.017-0.004,0.029-0.01
					c0.013-0.007,0.025-0.011,0.03-0.011C66.624,8.229,66.633,8.234,66.64,8.248z M66.557,8.332l-0.002-0.027l-0.009-0.008
					L66.557,8.332z"/>
				<path d="M66.972,8.159L66.972,8.159c-0.002,0.022-0.005,0.043-0.009,0.067c-0.004,0.023-0.012,0.044-0.021,0.059
					c-0.003-0.001-0.012-0.005-0.029-0.015c-0.013-0.006-0.025-0.011-0.034-0.007c-0.006,0.045-0.011,0.111-0.013,0.192
					c0,0.102-0.001,0.167-0.003,0.188c-0.011,0-0.02,0.002-0.025,0.011c-0.008,0.01-0.013,0.018-0.018,0.027
					c-0.003,0.005-0.003,0.009-0.003,0.015c0,0.006,0.006,0.013,0.016,0.017c0.012,0.007,0.016,0.014,0.017,0.021
					c-0.003,0.017-0.014,0.026-0.029,0.027c-0.007,0-0.02-0.003-0.037-0.007c-0.018-0.005-0.031-0.008-0.04-0.007l-0.017-0.345
					c0.008-0.008,0.011-0.015,0.011-0.017l-0.011-0.007c0-0.015,0.003-0.087,0.003-0.216c0-0.089,0.003-0.16,0.009-0.214
					c-0.001,0,0.025-0.001,0.074-0.005c0.032-0.001,0.052,0.008,0.062,0.027c0,0.017-0.001,0.046-0.006,0.089
					c-0.003,0.038-0.005,0.068-0.004,0.089c0.001,0.025,0.006,0.049,0.013,0.069C66.902,8.182,66.935,8.162,66.972,8.159z
					 M67.09,8.233c0.004,0.031,0.006,0.062,0.008,0.093C67.105,8.46,67.1,8.604,67.09,8.755c-0.011,0.01-0.028,0.013-0.054,0.006
					c-0.024-0.004-0.041-0.002-0.053,0.007c-0.012-0.018-0.021-0.05-0.022-0.097c-0.002-0.067-0.006-0.104-0.006-0.104
					c-0.002-0.169,0.015-0.305,0.05-0.41C67.047,8.168,67.076,8.193,67.09,8.233z"/>
				<path d="M67.514,8.408c-0.004,0.011-0.008,0.022-0.008,0.034c0.002,0.013,0.002,0.024,0.004,0.036
					c-0.002,0.01-0.005,0.019-0.01,0.029c-0.006-0.003-0.014-0.003-0.019-0.003c-0.006,0-0.011,0.003-0.016,0.006
					c-0.007,0.004-0.012,0.006-0.014,0.006c-0.004,0-0.013-0.002-0.019-0.005L67.376,8.43c0.001,0.023,0.008,0.045,0.017,0.062
					c0.005,0.009,0.009,0.019,0.013,0.027c-0.03,0.007-0.05,0.007-0.056,0.003l-0.007,0.01l-0.021-0.024
					c-0.015,0.019-0.018,0.045-0.009,0.081c0.009,0.039,0.009,0.067,0.001,0.083c0.014,0.018,0.027,0.028,0.043,0.027
					c0.009,0,0.015-0.004,0.019-0.009c0.009-0.02,0.017-0.04,0.025-0.06c0.011-0.023,0.022-0.036,0.037-0.036
					c0.014-0.001,0.027,0.004,0.043,0.017c0.016,0.006,0.024,0.016,0.026,0.026c0,0.006-0.006,0.016-0.012,0.031
					c-0.011,0.016-0.015,0.027-0.014,0.034c0,0.003,0.001,0.005,0.001,0.008c-0.012,0.008-0.021,0.022-0.03,0.039
					c-0.011,0.019-0.021,0.03-0.035,0.036c-0.015,0.013-0.026,0.02-0.037,0.021c-0.009,0-0.023-0.007-0.039-0.021
					c-0.02-0.015-0.035-0.021-0.052-0.021c-0.004-0.015-0.02-0.028-0.046-0.046c-0.023-0.017-0.041-0.037-0.046-0.055
					c0,0.001,0-0.006-0.002-0.02c0-0.008-0.004-0.014-0.009-0.016l0.009-0.009c-0.012,0-0.018-0.007-0.021-0.021
					c-0.001-0.002-0.001-0.005-0.001-0.009c0.001-0.004,0.001-0.009,0.001-0.011c-0.001-0.009-0.002-0.015-0.009-0.02l-0.002-0.042
					c0-0.022-0.005-0.038-0.014-0.046c0.009-0.052,0.016-0.104,0.023-0.154c0.015-0.06,0.032-0.09,0.059-0.091
					c0.006,0,0.009,0.001,0.013,0.002c0.024-0.022,0.053-0.036,0.083-0.037c0.037-0.002,0.076,0.009,0.121,0.032
					C67.484,8.28,67.505,8.341,67.514,8.408z M67.348,8.274l-0.009,0.012c-0.004,0-0.011-0.002-0.02-0.008l0.001,0.026
					c-0.012,0.014-0.016,0.035-0.014,0.062c0.002,0.048,0.004,0.071,0.004,0.071l0.036-0.001c0.016-0.009,0.025-0.026,0.023-0.047
					c-0.001-0.012-0.004-0.03-0.013-0.057C67.351,8.307,67.348,8.287,67.348,8.274z"/>
			</g>
			<g>
				<polygon fill-rule="evenodd" clip-rule="evenodd" points="67.797,9.624 67.834,9.645 67.955,9.325 67.913,9.311 67.793,9.63 
					67.826,9.653 67.797,9.624 67.797,9.624 				"/>
				<polygon fill-rule="evenodd" clip-rule="evenodd" points="67.851,9.58 67.837,9.585 67.797,9.624 67.826,9.653 67.865,9.613 
					67.851,9.621 67.851,9.58 67.851,9.58 				"/>
				<polygon fill-rule="evenodd" clip-rule="evenodd" points="68.146,9.577 68.162,9.563 67.851,9.58 67.851,9.621 68.163,9.605 
					68.183,9.59 68.146,9.577 68.146,9.577 68.146,9.577 				"/>
				<polygon fill-rule="evenodd" clip-rule="evenodd" points="68.286,9.283 68.266,9.257 68.146,9.577 68.183,9.59 68.307,9.271 
					68.283,9.244 68.286,9.283 68.286,9.283 68.286,9.283 				"/>
				<polygon fill-rule="evenodd" clip-rule="evenodd" points="67.989,9.294 67.972,9.301 68.286,9.283 68.283,9.244 67.972,9.259 
					67.958,9.266 67.989,9.294 67.989,9.294 67.989,9.294 				"/>
				<polygon fill-rule="evenodd" clip-rule="evenodd" points="67.955,9.325 67.951,9.331 67.989,9.294 67.958,9.266 67.918,9.304 
					67.913,9.311 67.955,9.325 67.955,9.325 67.955,9.325 				"/>
				<polygon fill-rule="evenodd" clip-rule="evenodd" points="68.214,9.615 68.242,9.603 68.173,9.565 68.152,9.604 68.222,9.641 
					68.253,9.629 68.211,9.614 68.211,9.614 68.214,9.615 				"/>
				<polygon fill-rule="evenodd" clip-rule="evenodd" points="68.344,9.319 68.333,9.295 68.211,9.614 68.253,9.629 68.374,9.308 
					68.363,9.283 68.344,9.319 68.344,9.319 				"/>
				<polygon fill-rule="evenodd" clip-rule="evenodd" points="68.307,9.271 68.276,9.283 68.344,9.319 68.363,9.283 68.297,9.246 
					68.266,9.257 68.307,9.271 68.307,9.271 				"/>
				<polygon points="67.936,9.318 67.932,9.318 67.971,9.279 68.264,9.265 68.266,9.257 68.286,9.264 68.307,9.271 68.303,9.273 
					68.354,9.302 68.374,9.308 68.366,9.329 68.508,9.666 68.39,9.986 68.232,9.622 68.232,9.622 68.211,9.63 68.211,9.614 
					68.212,9.61 68.163,9.584 68.152,9.604 68.147,9.584 67.851,9.599 67.812,9.637 				"/>
				<polygon fill-rule="evenodd" clip-rule="evenodd" points="68.369,9.979 68.408,9.978 68.253,9.613 68.211,9.63 68.369,9.995 
					68.407,9.993 68.366,9.979 68.366,9.979 68.369,9.979 				"/>
				<polygon fill-rule="evenodd" clip-rule="evenodd" points="68.49,9.675 68.488,9.66 68.366,9.979 68.407,9.993 68.529,9.672 
					68.525,9.658 68.49,9.675 68.49,9.675 				"/>
				<polygon fill-rule="evenodd" clip-rule="evenodd" points="68.374,9.308 68.333,9.31 68.49,9.675 68.525,9.658 68.373,9.292 
					68.333,9.295 68.374,9.308 68.374,9.308 				"/>
				<polygon fill-rule="evenodd" clip-rule="evenodd" fill="#FFFFFF" points="68.363,9.392 68.382,9.429 68.39,9.467 68.385,9.505 
					68.374,9.544 68.355,9.583 68.327,9.617 68.296,9.648 68.254,9.675 68.232,9.686 68.209,9.694 68.183,9.7 68.161,9.704 
					68.139,9.707 68.114,9.709 68.089,9.707 68.068,9.705 68.049,9.702 68.026,9.694 68.006,9.686 67.989,9.675 67.972,9.663 
					67.955,9.651 67.941,9.635 67.929,9.619 67.912,9.581 67.905,9.542 67.905,9.502 67.921,9.465 67.936,9.427 67.961,9.392 
					67.998,9.361 68.039,9.333 68.06,9.323 68.085,9.314 68.106,9.309 68.131,9.304 68.155,9.302 68.18,9.299 68.2,9.302 
					68.224,9.303 68.244,9.31 68.267,9.318 68.285,9.323 68.307,9.335 68.322,9.343 68.338,9.357 68.348,9.375 68.363,9.392 
					68.363,9.392 68.363,9.392 				"/>
				<polygon fill-rule="evenodd" clip-rule="evenodd" points="68.38,9.453 68.396,9.491 68.401,9.533 68.398,9.57 68.39,9.608 
					68.373,9.646 68.344,9.682 68.313,9.712 68.268,9.738 68.247,9.75 68.224,9.76 68.2,9.765 68.178,9.77 68.151,9.772 
					68.131,9.774 68.106,9.772 68.084,9.769 68.064,9.764 68.042,9.757 68.022,9.749 68.003,9.738 67.988,9.728 67.972,9.714 
					67.958,9.702 67.943,9.682 67.927,9.646 67.922,9.607 67.923,9.567 67.932,9.531 67.952,9.49 67.977,9.457 68.011,9.425 
					68.054,9.399 68.078,9.387 68.1,9.379 68.123,9.373 68.148,9.368 68.17,9.366 68.192,9.363 68.215,9.366 68.236,9.368 
					68.262,9.373 68.281,9.379 68.299,9.389 68.319,9.396 68.334,9.409 68.354,9.422 68.363,9.438 68.38,9.457 68.38,9.457 
					68.38,9.453 				"/>
				<polygon fill-rule="evenodd" clip-rule="evenodd" fill="#FFFFFF" points="68.39,9.499 68.408,9.534 68.414,9.575 68.412,9.613 
					68.4,9.65 68.383,9.688 68.355,9.724 68.324,9.755 68.281,9.779 68.262,9.792 68.235,9.802 68.211,9.807 68.188,9.813 
					68.163,9.815 68.144,9.816 68.119,9.815 68.095,9.81 68.075,9.807 68.054,9.799 68.034,9.791 68.015,9.779 67.999,9.77 
					67.981,9.756 67.971,9.742 67.957,9.724 67.938,9.688 67.932,9.65 67.933,9.612 67.943,9.572 67.961,9.533 67.989,9.497 
					68.022,9.469 68.065,9.442 68.088,9.43 68.113,9.42 68.135,9.416 68.161,9.41 68.181,9.407 68.204,9.406 68.229,9.407 
					68.249,9.41 68.271,9.416 68.294,9.423 68.313,9.432 68.331,9.442 68.348,9.452 68.363,9.464 68.377,9.48 68.39,9.499 
					68.39,9.499 				"/>
				<polygon fill-rule="evenodd" clip-rule="evenodd" points="68.404,9.561 68.423,9.599 68.43,9.637 68.43,9.676 68.415,9.715 
					68.398,9.751 68.372,9.787 68.339,9.82 68.296,9.846 68.274,9.855 68.251,9.865 68.227,9.87 68.204,9.875 68.181,9.879 
					68.156,9.881 68.135,9.879 68.113,9.877 68.089,9.872 68.07,9.865 68.049,9.855 68.028,9.845 68.014,9.834 67.999,9.823 
					67.985,9.807 67.971,9.789 67.957,9.751 67.948,9.712 67.951,9.675 67.959,9.635 67.978,9.599 68.006,9.563 68.039,9.531 
					68.081,9.505 68.104,9.495 68.125,9.485 68.15,9.48 68.173,9.475 68.198,9.473 68.222,9.472 68.243,9.473 68.266,9.474 
					68.286,9.479 68.308,9.485 68.327,9.495 68.347,9.505 68.363,9.517 68.381,9.529 68.393,9.544 68.404,9.563 68.404,9.563 
					68.404,9.561 				"/>
				<polygon fill-rule="evenodd" clip-rule="evenodd" fill="#FFFFFF" points="68.429,9.603 68.446,9.638 68.451,9.678 68.451,9.718 
					68.44,9.756 68.422,9.793 68.393,9.829 68.361,9.859 68.319,9.886 68.297,9.898 68.272,9.907 68.249,9.912 68.226,9.917 
					68.202,9.92 68.181,9.921 68.156,9.92 68.135,9.917 68.114,9.912 68.089,9.904 68.073,9.896 68.054,9.887 68.036,9.875 
					68.021,9.861 68.008,9.846 67.998,9.83 67.978,9.793 67.971,9.753 67.972,9.714 67.985,9.678 68.002,9.638 68.028,9.603 
					68.063,9.574 68.104,9.547 68.128,9.534 68.149,9.525 68.173,9.522 68.198,9.516 68.221,9.512 68.243,9.511 68.267,9.514 
					68.286,9.516 68.31,9.521 68.333,9.528 68.351,9.536 68.371,9.546 68.39,9.556 68.401,9.571 68.417,9.587 68.429,9.603 
					68.429,9.603 				"/>
				<polygon fill-rule="evenodd" clip-rule="evenodd" points="68.446,9.667 68.459,9.703 68.47,9.744 68.467,9.78 68.456,9.82 
					68.439,9.856 68.411,9.894 68.377,9.923 68.334,9.951 68.313,9.961 68.286,9.97 68.266,9.976 68.242,9.98 68.22,9.982 
					68.195,9.985 68.171,9.982 68.149,9.981 68.131,9.976 68.105,9.969 68.087,9.961 68.07,9.951 68.052,9.938 68.036,9.927 
					68.021,9.912 68.011,9.895 67.992,9.856 67.986,9.817 67.988,9.779 68,9.741 68.018,9.703 68.043,9.668 68.078,9.636 
					68.12,9.609 68.144,9.599 68.166,9.591 68.191,9.585 68.211,9.58 68.236,9.577 68.262,9.575 68.283,9.577 68.303,9.579 
					68.327,9.584 68.348,9.591 68.366,9.599 68.385,9.609 68.401,9.622 68.417,9.634 68.431,9.648 68.446,9.667 68.446,9.667 
					68.446,9.667 				"/>
				<polygon fill-rule="evenodd" clip-rule="evenodd" points="66.319,9.175 66.321,9.165 66.197,9.485 66.237,9.499 66.359,9.176 
					66.359,9.167 66.319,9.175 66.319,9.175 66.319,9.175 				"/>
				<polygon fill-rule="evenodd" clip-rule="evenodd" points="66.313,9.16 66.315,9.158 66.319,9.175 66.359,9.167 66.354,9.149 
					66.354,9.148 66.313,9.16 66.313,9.16 66.313,9.16 				"/>
				<polygon fill-rule="evenodd" clip-rule="evenodd" points="66.312,9.141 66.313,9.16 66.354,9.148 66.351,9.127 66.312,9.141 
					66.312,9.141 66.312,9.141 				"/>
				<polygon fill-rule="evenodd" clip-rule="evenodd" points="66.305,9.124 66.312,9.141 66.351,9.127 66.347,9.112 66.305,9.124 
					66.305,9.124 				"/>
				<polygon fill-rule="evenodd" clip-rule="evenodd" points="66.302,9.105 66.302,9.105 66.305,9.124 66.347,9.112 66.342,9.094 
					66.342,9.094 66.302,9.105 66.302,9.105 66.302,9.105 				"/>
				<polygon fill-rule="evenodd" clip-rule="evenodd" points="66.296,9.083 66.296,9.089 66.302,9.105 66.342,9.094 66.336,9.079 
					66.339,9.087 66.296,9.083 66.296,9.083 				"/>
				<polygon fill-rule="evenodd" clip-rule="evenodd" points="66.337,9.074 66.297,9.068 66.296,9.083 66.339,9.087 66.339,9.071 
					66.299,9.063 66.337,9.076 66.337,9.076 66.337,9.074 				"/>
				<polygon fill-rule="evenodd" clip-rule="evenodd" fill="#343130" points="66.374,10.01 66.368,9.99 66.324,9.997 66.328,10.019 
					66.374,10.01 66.374,10.01 66.374,10.01 				"/>
				<polygon fill-rule="evenodd" clip-rule="evenodd" points="66.461,9.742 66.463,9.731 66.342,10.052 66.38,10.065 66.502,9.745 
					66.502,9.734 66.461,9.742 66.461,9.742 66.461,9.742 				"/>
				<polygon fill-rule="evenodd" clip-rule="evenodd" points="66.459,9.719 66.461,9.742 66.502,9.734 66.497,9.711 66.457,9.719 
					66.457,9.719 66.459,9.719 				"/>
				<polygon fill-rule="evenodd" clip-rule="evenodd" points="66.453,9.699 66.457,9.719 66.497,9.711 66.493,9.689 66.453,9.699 
					66.453,9.699 66.453,9.699 				"/>
				<polygon fill-rule="evenodd" clip-rule="evenodd" points="66.448,9.675 66.449,9.678 66.453,9.699 66.493,9.689 66.489,9.668 
					66.491,9.67 66.448,9.675 66.448,9.675 66.448,9.675 				"/>
				<polygon fill-rule="evenodd" clip-rule="evenodd" points="66.485,9.655 66.445,9.651 66.448,9.675 66.491,9.67 66.487,9.648 
					66.445,9.643 66.485,9.655 66.485,9.655 				"/>
				<g>
					<polygon fill="#343130" points="66.197,9.422 66.179,9.427 66.197,9.422 					"/>
					<polygon fill="#343130" points="66.219,9.488 66.22,9.486 66.23,9.488 66.237,9.499 66.219,9.491 					"/>
					<polygon points="66.174,9.409 66.196,9.404 66.196,9.39 66.316,9.068 66.316,9.07 66.316,9.083 66.321,9.099 66.326,9.118 
						66.334,9.134 66.337,9.153 66.339,9.17 66.339,9.17 66.359,9.176 66.237,9.499 66.23,9.488 66.22,9.486 66.219,9.488 
						66.219,9.491 66.237,9.499 66.219,9.497 66.22,9.511 66.207,9.496 66.196,9.496 66.195,9.478 66.202,9.475 66.208,9.455 
						66.188,9.46 66.184,9.446 66.179,9.427 66.197,9.422 66.197,9.422 66.179,9.427 66.181,9.425 					"/>
				</g>
				<g>
					<polygon fill="none" points="67.17,9.496 67.17,9.496 67.188,9.458 					"/>
					<polygon points="66.219,9.47 67.114,9.441 67.137,9.442 67.141,9.443 67.162,9.449 67.165,9.45 67.188,9.458 67.211,9.467 
						67.212,9.468 67.232,9.48 67.238,9.481 67.253,9.496 67.26,9.5 67.271,9.516 67.271,9.517 67.279,9.531 67.28,9.534 
						67.242,9.547 67.235,9.538 67.235,9.539 67.226,9.525 67.226,9.525 67.211,9.514 67.214,9.517 67.192,9.505 67.192,9.505 
						67.17,9.496 67.17,9.496 67.15,9.49 67.129,9.485 67.135,9.486 67.113,9.483 67.113,9.481 66.22,9.511 					"/>
					<polygon points="67.242,9.548 67.242,9.547 67.243,9.55 					"/>
				</g>
				<polygon fill-rule="evenodd" clip-rule="evenodd" points="67.72,10.3 67.72,10.287 67.597,10.608 67.639,10.621 67.761,10.3 
					67.761,10.287 67.72,10.3 67.72,10.3 67.72,10.3 				"/>
				<polygon fill-rule="evenodd" clip-rule="evenodd" points="67.366,9.23 67.362,9.225 67.72,10.3 67.761,10.287 67.403,9.213 
					67.403,9.208 67.366,9.23 67.366,9.23 67.366,9.23 				"/>
				<polygon fill-rule="evenodd" clip-rule="evenodd" points="67.357,9.221 67.357,9.218 67.366,9.23 67.403,9.208 67.395,9.195 
					67.393,9.195 67.357,9.22 67.357,9.22 67.357,9.221 				"/>
				<polygon fill-rule="evenodd" clip-rule="evenodd" points="67.35,9.207 67.348,9.204 67.357,9.22 67.393,9.195 67.38,9.178 
					67.376,9.175 67.35,9.207 67.35,9.207 67.35,9.207 				"/>
				<polygon fill-rule="evenodd" clip-rule="evenodd" points="67.338,9.199 67.334,9.194 67.35,9.207 67.376,9.175 67.357,9.163 
					67.355,9.159 67.338,9.199 67.338,9.199 				"/>
				<polygon fill-rule="evenodd" clip-rule="evenodd" points="67.317,9.185 67.316,9.184 67.338,9.199 67.355,9.159 67.334,9.148 
					67.333,9.148 67.317,9.185 67.317,9.185 				"/>
				<polygon fill-rule="evenodd" clip-rule="evenodd" points="67.296,9.176 67.291,9.176 67.317,9.185 67.333,9.148 67.309,9.136 
					67.308,9.136 67.293,9.177 67.293,9.177 67.296,9.176 				"/>
				<polygon fill-rule="evenodd" clip-rule="evenodd" points="67.273,9.167 67.271,9.17 67.293,9.177 67.308,9.136 67.285,9.13 
					67.285,9.13 67.271,9.17 67.271,9.17 67.273,9.167 				"/>
				<polygon fill-rule="evenodd" clip-rule="evenodd" points="67.256,9.165 67.251,9.163 67.271,9.17 67.285,9.13 67.261,9.123 
					67.26,9.123 67.256,9.165 67.256,9.165 67.256,9.165 				"/>
				<polygon fill-rule="evenodd" clip-rule="evenodd" points="67.235,9.162 67.233,9.165 67.256,9.165 67.26,9.123 67.238,9.119 
					67.232,9.119 67.235,9.162 67.235,9.162 				"/>
				<polygon fill-rule="evenodd" clip-rule="evenodd" points="66.36,9.176 66.339,9.19 67.235,9.162 67.232,9.119 66.339,9.15 
					66.321,9.165 66.359,9.176 66.359,9.176 66.36,9.176 				"/>
				<polygon fill="#343130" points="66.586,10.154 66.582,10.152 66.584,10.152 				"/>
				<g>
					<polygon fill="#343130" points="67.069,10.3 67.067,10.343 67.069,10.3 					"/>
					<g>
						<polygon fill="none" points="67.068,10.32 67.067,10.343 67.068,10.32 						"/>
						<g>
							<polygon fill="none" points="66.342,9.971 66.344,9.969 66.344,9.973 							"/>
							<path d="M66.328,10.019l0.006,0.021l0.006,0.022l0.01,0.016l0.054,0.029l0.056,0.029l0.055,0.028l0.052,0.026h0.001
								l0.056,0.024l0.055,0.026l0.058,0.022l0.06,0.024h0.002l0.062,0.016l0.063,0.017v0.001l0.072,0.011l0.072,0.01l0.002,0.001
								l0.076,0.003l0.003-0.002l0.083,0.004l0.089-0.004l0.094-0.004l0.021-0.013l0.12-0.32l-0.021-0.028l0.002,0.041l-0.005-0.008
								l0.003-0.011h-0.013l-0.006-0.006l-0.002,0.007l-0.072,0.004h-0.09l-0.082-0.001l-0.076-0.004l-0.074-0.01l-0.068-0.013
								l-0.064-0.018l-0.062-0.017l-0.058-0.021l-0.059-0.021l-0.053-0.025l-0.054-0.026l-0.055-0.027l-0.053-0.028l-0.054-0.028
								l-0.035-0.019V9.745l-0.02-0.007l0,0l-0.006-0.022l-0.003-0.021V9.688l0.012-0.033l-0.02-0.005l-0.001-0.002l0,0l-0.02-0.005
								l-0.122,0.32l-0.001,0.01l0.003,0.021L66.328,10.019z M66.344,9.969v0.004l-0.002-0.002L66.344,9.969z"/>
						</g>
					</g>
				</g>
				<polygon fill-rule="evenodd" clip-rule="evenodd" points="67.438,10.025 67.533,10.02 67.531,9.979 67.438,9.984 67.438,10.025 
					67.438,10.025 67.438,10.025 				"/>
				<polygon fill-rule="evenodd" clip-rule="evenodd" points="67.351,10.028 67.438,10.025 67.438,9.984 67.349,9.986 
					67.351,10.028 67.351,10.028 67.351,10.028 				"/>
				<polygon fill-rule="evenodd" clip-rule="evenodd" points="67.266,10.025 67.27,10.027 67.351,10.028 67.349,9.986 67.267,9.985 
					67.271,9.984 67.265,10.028 67.265,10.028 67.266,10.025 				"/>
				<polygon fill-rule="evenodd" clip-rule="evenodd" points="67.187,10.02 67.188,10.021 67.265,10.028 67.271,9.984 67.191,9.979 
					67.192,9.979 67.187,10.02 67.187,10.02 67.187,10.02 				"/>
				<polygon fill-rule="evenodd" clip-rule="evenodd" points="67.114,10.011 67.187,10.02 67.192,9.979 67.122,9.969 67.114,10.011 
					67.114,10.011 				"/>
				<polygon fill-rule="evenodd" clip-rule="evenodd" points="67.044,9.998 67.044,10 67.114,10.011 67.122,9.969 67.05,9.957 
					67.052,9.958 67.044,9.998 67.044,9.998 67.044,9.998 				"/>
				<polygon fill-rule="evenodd" clip-rule="evenodd" points="66.98,9.981 67.044,9.998 67.052,9.958 66.989,9.942 66.98,9.984 
					66.98,9.984 66.98,9.981 				"/>
				<polygon fill-rule="evenodd" clip-rule="evenodd" points="66.916,9.966 66.917,9.966 66.98,9.984 66.989,9.942 66.928,9.924 
					66.929,9.926 66.916,9.966 66.916,9.966 				"/>
				<polygon fill-rule="evenodd" clip-rule="evenodd" points="66.855,9.944 66.855,9.944 66.916,9.966 66.929,9.926 66.868,9.904 
					66.873,9.904 66.854,9.943 66.854,9.943 66.855,9.944 				"/>
				<polygon fill-rule="evenodd" clip-rule="evenodd" points="66.799,9.92 66.854,9.943 66.873,9.904 66.814,9.881 66.799,9.92 
					66.799,9.92 				"/>
				<polygon fill-rule="evenodd" clip-rule="evenodd" points="66.742,9.896 66.799,9.92 66.814,9.881 66.76,9.858 66.742,9.896 
					66.742,9.896 				"/>
				<polygon fill-rule="evenodd" clip-rule="evenodd" points="66.688,9.869 66.689,9.872 66.742,9.896 66.76,9.858 66.704,9.833 
					66.706,9.833 66.687,9.87 66.687,9.87 66.688,9.869 				"/>
				<polygon fill-rule="evenodd" clip-rule="evenodd" points="66.635,9.843 66.687,9.87 66.706,9.833 66.653,9.806 66.633,9.845 
					66.633,9.845 66.635,9.843 				"/>
				<polygon fill-rule="evenodd" clip-rule="evenodd" points="66.582,9.815 66.633,9.845 66.653,9.806 66.603,9.778 66.579,9.814 
					66.579,9.814 66.582,9.815 				"/>
				<polygon fill-rule="evenodd" clip-rule="evenodd" points="66.527,9.785 66.579,9.814 66.603,9.778 66.546,9.75 66.527,9.785 
					66.527,9.785 				"/>
				<polygon fill-rule="evenodd" clip-rule="evenodd" points="66.502,9.745 66.474,9.756 66.527,9.785 66.546,9.75 66.493,9.72 
					66.463,9.731 66.502,9.745 66.502,9.745 66.502,9.745 				"/>
				<polygon fill-rule="evenodd" clip-rule="evenodd" points="72.08,9.165 71.957,9.488 72.355,9.621 72.448,9.407 72.451,9.386 
					72.453,9.366 72.448,9.343 72.44,9.32 72.427,9.302 72.417,9.281 72.4,9.261 72.385,9.241 72.365,9.225 72.345,9.207 
					72.325,9.192 72.304,9.181 72.286,9.167 72.263,9.159 72.242,9.148 72.224,9.141 72.208,9.135 72.188,9.133 72.167,9.132 
					72.149,9.133 72.129,9.135 72.111,9.143 72.095,9.153 72.08,9.165 72.08,9.165 72.08,9.165 				"/>
				<polygon fill-rule="evenodd" clip-rule="evenodd" points="72.337,9.61 72.362,9.599 71.962,9.467 71.949,9.506 72.351,9.64 
					72.377,9.63 72.337,9.61 72.337,9.61 				"/>
				<g>
					<polygon fill="none" points="72.416,9.702 72.417,9.724 72.416,9.702 					"/>
					<polygon fill="none" points="72.619,9.488 72.637,9.501 72.619,9.49 					"/>
					<g>
						<polygon fill="none" points="72.637,9.501 72.619,9.49 72.619,9.488 						"/>
						<g>
							<polygon fill="none" points="72.637,9.501 72.619,9.49 72.619,9.488 							"/>
							<polygon points="66.174,9.39 66.177,9.384 66.299,9.063 66.337,9.076 66.219,9.392 66.217,9.405 66.216,9.401 66.174,9.409 
								66.173,9.404 							"/>
							<g>
								<polygon fill="none" points="72.637,9.501 72.619,9.49 72.619,9.488 								"/>
								<polygon fill="#343130" points="68.134,10.146 68.124,10.149 68.124,10.149 								"/>
								<g>
									<polygon fill="none" points="68.141,10.164 68.155,10.179 68.141,10.164 									"/>
									<polygon fill="none" points="72.637,9.501 72.619,9.49 72.619,9.488 									"/>
									<polygon fill="none" points="67.616,10.614 67.616,10.614 67.616,10.614 67.597,10.608 67.615,10.608 									"/>
									<path d="M66.188,9.46l0.007,0.019V9.478l0.03-0.007l-0.007,0.021l0.895-0.029h0.021l0.022,0.007l0.023,0.008l0.022,0.008
										L67.226,9.5l0.017,0.012l0.013,0.014l0.007,0.015l-0.02,0.008l0.354,1.073h0.02l0.001,0.013h0.033h0.03h0.028l0.024-0.004
										l0.027-0.007l0.023-0.012l0.024-0.021l0.028-0.027v-0.002l0.018-0.022l0.018-0.024l0.021-0.024l0.017-0.025l0.017-0.031
										l0.02-0.026l0.015-0.028l0.023-0.03L68,10.326l0.022-0.026l0.021-0.026l0.022-0.022l0.02-0.021l0.021-0.02l0.021-0.016
										l0.022-0.013l0.005-0.003l-0.015-0.015l0,0l0.015,0.015l0.025-0.027l0.021-0.02l0.02-0.018l0.021-0.018l0.021-0.014
										l0.02-0.013l0.02-0.011l0.021-0.009l0.02-0.006l0.025-0.01l0.021-0.004l0.027-0.005l0.03-0.005l0.031-0.001l0.037-0.004
										l0.035-0.001l0.001,0.001l3.864-0.289l0.023-0.003l0.019-0.003l0.021-0.005l0.019-0.008l0.017-0.006l0.02-0.012
										l0.018-0.015l0.018-0.016l0.002-0.005l0.067-0.157l-0.034-0.022l0.015,0.016L72.617,9.49l-0.017-0.012l-0.018,0.038
										l-0.012,0.007l-0.014,0.006L72.54,9.536l-0.017,0.003l-0.019,0.004l-0.021,0.004l-3.865,0.288l-0.027,0.002l-0.023,0
										h-0.022l-0.026,0.004h-0.025L68.47,9.846l-0.023,0.003l-0.021,0.004l-0.027,0.003l-0.021,0.003l-0.023,0.006l-0.026,0.007
										l-0.021,0.005l-0.027,0.009l-0.023,0.009l-0.023,0.011l-0.044,0.028l-0.048,0.042l-0.052,0.051l-0.046,0.056l-0.044,0.06
										l-0.04,0.054l-0.037,0.05l-0.033,0.039l-0.019,0.005l-0.016,0.003l-0.019,0.002h-0.02h-0.021l-0.017,0l-0.02-0.001
										l-0.02-0.002l-0.354-1.07l-0.009-0.016l-0.014-0.015L67.348,9.18l-0.025-0.015l-0.02-0.009l-0.026-0.007l-0.021-0.005
										l-0.021-0.001L66.339,9.17l-0.106,0.283V9.45L66.188,9.46z M72.619,9.49V9.488l0.018,0.013L72.619,9.49z"/>
								</g>
							</g>
						</g>
					</g>
				</g>
				<polygon fill-rule="evenodd" clip-rule="evenodd" points="72.484,9.57 72.508,9.563 72.527,9.561 72.547,9.556 72.566,9.549 
					72.583,9.54 72.603,9.529 72.617,9.517 72.637,9.501 72.604,9.473 72.592,9.486 72.577,9.497 72.564,9.505 72.549,9.511 
					72.533,9.516 72.519,9.52 72.5,9.522 72.48,9.524 72.484,9.57 72.484,9.57 				"/>
				<polygon fill-rule="evenodd" clip-rule="evenodd" points="68.621,9.855 72.484,9.57 72.48,9.524 68.617,9.814 68.621,9.855 
					68.621,9.855 				"/>
				<polygon fill-rule="evenodd" clip-rule="evenodd" points="68.242,9.923 68.265,9.914 68.285,9.907 68.313,9.898 68.333,9.891 
					68.358,9.883 68.381,9.881 68.402,9.877 68.429,9.874 68.449,9.869 68.472,9.869 68.497,9.865 68.521,9.864 68.546,9.861 
					68.567,9.859 68.593,9.858 68.621,9.855 68.617,9.814 68.59,9.816 68.567,9.817 68.54,9.817 68.517,9.821 68.492,9.823 
					68.47,9.827 68.446,9.827 68.419,9.829 68.396,9.834 68.373,9.84 68.348,9.844 68.322,9.851 68.299,9.858 68.273,9.866 
					68.247,9.875 68.225,9.886 68.242,9.923 68.242,9.923 68.242,9.923 				"/>
				<polygon fill-rule="evenodd" clip-rule="evenodd" points="67.896,10.305 67.902,10.301 67.922,10.28 67.938,10.26 
					67.955,10.236 67.972,10.21 67.998,10.183 68.018,10.155 68.039,10.126 68.063,10.098 68.085,10.067 68.107,10.04 
					68.131,10.017 68.155,9.99 68.178,9.968 68.2,9.951 68.221,9.935 68.242,9.923 68.225,9.886 68.198,9.902 68.178,9.917 
					68.149,9.938 68.123,9.963 68.1,9.986 68.078,10.011 68.052,10.043 68.028,10.073 68.007,10.101 67.984,10.13 67.965,10.158 
					67.941,10.185 67.923,10.21 67.902,10.234 67.889,10.254 67.874,10.271 67.882,10.268 67.896,10.305 67.896,10.305 
					67.896,10.305 				"/>
				<polygon fill="none" points="72.07,9.184 72.08,9.165 72.093,9.151 72.117,9.14 72.145,9.135 72.158,9.136 72.178,9.139 
					72.191,9.141 72.208,9.145 72.227,9.15 72.243,9.156 72.263,9.165 72.282,9.176 72.3,9.183 72.317,9.195 72.332,9.207 
					72.351,9.222 72.366,9.234 72.379,9.249 72.393,9.261 72.405,9.277 72.43,9.305 72.44,9.335 72.447,9.35 72.45,9.361 
					72.447,9.385 72.443,9.405 72.427,9.422 72.408,9.432 72.38,9.438 72.365,9.439 72.349,9.436 72.33,9.435 72.311,9.429 
					72.293,9.424 72.272,9.417 72.254,9.409 72.236,9.396 72.217,9.39 72.197,9.378 72.179,9.366 72.161,9.353 72.147,9.34 
					72.129,9.325 72.115,9.309 72.104,9.295 72.084,9.264 72.073,9.234 72.07,9.225 72.066,9.208 				"/>
				<polygon fill-rule="evenodd" clip-rule="evenodd" fill="#FFFFFF" points="67.155,9.144 67.235,9.143 67.242,9.143 66.557,8.915 
					66.521,8.934 67.155,9.146 67.155,9.146 67.155,9.144 				"/>
				<polygon fill-rule="evenodd" clip-rule="evenodd" fill="#FFFFFF" points="67.155,9.144 66.339,9.17 66.337,9.153 66.334,9.134 
					66.326,9.118 66.321,9.099 66.316,9.083 66.316,9.07 66.322,9.055 66.337,9.042 66.369,9.021 66.406,8.999 66.445,8.978 
					66.482,8.956 66.517,8.933 66.521,8.934 67.155,9.146 67.155,9.146 67.155,9.144 				"/>
				<polygon fill="#FFFFFF" points="66.66,9.638 67.214,9.608 67.433,9.694 67.508,9.921 67.531,10.001 67.438,10.006 
					67.349,10.006 67.267,10.005 67.19,10.001 67.116,9.991 67.048,9.979 66.983,9.961 66.921,9.944 66.863,9.923 66.805,9.902 
					66.752,9.877 66.698,9.851 66.644,9.824 66.591,9.795 66.537,9.768 66.482,9.738 66.477,9.715 66.474,9.694 66.468,9.671 
					66.465,9.648 				"/>
				<polygon fill-rule="evenodd" clip-rule="evenodd" fill="#FFFFFF" points="68.058,9.702 68.065,9.711 68.137,9.755 68.161,9.718 
					68.088,9.673 68.095,9.686 68.058,9.702 68.062,9.707 68.065,9.711 68.058,9.702 68.058,9.702 				"/>
				<polygon fill-rule="evenodd" clip-rule="evenodd" fill="#FFFFFF" points="67.423,9.716 67.41,9.702 67.513,10.007 67.553,9.995 
					67.452,9.688 67.439,9.676 67.452,9.688 67.449,9.679 67.439,9.676 67.423,9.716 67.423,9.716 67.423,9.716 				"/>
				<polygon fill-rule="evenodd" clip-rule="evenodd" fill="#FFFFFF" points="67.218,9.628 67.206,9.625 67.423,9.716 67.439,9.676 
					67.225,9.587 67.215,9.587 67.225,9.587 67.221,9.585 67.215,9.587 67.218,9.628 67.218,9.628 67.218,9.628 				"/>
				<polygon fill-rule="evenodd" clip-rule="evenodd" fill="#FFFFFF" points="66.487,9.648 66.466,9.671 67.218,9.628 67.215,9.587 
					66.465,9.63 66.445,9.651 66.465,9.63 66.441,9.63 66.445,9.651 66.487,9.648 66.487,9.648 				"/>
				<polygon fill-rule="evenodd" clip-rule="evenodd" fill="#FFFFFF" points="66.493,9.72 66.502,9.734 66.501,9.723 66.497,9.711 
					66.497,9.702 66.494,9.691 66.494,9.681 66.491,9.668 66.487,9.66 66.487,9.648 66.445,9.651 66.445,9.664 66.446,9.678 
					66.45,9.687 66.452,9.699 66.456,9.707 66.457,9.719 66.461,9.731 66.461,9.742 66.474,9.756 66.461,9.742 66.465,9.751 
					66.474,9.756 66.493,9.72 66.493,9.72 				"/>
				<polygon fill-rule="evenodd" clip-rule="evenodd" fill="#FFFFFF" points="67.513,10.005 67.529,9.979 67.438,9.984 
					67.349,9.986 67.271,9.984 67.191,9.979 67.122,9.969 67.052,9.958 66.989,9.942 66.929,9.926 66.868,9.904 66.814,9.881 
					66.76,9.858 66.706,9.833 66.653,9.806 66.603,9.778 66.546,9.75 66.493,9.72 66.474,9.756 66.527,9.785 66.579,9.814 
					66.633,9.845 66.687,9.87 66.742,9.896 66.799,9.92 66.855,9.944 66.916,9.966 66.98,9.984 67.044,9.998 67.114,10.011 
					67.188,10.021 67.265,10.028 67.351,10.028 67.438,10.025 67.535,10.021 67.553,9.995 67.535,10.021 67.562,10.018 
					67.553,9.995 67.513,10.007 67.513,10.007 67.513,10.005 				"/>
				<g>
					<polygon fill="none" points="67.9,10.277 67.917,10.292 67.9,10.277 					"/>
					<polygon fill="none" points="67.76,10.271 67.755,10.271 67.755,10.271 					"/>
					<polygon fill="none" points="67.409,9.23 67.972,9.419 67.409,9.23 					"/>
				</g>
				<polygon fill-rule="evenodd" clip-rule="evenodd" fill="#FFFFFF" points="68.617,9.814 68.586,9.815 68.555,9.819 68.525,9.82 
					68.496,9.823 68.466,9.827 68.436,9.833 68.403,9.837 68.374,9.844 68.344,9.851 68.317,9.859 68.286,9.869 68.263,9.88 
					68.236,9.891 68.21,9.902 68.188,9.918 68.166,9.936 68.192,9.968 68.211,9.954 68.232,9.941 68.253,9.928 68.277,9.918 
					68.302,9.906 68.327,9.899 68.357,9.892 68.384,9.883 68.412,9.881 68.44,9.875 68.47,9.872 68.497,9.867 68.53,9.861 
					68.562,9.859 68.59,9.856 68.621,9.855 68.617,9.814 68.617,9.814 68.617,9.814 				"/>
				<polygon fill-rule="evenodd" clip-rule="evenodd" fill="#FFFFFF" points="72.48,9.524 68.617,9.814 68.621,9.855 72.484,9.57 
					72.48,9.524 72.48,9.524 				"/>
				<polygon fill-rule="evenodd" clip-rule="evenodd" fill="#FFFFFF" points="72.552,9.289 72.568,9.312 72.584,9.333 72.593,9.354 
					72.604,9.376 72.612,9.395 72.613,9.415 72.613,9.432 72.613,9.449 72.608,9.462 72.602,9.475 72.593,9.488 72.577,9.5 
					72.563,9.506 72.538,9.516 72.514,9.522 72.48,9.524 72.484,9.57 72.52,9.565 72.552,9.556 72.577,9.547 72.602,9.533 
					72.623,9.518 72.639,9.499 72.647,9.48 72.655,9.457 72.654,9.433 72.655,9.41 72.648,9.386 72.643,9.361 72.634,9.338 
					72.619,9.312 72.603,9.285 72.584,9.265 72.552,9.289 72.552,9.289 				"/>
				<polygon fill-rule="evenodd" clip-rule="evenodd" fill="#FFFFFF" points="72.091,9.069 72.126,9.068 72.159,9.071 72.197,9.079 
					72.231,9.083 72.264,9.094 72.297,9.105 72.329,9.119 72.358,9.134 72.39,9.151 72.418,9.17 72.45,9.188 72.469,9.206 
					72.494,9.225 72.515,9.25 72.533,9.271 72.552,9.289 72.584,9.265 72.566,9.241 72.543,9.218 72.521,9.195 72.495,9.174 
					72.467,9.153 72.44,9.134 72.411,9.116 72.38,9.097 72.346,9.082 72.312,9.068 72.276,9.056 72.241,9.042 72.207,9.036 
					72.168,9.031 72.126,9.027 72.091,9.027 72.091,9.069 72.091,9.069 				"/>
				<polygon fill-rule="evenodd" clip-rule="evenodd" fill="#FFFFFF" points="68.671,9.187 72.091,9.069 72.091,9.027 68.672,9.146 
					68.671,9.187 68.671,9.187 				"/>
				<polygon fill-rule="evenodd" clip-rule="evenodd" fill="#FFFFFF" points="68.132,9.102 68.163,9.113 68.199,9.121 68.232,9.132 
					68.266,9.14 68.302,9.148 68.333,9.156 68.373,9.161 68.403,9.166 68.44,9.172 68.475,9.176 68.508,9.182 68.543,9.182 
					68.575,9.187 68.609,9.185 68.642,9.188 68.671,9.187 68.672,9.146 68.64,9.146 68.608,9.145 68.577,9.144 68.546,9.141 
					68.511,9.136 68.479,9.134 68.446,9.131 68.412,9.125 68.377,9.118 68.344,9.113 68.311,9.105 68.277,9.099 68.243,9.091 
					68.205,9.081 68.18,9.074 68.146,9.062 68.131,9.103 68.131,9.103 68.132,9.102 				"/>
				<polygon fill-rule="evenodd" clip-rule="evenodd" fill="#FFFFFF" points="66.978,8.785 67.036,8.777 67.094,8.771 67.146,8.767 
					67.194,8.764 67.24,8.763 67.279,8.768 67.322,8.769 67.357,8.771 67.395,8.777 67.431,8.785 67.462,8.792 67.491,8.801 
					67.521,8.812 67.545,8.822 67.576,8.834 67.598,8.846 67.627,8.859 67.653,8.873 67.682,8.888 67.709,8.904 67.734,8.919 
					67.765,8.938 67.793,8.95 67.822,8.969 67.855,8.984 67.888,9.004 67.923,9.019 67.959,9.036 67.999,9.054 68.039,9.068 
					68.085,9.087 68.131,9.103 68.146,9.062 68.1,9.046 68.054,9.03 68.015,9.015 67.975,8.999 67.938,8.98 67.907,8.966 
					67.874,8.946 67.843,8.932 67.813,8.916 67.783,8.898 67.758,8.883 67.729,8.865 67.701,8.85 67.673,8.836 67.646,8.823 
					67.619,8.808 67.593,8.794 67.564,8.782 67.533,8.771 67.503,8.761 67.471,8.75 67.437,8.743 67.403,8.738 67.362,8.729 
					67.324,8.725 67.285,8.723 67.238,8.723 67.191,8.723 67.141,8.725 67.087,8.729 67.032,8.737 66.973,8.743 66.978,8.785 
					66.978,8.785 66.978,8.785 				"/>
				<polygon fill-rule="evenodd" clip-rule="evenodd" fill="#FFFFFF" points="66.349,9.063 66.381,9.04 66.418,9.019 66.457,8.997 
					66.494,8.972 66.529,8.953 66.568,8.931 66.605,8.911 66.642,8.894 66.684,8.875 66.725,8.857 66.764,8.839 66.804,8.826 
					66.849,8.814 66.89,8.801 66.934,8.792 66.978,8.785 66.973,8.743 66.925,8.75 66.879,8.761 66.834,8.774 66.791,8.785 
					66.75,8.802 66.705,8.817 66.667,8.835 66.625,8.854 66.584,8.874 66.544,8.896 66.508,8.916 66.47,8.936 66.434,8.959 
					66.396,8.98 66.36,9.002 66.324,9.026 66.346,9.062 66.346,9.062 66.349,9.063 				"/>
				<polygon fill-rule="evenodd" clip-rule="evenodd" fill="#FFFFFF" points="66.339,9.15 66.361,9.169 66.354,9.149 66.351,9.127 
					66.347,9.112 66.342,9.094 66.339,9.082 66.337,9.074 66.341,9.065 66.346,9.062 66.324,9.026 66.307,9.042 66.299,9.066 
					66.295,9.087 66.302,9.105 66.305,9.124 66.312,9.141 66.315,9.158 66.319,9.174 66.339,9.19 66.319,9.174 66.321,9.19 
					66.339,9.19 66.339,9.15 66.339,9.15 				"/>
				<g>
					<polygon fill="none" points="67.918,9.304 67.921,9.304 67.913,9.326 					"/>
					<polygon fill="#FFFFFF" points="67.921,9.302 67.921,9.304 67.918,9.304 					"/>
					<polygon fill="#FFFFFF" points="67.91,9.312 67.918,9.304 67.913,9.326 					"/>
					<g>
						<polygon fill="none" points="72.08,9.165 72.093,9.151 72.117,9.14 72.145,9.135 72.158,9.136 72.178,9.139 72.191,9.141 
							72.208,9.145 72.227,9.15 72.243,9.156 72.263,9.165 72.282,9.176 72.3,9.183 72.317,9.195 72.332,9.207 72.351,9.222 
							72.366,9.234 72.379,9.249 72.393,9.261 72.405,9.277 72.43,9.305 72.44,9.335 72.447,9.35 72.45,9.361 72.447,9.385 
							72.443,9.405 72.427,9.422 72.408,9.432 72.38,9.438 72.365,9.439 72.349,9.436 72.33,9.435 72.311,9.429 72.293,9.424 
							72.272,9.417 72.254,9.409 72.236,9.396 72.217,9.39 72.197,9.378 72.179,9.366 72.161,9.353 72.147,9.34 72.129,9.325 
							72.115,9.309 72.104,9.295 72.084,9.264 72.073,9.234 72.07,9.225 72.066,9.208 72.07,9.184 						"/>
						<polygon fill="none" points="68.354,9.302 68.354,9.302 68.333,9.31 						"/>
						<polygon fill="none" points="68.492,9.652 68.507,9.663 68.508,9.666 68.47,9.711 68.147,9.734 68.078,9.694 68.078,9.692 
							68.095,9.686 67.959,9.323 67.981,9.301 68.276,9.283 68.338,9.315 68.49,9.675 						"/>
						<polygon fill="none" points="67.391,9.192 67.391,9.192 67.932,9.373 						"/>
						<g>
							<polygon fill="none" points="72.08,9.165 72.093,9.151 72.117,9.14 72.145,9.135 72.158,9.136 72.178,9.139 72.191,9.141 
								72.208,9.145 72.227,9.15 72.243,9.156 72.263,9.165 72.282,9.176 72.3,9.183 72.317,9.195 72.332,9.207 72.351,9.222 
								72.366,9.234 72.379,9.249 72.393,9.261 72.405,9.277 72.43,9.305 72.44,9.335 72.447,9.35 72.45,9.361 72.447,9.385 
								72.443,9.405 72.427,9.422 72.408,9.432 72.38,9.438 72.365,9.439 72.349,9.436 72.33,9.435 72.311,9.429 72.293,9.424 
								72.272,9.417 72.254,9.409 72.236,9.396 72.217,9.39 72.197,9.378 72.179,9.366 72.161,9.353 72.147,9.34 72.129,9.325 
								72.115,9.309 72.104,9.295 72.084,9.264 72.073,9.234 72.07,9.225 72.066,9.208 72.07,9.184 							"/>
							<polygon fill="none" points="68.276,9.283 68.338,9.315 68.49,9.675 68.492,9.652 68.507,9.663 68.508,9.666 68.47,9.711 
								68.147,9.734 68.078,9.694 68.078,9.692 68.095,9.686 67.959,9.323 67.981,9.301 							"/>
							<polygon fill="none" points="67.391,9.192 67.391,9.192 67.932,9.373 							"/>
							<g>
								<polygon fill="none" points="72.08,9.165 72.093,9.151 72.117,9.14 72.145,9.135 72.158,9.136 72.178,9.139 72.191,9.141 
									72.208,9.145 72.227,9.15 72.243,9.156 72.263,9.165 72.282,9.176 72.3,9.183 72.317,9.195 72.332,9.207 72.351,9.222 
									72.366,9.234 72.379,9.249 72.393,9.261 72.405,9.277 72.43,9.305 72.44,9.335 72.447,9.35 72.45,9.361 72.447,9.385 
									72.443,9.405 72.427,9.422 72.408,9.432 72.38,9.438 72.365,9.439 72.349,9.436 72.33,9.435 72.311,9.429 72.293,9.424 
									72.272,9.417 72.254,9.409 72.236,9.396 72.217,9.39 72.197,9.378 72.179,9.366 72.161,9.353 72.147,9.34 72.129,9.325 
									72.115,9.309 72.104,9.295 72.084,9.264 72.073,9.234 72.07,9.225 72.066,9.208 72.07,9.184 								"/>
								<polygon fill="none" points="68.276,9.283 68.338,9.315 68.49,9.675 68.492,9.652 68.507,9.663 68.508,9.666 68.471,9.711 
									68.47,9.692 68.146,9.715 68.161,9.718 68.15,9.734 68.147,9.734 68.078,9.694 68.078,9.692 68.095,9.686 67.959,9.323 
									67.981,9.301 								"/>
								<polygon fill="none" points="67.391,9.192 67.391,9.192 67.932,9.373 								"/>
								<g>
									<polygon fill="none" points="68.502,9.595 69.112,9.799 68.502,9.595 									"/>
									<polygon fill="none" points="68.487,9.557 69.19,9.792 68.487,9.557 									"/>
									<polygon fill="none" points="72.08,9.165 72.093,9.151 72.117,9.14 72.145,9.135 72.158,9.136 72.178,9.139 72.191,9.141 
										72.208,9.145 72.227,9.15 72.243,9.156 72.263,9.165 72.282,9.176 72.3,9.183 72.317,9.195 72.332,9.207 72.351,9.222 
										72.366,9.234 72.379,9.249 72.393,9.261 72.405,9.277 72.43,9.305 72.44,9.335 72.447,9.35 72.45,9.361 72.447,9.385 
										72.443,9.405 72.427,9.422 72.408,9.432 72.38,9.438 72.365,9.439 72.349,9.436 72.33,9.435 72.311,9.429 72.293,9.424 
										72.272,9.417 72.254,9.409 72.236,9.396 72.217,9.39 72.197,9.378 72.179,9.366 72.161,9.353 72.147,9.34 72.129,9.325 
										72.115,9.309 72.104,9.295 72.084,9.264 72.073,9.234 72.07,9.225 72.066,9.208 72.07,9.184 									"/>
									<polygon fill="none" points="68.276,9.283 68.338,9.315 68.49,9.675 68.492,9.652 68.507,9.663 68.508,9.666 68.471,9.711 
										68.47,9.711 68.15,9.734 68.147,9.734 68.078,9.694 68.078,9.692 68.095,9.686 67.959,9.323 67.981,9.301 									"/>
									<polygon fill="none" points="67.391,9.192 67.391,9.192 67.932,9.373 									"/>
									<polygon fill="#FFFFFF" points="68.487,9.557 69.19,9.792 69.112,9.798 69.112,9.799 68.502,9.595 									"/>
									<g>
										<polygon fill="none" points="72.08,9.165 72.093,9.151 72.117,9.14 72.145,9.135 72.158,9.136 72.178,9.139 72.191,9.141 
											72.208,9.145 72.227,9.15 72.243,9.156 72.263,9.165 72.282,9.176 72.3,9.183 72.317,9.195 72.332,9.207 72.351,9.222 
											72.366,9.234 72.379,9.249 72.393,9.261 72.405,9.277 72.43,9.305 72.44,9.335 72.447,9.35 72.45,9.361 72.447,9.385 
											72.443,9.405 72.427,9.422 72.408,9.432 72.38,9.438 72.365,9.439 72.349,9.436 72.33,9.435 72.311,9.429 72.293,9.424 
											72.272,9.417 72.254,9.409 72.236,9.396 72.217,9.39 72.197,9.378 72.179,9.366 72.161,9.353 72.147,9.34 72.129,9.325 
											72.115,9.309 72.104,9.295 72.084,9.264 72.073,9.234 72.07,9.225 72.066,9.208 72.07,9.184 										"/>
										<polygon fill="none" points="68.276,9.283 68.338,9.315 68.486,9.663 68.46,9.692 68.146,9.715 68.161,9.718 68.15,9.734 
											68.147,9.734 68.078,9.694 68.078,9.692 68.095,9.686 67.959,9.323 67.981,9.301 										"/>
										<polygon fill="none" points="68.492,9.652 68.507,9.663 68.507,9.663 										"/>
										<polygon fill="none" points="67.391,9.192 67.391,9.192 67.932,9.373 										"/>
										<path fill="#FFFFFF" d="M66.339,9.19l0.896-0.029l0.018,0.003l0.018,0.005l0.022,0.007l0.023,0.007l0.019,0.013
											l0.013,0.009l0.01,0.014l0.005,0.005L67.72,10.3l0.004,0.016l0.02-0.001l0.018-0.002l0.018,0.002l0.028,0.002l0.022-0.001
											l0.024,0.002l0.021-0.006l0.022-0.008l0.021-0.013l0.023-0.024l0.019-0.025l0.019-0.022l0.019-0.021l0.015-0.021
											l0.015-0.019l0.014-0.019l0.015-0.021l0.013-0.02l0.016-0.018l0.013-0.02l0.02-0.017l0.017-0.017l0.019-0.02l0.019-0.019
											l0.024-0.021l-0.012-0.016l0.019-0.017l0.021-0.015l0.026-0.01l0.021-0.013l0.028-0.01l0.028-0.007l0.026-0.011
											l0.03-0.006l0.026-0.004l0.028-0.005l0.034-0.005l0.027-0.004l0.031-0.003l0.03-0.002l0.029-0.003l0.03-0.001l0.494-0.036
											l-0.61-0.205l-0.015-0.038l0,0l0.703,0.236l3.293-0.245l0.06-0.009l0.046-0.022l0.032-0.03l0.013-0.035V9.413l0.002-0.002
											l-0.013-0.044l-0.021-0.045L72.57,9.275l-0.019-0.021l-0.022-0.022l-0.021-0.023l-0.023-0.019L72.458,9.17l-0.027-0.018
											l-0.031-0.019L72.37,9.115l-0.033-0.013l-0.031-0.015l-0.034-0.011l-0.035-0.013l-0.037-0.005l-0.035-0.007l-0.038-0.004
											l-0.035,0.001l-0.498,0.019l-2.921,0.099H68.64l-0.03,0.001l-0.033-0.001l-0.033-0.004l-0.032-0.002l-0.034-0.003
											L68.444,9.15l-0.036-0.004l-0.034-0.005L68.34,9.134l-0.033-0.007l-0.036-0.008L68.236,9.11l-0.033-0.008l-0.032-0.01
											L68.14,9.083l-0.049-0.017L68.047,9.05l-0.04-0.016l-0.039-0.015L67.932,9l-0.034-0.016l-0.033-0.019l-0.031-0.013
											l-0.029-0.02l-0.028-0.016l-0.03-0.016L67.72,8.885L67.69,8.87l-0.028-0.015l-0.026-0.014l-0.024-0.016l-0.028-0.014
											l-0.029-0.011l-0.025-0.01l-0.031-0.01l-0.034-0.011l-0.029-0.008l-0.036-0.006L67.359,8.75l-0.037-0.002L67.28,8.743
											l-0.042,0l-0.047,0l-0.048,0.002L67.09,8.75l-0.056,0.006l-0.059,0.007l-0.045,0.007l-0.044,0.011l-0.045,0.01
											l-0.041,0.015l-0.044,0.016l-0.044,0.017l-0.037,0.017l-0.041,0.018l-0.04,0.02l-0.038,0.022l0.624,0.208L66.339,9.15
											V9.19z M72.066,9.208l0.004-0.025l0.01-0.019l0.013-0.014l0.024-0.011l0.027-0.004l0.014,0.001l0.02,0.002l0.014,0.002
											l0.017,0.004l0.019,0.005l0.017,0.006l0.02,0.009l0.02,0.011L72.3,9.183l0.018,0.012l0.015,0.012l0.019,0.015l0.016,0.012
											l0.013,0.015l0.014,0.012l0.013,0.016l0.024,0.028l0.011,0.031l0.007,0.014l0.003,0.012l-0.003,0.023l-0.004,0.02
											l-0.017,0.017l-0.019,0.01L72.38,9.438l-0.015,0.001l-0.017-0.003L72.33,9.435l-0.02-0.005l-0.018-0.005l-0.021-0.007
											l-0.019-0.007l-0.018-0.013l-0.02-0.006l-0.02-0.012l-0.019-0.012l-0.018-0.014L72.147,9.34l-0.019-0.016l-0.014-0.016
											l-0.011-0.014l-0.021-0.031l-0.011-0.03L72.07,9.225L72.066,9.208z M68.507,9.663L68.507,9.663l-0.015-0.01L68.507,9.663z
											 M67.959,9.323l0.022-0.022l0.295-0.018l0.062,0.032l0.148,0.347L68.46,9.692l-0.313,0.023l0.015,0.002L68.15,9.734
											h-0.003l-0.069-0.04V9.692l0.017-0.007L67.959,9.323z"/>
									</g>
								</g>
							</g>
						</g>
					</g>
				</g>
				<polygon fill-rule="evenodd" clip-rule="evenodd" points="71.867,9.432 71.851,9.422 71.846,9.405 71.872,9.399 71.876,9.416 
					71.861,9.404 71.867,9.432 71.867,9.432 				"/>
				<polygon fill-rule="evenodd" clip-rule="evenodd" points="71.902,9.412 71.898,9.417 71.892,9.423 71.884,9.427 71.876,9.431 
					71.867,9.432 71.861,9.404 71.867,9.405 71.872,9.401 71.878,9.399 71.88,9.396 71.877,9.401 71.902,9.413 71.902,9.413 
					71.902,9.412 				"/>
				<polygon fill-rule="evenodd" clip-rule="evenodd" points="71.832,9.25 71.833,9.25 71.842,9.265 71.858,9.281 71.875,9.299 
					71.89,9.319 71.902,9.34 71.91,9.363 71.91,9.39 71.902,9.413 71.877,9.401 71.883,9.386 71.882,9.371 71.876,9.352 
					71.867,9.335 71.853,9.315 71.84,9.301 71.823,9.283 71.81,9.271 71.812,9.271 71.832,9.25 71.832,9.25 				"/>
				<polygon fill-rule="evenodd" clip-rule="evenodd" points="71.593,9.182 71.591,9.18 71.624,9.182 71.657,9.182 71.688,9.188 
					71.718,9.19 71.744,9.199 71.773,9.213 71.802,9.228 71.832,9.25 71.812,9.271 71.784,9.251 71.761,9.238 71.737,9.225 
					71.71,9.219 71.684,9.213 71.654,9.209 71.623,9.208 71.593,9.208 71.594,9.208 71.591,9.183 71.591,9.183 71.593,9.182 				"/>
				<polygon fill-rule="evenodd" clip-rule="evenodd" points="69.081,9.313 69.093,9.305 71.591,9.183 71.594,9.208 69.097,9.333 
					69.109,9.326 69.081,9.313 69.081,9.313 				"/>
				<polygon fill-rule="evenodd" clip-rule="evenodd" points="69.024,9.4 68.996,9.392 68.998,9.373 69.004,9.357 69.011,9.34 
					69.022,9.329 69.034,9.32 69.053,9.314 69.07,9.308 69.093,9.305 69.097,9.333 69.075,9.337 69.058,9.341 69.049,9.343 
					69.04,9.35 69.035,9.357 69.028,9.366 69.024,9.376 69.024,9.395 68.998,9.386 69.024,9.4 69.024,9.4 				"/>
				<g>
					<polygon fill="none" points="69.093,9.307 69.097,9.333 69.093,9.307 					"/>
					<g>
						<polygon fill="none" points="69.024,9.395 69.028,9.378 69.035,9.361 69.043,9.348 69.056,9.34 69.072,9.338 69.094,9.334 
							69.097,9.333 71.594,9.208 71.637,9.211 71.67,9.208 71.705,9.213 71.734,9.22 71.762,9.234 71.785,9.249 71.81,9.271 
							71.837,9.299 71.858,9.326 71.876,9.353 71.886,9.373 71.886,9.386 71.88,9.396 71.861,9.406 71.833,9.414 71.791,9.419 
							69.224,9.551 69.223,9.55 69.187,9.549 69.151,9.539 69.119,9.524 69.09,9.51 69.069,9.486 69.055,9.464 69.04,9.442 
							69.028,9.424 69.025,9.41 						"/>
						<g>
							<path fill="none" d="M69.028,9.378l-0.004,0.016l0.001,0.016l0.003,0.014l0.012,0.018l0.015,0.022l0.015,0.022L69.09,9.51
								l0.029,0.014l0.032,0.015l0.035,0.01l0.036,0.001l0.001,0l2.567-0.131l0.042-0.005l0.028-0.008l0.019-0.01l0.006-0.011V9.373
								l-0.01-0.021l-0.018-0.027l-0.021-0.027L71.81,9.271l-0.024-0.022l-0.023-0.015L71.734,9.22l-0.029-0.007L71.67,9.208
								l-0.033,0.003l-0.043-0.003l-2.497,0.125l-0.003,0l-0.021,0.004L69.056,9.34l-0.013,0.007l-0.008,0.014L69.028,9.378z
								 M69.064,9.363l2.497-0.125V9.234l0.033,0.002h0.033l0.03,0.005l0.03,0.004l0.029,0.008l0.025,0.013l0.028,0.015l0.03,0.022
								l0.01,0.013l0.011,0.009l0.011,0.012l0.005,0.008l0.011,0.012l0.008,0.014l0.009,0.011l0.007,0.011v0.004l-0.026,0.006V9.41
								l-0.005-0.014l-0.008-0.011l-0.009-0.009l-0.009-0.011l-0.007-0.01l-0.008-0.011l-0.01-0.01l-0.014-0.011l0.003-0.001
								l-0.023-0.017L71.732,9.29l-0.023-0.01l-0.025-0.006l-0.029-0.005l-0.03-0.003l-0.031-0.001h-0.03l-2.497,0.123L69.064,9.363
								z"/>
							<g>
								<path fill="none" d="M69.028,9.378l-0.004,0.016l0.001,0.016l0.003,0.014l0.012,0.018l0.015,0.022l0.015,0.022L69.09,9.51
									l0.029,0.014l0.032,0.015l0.035,0.01l0.036,0.001l0.001,0l2.567-0.131l0.042-0.005l0.028-0.008l0.019-0.01l0.006-0.011
									V9.373l-0.01-0.021l-0.018-0.027l-0.021-0.027L71.81,9.271l-0.024-0.022l-0.023-0.015L71.734,9.22l-0.029-0.007L71.67,9.208
									l-0.033,0.003l-0.043-0.003l-2.497,0.125l-0.003,0l-0.021,0.004L69.056,9.34l-0.013,0.007l-0.008,0.014L69.028,9.378z"/>
								<g>
									<polygon fill="none" points="69.035,9.361 69.043,9.348 69.056,9.34 69.072,9.338 69.086,9.335 69.065,9.375 71.562,9.25 
										71.595,9.25 71.624,9.25 71.655,9.256 71.685,9.26 71.711,9.267 71.738,9.277 71.766,9.295 71.792,9.314 71.801,9.326 
										71.81,9.335 71.818,9.346 71.83,9.356 71.837,9.368 71.845,9.379 71.852,9.39 71.858,9.404 71.861,9.407 71.833,9.414 
										71.791,9.419 69.224,9.551 69.223,9.55 69.187,9.549 69.151,9.539 69.119,9.524 69.09,9.51 69.069,9.486 69.055,9.464 
										69.04,9.442 69.028,9.424 69.025,9.41 69.024,9.395 69.028,9.378 									"/>
									<polygon points="71.852,9.39 71.845,9.379 71.837,9.368 71.83,9.356 71.818,9.346 71.81,9.335 71.801,9.326 71.792,9.314 
										71.766,9.295 71.738,9.277 71.711,9.267 71.685,9.26 71.655,9.256 71.624,9.25 71.595,9.25 71.562,9.25 69.065,9.375 
										69.086,9.335 69.094,9.334 69.097,9.333 71.594,9.208 71.637,9.211 71.67,9.208 71.705,9.213 71.734,9.22 71.762,9.234 
										71.785,9.249 71.81,9.271 71.837,9.299 71.858,9.326 71.876,9.353 71.886,9.373 71.886,9.386 71.88,9.396 71.861,9.406 
										71.861,9.407 71.858,9.404 									"/>
									<g>
										<polygon fill="none" points="69.029,9.376 69.033,9.376 69.044,9.376 69.065,9.375 69.086,9.335 69.094,9.334 
											69.097,9.333 71.594,9.208 71.637,9.211 71.67,9.208 71.705,9.213 71.734,9.22 71.762,9.234 71.785,9.249 71.81,9.271 
											71.837,9.299 71.858,9.326 71.876,9.353 71.886,9.373 71.886,9.386 71.88,9.396 71.861,9.406 71.861,9.407 71.833,9.414 
											71.791,9.419 69.224,9.551 69.223,9.55 69.187,9.549 69.151,9.539 69.119,9.524 69.09,9.51 69.069,9.486 69.055,9.464 
											69.04,9.442 69.028,9.424 69.025,9.41 69.024,9.395 69.028,9.378 										"/>
										<path d="M68.996,9.392l0.002,0.023l0.006,0.017l0.007,0.024l0.016,0.026l0.022,0.022l0.025,0.024l0.033,0.021l0.033,0.017
											l0.038,0.01h0.045l2.567-0.131l0.047-0.004l0.034-0.008l0.026-0.018l0.015-0.022l-0.001-0.025l-0.01-0.028l-0.019-0.027
											L71.856,9.28l-0.023-0.03l-0.03-0.025l-0.03-0.018l-0.03-0.014L71.71,9.187L71.674,9.18h-0.04l-0.043,0.003l-2.498,0.122
											v0.002l-0.027,0.001l-0.025,0.01l-0.017,0.016l-0.015,0.019l-0.008,0.017L68.996,9.392z M69.024,9.395l0.004-0.016
											l0.001-0.002h0.004h0.011l0.021-0.002l0.021-0.039l0.008-0.001l0.003,0l2.497-0.125l0.043,0.003l0.033-0.003l0.035,0.005
											l0.029,0.007l0.027,0.014l0.023,0.015l0.024,0.022l0.027,0.028l0.021,0.027l0.018,0.027l0.01,0.021v0.013L71.88,9.396
											l-0.019,0.01v0.001l-0.028,0.007l-0.042,0.005l-2.567,0.131l-0.001,0l-0.036-0.001l-0.035-0.01l-0.032-0.015L69.09,9.51
											l-0.021-0.024l-0.015-0.022L69.04,9.442l-0.012-0.018L69.025,9.41L69.024,9.395z"/>
									</g>
								</g>
							</g>
						</g>
					</g>
				</g>
			</g>
		</g>
		<text transform="matrix(1 0 0 1 65.1387 2.3535)"><tspan x="0" y="0" fill="#121110" font-family="'Arial-BoldMT'" font-size="1.7652">1 Medium Ring</tspan><tspan x="13.434" y="0" fill="#121110" font-family="'Arial-BoldMT'" font-size="1.7652" letter-spacing="4">	</tspan><tspan x="0" y="2.018" fill="#121110" font-family="'Arial-BoldMT'" font-size="1.7652">www.thegamecrafter.com</tspan></text>
	</g>
	<g>
		<text transform="matrix(0.9992 0 0 1 34.4844 41.0518)"><tspan x="0" y="0" fill="#231F20" font-family="'Arial-Black'" font-size="3.8335">   Trim Line</tspan><tspan x="0" y="3.833" fill="#231F20" font-family="'Arial-BoldMT'" font-size="3.1946">This is the actual </tspan><tspan x="0" y="7.667" fill="#231F20" font-family="'Arial-BoldMT'" font-size="3.1946">cutline of your </tspan><tspan x="0" y="11.501" fill="#231F20" font-family="'Arial-BoldMT'" font-size="3.1946">final design.</tspan></text>
		<g>
			<path fill="#C82127" d="M37.856,38.243c0,0.188-0.086,0.371-0.254,0.548l-0.026,0.028l-1.491,1.57
				c-0.319,0.333-0.588,0.59-0.812,0.773c-0.222,0.181-0.379,0.271-0.47,0.271c-0.098,0-0.215-0.044-0.357-0.135
				c-0.145-0.092-0.236-0.187-0.281-0.281c-0.032-0.081-0.065-0.251-0.098-0.513c-0.033-0.259-0.047-0.542-0.047-0.846
				c0-0.166,0.067-0.321,0.207-0.46c0.139-0.142,0.293-0.213,0.457-0.213c0.16,0,0.254,0.145,0.284,0.438
				c0.006,0.033,0.006,0.059,0.009,0.076c0.023,0.223,0.056,0.379,0.088,0.468c0.035,0.088,0.08,0.133,0.139,0.133
				c0.023,0,0.068-0.029,0.133-0.08c0.068-0.052,0.145-0.123,0.237-0.214l1.532-1.519c0.13-0.127,0.246-0.223,0.346-0.29
				c0.1-0.066,0.186-0.099,0.26-0.099c0.051,0,0.089,0.019,0.112,0.059c0.021,0.041,0.033,0.108,0.033,0.204V38.243z"/>
		</g>
		<line fill="none" stroke="#C82127" stroke-width="0.5" x1="33.996" y1="41.734" x2="72.287" y2="41.734"/>
	</g>
</g>
</svg>
