<?xml version="1.0" encoding="UTF-8" standalone="no"?>
<!-- Generator: Adobe Illustrator 16.0.0, SVG Export Plug-In . SVG Version: 6.00 Build 0)  -->

<svg
     version="1.1"
     id="Layer_1"
     x="0px"
     y="0px"
     width="750"
     height="1125"
     viewBox="0 0 750 1125"
     xml:space="preserve"
     sodipodi:docname="MintTinDeck.svg"
     inkscape:version="1.2.2 (732a01da63, 2022-12-09)"
     xmlns:inkscape="http://www.inkscape.org/namespaces/inkscape"
     xmlns:sodipodi="http://sodipodi.sourceforge.net/DTD/sodipodi-0.dtd"
     xmlns="http://www.w3.org/2000/svg"
     xmlns:svg="http://www.w3.org/2000/svg"><defs
     id="defs499" /><sodipodi:namedview
     id="namedview497"
     pagecolor="#ffffff"
     bordercolor="#999999"
     borderopacity="1"
     inkscape:showpageshadow="0"
     inkscape:pageopacity="0"
     inkscape:pagecheckerboard="0"
     inkscape:deskcolor="#d1d1d1"
     showgrid="false"
     inkscape:zoom="0.47546296"
     inkscape:cx="962.22006"
     inkscape:cy="70.457644"
     inkscape:window-width="2560"
     inkscape:window-height="1351"
     inkscape:window-x="1491"
     inkscape:window-y="585"
     inkscape:window-maximized="1"
     inkscape:current-layer="Layer_1" />
<style
     type="text/css"
     id="style2">
<![CDATA[
	.st0{fill:none;stroke:#26AAE1;stroke-miterlimit:10;stroke-dasharray:4,4;}
	.st1{font-size:5.25;}
	.st2{fill:#E7E7E7;}
	.st3{fill:#4D494A;}
	.st4{fill:#EB242B;}
	.st5{fill:none;stroke:#FF0000;stroke-width:0.989;stroke-miterlimit:10;}
	.st6{fill-rule:evenodd;clip-rule:evenodd;fill:#4D494A;}
	.st7{fill:#231F20;}
	.st8{font-family:'Arial-BoldMT';}
	.st9{fill-rule:evenodd;clip-rule:evenodd;fill:#B7D334;}
	.st10{fill:none;stroke:#929497;stroke-width:0.7497;}
	.st11{fill:#F9A61C;}
	.st12{fill:none;stroke:#FF0000;stroke-miterlimit:10;}
	.st13{fill:#929497;}
	.st14{fill:#2DA6DE;}
	.st15{font-size:4.5;}
	.st16{fill:#FFFFFF;}
	.st17{fill:none;}
	.st18{fill:none;stroke:#2DA6DE;stroke-width:0.7497;stroke-dasharray:5;}
	.st19{font-family:'Arial-Black';}
	.st20{fill:#010101;}
	.st21{fill-rule:evenodd;clip-rule:evenodd;fill:#FFFFFF;}
	.st22{fill:none;stroke:#F9A61C;stroke-width:0.7497;}
	.st23{fill-opacity:0.5;}
	.st24{fill-rule:evenodd;clip-rule:evenodd;fill:#010101;}
]]>
</style>


<path
     class="st23"
     d="M 0,0 V 1125 H 750.00001 V 0 Z M 682.08334,939.58334 C 682.08334,1015 621.25,1076.25 546.66667,1076.25 H 203.33333 C 128.75,1076.25 67.916667,1015 67.916667,939.58334 V 185.41667 C 67.916667,110 128.75,48.75 203.33333,48.75 h 343.33334 c 74.58333,0 135.41667,61.25 135.41667,136.66667 z"
     id="path4"
     style="stroke-width:4.16667" /><path
     class="st5"
     d="M 203.33333,1076.25 C 128.75,1076.25 67.916667,1015 67.916667,939.58334 V 185.41667 C 67.916667,110 128.75,48.75 203.33333,48.75 h 343.33334 c 74.58333,0 135.41667,61.25 135.41667,136.66667 v 753.75 c 0,75.41663 -60.83334,136.66663 -135.41667,136.66663 H 203.33333 Z"
     id="path6"
     style="stroke:none" /><path
     class="st0"
     d="m 203.33333,1038.75 c -54.16666,0 -97.91666,-44.58333 -97.91666,-99.16666 V 185.41667 c 0,-54.58334 43.75,-99.166669 97.91666,-99.166669 h 343.33334 c 54.16667,0 97.91667,44.583329 97.91667,99.166669 v 753.75 c 0,54.58334 -43.75,99.16663 -97.91667,99.16663 H 203.33333 Z"
     id="path8"
     style="fill:black;fill-opacity:1;stroke:none;stroke-width:4.16667" />

</svg>
