<?xml version="1.0" encoding="UTF-8" standalone="no"?>
<!-- Created with Inkscape (http://www.inkscape.org/) -->

<svg
     width="3825"
     height="1125"
     viewBox="0 0 3825 1125"
     version="1.1"
     id="svg5"
     xml:space="preserve"
     inkscape:version="1.2.2 (732a01da63, 2022-12-09)"
     sodipodi:docname="MintTinAccordion6.svg"
     xmlns:inkscape="http://www.inkscape.org/namespaces/inkscape"
     xmlns:sodipodi="http://sodipodi.sourceforge.net/DTD/sodipodi-0.dtd"
     xmlns="http://www.w3.org/2000/svg"
     xmlns:svg="http://www.w3.org/2000/svg"><sodipodi:namedview
         id="namedview7"
         pagecolor="#ffffff"
         bordercolor="#999999"
         borderopacity="1"
         inkscape:showpageshadow="0"
         inkscape:pageopacity="0"
         inkscape:pagecheckerboard="0"
         inkscape:deskcolor="#d1d1d1"
         inkscape:document-units="mm"
         showgrid="false"
         inkscape:zoom="0.2287265"
         inkscape:cx="2647.2665"
         inkscape:cy="76.510592"
         inkscape:window-width="2560"
         inkscape:window-height="1351"
         inkscape:window-x="1491"
         inkscape:window-y="585"
         inkscape:window-maximized="1"
         inkscape:current-layer="layer1" /><defs
         id="defs2" /><g
         inkscape:label="Layer 1"
         inkscape:groupmode="layer"
         id="layer1"
         transform="translate(-731.16101,-1573.9321)"><g
             id="g1166"><rect
                 style="fill:#7d567d;stroke-width:5.86988;paint-order:markers fill stroke"
                 id="rect908"
                 width="3825"
                 height="1125"
                 x="731.16101"
                 y="1573.9321" /><g
                 id="g1156"
                 transform="translate(-2.5212393,4.3720289)"><path
                     id="path978"
                     style="color:black;solid-color:black;fill:#a773a7;stroke-width:207.6;stroke-linejoin:round;-inkscape-stroke:none;paint-order:markers fill stroke"
                     d="M 946.92043,1657.3219 A 103.81038,103.81038 0 0 0 843.1216,1761.1227 v 741.875 a 103.81038,103.81038 0 0 0 103.79883,103.8006 h 328.18747 a 103.81038,103.81038 0 0 0 103.7989,-103.8006 v -741.875 a 103.81038,103.81038 0 0 0 -103.7989,-103.8008 z" /><path
                     id="path978-0"
                     style="color:black;solid-color:black;fill:#a773a7;stroke-width:207.6;stroke-linejoin:round;-inkscape-stroke:none;paint-order:markers fill stroke"
                     d="m 1560.9876,1657.3219 a 103.81038,103.81038 0 0 0 -103.7988,103.8008 v 741.875 a 103.81038,103.81038 0 0 0 103.7988,103.8006 h 328.1875 a 103.81038,103.81038 0 0 0 103.7989,-103.8006 v -741.875 a 103.81038,103.81038 0 0 0 -103.7989,-103.8008 z" /><path
                     id="path978-8"
                     style="color:black;solid-color:black;fill:#a773a7;stroke-width:207.6;stroke-linejoin:round;-inkscape-stroke:none;paint-order:markers fill stroke"
                     d="m 2175.0549,1657.3219 a 103.81038,103.81038 0 0 0 -103.7989,103.8008 v 741.875 a 103.81038,103.81038 0 0 0 103.7989,103.8006 h 328.1875 a 103.81038,103.81038 0 0 0 103.7988,-103.8006 v -741.875 a 103.81038,103.81038 0 0 0 -103.7988,-103.8008 z" /><path
                     id="path978-1"
                     style="color:black;solid-color:black;fill:#a773a7;stroke-width:207.6;stroke-linejoin:round;-inkscape-stroke:none;paint-order:markers fill stroke"
                     d="m 2789.1222,1657.3219 a 103.81038,103.81038 0 0 0 -103.7989,103.8008 v 741.875 a 103.81038,103.81038 0 0 0 103.7989,103.8006 h 328.1875 a 103.81038,103.81038 0 0 0 103.7988,-103.8006 v -741.875 a 103.81038,103.81038 0 0 0 -103.7988,-103.8008 z" /><path
                     id="path978-05"
                     style="color:black;solid-color:black;fill:#a773a7;stroke-width:207.6;stroke-linejoin:round;-inkscape-stroke:none;paint-order:markers fill stroke"
                     d="m 3403.1894,1657.3219 a 103.81038,103.81038 0 0 0 -103.7989,103.8008 v 741.875 a 103.81038,103.81038 0 0 0 103.7989,103.8006 h 328.1875 a 103.81038,103.81038 0 0 0 103.7988,-103.8006 v -741.875 a 103.81038,103.81038 0 0 0 -103.7988,-103.8008 z" /><path
                     id="path978-2"
                     style="color:black;solid-color:black;fill:#a773a7;stroke-width:207.6;stroke-linejoin:round;-inkscape-stroke:none;paint-order:markers fill stroke"
                     d="m 4017.2566,1657.3219 a 103.81038,103.81038 0 0 0 -103.7989,103.8008 v 741.875 a 103.81038,103.81038 0 0 0 103.7989,103.8006 h 328.1875 a 103.81038,103.81038 0 0 0 103.7988,-103.8006 v -741.875 a 103.81038,103.81038 0 0 0 -103.7988,-103.8008 z" /></g></g></g></svg>
