<?xml version="1.0" encoding="UTF-8" standalone="no"?>
<!DOCTYPE svg PUBLIC "-//W3C//DTD SVG 1.1//EN" "http://www.w3.org/Graphics/SVG/1.1/DTD/svg11.dtd">
<svg width="100%" height="100%" viewBox="0 0 750 1125" version="1.1" xmlns="http://www.w3.org/2000/svg" xmlns:xlink="http://www.w3.org/1999/xlink" xml:space="preserve" xmlns:serif="http://www.serif.com/" style="fill-rule:evenodd;clip-rule:evenodd;stroke-miterlimit:10;">
    <rect id="Artboard1" x="0" y="0" width="750" height="1125" style="fill:none;"/>
    <clipPath id="_clip1">
        <rect id="Artboard11" serif:id="Artboard1" x="0" y="0" width="750" height="1125"/>
    </clipPath>
    <g clip-path="url(#_clip1)">
        <g id="Layer-1" serif:id="Layer 1" transform="matrix(4.16667,0,0,4.16667,0,0)">
            <g id="Bleed-Zone" serif:id="Bleed Zone" opacity="0.5">
                <g transform="matrix(1,0,0,1,163.701,44.5369)">
                    <path d="M0,180.926C0,199.036 -14.576,213.771 -32.492,213.771L-114.909,213.771C-132.826,213.771 -147.401,199.036 -147.401,180.926L-147.401,-0C-147.401,-18.109 -132.826,-32.844 -114.909,-32.844L-32.492,-32.844C-14.576,-32.844 0,-18.109 0,-0L0,180.926ZM-163.701,225.463L16.299,225.463L16.299,-44.537L-163.701,-44.537L-163.701,225.463Z" style="fill-rule:nonzero;"/>
                </g>
            </g>
            <g id="Trim-Line" serif:id="Trim Line" transform="matrix(1,0,0,1,48.792,11.6936)">
                <path d="M0,246.614C-17.917,246.614 -32.493,231.88 -32.493,213.769L-32.493,32.843C-32.493,14.734 -17.917,0 0,0L82.417,0C100.333,0 114.909,14.734 114.909,32.843L114.909,213.769C114.909,231.88 100.333,246.614 82.417,246.614L0,246.614Z" style="fill:none;fill-rule:nonzero;stroke:rgb(255,0,0);stroke-width:0.99px;"/>
            </g>
            <g id="Safe-Zone" serif:id="Safe Zone" transform="matrix(1,0,0,1,48.792,20.6936)">
                <path d="M0,228.614C-12.954,228.614 -23.493,217.918 -23.493,204.769L-23.493,23.843C-23.493,10.696 -12.954,0 0,0L82.417,0C95.37,0 105.909,10.696 105.909,23.843L105.909,204.769C105.909,217.918 95.37,228.614 82.417,228.614L0,228.614Z" style="fill:none;fill-rule:nonzero;stroke:rgb(38,170,225);stroke-width:1px;stroke-dasharray:4,4;"/>
            </g>
            <g id="Info">
                <g transform="matrix(-1,0,0,1,180,-181.247)">
                    <rect x="31.5" y="214.747" width="117" height="21.753" style="fill:rgb(231,231,231);"/>
                </g>
                <g transform="matrix(-1,0,0,1,327.402,55.139)">
                    <rect x="154.701" y="97.649" width="18" height="19.563" style="fill:rgb(249,166,28);"/>
                </g>
                <g transform="matrix(1,0,0,1,-5.21077,0)">
                    <g transform="matrix(0.999067,0,0,1,0.123066,0)">
                        <text x="131.857px" y="63.03px" style="font-family:'Arial-Black', 'Arial Black', sans-serif;font-weight:900;font-size:4.5px;fill:rgb(35,31,32);">Safe Zone</text>
                    </g>
                    <g transform="matrix(0.999067,0,0,1,0.047217,0)">
                        <text x="50.59px" y="67.98px" style="font-family:'Arial-BoldMT', 'Arial', sans-serif;font-weight:700;font-size:4.5px;fill:rgb(45,166,222);">DO NOT place <tspan x="81.931px 85.181px " y="67.98px 67.98px ">AN</tspan>Y important text/images beyond</text>
                    </g>
                    <g transform="matrix(0.999067,0,0,1,0.0562382,0)">
                        <text x="60.255px" y="72.93px" style="font-family:'Arial-BoldMT', 'Arial', sans-serif;font-weight:700;font-size:4.5px;fill:rgb(45,166,222);">this dotted line. <tspan x="94.595px 97.845px " y="72.93px 72.93px ">An</tspan>ything past the dotted line</text>
                    </g>
                    <g transform="matrix(0.999067,0,0,1,0.0518716,0)">
                        <text x="55.577px" y="77.88px" style="font-family:'Arial-BoldMT', 'Arial', sans-serif;font-weight:700;font-size:4.5px;fill:rgb(45,166,222);">has the potential for being trimmed. This line is</text>
                    </g>
                    <g transform="matrix(0.999067,0,0,1,0.0469846,0)">
                        <text x="50.341px" y="82.83px" style="font-family:'Arial-BoldMT', 'Arial', sans-serif;font-weight:700;font-size:4.5px;fill:rgb(45,166,222);">provided to prevent trimming of your text/images.</text>
                    </g>
                    <g transform="matrix(0.999067,0,0,1,0.12458,0)">
                        <text x="133.479px" y="92.73px" style="font-family:'Arial-Black', 'Arial Black', sans-serif;font-weight:900;font-size:4.5px;fill:rgb(35,31,32);">T<tspan x="136.535px 138.533px " y="92.73px 92.73px ">ri</tspan>m Line</text>
                    </g>
                    <g transform="matrix(0.999067,0,0,1,0.0563019,0)">
                        <text x="60.323px" y="97.68px" style="font-family:'Arial-BoldMT', 'Arial', sans-serif;font-weight:700;font-size:4.5px;fill:rgb(235,36,43);">This is the actual cutline of your ﬁnal design.</text>
                    </g>
                    <g transform="matrix(0.999067,0,0,1,0.120196,0)">
                        <text x="128.782px" y="107.58px" style="font-family:'Arial-Black', 'Arial Black', sans-serif;font-weight:900;font-size:4.5px;fill:rgb(35,31,32);">Bleed Zone</text>
                    </g>
                    <g transform="matrix(0.999067,0,0,1,0.0618985,0)">
                        <text x="77.579px" y="112.53px" style="font-family:'Arial-BoldMT', 'Arial', sans-serif;font-weight:700;font-size:4.5px;fill:rgb(146,148,151);">Extend any artwork/color to the edge</text>
                    </g>
                    <g transform="matrix(0.999067,0,0,1,0.0551458,0)">
                        <text x="59.085px" y="117.48px" style="font-family:'Arial-BoldMT', 'Arial', sans-serif;font-weight:700;font-size:4.5px;fill:rgb(146,148,151);">(covering the gray) if you want your design to</text>
                    </g>
                    <g transform="matrix(0.999067,0,0,1,0.04752,0)">
                        <text x="50.914px" y="122.43px" style="font-family:'Arial-BoldMT', 'Arial', sans-serif;font-weight:700;font-size:4.5px;fill:rgb(146,148,151);">extend to the edge on the ﬁnal print. We require a</text>
                    </g>
                    <g transform="matrix(0.999067,0,0,1,0.0485964,0)">
                        <text x="52.068px" y="127.38px" style="font-family:'Arial-BoldMT', 'Arial', sans-serif;font-weight:700;font-size:4.5px;fill:rgb(146,148,151);">bleed of 1/8”. Please use the Safe Zone guideline</text>
                    </g>
                    <g transform="matrix(0.999067,0,0,1,0.0570041,0)">
                        <text x="61.076px" y="132.33px" style="font-family:'Arial-BoldMT', 'Arial', sans-serif;font-weight:700;font-size:4.5px;fill:rgb(146,148,151);">to prevent trimming of essential text/images.</text>
                    </g>
                    <g transform="matrix(0.999067,0,0,1,0.0583993,0)">
                        <text x="62.571px" y="137.28px" style="font-family:'Arial-BoldMT', 'Arial', sans-serif;font-weight:700;font-size:4.5px;fill:rgb(146,148,151);">The bleed is to make sure your design/color</text>
                    </g>
                    <g transform="matrix(0.999067,0,0,1,0.0784581,0)">
                        <text x="84.062px" y="141.78px" style="font-family:'Arial-BoldMT', 'Arial', sans-serif;font-weight:700;font-size:4.5px;fill:rgb(146,148,151);">extends to the edge of the sticker<tspan x="155.332px " y="141.78px ">.</tspan></text>
                    </g>
                    <g transform="matrix(0.999067,0,0,1,0.118397,0)">
                        <text x="126.854px" y="151.68px" style="font-family:'Arial-Black', 'Arial Black', sans-serif;font-weight:900;font-size:4.5px;fill:rgb(35,31,32);">Bor<tspan x="135.466px 138.467px " y="151.68px 151.68px ">de</tspan>r Area</text>
                    </g>
                    <g transform="matrix(0.999067,0,0,1,0.0612069,0)">
                        <text x="65.579px" y="156.63px" style="font-family:'Arial-BoldMT', 'Arial', sans-serif;font-weight:700;font-size:4.5px;fill:rgb(249,166,28);">This is the minimum recommended border</text>
                    </g>
                    <g transform="matrix(0.999067,0,0,1,0.061435,0)">
                        <text x="65.823px" y="161.58px" style="font-family:'Arial-BoldMT', 'Arial', sans-serif;font-weight:700;font-size:4.5px;fill:rgb(249,166,28);">area. If you want a border around the edge</text>
                    </g>
                    <g transform="matrix(0.999067,0,0,1,0.0653945,0)">
                        <text x="70.065px" y="166.53px" style="font-family:'Arial-BoldMT', 'Arial', sans-serif;font-weight:700;font-size:4.5px;fill:rgb(249,166,28);">of your sticker<tspan x="100.831px 102.082px " y="166.53px 166.53px ">, </tspan>you will want it to extend</text>
                    </g>
                    <g transform="matrix(0.999067,0,0,1,0.046742,0)">
                        <text x="50.081px" y="171.48px" style="font-family:'Arial-BoldMT', 'Arial', sans-serif;font-weight:700;font-size:4.5px;fill:rgb(249,166,28);">the width of this guide on each side of the sticker<tspan x="155.363px " y="171.48px ">.</tspan></text>
                    </g>
                </g>
                <g>
                    <g transform="matrix(0.999067,0,0,1,0.0326124,0)">
                        <text x="34.942px" y="39.589px" style="font-family:'Arial-BoldMT', 'Arial', sans-serif;font-weight:700;font-size:5.25px;fill:rgb(35,31,32);">MINT TIN STICKER TEMPLA<tspan x="104.845px 108.052px " y="39.589px 39.589px ">TE</tspan></text>
                    </g>
                    <g transform="matrix(0.999067,0,0,1,0.0326124,0)">
                        <text x="34.942px" y="45.589px" style="font-family:'Arial-BoldMT', 'Arial', sans-serif;font-weight:700;font-size:5.25px;fill:rgb(35,31,32);">52 mm x 87 mm</text>
                    </g>
                    <g transform="matrix(0.999067,0,0,1,0.0326124,0)">
                        <text x="34.942px" y="51.589px" style="font-family:'Arial-BoldMT', 'Arial', sans-serif;font-weight:700;font-size:5.25px;fill:rgb(35,31,32);">w<tspan x="39.288px 43.634px 47.785px 49.506px 51.517px 54.986px 58.169px 61.638px 64.82px 69.751px 72.933px 76.116px 78.421px 81.603px 83.614px 85.625px 88.807px 90.823px 92.544px 95.726px 99.196px " y="51.589px 51.589px 51.589px 51.589px 51.589px 51.589px 51.589px 51.589px 51.589px 51.589px 51.589px 51.589px 51.589px 51.589px 51.589px 51.589px 51.589px 51.589px 51.589px 51.589px 51.589px ">ww.thegamecrafter.com</tspan></text>
                    </g>
                </g>
                <g transform="matrix(1,0,0,1,121.709,153.161)">
                    <path d="M0,0L48.165,0" style="fill:none;fill-rule:nonzero;stroke:rgb(249,166,28);stroke-width:0.75px;stroke-miterlimit:4;"/>
                </g>
                <g transform="matrix(1,0,0,1,127.478,93.5928)">
                    <path d="M0,0L36.75,0" style="fill:none;fill-rule:nonzero;stroke:rgb(255,0,0);stroke-width:1px;"/>
                </g>
                <g transform="matrix(1,0,0,1,123.608,108.531)">
                    <path d="M0,0L46.832,0" style="fill:none;fill-rule:nonzero;stroke:rgb(146,148,151);stroke-width:0.75px;stroke-miterlimit:4;"/>
                </g>
                <g transform="matrix(1,0,0,1,122.768,63.7803)">
                    <path d="M0,0L31.933,0" style="fill:none;fill-rule:nonzero;stroke:rgb(45,166,222);stroke-width:0.75px;stroke-miterlimit:4;stroke-dasharray:5,5;"/>
                </g>
                <g transform="matrix(1,0,0,1,126.78,63.2501)">
                    <path d="M0,-4.67C0,-4.362 -0.14,-4.061 -0.419,-3.769L-0.463,-3.725L-2.904,-1.149C-3.423,-0.604 -3.865,-0.183 -4.229,0.115C-4.595,0.414 -4.853,0.562 -5.002,0.562C-5.16,0.562 -5.356,0.488 -5.592,0.34C-5.825,0.19 -5.977,0.037 -6.046,-0.121C-6.104,-0.254 -6.158,-0.533 -6.21,-0.96C-6.261,-1.387 -6.286,-1.851 -6.286,-2.349C-6.286,-2.62 -6.173,-2.871 -5.947,-3.103C-5.72,-3.333 -5.47,-3.448 -5.196,-3.448C-4.935,-3.448 -4.78,-3.209 -4.73,-2.733C-4.725,-2.677 -4.721,-2.636 -4.718,-2.609C-4.676,-2.243 -4.627,-1.987 -4.572,-1.842C-4.517,-1.697 -4.441,-1.625 -4.347,-1.625C-4.308,-1.625 -4.233,-1.667 -4.125,-1.753C-4.018,-1.839 -3.888,-1.955 -3.738,-2.104L-1.229,-4.591C-1.018,-4.802 -0.83,-4.961 -0.664,-5.069C-0.498,-5.178 -0.357,-5.232 -0.241,-5.232C-0.153,-5.232 -0.093,-5.198 -0.055,-5.133C-0.019,-5.067 0,-4.956 0,-4.801L0,-4.67Z" style="fill:rgb(235,36,43);fill-rule:nonzero;"/>
                </g>
                <g transform="matrix(1,0,0,1,127.69,92.4815)">
                    <path d="M0,-4.67C0,-4.361 -0.14,-4.061 -0.419,-3.769L-0.463,-3.725L-2.904,-1.15C-3.423,-0.605 -3.865,-0.183 -4.229,0.115C-4.595,0.414 -4.853,0.562 -5.002,0.562C-5.16,0.562 -5.356,0.488 -5.591,0.339C-5.825,0.19 -5.977,0.036 -6.046,-0.122C-6.104,-0.254 -6.158,-0.533 -6.21,-0.96C-6.261,-1.388 -6.286,-1.851 -6.286,-2.349C-6.286,-2.62 -6.173,-2.871 -5.947,-3.102C-5.72,-3.333 -5.47,-3.447 -5.196,-3.447C-4.935,-3.447 -4.779,-3.21 -4.729,-2.733C-4.724,-2.677 -4.721,-2.636 -4.718,-2.609C-4.676,-2.243 -4.627,-1.987 -4.572,-1.842C-4.517,-1.697 -4.441,-1.625 -4.347,-1.625C-4.307,-1.625 -4.233,-1.667 -4.125,-1.753C-4.018,-1.839 -3.888,-1.955 -3.737,-2.104L-1.229,-4.591C-1.018,-4.802 -0.83,-4.961 -0.664,-5.069C-0.498,-5.178 -0.357,-5.232 -0.241,-5.232C-0.153,-5.232 -0.092,-5.198 -0.055,-5.133C-0.019,-5.067 0,-4.956 0,-4.801L0,-4.67Z" style="fill:rgb(235,36,43);fill-rule:nonzero;"/>
                </g>
                <g transform="matrix(1,0,0,1,123.569,107.031)">
                    <path d="M0,-4.67C0,-4.361 -0.14,-4.061 -0.419,-3.768L-0.463,-3.724L-2.904,-1.149C-3.423,-0.604 -3.865,-0.182 -4.229,0.116C-4.595,0.414 -4.853,0.562 -5.002,0.562C-5.16,0.562 -5.356,0.489 -5.591,0.34C-5.825,0.19 -5.977,0.037 -6.046,-0.121C-6.104,-0.253 -6.158,-0.532 -6.21,-0.96C-6.261,-1.387 -6.286,-1.85 -6.286,-2.348C-6.286,-2.619 -6.173,-2.871 -5.947,-3.102C-5.72,-3.332 -5.47,-3.447 -5.196,-3.447C-4.935,-3.447 -4.78,-3.208 -4.73,-2.732C-4.725,-2.676 -4.721,-2.636 -4.718,-2.608C-4.676,-2.242 -4.627,-1.986 -4.572,-1.842C-4.517,-1.696 -4.441,-1.624 -4.347,-1.624C-4.307,-1.624 -4.233,-1.667 -4.125,-1.752C-4.018,-1.838 -3.888,-1.954 -3.738,-2.104L-1.229,-4.591C-1.018,-4.802 -0.83,-4.96 -0.664,-5.069C-0.498,-5.177 -0.357,-5.232 -0.241,-5.232C-0.153,-5.232 -0.093,-5.197 -0.055,-5.133C-0.019,-5.066 0,-4.955 0,-4.8L0,-4.67Z" style="fill:rgb(235,36,43);fill-rule:nonzero;"/>
                </g>
                <g transform="matrix(1,0,0,1,121.535,152.483)">
                    <path d="M0,-4.671C0,-4.362 -0.14,-4.062 -0.419,-3.769L-0.463,-3.724L-2.904,-1.15C-3.423,-0.605 -3.865,-0.183 -4.229,0.115C-4.595,0.414 -4.853,0.561 -5.002,0.561C-5.16,0.561 -5.356,0.486 -5.592,0.339C-5.825,0.189 -5.977,0.036 -6.046,-0.122C-6.104,-0.254 -6.158,-0.534 -6.21,-0.96C-6.261,-1.388 -6.286,-1.852 -6.286,-2.35C-6.286,-2.62 -6.173,-2.872 -5.947,-3.102C-5.72,-3.334 -5.47,-3.448 -5.196,-3.448C-4.935,-3.448 -4.78,-3.21 -4.73,-2.733C-4.725,-2.677 -4.721,-2.637 -4.718,-2.609C-4.676,-2.244 -4.627,-1.987 -4.572,-1.842C-4.517,-1.697 -4.441,-1.626 -4.347,-1.626C-4.308,-1.626 -4.233,-1.667 -4.125,-1.755C-4.018,-1.839 -3.888,-1.957 -3.738,-2.104L-1.229,-4.592C-1.018,-4.803 -0.83,-4.963 -0.664,-5.069C-0.498,-5.178 -0.357,-5.232 -0.241,-5.232C-0.154,-5.232 -0.093,-5.2 -0.055,-5.134C-0.019,-5.068 0,-4.957 0,-4.802L0,-4.671Z" style="fill:rgb(235,36,43);fill-rule:nonzero;"/>
                </g>
                <g transform="matrix(-1,0,0,1,180.001,163.2)">
                    <rect x="31.713" y="33.025" width="116.575" height="40.75" style="fill:rgb(231,231,231);"/>
                </g>
                <g>
                    <g transform="matrix(0.999067,0,0,1,0.0971419,0)">
                        <text x="104.081px" y="204.666px" style="font-family:'Arial-Black', 'Arial Black', sans-serif;font-weight:900;font-size:4.5px;fill:rgb(35,31,32);">PLEASE NO<tspan x="132.46px 135.709px " y="204.666px 204.666px ">TE</tspan>:</text>
                    </g>
                    <g transform="matrix(0.999067,0,0,1,0.0727501,0)">
                        <text x="77.947px" y="210.066px" style="font-family:'Arial-Black', 'Arial Black', sans-serif;font-weight:900;font-size:4.5px;fill:rgb(35,31,32);">R<tspan x="81.335px 84.336px 88.837px 91.684px 94.317px 97.318px " y="210.066px 210.066px 210.066px 210.066px 210.066px 210.066px ">emove </tspan>this layer before</text>
                    </g>
                    <g transform="matrix(0.999067,0,0,1,0.0746509,0)">
                        <text x="79.983px" y="215.466px" style="font-family:'Arial-Black', 'Arial Black', sans-serif;font-weight:900;font-size:4.5px;fill:rgb(35,31,32);">sending the ﬁle to print.</text>
                    </g>
                    <g transform="matrix(0.999067,0,0,1,0.0695569,0)">
                        <text x="74.525px" y="220.866px" style="font-family:'Arial-Black', 'Arial Black', sans-serif;font-weight:900;font-size:4.5px;fill:rgb(35,31,32);">T<tspan x="77.896px 80.898px " y="220.866px 220.866px ">hi</tspan>s layer is pro<tspan x="113.991px 116.74px " y="220.866px 220.866px ">vi</tspan>ded as a</text>
                    </g>
                    <g transform="matrix(0.999067,0,0,1,0.0925052,0)">
                        <text x="99.113px" y="226.266px" style="font-family:'Arial-Black', 'Arial Black', sans-serif;font-weight:900;font-size:4.5px;fill:rgb(35,31,32);">guide for set up.</text>
                    </g>
                    <g transform="matrix(0.999067,0,0,1,0.067077,0)">
                        <text x="71.868px" y="231.666px" style="font-family:'Arial-Black', 'Arial Black', sans-serif;font-weight:900;font-size:4.5px;fill:rgb(35,31,32);">DELETE LA<tspan x="98.988px 102.488px " y="231.666px 231.666px ">YE</tspan>R AFTER USE.</text>
                    </g>
                </g>
                <g transform="matrix(1,0,0,1,103.937,205.068)">
                    <path d="M0,-4.668C0,-4.361 -0.14,-4.06 -0.419,-3.768L-0.463,-3.724L-2.904,-1.148C-3.423,-0.604 -3.865,-0.182 -4.229,0.117C-4.595,0.414 -4.853,0.563 -5.002,0.563C-5.16,0.563 -5.356,0.489 -5.592,0.34C-5.825,0.191 -5.977,0.037 -6.046,-0.12C-6.104,-0.253 -6.158,-0.532 -6.21,-0.96C-6.261,-1.386 -6.286,-1.849 -6.286,-2.347C-6.286,-2.62 -6.173,-2.869 -5.947,-3.102C-5.72,-3.331 -5.47,-3.447 -5.196,-3.447C-4.935,-3.447 -4.78,-3.209 -4.73,-2.731C-4.725,-2.676 -4.721,-2.635 -4.718,-2.608C-4.676,-2.241 -4.627,-1.986 -4.572,-1.842C-4.517,-1.696 -4.441,-1.624 -4.347,-1.624C-4.308,-1.624 -4.233,-1.667 -4.125,-1.752C-4.018,-1.838 -3.888,-1.954 -3.738,-2.102L-1.229,-4.59C-1.018,-4.801 -0.83,-4.961 -0.664,-5.068C-0.498,-5.177 -0.357,-5.231 -0.241,-5.231C-0.154,-5.231 -0.093,-5.197 -0.055,-5.132C-0.019,-5.065 0,-4.955 0,-4.799L0,-4.668Z" style="fill:rgb(235,36,43);fill-rule:nonzero;"/>
                </g>
                <g transform="matrix(0,-1,-1,0,51.6433,198.237)">
                    <path d="M-17.969,-17.97C-27.901,-17.97 -35.954,-9.925 -35.954,-0.001C-35.954,9.922 -27.901,17.969 -17.969,17.969C-8.034,17.969 0.016,9.922 0.016,-0.001C0.016,-9.925 -8.034,-17.97 -17.969,-17.97" style="fill:rgb(1,1,1);"/>
                </g>
                <g transform="matrix(0,-1,-1,0,51.6557,199.97)">
                    <path d="M-16.334,-16.336C-25.364,-16.336 -32.686,-9.024 -32.686,-0.001C-32.686,9.02 -25.364,16.334 -16.334,16.334C-7.304,16.334 0.016,9.02 0.016,-0.001C0.016,-9.024 -7.304,-16.336 -16.334,-16.336" style="fill:rgb(183,211,52);"/>
                </g>
                <g transform="matrix(1,0,0,1,48.1597,211.15)">
                    <path d="M0,1.59C-0.227,3.594 -0.396,5.204 -0.508,6.418L-1.252,6.451C-1.242,6.411 -1.236,6.365 -1.234,6.315C-1.233,6.224 -1.268,6.104 -1.335,5.955C-1.404,5.807 -1.443,5.712 -1.452,5.672C-1.645,5.699 -1.83,5.834 -2.006,6.072C-2.183,6.313 -2.342,6.433 -2.483,6.431C-2.564,6.427 -2.655,6.406 -2.756,6.365C-2.889,6.453 -3.062,6.491 -3.274,6.479C-3.466,6.444 -3.653,6.416 -3.835,6.393C-3.842,6.138 -4.09,5.916 -4.584,5.726C-4.581,5.623 -4.633,5.474 -4.735,5.274C-4.839,5.074 -4.889,4.935 -4.887,4.854C-4.887,4.762 -4.85,4.687 -4.777,4.627C-4.787,4.597 -4.871,4.407 -5.025,4.059C-5.133,3.804 -5.186,3.585 -5.183,3.403C-5.18,3.262 -5.147,3.131 -5.084,3.01C-5.171,2.147 -5.209,1.404 -5.198,0.787C-5.183,-0.166 -5.047,-1.041 -4.789,-1.838C-4.807,-1.961 -4.815,-2.082 -4.814,-2.203C-4.803,-2.842 -4.582,-3.284 -4.153,-3.531L-4.149,-3.728C-3.725,-4.269 -3.166,-4.66 -2.474,-4.901C-2.059,-4.803 -1.646,-4.71 -1.232,-4.621C-0.769,-4.462 -0.449,-4.187 -0.273,-3.799C-0.134,-3.715 -0.064,-3.547 -0.069,-3.295C-0.074,-3.01 -0.041,-2.826 0.027,-2.744L-0.051,-2.655C0.031,-2.055 0.07,-1.689 0.068,-1.557C0.062,-1.172 -0.039,-0.9 -0.234,-0.741C-0.305,-0.742 -0.492,-0.806 -0.793,-0.933C-0.865,-0.863 -0.942,-0.829 -1.023,-0.83C-1.063,-0.831 -1.137,-0.853 -1.242,-0.895C-1.348,-0.938 -1.437,-0.959 -1.508,-0.96C-1.558,-0.961 -1.609,-0.952 -1.659,-0.933C-1.666,-1.733 -1.641,-2.331 -1.584,-2.726C-1.664,-2.778 -1.745,-2.898 -1.828,-3.08C-1.912,-3.264 -2.019,-3.367 -2.148,-3.39C-2.232,-3.289 -2.27,-3.224 -2.26,-3.193L-2.531,-3.289C-2.779,-3.019 -2.943,-2.551 -3.025,-1.884C-3.109,-1.114 -3.215,-0.605 -3.34,-0.353C-3.23,-0.239 -3.178,-0.081 -3.182,0.121C-3.183,0.192 -3.194,0.309 -3.218,0.47C-3.242,0.632 -3.253,0.754 -3.254,0.835C-3.256,0.927 -3.248,1.008 -3.229,1.079L-3.413,1.258C-3.339,1.604 -3.295,2.041 -3.283,2.569C-3.291,3.015 -3.294,3.461 -3.291,3.906C-3.301,3.906 -3.388,3.91 -3.549,3.918C-3.65,3.916 -3.723,3.95 -3.764,4.021C-3.703,4.012 -3.647,4.006 -3.598,4.009C-3.375,4.012 -3.199,4.17 -3.074,4.481C-2.946,4.792 -2.838,4.949 -2.746,4.951C-2.646,4.952 -2.508,4.859 -2.332,4.667C-2.033,4.349 -1.878,3.91 -1.869,3.354C-1.863,3.079 -1.895,2.785 -1.96,2.47C-2.031,2.508 -2.069,2.61 -2.071,2.772C-2.234,2.77 -2.336,2.803 -2.378,2.872C-2.447,2.851 -2.478,2.794 -2.466,2.705C-2.453,2.573 -2.447,2.501 -2.447,2.491C-2.324,2.453 -2.264,2.399 -2.262,2.327C-2.262,2.297 -2.283,2.24 -2.328,2.158C-2.371,2.077 -2.393,2.012 -2.393,1.959C-2.392,1.919 -2.38,1.879 -2.359,1.838L-2.289,1.246C-2.066,1.312 -1.587,1.34 -0.846,1.333C-0.868,1.382 -0.838,1.449 -0.759,1.531C-0.687,1.461 -0.611,1.426 -0.529,1.429C-0.469,1.431 -0.378,1.457 -0.258,1.51C-0.137,1.563 -0.052,1.589 0,1.59" style="fill:rgb(1,1,1);fill-rule:nonzero;"/>
                </g>
                <g transform="matrix(1,0,0,1,53.8296,206.75)">
                    <path d="M0,11.227C-0.141,11.164 -0.292,11.131 -0.453,11.128C-0.596,11.125 -0.789,11.153 -1.033,11.21C-1.308,11.265 -1.496,11.297 -1.597,11.306C-1.705,11.092 -1.78,10.796 -1.824,10.42C-1.906,9.872 -1.957,9.562 -1.977,9.49C-1.944,9.429 -1.928,9.378 -1.928,9.339C-1.926,9.227 -2.014,9.126 -2.189,9.037C-2.365,8.949 -2.452,8.878 -2.451,8.828C-2.45,8.767 -2.348,8.678 -2.144,8.559C-2.192,8.498 -2.229,8.373 -2.251,8.186C-2.271,7.998 -2.318,7.873 -2.389,7.81C-2.512,7.919 -2.713,7.99 -2.992,8.02C-3.271,8.052 -3.457,8.096 -3.549,8.155C-3.543,8.946 -3.673,9.477 -3.94,9.746C-4.082,9.712 -4.189,9.767 -4.263,9.908C-4.367,10.079 -4.455,10.178 -4.525,10.207L-4.437,10.315C-4.52,10.384 -4.652,10.414 -4.834,10.4C-5.117,10.384 -5.269,10.377 -5.289,10.377L-5.375,10.101L-4.385,1.89C-4.376,1.373 -4.35,1.022 -4.307,0.841C-4.32,0.384 -4.213,0.103 -3.988,-0.004C-3.848,0.088 -3.672,0.137 -3.459,0.141C-3.287,0.144 -3.018,0.109 -2.652,0.033C-2.285,-0.042 -2.032,-0.079 -1.891,-0.077C-1.395,-0.067 -1.178,0.29 -1.24,0.999C-1.289,1.567 -1.201,2.314 -0.975,3.241C-0.738,4.239 -0.623,4.986 -0.632,5.483C-0.635,5.633 -0.585,5.95 -0.598,6.101C-0.812,6.218 -1.086,6.29 -1.422,6.315C-1.715,6.331 -2.015,6.347 -2.318,6.36C-2.396,5.588 -2.533,4.659 -2.611,3.897C-2.707,2.983 -2.825,2.231 -2.969,1.639L-3.438,5.982C-3.473,6.357 -3.304,6.547 -2.93,6.554C-2.808,6.555 -2.691,6.528 -2.578,6.468C-2.486,6.44 -2.361,6.507 -2.202,6.672C-2.208,6.987 -2.145,7.175 -2.014,7.238C-1.85,7.129 -1.636,7.027 -1.371,6.929C-1.137,6.842 -0.906,6.76 -0.682,6.683C-0.555,6.858 -0.473,7.117 -0.437,7.462C-0.396,7.951 -0.363,8.235 -0.346,8.316C-0.328,8.509 -0.25,8.926 -0.109,9.568C-0.006,10.076 0.043,10.487 0.038,10.802C0.035,10.955 0.021,11.095 0,11.227" style="fill:rgb(1,1,1);fill-rule:nonzero;"/>
                </g>
                <g transform="matrix(1,0,0,1,60.8257,213.872)">
                    <path d="M0,-3.138C-0.01,-3.107 -0.014,-2.93 -0.008,-2.606C-0.014,-2.343 -0.047,-2.145 -0.109,-2.015C-0.185,-1.812 -0.225,-1.523 -0.23,-1.15C-0.232,-1.068 -0.229,-0.941 -0.222,-0.769C-0.226,-0.596 -0.227,-0.469 -0.228,-0.388C-0.239,0.25 -0.348,0.714 -0.557,1.005C-0.539,1.169 -0.531,1.331 -0.533,1.493C-0.541,1.999 -0.716,2.681 -1.055,3.538C-1.146,3.567 -1.223,3.58 -1.284,3.579C-1.406,3.576 -1.492,3.506 -1.547,3.368C-1.6,3.231 -1.65,3.1 -1.698,2.978C-1.666,2.199 -1.682,1.062 -1.748,-0.429L-1.655,-0.52C-1.722,-0.784 -1.751,-1.077 -1.746,-1.402C-1.742,-1.636 -1.713,-1.975 -1.66,-2.42C-1.607,-2.867 -1.579,-3.2 -1.576,-3.423C-1.572,-3.565 -1.576,-3.701 -1.582,-3.833C-1.932,-2.997 -2.178,-1.583 -2.323,0.412L-2.451,0.714C-2.493,0.815 -2.58,0.87 -2.711,0.878C-2.75,0.807 -2.791,0.77 -2.83,0.769C-2.861,0.767 -2.916,0.804 -2.992,0.881C-3.07,0.954 -3.135,0.987 -3.184,0.976L-3.385,1.154C-3.296,1.268 -3.104,1.282 -2.808,1.196C-2.574,1.129 -2.454,1.217 -2.447,1.46C-2.441,1.663 -2.496,1.935 -2.613,2.278C-2.731,2.621 -2.791,2.879 -2.794,3.051C-2.796,3.174 -2.783,3.295 -2.755,3.416L-3.806,3.581C-3.904,3.377 -3.977,3.034 -4.024,2.55C-4.07,2.069 -4.145,1.725 -4.242,1.521C-4.181,1.452 -4.148,1.377 -4.147,1.294C-4.146,1.223 -4.174,1.116 -4.233,0.973C-4.291,0.831 -4.324,0.723 -4.334,0.651C-4.342,0.541 -4.377,0.27 -4.441,-0.156C-4.486,-0.5 -4.508,-0.772 -4.504,-0.962C-4.502,-1.065 -4.495,-1.156 -4.484,-1.237C-4.482,-1.308 -4.523,-1.411 -4.601,-1.551C-4.679,-1.689 -4.718,-1.788 -4.717,-1.849C-4.715,-1.9 -4.695,-1.945 -4.654,-1.985C-4.724,-2.068 -4.752,-2.209 -4.738,-2.411C-4.725,-2.615 -4.753,-2.757 -4.821,-2.838C-4.971,-2.447 -5.05,-1.915 -5.062,-1.247C-5.066,-0.315 -5.076,0.224 -5.088,0.365L-4.984,0.459L-5.092,0.548C-5.018,0.914 -4.984,1.382 -4.994,1.948C-5.021,2.972 -5.035,3.449 -5.033,3.38C-5.178,3.508 -5.376,3.57 -5.63,3.565C-5.943,3.561 -6.156,3.588 -6.27,3.645C-6.396,3.421 -6.459,3.131 -6.451,2.776C-6.447,2.503 -6.4,2.169 -6.312,1.774C-6.451,1.518 -6.516,1.163 -6.508,0.706C-6.506,0.594 -6.492,0.383 -6.467,0.068C-6.451,-0.184 -6.449,-0.373 -6.456,-0.493C-6.355,-0.543 -6.303,-0.597 -6.303,-0.659C-6.301,-0.699 -6.332,-0.769 -6.397,-0.867C-6.462,-0.962 -6.494,-1.036 -6.492,-1.088C-6.491,-1.15 -6.45,-1.208 -6.368,-1.269L-6.695,-6.187C-6.5,-6.316 -6.186,-6.376 -5.751,-6.368C-5.275,-6.35 -4.949,-6.375 -4.776,-6.443C-4.744,-6.463 -4.709,-6.472 -4.67,-6.472C-4.627,-6.47 -4.58,-6.448 -4.525,-6.401C-4.471,-6.355 -4.434,-6.33 -4.413,-6.33C-4.373,-6.33 -4.336,-6.361 -4.305,-6.421L-4.021,-6.141C-3.926,-5.784 -3.836,-5.093 -3.752,-4.069C-3.666,-3.185 -3.531,-2.518 -3.345,-2.069C-3.097,-2.966 -2.893,-3.719 -2.729,-4.324L-2.399,-6.732L-0.044,-6.783C-0.036,-6.652 -0.007,-5.947 0.057,-5.538C0.11,-5.184 0.137,-4.894 0.133,-4.671C0.129,-4.417 0.09,-4.191 0.015,-3.99C0.094,-3.875 0.133,-3.734 0.129,-3.562C0.127,-3.388 0.084,-3.248 0,-3.138" style="fill:rgb(1,1,1);fill-rule:nonzero;"/>
                </g>
                <g transform="matrix(1,0,0,1,65.6919,215.841)">
                    <path d="M0,-7.062C-0.092,-7.053 -0.192,-7.05 -0.304,-7.051C-0.537,-7.056 -0.847,-7.092 -1.229,-7.16C-1.705,-7.227 -1.993,-7.268 -2.094,-7.28C-2.239,-7.07 -2.314,-6.772 -2.321,-6.386C-2.336,-5.555 -2.336,-5.196 -2.324,-5.307C-2.184,-5.224 -2.114,-5.07 -2.119,-4.847C-2.136,-4.542 -2.138,-4.384 -2.128,-4.375C-2.198,-4.347 -2.236,-4.246 -2.239,-4.074C-2.35,-4.115 -2.465,-4.2 -2.584,-4.324C-2.743,-4.478 -2.829,-3.954 -2.817,-4.083L-2.913,-3.772L-3.003,-3.864C-3.085,-3.856 -3.223,-3.898 -3.418,-3.994C-3.615,-4.088 -3.752,-4.174 -3.831,-4.259C-3.829,-4.42 -3.802,-4.511 -3.751,-4.531L-3.944,-4.747L-4.038,-4.612C-4.151,-5.668 -4.124,-7.644 -3.983,-8.757C-3.6,-8.69 -3.175,-8.647 -2.709,-8.629C-2.396,-8.613 -1.956,-8.606 -1.388,-8.606C-0.739,-8.605 -0.272,-8.603 0.011,-8.598C0.13,-8.485 0.188,-8.337 0.185,-8.154C0.185,-8.041 0.153,-7.863 0.093,-7.616C0.032,-7.368 0.002,-7.184 0,-7.062M-0.032,0.223L-0.032,0.209C-0.095,0.338 -0.134,0.491 -0.146,0.663C-0.158,0.774 -0.161,0.93 -0.155,1.133C-0.149,1.366 -0.146,1.529 -0.147,1.621C-0.229,1.619 -0.553,1.613 -1.119,1.604C-1.464,1.598 -1.773,1.627 -2.048,1.695L-2.331,1.386C-2.415,1.465 -2.446,1.53 -2.427,1.582C-2.477,1.571 -2.71,1.567 -3.126,1.57C-3.45,1.565 -3.692,1.529 -3.853,1.465C-4.019,1.636 -4.21,1.632 -4.431,1.456C-4.51,1.395 -4.519,1.29 -4.456,1.144C-4.392,0.998 -4.41,0.889 -4.51,0.816C-4.495,0.493 -4.45,-0.009 -4.378,-0.687C-4.308,-1.294 -4.269,-1.771 -4.263,-2.115C-4.256,-2.583 -4.288,-3.029 -4.362,-3.456C-4.247,-3.564 -4.122,-3.619 -3.979,-3.616C-3.816,-3.615 -3.626,-3.534 -3.405,-3.377C-3.097,-3.162 -2.935,-3.05 -2.925,-3.05L-2.837,-2.943C-2.825,-2.973 -2.772,-3.134 -2.675,-3.427C-2.622,-3.619 -2.544,-3.744 -2.441,-3.804L-2.351,-3.71C-2.311,-3.729 -2.178,-3.824 -1.951,-3.992C-1.778,-4.112 -1.636,-4.393 -1.535,-4.39C-1.423,-4.389 -1.319,-4.326 -1.22,-4.203C-1.048,-4.109 -0.941,-3.744 -0.888,-3.557C-0.836,-3.368 -0.785,-3.182 -0.737,-2.998C-1.194,-2.985 -1.569,-2.998 -1.862,-3.033C-1.935,-2.922 -2.036,-2.906 -2.167,-2.984C-2.296,-3.062 -2.392,-3.051 -2.455,-2.953C-2.459,-2.769 -2.465,-2.439 -2.473,-1.962C-2.49,-1.539 -2.495,-1.203 -2.489,-0.959C-2.485,-0.584 -2.461,-0.24 -2.415,0.076C-2.335,0.077 -1.95,0.084 -1.262,0.096C-0.785,0.104 -0.376,0.146 -0.032,0.223" style="fill:rgb(1,1,1);fill-rule:nonzero;"/>
                </g>
                <g transform="matrix(1,0,0,1,48.6157,224.399)">
                    <path d="M0,0.861L0,0.853C0,0.859 -0.025,1.082 -0.078,1.525C-0.104,1.795 -0.17,2.009 -0.274,2.164L-0.341,2.111C-0.464,2.369 -0.631,2.527 -0.843,2.582C-0.944,2.689 -1.092,2.748 -1.282,2.759C-1.396,2.767 -1.658,2.732 -2.069,2.66C-2.269,2.537 -2.376,2.468 -2.396,2.455C-2.521,2.361 -2.581,2.265 -2.574,2.168C-2.694,2.045 -2.864,1.824 -2.929,1.548C-3.007,1.244 -3.054,1.228 -3.125,1.121C-3.24,1.205 -3.281,1.025 -3.348,0.918L-3.288,0.871C-3.325,0.845 -3.345,0.814 -3.347,0.781C-3.349,0.756 -3.337,0.72 -3.317,0.674C-3.295,0.627 -3.284,0.591 -3.287,0.566C-3.289,0.529 -3.312,0.496 -3.354,0.47C-3.31,0.23 -3.267,-0.129 -3.229,-0.608C-3.147,-0.653 -3.11,-0.737 -3.113,-0.862C-3.118,-0.987 -3.101,-1.071 -3.062,-1.11C-2.868,-1.499 -2.554,-1.761 -2.118,-1.896C-2.095,-1.893 -1.978,-1.895 -1.768,-1.902C-1.624,-1.906 -1.517,-1.893 -1.442,-1.863C-1.312,-1.887 -1.181,-1.854 -1.052,-1.771C-0.938,-1.684 -0.825,-1.6 -0.712,-1.514C-0.502,-1.285 -0.388,-1.026 -0.371,-0.739C-0.366,-0.643 -0.372,-0.541 -0.39,-0.434C-0.545,-0.438 -0.656,-0.336 -0.722,-0.125L-1.329,-0.067C-1.394,-0.16 -1.433,-0.284 -1.44,-0.438C-1.444,-0.491 -1.442,-0.569 -1.44,-0.668C-1.438,-0.772 -1.437,-0.848 -1.44,-0.901C-1.45,-1.059 -1.487,-1.184 -1.553,-1.28L-1.734,-1.174C-1.809,-1.203 -1.847,-1.246 -1.85,-1.303C-1.851,-1.323 -1.849,-1.352 -1.842,-1.387C-1.835,-1.425 -1.831,-1.45 -1.832,-1.464C-1.836,-1.526 -1.892,-1.563 -2.001,-1.579C-2.074,-0.893 -2.097,-0.19 -2.067,0.531C-2.048,0.554 -1.989,0.57 -1.894,0.582C-1.815,0.59 -1.774,0.615 -1.772,0.652C-1.772,0.668 -1.776,0.687 -1.788,0.711L-1.848,0.757C-1.814,0.808 -1.795,0.881 -1.79,0.972C-1.788,1.019 -1.789,1.093 -1.795,1.193C-1.802,1.293 -1.803,1.367 -1.8,1.414C-1.791,1.558 -1.755,1.668 -1.69,1.742C-1.698,1.847 -1.653,1.92 -1.562,1.957C-1.503,1.935 -1.451,1.923 -1.403,1.92C-1.218,1.908 -1.089,2.009 -1.017,2.222C-1.017,2.228 -1.018,2.263 -1.019,2.332C-1.017,2.371 -0.998,2.394 -0.961,2.406C-0.88,2.359 -0.841,2.271 -0.841,2.146C-0.843,2.002 -0.825,1.91 -0.786,1.869C-0.796,1.802 -0.835,1.705 -0.905,1.58C-0.976,1.453 -1.013,1.355 -1.018,1.281C-1.022,1.205 -0.999,1.132 -0.95,1.062C-0.992,1.048 -1.011,1.021 -1.009,0.976C-1.006,0.908 -1.005,0.873 -1.005,0.869C-0.675,0.787 -0.339,0.785 0,0.861" style="fill:rgb(1,1,1);fill-rule:nonzero;"/>
                </g>
                <g transform="matrix(1,0,0,1,50.6157,225.854)">
                    <path d="M0,-2.881L0.009,-2.875C0.017,-2.844 0.013,-2.954 -0.003,-3.203C-0.009,-3.323 -0.054,-3.411 -0.135,-3.465C-0.181,-3.4 -0.128,-3.369 -0.151,-3.218C-0.172,-3.066 -0.261,-3.109 -0.313,-3.043C-0.453,-3.043 -0.484,-2.959 -0.515,-3.092C-0.577,-3.309 -0.631,-3.289 -0.632,-3.293L-0.69,-3.258C-0.712,-3.239 -0.736,-3.218 -0.762,-3.193C-0.788,-3.169 -0.815,-3.161 -0.844,-3.168C-0.843,-3.141 -0.855,-3.099 -0.882,-3.041C-0.91,-2.984 -0.923,-2.944 -0.922,-2.922C-0.919,-2.881 -0.888,-2.852 -0.824,-2.833C-0.836,-2.743 -0.839,-2.647 -0.833,-2.549C-0.83,-2.497 -0.817,-2.374 -0.795,-2.182C-0.771,-2.032 -0.761,-1.901 -0.765,-1.794C-0.714,-1.792 -0.667,-1.792 -0.622,-1.794C-0.427,-1.805 -0.302,-1.883 -0.243,-2.026C-0.224,-2.067 -0.2,-2.217 -0.177,-2.473C-0.155,-2.667 -0.097,-2.803 0,-2.881M0.75,-0.03L0.743,-0.03C0.707,0.038 0.696,0.138 0.708,0.269C0.724,0.451 0.733,0.544 0.733,0.55C0.707,0.56 0.669,0.546 0.624,0.509C0.552,0.535 0.519,0.579 0.522,0.642C0.522,0.652 0.526,0.667 0.533,0.689C0.534,0.716 0.536,0.734 0.536,0.744C0.538,0.792 0.524,0.827 0.492,0.853C0.412,0.808 0.306,0.781 0.175,0.767C0.042,0.755 -0.083,0.744 -0.2,0.732C-0.202,0.122 -0.284,-0.475 -0.446,-1.057C-0.446,-1.053 -0.449,-1.112 -0.456,-1.239C-0.456,-1.329 -0.477,-1.393 -0.518,-1.43L-0.573,-1.381C-0.573,-1.389 -0.556,-1.407 -0.519,-1.434C-0.479,-1.46 -0.462,-1.487 -0.464,-1.514C-0.465,-1.528 -0.468,-1.542 -0.476,-1.553L-0.536,-1.598C-0.64,-1.563 -0.687,-1.481 -0.68,-1.348C-0.675,-1.258 -0.71,-1.194 -0.785,-1.159C-0.757,-1.137 -0.741,-1.112 -0.739,-1.081C-0.738,-1.063 -0.741,-1.038 -0.748,-1.006C-0.755,-0.975 -0.757,-0.95 -0.756,-0.93C-0.754,-0.891 -0.731,-0.86 -0.692,-0.835C-0.69,-0.807 -0.677,-0.567 -0.649,-0.11C-0.633,0.181 -0.642,0.427 -0.673,0.63L-0.667,0.745C-0.707,0.744 -0.751,0.744 -0.801,0.745C-0.856,0.749 -0.937,0.757 -1.042,0.771C-1.146,0.785 -1.224,0.792 -1.274,0.794C-1.479,0.806 -1.624,0.771 -1.706,0.691L-1.794,-1.815C-1.834,-1.936 -1.86,-2.108 -1.874,-2.327L-1.9,-2.811C-1.92,-3.048 -1.95,-3.23 -1.991,-3.357C-1.974,-3.444 -1.898,-3.491 -1.766,-3.498C-1.683,-3.503 -1.571,-3.492 -1.429,-3.464C-1.364,-3.493 -1.273,-3.514 -1.157,-3.521C-1.123,-3.523 -1.071,-3.523 -0.998,-3.523C-0.921,-3.527 -0.865,-3.53 -0.832,-3.532C-0.614,-3.544 -0.472,-3.611 -0.4,-3.733C-0.3,-3.734 -0.19,-3.702 -0.073,-3.638C0.044,-3.572 0.148,-3.537 0.237,-3.534C0.474,-3.396 0.602,-3.165 0.62,-2.842C0.625,-2.77 0.597,-2.487 0.536,-1.989L0.13,-1.637C0.198,-1.51 0.282,-1.235 0.379,-0.809C0.461,-0.456 0.584,-0.196 0.75,-0.03" style="fill:rgb(1,1,1);fill-rule:nonzero;"/>
                </g>
                <g transform="matrix(1,0,0,1,54.521,222.082)">
                    <path d="M0,4.715C-0.08,4.692 -0.164,4.684 -0.254,4.69C-0.33,4.694 -0.436,4.713 -0.566,4.746C-0.717,4.783 -0.817,4.805 -0.872,4.813C-0.939,4.723 -0.992,4.594 -1.028,4.432C-1.094,4.194 -1.132,4.059 -1.145,4.028C-1.129,4 -1.121,3.977 -1.123,3.959C-1.126,3.908 -1.178,3.869 -1.276,3.836C-1.377,3.805 -1.426,3.776 -1.427,3.754C-1.428,3.727 -1.377,3.684 -1.268,3.623C-1.297,3.598 -1.32,3.545 -1.34,3.463C-1.358,3.381 -1.387,3.328 -1.428,3.303C-1.492,3.358 -1.6,3.397 -1.751,3.42C-1.903,3.444 -2.003,3.471 -2.053,3.502C-2.021,3.85 -2.053,4.461 -2.189,4.59C-2.268,4.58 -2.324,4.608 -2.359,4.674C-2.411,4.752 -2.455,4.801 -2.494,4.817L-2.441,4.86C-2.484,4.895 -2.555,4.912 -2.654,4.914C-2.811,4.918 -2.895,4.92 -2.905,4.92L-2.962,4.801L-2.729,0.774C-2.74,0.546 -2.738,0.391 -2.723,0.31C-2.744,0.109 -2.696,-0.02 -2.577,-0.077C-2.496,-0.04 -2.399,-0.026 -2.281,-0.033C-2.188,-0.037 -2.041,-0.064 -1.844,-0.112C-1.646,-0.159 -1.508,-0.184 -1.43,-0.19C-1.158,-0.205 -1.027,-0.056 -1.037,0.258C-1.045,0.509 -0.971,0.836 -0.812,1.235C-0.648,1.664 -0.561,1.99 -0.549,2.209C-0.544,2.276 -0.455,2.418 -0.456,2.486C-0.57,2.547 -0.719,2.588 -0.9,2.611C-1.061,2.631 -1.224,2.651 -1.391,2.666C-1.46,2.33 -1.618,1.922 -1.687,1.588C-1.771,1.19 -1.863,0.864 -1.961,0.607L-2.066,2.539C-2.073,2.705 -1.974,2.783 -1.769,2.772C-1.702,2.768 -1.639,2.75 -1.579,2.719C-1.529,2.703 -1.459,2.729 -1.366,2.795C-1.358,2.934 -1.317,3.016 -1.243,3.037C-1.156,2.983 -1.043,2.928 -0.901,2.875C-0.776,2.828 -0.653,2.783 -0.533,2.74C-0.457,2.813 -0.404,2.924 -0.371,3.074C-0.332,3.287 -0.305,3.41 -0.292,3.445C-0.275,3.531 -0.219,3.711 -0.119,3.988C-0.044,4.207 -0.003,4.387 0.005,4.526C0.008,4.592 0.006,4.656 0,4.715" style="fill:rgb(1,1,1);fill-rule:nonzero;"/>
                </g>
                <g transform="matrix(1,0,0,1,55.8462,221.622)">
                    <path d="M0,5.128C-0.06,5.159 -0.151,5.177 -0.272,5.185C-0.435,5.194 -0.53,5.202 -0.565,5.208C-0.583,5.192 -0.604,5.206 -0.639,5.064C-0.662,4.972 -0.721,4.927 -0.813,4.935C-0.838,4.935 -0.863,4.937 -0.897,4.944L-1.048,4.954L-1.127,3.581C-1.045,3.542 -0.944,3.517 -0.821,3.511C-0.704,3.503 -0.601,3.515 -0.512,3.544C-0.513,3.595 -0.442,3.616 -0.299,3.607L-0.14,3.597C-0.045,3.983 0.013,4.679 0,5.128M0.974,0.605L0.981,0.605C0.915,0.704 0.831,0.721 0.727,0.661C0.704,0.657 0.604,0.663 0.427,0.677C0.277,0.686 0.169,0.678 0.1,0.656C0.083,0.658 0.05,0.674 0.002,0.706C-0.046,0.739 -0.081,0.753 -0.104,0.755C-0.136,0.758 -0.155,0.729 -0.159,0.67C-0.159,0.663 -0.161,0.624 -0.165,0.557C-0.167,0.512 -0.189,0.482 -0.229,0.466L-0.334,0.547C-0.366,0.571 -0.38,0.596 -0.379,0.624C-0.379,0.645 -0.358,0.676 -0.324,0.717C-0.288,0.758 -0.267,0.788 -0.26,0.804C-0.259,0.818 -0.247,1.02 -0.225,1.409C-0.217,1.655 -0.171,1.853 -0.089,1.999C-0.069,1.976 -0.019,1.964 0.062,1.962C0.143,1.958 0.196,1.94 0.222,1.907C0.274,1.954 0.362,1.958 0.485,1.917C0.609,1.874 0.698,1.888 0.752,1.958L0.735,2.552C0.686,2.544 0.61,2.521 0.515,2.478C0.485,2.564 0.431,2.618 0.349,2.64C0.315,2.651 0.221,2.661 0.065,2.671C0.07,2.644 0.046,2.616 -0.007,2.587C-0.157,2.659 -0.214,2.831 -0.177,3.103C-0.173,3.073 -0.167,3.122 -0.159,3.243C-0.155,3.317 -0.171,3.372 -0.208,3.407C-0.305,3.421 -0.424,3.399 -0.567,3.343C-0.713,3.288 -0.817,3.261 -0.879,3.265C-0.904,3.265 -0.931,3.269 -0.953,3.274L-1.108,3.323L-1.357,0.613L-1.387,0.096C-1.181,0.027 -0.924,-0.017 -0.618,-0.035C-0.379,-0.049 -0.065,-0.046 0.319,-0.029C0.344,-0.08 0.39,-0.014 0.446,-0.017C0.473,-0.018 0.515,-0.015 0.571,-0.007C0.627,0.001 0.669,0.003 0.697,0.003C0.729,0.001 0.761,-0.005 0.787,-0.017L0.827,-0.059C0.94,-0.026 0.999,0.035 1.005,0.118C1.007,0.155 0.995,0.216 0.973,0.301C0.95,0.389 0.94,0.456 0.942,0.5C0.945,0.54 0.956,0.575 0.974,0.605" style="fill:rgb(1,1,1);fill-rule:nonzero;"/>
                </g>
                <g transform="matrix(1,0,0,1,60.1509,225.774)">
                    <path d="M0,-3.429L0.009,-3.423C-0.07,-3.429 -0.321,-3.411 -0.515,-3.387C-0.681,-3.367 -0.806,-3.365 -0.89,-3.378C-0.97,-3.324 -1,-3.25 -0.978,-3.158L-0.927,-3.127C-0.969,-3.088 -0.983,-3.06 -0.97,-3.036L-0.927,-2.992C-0.937,-2.198 -0.938,-1.759 -0.933,-1.673C-0.921,-1.462 -0.896,-1.278 -0.86,-1.118C-0.893,-1.016 -0.905,-0.903 -0.897,-0.772C-0.893,-0.688 -0.873,-0.554 -0.837,-0.37C-0.802,-0.184 -0.753,0.419 -0.747,0.515C-0.744,0.585 -0.745,0.654 -0.753,0.716C-0.829,0.747 -0.911,0.765 -1,0.771C-1.15,0.779 -1.312,0.749 -1.483,0.677C-1.503,0.696 -1.526,0.718 -1.554,0.739C-1.581,0.761 -1.588,0.784 -1.575,0.812C-1.63,0.827 -1.706,0.806 -1.806,0.743C-1.856,-0.061 -2.001,-1.702 -2.214,-3.359C-2.288,-3.29 -2.427,-3.347 -2.57,-3.329C-2.741,-3.311 -2.91,-3.337 -2.976,-3.306C-3.059,-3.396 -3.04,-3.422 -3.048,-3.57C-3.058,-3.712 -3.103,-4.065 -3.066,-4.212C-3.059,-4.244 -2.747,-4.226 -2.564,-4.241C-2.315,-4.256 -2.26,-4.197 -2.243,-4.198C-2.224,-4.23 -2.102,-4.214 -2.013,-4.22C-1.955,-4.192 -1.894,-4.245 -1.892,-4.204C-1.89,-4.178 -1.892,-4.009 -1.909,-3.96C-1.93,-3.911 -1.938,-3.876 -1.937,-3.854C-1.935,-3.8 -1.896,-3.879 -1.806,-3.848C-1.705,-3.851 -1.602,-3.854 -1.497,-3.86C-1.378,-3.849 -1.243,-3.892 -1.254,-3.792C-1.234,-3.821 -1.222,-3.771 -1.053,-3.839C-0.928,-3.896 -0.852,-4.042 -0.876,-4.143C-0.89,-4.198 -0.813,-4.234 -0.861,-4.208C-0.802,-4.241 -0.856,-4.219 -0.79,-4.244C-0.583,-4.225 -0.468,-4.246 -0.429,-4.248C-0.345,-4.253 -0.138,-4.2 -0.079,-4.23C-0.036,-4.152 -0.014,-3.907 -0.011,-3.772C-0.005,-3.558 -0.001,-3.443 0,-3.429" style="fill:rgb(1,1,1);fill-rule:nonzero;"/>
                </g>
                <g transform="matrix(1,0,0,1,62.5913,225.198)">
                    <path d="M0,-3.209C-0.049,-3.203 -0.105,-3.195 -0.167,-3.193C-0.293,-3.186 -0.463,-3.188 -0.677,-3.204C-0.939,-3.216 -1.098,-3.222 -1.154,-3.224C-1.226,-3.124 -1.236,-3.045 -1.226,-2.875C-1.205,-2.509 -1.191,-2.35 -1.189,-2.399C-1.109,-2.368 -1.066,-2.303 -1.062,-2.204C-1.059,-2.069 -1.056,-2.002 -1.049,-1.997C-1.088,-1.981 -1.104,-1.934 -1.1,-1.858C-1.161,-1.874 -1.229,-1.905 -1.297,-1.956C-1.391,-2.016 -1.42,-1.797 -1.418,-1.856L-1.46,-1.719L-1.512,-1.758C-1.556,-1.751 -1.633,-1.764 -1.744,-1.797C-1.854,-1.833 -1.934,-1.866 -1.979,-1.899C-1.982,-1.969 -1.973,-2.01 -1.945,-2.022L-2.059,-2.11L-2.105,-2.045C-2.204,-2.507 -2.271,-3.319 -2.232,-3.815C-2.021,-3.801 -1.771,-3.837 -1.516,-3.848C-1.344,-3.855 -1.102,-3.866 -0.791,-3.89C-0.436,-3.914 -0.182,-3.933 -0.026,-3.941C0.043,-3.896 0.081,-3.832 0.085,-3.752C0.088,-3.702 0.078,-3.622 0.055,-3.511C0.028,-3.399 -0.003,-3.264 0,-3.209M0.259,-0.053L0.258,-0.059C0.229,-0.001 0.213,0.068 0.211,0.144C0.208,0.193 0.213,0.263 0.223,0.353C0.234,0.455 0.242,0.527 0.244,0.568C0.199,0.57 0.021,0.58 -0.289,0.599C-0.479,0.609 -0.646,0.634 -0.795,0.675L-0.961,0.548C-1.002,0.587 -1.018,0.619 -1.005,0.64C-1.033,0.636 -1.161,0.644 -1.389,0.662C-1.566,0.673 -1.699,0.666 -1.791,0.644C-1.875,0.726 -1.98,0.732 -2.106,0.664C-2.152,0.64 -2.16,0.593 -2.131,0.527C-2.102,0.458 -2.116,0.412 -2.174,0.384C-2.176,0.242 -2.17,0.019 -2.153,-0.284C-2.135,-0.553 -2.131,-0.766 -2.141,-0.918C-2.152,-1.124 -2.187,-1.319 -2.24,-1.504C-2.183,-1.557 -2.115,-1.584 -2.037,-1.588C-1.949,-1.594 -1.841,-1.567 -1.714,-1.508C-1.537,-1.422 -1.445,-1.381 -1.439,-1.381L-1.387,-1.338C-1.383,-1.35 -1.359,-1.424 -1.316,-1.557C-1.294,-1.643 -1.255,-1.702 -1.201,-1.731L-1.149,-1.694C-1.127,-1.704 -1.057,-1.751 -0.939,-1.834C-0.849,-1.893 -0.786,-2.112 -0.729,-2.114C-0.67,-2.12 -0.609,-2.094 -0.551,-2.045C-0.455,-2.01 -0.377,-1.764 -0.342,-1.684C-0.307,-1.604 -0.273,-1.524 -0.24,-1.446C-0.49,-1.422 -0.695,-1.411 -0.857,-1.417C-0.893,-1.364 -0.949,-1.352 -1.022,-1.381C-1.096,-1.413 -1.148,-1.403 -1.18,-1.356C-1.174,-1.276 -1.166,-1.131 -1.154,-0.92C-1.148,-0.733 -1.141,-0.584 -1.129,-0.479C-1.114,-0.313 -1.088,-0.163 -1.053,-0.024C-1.008,-0.028 -0.796,-0.04 -0.42,-0.061C-0.158,-0.077 0.067,-0.075 0.259,-0.053" style="fill:rgb(1,1,1);fill-rule:nonzero;"/>
                </g>
                <g transform="matrix(1,0,0,1,64.8706,224.698)">
                    <path d="M0,-2.88L0.008,-2.874C0.016,-2.844 0.012,-2.953 -0.003,-3.202C-0.01,-3.325 -0.055,-3.411 -0.135,-3.464C-0.181,-3.401 -0.189,-3.552 -0.211,-3.401C-0.233,-3.248 -0.27,-3.14 -0.321,-3.073C-0.461,-3.074 -0.493,-3.157 -0.576,-3.275C-0.629,-3.349 -0.653,-3.284 -0.653,-3.289L-0.691,-3.258C-0.713,-3.239 -0.736,-3.217 -0.762,-3.192C-0.789,-3.169 -0.816,-3.161 -0.846,-3.168C-0.843,-3.143 -0.855,-3.099 -0.884,-3.041C-0.91,-2.984 -0.924,-2.944 -0.923,-2.921C-0.92,-2.881 -0.888,-2.853 -0.824,-2.833C-0.836,-2.742 -0.84,-2.648 -0.834,-2.548C-0.83,-2.495 -0.818,-2.373 -0.796,-2.182C-0.771,-2.03 -0.76,-1.901 -0.765,-1.793C-0.714,-1.791 -0.668,-1.792 -0.623,-1.795C-0.429,-1.806 -0.303,-1.883 -0.244,-2.025C-0.225,-2.067 -0.201,-2.217 -0.178,-2.473C-0.156,-2.669 -0.096,-2.804 0,-2.88M0.75,-0.03L0.741,-0.03C0.707,0.04 0.695,0.14 0.709,0.267C0.725,0.453 0.732,0.546 0.733,0.55C0.705,0.56 0.669,0.548 0.622,0.509C0.551,0.537 0.518,0.581 0.521,0.644C0.521,0.652 0.525,0.667 0.532,0.689C0.533,0.716 0.534,0.734 0.535,0.744C0.539,0.792 0.523,0.829 0.492,0.853C0.41,0.808 0.305,0.781 0.173,0.767C0.042,0.755 -0.082,0.742 -0.201,0.73C-0.203,0.122 -0.285,-0.475 -0.446,-1.057C-0.446,-1.053 -0.449,-1.114 -0.457,-1.239C-0.457,-1.329 -0.477,-1.391 -0.519,-1.43L-0.574,-1.38C-0.574,-1.387 -0.557,-1.407 -0.519,-1.432C-0.481,-1.46 -0.463,-1.487 -0.465,-1.514C-0.466,-1.528 -0.469,-1.54 -0.476,-1.555L-0.537,-1.598C-0.641,-1.565 -0.688,-1.481 -0.68,-1.348C-0.676,-1.258 -0.711,-1.194 -0.787,-1.159C-0.758,-1.139 -0.742,-1.112 -0.74,-1.081C-0.738,-1.063 -0.742,-1.038 -0.749,-1.008C-0.754,-0.975 -0.758,-0.95 -0.756,-0.932C-0.754,-0.893 -0.734,-0.86 -0.693,-0.835C-0.691,-0.807 -0.678,-0.567 -0.651,-0.11C-0.634,0.181 -0.642,0.429 -0.675,0.63L-0.668,0.745C-0.706,0.744 -0.752,0.744 -0.802,0.747C-0.857,0.751 -0.937,0.757 -1.043,0.771C-1.147,0.783 -1.225,0.792 -1.275,0.794C-1.479,0.806 -1.625,0.773 -1.707,0.691L-1.794,-1.814C-1.834,-1.937 -1.861,-2.109 -1.874,-2.327L-1.902,-2.81C-1.922,-3.047 -1.951,-3.23 -1.992,-3.357C-1.975,-3.442 -1.899,-3.491 -1.768,-3.497C-1.682,-3.503 -1.57,-3.491 -1.43,-3.463C-1.365,-3.495 -1.274,-3.514 -1.158,-3.52C-1.125,-3.522 -1.071,-3.523 -1,-3.523C-0.922,-3.526 -0.865,-3.53 -0.832,-3.532C-0.616,-3.544 -0.472,-3.612 -0.4,-3.732C-0.301,-3.733 -0.191,-3.702 -0.074,-3.638C0.044,-3.571 0.148,-3.538 0.238,-3.535C0.474,-3.396 0.602,-3.165 0.619,-2.842C0.623,-2.771 0.596,-2.486 0.535,-1.989L0.129,-1.637C0.198,-1.51 0.281,-1.235 0.379,-0.809C0.459,-0.456 0.585,-0.196 0.75,-0.03" style="fill:rgb(1,1,1);fill-rule:nonzero;"/>
                </g>
                <g transform="matrix(1,0,0,1,37.5796,214.735)">
                    <path d="M0,-1.187L-0.006,-1.328L-0.051,-1.368L0,-1.187ZM0.423,-1.624L0.423,-1.617C0.398,-1.384 0.391,-1.222 0.399,-1.134C0.363,-1.121 0.316,-1.118 0.26,-1.127C0.186,-1.14 0.143,-1.146 0.131,-1.145C0.1,-1.144 0.072,-1.132 0.054,-1.111C0.008,-1.14 -0.023,-1.153 -0.039,-1.149C-0.084,-1.123 -0.104,-1.085 -0.102,-1.037C-0.1,-1.015 -0.092,-0.982 -0.076,-0.931C-0.062,-0.88 -0.055,-0.844 -0.053,-0.82C-0.053,-0.788 -0.059,-0.736 -0.073,-0.666C-0.088,-0.596 -0.094,-0.541 -0.092,-0.495C-0.09,-0.443 -0.078,-0.359 -0.058,-0.247C-0.038,-0.134 -0.027,-0.05 -0.023,0.007C-0.047,0.118 -0.056,0.23 -0.051,0.342C-0.043,0.481 -0.004,0.666 0.064,0.898C0.076,0.901 0.088,0.903 0.101,0.901C0.127,0.901 0.162,0.879 0.201,0.841C0.239,0.804 0.273,0.784 0.301,0.782C0.32,0.782 0.344,0.785 0.368,0.796C0.441,1.032 0.479,1.185 0.482,1.253C0.484,1.287 0.484,1.321 0.482,1.357C0.373,1.383 0.297,1.346 0.252,1.247C0.258,1.218 0.242,1.188 0.204,1.158L0.083,1.286C0.201,1.304 0.248,1.395 0.225,1.558C0.214,1.592 0.189,1.61 0.148,1.611C0.078,1.61 0.047,1.61 0.051,1.61L-0.05,1.432L-0.09,1.483C-0.123,1.399 -0.16,1.359 -0.205,1.362C-0.229,1.364 -0.271,1.383 -0.334,1.422C-0.395,1.462 -0.445,1.483 -0.484,1.485C-0.518,1.487 -0.549,1.479 -0.583,1.46C-0.586,1.411 -0.592,1.362 -0.6,1.309C-0.609,1.256 -0.636,1.223 -0.682,1.209C-0.684,1.082 -0.68,0.752 -0.671,0.215C-0.666,-0.19 -0.671,-0.519 -0.684,-0.77C-0.689,-0.875 -0.695,-0.978 -0.705,-1.079C-0.727,-1.11 -0.748,-1.125 -0.768,-1.125C-0.785,-1.123 -0.809,-1.106 -0.842,-1.072C-0.875,-1.038 -0.902,-1.022 -0.928,-1.025C-0.93,-1.065 -0.948,-1.131 -0.982,-1.22C-1.018,-1.309 -1.036,-1.374 -1.039,-1.415C-1.042,-1.484 -1.016,-1.543 -0.962,-1.595L-0.82,-1.56C-0.764,-1.639 -0.74,-1.775 -0.749,-1.965C-0.752,-2.001 -0.756,-2.06 -0.764,-2.138C-0.772,-2.216 -0.777,-2.274 -0.779,-2.311C-0.795,-2.623 -0.699,-2.784 -0.493,-2.794C-0.417,-2.798 -0.322,-2.785 -0.212,-2.752L-0.076,-2.717C-0.066,-2.666 -0.059,-2.611 -0.056,-2.555C-0.052,-2.477 -0.055,-2.365 -0.066,-2.216C-0.076,-2.066 -0.08,-1.958 -0.076,-1.89C-0.072,-1.78 -0.053,-1.681 -0.02,-1.593C0.013,-1.595 0.064,-1.614 0.133,-1.647C0.202,-1.681 0.252,-1.699 0.285,-1.701C0.342,-1.704 0.388,-1.679 0.423,-1.624" style="fill:rgb(1,1,1);fill-rule:nonzero;"/>
                </g>
                <g transform="matrix(1,0,0,1,40.2739,214.274)">
                    <path d="M0,-1.228C0.012,-1.066 0.021,-0.908 0.03,-0.753C0.063,-0.082 0.054,0.637 -0.001,1.402C-0.06,1.455 -0.149,1.465 -0.271,1.436C-0.392,1.408 -0.479,1.42 -0.533,1.471C-0.603,1.381 -0.644,1.22 -0.655,0.985C-0.673,0.645 -0.681,0.469 -0.683,0.457C-0.696,-0.395 -0.613,-1.083 -0.433,-1.608C-0.224,-1.553 -0.079,-1.427 0,-1.228M-0.603,-1.599L-0.597,-1.599C-0.61,-1.489 -0.628,-1.378 -0.647,-1.268C-0.668,-1.142 -0.704,-1.042 -0.753,-0.97C-0.762,-0.974 -0.812,-0.997 -0.903,-1.042C-0.966,-1.076 -1.021,-1.088 -1.069,-1.082C-1.106,-0.844 -1.126,-0.521 -1.13,-0.111C-1.132,0.413 -1.136,0.729 -1.142,0.838C-1.204,0.835 -1.249,0.853 -1.278,0.898C-1.31,0.942 -1.339,0.986 -1.364,1.032C-1.375,1.057 -1.38,1.081 -1.378,1.099C-1.378,1.133 -1.351,1.165 -1.295,1.193C-1.241,1.223 -1.214,1.255 -1.212,1.293C-1.235,1.379 -1.286,1.424 -1.363,1.427C-1.399,1.43 -1.463,1.418 -1.554,1.395C-1.643,1.372 -1.706,1.36 -1.743,1.362L-1.831,-0.374C-1.796,-0.419 -1.782,-0.452 -1.786,-0.467L-1.837,-0.501C-1.832,-0.574 -1.829,-0.939 -1.825,-1.592C-1.823,-2.035 -1.806,-2.393 -1.775,-2.665C-1.778,-2.665 -1.654,-2.674 -1.399,-2.691C-1.243,-2.699 -1.14,-2.655 -1.095,-2.56C-1.095,-2.471 -1.104,-2.321 -1.122,-2.109C-1.14,-1.914 -1.146,-1.763 -1.142,-1.658C-1.134,-1.527 -1.114,-1.412 -1.08,-1.307C-0.944,-1.492 -0.785,-1.589 -0.603,-1.599" style="fill:rgb(1,1,1);fill-rule:nonzero;"/>
                </g>
                <g transform="matrix(1,0,0,1,41.5659,215.507)">
                    <path d="M0,-2.25L-0.04,-2.198C-0.068,-2.193 -0.102,-2.207 -0.14,-2.241L-0.133,-2.103C-0.194,-2.034 -0.219,-1.93 -0.208,-1.787C-0.195,-1.544 -0.189,-1.428 -0.189,-1.436L-0.008,-1.438C0.078,-1.488 0.119,-1.568 0.113,-1.682C0.111,-1.739 0.092,-1.832 0.054,-1.963C0.018,-2.092 -0.001,-2.187 0,-2.25M0.837,-1.578C0.811,-1.524 0.799,-1.467 0.803,-1.408C0.805,-1.346 0.809,-1.287 0.812,-1.23C0.805,-1.182 0.792,-1.133 0.771,-1.081C0.733,-1.092 0.703,-1.097 0.678,-1.096C0.65,-1.095 0.621,-1.084 0.592,-1.064C0.562,-1.044 0.539,-1.033 0.523,-1.033C0.498,-1.031 0.467,-1.041 0.425,-1.059L0.143,-1.471C0.152,-1.35 0.18,-1.243 0.226,-1.151C0.248,-1.104 0.271,-1.057 0.293,-1.01C0.129,-0.98 0.035,-0.975 0.014,-0.996L-0.025,-0.944L-0.123,-1.073C-0.199,-0.98 -0.217,-0.844 -0.176,-0.663C-0.125,-0.467 -0.123,-0.325 -0.166,-0.237C-0.105,-0.146 -0.033,-0.105 0.053,-0.108C0.09,-0.111 0.12,-0.123 0.148,-0.149C0.187,-0.25 0.227,-0.349 0.268,-0.448C0.326,-0.569 0.392,-0.632 0.465,-0.635C0.521,-0.639 0.587,-0.608 0.663,-0.547C0.754,-0.515 0.801,-0.473 0.804,-0.421C0.805,-0.388 0.785,-0.334 0.742,-0.263C0.699,-0.189 0.678,-0.132 0.68,-0.091C0.682,-0.076 0.684,-0.062 0.687,-0.049C0.629,-0.006 0.578,0.06 0.531,0.146C0.484,0.234 0.424,0.295 0.348,0.328C0.283,0.391 0.221,0.425 0.165,0.428C0.12,0.43 0.054,0.396 -0.035,0.325C-0.123,0.254 -0.206,0.222 -0.283,0.225C-0.314,0.153 -0.395,0.074 -0.52,-0.013C-0.645,-0.1 -0.724,-0.193 -0.754,-0.293C-0.752,-0.286 -0.754,-0.317 -0.757,-0.39C-0.76,-0.431 -0.777,-0.457 -0.811,-0.467L-0.766,-0.512C-0.826,-0.513 -0.856,-0.547 -0.86,-0.617C-0.861,-0.624 -0.861,-0.641 -0.862,-0.666C-0.86,-0.686 -0.859,-0.702 -0.859,-0.715C-0.861,-0.763 -0.878,-0.796 -0.907,-0.815L-0.918,-1.027C-0.924,-1.137 -0.945,-1.215 -0.984,-1.262C-0.944,-1.52 -0.904,-1.777 -0.865,-2.034C-0.799,-2.334 -0.701,-2.487 -0.572,-2.494C-0.551,-2.495 -0.531,-2.492 -0.512,-2.485C-0.395,-2.601 -0.254,-2.662 -0.088,-2.671C0.094,-2.68 0.295,-2.624 0.516,-2.506C0.689,-2.223 0.795,-1.913 0.837,-1.578" style="fill:rgb(1,1,1);fill-rule:nonzero;"/>
                </g>
                <g transform="matrix(1,0,0,1,43.8276,218.63)">
                    <path d="M0,1.424L0.182,1.528L0.795,-0.082L0.589,-0.15L-0.023,1.461L0.154,1.574L0,1.424Z" style="fill:rgb(1,1,1);"/>
                </g>
                <g transform="matrix(1,0,0,1,44.0952,220.204)">
                    <path d="M0,-0.373L-0.073,-0.344L-0.268,-0.15L-0.113,0L0.085,-0.204L0.008,-0.165L0,-0.373Z" style="fill:rgb(1,1,1);"/>
                </g>
                <g transform="matrix(1,0,0,1,45.5796,219.971)">
                    <path d="M0,-0.151L0.088,-0.22L-1.484,-0.139L-1.477,0.069L0.095,-0.011L0.194,-0.087L0,-0.151Z" style="fill:rgb(1,1,1);"/>
                </g>
                <g transform="matrix(1,0,0,1,46.2896,219.686)">
                    <path d="M0,-1.348L-0.107,-1.481L-0.71,0.133L-0.516,0.198L0.097,-1.413L-0.009,-1.546L0,-1.348Z" style="fill:rgb(1,1,1);"/>
                </g>
                <g transform="matrix(1,0,0,1,44.7925,218.179)">
                    <path d="M0,0.211L-0.078,0.25L1.497,0.159L1.488,-0.039L-0.08,0.03L-0.158,0.07L0,0.211Z" style="fill:rgb(1,1,1);"/>
                </g>
                <g transform="matrix(1,0,0,1,44.6226,218.284)">
                    <path d="M0,0.264L-0.023,0.299L0.17,0.106L0.012,-0.035L-0.184,0.16L-0.206,0.196L0,0.264Z" style="fill:rgb(1,1,1);"/>
                </g>
                <g transform="matrix(1,0,0,1,45.9253,219.894)">
                    <path d="M0,0.116L0.141,0.054L-0.196,-0.133L-0.303,0.058L0.043,0.249L0.195,0.181L-0.009,0.113L0,0.116Z" style="fill:rgb(1,1,1);"/>
                </g>
                <g transform="matrix(1,0,0,1,46.5845,219.89)">
                    <path d="M0,-1.366L-0.056,-1.494L-0.668,0.117L-0.464,0.186L0.148,-1.426L0.093,-1.552L0,-1.366Z" style="fill:rgb(1,1,1);"/>
                </g>
                <g transform="matrix(1,0,0,1,46.3862,218.401)">
                    <path d="M0,-0.128L-0.151,-0.06L0.198,0.123L0.291,-0.063L-0.045,-0.251L-0.204,-0.195L0,-0.128Z" style="fill:rgb(1,1,1);"/>
                </g>
                <g transform="matrix(1,0,0,1,44.5239,221.569)">
                    <path d="M0,-3.052L-0.01,-3.056L0.185,-3.251L1.643,-3.322L1.658,-3.364L1.862,-3.296L1.856,-3.279L2.112,-3.137L2.209,-3.105L2.169,-2.999L2.883,-1.302L2.279,0.312L1.499,-1.526L1.399,-1.485L1.393,-1.562L1.399,-1.581L1.153,-1.716L1.099,-1.616L1.067,-1.713L-0.429,-1.64L-0.622,-1.447L0,-3.052Z" style="fill:rgb(1,1,1);fill-rule:nonzero;"/>
                </g>
                <g transform="matrix(1,0,0,1,46.7065,220.076)">
                    <path d="M0,1.772L0.197,1.763L-0.583,-0.075L-0.783,0.008L-0.004,1.847L0.193,1.837L-0.01,1.769L0,1.772Z" style="fill:rgb(1,1,1);"/>
                </g>
                <g transform="matrix(1,0,0,1,47.3159,221.827)">
                    <path d="M0,-1.514L-0.007,-1.593L-0.619,0.018L-0.416,0.087L0.197,-1.523L0.191,-1.601L0,-1.514Z" style="fill:rgb(1,1,1);"/>
                </g>
                <g transform="matrix(1,0,0,1,46.7329,220.236)">
                    <path d="M0,-1.772L-0.197,-1.762L0.583,0.077L0.774,-0.01L-0.006,-1.849L-0.204,-1.84L0,-1.772Z" style="fill:rgb(1,1,1);"/>
                </g>
                <g transform="matrix(-0.885427,0.464778,0.464778,0.885427,44.8856,220.468)">
                    <ellipse cx="-1.093" cy="-0.571" rx="1.235" ry="1.013" style="fill:white;"/>
                </g>
                <g transform="matrix(-0.885348,0.464929,0.464929,0.885348,44.9588,220.802)">
                    <ellipse cx="-1.104" cy="-0.579" rx="1.236" ry="1.009" style="fill:rgb(1,1,1);"/>
                </g>
                <g transform="matrix(-0.886244,0.463218,0.463218,0.886244,45.0151,221.002)">
                    <ellipse cx="-1.094" cy="-0.566" rx="1.232" ry="1.012" style="fill:white;"/>
                </g>
                <g transform="matrix(-0.884927,0.46573,0.46573,0.884927,45.101,221.344)">
                    <ellipse cx="-1.097" cy="-0.587" rx="1.236" ry="1.013" style="fill:rgb(1,1,1);"/>
                </g>
                <g transform="matrix(-0.884697,0.466166,0.466166,0.884697,45.2172,221.537)">
                    <ellipse cx="-1.093" cy="-0.571" rx="1.228" ry="1.013" style="fill:white;"/>
                </g>
                <g transform="matrix(-0.88526,0.465096,0.465096,0.88526,45.2893,221.86)">
                    <ellipse cx="-1.1" cy="-0.568" rx="1.235" ry="1.013" style="fill:rgb(1,1,1);"/>
                </g>
                <g transform="matrix(1,0,0,1,36.3843,219.357)">
                    <path d="M0,-1.561L0.01,-1.623L-0.605,-0.002L-0.412,0.062L0.204,-1.558L0.207,-1.6L0,-1.561Z" style="fill:rgb(1,1,1);"/>
                </g>
                <g transform="matrix(1,0,0,1,36.3687,217.735)">
                    <path d="M0,-0.021L0.003,-0.031L0.016,0.061L0.223,0.022L0.201,-0.072L0.204,-0.082L0,-0.021Z" style="fill:rgb(1,1,1);"/>
                </g>
                <g transform="matrix(0.240079,0.970753,0.970753,-0.240079,36.4469,217.523)">
                    <rect x="0.072" y="-0.122" width="0.086" height="0.214" style="fill:rgb(1,1,1);"/>
                </g>
                <g transform="matrix(0.285254,0.958452,0.958452,-0.285254,36.4122,217.436)">
                    <rect x="0.071" y="-0.118" width="0.085" height="0.213" style="fill:rgb(1,1,1);"/>
                </g>
                <g transform="matrix(1,0,0,1,36.2964,217.477)">
                    <path d="M0,-0.034L0.023,0.061L0.228,-0.001L0.204,-0.095L0.201,-0.085L0,-0.034Z" style="fill:rgb(1,1,1);"/>
                </g>
                <g transform="matrix(1,0,0,1,36.271,217.422)">
                    <path d="M0,-0.095L0,-0.063L0.025,0.021L0.227,-0.03L0.201,-0.116L0.211,-0.079L0,-0.095Z" style="fill:rgb(1,1,1);"/>
                </g>
                <g transform="matrix(1,0,0,1,36.478,217.287)">
                    <path d="M0,0L-0.203,-0.035L-0.207,0.04L0.004,0.056L0.006,-0.018L-0.197,-0.056L-0.004,0.01L0,0Z" style="fill:rgb(1,1,1);"/>
                </g>
                <g transform="matrix(-0.179718,-0.983718,-0.983718,0.179718,36.5447,221.854)">
                    <rect x="-0.167" y="-0.081" width="0.109" height="0.219" style="fill:rgb(77,73,74);"/>
                </g>
                <g transform="matrix(1,0,0,1,37.1069,222.223)">
                    <path d="M0,-1.57L0.006,-1.622L-0.607,-0.011L-0.412,0.052L0.199,-1.558L0.196,-1.613L0,-1.57Z" style="fill:rgb(1,1,1);"/>
                </g>
                <g transform="matrix(1,0,0,1,37.0894,220.612)">
                    <path d="M0,-0.073L0.018,0.041L0.214,-0.002L0.198,-0.114L-0.01,-0.076L0,-0.073Z" style="fill:rgb(1,1,1);"/>
                </g>
                <g transform="matrix(0.181405,0.983408,0.983408,-0.181405,37.1834,220.346)">
                    <rect x="0.063" y="-0.136" width="0.104" height="0.212" style="fill:rgb(1,1,1);"/>
                </g>
                <g transform="matrix(1,0,0,1,37.0347,220.393)">
                    <path d="M0,-0.077L0.006,-0.065L0.026,0.04L0.224,-0.003L0.207,-0.117L0.213,-0.103L0,-0.077Z" style="fill:rgb(1,1,1);"/>
                </g>
                <g transform="matrix(1,0,0,1,37.229,220.249)">
                    <path d="M0,-0.031L-0.207,-0.058L-0.194,0.067L0.019,0.04L0.003,-0.072L-0.204,-0.098L0,-0.031Z" style="fill:rgb(1,1,1);"/>
                </g>
                <g transform="matrix(1,0,0,1,35.7788,219.063)">
                    <path d="M0,-0.029L-0.099,0L0,-0.029Z" style="fill:rgb(77,73,74);fill-rule:nonzero;"/>
                </g>
                <g transform="matrix(1,0,0,1,35.8813,219.411)">
                    <path d="M0,-0.039L0.003,-0.048L0.054,-0.044L0.091,0.009L0.001,-0.02L0,-0.039Z" style="fill:rgb(77,73,74);fill-rule:nonzero;"/>
                </g>
                <g transform="matrix(1,0,0,1,35.6577,217.775)">
                    <path d="M0,1.195L0.105,1.174L0.107,1.1L0.724,-0.519L0.72,-0.51L0.72,-0.446L0.736,-0.364L0.769,-0.266L0.795,-0.182L0.816,-0.089L0.833,-0.008L0.931,0.024L0.314,1.644L0.277,1.591L0.227,1.588L0.224,1.596L0.225,1.615L0.314,1.644L0.225,1.639L0.227,1.714L0.165,1.635L0.113,1.632L0.101,1.541L0.139,1.533L0.178,1.428L0.075,1.458L0.046,1.382L0.022,1.288L0.121,1.258L0.022,1.288L0.025,1.278L0,1.195Z" style="fill:rgb(1,1,1);fill-rule:nonzero;"/>
                </g>
                <g transform="matrix(1,0,0,1,35.8784,219.524)">
                    <path d="M0,-0.243L4.509,-0.39L4.625,-0.386L4.645,-0.377L4.755,-0.351L4.766,-0.347L4.883,-0.309L4.994,-0.261L5.004,-0.257L5.111,-0.189L5.131,-0.183L5.215,-0.111L5.241,-0.092L5.303,-0.018L5.309,-0.005L5.352,0.063L5.354,0.086L5.156,0.147L5.125,0.097L5.121,0.107L5.069,0.034L5.07,0.034L5,-0.021L5.018,-0.005L4.907,-0.062L4.908,-0.063L4.793,-0.111L4.696,-0.144L4.586,-0.169L4.606,-0.163L4.502,-0.177L4.502,-0.186L0.006,-0.035L0,-0.243Z" style="fill:rgb(1,1,1);fill-rule:nonzero;"/>
                </g>
                <g transform="matrix(1,0,0,1,41.0288,219.686)">
                    <path d="M0,-0.014L0.006,-0.016L0.017,0.002L0,-0.014Z" style="fill:rgb(1,1,1);fill-rule:nonzero;"/>
                </g>
                <g transform="matrix(1,0,0,1,43.437,225.018)">
                    <path d="M0,-1.559L0,-1.623L-0.615,-0.002L-0.411,0.064L0.205,-1.555L0.205,-1.62L0,-1.559Z" style="fill:rgb(1,1,1);"/>
                </g>
                <g transform="matrix(1,0,0,1,41.6577,223.351)">
                    <path d="M0,-5.274L-0.014,-5.299L1.779,0.108L1.984,0.048L0.191,-5.361L0.187,-5.382L0,-5.274Z" style="fill:rgb(1,1,1);"/>
                </g>
                <g transform="matrix(1,0,0,1,41.6216,217.95)">
                    <path d="M0,0.072L-0.005,0.059L0.036,0.127L0.224,0.018L0.182,-0.051L0.173,-0.055L-0.01,0.069L0,0.072Z" style="fill:rgb(1,1,1);"/>
                </g>
                <g transform="matrix(1,0,0,1,41.5796,217.856)">
                    <path d="M0,0.099L-0.016,0.082L0.032,0.163L0.215,0.039L0.146,-0.047L0.129,-0.064L0,0.099Z" style="fill:rgb(1,1,1);"/>
                </g>
                <g transform="matrix(1,0,0,1,41.5083,217.761)">
                    <path d="M0,0.148L-0.017,0.131L0.071,0.194L0.2,0.031L0.113,-0.03L0.098,-0.046L0,0.148Z" style="fill:rgb(1,1,1);"/>
                </g>
                <g transform="matrix(1,0,0,1,41.4116,217.718)">
                    <path d="M0,0.125L-0.01,0.122L0.097,0.19L0.194,-0.004L0.084,-0.062L0.074,-0.065L0,0.125Z" style="fill:rgb(1,1,1);"/>
                </g>
                <g transform="matrix(1,0,0,1,41.3081,217.646)">
                    <path d="M0,0.152L-0.023,0.155L0.104,0.197L0.178,0.006L0.064,-0.042L0.055,-0.045L-0.013,0.158L0,0.152Z" style="fill:rgb(1,1,1);"/>
                </g>
                <g transform="matrix(1,0,0,1,41.1909,217.606)">
                    <path d="M0,0.154L-0.014,0.16L0.104,0.198L0.172,-0.005L0.055,-0.044L-0.004,0.163L0,0.154Z" style="fill:rgb(1,1,1);"/>
                </g>
                <g transform="matrix(1,0,0,1,41.1011,217.558)">
                    <path d="M0,0.182L-0.02,0.176L0.086,0.211L0.145,0.004L0.025,-0.025L0.016,-0.029L0,0.182Z" style="fill:rgb(1,1,1);"/>
                </g>
                <g transform="matrix(1,0,0,1,40.9956,217.525)">
                    <path d="M0,0.201L-0.002,0.211L0.105,0.215L0.121,0.004L0.008,-0.014L-0.006,-0.005L0,0.201Z" style="fill:rgb(1,1,1);"/>
                </g>
                <g transform="matrix(1,0,0,1,36.5972,217.589)">
                    <path d="M0,0.214L-0.109,0.283L4.398,0.137L4.393,-0.069L-0.106,0.081L-0.203,0.146L-0.009,0.21L0,0.214Z" style="fill:rgb(1,1,1);"/>
                </g>
                <g transform="matrix(1,0,0,1,37.73,222.717)">
                    <path d="M0,0.013L-0.016,0.004L-0.006,0L0,0.013Z" style="fill:rgb(77,73,74);fill-rule:nonzero;"/>
                </g>
                <g transform="matrix(1,0,0,1,40.1655,223.678)">
                    <path d="M0,-0.219L-0.018,0L0,-0.219Z" style="fill:rgb(77,73,74);fill-rule:nonzero;"/>
                </g>
                <g transform="matrix(1,0,0,1,36.5093,222.063)">
                    <path d="M0,-0.271L0.004,-0.25L-0.007,-0.253L0,-0.271ZM-0.074,-0.014L-0.055,0.089L-0.016,0.2L0.033,0.282L0.309,0.426L0.583,0.573L0.849,0.715L1.117,0.848L1.127,0.852L1.4,0.974L1.672,1.099L1.966,1.218L2.265,1.329L2.273,1.331L2.591,1.417L2.908,1.501L2.919,1.505L3.269,1.556L3.628,1.612L3.639,1.614L4.029,1.636L4.043,1.63L4.461,1.642L4.906,1.626L5.381,1.601L5.478,1.536L6.09,-0.074L5.986,-0.216L5.992,-0.008L5.96,-0.049L5.984,-0.11L5.915,-0.105L5.887,-0.142L5.871,-0.101L5.52,-0.082L5.066,-0.082L4.648,-0.089L4.267,-0.11L3.895,-0.159L3.547,-0.219L3.229,-0.304L2.912,-0.388L2.615,-0.5L2.326,-0.607L2.055,-0.73L1.785,-0.863L1.506,-0.999L1.24,-1.142L0.977,-1.285L0.791,-1.382L0.797,-1.399L0.7,-1.431L0.674,-1.546L0.654,-1.652L0.646,-1.687L0.72,-1.845L0.617,-1.879L0.612,-1.881L0.516,-1.913L-0.098,-0.302L-0.104,-0.25L-0.088,-0.137L-0.074,-0.014Z" style="fill:rgb(1,1,1);fill-rule:nonzero;"/>
                </g>
                <g transform="matrix(0.998606,-0.0527805,-0.0527805,-0.998606,42.0353,222.093)">
                    <rect x="-0.006" y="0.012" width="0.479" height="0.208" style="fill:rgb(1,1,1);"/>
                </g>
                <g transform="matrix(0.999575,-0.0291356,-0.0291356,-0.999575,41.5858,222.1)">
                    <rect x="-0.003" y="0.006" width="0.445" height="0.207" style="fill:rgb(1,1,1);"/>
                </g>
                <g transform="matrix(1,0,0,1,41.1548,221.883)">
                    <path d="M0,0.198L0.01,0.199L0.428,0.211L0.421,0.004L0.004,-0.006L0.017,-0.013L-0.003,0.207L0,0.198Z" style="fill:rgb(1,1,1);"/>
                </g>
                <g transform="matrix(1,0,0,1,40.7524,221.879)">
                    <path d="M0,0.176L0.011,0.178L0.399,0.21L0.419,-0.01L0.026,-0.034L0.036,-0.029L0,0.176Z" style="fill:rgb(1,1,1);"/>
                </g>
                <g transform="matrix(0.992023,0.126058,0.126058,-0.992023,40.381,221.984)">
                    <rect x="0.012" y="-0.024" width="0.375" height="0.208" style="fill:rgb(1,1,1);"/>
                </g>
                <g transform="matrix(1,0,0,1,40.0327,221.805)">
                    <path d="M0,0.139L0.011,0.143L0.357,0.204L0.396,-0.01L0.036,-0.065L0.047,-0.063L0,0.139Z" style="fill:rgb(1,1,1);"/>
                </g>
                <g transform="matrix(1,0,0,1,39.7163,221.743)">
                    <path d="M0,0.116L0.316,0.201L0.363,-0.001L0.047,-0.085L-0.004,0.126L0,0.116Z" style="fill:rgb(1,1,1);"/>
                </g>
                <g transform="matrix(1,0,0,1,39.3862,221.661)">
                    <path d="M0,0.121L0.01,0.124L0.326,0.208L0.377,-0.003L0.059,-0.087L0.068,-0.083L0,0.121Z" style="fill:rgb(1,1,1);"/>
                </g>
                <g transform="matrix(1,0,0,1,39.0874,221.577)">
                    <path d="M0,0.093L0.299,0.204L0.367,0L0.068,-0.111L0.08,-0.107L-0.008,0.09L0,0.093Z" style="fill:rgb(1,1,1);"/>
                </g>
                <g transform="matrix(0.927134,0.37473,0.37473,-0.927134,38.7908,221.478)">
                    <rect x="0.029" y="-0.067" width="0.317" height="0.216" style="fill:rgb(1,1,1);"/>
                </g>
                <g transform="matrix(0.909329,0.416077,0.416077,-0.909329,38.5238,221.349)">
                    <rect x="0.03" y="-0.072" width="0.297" height="0.217" style="fill:rgb(1,1,1);"/>
                </g>
                <g transform="matrix(1,0,0,1,38.2427,221.24)">
                    <path d="M0,0.05L0.006,0.065L0.278,0.187L0.362,-0.003L0.085,-0.137L0.095,-0.134L-0.004,0.06L0,0.05Z" style="fill:rgb(1,1,1);"/>
                </g>
                <g transform="matrix(1,0,0,1,37.9741,221.116)">
                    <path d="M0,0.043L0.265,0.185L0.363,-0.009L0.094,-0.142L-0.003,0.052L0,0.043Z" style="fill:rgb(1,1,1);"/>
                </g>
                <g transform="matrix(1,0,0,1,37.7085,220.983)">
                    <path d="M0,0.032L0.263,0.184L0.359,-0.009L0.094,-0.152L-0.01,0.03L0,0.032Z" style="fill:rgb(1,1,1);"/>
                </g>
                <g transform="matrix(0.879407,0.47607,0.47607,-0.879407,37.4461,220.779)">
                    <rect x="0.032" y="-0.085" width="0.306" height="0.209" style="fill:rgb(1,1,1);"/>
                </g>
                <g transform="matrix(1,0,0,1,37.3062,220.748)">
                    <path d="M0,-0.083L-0.148,-0.024L0.127,0.122L0.23,-0.061L-0.044,-0.205L-0.193,-0.146L0,-0.083Z" style="fill:rgb(1,1,1);"/>
                </g>
                <g transform="matrix(1,0,0,1,65.3843,219.864)">
                    <path d="M0,-2.118L-0.616,-0.497L1.396,0.174L1.862,-0.901L1.875,-1.005L1.879,-1.112L1.862,-1.226L1.822,-1.336L1.758,-1.432L1.707,-1.538L1.623,-1.64L1.535,-1.734L1.444,-1.819L1.344,-1.907L1.24,-1.985L1.14,-2.041L1.042,-2.104L0.929,-2.153L0.829,-2.209L0.732,-2.241L0.645,-2.27L0.539,-2.283L0.446,-2.292L0.355,-2.279L0.266,-2.266L0.168,-2.235L0.084,-2.177L0,-2.118Z" style="fill:rgb(1,1,1);"/>
                </g>
                <g transform="matrix(1,0,0,1,66.689,219.407)">
                    <path d="M0,0.58L0.126,0.524L-1.885,-0.147L-1.953,0.058L0.059,0.727L0.193,0.677L0,0.58Z" style="fill:rgb(1,1,1);"/>
                </g>
                <g transform="matrix(1,0,0,1,35.6577,217.329)">
                    <path d="M0,1.544L0.01,1.514L0.623,-0.098L0.816,-0.032L0.223,1.56L0.211,1.624L0.208,1.602L0,1.642L-0.002,1.618L0,1.544Z" style="fill:rgb(1,1,1);fill-rule:nonzero;"/>
                </g>
                <g transform="matrix(1,0,0,1,45.521,222.706)">
                    <path d="M0,-0.021L-0.036,0L-0.039,-0.002L0,-0.021Z" style="fill:rgb(77,73,74);fill-rule:nonzero;"/>
                </g>
                <g transform="matrix(1,0,0,1,68.1089,223.393)">
                    <path d="M0,-4.011L0.006,-4.025L0.08,-3.954L0,-4.011ZM-32.376,-4.16L-32.354,-4.067L-32.351,-4.077L-32.193,-4.109L-32.233,-4.006L-27.725,-4.154L-27.618,-4.15L-27.502,-4.11L-27.385,-4.073L-27.269,-4.032L-27.161,-3.966L-27.074,-3.904L-27.012,-3.827L-26.975,-3.754L-27.08,-3.721L-25.287,1.687L-25.182,1.687L-25.18,1.753L-25.018,1.753L-24.865,1.751L-24.727,1.753L-24.6,1.732L-24.471,1.698L-24.342,1.636L-24.222,1.534L-24.079,1.398L-24.076,1.388L-23.994,1.275L-23.9,1.156L-23.793,1.029L-23.719,0.902L-23.625,0.749L-23.527,0.62L-23.447,0.476L-23.344,0.323L-23.26,0.202L-23.139,0.07L-23.041,-0.059L-22.929,-0.175L-22.828,-0.28L-22.721,-0.376L-22.617,-0.458L-22.498,-0.527L-22.473,-0.54L-22.549,-0.615L-22.473,-0.54L-22.352,-0.673L-22.242,-0.778L-22.145,-0.873L-22.04,-0.959L-21.939,-1.032L-21.834,-1.095L-21.74,-1.15L-21.636,-1.2L-21.52,-1.227L-21.406,-1.275L-21.289,-1.302L-21.154,-1.321L-21.005,-1.347L-20.839,-1.357L-20.66,-1.372L-20.486,-1.379L-20.476,-1.375L-1.02,-2.831L-0.905,-2.845L-0.801,-2.866L-0.708,-2.888L-0.609,-2.92L-0.52,-2.966L-0.426,-3.022L-0.348,-3.093L-0.258,-3.171L-0.238,-3.196L0.102,-3.99L-0.074,-4.104L0.004,-4.027L-0.009,-4.017L-0.096,-4.077L-0.18,-3.878L-0.238,-3.845L-0.312,-3.815L-0.4,-3.78L-0.48,-3.763L-0.584,-3.743L-0.687,-3.725L-20.155,-2.273L-20.279,-2.261L-20.398,-2.257L-20.518,-2.254L-20.645,-2.234L-20.774,-2.234L-20.887,-2.215L-21.011,-2.202L-21.123,-2.187L-21.25,-2.163L-21.363,-2.148L-21.479,-2.122L-21.609,-2.089L-21.727,-2.064L-21.973,-1.972L-22.09,-1.914L-22.318,-1.775L-22.553,-1.561L-22.799,-1.308L-23.035,-1.02L-23.266,-0.719L-23.463,-0.449L-23.657,-0.19L-23.818,0.005L-23.914,0.027L-23.994,0.044L-24.096,0.054L-24.289,0.054L-24.373,0.046L-24.48,0.042L-24.574,0.032L-26.36,-5.362L-26.4,-5.439L-26.461,-5.515L-26.548,-5.575L-26.666,-5.647L-26.779,-5.696L-26.896,-5.736L-27.006,-5.761L-27.113,-5.764L-31.618,-5.626L-32.16,-4.2L-32.162,-4.22L-32.376,-4.16Z" style="fill:rgb(1,1,1);fill-rule:nonzero;"/>
                </g>
                <g transform="matrix(1,0,0,1,67.4272,219.29)">
                    <path d="M0,0.49L0.117,0.464L0.22,0.444L0.314,0.421L0.412,0.388L0.502,0.343L0.597,0.289L0.67,0.227L0.762,0.149L0.607,0L0.538,0.074L0.467,0.127L0.398,0.169L0.324,0.197L0.252,0.218L0.168,0.243L0.078,0.256L-0.022,0.265L0,0.49Z" style="fill:rgb(1,1,1);"/>
                </g>
                <g transform="matrix(0.997257,-0.074019,-0.074019,-0.997257,48.0606,221.941)">
                    <rect x="-0.035" y="0.721" width="19.503" height="0.226" style="fill:rgb(1,1,1);"/>
                </g>
                <g transform="matrix(1,0,0,1,46.0649,221.009)">
                    <path d="M0,0.561L0.113,0.513L0.224,0.473L0.356,0.432L0.467,0.393L0.586,0.358L0.7,0.341L0.813,0.325L0.939,0.303L1.044,0.282L1.163,0.28L1.286,0.267L1.409,0.253L1.532,0.241L1.642,0.235L1.775,0.225L1.907,0.215L1.883,0L1.759,0.014L1.637,0.027L1.507,0.027L1.384,0.04L1.263,0.043L1.147,0.069L1.026,0.072L0.894,0.082L0.777,0.107L0.661,0.133L0.535,0.157L0.405,0.188L0.295,0.227L0.163,0.269L0.03,0.311L-0.088,0.37L0,0.561Z" style="fill:rgb(1,1,1);"/>
                </g>
                <g transform="matrix(1,0,0,1,44.3218,221.378)">
                    <path d="M0,2.116L0.043,2.087L0.13,1.987L0.207,1.884L0.301,1.764L0.398,1.634L0.51,1.498L0.609,1.358L0.723,1.211L0.836,1.067L0.953,0.911L1.072,0.778L1.189,0.655L1.309,0.522L1.41,0.414L1.536,0.328L1.641,0.244L1.743,0.192L1.655,0L1.523,0.075L1.41,0.156L1.277,0.263L1.151,0.383L0.917,0.629L0.788,0.791L0.674,0.937L0.561,1.082L0.447,1.229L0.348,1.368L0.236,1.504L0.139,1.634L0.045,1.753L-0.031,1.858L-0.104,1.942L-0.064,1.921L0,2.116Z" style="fill:rgb(1,1,1);"/>
                </g>
                <g transform="matrix(1,0,0,1,40.5952,216.488)">
                    <path d="M0,1.148L0.4,1.141L0.434,1.141L-3.016,-0.01L-3.19,0.093L-0.004,1.158L0,1.148Z" style="fill:white;"/>
                </g>
                <g transform="matrix(1,0,0,1,40.5952,216.705)">
                    <path d="M0,0.931L-4.104,1.062L-4.121,0.981L-4.143,0.888L-4.169,0.804L-4.201,0.706L-4.218,0.624L-4.218,0.56L-4.191,0.482L-4.121,0.429L-3.951,0.314L-3.764,0.203L-3.576,0.093L-3.389,-0.016L-3.209,-0.131L-3.19,-0.124L-0.004,0.941L0,0.931Z" style="fill:white;"/>
                </g>
                <g transform="matrix(1,0,0,1,38.1001,221.825)">
                    <path d="M0,-1.695L2.796,-1.852L3.89,-1.411L4.275,-0.267L4.394,0.128L3.929,0.157L3.476,0.157L3.058,0.149L2.676,0.128L2.304,0.079L1.956,0.019L1.638,-0.066L1.321,-0.15L1.024,-0.261L0.735,-0.369L0.464,-0.492L0.194,-0.625L-0.085,-0.76L-0.351,-0.904L-0.614,-1.047L-0.891,-1.193L-0.917,-1.308L-0.937,-1.414L-0.962,-1.529L-0.979,-1.643L0,-1.695Z" style="fill:white;fill-rule:nonzero;"/>
                </g>
                <g transform="matrix(1,0,0,1,45.1421,220.573)">
                    <path d="M0,-0.122L0.039,-0.075L0.398,0.142L0.515,-0.046L0.155,-0.264L0.191,-0.209L0,-0.122L0.014,-0.097L0.039,-0.075L0,-0.122Z" style="fill:white;"/>
                </g>
                <g transform="matrix(1,0,0,1,41.9448,221.788)">
                    <path d="M0,-1.27L-0.061,-1.344L0.451,0.198L0.654,0.135L0.143,-1.408L0.088,-1.468L0.143,-1.408L0.127,-1.455L0.088,-1.468L0,-1.27Z" style="fill:white;"/>
                </g>
                <g transform="matrix(1,0,0,1,40.9058,220.307)">
                    <path d="M0,-0.232L-0.053,-0.24L1.039,0.211L1.127,0.013L0.036,-0.437L-0.007,-0.44L0.036,-0.437L0.016,-0.443L-0.007,-0.44L0,-0.232Z" style="fill:white;"/>
                </g>
                <g transform="matrix(1,0,0,1,37.2319,219.981)">
                    <path d="M0,0.196L-0.104,0.311L3.674,0.093L3.667,-0.115L-0.109,0.103L-0.21,0.21L-0.109,0.103L-0.229,0.106L-0.21,0.21L0,0.196Z" style="fill:white;"/>
                </g>
                <g transform="matrix(1,0,0,1,37.2622,220.359)">
                    <path d="M0,0.184L0.041,0.251L0.038,0.197L0.025,0.139L0.022,0.083L0.006,0.035L0.002,-0.02L-0.011,-0.078L-0.026,-0.128L-0.03,-0.181L-0.24,-0.168L-0.241,-0.101L-0.23,-0.034L-0.214,0.013L-0.211,0.069L-0.195,0.118L-0.183,0.177L-0.159,0.239L-0.155,0.294L-0.104,0.365L-0.155,0.294L-0.141,0.342L-0.104,0.365L0,0.184Z" style="fill:white;"/>
                </g>
                <g transform="matrix(1,0,0,1,42.3979,220.659)">
                    <path d="M0,1.317L0.088,1.185L-0.376,1.214L-0.822,1.227L-1.227,1.211L-1.619,1.186L-1.969,1.135L-2.318,1.083L-2.635,0.999L-2.943,0.919L-3.242,0.807L-3.517,0.694L-3.793,0.579L-4.061,0.448L-4.33,0.315L-4.596,0.172L-4.861,0.028L-5.136,-0.117L-5.24,0.064L-4.965,0.211L-4.699,0.354L-4.427,0.508L-4.159,0.641L-3.877,0.768L-3.605,0.892L-3.311,1.011L-3.012,1.123L-2.686,1.21L-2.365,1.285L-2.008,1.35L-1.635,1.398L-1.246,1.43L-0.815,1.434L-0.369,1.421L0.113,1.399L0.201,1.264L0.113,1.399L0.247,1.388L0.201,1.264L-0.002,1.327L0,1.317Z" style="fill:white;"/>
                </g>
                <g transform="matrix(1,0,0,1,47.9478,221.791)">
                    <path d="M0,-0.782L-0.143,-0.775L-0.302,-0.753L-0.444,-0.747L-0.599,-0.734L-0.749,-0.708L-0.907,-0.684L-1.066,-0.661L-1.22,-0.626L-1.371,-0.591L-1.504,-0.549L-1.649,-0.501L-1.786,-0.448L-1.902,-0.389L-2.041,-0.328L-2.155,-0.247L-2.259,-0.163L-2.129,0L-2.028,-0.075L-1.931,-0.14L-1.824,-0.202L-1.701,-0.247L-1.581,-0.315L-1.452,-0.348L-1.3,-0.384L-1.167,-0.425L-1.021,-0.441L-0.892,-0.473L-0.735,-0.486L-0.587,-0.512L-0.429,-0.536L-0.272,-0.549L-0.128,-0.564L0.024,-0.567L0,-0.782Z" style="fill:white;"/>
                </g>
                <g transform="matrix(-0.997219,0.0745211,0.0745211,0.997219,48.059,221.946)">
                    <rect x="-19.47" y="-0.943" width="19.503" height="0.216" style="fill:white;"/>
                </g>
                <g transform="matrix(1,0,0,1,67.7671,219.655)">
                    <path d="M0,-1.287L0.082,-1.173L0.166,-1.067L0.205,-0.958L0.268,-0.85L0.299,-0.754L0.309,-0.654L0.311,-0.567L0.305,-0.482L0.282,-0.414L0.25,-0.349L0.207,-0.287L0.133,-0.225L0.056,-0.186L-0.068,-0.141L-0.197,-0.109L-0.362,-0.1L-0.34,0.125L-0.162,0.108L-0.006,0.063L0.129,0.01L0.25,-0.057L0.36,-0.129L0.437,-0.233L0.48,-0.327L0.519,-0.443L0.517,-0.563L0.522,-0.679L0.496,-0.796L0.453,-0.928L0.405,-1.044L0.34,-1.173L0.257,-1.308L0.172,-1.412L0,-1.287Z" style="fill:white;"/>
                </g>
                <g transform="matrix(1,0,0,1,65.4487,218.156)">
                    <path d="M0,-0.897L0.175,-0.903L0.353,-0.886L0.534,-0.847L0.709,-0.821L0.875,-0.766L1.04,-0.711L1.197,-0.636L1.348,-0.565L1.503,-0.481L1.645,-0.39L1.798,-0.295L1.908,-0.206L2.023,-0.102L2.139,0.011L2.232,0.119L2.318,0.211L2.49,0.086L2.391,-0.034L2.276,-0.147L2.163,-0.261L2.037,-0.368L1.898,-0.468L1.76,-0.569L1.616,-0.66L1.455,-0.757L1.287,-0.835L1.113,-0.903L0.939,-0.961L0.756,-1.023L0.572,-1.063L0.388,-1.091L0.178,-1.108L-0.006,-1.106L0,-0.897Z" style="fill:white;"/>
                </g>
                <g transform="matrix(0.999405,-0.0344823,-0.0344823,-0.999405,48.2519,218.15)">
                    <rect x="-0.009" y="0.297" width="17.227" height="0.209" style="fill:white;"/>
                </g>
                <g transform="matrix(1,0,0,1,45.5151,217.664)">
                    <path d="M0,-0.244L0.162,-0.179L0.334,-0.143L0.5,-0.089L0.67,-0.053L0.852,-0.013L1.021,0.032L1.205,0.062L1.37,0.084L1.542,0.12L1.72,0.136L1.895,0.162L2.066,0.164L2.231,0.188L2.406,0.181L2.564,0.193L2.718,0.189L2.721,-0.015L2.559,-0.015L2.399,-0.025L2.251,-0.032L2.083,-0.044L1.914,-0.058L1.746,-0.071L1.581,-0.095L1.406,-0.12L1.234,-0.155L1.069,-0.179L0.9,-0.223L0.727,-0.249L0.559,-0.296L0.379,-0.344L0.229,-0.383L0.065,-0.437L-0.002,-0.234L0,-0.244Z" style="fill:white;"/>
                </g>
                <g transform="matrix(1,0,0,1,39.7085,217.119)">
                    <path d="M0,-1.291L0.294,-1.333L0.572,-1.359L0.838,-1.379L1.082,-1.395L1.311,-1.405L1.52,-1.379L1.732,-1.372L1.91,-1.355L2.096,-1.327L2.268,-1.29L2.429,-1.259L2.574,-1.209L2.73,-1.158L2.854,-1.106L3.005,-1.045L3.125,-0.983L3.264,-0.914L3.404,-0.847L3.54,-0.768L3.676,-0.69L3.813,-0.613L3.955,-0.521L4.094,-0.453L4.246,-0.359L4.414,-0.281L4.576,-0.184L4.758,-0.113L4.933,-0.022L5.129,0.064L5.344,0.138L5.571,0.233L5.805,0.312L5.872,0.108L5.639,0.029L5.408,-0.058L5.217,-0.134L5.017,-0.211L4.832,-0.305L4.674,-0.38L4.512,-0.477L4.352,-0.551L4.197,-0.635L4.051,-0.717L3.916,-0.794L3.773,-0.886L3.637,-0.963L3.498,-1.031L3.358,-1.099L3.232,-1.174L3.093,-1.242L2.941,-1.304L2.798,-1.361L2.643,-1.414L2.478,-1.47L2.306,-1.505L2.131,-1.531L1.939,-1.572L1.742,-1.596L1.538,-1.599L1.301,-1.602L1.074,-1.603L0.812,-1.594L0.547,-1.573L0.266,-1.538L-0.026,-1.506L-0.01,-1.296L0,-1.291Z" style="fill:white;"/>
                </g>
                <g transform="matrix(1,0,0,1,36.5308,215.613)">
                    <path d="M0,1.617L0.167,1.5L0.355,1.388L0.543,1.28L0.734,1.16L0.91,1.056L1.107,0.949L1.292,0.848L1.482,0.762L1.687,0.668L1.891,0.573L2.092,0.49L2.299,0.418L2.523,0.363L2.727,0.302L2.951,0.247L3.168,0.21L3.151,0L2.908,0.048L2.679,0.092L2.451,0.154L2.237,0.214L2.024,0.304L1.803,0.382L1.604,0.467L1.398,0.56L1.191,0.664L0.994,0.771L0.809,0.871L0.621,0.981L0.433,1.092L0.246,1.201L0.068,1.315L-0.111,1.428L-0.011,1.614L0,1.617Z" style="fill:white;"/>
                </g>
                <g transform="matrix(1,0,0,1,36.4907,217.242)">
                    <path d="M0,0.428L0.11,0.519L0.079,0.421L0.059,0.317L0.033,0.234L0.01,0.14L-0.003,0.08L-0.013,0.044L0.004,-0.003L0.029,-0.015L-0.071,-0.202L-0.165,-0.114L-0.214,-0.001L-0.227,0.104L-0.194,0.2L-0.171,0.295L-0.146,0.379L-0.119,0.462L-0.104,0.544L-0.003,0.63L-0.104,0.544L-0.101,0.63L-0.003,0.63L0,0.428Z" style="fill:white;"/>
                </g>
                <g transform="matrix(1,0,0,1,44.4429,218.446)">
                    <path d="M0,-0.011L-0.002,0L-0.004,-0.001L0,-0.011Z" style="fill:white;fill-rule:nonzero;"/>
                </g>
                <g transform="matrix(1,0,0,1,44.394,218.515)">
                    <path d="M0,-0.031L0.045,-0.07L0.02,0.039L0,-0.031Z" style="fill:white;fill-rule:nonzero;"/>
                </g>
                <g transform="matrix(1,0,0,1,47.2925,220.939)">
                    <path d="M0,-1.218L3.55,-0.031L3.165,-0.009L3.162,0L0.08,-1.029L0,-1.218Z" style="fill:white;fill-rule:nonzero;"/>
                </g>
                <g transform="matrix(1,0,0,1,44.6421,220.623)">
                    <path d="M0,-2.082L0.113,-2.197L1.593,-2.282L1.906,-2.118L2.648,-0.371L2.533,-0.224L0.944,-0.11L1.015,-0.097L0.961,-0.011L0.953,-0.01L0.601,-0.214L0.6,-0.218L0.691,-0.26L0,-2.082ZM2.758,-0.369L2.689,-0.425L2.758,-0.369ZM20.68,-2.661L20.699,-2.784L20.742,-2.878L20.819,-2.948L20.936,-3.007L21.072,-3.026L21.146,-3.023L21.232,-3.017L21.312,-3.001L21.393,-2.984L21.49,-2.951L21.578,-2.922L21.672,-2.88L21.771,-2.825L21.855,-2.786L21.943,-2.725L22.021,-2.667L22.106,-2.595L22.193,-2.534L22.254,-2.459L22.33,-2.392L22.391,-2.316L22.504,-2.171L22.562,-2.021L22.592,-1.946L22.607,-1.897L22.598,-1.77L22.574,-1.671L22.503,-1.587L22.4,-1.536L22.261,-1.507L22.184,-1.499L22.103,-1.517L22.008,-1.525L21.908,-1.548L21.82,-1.577L21.724,-1.61L21.619,-1.654L21.528,-1.707L21.436,-1.749L21.334,-1.805L21.246,-1.865L21.163,-1.937L21.085,-1.996L21.004,-2.076L20.933,-2.154L20.871,-2.229L20.771,-2.383L20.713,-2.53L20.696,-2.579L20.68,-2.661ZM-8.154,-2.751L-3.646,-2.897L-3.551,-2.888L-3.465,-2.857L-3.347,-2.819L-3.24,-2.783L-3.145,-2.718L-3.072,-2.673L-3.03,-2.604L-2.998,-2.572L-1.205,2.835L-1.179,2.919L-1.091,2.916L-1,2.904L-0.896,2.916L-0.77,2.927L-0.65,2.923L-0.533,2.929L-0.427,2.9L-0.308,2.865L-0.211,2.8L-0.094,2.675L0.004,2.546L0.186,2.328L0.264,2.224L0.338,2.129L0.402,2.032L0.48,1.928L0.545,1.831L0.693,1.643L0.774,1.562L0.859,1.471L0.957,1.374L1.055,1.276L1.177,1.168L1.111,1.085L1.209,1.005L1.32,0.934L1.446,0.878L1.562,0.819L1.688,0.766L1.831,0.726L1.977,0.677L2.119,0.639L2.256,0.619L2.404,0.592L2.563,0.571L2.713,0.545L2.867,0.532L3.023,0.519L3.169,0.503L3.312,0.497L5.812,0.315L2.73,-0.713L2.65,-0.902L6.2,0.284L22.779,-0.955L23.087,-1.003L23.317,-1.11L23.477,-1.263L23.533,-1.437L23.533,-1.632L23.537,-1.642L23.482,-1.865L23.372,-2.087L23.213,-2.323L23.119,-2.429L23.016,-2.54L22.902,-2.652L22.783,-2.748L22.656,-2.854L22.515,-2.944L22.209,-3.134L22.047,-3.199L21.889,-3.272L21.713,-3.331L21.529,-3.393L21.354,-3.418L21.172,-3.458L20.984,-3.478L20.801,-3.474L18.297,-3.382L3.594,-2.878L3.432,-2.878L3.279,-2.875L3.107,-2.878L2.943,-2.9L2.774,-2.913L2.605,-2.927L2.441,-2.95L2.266,-2.976L2.091,-3.001L1.919,-3.037L1.748,-3.073L1.576,-3.108L1.398,-3.156L1.23,-3.203L1.07,-3.245L0.906,-3.3L0.672,-3.378L0.443,-3.466L0.242,-3.543L0.041,-3.622L-0.135,-3.712L-0.303,-3.789L-0.477,-3.882L-0.637,-3.956L-0.789,-4.05L-0.925,-4.128L-1.07,-4.208L-1.206,-4.286L-1.352,-4.366L-1.487,-4.445L-1.617,-4.51L-1.754,-4.589L-1.893,-4.655L-2.036,-4.714L-2.172,-4.761L-2.326,-4.811L-2.492,-4.866L-2.65,-4.91L-2.826,-4.935L-3.01,-4.964L-3.198,-4.984L-3.408,-5L-3.633,-5.011L-3.861,-5L-4.102,-4.994L-4.37,-4.966L-4.648,-4.939L-4.953,-4.9L-5.18,-4.868L-5.404,-4.813L-5.629,-4.759L-5.836,-4.686L-6.055,-4.608L-6.266,-4.528L-6.465,-4.444L-6.67,-4.351L-6.865,-4.253L-7.062,-4.145L-3.916,-3.095L-8.151,-2.953L-8.154,-2.751Z" style="fill:white;fill-rule:nonzero;"/>
                </g>
                <g transform="matrix(1,0,0,1,64.3198,218.921)">
                    <path d="M0,0.166L-0.09,0.114L-0.105,0.032L0.023,0L0.051,0.085L-0.027,0.026L0,0.166Z" style="fill:rgb(1,1,1);"/>
                </g>
                <g transform="matrix(1,0,0,1,64.4966,219.017)">
                    <path d="M0,-0.033L-0.02,-0.007L-0.053,0.025L-0.092,0.045L-0.13,0.064L-0.177,0.071L-0.204,-0.069L-0.185,-0.063L-0.155,-0.085L-0.12,-0.095L-0.116,-0.104L-0.124,-0.085L-0.003,-0.023L0,-0.033Z" style="fill:rgb(1,1,1);"/>
                </g>
                <g transform="matrix(1,0,0,1,64.1304,218.993)">
                    <path d="M0,-0.823L0.01,-0.82L0.071,-0.746L0.152,-0.664L0.229,-0.574L0.305,-0.473L0.365,-0.366L0.4,-0.246L0.401,-0.117L0.363,0L0.242,-0.061L0.269,-0.14L0.263,-0.217L0.24,-0.311L0.182,-0.394L0.117,-0.492L0.047,-0.57L-0.036,-0.652L-0.098,-0.726L-0.088,-0.722L0,-0.823Z" style="fill:rgb(1,1,1);"/>
                </g>
                <g transform="matrix(1,0,0,1,62.939,218.267)">
                    <path d="M0,-0.441L-0.01,-0.445L0.162,-0.441L0.323,-0.441L0.476,-0.412L0.621,-0.395L0.77,-0.357L0.91,-0.288L1.055,-0.207L1.191,-0.096L1.104,0.004L0.971,-0.084L0.844,-0.159L0.725,-0.219L0.596,-0.254L0.453,-0.278L0.307,-0.295L0.158,-0.3L0.006,-0.298L0.01,-0.307L-0.014,-0.434L0,-0.441Z" style="fill:rgb(1,1,1);"/>
                </g>
                <g transform="matrix(1,0,0,1,50.2993,217.933)">
                    <path d="M0,0.557L0.056,0.52L12.626,-0.1L12.649,0.027L0.074,0.657L0.13,0.621L0,0.557Z" style="fill:rgb(1,1,1);"/>
                </g>
                <g transform="matrix(1,0,0,1,50.0015,218.452)">
                    <path d="M0,0.477L-0.137,0.432L-0.127,0.337L-0.101,0.26L-0.062,0.176L-0.01,0.118L0.057,0.076L0.145,0.04L0.242,0.008L0.354,0L0.372,0.137L0.268,0.157L0.176,0.179L0.129,0.185L0.084,0.225L0.062,0.26L0.025,0.302L0.006,0.361L0.01,0.448L-0.127,0.402L0,0.477Z" style="fill:rgb(1,1,1);"/>
                </g>
                <g transform="matrix(1,0,0,1,64.2407,218.047)">
                    <path d="M0,0.829L-0.035,0.774L-0.081,0.716L-0.117,0.66L-0.165,0.61L-0.212,0.554L-0.26,0.505L-0.305,0.447L-0.435,0.35L-0.567,0.262L-0.7,0.207L-0.839,0.171L-0.984,0.154L-1.138,0.126L-1.286,0.118L-1.448,0.118L-14.022,0.75L-13.919,0.554L-13.88,0.548L-13.867,0.542L-1.292,-0.088L-1.083,-0.072L-0.907,-0.079L-0.742,-0.056L-0.591,-0.026L-0.45,0.042L-0.325,0.115L-0.208,0.22L-0.075,0.372L0.042,0.509L0.126,0.644L0.167,0.745L0.167,0.809L0.14,0.865L0.059,0.914L0.047,0.917L0.042,0.897L0,0.829Z" style="fill:rgb(1,1,1);fill-rule:nonzero;"/>
                </g>
                <g transform="matrix(1,0,0,1,50.0112,218.738)">
                    <path d="M0,0.162L0.016,0.081L0.021,0.068L0.031,0.066L0.097,0.066L0.207,0.059L0.312,-0.137L0.35,-0.143L0.362,-0.149L12.938,-0.778L13.146,-0.763L13.322,-0.77L13.487,-0.746L13.639,-0.717L13.779,-0.649L13.904,-0.575L14.021,-0.471L14.154,-0.318L14.271,-0.182L14.355,-0.046L14.396,0.055L14.396,0.119L14.369,0.175L14.288,0.224L14.276,0.226L14.135,0.26L13.922,0.284L1,0.951L0.99,0.947L0.809,0.941L0.631,0.892L0.473,0.817L0.336,0.74L0.223,0.626L0.143,0.512L0.07,0.402L0.016,0.308L0.006,0.24L0,0.162ZM-0.146,0.146L-0.133,0.268L-0.107,0.353L-0.072,0.473L0.012,0.61L0.115,0.72L0.248,0.841L0.408,0.947L0.586,1.028L0.773,1.079L1,1.08L13.918,0.424L14.164,0.398L14.338,0.359L14.466,0.272L14.537,0.154L14.533,0.035L14.484,-0.11L14.391,-0.25L14.262,-0.413L14.129,-0.565L13.986,-0.689L13.834,-0.781L13.686,-0.854L13.523,-0.886L13.328,-0.918L13.135,-0.918L12.914,-0.905L0.344,-0.285L0.344,-0.281L0.21,-0.275L0.074,-0.224L-0.016,-0.145L-0.078,-0.058L-0.12,0.037L-0.146,0.146Z" style="fill:rgb(1,1,1);fill-rule:nonzero;"/>
                </g>
            </g>
        </g>
    </g>
</svg>
