<?xml version="1.0" encoding="UTF-8" standalone="no"?>
<!-- Generator: Adobe Illustrator 16.0.0, SVG Export Plug-In . SVG Version: 6.00 Build 0)  -->

<svg
   version="1.1"
   id="Layer_1"
   x="0px"
   y="0px"
   width="750"
   height="1125"
   viewBox="0 0 750 1125"
   xml:space="preserve"
   sodipodi:docname="boardDeckBack.svg"
   inkscape:version="1.2.2 (b0a8486, 2022-12-01)"
   xmlns:inkscape="http://www.inkscape.org/namespaces/inkscape"
   xmlns:sodipodi="http://sodipodi.sourceforge.net/DTD/sodipodi-0.dtd"
   xmlns="http://www.w3.org/2000/svg"
   xmlns:svg="http://www.w3.org/2000/svg"><defs
   id="defs499" /><sodipodi:namedview
   id="namedview497"
   pagecolor="#ffffff"
   bordercolor="#999999"
   borderopacity="1"
   inkscape:showpageshadow="0"
   inkscape:pageopacity="0"
   inkscape:pagecheckerboard="0"
   inkscape:deskcolor="#d1d1d1"
   showgrid="false"
   inkscape:zoom="0.47546296"
   inkscape:cx="701.42162"
   inkscape:cy="411.17819"
   inkscape:window-width="1390"
   inkscape:window-height="997"
   inkscape:window-x="59"
   inkscape:window-y="25"
   inkscape:window-maximized="0"
   inkscape:current-layer="Layer_1" />
<style
   type="text/css"
   id="style2">

</style>


<path
   class="st23"
   d="M 0,0 V 1125 H 750.00001 V 0 Z"
   id="path4"
   style="stroke-width:4.16667;fill:#ffffff;fill-opacity:1"
   sodipodi:nodetypes="ccccc" /><path
   style="fill:#909090;fill-opacity:1;stroke:none;stroke-width:21.4627;stroke-linejoin:round;paint-order:markers stroke fill"
   d="m 176.66991,1072.6401 c -28.6388,-6.3976 -47.65653,-16.7885 -68.08521,-37.2005 -15.520984,-15.5084 -25.628,-31.818 -33.518156,-54.08793 L 69.406037,965.37488 V 562.60955 159.84421 l 5.938702,-16.80552 C 83.228373,120.72934 93.298307,104.61691 109.26123,88.770486 124.67823,73.466 139.878,63.916618 161.24368,56.112077 l 15.42623,-5.634959 h 197.70205 197.70205 l 16.35969,5.789046 c 44.05204,15.58826 76.74121,50.832326 89.24189,96.216796 3.55687,12.9134 3.7655,35.63795 3.7655,410.12659 0,376.69691 -0.19034,397.13703 -3.82076,410.12658 -10.88667,38.95317 -37.1171,71.56287 -70.84331,88.07237 -31.3058,15.3247 -25.06531,14.9277 -232.40506,14.7814 -146.65903,-0.1035 -187.70257,-0.716 -197.70205,-2.9498 z"
   id="path46552" /><path
   class="st0"
   d="m 203.75686,1039.3016 c -54.1666,0 -97.9166,-44.58333 -97.9166,-99.16666 V 185.96827 c 0,-54.58334 43.75,-99.16667 97.9166,-99.16667 h 343.3334 c 54.1666,0 97.9166,44.58333 97.9166,99.16667 v 753.75 c 0,54.58334 -43.75,99.16663 -97.9166,99.16663 h -343.3334 z"
   id="path8"
   style="fill:#1d1d1d;fill-opacity:1;stroke:none;stroke-width:4.16667" />

</svg>
