<?xml version="1.0" encoding="UTF-8" standalone="no"?>
<!-- Created with Inkscape (http://www.inkscape.org/) -->

<svg
     width="5025"
     height="1125"
     viewBox="0 0 5025 1125"
     version="1.1"
     id="svg5"
     xml:space="preserve"
     inkscape:version="1.2.2 (732a01da63, 2022-12-09)"
     sodipodi:docname="MintTinAccordion8.svg"
     xmlns:inkscape="http://www.inkscape.org/namespaces/inkscape"
     xmlns:sodipodi="http://sodipodi.sourceforge.net/DTD/sodipodi-0.dtd"
     xmlns="http://www.w3.org/2000/svg"
     xmlns:svg="http://www.w3.org/2000/svg"><sodipodi:namedview
         id="namedview7"
         pagecolor="#ffffff"
         bordercolor="#999999"
         borderopacity="1"
         inkscape:showpageshadow="0"
         inkscape:pageopacity="0"
         inkscape:pagecheckerboard="0"
         inkscape:deskcolor="#d1d1d1"
         inkscape:document-units="mm"
         showgrid="false"
         inkscape:zoom="0.32346812"
         inkscape:cx="2521.114"
         inkscape:cy="919.71969"
         inkscape:window-width="2560"
         inkscape:window-height="1351"
         inkscape:window-x="1491"
         inkscape:window-y="585"
         inkscape:window-maximized="1"
         inkscape:current-layer="layer1" /><defs
         id="defs2" /><g
         inkscape:label="Layer 1"
         inkscape:groupmode="layer"
         id="layer1"><rect
             style="fill:#7d567d;stroke-width:6.72793;paint-order:markers fill stroke"
             id="rect908"
             width="5025"
             height="1125"
             x="0"
             y="0" /><path
             id="path978"
             style="color:black;solid-color:black;fill:#a773a7;stroke-width:207.6;stroke-linejoin:round;-inkscape-stroke:none;paint-order:markers fill stroke"
             d="M 199.30265,87.761786 A 103.81038,103.81038 0 0 0 95.503817,191.56257 v 741.875 A 103.81038,103.81038 0 0 0 199.30265,1037.2382 h 328.1875 A 103.81038,103.81038 0 0 0 631.28898,933.43757 v -741.875 A 103.81038,103.81038 0 0 0 527.49015,87.761786 Z" /><path
             id="path978-0"
             style="color:black;solid-color:black;fill:#a773a7;stroke-width:207.6;stroke-linejoin:round;-inkscape-stroke:none;paint-order:markers fill stroke"
             d="M 813.36984,87.761786 A 103.81038,103.81038 0 0 0 709.57101,191.56257 v 741.875 a 103.81038,103.81038 0 0 0 103.79883,103.80063 h 328.18746 a 103.81038,103.81038 0 0 0 103.7989,-103.80063 v -741.875 A 103.81038,103.81038 0 0 0 1141.5573,87.761786 Z" /><path
             id="path978-8"
             style="color:black;solid-color:black;fill:#a773a7;stroke-width:207.6;stroke-linejoin:round;-inkscape-stroke:none;paint-order:markers fill stroke"
             d="M 1427.4371,87.761774 A 103.81038,103.81038 0 0 0 1323.6382,191.56257 v 741.875 a 103.81038,103.81038 0 0 0 103.7989,103.80063 h 328.1875 a 103.81038,103.81038 0 0 0 103.7988,-103.80063 v -741.875 A 103.81038,103.81038 0 0 0 1755.6246,87.761774 Z" /><path
             id="path978-1"
             style="color:black;solid-color:black;fill:#a773a7;stroke-width:207.6;stroke-linejoin:round;-inkscape-stroke:none;paint-order:markers fill stroke"
             d="M 2041.5044,87.761764 A 103.81038,103.81038 0 0 0 1937.7055,191.56256 v 741.875 a 103.81038,103.81038 0 0 0 103.7989,103.80064 h 328.1875 a 103.81038,103.81038 0 0 0 103.7988,-103.80064 v -741.875 A 103.81038,103.81038 0 0 0 2369.6919,87.761764 Z" /><path
             id="path978-05"
             style="color:black;solid-color:black;fill:#a773a7;stroke-width:207.6;stroke-linejoin:round;-inkscape-stroke:none;paint-order:markers fill stroke"
             d="M 2655.5716,87.761769 A 103.81038,103.81038 0 0 0 2551.7727,191.56256 v 741.875 a 103.81038,103.81038 0 0 0 103.7989,103.80064 h 328.1875 a 103.81038,103.81038 0 0 0 103.7988,-103.80064 v -741.875 A 103.81038,103.81038 0 0 0 2983.7591,87.761769 Z" /><path
             id="path978-2"
             style="color:black;solid-color:black;fill:#a773a7;stroke-width:207.6;stroke-linejoin:round;-inkscape-stroke:none;paint-order:markers fill stroke"
             d="M 3269.6388,87.761782 A 103.81038,103.81038 0 0 0 3165.8399,191.56257 v 741.875 a 103.81038,103.81038 0 0 0 103.7989,103.80063 h 328.1875 a 103.81038,103.81038 0 0 0 103.7988,-103.80063 v -741.875 A 103.81038,103.81038 0 0 0 3597.8263,87.761782 Z" /><path
             id="path978-9"
             style="color:black;solid-color:black;fill:#a773a7;stroke-width:207.6;stroke-linejoin:round;-inkscape-stroke:none;paint-order:markers fill stroke"
             d="M 3883.7061,87.761784 A 103.81038,103.81038 0 0 0 3779.9072,191.56258 v 741.875 a 103.81038,103.81038 0 0 0 103.7989,103.80062 h 328.1874 a 103.81038,103.81038 0 0 0 103.7989,-103.80062 v -741.875 A 103.81038,103.81038 0 0 0 4211.8935,87.761784 Z" /><path
             id="path978-85"
             style="color:black;solid-color:black;fill:#a773a7;stroke-width:207.6;stroke-linejoin:round;-inkscape-stroke:none;paint-order:markers fill stroke"
             d="M 4497.7732,87.761812 A 103.81038,103.81038 0 0 0 4393.9744,191.5626 v 741.875 a 103.81038,103.81038 0 0 0 103.7988,103.8006 h 328.1875 A 103.81038,103.81038 0 0 0 4929.7596,933.4376 V 191.5626 A 103.81038,103.81038 0 0 0 4825.9607,87.761812 Z" /></g></svg>
