<?xml version="1.0" encoding="utf-8"?>
<!-- Generator: Adobe Illustrator 16.0.0, SVG Export Plug-In . SVG Version: 6.00 Build 0)  -->
<!DOCTYPE svg PUBLIC "-//W3C//DTD SVG 1.1//EN" "http://www.w3.org/Graphics/SVG/1.1/DTD/svg11.dtd">
<svg version="1.1" id="Layer_1" xmlns="http://www.w3.org/2000/svg" xmlns:xlink="http://www.w3.org/1999/xlink" x="0px" y="0px"
	 width="180px" height="270px" viewBox="0 0 180 270" style="enable-background:new 0 0 180 270;" xml:space="preserve">
<style type="text/css">
<![CDATA[
	.st0{fill:none;stroke:#26AAE1;stroke-miterlimit:10;stroke-dasharray:4,4;}
	.st1{font-size:5.25;}
	.st2{fill:#E7E7E7;}
	.st3{fill:#4D494A;}
	.st4{fill:#EB242B;}
	.st5{fill:none;stroke:#FF0000;stroke-width:0.989;stroke-miterlimit:10;}
	.st6{fill-rule:evenodd;clip-rule:evenodd;fill:#4D494A;}
	.st7{fill:#231F20;}
	.st8{font-family:'Arial-BoldMT';}
	.st9{fill-rule:evenodd;clip-rule:evenodd;fill:#B7D334;}
	.st10{fill:none;stroke:#929497;stroke-width:0.7497;}
	.st11{fill:#F9A61C;}
	.st12{fill:none;stroke:#FF0000;stroke-miterlimit:10;}
	.st13{fill:#929497;}
	.st14{fill:#2DA6DE;}
	.st15{font-size:4.5;}
	.st16{fill:#FFFFFF;}
	.st17{fill:none;}
	.st18{fill:none;stroke:#2DA6DE;stroke-width:0.7497;stroke-dasharray:5;}
	.st19{font-family:'Arial-Black';}
	.st20{fill:#010101;}
	.st21{fill-rule:evenodd;clip-rule:evenodd;fill:#FFFFFF;}
	.st22{fill:none;stroke:#F9A61C;stroke-width:0.7497;}
	.st23{fill-opacity:0.5;}
	.st24{fill-rule:evenodd;clip-rule:evenodd;fill:#010101;}
]]>
</style>
<path class="st23" d="M0,0v270h180V0H0z M163.7,225.5c0,18.1-14.6,32.8-32.5,32.8H48.8c-17.9,0-32.5-14.7-32.5-32.8V44.5
	c0-18.1,14.6-32.8,32.5-32.8h82.4c17.9,0,32.5,14.7,32.5,32.8V225.5z"/>
<path class="st5" d="M48.8,258.3c-17.9,0-32.5-14.7-32.5-32.8V44.5c0-18.1,14.6-32.8,32.5-32.8h82.4c17.9,0,32.5,14.7,32.5,32.8
	v180.9c0,18.1-14.6,32.8-32.5,32.8H48.8z"/>
<path class="st0" d="M48.8,249.3c-13,0-23.5-10.7-23.5-23.8V44.5c0-13.1,10.5-23.8,23.5-23.8h82.4c13,0,23.5,10.7,23.5,23.8v180.9
	c0,13.1-10.5,23.8-23.5,23.8H48.8z"/>
<g>
	<text transform="matrix(0.9991 0 0 1 126.3872 63.0303)"><tspan x="0" y="0" class="st7 st19 st15">Safe Zone</tspan><tspan x="-81.5" y="5" class="st14 st8 st15">DO NOT place ANY important text/images beyond</tspan><tspan x="-71.7" y="9.9" class="st14 st8 st15">this dotted line. Anything past the dotted line</tspan><tspan x="-76.3" y="14.9" class="st14 st8 st15">has the potential for being trimmed. This line is</tspan><tspan x="-81.5" y="19.8" class="st14 st8 st15">provided to prevent trimming of your text/images.</tspan><tspan x="1.5" y="29.7" class="st7 st19 st15">Trim Line</tspan><tspan x="-71.5" y="34.6" class="st4 st8 st15">This is the actual cutline of your final design.</tspan><tspan x="-3" y="44.6" class="st7 st19 st15">Bleed Zone</tspan><tspan x="-66.3" y="49.5" class="st13 st8 st15">Extend any card artwork/color to the edge </tspan><tspan x="-74" y="54.5" class="st13 st8 st15">(covering the gray) if you want your design to </tspan><tspan x="-82.3" y="59.4" class="st13 st8 st15">extend to the edge on the final print. We require a </tspan><tspan x="-81" y="64.4" class="st13 st8 st15">bleed of 1/8”. Please use the Safe Zone guideline </tspan><tspan x="-73.3" y="69.3" class="st13 st8 st15">  to prevent trimming of essential text/images.</tspan><tspan x="-70.5" y="74.2" class="st13 st8 st15">The bleed is to make sure your design/color </tspan><tspan x="-43" y="79.2" class="st13 st8 st15">extends to the edge of the card.</tspan><tspan x="-4.7" y="89.1" class="st7 st19 st15">Border Area</tspan><tspan x="-66.3" y="94.1" class="st11 st8 st15">This is the minimum recommended border</tspan><tspan x="-67.3" y="99" class="st11 st8 st15">area. If you want a border around the edge </tspan><tspan x="-58.2" y="104" class="st11 st8 st15">of your card, you will want it to extend </tspan><tspan x="-77" y="108.9" class="st11 st8 st15">the width of this guide on each side of the card.</tspan></text>
	<g>
		<rect x="31.5" y="33.5" class="st2" width="117" height="21.8"/>
		<text transform="matrix(0.9991 0 0 1 34.9419 39.5889)"><tspan x="0" y="0" class="st7 st8 st1">MINT TIN CARD TEMPLATE</tspan><tspan x="0" y="6" class="st7 st8 st1">52 mm x 87 mm </tspan><tspan x="0" y="12" class="st7 st8 st1">www.thegamecrafter.com</tspan></text>
	</g>
	<rect x="154.7" y="152.8" class="st11" width="18" height="19.6"/>
	<line class="st22" x1="121.7" y1="153.2" x2="169.9" y2="153.2"/>
	<line class="st12" x1="127.5" y1="93.6" x2="164.2" y2="93.6"/>
	<line class="st10" x1="123.6" y1="108.5" x2="170.4" y2="108.5"/>
	<line class="st18" x1="122.8" y1="63.8" x2="154.7" y2="63.8"/>
	<g>
		<path class="st4" d="M126.8,58.6c0,0.3-0.1,0.6-0.4,0.9l0,0l-2.4,2.6c-0.5,0.5-1,1-1.3,1.3c-0.4,0.3-0.6,0.4-0.8,0.4
			c-0.2,0-0.4-0.1-0.6-0.2c-0.2-0.1-0.4-0.3-0.5-0.5c-0.1-0.1-0.1-0.4-0.2-0.8c-0.1-0.4-0.1-0.9-0.1-1.4c0-0.3,0.1-0.5,0.3-0.8
			c0.2-0.2,0.5-0.3,0.8-0.3c0.3,0,0.4,0.2,0.5,0.7c0,0.1,0,0.1,0,0.1c0,0.4,0.1,0.6,0.1,0.8c0.1,0.1,0.1,0.2,0.2,0.2
			c0,0,0.1,0,0.2-0.1c0.1-0.1,0.2-0.2,0.4-0.4l2.5-2.5c0.2-0.2,0.4-0.4,0.6-0.5s0.3-0.2,0.4-0.2c0.1,0,0.1,0,0.2,0.1
			c0,0.1,0.1,0.2,0.1,0.3V58.6z"/>
	</g>
	<g>
		<path class="st4" d="M127.7,87.8c0,0.3-0.1,0.6-0.4,0.9l0,0l-2.4,2.6c-0.5,0.5-1,1-1.3,1.3c-0.4,0.3-0.6,0.4-0.8,0.4
			c-0.2,0-0.4-0.1-0.6-0.2c-0.2-0.1-0.4-0.3-0.5-0.5c-0.1-0.1-0.1-0.4-0.2-0.8c-0.1-0.4-0.1-0.9-0.1-1.4c0-0.3,0.1-0.5,0.3-0.8
			c0.2-0.2,0.5-0.3,0.8-0.3c0.3,0,0.4,0.2,0.5,0.7c0,0.1,0,0.1,0,0.1c0,0.4,0.1,0.6,0.1,0.8c0.1,0.1,0.1,0.2,0.2,0.2
			c0,0,0.1,0,0.2-0.1c0.1-0.1,0.2-0.2,0.4-0.4l2.5-2.5c0.2-0.2,0.4-0.4,0.6-0.5s0.3-0.2,0.4-0.2c0.1,0,0.1,0,0.2,0.1
			c0,0.1,0.1,0.2,0.1,0.3V87.8z"/>
	</g>
	<g>
		<path class="st4" d="M123.6,102.4c0,0.3-0.1,0.6-0.4,0.9l0,0l-2.4,2.6c-0.5,0.5-1,1-1.3,1.3c-0.4,0.3-0.6,0.4-0.8,0.4
			c-0.2,0-0.4-0.1-0.6-0.2s-0.4-0.3-0.5-0.5c-0.1-0.1-0.1-0.4-0.2-0.8c-0.1-0.4-0.1-0.9-0.1-1.4c0-0.3,0.1-0.5,0.3-0.8
			c0.2-0.2,0.5-0.3,0.8-0.3c0.3,0,0.4,0.2,0.5,0.7c0,0.1,0,0.1,0,0.1c0,0.4,0.1,0.6,0.1,0.8c0.1,0.1,0.1,0.2,0.2,0.2
			c0,0,0.1,0,0.2-0.1c0.1-0.1,0.2-0.2,0.4-0.4l2.5-2.5c0.2-0.2,0.4-0.4,0.6-0.5c0.2-0.1,0.3-0.2,0.4-0.2c0.1,0,0.1,0,0.2,0.1
			c0,0.1,0.1,0.2,0.1,0.3V102.4z"/>
	</g>
	<g>
		<path class="st4" d="M121.5,147.8c0,0.3-0.1,0.6-0.4,0.9l0,0l-2.4,2.6c-0.5,0.5-1,1-1.3,1.3c-0.4,0.3-0.6,0.4-0.8,0.4
			c-0.2,0-0.4-0.1-0.6-0.2c-0.2-0.1-0.4-0.3-0.5-0.5c-0.1-0.1-0.1-0.4-0.2-0.8c-0.1-0.4-0.1-0.9-0.1-1.4c0-0.3,0.1-0.5,0.3-0.8
			c0.2-0.2,0.5-0.3,0.8-0.3c0.3,0,0.4,0.2,0.5,0.7c0,0.1,0,0.1,0,0.1c0,0.4,0.1,0.6,0.1,0.8c0.1,0.1,0.1,0.2,0.2,0.2
			c0,0,0.1,0,0.2-0.1c0.1-0.1,0.2-0.2,0.4-0.3l2.5-2.5c0.2-0.2,0.4-0.4,0.6-0.5c0.2-0.1,0.3-0.2,0.4-0.2c0.1,0,0.1,0,0.2,0.1
			c0,0.1,0.1,0.2,0.1,0.3V147.8z"/>
	</g>
	<g>
		<rect x="31.7" y="196.2" class="st2" width="116.6" height="40.8"/>
		<text transform="matrix(0.9991 0 0 1 103.9644 204.6665)"><tspan x="0" y="0" class="st7 st19 st15">PLEASE NOTE:</tspan><tspan x="-26.5" y="5.4" class="st7 st19 st15">Remove this layer before </tspan><tspan x="-24" y="10.8" class="st7 st19 st15">sending the file to print. </tspan><tspan x="-29.5" y="16.2" class="st7 st19 st15">This layer is provided as a </tspan><tspan x="-5" y="21.6" class="st7 st19 st15">guide for set up. </tspan><tspan x="-32.5" y="27" class="st7 st19 st15">DELETE LAYER AFTER USE.</tspan></text>
		<g>
			<path class="st4" d="M103.9,200.4c0,0.3-0.1,0.6-0.4,0.9l0,0l-2.4,2.6c-0.5,0.5-1,1-1.3,1.3c-0.4,0.3-0.6,0.4-0.8,0.4
				c-0.2,0-0.4-0.1-0.6-0.2c-0.2-0.1-0.4-0.3-0.5-0.5c-0.1-0.1-0.1-0.4-0.2-0.8c-0.1-0.4-0.1-0.9-0.1-1.4c0-0.3,0.1-0.5,0.3-0.8
				c0.2-0.2,0.5-0.3,0.8-0.3c0.3,0,0.4,0.2,0.5,0.7c0,0.1,0,0.1,0,0.1c0,0.4,0.1,0.6,0.1,0.8c0.1,0.1,0.1,0.2,0.2,0.2
				c0,0,0.1,0,0.2-0.1c0.1-0.1,0.2-0.2,0.4-0.3l2.5-2.5c0.2-0.2,0.4-0.4,0.6-0.5c0.2-0.1,0.3-0.2,0.4-0.2c0.1,0,0.1,0,0.2,0.1
				c0,0.1,0.1,0.2,0.1,0.3V200.4z"/>
		</g>
		<g>
			<ellipse class="st24" cx="51.6" cy="216.2" rx="18" ry="18"/>
			<ellipse class="st9" cx="51.7" cy="216.3" rx="16.3" ry="16.4"/>
			<g>
				<path class="st20" d="M48.2,212.7c-0.2,2-0.4,3.6-0.5,4.8l-0.7,0c0,0,0-0.1,0-0.1c0-0.1,0-0.2-0.1-0.4c-0.1-0.1-0.1-0.2-0.1-0.3
					c-0.2,0-0.4,0.2-0.6,0.4c-0.2,0.2-0.3,0.4-0.5,0.4c-0.1,0-0.2,0-0.3-0.1c-0.1,0.1-0.3,0.1-0.5,0.1c-0.2,0-0.4-0.1-0.6-0.1
					c0-0.3-0.3-0.5-0.7-0.7c0-0.1,0-0.3-0.2-0.5c-0.1-0.2-0.2-0.3-0.2-0.4c0-0.1,0-0.2,0.1-0.2c0,0-0.1-0.2-0.2-0.6
					c-0.1-0.3-0.2-0.5-0.2-0.7c0-0.1,0-0.3,0.1-0.4c-0.1-0.9-0.1-1.6-0.1-2.2c0-1,0.2-1.8,0.4-2.6c0-0.1,0-0.2,0-0.4
					c0-0.6,0.2-1.1,0.7-1.3l0-0.2c0.4-0.5,1-0.9,1.7-1.2c0.4,0.1,0.8,0.2,1.2,0.3c0.5,0.2,0.8,0.4,1,0.8c0.1,0.1,0.2,0.3,0.2,0.5
					c0,0.3,0,0.5,0.1,0.6l-0.1,0.1c0.1,0.6,0.1,1,0.1,1.1c0,0.4-0.1,0.7-0.3,0.8c-0.1,0-0.3-0.1-0.6-0.2c-0.1,0.1-0.1,0.1-0.2,0.1
					c0,0-0.1,0-0.2-0.1c-0.1,0-0.2-0.1-0.3-0.1c0,0-0.1,0-0.2,0c0-0.8,0-1.4,0.1-1.8c-0.1-0.1-0.2-0.2-0.2-0.4
					c-0.1-0.2-0.2-0.3-0.3-0.3c-0.1,0.1-0.1,0.2-0.1,0.2l-0.3-0.1c-0.2,0.3-0.4,0.7-0.5,1.4c-0.1,0.8-0.2,1.3-0.3,1.5
					c0.1,0.1,0.2,0.3,0.2,0.5c0,0.1,0,0.2,0,0.3c0,0.2,0,0.3,0,0.4c0,0.1,0,0.2,0,0.2l-0.2,0.2c0.1,0.3,0.1,0.8,0.1,1.3
					c0,0.4,0,0.9,0,1.3c0,0-0.1,0-0.3,0c-0.1,0-0.2,0-0.2,0.1c0.1,0,0.1,0,0.2,0c0.2,0,0.4,0.2,0.5,0.5c0.1,0.3,0.2,0.5,0.3,0.5
					c0.1,0,0.2-0.1,0.4-0.3c0.3-0.3,0.5-0.8,0.5-1.3c0-0.3,0-0.6-0.1-0.9c-0.1,0-0.1,0.1-0.1,0.3c-0.2,0-0.3,0-0.3,0.1
					c-0.1,0-0.1-0.1-0.1-0.2c0-0.1,0-0.2,0-0.2c0.1,0,0.2-0.1,0.2-0.2c0,0,0-0.1-0.1-0.2c0-0.1-0.1-0.1-0.1-0.2c0,0,0-0.1,0-0.1
					l0.1-0.6c0.2,0.1,0.7,0.1,1.4,0.1c0,0,0,0.1,0.1,0.2c0.1-0.1,0.1-0.1,0.2-0.1c0.1,0,0.2,0,0.3,0.1
					C48,212.7,48.1,212.7,48.2,212.7z"/>
				<path class="st20" d="M53.8,218c-0.1-0.1-0.3-0.1-0.5-0.1c-0.1,0-0.3,0-0.6,0.1c-0.3,0.1-0.5,0.1-0.6,0.1
					c-0.1-0.2-0.2-0.5-0.2-0.9c-0.1-0.5-0.1-0.9-0.2-0.9c0-0.1,0-0.1,0-0.2c0-0.1-0.1-0.2-0.3-0.3c-0.2-0.1-0.3-0.2-0.3-0.2
					c0-0.1,0.1-0.1,0.3-0.3c0-0.1-0.1-0.2-0.1-0.4c0-0.2-0.1-0.3-0.1-0.4c-0.1,0.1-0.3,0.2-0.6,0.2c-0.3,0-0.5,0.1-0.6,0.1
					c0,0.8-0.1,1.3-0.4,1.6c-0.1,0-0.2,0-0.3,0.2c-0.1,0.2-0.2,0.3-0.3,0.3l0.1,0.1c-0.1,0.1-0.2,0.1-0.4,0.1c-0.3,0-0.4,0-0.5,0
					l-0.1-0.3l1-8.2c0-0.5,0-0.9,0.1-1c0-0.5,0.1-0.7,0.3-0.8c0.1,0.1,0.3,0.1,0.5,0.1c0.2,0,0.4,0,0.8-0.1c0.4-0.1,0.6-0.1,0.8-0.1
					c0.5,0,0.7,0.4,0.7,1.1c0,0.6,0,1.3,0.3,2.2c0.2,1,0.4,1.7,0.3,2.2c0,0.2,0,0.5,0,0.6c-0.2,0.1-0.5,0.2-0.8,0.2
					c-0.3,0-0.6,0-0.9,0c-0.1-0.8-0.2-1.7-0.3-2.5c-0.1-0.9-0.2-1.7-0.4-2.3l-0.5,4.3c0,0.4,0.1,0.6,0.5,0.6c0.1,0,0.2,0,0.4-0.1
					c0.1,0,0.2,0,0.4,0.2c0,0.3,0.1,0.5,0.2,0.6c0.2-0.1,0.4-0.2,0.6-0.3c0.2-0.1,0.5-0.2,0.7-0.2c0.1,0.2,0.2,0.4,0.2,0.8
					c0,0.5,0.1,0.8,0.1,0.9c0,0.2,0.1,0.6,0.2,1.3c0.1,0.5,0.2,0.9,0.1,1.2C53.9,217.7,53.9,217.8,53.8,218z"/>
				<path class="st20" d="M60.8,210.7c0,0,0,0.2,0,0.5c0,0.3,0,0.5-0.1,0.6c-0.1,0.2-0.1,0.5-0.1,0.9c0,0.1,0,0.2,0,0.4
					c0,0.2,0,0.3,0,0.4c0,0.6-0.1,1.1-0.3,1.4c0,0.2,0,0.3,0,0.5c0,0.5-0.2,1.2-0.5,2c-0.1,0-0.2,0-0.2,0c-0.1,0-0.2-0.1-0.3-0.2
					c-0.1-0.1-0.1-0.3-0.2-0.4c0-0.8,0-1.9,0-3.4l0.1-0.1c-0.1-0.3-0.1-0.6-0.1-0.9c0-0.2,0-0.6,0.1-1c0.1-0.4,0.1-0.8,0.1-1
					c0-0.1,0-0.3,0-0.4c-0.3,0.8-0.6,2.2-0.7,4.2l-0.1,0.3c0,0.1-0.1,0.2-0.3,0.2c0-0.1-0.1-0.1-0.1-0.1c0,0-0.1,0-0.2,0.1
					c-0.1,0.1-0.1,0.1-0.2,0.1l-0.2,0.2c0.1,0.1,0.3,0.1,0.6,0c0.2-0.1,0.4,0,0.4,0.3c0,0.2,0,0.5-0.2,0.8c-0.1,0.3-0.2,0.6-0.2,0.8
					c0,0.1,0,0.2,0,0.4l-1.1,0.2c-0.1-0.2-0.2-0.5-0.2-1c0-0.5-0.1-0.8-0.2-1c0.1-0.1,0.1-0.1,0.1-0.2c0-0.1,0-0.2-0.1-0.3
					c-0.1-0.1-0.1-0.2-0.1-0.3c0-0.1,0-0.4-0.1-0.8c0-0.3-0.1-0.6-0.1-0.8c0-0.1,0-0.2,0-0.3c0-0.1,0-0.2-0.1-0.3
					c-0.1-0.1-0.1-0.2-0.1-0.3c0-0.1,0-0.1,0.1-0.1c-0.1-0.1-0.1-0.2-0.1-0.4c0-0.2,0-0.3-0.1-0.4c-0.1,0.4-0.2,0.9-0.2,1.6
					c0,0.9,0,1.5,0,1.6l0.1,0.1l-0.1,0.1c0.1,0.4,0.1,0.8,0.1,1.4c0,1,0,1.5,0,1.4c-0.1,0.1-0.3,0.2-0.6,0.2c-0.3,0-0.5,0-0.6,0.1
					c-0.1-0.2-0.2-0.5-0.2-0.9c0-0.3,0.1-0.6,0.1-1c-0.1-0.3-0.2-0.6-0.2-1.1c0-0.1,0-0.3,0-0.6c0-0.3,0-0.4,0-0.6
					c0.1,0,0.2-0.1,0.2-0.2c0,0,0-0.1-0.1-0.2c-0.1-0.1-0.1-0.2-0.1-0.2c0-0.1,0-0.1,0.1-0.2l-0.3-4.9c0.2-0.1,0.5-0.2,0.9-0.2
					c0.5,0,0.8,0,1-0.1c0,0,0.1,0,0.1,0c0,0,0.1,0,0.1,0.1c0.1,0,0.1,0.1,0.1,0.1c0,0,0.1,0,0.1-0.1l0.3,0.3c0.1,0.4,0.2,1,0.3,2.1
					c0.1,0.9,0.2,1.6,0.4,2c0.2-0.9,0.5-1.7,0.6-2.3l0.3-2.4l2.4-0.1c0,0.1,0,0.8,0.1,1.2c0.1,0.4,0.1,0.6,0.1,0.9
					c0,0.3,0,0.5-0.1,0.7c0.1,0.1,0.1,0.3,0.1,0.4C61,210.5,60.9,210.6,60.8,210.7z"/>
				<path class="st20" d="M65.7,216.1L65.7,216.1c-0.1,0.1-0.1,0.3-0.1,0.4c0,0.1,0,0.3,0,0.5c0,0.2,0,0.4,0,0.5c-0.1,0-0.4,0-1,0
					c-0.3,0-0.7,0-0.9,0.1l-0.3-0.3c-0.1,0.1-0.1,0.1-0.1,0.2c0,0-0.3,0-0.7,0c-0.3,0-0.6,0-0.7-0.1c-0.2,0.2-0.4,0.2-0.6,0
					c-0.1-0.1-0.1-0.2,0-0.3c0.1-0.1,0-0.3-0.1-0.3c0-0.3,0.1-0.8,0.1-1.5c0.1-0.6,0.1-1.1,0.1-1.4c0-0.5,0-0.9-0.1-1.3
					c0.1-0.1,0.2-0.2,0.4-0.2c0.2,0,0.4,0.1,0.6,0.2c0.3,0.2,0.5,0.3,0.5,0.3l0.1,0.1c0,0,0.1-0.2,0.2-0.5c0.1-0.2,0.1-0.3,0.2-0.4
					l0.1,0.1c0,0,0.2-0.1,0.4-0.3c0.2-0.1,0.3-0.4,0.4-0.4c0.1,0,0.2,0.1,0.3,0.2c0.2,0.1,0.3,0.5,0.3,0.6c0.1,0.2,0.1,0.4,0.2,0.6
					c-0.5,0-0.8,0-1.1,0c-0.1,0.1-0.2,0.1-0.3,0c-0.1-0.1-0.2-0.1-0.3,0c0,0.2,0,0.5,0,1c0,0.4,0,0.8,0,1c0,0.4,0,0.7,0.1,1
					c0.1,0,0.5,0,1.2,0C64.9,215.9,65.3,216,65.7,216.1z M65.7,208.8c-0.1,0-0.2,0-0.3,0c-0.2,0-0.5,0-0.9-0.1
					c-0.5-0.1-0.8-0.1-0.9-0.1c-0.1,0.2-0.2,0.5-0.2,0.9c0,0.8,0,1.2,0,1.1c0.1,0.1,0.2,0.2,0.2,0.5c0,0.3,0,0.5,0,0.5
					c-0.1,0-0.1,0.1-0.1,0.3c-0.1,0-0.2-0.1-0.3-0.2c-0.2-0.2-0.2,0.4-0.2,0.2l-0.1,0.3l-0.1-0.1c-0.1,0-0.2,0-0.4-0.1
					c-0.2-0.1-0.3-0.2-0.4-0.3c0-0.2,0-0.3,0.1-0.3l-0.2-0.2l-0.1,0.1c-0.1-1.1-0.1-3,0.1-4.1c0.4,0.1,0.8,0.1,1.3,0.1
					c0.3,0,0.8,0,1.3,0c0.6,0,1.1,0,1.4,0c0.1,0.1,0.2,0.3,0.2,0.4c0,0.1,0,0.3-0.1,0.5C65.7,208.5,65.7,208.7,65.7,208.8z"/>
			</g>
			<g>
				<path class="st20" d="M48.6,225.3L48.6,225.3c0,0,0,0.2-0.1,0.7c0,0.3-0.1,0.5-0.2,0.6l-0.1-0.1c-0.1,0.3-0.3,0.4-0.5,0.5
					c-0.1,0.1-0.2,0.2-0.4,0.2c-0.1,0-0.4,0-0.8-0.1c-0.2-0.1-0.3-0.2-0.3-0.2c-0.1-0.1-0.2-0.2-0.2-0.3c-0.1-0.1-0.3-0.3-0.4-0.6
					c-0.1-0.3-0.1-0.3-0.2-0.4c-0.1,0.1-0.2-0.1-0.2-0.2l0.1,0c0,0-0.1-0.1-0.1-0.1c0,0,0-0.1,0-0.1c0,0,0-0.1,0-0.1
					c0,0,0-0.1-0.1-0.1c0-0.2,0.1-0.6,0.1-1.1c0.1,0,0.1-0.1,0.1-0.3c0-0.1,0-0.2,0.1-0.2c0.2-0.4,0.5-0.7,0.9-0.8c0,0,0.1,0,0.4,0
					c0.1,0,0.3,0,0.3,0c0.1,0,0.3,0,0.4,0.1c0.1,0.1,0.2,0.2,0.3,0.3c0.2,0.2,0.3,0.5,0.3,0.8c0,0.1,0,0.2,0,0.3
					c-0.2,0-0.3,0.1-0.3,0.3l-0.6,0.1c-0.1-0.1-0.1-0.2-0.1-0.4c0-0.1,0-0.1,0-0.2c0-0.1,0-0.2,0-0.2c0-0.2,0-0.3-0.1-0.4l-0.2,0.1
					c-0.1,0-0.1-0.1-0.1-0.1c0,0,0,0,0-0.1c0,0,0-0.1,0-0.1c0-0.1-0.1-0.1-0.2-0.1c-0.1,0.7-0.1,1.4-0.1,2.1c0,0,0.1,0,0.2,0.1
					c0.1,0,0.1,0,0.1,0.1c0,0,0,0,0,0.1l-0.1,0c0,0.1,0.1,0.1,0.1,0.2c0,0,0,0.1,0,0.2c0,0.1,0,0.2,0,0.2c0,0.1,0,0.3,0.1,0.3
					c0,0.1,0,0.2,0.1,0.2c0.1,0,0.1,0,0.2,0c0.2,0,0.3,0.1,0.4,0.3c0,0,0,0,0,0.1c0,0,0,0.1,0.1,0.1c0.1,0,0.1-0.1,0.1-0.3
					c0-0.1,0-0.2,0.1-0.3c0-0.1,0-0.2-0.1-0.3c-0.1-0.1-0.1-0.2-0.1-0.3c0-0.1,0-0.1,0.1-0.2c0,0-0.1,0-0.1-0.1c0-0.1,0-0.1,0-0.1
					C47.9,225.2,48.3,225.2,48.6,225.3z"/>
				<path class="st20" d="M51.4,225.8L51.4,225.8c0,0.1-0.1,0.2,0,0.3c0,0.2,0,0.3,0,0.3c0,0-0.1,0-0.1,0c-0.1,0-0.1,0.1-0.1,0.1
					c0,0,0,0,0,0c0,0,0,0,0,0.1c0,0,0,0.1,0,0.1c-0.1,0-0.2-0.1-0.3-0.1c-0.1,0-0.3,0-0.4,0c0-0.6-0.1-1.2-0.2-1.8c0,0,0-0.1,0-0.2
					c0-0.1,0-0.2-0.1-0.2l-0.1,0c0,0,0,0,0.1-0.1c0,0,0.1-0.1,0.1-0.1c0,0,0,0,0,0l-0.1,0c-0.1,0-0.2,0.1-0.1,0.2
					c0,0.1,0,0.2-0.1,0.2c0,0,0,0,0,0.1c0,0,0,0,0,0.1s0,0.1,0,0.1c0,0,0,0.1,0.1,0.1c0,0,0,0.3,0,0.7c0,0.3,0,0.5,0,0.7l0,0.1
					c0,0-0.1,0-0.1,0c-0.1,0-0.1,0-0.2,0c-0.1,0-0.2,0-0.2,0c-0.2,0-0.3,0-0.4-0.1l-0.1-2.5c0-0.1-0.1-0.3-0.1-0.5l0-0.5
					c0-0.2,0-0.4-0.1-0.5c0-0.1,0.1-0.1,0.2-0.1c0.1,0,0.2,0,0.3,0c0.1,0,0.2,0,0.3-0.1c0,0,0.1,0,0.2,0c0.1,0,0.1,0,0.2,0
					c0.2,0,0.4-0.1,0.4-0.2c0.1,0,0.2,0,0.3,0.1c0.1,0.1,0.2,0.1,0.3,0.1c0.2,0.1,0.4,0.4,0.4,0.7c0,0.1,0,0.4-0.1,0.9l-0.4,0.4
					c0.1,0.1,0.2,0.4,0.2,0.8C51.1,225.4,51.2,225.7,51.4,225.8z M50.6,223L50.6,223c0,0,0-0.1,0-0.3c0-0.1-0.1-0.2-0.1-0.3
					c0,0.1,0,0.1,0,0.2c0,0.2-0.1,0.1-0.2,0.2c-0.1,0-0.2,0.1-0.2,0c-0.1-0.2-0.1-0.2-0.1-0.2l-0.1,0c0,0,0,0-0.1,0.1
					c0,0-0.1,0-0.1,0c0,0,0,0.1,0,0.1c0,0.1,0,0.1,0,0.1c0,0,0,0.1,0.1,0.1c0,0.1,0,0.2,0,0.3c0,0.1,0,0.2,0,0.4c0,0.2,0,0.3,0,0.4
					c0.1,0,0.1,0,0.1,0c0.2,0,0.3-0.1,0.4-0.2c0,0,0-0.2,0.1-0.4C50.5,223.2,50.5,223.1,50.6,223z"/>
				<path class="st20" d="M54.5,226.8c-0.1,0-0.2,0-0.3,0c-0.1,0-0.2,0-0.3,0.1c-0.2,0-0.3,0.1-0.3,0.1c-0.1-0.1-0.1-0.2-0.2-0.4
					c-0.1-0.2-0.1-0.4-0.1-0.4c0,0,0-0.1,0-0.1c0-0.1-0.1-0.1-0.2-0.1c-0.1,0-0.1-0.1-0.2-0.1c0,0,0-0.1,0.2-0.1
					c0,0-0.1-0.1-0.1-0.2c0-0.1,0-0.1-0.1-0.2c-0.1,0.1-0.2,0.1-0.3,0.1c-0.2,0-0.3,0.1-0.3,0.1c0,0.3,0,1-0.1,1.1
					c-0.1,0-0.1,0-0.2,0.1c-0.1,0.1-0.1,0.1-0.1,0.1l0.1,0c0,0-0.1,0.1-0.2,0.1c-0.2,0-0.2,0-0.3,0l-0.1-0.1l0.2-4
					c0-0.2,0-0.4,0-0.5c0-0.2,0-0.3,0.1-0.4c0.1,0,0.2,0.1,0.3,0c0.1,0,0.2,0,0.4-0.1c0.2,0,0.3-0.1,0.4-0.1c0.3,0,0.4,0.1,0.4,0.4
					c0,0.3,0.1,0.6,0.2,1c0.2,0.4,0.3,0.8,0.3,1c0,0.1,0.1,0.2,0.1,0.3c-0.1,0.1-0.3,0.1-0.4,0.1c-0.2,0-0.3,0-0.5,0.1
					c-0.1-0.3-0.2-0.7-0.3-1.1c-0.1-0.4-0.2-0.7-0.3-1l-0.1,1.9c0,0.2,0.1,0.2,0.3,0.2c0.1,0,0.1,0,0.2-0.1c0,0,0.1,0,0.2,0.1
					c0,0.1,0,0.2,0.1,0.2c0.1-0.1,0.2-0.1,0.3-0.2c0.1,0,0.2-0.1,0.4-0.1c0.1,0.1,0.1,0.2,0.2,0.3c0,0.2,0.1,0.3,0.1,0.4
					c0,0.1,0.1,0.3,0.2,0.5c0.1,0.2,0.1,0.4,0.1,0.5C54.5,226.7,54.5,226.7,54.5,226.8z"/>
				<path class="st20" d="M56.8,222.2L56.8,222.2c-0.1,0.1-0.1,0.1-0.2,0.1c0,0-0.1,0-0.3,0c-0.1,0-0.3,0-0.3,0c0,0,0,0-0.1,0
					c0,0-0.1,0-0.1,0c0,0-0.1,0-0.1-0.1c0,0,0,0,0-0.1c0,0,0-0.1-0.1-0.1l-0.1,0.1c0,0,0,0,0,0.1c0,0,0,0.1,0.1,0.1
					c0,0,0.1,0.1,0.1,0.1c0,0,0,0.2,0,0.6c0,0.2,0.1,0.4,0.1,0.6c0,0,0.1,0,0.2,0c0.1,0,0.1,0,0.2-0.1c0.1,0,0.1,0.1,0.3,0
					c0.1,0,0.2,0,0.3,0l0,0.6c0,0-0.1,0-0.2-0.1c0,0.1-0.1,0.1-0.2,0.2c0,0-0.1,0-0.3,0c0,0,0-0.1-0.1-0.1c-0.2,0.1-0.2,0.2-0.2,0.5
					c0,0,0,0,0,0.1c0,0.1,0,0.1,0,0.2c-0.1,0-0.2,0-0.4-0.1c-0.1-0.1-0.2-0.1-0.3-0.1c0,0-0.1,0-0.1,0l-0.2,0l-0.2-2.7l0-0.5
					c0.2-0.1,0.5-0.1,0.8-0.1c0.2,0,0.6,0,0.9,0c0-0.1,0.1,0,0.1,0c0,0,0.1,0,0.1,0c0.1,0,0.1,0,0.1,0c0,0,0.1,0,0.1,0l0,0
					c0.1,0,0.2,0.1,0.2,0.2c0,0,0,0.1,0,0.2c0,0.1,0,0.2,0,0.2C56.8,222.2,56.8,222.2,56.8,222.2z M55.8,226.8c-0.1,0-0.2,0-0.3,0.1
					c-0.2,0-0.3,0-0.3,0c0,0,0,0-0.1-0.1c0-0.1-0.1-0.1-0.2-0.1c0,0,0,0-0.1,0l-0.2,0l-0.1-1.4c0.1,0,0.2-0.1,0.3-0.1
					c0.1,0,0.2,0,0.3,0c0,0.1,0.1,0.1,0.2,0.1l0.2,0C55.8,225.6,55.9,226.3,55.8,226.8z"/>
				<path class="st20" d="M60.2,222.3L60.2,222.3c-0.1,0-0.3,0-0.5,0c-0.2,0-0.3,0-0.4,0c-0.1,0.1-0.1,0.1-0.1,0.2l0.1,0
					c0,0-0.1,0.1,0,0.1l0,0c0,0.8,0,1.2,0,1.3c0,0.2,0,0.4,0.1,0.6c0,0.1,0,0.2,0,0.3c0,0.1,0,0.2,0.1,0.4c0,0.2,0.1,0.8,0.1,0.9
					c0,0.1,0,0.1,0,0.2c-0.1,0-0.2,0-0.2,0.1c-0.2,0-0.3,0-0.5-0.1c0,0,0,0-0.1,0.1s0,0,0,0.1c-0.1,0-0.1,0-0.2-0.1
					c-0.1-0.8-0.2-2.4-0.4-4.1c-0.1,0.1-0.2,0-0.4,0c-0.2,0-0.3,0-0.4,0c-0.1-0.1-0.1-0.1-0.1-0.3c0-0.1-0.1-0.5,0-0.6
					c0,0,0.3,0,0.5,0c0.2,0,0.3,0,0.3,0c0,0,0.1,0,0.2,0c0.1,0,0.1,0,0.1,0c0,0,0,0.2,0,0.2c0,0,0,0.1,0,0.1c0,0.1,0,0,0.1,0
					c0.1,0,0.2,0,0.3,0c0.1,0,0.3,0,0.2,0.1c0,0,0,0,0.2,0c0.1-0.1,0.2-0.2,0.2-0.3c0-0.1,0.1-0.1,0-0.1c0.1,0,0,0,0.1,0
					c0.2,0,0.3,0,0.4,0c0.1,0,0.3,0,0.3,0c0,0.1,0.1,0.3,0.1,0.5C60.1,222.2,60.1,222.3,60.2,222.3z"/>
				<path class="st20" d="M62.9,225.1L62.9,225.1c0,0.1,0,0.1,0,0.2c0,0,0,0.1,0,0.2c0,0.1,0,0.2,0,0.2c0,0-0.2,0-0.5,0
					c-0.2,0-0.4,0-0.5,0.1l-0.2-0.1c0,0-0.1,0.1,0,0.1c0,0-0.2,0-0.4,0c-0.2,0-0.3,0-0.4,0c-0.1,0.1-0.2,0.1-0.3,0
					c0,0-0.1-0.1,0-0.1c0-0.1,0-0.1,0-0.1c0-0.1,0-0.4,0-0.7c0-0.3,0-0.5,0-0.6c0-0.2,0-0.4-0.1-0.6c0.1-0.1,0.1-0.1,0.2-0.1
					c0.1,0,0.2,0,0.3,0.1c0.2,0.1,0.3,0.1,0.3,0.1l0.1,0c0,0,0-0.1,0.1-0.2c0-0.1,0.1-0.1,0.1-0.2l0.1,0c0,0,0.1-0.1,0.2-0.1
					c0.1-0.1,0.2-0.3,0.2-0.3c0.1,0,0.1,0,0.2,0.1c0.1,0,0.2,0.3,0.2,0.4s0.1,0.2,0.1,0.2c-0.2,0-0.5,0-0.6,0c0,0.1-0.1,0.1-0.2,0
					c-0.1,0-0.1,0-0.2,0c0,0.1,0,0.2,0,0.4c0,0.2,0,0.3,0,0.4c0,0.2,0,0.3,0.1,0.5c0,0,0.3,0,0.6,0
					C62.4,225.1,62.7,225.1,62.9,225.1z M62.6,222c0,0-0.1,0-0.2,0c-0.1,0-0.3,0-0.5,0c-0.3,0-0.4,0-0.5,0c-0.1,0.1-0.1,0.2-0.1,0.3
					c0,0.4,0,0.5,0,0.5c0.1,0,0.1,0.1,0.1,0.2c0,0.1,0,0.2,0,0.2c0,0-0.1,0.1-0.1,0.1c-0.1,0-0.1,0-0.2-0.1
					c-0.1-0.1-0.1,0.2-0.1,0.1l0,0.1l-0.1,0c0,0-0.1,0-0.2,0c-0.1,0-0.2-0.1-0.2-0.1c0-0.1,0-0.1,0-0.1l-0.1-0.1l0,0.1
					c-0.1-0.5-0.2-1.3-0.1-1.8c0.2,0,0.5,0,0.7,0c0.2,0,0.4,0,0.7,0c0.4,0,0.6,0,0.8-0.1c0.1,0,0.1,0.1,0.1,0.2c0,0,0,0.1,0,0.2
					C62.6,221.8,62.6,221.9,62.6,222z"/>
				<path class="st20" d="M65.6,224.7L65.6,224.7c0,0.1-0.1,0.2,0,0.3c0,0.2,0,0.3,0,0.3c0,0-0.1,0-0.1,0c-0.1,0-0.1,0.1-0.1,0.1
					c0,0,0,0,0,0c0,0,0,0,0,0.1c0,0,0,0.1,0,0.1c-0.1,0-0.2-0.1-0.3-0.1c-0.1,0-0.3,0-0.4,0c0-0.6-0.1-1.2-0.2-1.8c0,0,0-0.1,0-0.2
					c0-0.1,0-0.2-0.1-0.2l-0.1,0.1c0,0,0,0,0.1-0.1c0,0,0.1-0.1,0.1-0.1c0,0,0,0,0,0l-0.1,0c-0.1,0-0.2,0.1-0.1,0.2
					c0,0.1,0,0.2-0.1,0.2c0,0,0,0,0,0.1c0,0,0,0,0,0.1c0,0,0,0.1,0,0.1c0,0,0,0.1,0.1,0.1c0,0,0,0.3,0,0.7c0,0.3,0,0.5,0,0.7l0,0.1
					c0,0-0.1,0-0.1,0c-0.1,0-0.1,0-0.2,0c-0.1,0-0.2,0-0.2,0c-0.2,0-0.3,0-0.4-0.1l-0.1-2.5c0-0.1-0.1-0.3-0.1-0.5l0-0.5
					c0-0.2,0-0.4-0.1-0.5c0-0.1,0.1-0.1,0.2-0.1c0.1,0,0.2,0,0.3,0c0.1,0,0.2-0.1,0.3-0.1c0,0,0.1,0,0.2,0c0.1,0,0.1,0,0.2,0
					c0.2,0,0.4-0.1,0.4-0.2c0.1,0,0.2,0,0.3,0.1c0.1,0.1,0.2,0.1,0.3,0.1c0.2,0.1,0.4,0.4,0.4,0.7c0,0.1,0,0.4-0.1,0.9l-0.4,0.4
					c0.1,0.1,0.2,0.4,0.2,0.8C65.3,224.2,65.5,224.5,65.6,224.7z M64.9,221.8L64.9,221.8c0,0,0-0.1,0-0.3c0-0.1-0.1-0.2-0.1-0.3
					c0,0.1-0.1-0.1-0.1,0.1c0,0.2-0.1,0.3-0.1,0.3c-0.1,0-0.2-0.1-0.3-0.2c-0.1-0.1-0.1,0-0.1,0l0,0c0,0,0,0-0.1,0.1
					c0,0-0.1,0-0.1,0c0,0,0,0.1,0,0.1c0,0.1,0,0.1,0,0.1c0,0,0,0.1,0.1,0.1c0,0.1,0,0.2,0,0.3c0,0.1,0,0.2,0,0.4c0,0.2,0,0.3,0,0.4
					c0.1,0,0.1,0,0.1,0c0.2,0,0.3-0.1,0.4-0.2c0,0,0-0.2,0.1-0.4C64.7,222,64.8,221.9,64.9,221.8z"/>
			</g>
			<g>
				<path class="st20" d="M38,213.1L38,213.1c0,0.2,0,0.4,0,0.5c0,0-0.1,0-0.1,0c-0.1,0-0.1,0-0.1,0c0,0-0.1,0-0.1,0
					c0,0-0.1,0-0.1,0c0,0-0.1,0.1-0.1,0.1c0,0,0,0.1,0,0.1c0,0.1,0,0.1,0,0.1c0,0,0,0.1,0,0.2c0,0.1,0,0.1,0,0.2c0,0.1,0,0.1,0,0.2
					c0,0.1,0,0.2,0,0.3c0,0.1,0,0.2,0,0.3c0,0.1,0,0.3,0.1,0.6c0,0,0,0,0,0c0,0,0.1,0,0.1-0.1c0,0,0.1-0.1,0.1-0.1c0,0,0,0,0.1,0
					c0.1,0.2,0.1,0.4,0.1,0.5c0,0,0,0.1,0,0.1c-0.1,0-0.2,0-0.2-0.1c0,0,0-0.1,0-0.1l-0.1,0.1c0.1,0,0.2,0.1,0.1,0.3
					c0,0,0,0.1-0.1,0.1c-0.1,0-0.1,0-0.1,0l-0.1-0.2l0,0.1c0-0.1-0.1-0.1-0.1-0.1c0,0-0.1,0-0.1,0.1c-0.1,0-0.1,0.1-0.2,0.1
					c0,0-0.1,0-0.1,0c0,0,0-0.1,0-0.2c0-0.1,0-0.1-0.1-0.1c0-0.1,0-0.5,0-1c0-0.4,0-0.7,0-1c0-0.1,0-0.2,0-0.3c0,0,0,0-0.1,0
					c0,0,0,0-0.1,0.1s-0.1,0-0.1,0c0,0,0-0.1-0.1-0.2c0-0.1-0.1-0.2-0.1-0.2c0-0.1,0-0.1,0.1-0.2l0.1,0c0.1-0.1,0.1-0.2,0.1-0.4
					c0,0,0-0.1,0-0.2c0-0.1,0-0.1,0-0.2c0-0.3,0.1-0.5,0.3-0.5c0.1,0,0.2,0,0.3,0l0.1,0c0,0.1,0,0.1,0,0.2c0,0.1,0,0.2,0,0.3
					c0,0.2,0,0.3,0,0.3c0,0.1,0,0.2,0.1,0.3c0,0,0.1,0,0.2-0.1c0.1,0,0.1-0.1,0.2-0.1C37.9,213,38,213.1,38,213.1z M37.6,213.5
					l0-0.1l0,0L37.6,213.5z"/>
				<path class="st20" d="M39.7,212.7L39.7,212.7c0,0.1,0,0.2,0,0.3c0,0.1-0.1,0.2-0.1,0.3c0,0-0.1,0-0.2-0.1c-0.1,0-0.1,0-0.2,0
					c0,0.2-0.1,0.6-0.1,1c0,0.5,0,0.8,0,0.9c-0.1,0-0.1,0-0.1,0.1c0,0-0.1,0.1-0.1,0.1c0,0,0,0,0,0.1c0,0,0,0.1,0.1,0.1
					c0.1,0,0.1,0.1,0.1,0.1c0,0.1-0.1,0.1-0.2,0.1c0,0-0.1,0-0.2,0c-0.1,0-0.2,0-0.2,0l-0.1-1.7c0,0,0-0.1,0-0.1l-0.1,0
					c0-0.1,0-0.4,0-1.1c0-0.4,0-0.8,0-1.1c0,0,0.1,0,0.4,0c0.2,0,0.3,0,0.3,0.1c0,0.1,0,0.2,0,0.5c0,0.2,0,0.3,0,0.5
					c0,0.1,0,0.2,0.1,0.4C39.3,212.8,39.5,212.7,39.7,212.7z M40.3,213c0,0.2,0,0.3,0,0.5c0,0.7,0,1.4,0,2.2c-0.1,0.1-0.1,0.1-0.3,0
					c-0.1,0-0.2,0-0.3,0c-0.1-0.1-0.1-0.3-0.1-0.5c0-0.3,0-0.5,0-0.5c0-0.9,0.1-1.5,0.2-2.1C40.1,212.7,40.2,212.8,40.3,213z"/>
				<path class="st20" d="M42.4,213.9c0,0.1,0,0.1,0,0.2c0,0.1,0,0.1,0,0.2c0,0,0,0.1,0,0.1c0,0-0.1,0-0.1,0c0,0-0.1,0-0.1,0
					c0,0-0.1,0-0.1,0c0,0-0.1,0-0.1,0l-0.3-0.4c0,0.1,0,0.2,0.1,0.3c0,0,0,0.1,0.1,0.1c-0.2,0-0.3,0-0.3,0l0,0.1l-0.1-0.1
					c-0.1,0.1-0.1,0.2-0.1,0.4c0.1,0.2,0.1,0.3,0,0.4c0.1,0.1,0.1,0.1,0.2,0.1c0,0,0.1,0,0.1,0c0-0.1,0.1-0.2,0.1-0.3
					c0.1-0.1,0.1-0.2,0.2-0.2c0.1,0,0.1,0,0.2,0.1c0.1,0,0.1,0.1,0.1,0.1c0,0,0,0.1-0.1,0.2c0,0.1-0.1,0.1-0.1,0.2c0,0,0,0,0,0
					c-0.1,0-0.1,0.1-0.2,0.2c0,0.1-0.1,0.1-0.2,0.2c-0.1,0.1-0.1,0.1-0.2,0.1c0,0-0.1,0-0.2-0.1c-0.1-0.1-0.2-0.1-0.2-0.1
					c0-0.1-0.1-0.2-0.2-0.2s-0.2-0.2-0.2-0.3c0,0,0,0,0-0.1c0,0,0-0.1-0.1-0.1l0,0c-0.1,0-0.1,0-0.1-0.1c0,0,0,0,0,0c0,0,0,0,0,0
					c0,0,0-0.1,0-0.1l0-0.2c0-0.1,0-0.2-0.1-0.2c0-0.3,0.1-0.5,0.1-0.8c0.1-0.3,0.2-0.5,0.3-0.5c0,0,0,0,0.1,0
					c0.1-0.1,0.3-0.2,0.4-0.2c0.2,0,0.4,0,0.6,0.2C42.3,213.3,42.4,213.6,42.4,213.9z M41.6,213.3L41.6,213.3c-0.1,0.1-0.1,0-0.1,0
					l0,0.1c-0.1,0.1-0.1,0.2-0.1,0.3c0,0.2,0,0.4,0,0.4l0.2,0c0.1-0.1,0.1-0.1,0.1-0.2c0-0.1,0-0.2-0.1-0.3
					C41.6,213.4,41.6,213.3,41.6,213.3z"/>
			</g>
			<g>
				<polygon class="st24" points="43.8,220.1 44,220.2 44.6,218.5 44.4,218.5 43.8,220.1 44,220.2 43.8,220.1 43.8,220.1 				"/>
				<polygon class="st24" points="44.1,219.8 44,219.9 43.8,220.1 44,220.2 44.2,220 44.1,220 44.1,219.8 44.1,219.8 				"/>
				<polygon class="st24" points="45.6,219.8 45.7,219.8 44.1,219.8 44.1,220 45.7,220 45.8,219.9 45.6,219.8 45.6,219.8 
					45.6,219.8 				"/>
				<polygon class="st24" points="46.3,218.3 46.2,218.2 45.6,219.8 45.8,219.9 46.4,218.3 46.3,218.1 46.3,218.3 46.3,218.3 
					46.3,218.3 				"/>
				<polygon class="st24" points="44.8,218.4 44.7,218.4 46.3,218.3 46.3,218.1 44.7,218.2 44.6,218.2 44.8,218.4 44.8,218.4 
					44.8,218.4 				"/>
				<polygon class="st24" points="44.6,218.5 44.6,218.6 44.8,218.4 44.6,218.2 44.4,218.4 44.4,218.5 44.6,218.5 44.6,218.5 
					44.6,218.5 				"/>
				<polygon class="st24" points="45.9,220 46.1,219.9 45.7,219.8 45.6,220 46,220.1 46.1,220.1 45.9,220 45.9,220 45.9,220 				"/>
				<polygon class="st24" points="46.6,218.5 46.5,218.4 45.9,220 46.1,220.1 46.7,218.5 46.7,218.3 46.6,218.5 46.6,218.5 				"/>
				<polygon class="st24" points="46.4,218.3 46.2,218.3 46.6,218.5 46.7,218.3 46.3,218.1 46.2,218.2 46.4,218.3 46.4,218.3 				
					"/>
				<polygon class="st20" points="44.5,218.5 44.5,218.5 44.7,218.3 46.2,218.2 46.2,218.2 46.3,218.2 46.4,218.3 46.4,218.3 
					46.6,218.4 46.7,218.5 46.7,218.6 47.4,220.3 46.8,221.9 46,220 46,220 45.9,220.1 45.9,220 45.9,220 45.7,219.9 45.6,220 
					45.6,219.9 44.1,219.9 43.9,220.1 				"/>
				<polygon class="st24" points="46.7,221.8 46.9,221.8 46.1,220 45.9,220.1 46.7,221.9 46.9,221.9 46.7,221.8 46.7,221.8 
					46.7,221.8 				"/>
				<polygon class="st24" points="47.3,220.3 47.3,220.2 46.7,221.8 46.9,221.9 47.5,220.3 47.5,220.2 47.3,220.3 47.3,220.3 				
					"/>
				<polygon class="st24" points="46.7,218.5 46.5,218.5 47.3,220.3 47.5,220.2 46.7,218.4 46.5,218.4 46.7,218.5 46.7,218.5 				
					"/>
				<polygon class="st21" points="46.7,218.9 46.8,219.1 46.8,219.3 46.8,219.5 46.7,219.7 46.6,219.8 46.5,220 46.3,220.2 
					46.1,220.3 46,220.4 45.9,220.4 45.8,220.4 45.7,220.5 45.5,220.5 45.4,220.5 45.3,220.5 45.2,220.5 45.1,220.4 45,220.4 
					44.9,220.4 44.8,220.3 44.7,220.3 44.6,220.2 44.6,220.1 44.5,220 44.4,219.8 44.4,219.6 44.4,219.4 44.4,219.3 44.5,219.1 
					44.7,218.9 44.8,218.7 45,218.6 45.2,218.5 45.3,218.5 45.4,218.5 45.5,218.4 45.6,218.4 45.7,218.4 45.9,218.4 46,218.4 
					46.1,218.5 46.2,218.5 46.3,218.5 46.4,218.6 46.5,218.6 46.6,218.7 46.6,218.8 46.7,218.9 46.7,218.9 46.7,218.9 				"/>
				<polygon class="st24" points="46.8,219.2 46.8,219.4 46.9,219.6 46.9,219.8 46.8,220 46.7,220.2 46.6,220.3 46.4,220.5 
					46.2,220.6 46.1,220.7 46,220.7 45.9,220.8 45.7,220.8 45.6,220.8 45.5,220.8 45.4,220.8 45.3,220.8 45.2,220.8 45.1,220.7 
					45,220.7 44.9,220.6 44.8,220.6 44.7,220.5 44.6,220.4 44.6,220.3 44.5,220.2 44.4,220 44.5,219.8 44.5,219.6 44.6,219.4 
					44.7,219.2 44.9,219.1 45.1,218.9 45.2,218.9 45.4,218.8 45.5,218.8 45.6,218.8 45.7,218.8 45.8,218.7 45.9,218.8 46,218.8 
					46.2,218.8 46.3,218.8 46.4,218.9 46.5,218.9 46.5,219 46.6,219 46.7,219.1 46.8,219.2 46.8,219.2 46.8,219.2 				"/>
				<polygon class="st21" points="46.8,219.4 46.9,219.6 46.9,219.8 46.9,220 46.9,220.2 46.8,220.4 46.6,220.6 46.5,220.7 
					46.3,220.8 46.2,220.9 46,221 45.9,221 45.8,221 45.7,221 45.6,221 45.4,221 45.3,221 45.2,221 45.1,220.9 45,220.9 44.9,220.8 
					44.8,220.8 44.8,220.7 44.7,220.6 44.6,220.6 44.5,220.4 44.5,220.2 44.5,220 44.6,219.8 44.7,219.6 44.8,219.4 45,219.3 
					45.2,219.1 45.3,219.1 45.4,219 45.5,219 45.7,219 45.8,219 45.9,219 46,219 46.1,219 46.2,219 46.3,219 46.4,219.1 46.5,219.1 
					46.6,219.2 46.7,219.2 46.7,219.3 46.8,219.4 46.8,219.4 				"/>
				<polygon class="st24" points="46.9,219.7 47,219.9 47,220.1 47,220.3 46.9,220.5 46.9,220.7 46.7,220.9 46.6,221 46.3,221.2 
					46.2,221.2 46.1,221.3 46,221.3 45.9,221.3 45.8,221.3 45.6,221.4 45.5,221.3 45.4,221.3 45.3,221.3 45.2,221.3 45.1,221.2 
					45,221.2 44.9,221.1 44.8,221.1 44.8,221 44.7,220.9 44.6,220.7 44.6,220.5 44.6,220.3 44.6,220.1 44.7,219.9 44.9,219.7 
					45.1,219.6 45.3,219.5 45.4,219.4 45.5,219.4 45.6,219.3 45.7,219.3 45.8,219.3 46,219.3 46.1,219.3 46.2,219.3 46.3,219.3 
					46.4,219.4 46.5,219.4 46.6,219.5 46.7,219.5 46.8,219.6 46.8,219.7 46.9,219.7 46.9,219.7 46.9,219.7 				"/>
				<polygon class="st21" points="47,219.9 47.1,220.1 47.1,220.3 47.1,220.5 47.1,220.7 47,220.9 46.8,221.1 46.7,221.2 
					46.5,221.4 46.3,221.4 46.2,221.5 46.1,221.5 46,221.5 45.9,221.5 45.8,221.6 45.6,221.5 45.5,221.5 45.4,221.5 45.3,221.5 
					45.2,221.4 45.1,221.4 45,221.3 45,221.3 44.9,221.2 44.8,221.1 44.7,220.9 44.7,220.7 44.7,220.5 44.8,220.3 44.9,220.1 
					45,219.9 45.2,219.8 45.4,219.7 45.5,219.6 45.6,219.6 45.7,219.5 45.8,219.5 46,219.5 46.1,219.5 46.2,219.5 46.3,219.5 
					46.4,219.5 46.5,219.6 46.6,219.6 46.7,219.7 46.8,219.7 46.9,219.8 46.9,219.9 47,219.9 47,219.9 				"/>
				<polygon class="st24" points="47.1,220.3 47.2,220.5 47.2,220.7 47.2,220.8 47.1,221 47.1,221.2 46.9,221.4 46.7,221.6 
					46.5,221.7 46.4,221.8 46.3,221.8 46.2,221.8 46.1,221.9 46,221.9 45.8,221.9 45.7,221.9 45.6,221.9 45.5,221.8 45.4,221.8 
					45.3,221.8 45.2,221.7 45.1,221.6 45,221.6 45,221.5 44.9,221.4 44.8,221.2 44.8,221 44.8,220.8 44.9,220.6 44.9,220.5 
					45.1,220.3 45.2,220.1 45.5,220 45.6,219.9 45.7,219.9 45.8,219.9 45.9,219.8 46,219.8 46.2,219.8 46.3,219.8 46.4,219.8 
					46.5,219.9 46.6,219.9 46.7,219.9 46.8,220 46.9,220 47,220.1 47,220.2 47.1,220.3 47.1,220.3 47.1,220.3 				"/>
				<polygon class="st24" points="36.4,217.8 36.4,217.7 35.8,219.4 36,219.4 36.6,217.8 36.6,217.8 36.4,217.8 36.4,217.8 
					36.4,217.8 				"/>
				<polygon class="st24" points="36.4,217.7 36.4,217.7 36.4,217.8 36.6,217.8 36.6,217.7 36.6,217.7 36.4,217.7 36.4,217.7 
					36.4,217.7 				"/>
				<polygon class="st24" points="36.3,217.6 36.4,217.7 36.6,217.7 36.5,217.6 36.3,217.6 36.3,217.6 36.3,217.6 				"/>
				<polygon class="st24" points="36.3,217.5 36.3,217.6 36.5,217.6 36.5,217.5 36.3,217.5 36.3,217.5 				"/>
				<polygon class="st24" points="36.3,217.4 36.3,217.4 36.3,217.5 36.5,217.5 36.5,217.4 36.5,217.4 36.3,217.4 36.3,217.4 
					36.3,217.4 				"/>
				<polygon class="st24" points="36.3,217.3 36.3,217.4 36.3,217.4 36.5,217.4 36.5,217.3 36.5,217.3 36.3,217.3 36.3,217.3 				
					"/>
				<polygon class="st24" points="36.5,217.3 36.3,217.3 36.3,217.3 36.5,217.3 36.5,217.3 36.3,217.2 36.5,217.3 36.5,217.3 
					36.5,217.3 				"/>
				<polygon class="st6" points="36.7,222 36.6,221.9 36.4,221.9 36.4,222 36.7,222 36.7,222 36.7,222 				"/>
				<polygon class="st24" points="37.1,220.7 37.1,220.6 36.5,222.2 36.7,222.3 37.3,220.7 37.3,220.6 37.1,220.7 37.1,220.7 
					37.1,220.7 				"/>
				<polygon class="st24" points="37.1,220.5 37.1,220.7 37.3,220.6 37.3,220.5 37.1,220.5 37.1,220.5 37.1,220.5 				"/>
				<polygon class="st24" points="37.1,220.4 37.1,220.5 37.3,220.5 37.3,220.4 37.1,220.4 37.1,220.4 37.1,220.4 				"/>
				<polygon class="st24" points="37,220.3 37,220.3 37.1,220.4 37.3,220.4 37.2,220.3 37.2,220.3 37,220.3 37,220.3 37,220.3 				
					"/>
				<polygon class="st24" points="37.2,220.2 37,220.2 37,220.3 37.2,220.3 37.2,220.2 37,220.2 37.2,220.2 37.2,220.2 				"/>
				<g>
					<polygon class="st3" points="35.8,219 35.7,219.1 35.8,219 					"/>
					<polygon class="st3" points="35.9,219.4 35.9,219.4 35.9,219.4 36,219.4 35.9,219.4 					"/>
					<polygon class="st20" points="35.7,219 35.8,218.9 35.8,218.9 36.4,217.3 36.4,217.3 36.4,217.3 36.4,217.4 36.4,217.5 
						36.5,217.6 36.5,217.7 36.5,217.8 36.5,217.8 36.6,217.8 36,219.4 35.9,219.4 35.9,219.4 35.9,219.4 35.9,219.4 36,219.4 
						35.9,219.4 35.9,219.5 35.8,219.4 35.8,219.4 35.8,219.3 35.8,219.3 35.8,219.2 35.7,219.2 35.7,219.2 35.7,219.1 35.8,219 
						35.8,219 35.7,219.1 35.7,219.1 					"/>
				</g>
				<g>
					<polygon class="st17" points="40.7,219.4 40.7,219.4 40.8,219.2 					"/>
					<polygon class="st20" points="35.9,219.3 40.4,219.1 40.5,219.1 40.5,219.1 40.6,219.2 40.6,219.2 40.8,219.2 40.9,219.3 
						40.9,219.3 41,219.3 41,219.3 41.1,219.4 41.1,219.4 41.2,219.5 41.2,219.5 41.2,219.6 41.2,219.6 41,219.7 41,219.6 41,219.6 
						40.9,219.6 40.9,219.6 40.9,219.5 40.9,219.5 40.8,219.5 40.8,219.5 40.7,219.4 40.7,219.4 40.6,219.4 40.5,219.4 40.5,219.4 
						40.4,219.3 40.4,219.3 35.9,219.5 					"/>
					<polygon class="st20" points="41,219.7 41,219.7 41,219.7 					"/>
				</g>
				<polygon class="st24" points="43.4,223.5 43.4,223.4 42.8,225 43,225.1 43.6,223.5 43.6,223.4 43.4,223.5 43.4,223.5 
					43.4,223.5 				"/>
				<polygon class="st24" points="41.7,218.1 41.6,218.1 43.4,223.5 43.6,223.4 41.8,218 41.8,218 41.7,218.1 41.7,218.1 
					41.7,218.1 				"/>
				<polygon class="st24" points="41.6,218 41.6,218 41.7,218.1 41.8,218 41.8,217.9 41.8,217.9 41.6,218 41.6,218 41.6,218 				"/>
				<polygon class="st24" points="41.6,218 41.6,217.9 41.6,218 41.8,217.9 41.7,217.8 41.7,217.8 41.6,218 41.6,218 41.6,218 				
					"/>
				<polygon class="st24" points="41.5,217.9 41.5,217.9 41.6,218 41.7,217.8 41.6,217.7 41.6,217.7 41.5,217.9 41.5,217.9 				"/>
				<polygon class="st24" points="41.4,217.8 41.4,217.8 41.5,217.9 41.6,217.7 41.5,217.7 41.5,217.7 41.4,217.8 41.4,217.8 				
					"/>
				<polygon class="st24" points="41.3,217.8 41.3,217.8 41.4,217.8 41.5,217.7 41.4,217.6 41.4,217.6 41.3,217.8 41.3,217.8 
					41.3,217.8 				"/>
				<polygon class="st24" points="41.2,217.8 41.2,217.8 41.3,217.8 41.4,217.6 41.2,217.6 41.2,217.6 41.2,217.8 41.2,217.8 
					41.2,217.8 				"/>
				<polygon class="st24" points="41.1,217.7 41.1,217.7 41.2,217.8 41.2,217.6 41.1,217.5 41.1,217.5 41.1,217.7 41.1,217.7 
					41.1,217.7 				"/>
				<polygon class="st24" points="41,217.7 41,217.7 41.1,217.7 41.1,217.5 41,217.5 41,217.5 41,217.7 41,217.7 				"/>
				<polygon class="st24" points="36.6,217.8 36.5,217.9 41,217.7 41,217.5 36.5,217.7 36.4,217.7 36.6,217.8 36.6,217.8 
					36.6,217.8 				"/>
				<polygon class="st3" points="37.7,222.7 37.7,222.7 37.7,222.7 				"/>
				<g>
					<polygon class="st3" points="40.2,223.5 40.1,223.7 40.2,223.5 					"/>
					<g>
						<polygon class="st17" points="40.2,223.6 40.1,223.7 40.2,223.6 						"/>
						<g>
							<polygon class="st17" points="36.5,221.8 36.5,221.8 36.5,221.8 							"/>
							<path class="st20" d="M36.4,222l0,0.1l0,0.1l0,0.1l0.3,0.1l0.3,0.1l0.3,0.1l0.3,0.1l0,0l0.3,0.1l0.3,0.1l0.3,0.1l0.3,0.1l0,0
								l0.3,0.1l0.3,0.1l0,0l0.3,0.1l0.4,0.1l0,0l0.4,0l0,0l0.4,0l0.4,0l0.5,0l0.1-0.1l0.6-1.6l-0.1-0.1l0,0.2l0,0l0-0.1l-0.1,0l0,0
								l0,0l-0.4,0h-0.5l-0.4,0l-0.4,0l-0.4,0l-0.3-0.1l-0.3-0.1l-0.3-0.1l-0.3-0.1l-0.3-0.1l-0.3-0.1l-0.3-0.1l-0.3-0.1l-0.3-0.1
								l-0.3-0.1l-0.2-0.1l0,0l-0.1,0l0,0l0-0.1l0-0.1l0,0l0.1-0.2l-0.1,0l0,0l0,0l-0.1,0l-0.6,1.6l0,0.1l0,0.1L36.4,222z
								 M36.5,221.8L36.5,221.8L36.5,221.8L36.5,221.8z"/>
						</g>
					</g>
				</g>
				<polygon class="st24" points="42,222.1 42.5,222.1 42.5,221.8 42,221.9 42,222.1 42,222.1 42,222.1 				"/>
				<polygon class="st24" points="41.6,222.1 42,222.1 42,221.9 41.6,221.9 41.6,222.1 41.6,222.1 41.6,222.1 				"/>
				<polygon class="st24" points="41.2,222.1 41.2,222.1 41.6,222.1 41.6,221.9 41.2,221.9 41.2,221.9 41.2,222.1 41.2,222.1 
					41.2,222.1 				"/>
				<polygon class="st24" points="40.8,222.1 40.8,222.1 41.2,222.1 41.2,221.9 40.8,221.8 40.8,221.9 40.8,222.1 40.8,222.1 
					40.8,222.1 				"/>
				<polygon class="st24" points="40.4,222 40.8,222.1 40.8,221.9 40.4,221.8 40.4,222 40.4,222 				"/>
				<polygon class="st24" points="40,221.9 40,221.9 40.4,222 40.4,221.8 40.1,221.7 40.1,221.7 40,221.9 40,221.9 40,221.9 				"/>
				<polygon class="st24" points="39.7,221.9 40,221.9 40.1,221.7 39.8,221.7 39.7,221.9 39.7,221.9 39.7,221.9 				"/>
				<polygon class="st24" points="39.4,221.8 39.4,221.8 39.7,221.9 39.8,221.7 39.4,221.6 39.5,221.6 39.4,221.8 39.4,221.8 				
					"/>
				<polygon class="st24" points="39.1,221.7 39.1,221.7 39.4,221.8 39.5,221.6 39.2,221.5 39.2,221.5 39.1,221.7 39.1,221.7 
					39.1,221.7 				"/>
				<polygon class="st24" points="38.8,221.6 39.1,221.7 39.2,221.5 38.9,221.4 38.8,221.6 38.8,221.6 				"/>
				<polygon class="st24" points="38.5,221.4 38.8,221.6 38.9,221.4 38.6,221.2 38.5,221.4 38.5,221.4 				"/>
				<polygon class="st24" points="38.2,221.3 38.2,221.3 38.5,221.4 38.6,221.2 38.3,221.1 38.3,221.1 38.2,221.3 38.2,221.3 
					38.2,221.3 				"/>
				<polygon class="st24" points="38,221.2 38.2,221.3 38.3,221.1 38.1,221 38,221.2 38,221.2 38,221.2 				"/>
				<polygon class="st24" points="37.7,221 38,221.2 38.1,221 37.8,220.8 37.7,221 37.7,221 37.7,221 				"/>
				<polygon class="st24" points="37.4,220.9 37.7,221 37.8,220.8 37.5,220.7 37.4,220.9 37.4,220.9 				"/>
				<polygon class="st24" points="37.3,220.7 37.2,220.7 37.4,220.9 37.5,220.7 37.3,220.5 37.1,220.6 37.3,220.7 37.3,220.7 
					37.3,220.7 				"/>
				<polygon class="st24" points="65.4,217.7 64.8,219.4 66.8,220 67.2,219 67.3,218.9 67.3,218.8 67.2,218.6 67.2,218.5 
					67.1,218.4 67.1,218.3 67,218.2 66.9,218.1 66.8,218 66.7,218 66.6,217.9 66.5,217.8 66.4,217.8 66.3,217.7 66.2,217.7 
					66.1,217.6 66,217.6 65.9,217.6 65.8,217.6 65.7,217.6 65.6,217.6 65.6,217.6 65.5,217.7 65.4,217.7 65.4,217.7 65.4,217.7 				
					"/>
				<polygon class="st24" points="66.7,220 66.8,219.9 64.8,219.3 64.7,219.5 66.7,220.1 66.9,220.1 66.7,220 66.7,220 				"/>
				<g>
					<polygon class="st17" points="67.1,220.5 67.1,220.6 67.1,220.5 					"/>
					<polygon class="st17" points="68.1,219.4 68.2,219.4 68.1,219.4 					"/>
					<g>
						<polygon class="st17" points="68.2,219.4 68.1,219.4 68.1,219.4 						"/>
						<g>
							<polygon class="st17" points="68.2,219.4 68.1,219.4 68.1,219.4 							"/>
							<polygon class="st20" points="35.7,218.9 35.7,218.8 36.3,217.2 36.5,217.3 35.9,218.9 35.9,219 35.9,218.9 35.7,219 
								35.7,218.9 							"/>
							<g>
								<polygon class="st17" points="68.2,219.4 68.1,219.4 68.1,219.4 								"/>
								<polygon class="st3" points="45.5,222.7 45.5,222.7 45.5,222.7 								"/>
								<g>
									<polygon class="st17" points="45.6,222.8 45.6,222.9 45.6,222.8 									"/>
									<polygon class="st17" points="68.2,219.4 68.1,219.4 68.1,219.4 									"/>
									<polygon class="st17" points="42.9,225 42.9,225 42.9,225.1 42.8,225 42.9,225 									"/>
									<path class="st20" d="M35.7,219.2L35.7,219.2L35.7,219.2l0.2,0.1l0,0.1l4.5-0.1l0.1,0l0.1,0l0.1,0l0.1,0l0.1,0.1l0.1,0.1
										l0.1,0.1l0,0.1l-0.1,0l1.8,5.4h0.1l0,0.1h0.2l0.2,0l0.1,0l0.1,0l0.1,0l0.1-0.1l0.1-0.1l0.1-0.1l0,0l0.1-0.1l0.1-0.1
										l0.1-0.1l0.1-0.1l0.1-0.2l0.1-0.1l0.1-0.1l0.1-0.2l0.1-0.1l0.1-0.1l0.1-0.1l0.1-0.1l0.1-0.1l0.1-0.1l0.1-0.1l0.1-0.1l0,0
										l-0.1-0.1l0,0l0.1,0.1l0.1-0.1l0.1-0.1l0.1-0.1l0.1-0.1l0.1-0.1l0.1-0.1l0.1-0.1l0.1-0.1l0.1,0l0.1,0l0.1,0l0.1,0l0.1,0
										l0.2,0l0.2,0l0.2,0l0,0l19.5-1.5l0.1,0l0.1,0l0.1,0l0.1,0l0.1,0l0.1-0.1l0.1-0.1l0.1-0.1l0,0l0.3-0.8l-0.2-0.1l0.1,0.1l0,0
										l-0.1-0.1l-0.1,0.2l-0.1,0l-0.1,0l-0.1,0l-0.1,0l-0.1,0l-0.1,0L48,221.1l-0.1,0l-0.1,0l-0.1,0l-0.1,0h-0.1l-0.1,0l-0.1,0
										l-0.1,0l-0.1,0l-0.1,0l-0.1,0l-0.1,0l-0.1,0l-0.1,0l-0.1,0l-0.1,0.1l-0.2,0.1l-0.2,0.2l-0.2,0.3l-0.2,0.3l-0.2,0.3
										l-0.2,0.3l-0.2,0.3l-0.2,0.2l-0.1,0l-0.1,0l-0.1,0h-0.1h-0.1l-0.1,0l-0.1,0l-0.1,0l-1.8-5.4l0-0.1l-0.1-0.1l-0.1-0.1
										l-0.1-0.1l-0.1,0l-0.1,0l-0.1,0l-0.1,0l-4.5,0.1l-0.5,1.4l0,0L35.7,219.2z M68.1,219.4L68.1,219.4L68.1,219.4L68.1,219.4z"
										/>
								</g>
							</g>
						</g>
					</g>
				</g>
				<polygon class="st24" points="67.4,219.8 67.5,219.8 67.6,219.7 67.7,219.7 67.8,219.7 67.9,219.6 68,219.6 68.1,219.5 
					68.2,219.4 68,219.3 68,219.4 67.9,219.4 67.8,219.5 67.8,219.5 67.7,219.5 67.6,219.5 67.5,219.5 67.4,219.6 67.4,219.8 
					67.4,219.8 				"/>
				<polygon class="st24" points="48,221.2 67.4,219.8 67.4,219.6 47.9,221 48,221.2 48,221.2 				"/>
				<polygon class="st24" points="46.1,221.6 46.2,221.5 46.3,221.5 46.4,221.4 46.5,221.4 46.7,221.4 46.8,221.4 46.9,221.3 
					47,221.3 47.1,221.3 47.2,221.3 47.4,221.3 47.5,221.3 47.6,221.2 47.7,221.2 47.8,221.2 48,221.2 47.9,221 47.8,221 47.7,221 
					47.6,221 47.4,221 47.3,221.1 47.2,221.1 47.1,221.1 47,221.1 46.8,221.1 46.7,221.1 46.6,221.2 46.5,221.2 46.4,221.2 
					46.2,221.3 46.1,221.3 46,221.4 46.1,221.6 46.1,221.6 46.1,221.6 				"/>
				<polygon class="st24" points="44.3,223.5 44.4,223.5 44.5,223.4 44.5,223.3 44.6,223.1 44.7,223 44.8,222.9 44.9,222.7 
					45,222.6 45.2,222.4 45.3,222.3 45.4,222.2 45.5,222 45.6,221.9 45.7,221.8 45.9,221.7 46,221.6 46.1,221.6 46,221.4 
					45.8,221.5 45.7,221.5 45.6,221.6 45.5,221.8 45.4,221.9 45.2,222 45.1,222.2 45,222.3 44.9,222.5 44.8,222.6 44.7,222.7 
					44.6,222.9 44.5,223 44.4,223.1 44.3,223.2 44.2,223.3 44.3,223.3 44.3,223.5 44.3,223.5 44.3,223.5 				"/>
				<polygon class="st17" points="65.3,217.8 65.4,217.7 65.5,217.7 65.6,217.6 65.7,217.6 65.8,217.6 65.9,217.6 66,217.6 
					66,217.6 66.1,217.7 66.2,217.7 66.3,217.7 66.4,217.8 66.5,217.8 66.6,217.9 66.7,218 66.7,218 66.8,218.1 66.9,218.2 
					67,218.2 67,218.3 67.1,218.5 67.2,218.6 67.2,218.7 67.2,218.7 67.2,218.9 67.2,219 67.1,219 67,219.1 66.9,219.1 66.8,219.1 
					66.7,219.1 66.6,219.1 66.6,219.1 66.5,219 66.4,219 66.3,219 66.2,218.9 66.1,218.9 66,218.8 65.9,218.8 65.8,218.7 
					65.7,218.6 65.6,218.5 65.6,218.5 65.5,218.4 65.4,218.2 65.4,218.1 65.3,218 65.3,218 				"/>
				<polygon class="st21" points="40.6,217.6 41,217.6 41,217.6 37.6,216.5 37.4,216.6 40.6,217.6 40.6,217.6 40.6,217.6 				"/>
				<polygon class="st21" points="40.6,217.6 36.5,217.8 36.5,217.7 36.5,217.6 36.4,217.5 36.4,217.4 36.4,217.3 36.4,217.3 
					36.4,217.2 36.5,217.1 36.6,217 36.8,216.9 37,216.8 37.2,216.7 37.4,216.6 37.4,216.6 40.6,217.6 40.6,217.6 40.6,217.6 				
					"/>
				<polygon class="st16" points="38.1,220.1 40.9,220 42,220.4 42.4,221.6 42.5,222 42,222 41.6,222 41.2,222 40.8,222 40.4,221.9 
					40.1,221.8 39.7,221.8 39.4,221.7 39.1,221.6 38.8,221.5 38.6,221.3 38.3,221.2 38,221.1 37.7,220.9 37.5,220.8 37.2,220.6 
					37.2,220.5 37.2,220.4 37.1,220.3 37.1,220.2 				"/>
				<polygon class="st21" points="45.1,220.5 45.2,220.5 45.5,220.7 45.7,220.5 45.3,220.3 45.3,220.4 45.1,220.5 45.2,220.5 
					45.2,220.5 45.1,220.5 45.1,220.5 				"/>
				<polygon class="st21" points="41.9,220.5 41.9,220.4 42.4,222 42.6,221.9 42.1,220.4 42,220.3 42.1,220.4 42.1,220.3 42,220.3 
					41.9,220.5 41.9,220.5 41.9,220.5 				"/>
				<polygon class="st21" points="40.9,220.1 40.9,220.1 41.9,220.5 42,220.3 40.9,219.9 40.9,219.9 40.9,219.9 40.9,219.9 
					40.9,219.9 40.9,220.1 40.9,220.1 40.9,220.1 				"/>
				<polygon class="st21" points="37.2,220.2 37.1,220.3 40.9,220.1 40.9,219.9 37.1,220.1 37,220.2 37.1,220.1 37,220.1 37,220.2 
					37.2,220.2 37.2,220.2 				"/>
				<polygon class="st21" points="37.3,220.5 37.3,220.6 37.3,220.6 37.3,220.5 37.3,220.4 37.3,220.4 37.3,220.3 37.3,220.3 
					37.2,220.2 37.2,220.2 37,220.2 37,220.3 37,220.3 37,220.4 37.1,220.4 37.1,220.5 37.1,220.5 37.1,220.6 37.1,220.7 
					37.2,220.7 37.1,220.7 37.1,220.7 37.2,220.7 37.3,220.5 37.3,220.5 				"/>
				<polygon class="st21" points="42.4,222 42.5,221.8 42,221.9 41.6,221.9 41.2,221.9 40.8,221.8 40.4,221.8 40.1,221.7 
					39.8,221.7 39.5,221.6 39.2,221.5 38.9,221.4 38.6,221.2 38.3,221.1 38.1,221 37.8,220.8 37.5,220.7 37.3,220.5 37.2,220.7 
					37.4,220.9 37.7,221 38,221.2 38.2,221.3 38.5,221.4 38.8,221.6 39.1,221.7 39.4,221.8 39.7,221.9 40,221.9 40.4,222 
					40.8,222.1 41.2,222.1 41.6,222.1 42,222.1 42.5,222.1 42.6,221.9 42.5,222.1 42.6,222 42.6,221.9 42.4,222 42.4,222 42.4,222 
									"/>
				<g>
					<polygon class="st17" points="44.4,223.3 44.4,223.4 44.4,223.3 					"/>
					<polygon class="st17" points="43.6,223.3 43.6,223.3 43.6,223.3 					"/>
					<polygon class="st17" points="41.9,218.1 44.7,219 41.9,218.1 					"/>
				</g>
				<polygon class="st21" points="47.9,221 47.8,221 47.6,221 47.5,221 47.3,221.1 47.2,221.1 47,221.1 46.9,221.1 46.7,221.2 
					46.6,221.2 46.4,221.2 46.3,221.3 46.2,221.3 46,221.4 45.9,221.5 45.8,221.5 45.7,221.6 45.8,221.8 45.9,221.7 46,221.7 
					46.1,221.6 46.2,221.5 46.4,221.5 46.5,221.4 46.6,221.4 46.8,221.4 46.9,221.4 47.1,221.3 47.2,221.3 47.4,221.3 47.5,221.3 
					47.7,221.2 47.8,221.2 48,221.2 47.9,221 47.9,221 47.9,221 				"/>
				<polygon class="st21" points="67.4,219.6 47.9,221 48,221.2 67.4,219.8 67.4,219.6 67.4,219.6 				"/>
				<polygon class="st21" points="67.8,218.4 67.8,218.5 67.9,218.6 68,218.7 68,218.8 68.1,218.9 68.1,219 68.1,219.1 68.1,219.2 
					68,219.2 68,219.3 68,219.4 67.9,219.4 67.8,219.5 67.7,219.5 67.6,219.5 67.4,219.6 67.4,219.8 67.6,219.8 67.8,219.7 
					67.9,219.7 68,219.6 68.1,219.5 68.2,219.4 68.2,219.3 68.3,219.2 68.3,219.1 68.3,219 68.3,218.9 68.2,218.7 68.2,218.6 
					68.1,218.5 68,218.3 67.9,218.2 67.8,218.4 67.8,218.4 				"/>
				<polygon class="st21" points="65.4,217.3 65.6,217.3 65.8,217.3 66,217.3 66.2,217.3 66.3,217.4 66.5,217.4 66.6,217.5 
					66.8,217.6 67,217.7 67.1,217.8 67.2,217.9 67.4,218 67.5,218.1 67.6,218.2 67.7,218.3 67.8,218.4 67.9,218.2 67.8,218.1 
					67.7,218 67.6,217.9 67.5,217.8 67.3,217.7 67.2,217.6 67.1,217.5 66.9,217.4 66.7,217.3 66.6,217.3 66.4,217.2 66.2,217.1 
					66,217.1 65.8,217.1 65.6,217 65.4,217.1 65.4,217.3 65.4,217.3 				"/>
				<polygon class="st21" points="48.2,217.9 65.4,217.3 65.4,217.1 48.2,217.6 48.2,217.9 48.2,217.9 				"/>
				<polygon class="st21" points="45.5,217.4 45.7,217.5 45.8,217.5 46,217.6 46.2,217.6 46.4,217.7 46.5,217.7 46.7,217.7 
					46.9,217.7 47.1,217.8 47.2,217.8 47.4,217.8 47.6,217.8 47.7,217.9 47.9,217.8 48.1,217.9 48.2,217.9 48.2,217.6 48.1,217.6 
					47.9,217.6 47.8,217.6 47.6,217.6 47.4,217.6 47.3,217.6 47.1,217.6 46.9,217.5 46.7,217.5 46.6,217.5 46.4,217.4 46.2,217.4 
					46.1,217.4 45.9,217.3 45.7,217.3 45.6,217.2 45.5,217.4 45.5,217.4 45.5,217.4 				"/>
				<polygon class="st21" points="39.7,215.8 40,215.8 40.3,215.8 40.5,215.7 40.8,215.7 41,215.7 41.2,215.7 41.4,215.7 
					41.6,215.8 41.8,215.8 42,215.8 42.1,215.9 42.3,215.9 42.4,216 42.6,216 42.7,216.1 42.8,216.1 43,216.2 43.1,216.3 
					43.2,216.4 43.4,216.4 43.5,216.5 43.7,216.6 43.8,216.7 44,216.8 44.1,216.8 44.3,216.9 44.5,217 44.6,217.1 44.8,217.2 
					45.1,217.3 45.3,217.4 45.5,217.4 45.6,217.2 45.3,217.1 45.1,217.1 44.9,217 44.7,216.9 44.5,216.8 44.4,216.7 44.2,216.6 
					44.1,216.6 43.9,216.5 43.8,216.4 43.6,216.3 43.5,216.2 43.3,216.2 43.2,216.1 43.1,216 42.9,215.9 42.8,215.9 42.6,215.8 
					42.5,215.8 42.4,215.7 42.2,215.6 42,215.6 41.8,215.6 41.6,215.5 41.5,215.5 41.2,215.5 41,215.5 40.8,215.5 40.5,215.5 
					40.3,215.5 40,215.6 39.7,215.6 39.7,215.8 39.7,215.8 39.7,215.8 				"/>
				<polygon class="st21" points="36.5,217.2 36.7,217.1 36.9,217 37.1,216.9 37.3,216.8 37.4,216.7 37.6,216.6 37.8,216.5 
					38,216.4 38.2,216.3 38.4,216.2 38.6,216.1 38.8,216 39.1,216 39.3,215.9 39.5,215.9 39.7,215.8 39.7,215.6 39.4,215.7 
					39.2,215.7 39,215.8 38.8,215.8 38.6,215.9 38.3,216 38.1,216.1 37.9,216.2 37.7,216.3 37.5,216.4 37.3,216.5 37.2,216.6 
					37,216.7 36.8,216.8 36.6,216.9 36.4,217 36.5,217.2 36.5,217.2 36.5,217.2 				"/>
				<polygon class="st21" points="36.5,217.7 36.6,217.8 36.6,217.7 36.5,217.6 36.5,217.5 36.5,217.4 36.5,217.3 36.5,217.3 
					36.5,217.2 36.5,217.2 36.4,217 36.3,217.1 36.3,217.2 36.3,217.3 36.3,217.4 36.3,217.5 36.3,217.6 36.4,217.7 36.4,217.8 
					36.5,217.9 36.4,217.8 36.4,217.9 36.5,217.9 36.5,217.7 36.5,217.7 				"/>
				<g>
					<polygon class="st17" points="44.4,218.4 44.4,218.4 44.4,218.6 					"/>
					<polygon class="st16" points="44.4,218.4 44.4,218.4 44.4,218.4 					"/>
					<polygon class="st16" points="44.4,218.5 44.4,218.4 44.4,218.6 					"/>
					<g>
						<polygon class="st17" points="65.4,217.7 65.5,217.7 65.6,217.6 65.7,217.6 65.8,217.6 65.9,217.6 66,217.6 66,217.6 
							66.1,217.7 66.2,217.7 66.3,217.7 66.4,217.8 66.5,217.8 66.6,217.9 66.7,218 66.7,218 66.8,218.1 66.9,218.2 67,218.2 
							67,218.3 67.1,218.5 67.2,218.6 67.2,218.7 67.2,218.7 67.2,218.9 67.2,219 67.1,219 67,219.1 66.9,219.1 66.8,219.1 
							66.7,219.1 66.6,219.1 66.6,219.1 66.5,219 66.4,219 66.3,219 66.2,218.9 66.1,218.9 66,218.8 65.9,218.8 65.8,218.7 
							65.7,218.6 65.6,218.5 65.6,218.5 65.5,218.4 65.4,218.2 65.4,218.1 65.3,218 65.3,218 65.3,217.8 						"/>
						<polygon class="st17" points="46.6,218.4 46.6,218.4 46.5,218.5 						"/>
						<polygon class="st17" points="47.3,220.2 47.4,220.3 47.4,220.3 47.2,220.5 45.6,220.6 45.2,220.4 45.2,220.4 45.3,220.4 
							44.6,218.5 44.8,218.4 46.2,218.3 46.5,218.5 47.3,220.3 						"/>
						<polygon class="st17" points="41.8,217.9 41.8,217.9 44.5,218.8 						"/>
						<g>
							<polygon class="st17" points="65.4,217.7 65.5,217.7 65.6,217.6 65.7,217.6 65.8,217.6 65.9,217.6 66,217.6 66,217.6 
								66.1,217.7 66.2,217.7 66.3,217.7 66.4,217.8 66.5,217.8 66.6,217.9 66.7,218 66.7,218 66.8,218.1 66.9,218.2 67,218.2 
								67,218.3 67.1,218.5 67.2,218.6 67.2,218.7 67.2,218.7 67.2,218.9 67.2,219 67.1,219 67,219.1 66.9,219.1 66.8,219.1 
								66.7,219.1 66.6,219.1 66.6,219.1 66.5,219 66.4,219 66.3,219 66.2,218.9 66.1,218.9 66,218.8 65.9,218.8 65.8,218.7 
								65.7,218.6 65.6,218.5 65.6,218.5 65.5,218.4 65.4,218.2 65.4,218.1 65.3,218 65.3,218 65.3,217.8 							"/>
							<polygon class="st17" points="46.2,218.3 46.5,218.5 47.3,220.3 47.3,220.2 47.4,220.3 47.4,220.3 47.2,220.5 45.6,220.6 
								45.2,220.4 45.2,220.4 45.3,220.4 44.6,218.5 44.8,218.4 							"/>
							<polygon class="st17" points="41.8,217.9 41.8,217.9 44.5,218.8 							"/>
							<g>
								<polygon class="st17" points="65.4,217.7 65.5,217.7 65.6,217.6 65.7,217.6 65.8,217.6 65.9,217.6 66,217.6 66,217.6 
									66.1,217.7 66.2,217.7 66.3,217.7 66.4,217.8 66.5,217.8 66.6,217.9 66.7,218 66.7,218 66.8,218.1 66.9,218.2 67,218.2 
									67,218.3 67.1,218.5 67.2,218.6 67.2,218.7 67.2,218.7 67.2,218.9 67.2,219 67.1,219 67,219.1 66.9,219.1 66.8,219.1 
									66.7,219.1 66.6,219.1 66.6,219.1 66.5,219 66.4,219 66.3,219 66.2,218.9 66.1,218.9 66,218.8 65.9,218.8 65.8,218.7 
									65.7,218.6 65.6,218.5 65.6,218.5 65.5,218.4 65.4,218.2 65.4,218.1 65.3,218 65.3,218 65.3,217.8 								"/>
								<polygon class="st17" points="46.2,218.3 46.5,218.5 47.3,220.3 47.3,220.2 47.4,220.3 47.4,220.3 47.2,220.5 47.2,220.4 
									45.6,220.5 45.7,220.5 45.6,220.6 45.6,220.6 45.2,220.4 45.2,220.4 45.3,220.4 44.6,218.5 44.8,218.4 								"/>
								<polygon class="st17" points="41.8,217.9 41.8,217.9 44.5,218.8 								"/>
								<g>
									<polygon class="st17" points="47.4,219.9 50.5,220.9 47.4,219.9 									"/>
									<polygon class="st17" points="47.3,219.7 50.8,220.9 47.3,219.7 									"/>
									<polygon class="st17" points="65.4,217.7 65.5,217.7 65.6,217.6 65.7,217.6 65.8,217.6 65.9,217.6 66,217.6 66,217.6 
										66.1,217.7 66.2,217.7 66.3,217.7 66.4,217.8 66.5,217.8 66.6,217.9 66.7,218 66.7,218 66.8,218.1 66.9,218.2 67,218.2 
										67,218.3 67.1,218.5 67.2,218.6 67.2,218.7 67.2,218.7 67.2,218.9 67.2,219 67.1,219 67,219.1 66.9,219.1 66.8,219.1 
										66.7,219.1 66.6,219.1 66.6,219.1 66.5,219 66.4,219 66.3,219 66.2,218.9 66.1,218.9 66,218.8 65.9,218.8 65.8,218.7 
										65.7,218.6 65.6,218.5 65.6,218.5 65.5,218.4 65.4,218.2 65.4,218.1 65.3,218 65.3,218 65.3,217.8 									"/>
									<polygon class="st17" points="46.2,218.3 46.5,218.5 47.3,220.3 47.3,220.2 47.4,220.3 47.4,220.3 47.2,220.5 47.2,220.5 
										45.6,220.6 45.6,220.6 45.2,220.4 45.2,220.4 45.3,220.4 44.6,218.5 44.8,218.4 									"/>
									<polygon class="st17" points="41.8,217.9 41.8,217.9 44.5,218.8 									"/>
									<polygon class="st16" points="47.3,219.7 50.8,220.9 50.5,220.9 50.5,220.9 47.4,219.9 									"/>
									<g>
										<polygon class="st17" points="65.4,217.7 65.5,217.7 65.6,217.6 65.7,217.6 65.8,217.6 65.9,217.6 66,217.6 66,217.6 
											66.1,217.7 66.2,217.7 66.3,217.7 66.4,217.8 66.5,217.8 66.6,217.9 66.7,218 66.7,218 66.8,218.1 66.9,218.2 67,218.2 
											67,218.3 67.1,218.5 67.2,218.6 67.2,218.7 67.2,218.7 67.2,218.9 67.2,219 67.1,219 67,219.1 66.9,219.1 66.8,219.1 
											66.7,219.1 66.6,219.1 66.6,219.1 66.5,219 66.4,219 66.3,219 66.2,218.9 66.1,218.9 66,218.8 65.9,218.8 65.8,218.7 
											65.7,218.6 65.6,218.5 65.6,218.5 65.5,218.4 65.4,218.2 65.4,218.1 65.3,218 65.3,218 65.3,217.8 										"/>
										<polygon class="st17" points="46.2,218.3 46.5,218.5 47.3,220.3 47.2,220.4 45.6,220.5 45.7,220.5 45.6,220.6 45.6,220.6 
											45.2,220.4 45.2,220.4 45.3,220.4 44.6,218.5 44.8,218.4 										"/>
										<polygon class="st17" points="47.3,220.2 47.4,220.3 47.4,220.3 										"/>
										<polygon class="st17" points="41.8,217.9 41.8,217.9 44.5,218.8 										"/>
										<path class="st16" d="M36.5,217.9l4.5-0.1l0.1,0l0.1,0l0.1,0l0.1,0l0.1,0.1l0.1,0l0,0.1l0,0l1.8,5.4l0,0.1l0.1,0l0.1,0
											l0.1,0l0.1,0l0.1,0l0.1,0l0.1,0l0.1,0l0.1-0.1l0.1-0.1l0.1-0.1l0.1-0.1l0.1-0.1l0.1-0.1l0.1-0.1l0.1-0.1l0.1-0.1l0.1-0.1
											l0.1-0.1l0.1-0.1l0.1-0.1l0.1-0.1l0.1-0.1l0.1-0.1l0.1-0.1l-0.1-0.1l0.1-0.1l0.1-0.1l0.1-0.1l0.1-0.1l0.1-0.1l0.1,0l0.1,0
											l0.1,0l0.1,0l0.1,0l0.2,0l0.2,0l0.2,0l0.2,0l0.1,0l0.1,0l2.5-0.2l-3.1-1l-0.1-0.2l0,0l3.5,1.2l16.6-1.2l0.3,0l0.2-0.1
											l0.2-0.2l0.1-0.2V219l0,0l-0.1-0.2l-0.1-0.2l-0.2-0.2l-0.1-0.1l-0.1-0.1l-0.1-0.1l-0.1-0.1l-0.1-0.1l-0.1-0.1l-0.2-0.1
											l-0.2-0.1l-0.2-0.1l-0.2-0.1l-0.2-0.1l-0.2-0.1l-0.2,0l-0.2,0l-0.2,0l-0.2,0l-2.5,0.1l-14.7,0.5h-0.2l-0.2,0l-0.2,0
											l-0.2,0l-0.2,0l-0.2,0l-0.2,0l-0.2,0l-0.2,0l-0.2,0l-0.2,0l-0.2,0l-0.2,0l-0.2,0l-0.2,0l-0.2-0.1l-0.2-0.1l-0.2-0.1
											l-0.2-0.1l-0.2-0.1l-0.2-0.1l-0.2-0.1l-0.2-0.1l-0.2-0.1l-0.2-0.1l-0.1-0.1l-0.1-0.1l-0.1-0.1l-0.1-0.1l-0.1-0.1l-0.1-0.1
											l-0.1-0.1l-0.1-0.1l-0.1-0.1l-0.1,0l-0.2-0.1l-0.2-0.1l-0.2,0l-0.2,0l-0.2,0l-0.2,0l-0.2,0l-0.2,0l-0.2,0l-0.2,0l-0.3,0
											l-0.3,0l-0.3,0l-0.2,0l-0.2,0.1l-0.2,0.1l-0.2,0.1l-0.2,0.1l-0.2,0.1l-0.2,0.1l-0.2,0.1l-0.2,0.1l-0.2,0.1l3.1,1.1
											l-4.2,0.1L36.5,217.9z M65.3,218l0-0.1l0-0.1l0.1-0.1l0.1-0.1l0.1,0l0.1,0l0.1,0l0.1,0l0.1,0l0.1,0l0.1,0l0.1,0l0.1,0.1
											l0.1,0l0.1,0.1l0.1,0.1l0.1,0.1l0.1,0.1l0.1,0.1l0.1,0.1l0.1,0.1l0.1,0.1l0.1,0.1l0,0.1l0,0l0,0.1l0,0.1l-0.1,0.1
											l-0.1,0.1l-0.1,0l-0.1,0l-0.1,0l-0.1,0l-0.1,0l-0.1,0l-0.1,0l-0.1,0l-0.1-0.1l-0.1,0l-0.1-0.1l-0.1-0.1l-0.1-0.1l-0.1-0.1
											l-0.1-0.1l-0.1-0.1l-0.1-0.1l-0.1-0.2l-0.1-0.1L65.3,218L65.3,218z M47.4,220.3L47.4,220.3L47.4,220.3L47.4,220.3z
											 M44.6,218.5l0.1-0.1l1.5-0.1l0.3,0.2l0.7,1.7l-0.1,0.1l-1.6,0.1l0.1,0l-0.1,0.1l0,0l-0.4-0.2l0,0l0.1,0L44.6,218.5z"/>
									</g>
								</g>
							</g>
						</g>
					</g>
				</g>
				<polygon class="st24" points="64.3,219.1 64.2,219 64.2,219 64.3,218.9 64.4,219 64.3,218.9 64.3,219.1 64.3,219.1 				"/>
				<polygon class="st24" points="64.5,219 64.5,219 64.4,219 64.4,219.1 64.4,219.1 64.3,219.1 64.3,218.9 64.3,219 64.3,218.9 
					64.4,218.9 64.4,218.9 64.4,218.9 64.5,219 64.5,219 64.5,219 				"/>
				<polygon class="st24" points="64.1,218.2 64.1,218.2 64.2,218.2 64.3,218.3 64.4,218.4 64.4,218.5 64.5,218.6 64.5,218.7 
					64.5,218.9 64.5,219 64.4,218.9 64.4,218.9 64.4,218.8 64.4,218.7 64.3,218.6 64.2,218.5 64.2,218.4 64.1,218.3 64,218.3 
					64,218.3 64.1,218.2 64.1,218.2 				"/>
				<polygon class="st24" points="62.9,217.8 62.9,217.8 63.1,217.8 63.3,217.8 63.4,217.9 63.6,217.9 63.7,217.9 63.8,218 
					64,218.1 64.1,218.2 64,218.3 63.9,218.2 63.8,218.1 63.7,218 63.5,218 63.4,218 63.2,218 63.1,218 62.9,218 62.9,218 
					62.9,217.8 62.9,217.8 62.9,217.8 				"/>
				<polygon class="st24" points="50.3,218.5 50.4,218.5 62.9,217.8 62.9,218 50.4,218.6 50.4,218.6 50.3,218.5 50.3,218.5 				"/>
				<polygon class="st24" points="50,218.9 49.9,218.9 49.9,218.8 49.9,218.7 49.9,218.6 50,218.6 50.1,218.5 50.1,218.5 
					50.2,218.5 50.4,218.5 50.4,218.6 50.3,218.6 50.2,218.6 50.1,218.6 50.1,218.7 50.1,218.7 50,218.8 50,218.8 50,218.9 
					49.9,218.9 50,218.9 50,218.9 				"/>
				<g>
					<polygon class="st17" points="50.4,218.5 50.4,218.6 50.4,218.5 					"/>
					<g>
						<polygon class="st17" points="50,218.9 50,218.8 50.1,218.7 50.1,218.7 50.2,218.6 50.2,218.6 50.4,218.6 50.4,218.6 
							62.9,218 63.2,218 63.3,218 63.5,218 63.6,218 63.8,218.1 63.9,218.2 64,218.3 64.2,218.4 64.3,218.6 64.4,218.7 64.4,218.8 
							64.4,218.9 64.4,218.9 64.3,219 64.1,219 63.9,219 51,219.7 51,219.7 50.8,219.7 50.6,219.6 50.5,219.6 50.3,219.5 
							50.2,219.4 50.2,219.2 50.1,219.1 50,219 50,219 						"/>
						<g>
							<path class="st17" d="M50,218.8L50,218.8l0,0.2l0,0.1l0.1,0.1l0.1,0.1l0.1,0.1l0.1,0.1l0.1,0.1l0.2,0.1l0.2,0l0.2,0l0,0
								l12.9-0.7l0.2,0l0.2,0l0.1,0l0-0.1v-0.1l0-0.1l-0.1-0.1l-0.1-0.1l-0.1-0.2l-0.1-0.1l-0.1-0.1l-0.1-0.1l-0.2,0l-0.2,0l-0.2,0
								l-0.2,0l-12.6,0.6l0,0l-0.1,0l-0.1,0l-0.1,0L50,218.8L50,218.8z M50.2,218.7l12.6-0.6l0,0l0.2,0h0.2l0.2,0l0.1,0l0.1,0
								l0.1,0.1l0.1,0.1l0.1,0.1l0.1,0.1l0,0l0,0.1l0,0l0.1,0.1l0,0.1l0,0.1l0,0.1l0,0l-0.1,0l0,0l0-0.1l0-0.1l0,0l0-0.1l0,0l0-0.1
								l0,0l-0.1-0.1l0,0l-0.1-0.1l-0.1-0.1l-0.1-0.1l-0.1,0l-0.1,0l-0.1,0l-0.2,0l-0.2,0l-12.6,0.6L50.2,218.7z"/>
							<g>
								<path class="st17" d="M50,218.8L50,218.8l0,0.2l0,0.1l0.1,0.1l0.1,0.1l0.1,0.1l0.1,0.1l0.1,0.1l0.2,0.1l0.2,0l0.2,0l0,0
									l12.9-0.7l0.2,0l0.2,0l0.1,0l0-0.1v-0.1l0-0.1l-0.1-0.1l-0.1-0.1l-0.1-0.2l-0.1-0.1l-0.1-0.1l-0.1-0.1l-0.2,0l-0.2,0l-0.2,0
									l-0.2,0l-12.6,0.6l0,0l-0.1,0l-0.1,0l-0.1,0L50,218.8L50,218.8z"/>
								<g>
									<polygon class="st17" points="50.1,218.7 50.1,218.7 50.2,218.6 50.2,218.6 50.3,218.6 50.2,218.8 62.8,218.2 63,218.2 
										63.1,218.2 63.3,218.2 63.4,218.2 63.5,218.3 63.7,218.3 63.8,218.4 63.9,218.5 64,218.6 64,218.6 64.1,218.7 64.1,218.7 
										64.2,218.8 64.2,218.8 64.2,218.9 64.3,218.9 64.3,219 64.1,219 63.9,219 51,219.7 51,219.7 50.8,219.7 50.6,219.6 
										50.5,219.6 50.3,219.5 50.2,219.4 50.2,219.2 50.1,219.1 50,219 50,219 50,218.9 50,218.8 									"/>
									<polygon class="st20" points="64.2,218.9 64.2,218.8 64.2,218.8 64.1,218.7 64.1,218.7 64,218.6 64,218.6 63.9,218.5 
										63.8,218.4 63.7,218.3 63.5,218.3 63.4,218.2 63.3,218.2 63.1,218.2 63,218.2 62.8,218.2 50.2,218.8 50.3,218.6 
										50.4,218.6 50.4,218.6 62.9,218 63.2,218 63.3,218 63.5,218 63.6,218 63.8,218.1 63.9,218.2 64,218.3 64.2,218.4 
										64.3,218.6 64.4,218.7 64.4,218.8 64.4,218.9 64.4,218.9 64.3,219 64.3,219 64.3,218.9 									"/>
									<g>
										<polygon class="st17" points="50,218.8 50,218.8 50.1,218.8 50.2,218.8 50.3,218.6 50.4,218.6 50.4,218.6 62.9,218 
											63.2,218 63.3,218 63.5,218 63.6,218 63.8,218.1 63.9,218.2 64,218.3 64.2,218.4 64.3,218.6 64.4,218.7 64.4,218.8 
											64.4,218.9 64.4,218.9 64.3,219 64.3,219 64.1,219 63.9,219 51,219.7 51,219.7 50.8,219.7 50.6,219.6 50.5,219.6 
											50.3,219.5 50.2,219.4 50.2,219.2 50.1,219.1 50,219 50,219 50,218.9 50,218.8 										"/>
										<path class="st20" d="M49.9,218.9l0,0.1l0,0.1l0,0.1l0.1,0.1l0.1,0.1l0.1,0.1l0.2,0.1l0.2,0.1l0.2,0.1l0.2,0l12.9-0.7
											l0.2,0l0.2,0l0.1-0.1l0.1-0.1l0-0.1l0-0.1l-0.1-0.1l-0.1-0.2l-0.1-0.2L64,218l-0.2-0.1l-0.1-0.1l-0.2,0l-0.2,0h-0.2
											l-0.2,0l-12.6,0.6v0l-0.1,0l-0.1,0.1l-0.1,0.1l-0.1,0.1l0,0.1L49.9,218.9z M50,218.9L50,218.9L50,218.9L50,218.9L50,218.9
											l0.2-0.1l0.1-0.2l0,0l0,0l12.6-0.6l0.2,0l0.2,0l0.2,0l0.2,0l0.1,0.1l0.1,0.1l0.1,0.1l0.1,0.2l0.1,0.1l0.1,0.1l0,0.1v0.1
											l0,0.1l-0.1,0l0,0l-0.1,0l-0.2,0L51,219.7l0,0l-0.2,0l-0.2,0l-0.2-0.1l-0.1-0.1l-0.1-0.1l-0.1-0.1l-0.1-0.1L50,219
											L50,218.9L50,218.9z"/>
									</g>
								</g>
							</g>
						</g>
					</g>
				</g>
			</g>
		</g>
	</g>
</g>
</svg>
