<?xml version="1.0" encoding="UTF-8" standalone="no"?>
<!-- Generator: Adobe Illustrator 16.0.0, SVG Export Plug-In . SVG Version: 6.00 Build 0)  -->

<svg
     version="1.1"
     id="Layer_1"
     x="0px"
     y="0px"
     width="750"
     height="1125"
     viewBox="0 0 750 1125"
     enable-background="new 0 0 180 270"
     xml:space="preserve"
     sodipodi:docname="MintTin.svg"
     inkscape:version="1.2.2 (732a01da63, 2022-12-09)"
     xmlns:inkscape="http://www.inkscape.org/namespaces/inkscape"
     xmlns:sodipodi="http://sodipodi.sourceforge.net/DTD/sodipodi-0.dtd"
     xmlns="http://www.w3.org/2000/svg"
     xmlns:svg="http://www.w3.org/2000/svg"><defs
     id="defs521">
	
	
		
	
	
	
</defs><sodipodi:namedview
     id="namedview519"
     pagecolor="#ffffff"
     bordercolor="#999999"
     borderopacity="1"
     inkscape:showpageshadow="0"
     inkscape:pageopacity="0"
     inkscape:pagecheckerboard="0"
     inkscape:deskcolor="#d1d1d1"
     showgrid="false"
     inkscape:zoom="0.67240617"
     inkscape:cx="284.7981"
     inkscape:cy="619.41728"
     inkscape:window-width="2560"
     inkscape:window-height="1351"
     inkscape:window-x="1491"
     inkscape:window-y="585"
     inkscape:window-maximized="1"
     inkscape:current-layer="Layer_1" />
<rect
     style="fill:#74686b;fill-opacity:1;stroke-width:14.3461;stroke-linejoin:round;paint-order:markers stroke fill"
     id="rect345"
     width="750"
     height="1125"
     x="0"
     y="0" /><path
     fill="none"
     stroke="#ed1c24"
     stroke-width="4.13583"
     stroke-linecap="round"
     stroke-linejoin="round"
     stroke-miterlimit="10"
     d="m 180.95,1088.0917 c -65.58333,0 -118.941666,-53.4167 -118.941666,-119.07086 V 155.98333 C 62.008334,90.329167 115.36667,36.9125 180.95,36.9125 h 388.09167 c 65.59167,0 118.95417,53.416667 118.95417,119.07083 v 813.03751 c 0,65.65416 -53.3625,119.07086 -118.95417,119.07086 z"
     id="path4"
     style="fill:#414141;fill-opacity:1;stroke:none" /><path
     fill="none"
     stroke="#26aae1"
     stroke-width="4.69583"
     stroke-miterlimit="10"
     stroke-dasharray="3.4936, 3.4936"
     d="m 180.95,1050.5917 c -44.90417,0 -81.441666,-36.5917 -81.441666,-81.57086 V 155.98333 c 0,-44.97916 36.537496,-81.570829 81.441666,-81.570829 h 388.09167 c 44.9125,0 81.45417,36.591669 81.45417,81.570829 v 813.03751 c 0,44.97916 -36.54167,81.57086 -81.45417,81.57086 z"
     id="path6"
     style="fill:black;fill-opacity:1;stroke:none" />
</svg>
