<?xml version="1.0" encoding="utf-8"?>
<!-- Generator: Adobe Illustrator 15.0.0, SVG Export Plug-In . SVG Version: 6.00 Build 0)  -->
<!DOCTYPE svg PUBLIC "-//W3C//DTD SVG 1.1//EN" "http://www.w3.org/Graphics/SVG/1.1/DTD/svg11.dtd">
<svg version="1.1" xmlns="http://www.w3.org/2000/svg" xmlns:xlink="http://www.w3.org/1999/xlink" x="0px" y="0px" width="504px"
	 height="432px" viewBox="0 0 504 432" enable-background="new 0 0 504 432" xml:space="preserve">
<g id="Background">
	<polygon fill="#929497" points="0,0 0,432 504,432 504,0 0,0 	"/>
</g>
<g id="cuts">
	<g id="XMLID_1_">
		<g>
			<path fill="#FFFFFF" d="M230.599,377.869c0,19.88-16.11,36-36,36h-110c-19.88,0-36-16.12-36-36v-3.6h-3.6
				c-19.88,0-36-16.12-36-36v-254c0-19.89,16.12-36,36-36h3.6v-3.6c0-19.89,16.12-36,36-36h110c19.89,0,36,16.11,36,36v3.6h3.61
				c19.88,0,35.99,16.11,35.99,36h73c0,22,36,22,36,0h73h32.399v254h-32.399h-182c0,19.88-16.11,36-35.99,36h-3.61V377.869z"/>
		</g>
		<g>
			<line fill="none" stroke="#EC1C24" stroke-miterlimit="10" x1="8.999" y1="338.27" x2="8.999" y2="84.269"/>
			<path fill="none" stroke="#EC1C24" stroke-miterlimit="10" d="M452.199,84.269h-73c0,22-36,22-36,0h-73"/>
			<polyline fill="none" stroke="#EC1C24" stroke-miterlimit="10" points="452.199,338.27 484.599,338.27 484.599,84.269 
				452.199,84.269 			"/>
			<path fill="none" stroke="#EC1C24" stroke-miterlimit="10" d="M8.999,84.269c0-19.89,16.12-36,36-36h3.6"/>
			<path fill="none" stroke="#EC1C24" stroke-miterlimit="10" d="M270.199,84.269c0-19.89-16.11-36-35.99-36h-3.61"/>
			<polyline fill="none" stroke="#EC1C24" stroke-miterlimit="10" points="48.599,113.069 48.599,48.269 48.599,44.669 
				77.399,44.669 			"/>
			<polyline fill="none" stroke="#EC1C24" stroke-miterlimit="10" points="230.599,113.069 230.599,48.269 230.599,44.669 
				201.799,44.669 			"/>
			<path fill="none" stroke="#EC1C24" stroke-miterlimit="10" d="M48.599,44.669c0-19.89,16.12-36,36-36h110"/>
			<path fill="none" stroke="#EC1C24" stroke-miterlimit="10" d="M230.599,44.669c0-19.89-16.11-36-36-36"/>
			<line fill="none" stroke="#EC1C24" stroke-miterlimit="10" x1="270.199" y1="338.27" x2="452.199" y2="338.27"/>
			<path fill="none" stroke="#EC1C24" stroke-miterlimit="10" d="M8.999,338.27c0,19.88,16.12,36,36,36h3.6"/>
			<path fill="none" stroke="#EC1C24" stroke-miterlimit="10" d="M270.199,338.27c0,19.88-16.11,36-35.99,36h-3.61"/>
			<polyline fill="none" stroke="#EC1C24" stroke-miterlimit="10" points="48.599,338.27 48.599,374.27 48.599,377.869 
				77.399,377.869 			"/>
			<polyline fill="none" stroke="#EC1C24" stroke-miterlimit="10" points="230.599,338.27 230.599,374.27 230.599,377.869 
				201.799,377.869 			"/>
			<path fill="none" stroke="#EC1C24" stroke-miterlimit="10" d="M48.599,377.869c0,19.88,16.12,36,36,36h110"/>
			<path fill="none" stroke="#EC1C24" stroke-miterlimit="10" d="M194.599,413.869c19.89,0,36-16.12,36-36"/>
		</g>
	</g>
</g>
<g id="folds">
	<rect x="48.532" y="112.946" fill="none" stroke="#8BC53F" stroke-miterlimit="10" width="182" height="225.2"/>
	
		<line fill="none" stroke="#8BC53F" stroke-width="1.047" stroke-miterlimit="10" x1="48.532" y1="338.146" x2="9.004" y2="338.146"/>
	<line fill="none" stroke="#8BC53F" stroke-width="1.047" stroke-miterlimit="10" x1="48.532" y1="84.146" x2="9.004" y2="84.146"/>
	<polyline fill="none" stroke="#8BC53F" stroke-width="1.0506" stroke-miterlimit="10" points="230.531,338.146 270.204,338.146 
		270.204,84.146 230.531,84.146 	"/>
	<line fill="none" stroke="#8BC53F" stroke-miterlimit="10" x1="452.204" y1="338.146" x2="452.204" y2="84.146"/>
	<line fill="none" stroke="#8BC53F" stroke-miterlimit="10" x1="77.332" y1="44.664" x2="201.731" y2="44.664"/>
	<line fill="none" stroke="#8BC53F" stroke-miterlimit="10" x1="48.637" y1="84.146" x2="230.637" y2="84.146"/>
	<line fill="none" stroke="#8BC53F" stroke-miterlimit="10" x1="77.332" y1="377.864" x2="201.731" y2="377.864"/>
</g>
<g id="instructions">
	<g>
		<g>
			<g>
				<path fill="none" stroke="#00ADEE" stroke-miterlimit="10" d="M390.009,93.627h-2.5c-0.086,0.529-0.262,1.073-0.549,1.623
					c-0.119,0.231-0.242,0.461-0.369,0.689"/>
				<path fill="none" stroke="#00ADEE" stroke-miterlimit="10" stroke-dasharray="4.6962,4.6962" d="M383.995,99.848
					c-5.797,7.368-14.961,11.737-24.537,10.683c-8.59-0.945-17.525-4.833-21.881-12.418"/>
				<path fill="none" stroke="#00ADEE" stroke-miterlimit="10" d="M336.534,96.019c-0.133-0.315-0.26-0.637-0.379-0.963
					c-0.184-0.501-0.279-0.977-0.311-1.428h-2.5"/>
				
					<line fill="none" stroke="#00ADEE" stroke-miterlimit="10" stroke-dasharray="4.5939,4.5939" x1="328.751" y1="93.627" x2="285.108" y2="93.627"/>
				<polyline fill="none" stroke="#00ADEE" stroke-miterlimit="10" points="282.812,93.627 280.312,93.627 280.312,96.127 				"/>
				
					<line fill="none" stroke="#00ADEE" stroke-miterlimit="10" stroke-dasharray="4.924,4.924" x1="280.312" y1="101.052" x2="280.312" y2="325.096"/>
				<polyline fill="none" stroke="#00ADEE" stroke-miterlimit="10" points="280.312,327.557 280.312,330.057 282.812,330.057 				
					"/>
				
					<line fill="none" stroke="#00ADEE" stroke-miterlimit="10" stroke-dasharray="5.1398,5.1398" x1="287.95" y1="330.057" x2="439.573" y2="330.057"/>
				<polyline fill="none" stroke="#00ADEE" stroke-miterlimit="10" points="442.144,330.057 444.644,330.057 444.644,327.557 				
					"/>
				
					<line fill="none" stroke="#00ADEE" stroke-miterlimit="10" stroke-dasharray="4.924,4.924" x1="444.644" y1="322.633" x2="444.644" y2="98.589"/>
				<polyline fill="none" stroke="#00ADEE" stroke-miterlimit="10" points="444.644,96.127 444.644,93.627 442.144,93.627 				"/>
				
					<line fill="none" stroke="#00ADEE" stroke-miterlimit="10" stroke-dasharray="4.7396,4.7396" x1="437.405" y1="93.627" x2="392.378" y2="93.627"/>
			</g>
		</g>
	</g>
	<rect x="464.452" y="92.626" fill="#E6E6E6" width="16.057" height="239.999"/>
	<text transform="matrix(0 -1 1 0 477.5078 228.1641)" fill="#A6A8AB" font-family="'MyriadPro-Regular'" font-size="12">Glue</text>
	<g>
		<path fill="#EC1E28" d="M362.091,127.898c0,0.888-0.404,1.754-1.207,2.597l-0.127,0.125l-7.041,7.417
			c-1.496,1.571-2.77,2.787-3.82,3.646c-1.053,0.859-1.797,1.287-2.229,1.287c-0.455,0-1.021-0.214-1.697-0.644
			c-0.676-0.428-1.113-0.872-1.311-1.327c-0.166-0.38-0.326-1.185-0.473-2.416c-0.148-1.229-0.223-2.563-0.223-3.998
			c0-0.782,0.328-1.506,0.98-2.171s1.375-0.997,2.164-0.997c0.754,0,1.199,0.688,1.344,2.062c0.018,0.159,0.027,0.278,0.037,0.354
			c0.119,1.056,0.26,1.792,0.418,2.21c0.162,0.418,0.379,0.627,0.65,0.627c0.113,0,0.328-0.124,0.639-0.37
			c0.311-0.248,0.684-0.583,1.117-1.009l7.234-7.166c0.607-0.607,1.148-1.066,1.629-1.379c0.479-0.311,0.883-0.467,1.219-0.467
			c0.252,0,0.428,0.096,0.537,0.285c0.105,0.19,0.158,0.51,0.158,0.958V127.898z"/>
	</g>
	<line fill="none" stroke="#EC1C24" x1="394.847" y1="129.122" x2="394.847" y2="84.158"/>
	<line fill="none" stroke="#8BC53F" x1="201.851" y1="184.495" x2="230.651" y2="184.162"/>
	<text transform="matrix(1 0 0 1 362.1758 140.8257)" font-family="'ArialMT'" font-size="14">Trim Line</text>
	<rect x="276.825" y="354.936" fill="#E6E7E8" width="210.152" height="72.891"/>
	<text transform="matrix(1.0191 0 0 1 408.6562 370.041)"><tspan x="0" y="0" fill="#231F20" font-family="'Arial-Black'" font-size="8.0492">PLEASE NOTE:</tspan><tspan x="-47.415" y="9.659" fill="#231F20" font-family="'Arial-Black'" font-size="8.0492">Remove this layer before </tspan><tspan x="-42.938" y="19.318" fill="#231F20" font-family="'Arial-Black'" font-size="8.0492">sending the file to print. </tspan><tspan x="-52.777" y="28.978" fill="#231F20" font-family="'Arial-Black'" font-size="8.0492">This layer is provided as a </tspan><tspan x="-8.961" y="38.636" fill="#231F20" font-family="'Arial-Black'" font-size="8.0492">guide for set up. </tspan><tspan x="-58.145" y="48.295" fill="#231F20" font-family="'Arial-Black'" font-size="8.0492">DELETE LAYER AFTER USE.</tspan></text>
	<g>
		<path fill="#EC1E28" d="M408.804,361.129c0,0.551-0.256,1.088-0.764,1.611l-0.08,0.078l-4.455,4.605
			c-0.947,0.975-1.754,1.729-2.418,2.264c-0.666,0.531-1.137,0.799-1.41,0.799c-0.289,0-0.646-0.133-1.076-0.4
			c-0.428-0.264-0.703-0.539-0.828-0.822c-0.105-0.236-0.205-0.736-0.299-1.502c-0.094-0.762-0.141-1.59-0.141-2.48
			c0-0.488,0.207-0.936,0.619-1.35c0.414-0.412,0.871-0.617,1.369-0.617c0.477,0,0.76,0.426,0.852,1.281
			c0.012,0.098,0.018,0.17,0.023,0.217c0.074,0.656,0.164,1.113,0.266,1.373c0.1,0.26,0.238,0.391,0.41,0.391
			c0.072,0,0.207-0.078,0.404-0.232c0.195-0.152,0.434-0.361,0.707-0.625l4.578-4.449c0.385-0.377,0.729-0.662,1.031-0.857
			c0.303-0.193,0.561-0.291,0.771-0.291c0.158,0,0.271,0.062,0.338,0.178c0.068,0.119,0.102,0.316,0.102,0.596V361.129z"/>
	</g>
	<g>
		<ellipse fill-rule="evenodd" clip-rule="evenodd" cx="313.194" cy="390.676" rx="32.785" ry="32.17"/>
		<ellipse fill-rule="evenodd" clip-rule="evenodd" fill="#B7D333" cx="313.217" cy="390.854" rx="29.806" ry="29.246"/>
		<g>
			<path d="M306.835,384.477c-0.412,3.584-0.721,6.465-0.926,8.637l-1.357,0.059c0.02-0.072,0.027-0.154,0.031-0.244
				c0.002-0.162-0.059-0.377-0.184-0.645c-0.125-0.264-0.197-0.434-0.213-0.506c-0.352,0.051-0.689,0.291-1.01,0.717
				c-0.322,0.43-0.613,0.645-0.871,0.641c-0.148-0.004-0.314-0.043-0.498-0.117c-0.244,0.158-0.557,0.227-0.947,0.203
				c-0.348-0.061-0.689-0.111-1.021-0.154c-0.012-0.453-0.465-0.85-1.365-1.191c0.004-0.182-0.09-0.451-0.277-0.811
				c-0.189-0.355-0.281-0.605-0.277-0.75c0.002-0.164,0.068-0.299,0.201-0.406c-0.02-0.053-0.172-0.393-0.455-1.016
				c-0.195-0.455-0.291-0.848-0.285-1.172c0.004-0.254,0.064-0.488,0.18-0.705c-0.158-1.543-0.229-2.869-0.207-3.975
				c0.027-1.703,0.275-3.27,0.746-4.695c-0.033-0.219-0.049-0.436-0.047-0.654c0.021-1.143,0.424-1.932,1.205-2.373l0.008-0.354
				c0.775-0.967,1.795-1.666,3.057-2.1c0.758,0.178,1.512,0.344,2.266,0.502c0.846,0.287,1.43,0.775,1.75,1.471
				c0.254,0.15,0.381,0.451,0.373,0.902c-0.008,0.51,0.051,0.838,0.176,0.984l-0.141,0.16c0.146,1.072,0.221,1.727,0.215,1.961
				c-0.012,0.691-0.195,1.178-0.551,1.461c-0.129,0-0.469-0.115-1.02-0.344c-0.133,0.125-0.273,0.188-0.42,0.184
				c-0.074,0-0.209-0.041-0.4-0.115c-0.191-0.076-0.355-0.113-0.484-0.115c-0.092-0.002-0.184,0.014-0.277,0.047
				c-0.012-1.43,0.035-2.5,0.139-3.205c-0.146-0.094-0.295-0.309-0.445-0.635c-0.152-0.328-0.348-0.514-0.586-0.553
				c-0.152,0.18-0.219,0.297-0.201,0.352l-0.496-0.172c-0.451,0.48-0.754,1.32-0.902,2.514c-0.154,1.377-0.346,2.289-0.574,2.738
				c0.199,0.203,0.297,0.486,0.289,0.848c-0.002,0.127-0.023,0.336-0.066,0.625s-0.064,0.508-0.066,0.654
				c-0.002,0.162,0.012,0.307,0.049,0.434l-0.34,0.32c0.137,0.619,0.217,1.402,0.238,2.346c-0.014,0.797-0.02,1.596-0.014,2.393
				c-0.02,0-0.176,0.006-0.471,0.021c-0.186-0.006-0.318,0.057-0.393,0.182c0.111-0.016,0.213-0.023,0.305-0.021
				c0.406,0.006,0.725,0.289,0.955,0.846c0.232,0.557,0.43,0.838,0.596,0.842c0.186,0,0.439-0.168,0.76-0.508
				c0.543-0.57,0.826-1.355,0.844-2.352c0.01-0.49-0.047-1.016-0.168-1.58c-0.129,0.068-0.197,0.25-0.203,0.539
				c-0.295-0.004-0.482,0.057-0.557,0.182c-0.129-0.039-0.184-0.139-0.162-0.301c0.021-0.236,0.033-0.363,0.033-0.383
				c0.225-0.066,0.336-0.166,0.34-0.291c0-0.055-0.039-0.156-0.121-0.303c-0.078-0.146-0.117-0.264-0.117-0.355
				c0-0.072,0.021-0.145,0.059-0.217l0.129-1.059c0.406,0.117,1.283,0.166,2.633,0.154c-0.039,0.088,0.014,0.209,0.16,0.354
				c0.131-0.125,0.27-0.186,0.42-0.182c0.109,0.002,0.273,0.049,0.492,0.145C306.587,384.428,306.741,384.477,306.835,384.477z"/>
			<path d="M317.183,393.844c-0.258-0.111-0.533-0.17-0.828-0.176c-0.26-0.004-0.613,0.045-1.059,0.146
				c-0.502,0.1-0.844,0.158-1.029,0.172c-0.197-0.383-0.334-0.91-0.414-1.584c-0.148-0.982-0.244-1.535-0.277-1.666
				c0.059-0.107,0.088-0.197,0.088-0.268c0.004-0.201-0.154-0.381-0.475-0.541c-0.322-0.158-0.482-0.285-0.479-0.375
				c0-0.105,0.188-0.268,0.562-0.48c-0.092-0.109-0.158-0.332-0.199-0.668c-0.037-0.336-0.123-0.561-0.25-0.672
				c-0.227,0.197-0.592,0.322-1.102,0.377c-0.51,0.057-0.848,0.137-1.016,0.24c0.012,1.416-0.227,2.365-0.715,2.846
				c-0.258-0.059-0.455,0.039-0.586,0.291c-0.191,0.305-0.354,0.482-0.482,0.535l0.162,0.191c-0.148,0.125-0.391,0.176-0.723,0.152
				c-0.518-0.027-0.795-0.041-0.83-0.041l-0.158-0.494l1.807-14.686c0.018-0.924,0.062-1.553,0.143-1.877
				c-0.023-0.816,0.17-1.32,0.58-1.514c0.256,0.168,0.578,0.254,0.967,0.262c0.314,0.006,0.805-0.059,1.471-0.193
				c0.672-0.133,1.133-0.199,1.393-0.195c0.904,0.016,1.299,0.656,1.188,1.926c-0.092,1.014,0.068,2.35,0.482,4.006
				c0.432,1.787,0.641,3.123,0.625,4.012c-0.006,0.271,0.086,0.836,0.062,1.105c-0.393,0.211-0.891,0.34-1.502,0.383
				c-0.537,0.027-1.084,0.057-1.639,0.082c-0.141-1.381-0.389-3.043-0.533-4.408c-0.174-1.635-0.391-2.979-0.65-4.037l-0.857,7.768
				c-0.064,0.67,0.244,1.012,0.928,1.023c0.223,0.004,0.434-0.047,0.641-0.152c0.166-0.053,0.396,0.068,0.688,0.363
				c-0.012,0.562,0.104,0.9,0.342,1.014c0.299-0.195,0.689-0.379,1.174-0.555c0.426-0.152,0.848-0.301,1.256-0.439
				c0.234,0.312,0.385,0.777,0.449,1.396c0.074,0.871,0.131,1.381,0.166,1.525c0.031,0.346,0.174,1.09,0.432,2.238
				c0.188,0.908,0.275,1.645,0.268,2.207C317.245,393.357,317.222,393.609,317.183,393.844z"/>
			<path d="M329.948,380.889c-0.02,0.055-0.025,0.373-0.016,0.953c-0.01,0.471-0.07,0.824-0.186,1.057
				c-0.137,0.361-0.207,0.879-0.221,1.549c-0.004,0.145,0.002,0.371,0.016,0.68c-0.006,0.311-0.01,0.535-0.012,0.68
				c-0.02,1.143-0.219,1.973-0.6,2.492c0.033,0.293,0.047,0.582,0.045,0.873c-0.018,0.906-0.334,2.125-0.951,3.658
				c-0.168,0.051-0.309,0.074-0.42,0.074c-0.221-0.006-0.381-0.133-0.479-0.377c-0.098-0.246-0.189-0.479-0.277-0.697
				c0.061-1.395,0.031-3.428-0.09-6.098l0.17-0.16c-0.123-0.471-0.178-0.998-0.168-1.578c0.008-0.418,0.061-1.025,0.156-1.822
				c0.098-0.795,0.15-1.395,0.156-1.793c0.006-0.254-0.002-0.496-0.014-0.734c-0.637,1.496-1.088,4.025-1.352,7.594l-0.232,0.541
				c-0.078,0.182-0.236,0.279-0.475,0.293c-0.074-0.127-0.146-0.193-0.219-0.193c-0.057-0.004-0.154,0.062-0.295,0.197
				c-0.143,0.135-0.258,0.191-0.35,0.172l-0.367,0.32c0.162,0.201,0.514,0.225,1.053,0.074c0.426-0.123,0.646,0.037,0.658,0.471
				c0.012,0.363-0.09,0.852-0.303,1.465c-0.215,0.611-0.324,1.072-0.33,1.383c-0.004,0.217,0.021,0.436,0.072,0.652l-1.918,0.295
				c-0.178-0.365-0.311-0.98-0.398-1.844c-0.086-0.859-0.219-1.477-0.398-1.842c0.113-0.125,0.172-0.26,0.174-0.404
				c0.002-0.129-0.049-0.318-0.156-0.574c-0.105-0.258-0.168-0.447-0.184-0.576c-0.016-0.199-0.08-0.682-0.197-1.443
				c-0.082-0.617-0.121-1.102-0.115-1.443c0.004-0.184,0.018-0.346,0.037-0.492c0.002-0.125-0.07-0.312-0.211-0.561
				c-0.145-0.246-0.215-0.424-0.211-0.533c0-0.092,0.037-0.172,0.111-0.244c-0.127-0.146-0.178-0.4-0.152-0.762
				c0.025-0.365-0.027-0.619-0.152-0.766c-0.271,0.701-0.416,1.652-0.438,2.848c-0.01,1.668-0.027,2.631-0.051,2.883l0.191,0.17
				l-0.195,0.156c0.135,0.656,0.195,1.492,0.178,2.508c-0.051,1.83-0.074,2.682-0.072,2.559c-0.264,0.229-0.625,0.342-1.088,0.332
				c-0.572-0.008-0.963,0.041-1.166,0.145c-0.232-0.402-0.346-0.922-0.334-1.555c0.008-0.49,0.094-1.086,0.254-1.793
				c-0.252-0.459-0.369-1.094-0.355-1.91c0.004-0.201,0.027-0.58,0.074-1.143c0.027-0.451,0.033-0.787,0.02-1.004
				c0.184-0.088,0.279-0.186,0.281-0.295c0.002-0.072-0.057-0.197-0.174-0.371c-0.117-0.172-0.176-0.305-0.176-0.398
				c0.004-0.107,0.08-0.215,0.229-0.322l-0.598-8.797c0.357-0.23,0.932-0.338,1.727-0.324c0.867,0.033,1.461-0.014,1.775-0.131
				c0.059-0.039,0.121-0.055,0.197-0.055c0.074,0.002,0.16,0.045,0.26,0.127c0.102,0.082,0.17,0.125,0.207,0.125
				c0.072,0.002,0.139-0.053,0.197-0.16l0.518,0.5c0.174,0.639,0.338,1.873,0.492,3.705c0.156,1.582,0.402,2.775,0.74,3.58
				c0.455-1.607,0.828-2.953,1.123-4.035l0.602-4.307l4.299-0.092c0.016,0.234,0.068,1.498,0.186,2.225
				c0.098,0.635,0.145,1.154,0.137,1.553c-0.006,0.453-0.078,0.861-0.215,1.221c0.143,0.203,0.215,0.457,0.209,0.764
				C330.179,380.441,330.099,380.691,329.948,380.889z"/>
			<path d="M338.767,390.424v-0.027c-0.113,0.232-0.186,0.504-0.207,0.812c-0.021,0.199-0.027,0.479-0.016,0.842
				c0.012,0.416,0.016,0.707,0.014,0.871c-0.148-0.002-0.74-0.012-1.775-0.029c-0.627-0.01-1.191,0.043-1.693,0.162l-0.518-0.553
				c-0.152,0.143-0.207,0.26-0.174,0.35c-0.09-0.018-0.516-0.025-1.273-0.02c-0.592-0.01-1.035-0.074-1.326-0.186
				c-0.303,0.305-0.654,0.297-1.055-0.018c-0.146-0.109-0.162-0.297-0.047-0.559s0.082-0.455-0.1-0.586
				c0.027-0.58,0.109-1.477,0.24-2.691c0.131-1.084,0.199-1.936,0.209-2.553c0.014-0.834-0.043-1.633-0.178-2.396
				c0.207-0.195,0.438-0.291,0.697-0.287c0.297,0.002,0.646,0.146,1.047,0.426c0.564,0.387,0.859,0.586,0.877,0.586l0.162,0.191
				c0.02-0.055,0.117-0.344,0.291-0.865c0.1-0.342,0.242-0.566,0.43-0.674l0.164,0.166c0.074-0.033,0.316-0.203,0.73-0.504
				c0.314-0.215,0.574-0.717,0.76-0.711c0.203,0,0.393,0.115,0.576,0.336c0.311,0.166,0.506,0.818,0.604,1.154
				c0.096,0.338,0.188,0.67,0.275,1c-0.832,0.021-1.518,0-2.053-0.062c-0.131,0.197-0.318,0.227-0.557,0.086
				c-0.236-0.139-0.412-0.119-0.525,0.057c-0.006,0.328-0.018,0.92-0.031,1.77c-0.033,0.762-0.043,1.359-0.031,1.797
				c0.006,0.67,0.051,1.287,0.133,1.85c0.148,0.004,0.85,0.016,2.107,0.037C337.394,390.209,338.14,390.285,338.767,390.424z
				 M338.825,377.393c-0.166,0.016-0.35,0.021-0.555,0.018c-0.424-0.006-0.988-0.072-1.688-0.191
				c-0.867-0.123-1.393-0.195-1.578-0.217c-0.264,0.375-0.4,0.908-0.414,1.598c-0.025,1.488-0.025,2.131-0.006,1.932
				c0.258,0.148,0.381,0.426,0.373,0.822c-0.027,0.545-0.031,0.826-0.014,0.844c-0.129,0.051-0.199,0.232-0.203,0.541
				c-0.203-0.076-0.412-0.225-0.629-0.447c-0.293-0.277-0.447,0.662-0.426,0.428l-0.176,0.559l-0.162-0.166
				c-0.15,0.018-0.402-0.061-0.76-0.23c-0.359-0.17-0.607-0.324-0.754-0.475c0.006-0.289,0.055-0.451,0.148-0.486l-0.355-0.387
				l-0.168,0.242c-0.209-1.891-0.158-5.424,0.096-7.414c0.703,0.119,1.479,0.195,2.328,0.229c0.572,0.027,1.375,0.041,2.41,0.041
				c1.184,0,2.035,0.004,2.553,0.014c0.215,0.201,0.324,0.469,0.318,0.795c-0.002,0.199-0.061,0.521-0.17,0.963
				C338.886,376.846,338.829,377.174,338.825,377.393z"/>
		</g>
		<g>
			<path d="M307.669,406.871v-0.014c0,0.01-0.049,0.41-0.143,1.201c-0.049,0.484-0.168,0.865-0.357,1.145l-0.121-0.096
				c-0.225,0.461-0.529,0.742-0.918,0.842c-0.186,0.191-0.453,0.297-0.801,0.318c-0.207,0.012-0.686-0.049-1.436-0.178
				c-0.363-0.221-0.562-0.346-0.598-0.369c-0.229-0.166-0.336-0.338-0.324-0.512c-0.221-0.219-0.531-0.613-0.648-1.107
				c-0.141-0.545-0.227-0.574-0.357-0.768c-0.209,0.152-0.285-0.168-0.406-0.363l0.109-0.08c-0.068-0.049-0.105-0.104-0.109-0.164
				c0-0.043,0.02-0.105,0.057-0.191c0.039-0.084,0.059-0.146,0.055-0.189c-0.004-0.068-0.045-0.129-0.125-0.174
				c0.084-0.43,0.16-1.072,0.23-1.93c0.148-0.078,0.219-0.229,0.211-0.453c-0.008-0.223,0.025-0.371,0.096-0.443
				c0.352-0.695,0.926-1.162,1.721-1.406c0.043,0.006,0.256,0.002,0.639-0.01c0.262-0.008,0.461,0.016,0.594,0.068
				c0.238-0.041,0.477,0.018,0.715,0.166c0.205,0.154,0.412,0.305,0.615,0.459c0.387,0.408,0.594,0.873,0.625,1.389
				c0.01,0.17-0.002,0.354-0.033,0.543c-0.285-0.008-0.486,0.174-0.605,0.555l-1.109,0.102c-0.117-0.166-0.188-0.387-0.203-0.664
				c-0.006-0.094-0.004-0.232,0-0.412c0.004-0.184,0.006-0.32,0-0.414c-0.018-0.283-0.084-0.508-0.205-0.676l-0.332,0.188
				c-0.135-0.053-0.203-0.129-0.209-0.232c-0.002-0.035,0.002-0.086,0.016-0.15c0.012-0.066,0.018-0.111,0.016-0.137
				c-0.006-0.111-0.109-0.178-0.307-0.205c-0.135,1.225-0.176,2.484-0.121,3.775c0.035,0.041,0.141,0.068,0.314,0.086
				c0.145,0.018,0.219,0.061,0.221,0.129c0.002,0.027-0.004,0.061-0.025,0.105l-0.109,0.084c0.059,0.09,0.096,0.221,0.105,0.383
				c0.004,0.084,0.002,0.217-0.01,0.395s-0.016,0.311-0.01,0.395c0.016,0.258,0.08,0.455,0.199,0.586
				c-0.012,0.189,0.068,0.32,0.234,0.387c0.105-0.041,0.203-0.061,0.293-0.066c0.336-0.021,0.57,0.16,0.703,0.541
				c0,0.008-0.002,0.072-0.004,0.195c0.004,0.068,0.039,0.113,0.105,0.135c0.146-0.086,0.219-0.242,0.217-0.467
				c-0.002-0.256,0.031-0.424,0.102-0.496c-0.018-0.119-0.09-0.293-0.219-0.518c-0.129-0.227-0.193-0.402-0.203-0.533
				c-0.008-0.137,0.035-0.268,0.123-0.393c-0.076-0.023-0.111-0.072-0.105-0.152c0.004-0.121,0.006-0.186,0.006-0.193
				C306.435,406.738,307.05,406.734,307.669,406.871z"/>
			<path d="M312.687,407.881h-0.014c-0.066,0.123-0.086,0.303-0.064,0.533c0.031,0.328,0.049,0.496,0.049,0.504
				c-0.051,0.02-0.119-0.006-0.203-0.072c-0.129,0.047-0.191,0.127-0.184,0.238c0,0.016,0.008,0.045,0.02,0.084
				c0.002,0.047,0.006,0.078,0.006,0.096c0.006,0.086-0.021,0.152-0.08,0.197c-0.146-0.08-0.342-0.131-0.58-0.154
				c-0.242-0.021-0.471-0.043-0.684-0.062c-0.004-1.092-0.152-2.16-0.449-3.201c0,0.008-0.006-0.098-0.02-0.324
				c0.002-0.16-0.035-0.275-0.109-0.344l-0.102,0.09c-0.002-0.016,0.031-0.045,0.1-0.094s0.104-0.098,0.1-0.146
				c-0.004-0.023-0.01-0.047-0.021-0.068l-0.111-0.078c-0.188,0.059-0.275,0.209-0.262,0.445c0.01,0.16-0.057,0.273-0.193,0.338
				c0.055,0.037,0.08,0.086,0.082,0.141c0.004,0.031,0,0.076-0.014,0.135c-0.012,0.055-0.016,0.098-0.014,0.133
				c0.004,0.068,0.043,0.127,0.117,0.172c0.004,0.049,0.027,0.48,0.076,1.297c0.031,0.52,0.016,0.961-0.043,1.324l0.012,0.205
				c-0.072-0.004-0.154-0.002-0.244,0.002c-0.102,0.006-0.248,0.021-0.439,0.045c-0.189,0.023-0.334,0.035-0.424,0.041
				c-0.375,0.021-0.639-0.041-0.789-0.186l-0.158-4.48c-0.074-0.219-0.123-0.527-0.146-0.918l-0.051-0.865
				c-0.035-0.424-0.09-0.748-0.166-0.977c0.033-0.156,0.17-0.238,0.414-0.252c0.152-0.01,0.355,0.01,0.613,0.061
				c0.117-0.053,0.283-0.086,0.498-0.1c0.059-0.006,0.156-0.006,0.287-0.006c0.143-0.008,0.244-0.014,0.305-0.018
				c0.396-0.021,0.656-0.141,0.787-0.357c0.184-0.002,0.383,0.055,0.598,0.17c0.213,0.117,0.404,0.18,0.566,0.186
				c0.432,0.248,0.664,0.66,0.699,1.236c0.008,0.129-0.045,0.637-0.154,1.525l-0.74,0.633c0.125,0.225,0.277,0.717,0.453,1.479
				C312.157,407.119,312.382,407.584,312.687,407.881z M311.317,402.781l0.016,0.012c0.014,0.055,0.008-0.143-0.02-0.588
				c-0.012-0.217-0.094-0.371-0.242-0.469c-0.084,0.117,0.012,0.172-0.029,0.441c-0.037,0.271-0.201,0.197-0.297,0.314
				c-0.254,0-0.312,0.15-0.367-0.088c-0.113-0.387-0.211-0.354-0.213-0.359l-0.107,0.062c-0.039,0.033-0.084,0.072-0.131,0.117
				c-0.047,0.043-0.098,0.055-0.148,0.043c0.002,0.049-0.021,0.123-0.072,0.227c-0.049,0.104-0.072,0.174-0.07,0.215
				c0.006,0.072,0.062,0.125,0.178,0.16c-0.021,0.16-0.025,0.328-0.018,0.504c0.008,0.096,0.029,0.316,0.07,0.658
				c0.047,0.27,0.066,0.502,0.057,0.693c0.092,0.004,0.178,0.004,0.26,0c0.355-0.021,0.586-0.158,0.691-0.412
				c0.035-0.074,0.076-0.342,0.121-0.801C311.034,403.164,311.142,402.92,311.317,402.781z"/>
			<path d="M318.442,409.621c-0.145-0.041-0.299-0.057-0.461-0.047c-0.141,0.008-0.332,0.043-0.572,0.104
				c-0.273,0.064-0.457,0.104-0.557,0.117c-0.125-0.162-0.219-0.389-0.285-0.682c-0.119-0.428-0.189-0.668-0.211-0.723
				c0.029-0.049,0.041-0.09,0.039-0.123c-0.006-0.088-0.102-0.16-0.281-0.219c-0.182-0.057-0.273-0.107-0.275-0.146
				c-0.002-0.049,0.094-0.125,0.291-0.232c-0.055-0.047-0.096-0.141-0.131-0.289c-0.035-0.146-0.086-0.24-0.162-0.285
				c-0.117,0.096-0.312,0.166-0.59,0.211c-0.275,0.041-0.459,0.09-0.549,0.145c0.057,0.621,0,1.715-0.25,1.945
				c-0.143-0.016-0.244,0.033-0.311,0.152c-0.096,0.141-0.176,0.225-0.244,0.254l0.096,0.078c-0.08,0.062-0.209,0.092-0.391,0.096
				c-0.285,0.008-0.436,0.012-0.457,0.012l-0.104-0.213l0.428-7.203c-0.023-0.408-0.02-0.686,0.01-0.83
				c-0.041-0.359,0.049-0.59,0.266-0.691c0.146,0.064,0.324,0.09,0.537,0.078c0.172-0.01,0.441-0.055,0.801-0.141
				c0.361-0.086,0.613-0.131,0.754-0.141c0.496-0.027,0.736,0.24,0.719,0.803c-0.016,0.449,0.121,1.031,0.408,1.746
				c0.299,0.768,0.459,1.35,0.482,1.742c0.008,0.119,0.172,0.375,0.17,0.496c-0.211,0.107-0.48,0.182-0.812,0.225
				c-0.293,0.035-0.59,0.068-0.893,0.1c-0.127-0.602-0.416-1.334-0.541-1.932c-0.154-0.713-0.322-1.295-0.5-1.754l-0.193,3.455
				c-0.012,0.299,0.17,0.436,0.543,0.416c0.121-0.008,0.238-0.039,0.346-0.094c0.092-0.027,0.219,0.018,0.389,0.135
				c0.014,0.248,0.09,0.395,0.225,0.434c0.156-0.098,0.365-0.193,0.623-0.289c0.229-0.084,0.453-0.166,0.672-0.242
				c0.141,0.129,0.236,0.328,0.297,0.596c0.072,0.385,0.119,0.604,0.145,0.668c0.029,0.15,0.135,0.475,0.314,0.969
				c0.137,0.393,0.213,0.715,0.227,0.961C318.458,409.402,318.456,409.516,318.442,409.621z"/>
			<path d="M322.64,401.447h0.014c-0.121,0.176-0.275,0.209-0.467,0.1c-0.039-0.008-0.223,0.004-0.547,0.029
				c-0.273,0.016-0.471,0.002-0.598-0.039c-0.029,0.004-0.09,0.033-0.176,0.09c-0.09,0.059-0.152,0.086-0.193,0.088
				c-0.061,0.006-0.096-0.047-0.102-0.15c-0.002-0.014-0.006-0.084-0.012-0.203c-0.004-0.08-0.045-0.135-0.115-0.162l-0.191,0.145
				c-0.057,0.043-0.086,0.088-0.082,0.137c0.002,0.039,0.037,0.096,0.102,0.168s0.104,0.125,0.115,0.154
				c0.002,0.025,0.023,0.387,0.064,1.08c0.014,0.443,0.098,0.795,0.246,1.059c0.035-0.041,0.129-0.066,0.275-0.068
				c0.148-0.004,0.244-0.037,0.293-0.096c0.098,0.082,0.256,0.088,0.48,0.016c0.227-0.074,0.389-0.051,0.486,0.074l-0.029,1.061
				c-0.092-0.012-0.229-0.055-0.404-0.133c-0.053,0.154-0.152,0.254-0.303,0.293c-0.061,0.021-0.232,0.037-0.516,0.053
				c0.008-0.049-0.035-0.098-0.133-0.146c-0.273,0.127-0.379,0.434-0.311,0.92c0.008-0.051,0.018,0.035,0.031,0.25
				c0.008,0.135-0.021,0.234-0.088,0.295c-0.174,0.023-0.391-0.014-0.656-0.113c-0.264-0.102-0.453-0.15-0.564-0.143
				c-0.051,0.002-0.098,0.01-0.137,0.02l-0.285,0.088l-0.455-4.85l-0.053-0.924c0.377-0.123,0.846-0.203,1.404-0.234
				c0.436-0.025,1.004-0.021,1.709,0.01c0.043-0.09,0.127,0.027,0.23,0.023c0.049-0.004,0.125,0.002,0.229,0.016
				c0.102,0.014,0.18,0.02,0.23,0.018c0.059-0.004,0.115-0.016,0.164-0.033l0.072-0.078c0.207,0.061,0.314,0.168,0.324,0.318
				c0.004,0.064-0.018,0.176-0.059,0.33c-0.039,0.154-0.059,0.273-0.055,0.352C322.587,401.328,322.606,401.393,322.64,401.447z
				 M320.86,409.537c-0.107,0.057-0.275,0.088-0.498,0.102c-0.293,0.018-0.469,0.031-0.531,0.043
				c-0.031-0.031-0.068-0.006-0.135-0.26c-0.043-0.166-0.15-0.244-0.32-0.232c-0.041,0.002-0.09,0.008-0.15,0.018l-0.275,0.018
				l-0.145-2.455c0.148-0.07,0.334-0.113,0.557-0.127c0.213-0.012,0.402,0.01,0.566,0.062c-0.002,0.09,0.127,0.129,0.389,0.111
				l0.289-0.018C320.778,407.49,320.886,408.734,320.86,409.537z"/>
			<path d="M328.716,401.658l0.016,0.01c-0.143-0.008-0.602,0.023-0.955,0.066c-0.303,0.033-0.531,0.039-0.684,0.016
				c-0.146,0.096-0.201,0.229-0.16,0.393l0.094,0.055c-0.078,0.07-0.105,0.123-0.08,0.162l0.08,0.08
				c-0.02,1.422-0.023,2.209-0.012,2.359c0.02,0.377,0.064,0.707,0.133,0.992c-0.061,0.18-0.084,0.387-0.07,0.619
				c0.01,0.15,0.045,0.391,0.111,0.721s0.152,1.412,0.162,1.58c0.008,0.127,0.006,0.248-0.008,0.359
				c-0.141,0.059-0.291,0.09-0.453,0.1c-0.273,0.016-0.566-0.039-0.881-0.166c-0.035,0.033-0.08,0.07-0.129,0.109
				c-0.047,0.039-0.061,0.084-0.037,0.129c-0.1,0.029-0.24-0.01-0.42-0.121c-0.096-1.439-0.357-4.373-0.746-7.336
				c-0.137,0.121-0.389,0.02-0.65,0.053c-0.312,0.033-0.621-0.016-0.74,0.039c-0.152-0.158-0.117-0.207-0.133-0.469
				c-0.016-0.256-0.1-0.887-0.031-1.15c0.012-0.059,0.58-0.025,0.914-0.053c0.455-0.025,0.557,0.08,0.586,0.078
				c0.037-0.057,0.26-0.029,0.42-0.039c0.105,0.049,0.221-0.045,0.223,0.027c0.006,0.047,0,0.35-0.033,0.436
				c-0.037,0.088-0.053,0.152-0.051,0.191c0.006,0.096,0.076-0.045,0.24,0.01c0.184-0.004,0.371-0.01,0.564-0.021
				c0.215,0.02,0.461-0.055,0.441,0.123c0.037-0.053,0.061,0.037,0.369-0.084c0.227-0.104,0.367-0.365,0.322-0.543
				c-0.025-0.1,0.111-0.164,0.025-0.117c0.111-0.061,0.012-0.02,0.131-0.066c0.379,0.037,0.588-0.002,0.658-0.006
				c0.154-0.01,0.531,0.086,0.639,0.033c0.078,0.139,0.119,0.578,0.123,0.818C328.708,401.428,328.716,401.633,328.716,401.658z"/>
			<path d="M333.642,406.664l-0.002-0.012c-0.055,0.107-0.084,0.23-0.084,0.367c-0.008,0.086,0,0.211,0.02,0.373
				c0.023,0.182,0.035,0.309,0.039,0.383c-0.082,0.004-0.406,0.02-0.975,0.055c-0.342,0.02-0.65,0.064-0.92,0.137l-0.305-0.225
				c-0.076,0.07-0.104,0.123-0.08,0.162c-0.051-0.006-0.285,0.008-0.699,0.039c-0.326,0.02-0.568,0.008-0.734-0.029
				c-0.154,0.145-0.346,0.154-0.576,0.031c-0.084-0.041-0.1-0.123-0.045-0.244c0.053-0.119,0.027-0.203-0.078-0.254
				c-0.004-0.256,0.008-0.654,0.037-1.193c0.033-0.484,0.041-0.861,0.023-1.135c-0.021-0.367-0.084-0.717-0.182-1.049
				c0.105-0.094,0.229-0.143,0.371-0.15c0.16-0.012,0.357,0.039,0.59,0.145c0.322,0.15,0.49,0.227,0.5,0.227l0.096,0.076
				c0.008-0.021,0.051-0.154,0.129-0.393c0.041-0.154,0.111-0.258,0.211-0.311l0.094,0.064c0.041-0.016,0.17-0.1,0.383-0.248
				c0.166-0.107,0.281-0.498,0.383-0.502c0.109-0.006,0.221,0.035,0.328,0.125c0.176,0.062,0.314,0.5,0.379,0.645
				s0.127,0.287,0.188,0.428c-0.455,0.043-0.832,0.061-1.125,0.053c-0.066,0.094-0.168,0.113-0.303,0.061
				c-0.135-0.055-0.23-0.037-0.287,0.047c0.01,0.143,0.023,0.402,0.045,0.777c0.012,0.338,0.025,0.602,0.047,0.791
				c0.027,0.297,0.076,0.566,0.141,0.812c0.082-0.006,0.469-0.027,1.156-0.064C332.88,406.625,333.292,406.629,333.642,406.664z
				 M333.169,401.021c-0.09,0.012-0.193,0.023-0.305,0.027c-0.23,0.014-0.539,0.008-0.93-0.02c-0.479-0.02-0.77-0.031-0.873-0.035
				c-0.129,0.178-0.148,0.32-0.129,0.625c0.039,0.654,0.061,0.938,0.066,0.85c0.145,0.057,0.225,0.174,0.232,0.35
				c0.006,0.24,0.012,0.361,0.023,0.371c-0.07,0.025-0.1,0.109-0.094,0.246c-0.113-0.027-0.232-0.084-0.361-0.172
				c-0.17-0.111-0.223,0.281-0.219,0.178l-0.076,0.244l-0.096-0.068c-0.08,0.012-0.221-0.012-0.422-0.072s-0.348-0.121-0.43-0.18
				c-0.006-0.127,0.012-0.201,0.061-0.221l-0.207-0.158l-0.082,0.115c-0.182-0.826-0.303-2.279-0.232-3.166
				c0.387,0.027,0.84-0.037,1.305-0.057c0.314-0.01,0.756-0.033,1.324-0.074c0.646-0.045,1.111-0.076,1.395-0.094
				c0.127,0.082,0.197,0.195,0.203,0.338c0.008,0.09-0.012,0.232-0.057,0.432C333.22,400.68,333.165,400.922,333.169,401.021z"/>
			<path d="M338.694,405.812l-0.014,0.002c-0.062,0.123-0.084,0.301-0.061,0.531c0.031,0.328,0.045,0.496,0.047,0.504
				c-0.051,0.02-0.119-0.004-0.205-0.072c-0.129,0.047-0.189,0.127-0.184,0.24c0.002,0.016,0.008,0.041,0.02,0.082
				c0.004,0.047,0.006,0.078,0.008,0.096c0.004,0.088-0.023,0.154-0.082,0.197c-0.146-0.08-0.34-0.131-0.58-0.154
				c-0.24-0.021-0.467-0.045-0.682-0.064c-0.004-1.09-0.154-2.156-0.447-3.199c0,0.008-0.008-0.1-0.02-0.324
				c0-0.16-0.037-0.273-0.113-0.342l-0.1,0.09c0-0.016,0.029-0.047,0.1-0.096c0.066-0.047,0.102-0.096,0.1-0.145
				c-0.004-0.023-0.01-0.047-0.021-0.072l-0.111-0.078c-0.189,0.061-0.277,0.207-0.262,0.449c0.008,0.16-0.057,0.273-0.195,0.336
				c0.053,0.037,0.082,0.084,0.086,0.139c0.002,0.033-0.004,0.078-0.016,0.133c-0.012,0.057-0.018,0.102-0.016,0.135
				c0.004,0.07,0.043,0.131,0.115,0.174c0.004,0.049,0.029,0.48,0.078,1.297c0.031,0.52,0.018,0.963-0.043,1.326l0.014,0.203
				c-0.07-0.004-0.154-0.004-0.246,0.004c-0.1,0.006-0.248,0.018-0.439,0.041s-0.33,0.039-0.424,0.043
				c-0.373,0.021-0.637-0.039-0.787-0.184l-0.16-4.48c-0.074-0.221-0.123-0.527-0.146-0.92l-0.051-0.863
				c-0.035-0.424-0.088-0.75-0.164-0.979c0.031-0.154,0.17-0.238,0.412-0.252c0.154-0.01,0.355,0.012,0.613,0.062
				c0.121-0.057,0.285-0.09,0.498-0.102c0.061-0.004,0.156-0.006,0.287-0.006c0.143-0.006,0.246-0.014,0.307-0.018
				c0.395-0.02,0.658-0.141,0.787-0.355c0.182-0.002,0.383,0.053,0.596,0.168c0.215,0.119,0.404,0.18,0.57,0.186
				c0.43,0.248,0.664,0.66,0.695,1.238c0.008,0.129-0.043,0.637-0.152,1.525l-0.742,0.631c0.127,0.227,0.277,0.719,0.455,1.479
				C338.167,405.053,338.396,405.516,338.694,405.812z M337.325,400.715l0.018,0.01c0.014,0.055,0.006-0.141-0.02-0.586
				c-0.014-0.219-0.094-0.373-0.242-0.469c-0.082,0.115-0.1-0.156-0.139,0.115c-0.041,0.271-0.107,0.465-0.201,0.584
				c-0.254-0.002-0.314-0.15-0.465-0.359c-0.096-0.133-0.141-0.018-0.141-0.025l-0.07,0.055c-0.037,0.035-0.08,0.072-0.129,0.117
				c-0.049,0.043-0.1,0.057-0.15,0.043c0.004,0.047-0.021,0.125-0.07,0.227s-0.074,0.174-0.072,0.215
				c0.006,0.072,0.064,0.123,0.18,0.16c-0.021,0.16-0.027,0.328-0.018,0.506c0.008,0.096,0.027,0.314,0.07,0.658
				c0.045,0.27,0.064,0.502,0.057,0.695c0.092,0.002,0.178,0,0.258-0.004c0.354-0.02,0.586-0.158,0.693-0.412
				c0.033-0.074,0.076-0.342,0.121-0.801C337.044,401.094,337.153,400.852,337.325,400.715z"/>
		</g>
		<g>
			<path d="M288.304,385.145v0.012c-0.045,0.416-0.061,0.703-0.043,0.859c-0.066,0.027-0.152,0.031-0.256,0.014
				c-0.135-0.021-0.213-0.031-0.234-0.031c-0.061,0.004-0.105,0.023-0.141,0.061c-0.086-0.053-0.143-0.074-0.172-0.066
				c-0.078,0.047-0.115,0.113-0.111,0.201c0.002,0.037,0.016,0.1,0.045,0.188c0.025,0.092,0.039,0.156,0.041,0.199
				c0.002,0.059-0.008,0.148-0.035,0.275c-0.025,0.123-0.037,0.225-0.035,0.307c0.006,0.094,0.025,0.242,0.064,0.443
				c0.035,0.201,0.055,0.354,0.061,0.453c-0.043,0.197-0.059,0.398-0.049,0.602c0.014,0.246,0.084,0.576,0.209,0.992
				c0.021,0.006,0.043,0.01,0.066,0.006c0.051-0.002,0.113-0.037,0.184-0.107c0.07-0.066,0.131-0.102,0.184-0.104
				c0.037-0.004,0.076,0.004,0.121,0.023c0.135,0.422,0.203,0.695,0.209,0.818c0.004,0.059,0.002,0.121,0,0.184
				c-0.199,0.049-0.338-0.018-0.422-0.195c0.012-0.051-0.018-0.105-0.084-0.16l-0.223,0.23c0.217,0.031,0.301,0.193,0.258,0.486
				c-0.02,0.061-0.064,0.092-0.141,0.094c-0.127-0.002-0.184-0.002-0.176-0.002l-0.184-0.318l-0.072,0.092
				c-0.061-0.15-0.131-0.221-0.211-0.217c-0.045,0.004-0.123,0.039-0.232,0.107c-0.113,0.072-0.205,0.109-0.277,0.111
				c-0.061,0.006-0.119-0.01-0.18-0.043c-0.006-0.088-0.016-0.176-0.031-0.271c-0.016-0.094-0.066-0.152-0.148-0.178
				c-0.004-0.227,0.004-0.816,0.02-1.777c0.008-0.725,0-1.314-0.023-1.762c-0.01-0.189-0.023-0.373-0.041-0.553
				c-0.037-0.057-0.076-0.084-0.113-0.08c-0.029,0-0.076,0.031-0.135,0.092s-0.111,0.09-0.156,0.084
				c-0.004-0.072-0.037-0.189-0.1-0.348c-0.064-0.16-0.098-0.275-0.104-0.35c-0.006-0.123,0.041-0.23,0.139-0.322l0.26,0.062
				c0.104-0.143,0.146-0.383,0.129-0.725c-0.002-0.064-0.012-0.17-0.025-0.309c-0.018-0.141-0.025-0.242-0.029-0.309
				c-0.027-0.559,0.146-0.846,0.523-0.865c0.139-0.008,0.311,0.018,0.514,0.074l0.248,0.062c0.02,0.094,0.031,0.189,0.035,0.293
				c0.006,0.139,0.002,0.338-0.018,0.605c-0.02,0.266-0.025,0.461-0.02,0.582c0.01,0.197,0.041,0.373,0.104,0.529
				c0.059-0.002,0.152-0.035,0.279-0.094c0.127-0.062,0.217-0.094,0.277-0.096C288.153,384.998,288.239,385.045,288.304,385.145z
				 M287.532,385.922l-0.012-0.248l-0.082-0.074L287.532,385.922z"/>
			<path d="M291.347,384.361h0.012c-0.027,0.197-0.057,0.395-0.092,0.592c-0.039,0.227-0.105,0.404-0.195,0.533
				c-0.014-0.008-0.105-0.047-0.271-0.129c-0.115-0.059-0.217-0.082-0.303-0.072c-0.068,0.426-0.104,1.004-0.111,1.738
				c-0.004,0.936-0.012,1.502-0.023,1.697c-0.111-0.006-0.193,0.027-0.25,0.107c-0.055,0.078-0.105,0.158-0.154,0.242
				c-0.02,0.043-0.027,0.084-0.027,0.119c0.004,0.059,0.055,0.115,0.152,0.166c0.1,0.055,0.15,0.113,0.154,0.178
				c-0.043,0.156-0.139,0.236-0.277,0.244c-0.064,0.002-0.182-0.018-0.348-0.059c-0.162-0.043-0.277-0.064-0.346-0.061l-0.16-3.105
				c0.062-0.082,0.09-0.139,0.082-0.166l-0.092-0.061c0.006-0.131,0.014-0.783,0.02-1.951c0.006-0.793,0.035-1.432,0.092-1.922
				c-0.006,0,0.221-0.014,0.686-0.045c0.287-0.014,0.475,0.064,0.557,0.234c0,0.16-0.016,0.428-0.049,0.807
				c-0.033,0.352-0.047,0.621-0.037,0.809c0.014,0.232,0.051,0.439,0.111,0.625C290.726,384.553,291.017,384.379,291.347,384.361z
				 M292.448,385.025c0.02,0.289,0.037,0.572,0.053,0.848c0.062,1.203,0.043,2.488-0.057,3.857c-0.105,0.094-0.27,0.113-0.492,0.061
				c-0.219-0.051-0.379-0.029-0.479,0.062c-0.127-0.16-0.201-0.449-0.221-0.871c-0.033-0.607-0.049-0.922-0.049-0.943
				c-0.027-1.523,0.125-2.754,0.453-3.693C292.04,384.443,292.302,384.67,292.448,385.025z"/>
			<path d="M296.331,386.604c-0.047,0.098-0.066,0.199-0.061,0.307c0.004,0.109,0.01,0.215,0.016,0.316
				c-0.012,0.088-0.035,0.174-0.076,0.268c-0.066-0.021-0.123-0.029-0.168-0.027c-0.051,0.002-0.104,0.021-0.156,0.057
				c-0.055,0.037-0.096,0.055-0.125,0.055c-0.047,0.004-0.105-0.014-0.182-0.045l-0.514-0.736c0.02,0.217,0.068,0.406,0.15,0.57
				c0.041,0.084,0.084,0.17,0.123,0.252c-0.299,0.055-0.471,0.064-0.508,0.027l-0.072,0.092l-0.178-0.23
				c-0.141,0.166-0.174,0.41-0.096,0.734c0.092,0.35,0.096,0.604,0.016,0.76c0.111,0.162,0.244,0.238,0.4,0.23
				c0.066-0.004,0.123-0.025,0.174-0.072c0.072-0.18,0.145-0.357,0.217-0.535c0.107-0.215,0.229-0.326,0.359-0.334
				c0.104-0.004,0.225,0.049,0.365,0.158c0.164,0.057,0.25,0.133,0.256,0.227c0.002,0.059-0.035,0.154-0.113,0.281
				c-0.08,0.133-0.117,0.234-0.113,0.307c0.002,0.027,0.006,0.053,0.014,0.076c-0.105,0.076-0.201,0.193-0.285,0.35
				c-0.086,0.158-0.197,0.266-0.334,0.324c-0.119,0.113-0.23,0.174-0.336,0.178c-0.08,0.004-0.201-0.057-0.363-0.184
				c-0.16-0.127-0.312-0.184-0.453-0.18c-0.057-0.125-0.201-0.27-0.432-0.424c-0.229-0.154-0.373-0.324-0.426-0.502
				c0,0.016-0.002-0.043-0.008-0.172c-0.006-0.074-0.035-0.121-0.096-0.139l0.084-0.08c-0.113-0.002-0.17-0.062-0.176-0.188
				c-0.002-0.014-0.002-0.043-0.006-0.088c0.006-0.035,0.008-0.064,0.008-0.088c-0.004-0.086-0.035-0.145-0.086-0.18l-0.02-0.379
				c-0.012-0.195-0.051-0.336-0.125-0.42c0.074-0.459,0.148-0.922,0.219-1.381c0.121-0.535,0.301-0.811,0.535-0.822
				c0.039,0,0.074,0.004,0.111,0.014c0.215-0.203,0.469-0.314,0.771-0.33c0.332-0.016,0.699,0.084,1.104,0.295
				C296.062,385.451,296.257,386.006,296.331,386.604z M294.806,385.404l-0.074,0.092c-0.051,0.008-0.113-0.018-0.18-0.078
				l0.012,0.248c-0.113,0.123-0.158,0.311-0.139,0.564c0.023,0.434,0.033,0.643,0.033,0.629l0.332-0.004
				c0.158-0.09,0.232-0.234,0.221-0.438c-0.004-0.102-0.039-0.268-0.107-0.5C294.837,385.686,294.804,385.516,294.806,385.404z"/>
		</g>
		<g>
			<polygon fill-rule="evenodd" clip-rule="evenodd" points="298.931,397.561 299.263,397.748 300.38,394.867 300.007,394.744 
				298.89,397.627 299.214,397.83 298.931,397.561 298.931,397.561 			"/>
			<polygon fill-rule="evenodd" clip-rule="evenodd" points="299.421,397.162 299.286,397.215 298.931,397.561 299.214,397.83 
				299.575,397.465 299.433,397.535 299.421,397.162 299.421,397.162 			"/>
			<polygon fill-rule="evenodd" clip-rule="evenodd" points="302.128,397.141 302.288,397.018 299.421,397.162 299.433,397.535 
				302.3,397.391 302.483,397.256 302.128,397.141 302.128,397.141 302.128,397.141 			"/>
			<polygon fill-rule="evenodd" clip-rule="evenodd" points="303.423,394.492 303.228,394.254 302.128,397.141 302.483,397.256 
				303.601,394.375 303.407,394.137 303.423,394.492 303.423,394.492 303.423,394.492 			"/>
			<polygon fill-rule="evenodd" clip-rule="evenodd" points="300.692,394.584 300.55,394.652 303.423,394.492 303.407,394.137 
				300.546,394.264 300.403,394.334 300.692,394.584 300.692,394.584 300.692,394.584 			"/>
			<polygon fill-rule="evenodd" clip-rule="evenodd" points="300.38,394.867 300.339,394.93 300.692,394.584 300.403,394.334 
				300.048,394.682 300.007,394.744 300.38,394.867 300.38,394.867 300.38,394.867 			"/>
			<polygon fill-rule="evenodd" clip-rule="evenodd" points="302.761,397.482 303.015,397.371 302.401,397.037 302.206,397.379 
				302.839,397.719 303.116,397.6 302.743,397.477 302.743,397.477 302.761,397.482 			"/>
			<polygon fill-rule="evenodd" clip-rule="evenodd" points="303.96,394.822 303.86,394.596 302.743,397.477 303.116,397.6 
				304.231,394.717 304.132,394.492 303.96,394.822 303.96,394.822 			"/>
			<polygon fill-rule="evenodd" clip-rule="evenodd" points="303.601,394.375 303.323,394.496 303.96,394.822 304.132,394.492 
				303.519,394.156 303.228,394.254 303.601,394.375 303.601,394.375 			"/>
			<polygon points="300.202,394.811 300.185,394.803 300.54,394.455 303.2,394.328 303.228,394.254 303.423,394.316 
				303.601,394.375 303.589,394.406 304.056,394.658 304.231,394.717 304.161,394.904 305.462,397.941 304.36,400.828 
				302.938,397.541 302.938,397.541 302.755,397.615 302.743,397.477 302.757,397.441 302.308,397.199 302.206,397.379 
				302.149,397.207 299.421,397.336 299.065,397.684 			"/>
			<polygon fill-rule="evenodd" clip-rule="evenodd" points="304.185,400.77 304.544,400.752 303.12,397.465 302.755,397.615 
				304.179,400.904 304.54,400.887 304.167,400.764 304.167,400.764 304.185,400.77 			"/>
			<polygon fill-rule="evenodd" clip-rule="evenodd" points="305.296,398.023 305.284,397.883 304.167,400.764 304.54,400.887 
				305.657,398.006 305.646,397.867 305.296,398.023 305.296,398.023 			"/>
			<polygon fill-rule="evenodd" clip-rule="evenodd" points="304.231,394.717 303.872,394.734 305.296,398.023 305.646,397.867 
				304.222,394.578 303.86,394.596 304.231,394.717 304.231,394.717 			"/>
			<polygon fill-rule="evenodd" clip-rule="evenodd" fill="#FFFFFF" points="304.14,395.461 304.298,395.803 304.356,396.148 
				304.339,396.49 304.237,396.846 304.062,397.193 303.819,397.502 303.505,397.783 303.126,398.029 302.921,398.115 
				302.714,398.201 302.483,398.242 302.271,398.289 302.063,398.316 301.839,398.34 301.632,398.312 301.419,398.301 
				301.235,398.26 301.042,398.193 300.851,398.113 300.687,398.021 300.546,397.918 300.384,397.807 300.255,397.668 
				300.149,397.516 299.987,397.176 299.929,396.826 299.929,396.479 300.05,396.131 300.202,395.793 300.45,395.471 
				300.765,395.186 301.159,394.949 301.349,394.855 301.573,394.773 301.786,394.729 301.999,394.684 302.224,394.658 
				302.429,394.631 302.638,394.658 302.851,394.672 303.044,394.732 303.239,394.797 303.417,394.855 303.599,394.955 
				303.747,395.043 303.901,395.168 304.009,395.32 304.14,395.461 304.14,395.461 304.14,395.461 			"/>
			<polygon fill-rule="evenodd" clip-rule="evenodd" points="304.278,396.029 304.438,396.371 304.491,396.736 304.476,397.078 
				304.38,397.414 304.22,397.768 303.954,398.086 303.665,398.359 303.269,398.596 303.056,398.699 302.851,398.785 
				302.636,398.832 302.407,398.875 302.2,398.902 301.999,398.916 301.786,398.902 301.56,398.869 301.378,398.826 
				301.183,398.764 301.011,398.688 300.829,398.59 300.681,398.502 300.544,398.381 300.409,398.258 300.29,398.086 
				300.124,397.76 300.067,397.412 300.089,397.051 300.185,396.717 300.345,396.363 300.587,396.055 300.899,395.77 
				301.296,395.535 301.509,395.43 301.71,395.359 301.927,395.295 302.159,395.258 302.358,395.244 302.565,395.217 
				302.772,395.244 302.985,395.258 303.187,395.303 303.382,395.365 303.554,395.441 303.741,395.525 303.884,395.627 
				304.044,395.736 304.149,395.889 304.274,396.045 304.274,396.045 304.278,396.029 			"/>
			<polygon fill-rule="evenodd" clip-rule="evenodd" fill="#FFFFFF" points="304.38,396.428 304.548,396.754 304.599,397.117 
				304.579,397.463 304.487,397.795 304.31,398.145 304.06,398.467 303.771,398.74 303.376,398.977 303.181,399.088 302.956,399.17 
				302.743,399.215 302.513,399.256 302.306,399.287 302.104,399.297 301.89,399.287 301.667,399.25 301.483,399.209 
				301.288,399.146 301.118,399.07 300.935,398.973 300.788,398.885 300.632,398.758 300.521,398.623 300.396,398.467 
				300.231,398.145 300.171,397.793 300.188,397.453 300.29,397.1 300.45,396.746 300.698,396.422 301.022,396.16 301.401,395.916 
				301.614,395.812 301.821,395.725 302.036,395.68 302.265,395.639 302.472,395.611 302.673,395.598 302.903,395.615 
				303.093,395.639 303.294,395.688 303.487,395.75 303.677,395.83 303.843,395.924 303.989,396.012 304.149,396.119 
				304.255,396.271 304.38,396.428 304.38,396.428 			"/>
			<polygon fill-rule="evenodd" clip-rule="evenodd" points="304.522,396.996 304.681,397.338 304.741,397.688 304.741,398.033 
				304.622,398.381 304.468,398.717 304.202,399.035 303.907,399.328 303.511,399.564 303.321,399.656 303.097,399.738 
				302.884,399.785 302.673,399.828 302.446,399.854 302.241,399.881 302.034,399.854 301.821,399.842 301.62,399.797 
				301.425,399.73 301.253,399.656 301.071,399.559 300.929,399.453 300.788,399.35 300.657,399.209 300.532,399.053 
				300.39,398.717 300.313,398.363 300.333,398.021 300.433,397.668 300.603,397.336 300.851,397.012 301.165,396.729 
				301.544,396.486 301.751,396.398 301.958,396.311 302.188,396.271 302.401,396.223 302.608,396.195 302.827,396.189 
				303.038,396.201 303.235,396.207 303.437,396.254 303.63,396.318 303.819,396.398 303.983,396.49 304.146,396.602 
				304.286,396.707 304.417,396.846 304.515,397.014 304.515,397.014 304.522,396.996 			"/>
			<polygon fill-rule="evenodd" clip-rule="evenodd" fill="#FFFFFF" points="304.729,397.371 304.896,397.699 304.952,398.045 
				304.946,398.41 304.853,398.746 304.675,399.096 304.409,399.414 304.12,399.686 303.741,399.93 303.528,400.033 
				303.304,400.115 303.091,400.162 302.878,400.205 302.653,400.23 302.454,400.242 302.241,400.23 302.034,400.201 
				301.833,400.156 301.638,400.092 301.466,400.016 301.296,399.941 301.134,399.828 300.999,399.707 300.87,399.568 
				300.763,399.42 300.597,399.094 300.526,398.723 300.544,398.381 300.657,398.049 300.817,397.697 301.063,397.371 
				301.372,397.105 301.751,396.863 301.962,396.758 302.169,396.67 302.396,396.648 302.612,396.584 302.819,396.555 
				303.038,396.549 303.251,396.562 303.44,396.584 303.642,396.631 303.854,396.701 304.024,396.775 304.196,396.852 
				304.356,396.961 304.491,397.084 304.624,397.223 304.729,397.371 304.729,397.371 			"/>
			<polygon fill-rule="evenodd" clip-rule="evenodd" points="304.89,397.947 305.03,398.283 305.108,398.637 305.089,398.979 
				304.987,399.332 304.817,399.664 304.567,399.988 304.255,400.273 303.876,400.516 303.671,400.602 303.444,400.684 
				303.235,400.729 303.021,400.775 302.813,400.805 302.589,400.826 302.382,400.801 302.169,400.787 301.987,400.746 
				301.774,400.676 301.601,400.6 301.437,400.51 301.276,400.398 301.134,400.293 301.005,400.154 300.897,400.004 
				300.739,399.662 300.663,399.309 300.681,398.965 300.8,398.617 300.952,398.281 301.2,397.957 301.515,397.672 301.911,397.436 
				302.099,397.344 302.323,397.262 302.536,397.215 302.749,397.172 302.976,397.145 303.181,397.117 303.388,397.145 
				303.583,397.152 303.802,397.205 303.995,397.27 304.169,397.346 304.333,397.436 304.491,397.547 304.634,397.65 
				304.763,397.791 304.89,397.947 304.89,397.947 304.89,397.947 			"/>
			<polygon fill-rule="evenodd" clip-rule="evenodd" points="285.351,393.521 285.368,393.412 284.243,396.311 284.599,396.426 
				285.724,393.527 285.728,393.453 285.351,393.521 285.351,393.521 285.351,393.521 			"/>
			<polygon fill-rule="evenodd" clip-rule="evenodd" points="285.319,393.375 285.325,393.359 285.351,393.521 285.728,393.453 
				285.687,393.283 285.694,393.268 285.319,393.375 285.319,393.375 285.319,393.375 			"/>
			<polygon fill-rule="evenodd" clip-rule="evenodd" points="285.278,393.209 285.319,393.375 285.694,393.268 285.651,393.098 
				285.278,393.209 285.278,393.209 285.278,393.209 			"/>
			<polygon fill-rule="evenodd" clip-rule="evenodd" points="285.231,393.059 285.278,393.209 285.651,393.098 285.604,392.947 
				285.231,393.059 285.231,393.059 			"/>
			<polygon fill-rule="evenodd" clip-rule="evenodd" points="285.19,392.889 285.19,392.889 285.231,393.059 285.604,392.947 
				285.562,392.781 285.558,392.799 285.19,392.889 285.19,392.889 285.19,392.889 			"/>
			<polygon fill-rule="evenodd" clip-rule="evenodd" points="285.144,392.682 285.144,392.74 285.19,392.889 285.558,392.799 
				285.511,392.646 285.528,392.709 285.144,392.682 285.144,392.682 			"/>
			<polygon fill-rule="evenodd" clip-rule="evenodd" points="285.521,392.611 285.149,392.547 285.144,392.682 285.528,392.709 
				285.532,392.578 285.161,392.512 285.515,392.629 285.515,392.629 285.521,392.611 			"/>
			<polygon fill-rule="evenodd" clip-rule="evenodd" fill="#4C4849" points="285.845,401.047 285.808,400.861 285.413,400.926 
				285.442,401.129 285.845,401.047 285.845,401.047 285.845,401.047 			"/>
			<polygon fill-rule="evenodd" clip-rule="evenodd" points="286.667,398.631 286.679,398.537 285.56,401.42 285.915,401.535 
				287.032,398.652 287.026,398.555 286.667,398.631 286.667,398.631 286.667,398.631 			"/>
			<polygon fill-rule="evenodd" clip-rule="evenodd" points="286.638,398.426 286.667,398.631 287.026,398.555 286.997,398.354 
				286.62,398.422 286.62,398.422 286.638,398.426 			"/>
			<polygon fill-rule="evenodd" clip-rule="evenodd" points="286.585,398.238 286.62,398.422 286.997,398.354 286.946,398.162 
				286.585,398.238 286.585,398.238 286.585,398.238 			"/>
			<polygon fill-rule="evenodd" clip-rule="evenodd" points="286.538,398.029 286.55,398.049 286.585,398.238 286.946,398.162 
				286.915,397.957 286.927,397.982 286.538,398.029 286.538,398.029 286.538,398.029 			"/>
			<polygon fill-rule="evenodd" clip-rule="evenodd" points="286.892,397.854 286.513,397.807 286.538,398.029 286.927,397.982 
				286.897,397.781 286.519,397.732 286.892,397.854 286.892,397.854 			"/>
			<g>
				<polygon fill="#4C4849" points="284.245,395.734 284.067,395.789 284.245,395.734 				"/>
				<polygon fill="#4C4849" points="284.433,396.338 284.438,396.324 284.532,396.33 284.599,396.426 284.433,396.373 				"/>
				<polygon points="284.024,395.621 284.216,395.584 284.222,395.451 285.345,392.557 285.339,392.57 285.339,392.688 
					285.368,392.834 285.427,393.008 285.476,393.158 285.515,393.324 285.544,393.471 285.544,393.471 285.724,393.527 
					284.599,396.426 284.532,396.33 284.438,396.324 284.433,396.338 284.433,396.373 284.599,396.426 284.435,396.416 
					284.438,396.549 284.325,396.41 284.233,396.402 284.208,396.24 284.276,396.227 284.349,396.041 284.161,396.092 
					284.106,395.957 284.067,395.789 284.245,395.734 284.245,395.734 284.067,395.789 284.071,395.77 				"/>
			</g>
			<g>
				<polygon fill="none" points="293.175,396.412 293.175,396.412 293.335,396.059 				"/>
				<polygon points="284.427,396.178 292.655,395.912 292.866,395.924 292.903,395.938 293.103,395.984 293.122,395.99 
					293.335,396.059 293.542,396.146 293.558,396.15 293.755,396.273 293.79,396.283 293.942,396.412 293.991,396.447 
					294.103,396.58 294.114,396.604 294.19,396.725 294.196,396.766 293.835,396.873 293.776,396.785 293.772,396.801 
					293.677,396.674 293.679,396.674 293.552,396.574 293.583,396.604 293.382,396.5 293.382,396.498 293.175,396.412 
					293.175,396.412 292.997,396.354 292.796,396.309 292.833,396.32 292.642,396.295 292.642,396.279 284.438,396.549 				"/>
				<polygon points="293.825,396.877 293.835,396.873 293.854,396.904 				"/>
			</g>
			<polygon fill-rule="evenodd" clip-rule="evenodd" points="298.22,403.65 298.22,403.535 297.097,406.434 297.47,406.555 
				298.593,403.656 298.593,403.543 298.22,403.65 298.22,403.65 298.22,403.65 			"/>
			<polygon fill-rule="evenodd" clip-rule="evenodd" points="294.974,394.021 294.948,393.979 298.22,403.65 298.593,403.543 
				295.321,393.867 295.313,393.828 294.974,394.021 294.974,394.021 294.974,394.021 			"/>
			<polygon fill-rule="evenodd" clip-rule="evenodd" points="294.905,393.928 294.896,393.904 294.974,394.021 295.313,393.828 
				295.239,393.705 295.22,393.697 294.888,393.92 294.888,393.92 294.905,393.928 			"/>
			<polygon fill-rule="evenodd" clip-rule="evenodd" points="294.831,393.803 294.8,393.775 294.888,393.92 295.22,393.697 
				295.095,393.545 295.067,393.514 294.831,393.803 294.831,393.803 294.831,393.803 			"/>
			<polygon fill-rule="evenodd" clip-rule="evenodd" points="294.7,393.723 294.671,393.693 294.831,393.803 295.067,393.514 
				294.905,393.404 294.878,393.375 294.7,393.723 294.7,393.723 			"/>
			<polygon fill-rule="evenodd" clip-rule="evenodd" points="294.522,393.605 294.505,393.602 294.7,393.723 294.878,393.375 
				294.677,393.27 294.659,393.266 294.522,393.605 294.522,393.605 			"/>
			<polygon fill-rule="evenodd" clip-rule="evenodd" points="294.335,393.525 294.292,393.529 294.522,393.605 294.659,393.266 
				294.452,393.178 294.435,393.172 294.312,393.537 294.312,393.537 294.335,393.525 			"/>
			<polygon fill-rule="evenodd" clip-rule="evenodd" points="294.122,393.457 294.099,393.467 294.312,393.537 294.435,393.172 
				294.222,393.104 294.222,393.104 294.114,393.473 294.114,393.473 294.122,393.457 			"/>
			<polygon fill-rule="evenodd" clip-rule="evenodd" points="293.956,393.42 293.919,393.41 294.114,393.473 294.222,393.104 
				294.003,393.051 293.985,393.045 293.956,393.42 293.956,393.42 293.956,393.42 			"/>
			<polygon fill-rule="evenodd" clip-rule="evenodd" points="293.767,393.398 293.761,393.412 293.956,393.42 293.985,393.045 
				293.778,393.014 293.755,393.027 293.767,393.398 293.767,393.398 			"/>
			<polygon fill-rule="evenodd" clip-rule="evenodd" points="285.741,393.533 285.538,393.66 293.767,393.398 293.755,393.027 
				285.544,393.297 285.368,393.412 285.724,393.527 285.724,393.527 285.741,393.533 			"/>
			<polygon fill="#4C4849" points="287.806,402.348 287.778,402.332 287.796,402.324 			"/>
			<g>
				<polygon fill="#4C4849" points="292.249,403.65 292.218,404.043 292.249,403.65 				"/>
				<g>
					<polygon fill="none" points="292.233,403.838 292.218,404.043 292.233,403.838 					"/>
					<g>
						<polygon fill="none" points="285.567,400.701 285.579,400.67 285.587,400.707 						"/>
						<path d="M285.442,401.129l0.035,0.186l0.072,0.199l0.088,0.145l0.502,0.26l0.502,0.26l0.484,0.258l0.492,0.236l0.018,0.006
							l0.496,0.219l0.496,0.225l0.537,0.213l0.545,0.197l0.018,0.006l0.578,0.15l0.58,0.15l0.018,0.006l0.639,0.094l0.656,0.1
							l0.02,0.006l0.713,0.039l0.023-0.012l0.762,0.02l0.816-0.025l0.863-0.045l0.178-0.115l1.117-2.881l-0.189-0.256l0.012,0.371
							l-0.059-0.072l0.043-0.109l-0.125,0.01l-0.053-0.066l-0.029,0.072l-0.641,0.037h-0.826l-0.764-0.016l-0.697-0.037
							l-0.678-0.086l-0.633-0.109l-0.58-0.152l-0.58-0.15l-0.543-0.197l-0.527-0.193l-0.494-0.219l-0.49-0.238l-0.51-0.244
							l-0.484-0.256l-0.484-0.254l-0.336-0.176l0.01-0.029l-0.176-0.057l0,0l-0.047-0.207l-0.037-0.188l-0.014-0.062l0.133-0.285
							l-0.186-0.061l-0.01-0.004l0,0l-0.178-0.057l-1.117,2.881l-0.012,0.094l0.029,0.201L285.442,401.129z M285.579,400.67
							l0.008,0.037l-0.02-0.006L285.579,400.67z"/>
					</g>
				</g>
			</g>
			<polygon fill-rule="evenodd" clip-rule="evenodd" points="295.649,401.186 296.513,401.139 296.501,400.768 295.638,400.814 
				295.649,401.186 295.649,401.186 295.649,401.186 			"/>
			<polygon fill-rule="evenodd" clip-rule="evenodd" points="294.835,401.209 295.649,401.186 295.638,400.814 294.823,400.838 
				294.835,401.209 294.835,401.209 294.835,401.209 			"/>
			<polygon fill-rule="evenodd" clip-rule="evenodd" points="294.056,401.186 294.073,401.189 294.835,401.209 294.823,400.838 
				294.062,400.818 294.085,400.809 294.048,401.201 294.048,401.201 294.056,401.186 			"/>
			<polygon fill-rule="evenodd" clip-rule="evenodd" points="293.321,401.139 293.339,401.143 294.048,401.201 294.085,400.809 
				293.37,400.766 293.388,400.773 293.321,401.139 293.321,401.139 293.321,401.139 			"/>
			<polygon fill-rule="evenodd" clip-rule="evenodd" points="292.659,401.057 293.321,401.139 293.388,400.773 292.729,400.672 
				292.659,401.057 292.659,401.057 			"/>
			<polygon fill-rule="evenodd" clip-rule="evenodd" points="292.009,400.939 292.026,400.947 292.659,401.057 292.729,400.672 
				292.075,400.574 292.093,400.58 292.009,400.939 292.009,400.939 292.009,400.939 			"/>
			<polygon fill-rule="evenodd" clip-rule="evenodd" points="291.431,400.787 292.009,400.939 292.093,400.58 291.513,400.43 
				291.423,400.807 291.423,400.807 291.431,400.787 			"/>
			<polygon fill-rule="evenodd" clip-rule="evenodd" points="290.827,400.65 290.845,400.656 291.423,400.807 291.513,400.43 
				290.935,400.277 290.952,400.285 290.827,400.65 290.827,400.65 			"/>
			<polygon fill-rule="evenodd" clip-rule="evenodd" points="290.284,400.451 290.284,400.451 290.827,400.65 290.952,400.285 
				290.407,400.088 290.427,400.092 290.269,400.447 290.269,400.447 290.284,400.451 			"/>
			<polygon fill-rule="evenodd" clip-rule="evenodd" points="289.745,400.238 290.269,400.447 290.427,400.092 289.905,399.883 
				289.745,400.238 289.745,400.238 			"/>
			<polygon fill-rule="evenodd" clip-rule="evenodd" points="289.249,400.016 289.745,400.238 289.905,399.883 289.403,399.68 
				289.249,400.016 289.249,400.016 			"/>
			<polygon fill-rule="evenodd" clip-rule="evenodd" points="288.741,399.773 288.753,399.797 289.249,400.016 289.403,399.68 
				288.896,399.439 288.913,399.443 288.735,399.791 288.735,399.791 288.741,399.773 			"/>
			<polygon fill-rule="evenodd" clip-rule="evenodd" points="288.251,399.535 288.735,399.791 288.913,399.443 288.421,399.205 
				288.245,399.553 288.245,399.553 288.251,399.535 			"/>
			<polygon fill-rule="evenodd" clip-rule="evenodd" points="287.767,399.279 288.245,399.553 288.421,399.205 287.938,398.951 
				287.747,399.277 287.747,399.277 287.767,399.279 			"/>
			<polygon fill-rule="evenodd" clip-rule="evenodd" points="287.265,399.02 287.747,399.277 287.938,398.951 287.452,398.693 
				287.265,399.02 287.265,399.02 			"/>
			<polygon fill-rule="evenodd" clip-rule="evenodd" points="287.032,398.652 286.761,398.758 287.265,399.02 287.452,398.693 
				286.95,398.434 286.679,398.537 287.032,398.652 287.032,398.652 287.032,398.652 			"/>
			<polygon fill-rule="evenodd" clip-rule="evenodd" points="338.265,393.432 337.14,396.33 340.812,397.533 341.663,395.607 
				341.687,395.422 341.692,395.229 341.663,395.025 341.591,394.83 341.474,394.656 341.378,394.471 341.226,394.285 
				341.067,394.117 340.899,393.967 340.718,393.809 340.528,393.668 340.345,393.57 340.167,393.455 339.96,393.367 
				339.776,393.268 339.601,393.211 339.44,393.16 339.249,393.135 339.079,393.121 338.915,393.143 338.747,393.166 
				338.571,393.223 338.417,393.326 338.265,393.432 338.265,393.432 338.265,393.432 			"/>
			<polygon fill-rule="evenodd" clip-rule="evenodd" points="340.646,397.439 340.876,397.342 337.206,396.141 337.081,396.506 
				340.753,397.705 340.999,397.611 340.646,397.439 340.646,397.439 			"/>
			<g>
				<polygon fill="none" points="341.353,398.273 341.376,398.471 341.353,398.273 				"/>
				<polygon fill="none" points="343.247,396.334 343.382,396.461 343.235,396.359 				"/>
				<g>
					<polygon fill="none" points="343.382,396.461 343.235,396.359 343.247,396.334 					"/>
					<g>
						<polygon fill="none" points="343.382,396.461 343.235,396.359 343.247,396.334 						"/>
						<polygon points="284.024,395.447 284.044,395.393 285.161,392.512 285.515,392.629 284.431,395.475 284.409,395.59 
							284.405,395.549 284.024,395.621 284.021,395.58 						"/>
						<g>
							<polygon fill="none" points="343.382,396.461 343.235,396.359 343.247,396.334 							"/>
							<polygon fill="#4C4849" points="302.022,402.268 301.956,402.305 301.95,402.301 							"/>
							<g>
								<polygon fill="none" points="302.093,402.436 302.233,402.566 302.093,402.436 								"/>
								<polygon fill="none" points="343.382,396.461 343.235,396.359 343.247,396.334 								"/>
								<polygon fill="none" points="297.274,406.49 297.286,406.49 297.286,406.496 297.097,406.434 297.255,406.434 								"/>
								<path d="M284.161,396.092l0.041,0.166l0.006-0.018l0.287-0.057l-0.072,0.186l8.227-0.264l0.193,0.006l0.213,0.07
									l0.213,0.066l0.213,0.072l0.195,0.121l0.16,0.109l0.111,0.135l0.07,0.135l-0.193,0.057l3.271,9.672l0.191,0.002l0.004,0.119
									h0.295l0.277-0.006l0.256,0.006l0.23-0.039l0.234-0.061l0.238-0.111l0.217-0.182l0.26-0.244l0.006-0.018l0.148-0.201
									l0.172-0.215l0.195-0.227l0.137-0.227l0.172-0.273l0.178-0.23l0.146-0.26l0.188-0.268l0.154-0.221l0.221-0.238l0.178-0.23
									l0.207-0.205l0.18-0.189l0.199-0.17l0.188-0.148l0.219-0.121l0.047-0.025l-0.141-0.131l0,0l0.141,0.131l0.219-0.236
									l0.201-0.188l0.178-0.172l0.189-0.152l0.184-0.131l0.193-0.111l0.172-0.098l0.189-0.094l0.211-0.047l0.209-0.086
									l0.213-0.047l0.248-0.035l0.271-0.047l0.301-0.018l0.326-0.027l0.318-0.012l0.018,0.008l35.502-2.604l0.209-0.027
									l0.189-0.037l0.17-0.039l0.178-0.059l0.164-0.08l0.174-0.1l0.143-0.127l0.164-0.141l0.035-0.045l0.621-1.42l-0.322-0.205
									l0.143,0.139l-0.023,0.018l-0.158-0.107l-0.154,0.355l-0.105,0.061l-0.135,0.053l-0.158,0.062l-0.15,0.029l-0.188,0.035
									l-0.189,0.035l-35.521,2.596l-0.227,0.023l-0.217,0.006l-0.217,0.006l-0.232,0.037h-0.236l-0.205,0.031l-0.227,0.023
									l-0.207,0.029l-0.23,0.041l-0.207,0.027l-0.211,0.047l-0.236,0.059l-0.215,0.045l-0.225,0.082l-0.225,0.082l-0.213,0.104
									l-0.418,0.248l-0.428,0.383l-0.447,0.453l-0.434,0.516l-0.418,0.539l-0.361,0.482l-0.354,0.463l-0.295,0.35l-0.174,0.039
									l-0.148,0.029l-0.182,0.018h-0.178h-0.178l-0.154-0.012l-0.193-0.008l-0.172-0.018l-3.26-9.648l-0.07-0.141l-0.113-0.133
									l-0.158-0.109l-0.215-0.127l-0.207-0.088l-0.213-0.072l-0.201-0.045l-0.193-0.006l-8.223,0.248l-0.988,2.549l-0.004-0.035
									L284.161,396.092z M343.235,396.359l0.012-0.025l0.135,0.127L343.235,396.359z"/>
							</g>
						</g>
					</g>
				</g>
			</g>
			<polygon fill-rule="evenodd" clip-rule="evenodd" points="341.993,397.07 342.204,397.021 342.394,396.988 342.565,396.945 
				342.745,396.889 342.909,396.807 343.081,396.709 343.216,396.6 343.382,396.461 343.101,396.191 342.974,396.326 
				342.845,396.42 342.72,396.494 342.583,396.545 342.454,396.58 342.3,396.627 342.136,396.65 341.952,396.668 341.993,397.07 
				341.993,397.07 			"/>
			<polygon fill-rule="evenodd" clip-rule="evenodd" points="306.495,399.654 341.993,397.07 341.952,396.668 306.448,399.27 
				306.495,399.654 306.495,399.654 			"/>
			<polygon fill-rule="evenodd" clip-rule="evenodd" points="303.013,400.271 303.222,400.186 303.423,400.115 303.665,400.039 
				303.866,399.971 304.083,399.908 304.292,399.879 304.499,399.85 304.728,399.811 304.917,399.773 305.136,399.77 
				305.362,399.744 305.587,399.723 305.81,399.699 306.011,399.688 306.253,399.67 306.495,399.654 306.448,399.27 
				306.224,399.293 306.001,399.316 305.763,399.316 305.538,399.34 305.319,399.346 305.108,399.391 304.888,399.396 
				304.646,399.414 304.433,399.461 304.22,399.506 303.989,399.547 303.753,399.605 303.552,399.674 303.31,399.748 
				303.067,399.824 302.854,399.928 303.013,400.271 303.013,400.271 303.013,400.271 			"/>
			<polygon fill-rule="evenodd" clip-rule="evenodd" points="299.833,403.713 299.909,403.662 300.071,403.48 300.212,403.297 
				300.382,403.084 300.562,402.85 300.763,402.607 300.946,402.357 301.151,402.096 301.358,401.838 301.571,401.559 
				301.79,401.32 302.005,401.1 302.222,400.861 302.405,400.67 302.636,400.516 302.825,400.365 303.013,400.271 302.854,399.928 
				302.612,400.062 302.405,400.205 302.163,400.398 301.935,400.613 301.72,400.834 301.507,401.055 301.272,401.344 
				301.063,401.604 300.856,401.865 300.649,402.125 300.468,402.375 300.265,402.619 300.089,402.85 299.915,403.064 
				299.776,403.252 299.644,403.402 299.716,403.365 299.833,403.713 299.833,403.713 299.833,403.713 			"/>
			<polygon fill="none" points="338.188,393.6 338.265,393.432 338.405,393.305 338.618,393.199 338.868,393.166 339.003,393.17 
				339.157,393.184 339.304,393.211 339.452,393.24 339.63,393.301 339.79,393.352 339.96,393.426 340.144,393.525 340.298,393.594 
				340.458,393.705 340.599,393.809 340.753,393.938 340.913,394.047 341.024,394.18 341.161,394.301 341.272,394.436 
				341.479,394.695 341.585,394.963 341.64,395.098 341.669,395.186 341.651,395.41 341.608,395.59 341.478,395.74 341.29,395.832 
				341.036,395.885 340.894,395.898 340.747,395.867 340.575,395.85 340.392,395.809 340.231,395.758 340.056,395.697 
				339.866,395.619 339.698,395.525 339.53,395.449 339.345,395.352 339.185,395.242 339.032,395.113 338.89,395.01 
				338.743,394.865 338.612,394.725 338.501,394.59 338.319,394.316 338.21,394.053 338.183,393.965 338.151,393.82 			"/>
			<polygon fill-rule="evenodd" clip-rule="evenodd" fill="#FFFFFF" points="293.034,393.234 293.767,393.223 293.825,393.223 
				287.532,391.164 287.212,391.348 293.026,393.252 293.026,393.252 293.034,393.234 			"/>
			<polygon fill-rule="evenodd" clip-rule="evenodd" fill="#FFFFFF" points="293.034,393.234 285.544,393.471 285.515,393.324 
				285.476,393.158 285.427,393.008 285.368,392.834 285.339,392.688 285.339,392.57 285.386,392.432 285.515,392.34 
				285.823,392.131 286.165,391.934 286.507,391.736 286.851,391.539 287.179,391.336 287.212,391.348 293.026,393.252 
				293.026,393.252 293.034,393.234 			"/>
			<polygon fill="#FFFFFF" points="288.481,397.697 293.583,397.416 295.577,398.205 296.282,400.25 296.497,400.957 
				295.649,401.01 294.823,401.01 294.06,400.994 293.362,400.957 292.685,400.871 292.052,400.762 291.472,400.609 
				290.892,400.459 290.349,400.262 289.821,400.068 289.327,399.85 288.837,399.611 288.327,399.367 287.843,399.111 
				287.358,398.857 286.856,398.596 286.81,398.389 286.772,398.201 286.726,397.994 286.696,397.789 			"/>
			<polygon fill-rule="evenodd" clip-rule="evenodd" fill="#FFFFFF" points="301.329,398.27 301.401,398.354 302.058,398.74 
				302.271,398.406 301.614,398.016 301.679,398.113 301.329,398.27 301.353,398.316 301.401,398.354 301.329,398.27 
				301.329,398.27 			"/>
			<polygon fill-rule="evenodd" clip-rule="evenodd" fill="#FFFFFF" points="295.497,398.391 295.384,398.256 296.319,401.016 
				296.69,400.906 295.759,398.145 295.655,398.035 295.759,398.145 295.728,398.059 295.655,398.035 295.497,398.391 
				295.497,398.391 295.497,398.391 			"/>
			<polygon fill-rule="evenodd" clip-rule="evenodd" fill="#FFFFFF" points="293.601,397.598 293.505,397.584 295.497,398.391 
				295.655,398.035 293.665,397.23 293.589,397.225 293.665,397.23 293.63,397.219 293.589,397.225 293.601,397.598 
				293.601,397.598 293.601,397.598 			"/>
			<polygon fill-rule="evenodd" clip-rule="evenodd" fill="#FFFFFF" points="286.897,397.781 286.708,397.986 293.601,397.598 
				293.589,397.225 286.698,397.615 286.513,397.807 286.698,397.615 286.478,397.619 286.513,397.807 286.897,397.781 
				286.897,397.781 			"/>
			<polygon fill-rule="evenodd" clip-rule="evenodd" fill="#FFFFFF" points="286.95,398.434 287.026,398.555 287.021,398.457 
				286.997,398.354 286.991,398.254 286.962,398.166 286.956,398.068 286.933,397.965 286.903,397.877 286.897,397.781 
				286.513,397.807 286.513,397.924 286.53,398.045 286.56,398.129 286.567,398.229 286.595,398.316 286.62,398.422 
				286.661,398.533 286.667,398.631 286.761,398.758 286.667,398.631 286.696,398.717 286.761,398.758 286.95,398.434 
				286.95,398.434 			"/>
			<polygon fill-rule="evenodd" clip-rule="evenodd" fill="#FFFFFF" points="296.323,400.998 296.483,400.762 295.638,400.814 
				294.823,400.838 294.085,400.809 293.37,400.766 292.729,400.672 292.093,400.58 291.513,400.43 290.952,400.285 
				290.407,400.088 289.905,399.883 289.403,399.68 288.913,399.443 288.421,399.205 287.938,398.951 287.452,398.693 
				286.95,398.434 286.761,398.758 287.265,399.02 287.747,399.277 288.245,399.553 288.735,399.791 289.249,400.016 
				289.745,400.238 290.284,400.451 290.827,400.65 291.423,400.807 292.009,400.939 292.659,401.057 293.339,401.143 
				294.048,401.201 294.835,401.209 295.649,401.186 296.53,401.145 296.69,400.906 296.53,401.145 296.772,401.127 296.69,400.906 
				296.319,401.016 296.319,401.016 296.323,400.998 			"/>
			<g>
				<polygon fill="none" points="299.888,403.449 300.034,403.588 299.888,403.449 				"/>
				<polygon fill="none" points="298.581,403.402 298.548,403.402 298.548,403.402 				"/>
				<polygon fill="none" points="295.372,394.02 300.546,395.715 295.372,394.02 				"/>
			</g>
			<polygon fill-rule="evenodd" clip-rule="evenodd" fill="#FFFFFF" points="306.448,399.27 306.188,399.281 305.897,399.322 
				305.638,399.332 305.356,399.354 305.085,399.402 304.794,399.443 304.503,399.484 304.226,399.547 303.948,399.611 
				303.708,399.686 303.44,399.773 303.192,399.865 302.979,399.971 302.726,400.08 302.519,400.227 302.327,400.375 
				302.565,400.668 302.749,400.531 302.927,400.416 303.12,400.307 303.345,400.227 303.563,400.104 303.8,400.047 
				304.077,399.982 304.321,399.908 304.587,399.879 304.823,399.818 305.108,399.797 305.38,399.752 305.669,399.709 
				305.952,399.686 306.218,399.658 306.495,399.654 306.448,399.27 306.448,399.27 306.448,399.27 			"/>
			<polygon fill-rule="evenodd" clip-rule="evenodd" fill="#FFFFFF" points="341.952,396.668 306.448,399.27 306.495,399.654 
				341.993,397.07 341.952,396.668 341.952,396.668 			"/>
			<polygon fill-rule="evenodd" clip-rule="evenodd" fill="#FFFFFF" points="342.614,394.545 342.763,394.748 342.915,394.936 
				342.987,395.133 343.099,395.324 343.157,395.498 343.177,395.676 343.181,395.832 343.169,395.984 343.128,396.105 
				343.069,396.221 342.991,396.332 342.854,396.441 342.714,396.514 342.489,396.594 342.255,396.65 341.952,396.668 
				341.993,397.07 342.317,397.039 342.603,396.957 342.849,396.863 343.069,396.746 343.271,396.615 343.411,396.43 
				343.487,396.262 343.56,396.053 343.554,395.838 343.565,395.631 343.517,395.422 343.44,395.186 343.353,394.98 
				343.235,394.748 343.081,394.506 342.927,394.32 342.614,394.545 342.614,394.545 			"/>
			<polygon fill-rule="evenodd" clip-rule="evenodd" fill="#FFFFFF" points="338.382,392.561 338.702,392.551 339.026,392.58 
				339.358,392.65 339.675,392.697 339.978,392.795 340.28,392.893 340.569,393.027 340.843,393.156 341.124,393.305 
				341.384,393.467 341.663,393.637 341.862,393.797 342.075,393.982 342.284,394.188 342.454,394.377 342.614,394.545 
				342.927,394.32 342.745,394.105 342.536,393.904 342.329,393.697 342.101,393.508 341.847,393.328 341.591,393.148 
				341.331,392.984 341.038,392.811 340.729,392.674 340.415,392.551 340.097,392.447 339.761,392.336 339.427,392.266 
				339.091,392.213 338.706,392.186 338.372,392.189 338.382,392.561 338.382,392.561 			"/>
			<polygon fill-rule="evenodd" clip-rule="evenodd" fill="#FFFFFF" points="306.97,393.623 338.382,392.561 338.372,392.189 
				306.976,393.258 306.97,393.623 306.97,393.623 			"/>
			<polygon fill-rule="evenodd" clip-rule="evenodd" fill="#FFFFFF" points="302.013,392.848 302.306,392.967 302.62,393.031 
				302.923,393.127 303.235,393.193 303.563,393.264 303.872,393.344 304.208,393.395 304.511,393.436 304.825,393.502 
				305.149,393.529 305.468,393.576 305.782,393.582 306.083,393.623 306.403,393.609 306.69,393.629 306.97,393.623 
				306.976,393.258 306.679,393.258 306.39,393.24 306.116,393.229 305.812,393.207 305.503,393.182 305.196,393.158 
				304.896,393.117 304.577,393.072 304.263,393.008 303.962,392.967 303.655,392.887 303.335,392.84 303.028,392.756 
				302.702,392.67 302.429,392.602 302.13,392.502 302.007,392.867 302.007,392.867 302.013,392.848 			"/>
			<polygon fill-rule="evenodd" clip-rule="evenodd" fill="#FFFFFF" points="291.415,390 291.952,389.924 292.458,389.877 
				292.944,389.842 293.39,389.814 293.808,389.797 294.187,389.844 294.577,389.855 294.901,389.885 295.239,389.936 
				295.554,390.002 295.847,390.061 296.114,390.146 296.397,390.238 296.62,390.33 296.899,390.441 297.118,390.551 
				297.372,390.676 297.626,390.795 297.874,390.936 298.124,391.074 298.372,391.213 298.632,391.377 298.886,391.498 
				299.163,391.666 299.47,391.807 299.765,391.98 300.097,392.107 300.415,392.27 300.774,392.426 301.167,392.557 
				301.581,392.727 302.007,392.867 302.13,392.502 301.704,392.363 301.284,392.207 300.935,392.072 300.569,391.934 
				300.233,391.764 299.942,391.631 299.647,391.455 299.358,391.324 299.073,391.172 298.808,391.027 298.56,390.889 
				298.3,390.725 298.052,390.586 297.796,390.465 297.544,390.344 297.312,390.209 297.06,390.088 296.78,389.977 296.521,389.873 
				296.237,389.781 295.937,389.682 295.622,389.619 295.306,389.57 294.954,389.496 294.595,389.455 294.222,389.451 
				293.79,389.443 293.378,389.443 292.897,389.459 292.413,389.496 291.901,389.559 291.368,389.617 291.397,389.994 
				291.397,389.994 291.415,390 			"/>
			<polygon fill-rule="evenodd" clip-rule="evenodd" fill="#FFFFFF" points="285.616,392.51 285.923,392.299 286.265,392.1 
				286.608,391.906 286.956,391.691 287.276,391.506 287.638,391.312 287.976,391.133 288.323,390.979 288.696,390.811 
				289.067,390.641 289.435,390.492 289.813,390.363 290.222,390.268 290.593,390.154 291.001,390.059 291.397,389.994 
				291.368,389.617 290.923,389.703 290.505,389.779 290.091,389.893 289.7,389.998 289.312,390.158 288.907,390.299 
				288.544,390.451 288.169,390.619 287.792,390.805 287.431,390.994 287.093,391.174 286.751,391.371 286.407,391.568 
				286.065,391.764 285.741,391.969 285.415,392.17 285.597,392.502 285.597,392.502 285.616,392.51 			"/>
			<polygon fill-rule="evenodd" clip-rule="evenodd" fill="#FFFFFF" points="285.544,393.297 285.747,393.457 285.687,393.283 
				285.651,393.098 285.604,392.947 285.562,392.781 285.538,392.674 285.521,392.611 285.55,392.525 285.597,392.502 
				285.415,392.17 285.245,392.326 285.153,392.529 285.132,392.717 285.19,392.889 285.231,393.059 285.278,393.209 
				285.325,393.359 285.354,393.506 285.538,393.66 285.354,393.506 285.362,393.66 285.538,393.66 285.544,393.297 
				285.544,393.297 			"/>
			<g>
				<polygon fill="none" points="300.048,394.682 300.05,394.684 300.001,394.879 				"/>
				<polygon fill="#FFFFFF" points="300.056,394.664 300.05,394.684 300.048,394.682 				"/>
				<polygon fill="#FFFFFF" points="299.966,394.752 300.048,394.682 300.001,394.879 				"/>
				<g>
					<polygon fill="none" points="338.265,393.432 338.405,393.305 338.618,393.199 338.868,393.166 339.003,393.17 
						339.157,393.184 339.304,393.211 339.452,393.24 339.63,393.301 339.79,393.352 339.96,393.426 340.144,393.525 
						340.298,393.594 340.458,393.705 340.599,393.809 340.753,393.938 340.913,394.047 341.024,394.18 341.161,394.301 
						341.272,394.436 341.479,394.695 341.585,394.963 341.64,395.098 341.669,395.186 341.651,395.41 341.608,395.59 
						341.478,395.74 341.29,395.832 341.036,395.885 340.894,395.898 340.747,395.867 340.575,395.85 340.392,395.809 
						340.231,395.758 340.056,395.697 339.866,395.619 339.698,395.525 339.53,395.449 339.345,395.352 339.185,395.242 
						339.032,395.113 338.89,395.01 338.743,394.865 338.612,394.725 338.501,394.59 338.319,394.316 338.21,394.053 
						338.183,393.965 338.151,393.82 338.188,393.6 					"/>
					<polygon fill="none" points="304.05,394.656 304.05,394.656 303.872,394.734 					"/>
					<polygon fill="none" points="305.325,397.82 305.45,397.918 305.462,397.941 305.126,398.354 302.157,398.561 301.515,398.197 
						301.511,398.189 301.679,398.113 300.417,394.854 300.624,394.648 303.323,394.496 303.896,394.789 305.296,398.023 					"/>
					<polygon fill="none" points="295.202,393.674 295.202,393.674 300.165,395.299 					"/>
					<g>
						<polygon fill="none" points="338.265,393.432 338.405,393.305 338.618,393.199 338.868,393.166 339.003,393.17 
							339.157,393.184 339.304,393.211 339.452,393.24 339.63,393.301 339.79,393.352 339.96,393.426 340.144,393.525 
							340.298,393.594 340.458,393.705 340.599,393.809 340.753,393.938 340.913,394.047 341.024,394.18 341.161,394.301 
							341.272,394.436 341.479,394.695 341.585,394.963 341.64,395.098 341.669,395.186 341.651,395.41 341.608,395.59 
							341.478,395.74 341.29,395.832 341.036,395.885 340.894,395.898 340.747,395.867 340.575,395.85 340.392,395.809 
							340.231,395.758 340.056,395.697 339.866,395.619 339.698,395.525 339.53,395.449 339.345,395.352 339.185,395.242 
							339.032,395.113 338.89,395.01 338.743,394.865 338.612,394.725 338.501,394.59 338.319,394.316 338.21,394.053 
							338.183,393.965 338.151,393.82 338.188,393.6 						"/>
						<polygon fill="none" points="303.323,394.496 303.896,394.789 305.296,398.023 305.325,397.82 305.45,397.918 
							305.462,397.941 305.126,398.354 302.157,398.561 301.515,398.197 301.511,398.189 301.679,398.113 300.417,394.854 
							300.624,394.648 						"/>
						<polygon fill="none" points="295.202,393.674 295.202,393.674 300.165,395.299 						"/>
						<g>
							<polygon fill="none" points="338.265,393.432 338.405,393.305 338.618,393.199 338.868,393.166 339.003,393.17 
								339.157,393.184 339.304,393.211 339.452,393.24 339.63,393.301 339.79,393.352 339.96,393.426 340.144,393.525 
								340.298,393.594 340.458,393.705 340.599,393.809 340.753,393.938 340.913,394.047 341.024,394.18 341.161,394.301 
								341.272,394.436 341.479,394.695 341.585,394.963 341.64,395.098 341.669,395.186 341.651,395.41 341.608,395.59 
								341.478,395.74 341.29,395.832 341.036,395.885 340.894,395.898 340.747,395.867 340.575,395.85 340.392,395.809 
								340.231,395.758 340.056,395.697 339.866,395.619 339.698,395.525 339.53,395.449 339.345,395.352 339.185,395.242 
								339.032,395.113 338.89,395.01 338.743,394.865 338.612,394.725 338.501,394.59 338.319,394.316 338.21,394.053 
								338.183,393.965 338.151,393.82 338.188,393.6 							"/>
							<polygon fill="none" points="303.323,394.496 303.896,394.789 305.296,398.023 305.325,397.82 305.45,397.918 
								305.462,397.941 305.13,398.35 305.108,398.174 302.142,398.381 302.271,398.406 302.171,398.561 302.157,398.561 
								301.515,398.197 301.511,398.189 301.679,398.113 300.417,394.854 300.624,394.648 							"/>
							<polygon fill="none" points="295.202,393.674 295.202,393.674 300.165,395.299 							"/>
							<g>
								<polygon fill="none" points="305.399,397.303 311.022,399.143 305.399,397.303 								"/>
								<polygon fill="none" points="305.255,396.965 311.731,399.086 305.255,396.965 								"/>
								<polygon fill="none" points="338.265,393.432 338.405,393.305 338.618,393.199 338.868,393.166 339.003,393.17 
									339.157,393.184 339.304,393.211 339.452,393.24 339.63,393.301 339.79,393.352 339.96,393.426 340.144,393.525 
									340.298,393.594 340.458,393.705 340.599,393.809 340.753,393.938 340.913,394.047 341.024,394.18 341.161,394.301 
									341.272,394.436 341.479,394.695 341.585,394.963 341.64,395.098 341.669,395.186 341.651,395.41 341.608,395.59 
									341.478,395.74 341.29,395.832 341.036,395.885 340.894,395.898 340.747,395.867 340.575,395.85 340.392,395.809 
									340.231,395.758 340.056,395.697 339.866,395.619 339.698,395.525 339.53,395.449 339.345,395.352 339.185,395.242 
									339.032,395.113 338.89,395.01 338.743,394.865 338.612,394.725 338.501,394.59 338.319,394.316 338.21,394.053 
									338.183,393.965 338.151,393.82 338.188,393.6 								"/>
								<polygon fill="none" points="303.323,394.496 303.896,394.789 305.296,398.023 305.325,397.82 305.45,397.918 
									305.462,397.941 305.13,398.35 305.126,398.354 302.171,398.561 302.157,398.561 301.515,398.197 301.511,398.189 
									301.679,398.113 300.417,394.854 300.624,394.648 								"/>
								<polygon fill="none" points="295.202,393.674 295.202,393.674 300.165,395.299 								"/>
								<polygon fill="#FFFFFF" points="305.255,396.965 311.731,399.086 311.028,399.127 311.022,399.143 305.399,397.303 								
									"/>
								<g>
									<polygon fill="none" points="338.265,393.432 338.405,393.305 338.618,393.199 338.868,393.166 339.003,393.17 
										339.157,393.184 339.304,393.211 339.452,393.24 339.63,393.301 339.79,393.352 339.96,393.426 340.144,393.525 
										340.298,393.594 340.458,393.705 340.599,393.809 340.753,393.938 340.913,394.047 341.024,394.18 341.161,394.301 
										341.272,394.436 341.479,394.695 341.585,394.963 341.64,395.098 341.669,395.186 341.651,395.41 341.608,395.59 
										341.478,395.74 341.29,395.832 341.036,395.885 340.894,395.898 340.747,395.867 340.575,395.85 340.392,395.809 
										340.231,395.758 340.056,395.697 339.866,395.619 339.698,395.525 339.53,395.449 339.345,395.352 339.185,395.242 
										339.032,395.113 338.89,395.01 338.743,394.865 338.612,394.725 338.501,394.59 338.319,394.316 338.21,394.053 
										338.183,393.965 338.151,393.82 338.188,393.6 									"/>
									<polygon fill="none" points="303.323,394.496 303.896,394.789 305.249,397.914 305.038,398.178 302.142,398.381 
										302.271,398.406 302.171,398.561 302.157,398.561 301.515,398.197 301.511,398.189 301.679,398.113 300.417,394.854 
										300.624,394.648 									"/>
									<polygon fill="none" points="305.325,397.82 305.45,397.918 305.45,397.918 									"/>
									<polygon fill="none" points="295.202,393.674 295.202,393.674 300.165,395.299 									"/>
									<path fill="#FFFFFF" d="M285.538,393.66l8.229-0.262l0.17,0.014l0.162,0.055l0.213,0.07l0.193,0.064l0.176,0.115
										l0.133,0.08l0.074,0.123l0.061,0.059l3.271,9.672l0.047,0.148l0.162-0.004l0.164-0.023l0.189,0.023l0.23,0.018l0.217-0.006
										l0.215,0.014l0.195-0.055l0.217-0.062l0.178-0.115l0.213-0.223l0.178-0.23l0.166-0.197l0.164-0.195l0.143-0.188
										l0.137-0.168l0.117-0.172l0.143-0.188l0.117-0.174l0.139-0.166l0.133-0.17l0.148-0.145l0.156-0.164l0.176-0.172
										l0.178-0.176l0.225-0.193l-0.119-0.148l0.178-0.145l0.201-0.127l0.23-0.098l0.213-0.105l0.23-0.096l0.26-0.072l0.266-0.088
										l0.26-0.066l0.248-0.037l0.273-0.047l0.289-0.039l0.273-0.045l0.281-0.025l0.283-0.023l0.268-0.027l0.26-0.012l4.562-0.324
										l-5.623-1.84l-0.145-0.338l0,0l6.477,2.121l30.25-2.215l0.561-0.086l0.422-0.191l0.289-0.273l0.104-0.312v-0.348
										l0.008-0.018l-0.1-0.4l-0.201-0.396l-0.291-0.422l-0.17-0.191l-0.189-0.197l-0.207-0.201l-0.217-0.17l-0.23-0.191
										l-0.26-0.162l-0.279-0.168l-0.277-0.168l-0.297-0.117l-0.289-0.133l-0.32-0.105l-0.336-0.107l-0.316-0.047l-0.332-0.07
										l-0.346-0.035l-0.334,0.006l-4.57,0.164l-26.826,0.902h-0.297l-0.275,0.006l-0.314-0.006l-0.301-0.041l-0.309-0.023
										l-0.307-0.023l-0.301-0.041l-0.32-0.047l-0.32-0.045l-0.311-0.064l-0.314-0.066l-0.312-0.062l-0.324-0.084l-0.307-0.086
										l-0.293-0.074l-0.301-0.096l-0.424-0.143l-0.42-0.156l-0.367-0.139l-0.365-0.141l-0.32-0.16l-0.307-0.139l-0.318-0.164
										l-0.291-0.133l-0.277-0.168l-0.248-0.141l-0.268-0.145l-0.248-0.139l-0.264-0.143l-0.248-0.143l-0.236-0.115l-0.248-0.139
										l-0.256-0.123l-0.26-0.104l-0.248-0.082l-0.285-0.094l-0.301-0.098l-0.287-0.076l-0.32-0.045l-0.338-0.053l-0.342-0.035
										l-0.385-0.027l-0.408-0.02l-0.418,0.018l-0.438,0.01l-0.49,0.053l-0.51,0.047l-0.557,0.07l-0.412,0.057l-0.41,0.098
										l-0.406,0.098l-0.379,0.129l-0.4,0.141l-0.385,0.143l-0.363,0.15l-0.375,0.168l-0.354,0.174l-0.361,0.193l5.74,1.879
										l-7.729,0.254L285.538,393.66z M338.151,393.82l0.037-0.221l0.076-0.168l0.141-0.127l0.213-0.105l0.25-0.033l0.135,0.004
										l0.154,0.014l0.146,0.027l0.148,0.029l0.178,0.061l0.16,0.051l0.17,0.074l0.184,0.1l0.154,0.068l0.16,0.111l0.141,0.104
										l0.154,0.129l0.16,0.109l0.111,0.133l0.137,0.121l0.111,0.135l0.207,0.26l0.105,0.268l0.055,0.135l0.029,0.088
										l-0.018,0.225l-0.043,0.18l-0.131,0.15l-0.188,0.092l-0.254,0.053l-0.143,0.014l-0.146-0.031l-0.172-0.018l-0.184-0.041
										l-0.16-0.051l-0.176-0.061l-0.189-0.078l-0.168-0.094l-0.168-0.076l-0.186-0.098l-0.16-0.109l-0.152-0.129l-0.143-0.104
										l-0.146-0.145l-0.131-0.141l-0.111-0.135l-0.182-0.273l-0.109-0.264l-0.027-0.088L338.151,393.82z M305.45,397.918
										L305.45,397.918l-0.125-0.098L305.45,397.918z M300.417,394.854l0.207-0.205l2.699-0.152l0.572,0.293l1.354,3.125
										l-0.211,0.264l-2.896,0.203l0.129,0.025l-0.1,0.154h-0.014l-0.643-0.363l-0.004-0.008l0.168-0.076L300.417,394.854z"/>
								</g>
							</g>
						</g>
					</g>
				</g>
			</g>
			<polygon fill-rule="evenodd" clip-rule="evenodd" points="336.323,395.83 336.159,395.738 336.13,395.594 336.366,395.535 
				336.415,395.688 336.272,395.582 336.323,395.83 336.323,395.83 			"/>
			<polygon fill-rule="evenodd" clip-rule="evenodd" points="336.646,395.646 336.608,395.693 336.548,395.75 336.478,395.785 
				336.409,395.818 336.323,395.83 336.272,395.582 336.308,395.594 336.36,395.553 336.425,395.535 336.433,395.518 
				336.419,395.553 336.64,395.662 336.64,395.662 336.646,395.646 			"/>
			<polygon fill-rule="evenodd" clip-rule="evenodd" points="335.978,394.191 335.995,394.195 336.106,394.33 336.255,394.475 
				336.396,394.637 336.532,394.816 336.646,395.008 336.708,395.223 336.71,395.455 336.64,395.662 336.419,395.553 
				336.468,395.412 336.456,395.275 336.415,395.105 336.308,394.957 336.19,394.783 336.062,394.643 335.911,394.496 
				335.8,394.365 335.817,394.371 335.978,394.191 335.978,394.191 			"/>
			<polygon fill-rule="evenodd" clip-rule="evenodd" points="333.802,393.574 333.784,393.568 334.099,393.574 334.392,393.574 
				334.671,393.627 334.937,393.656 335.208,393.727 335.462,393.848 335.728,393.992 335.978,394.191 335.817,394.371 
				335.575,394.213 335.343,394.08 335.126,393.971 334.89,393.91 334.63,393.865 334.364,393.836 334.093,393.824 333.813,393.83 
				333.819,393.812 333.778,393.586 333.778,393.586 333.802,393.574 			"/>
			<polygon fill-rule="evenodd" clip-rule="evenodd" points="310.739,394.762 310.841,394.695 333.778,393.586 333.819,393.812 
				310.876,394.941 310.978,394.877 310.739,394.762 310.739,394.762 			"/>
			<polygon fill-rule="evenodd" clip-rule="evenodd" points="310.196,395.549 309.946,395.469 309.966,395.299 310.013,395.16 
				310.083,395.01 310.179,394.904 310.302,394.83 310.462,394.766 310.64,394.709 310.841,394.695 310.876,394.941 
				310.685,394.975 310.517,395.016 310.431,395.025 310.349,395.098 310.31,395.16 310.243,395.236 310.208,395.34 
				310.214,395.496 309.966,395.414 310.196,395.549 310.196,395.549 			"/>
			<g>
				<polygon fill="none" points="310.841,394.703 310.876,394.941 310.841,394.703 				"/>
				<g>
					<polygon fill="none" points="310.214,395.496 310.243,395.352 310.313,395.201 310.374,395.086 310.497,395.01 310.646,394.98 
						310.853,394.951 310.876,394.941 333.819,393.812 334.202,393.842 334.524,393.83 334.825,393.871 335.101,393.924 
						335.356,394.045 335.585,394.178 335.8,394.365 336.044,394.637 336.255,394.881 336.409,395.123 336.485,395.303 
						336.485,395.42 336.433,395.518 336.286,395.605 336.007,395.67 335.616,395.715 312.04,396.906 312.022,396.9 
						311.692,396.889 311.366,396.801 311.077,396.668 310.829,396.529 310.622,396.326 310.476,396.123 310.345,395.926 
						310.243,395.758 310.224,395.635 					"/>
					<g>
						<path fill="none" d="M310.243,395.352l-0.029,0.145l0.01,0.139l0.02,0.123l0.102,0.168l0.131,0.197l0.146,0.203l0.207,0.203
							l0.248,0.139l0.289,0.133l0.326,0.088l0.33,0.012l0.018,0.006l23.576-1.191l0.391-0.045l0.279-0.064l0.146-0.088l0.053-0.098
							v-0.117l-0.076-0.18l-0.154-0.242l-0.211-0.244l-0.244-0.271l-0.215-0.188l-0.229-0.133l-0.256-0.121l-0.275-0.053
							l-0.301-0.041l-0.322,0.012l-0.383-0.029l-22.943,1.129l-0.023,0.01l-0.207,0.029l-0.148,0.029l-0.123,0.076l-0.061,0.115
							L310.243,395.352z M310.567,395.207l22.945-1.127l0.012-0.035l0.307,0.023h0.297l0.277,0.051l0.266,0.029l0.271,0.07
							l0.254,0.121l0.248,0.139l0.266,0.205l0.102,0.107l0.088,0.088l0.084,0.105l0.07,0.08l0.1,0.113l0.078,0.119l0.064,0.098
							l0.064,0.1l0.006,0.041l-0.236,0.059l0.006,0.041l-0.061-0.117l-0.062-0.098l-0.09-0.088l-0.064-0.1l-0.07-0.078l-0.084-0.107
							l-0.088-0.084l-0.105-0.094l0.008-0.008l-0.211-0.154l-0.225-0.152l-0.223-0.094l-0.238-0.059l-0.258-0.047l-0.268-0.025
							l-0.289-0.021l-0.277,0.008l-22.938,1.111L310.567,395.207z"/>
						<g>
							<path fill="none" d="M310.243,395.352l-0.029,0.145l0.01,0.139l0.02,0.123l0.102,0.168l0.131,0.197l0.146,0.203l0.207,0.203
								l0.248,0.139l0.289,0.133l0.326,0.088l0.33,0.012l0.018,0.006l23.576-1.191l0.391-0.045l0.279-0.064l0.146-0.088l0.053-0.098
								v-0.117l-0.076-0.18l-0.154-0.242l-0.211-0.244l-0.244-0.271l-0.215-0.188l-0.229-0.133l-0.256-0.121l-0.275-0.053
								l-0.301-0.041l-0.322,0.012l-0.383-0.029l-22.943,1.129l-0.023,0.01l-0.207,0.029l-0.148,0.029l-0.123,0.076l-0.061,0.115
								L310.243,395.352z"/>
							<g>
								<polygon fill="none" points="310.313,395.201 310.374,395.086 310.497,395.01 310.646,394.98 310.78,394.963 
									310.593,395.312 333.536,394.184 333.831,394.184 334.104,394.195 334.382,394.246 334.647,394.277 334.899,394.34 
									335.144,394.439 335.386,394.596 335.622,394.77 335.704,394.873 335.794,394.963 335.876,395.064 335.966,395.154 
									336.03,395.25 336.114,395.355 336.179,395.455 336.255,395.576 336.265,395.611 336.007,395.67 335.616,395.715 
									312.04,396.906 312.022,396.9 311.692,396.889 311.366,396.801 311.077,396.668 310.829,396.529 310.622,396.326 
									310.476,396.123 310.345,395.926 310.243,395.758 310.224,395.635 310.214,395.496 310.243,395.352 								"/>
								<polygon points="336.179,395.455 336.114,395.355 336.03,395.25 335.966,395.154 335.876,395.064 335.794,394.963 
									335.704,394.873 335.622,394.77 335.386,394.596 335.144,394.439 334.899,394.34 334.647,394.277 334.382,394.246 
									334.104,394.195 333.831,394.184 333.536,394.184 310.593,395.312 310.78,394.963 310.853,394.951 310.876,394.941 
									333.819,393.812 334.202,393.842 334.524,393.83 334.825,393.871 335.101,393.924 335.356,394.045 335.585,394.178 
									335.8,394.365 336.044,394.637 336.255,394.881 336.409,395.123 336.485,395.303 336.485,395.42 336.433,395.518 
									336.286,395.605 336.265,395.611 336.255,395.576 								"/>
								<g>
									<polygon fill="none" points="310.253,395.33 310.272,395.324 310.392,395.324 310.593,395.312 310.784,394.963 
										310.853,394.951 310.876,394.941 333.819,393.812 334.202,393.842 334.524,393.83 334.825,393.871 335.101,393.924 
										335.356,394.045 335.585,394.178 335.8,394.365 336.044,394.637 336.255,394.881 336.409,395.123 336.485,395.303 
										336.485,395.42 336.433,395.518 336.286,395.605 336.265,395.611 336.007,395.67 335.616,395.715 312.04,396.906 
										312.022,396.9 311.692,396.889 311.366,396.801 311.077,396.668 310.829,396.529 310.622,396.326 310.476,396.123 
										310.345,395.926 310.243,395.758 310.224,395.635 310.214,395.496 310.243,395.352 									"/>
									<path d="M309.946,395.469l0.025,0.219l0.047,0.15l0.064,0.213l0.154,0.246l0.188,0.197l0.242,0.215l0.291,0.191
										l0.326,0.145l0.34,0.092l0.416,0.002l23.568-1.174l0.449-0.047l0.318-0.068l0.232-0.156l0.131-0.211l-0.006-0.215
										l-0.088-0.26l-0.172-0.248l-0.236-0.291l-0.242-0.273l-0.262-0.221l-0.275-0.168l-0.273-0.127l-0.295-0.057l-0.354-0.059
										h-0.355l-0.402,0.021l-22.938,1.109v0.008l-0.244,0.012l-0.248,0.092l-0.164,0.139l-0.113,0.158l-0.076,0.168
										L309.946,395.469z M310.214,395.496l0.029-0.145l0.01-0.021l0.02-0.006h0.119l0.201-0.012l0.191-0.35l0.068-0.012
										l0.023-0.01l22.943-1.129l0.383,0.029l0.322-0.012l0.301,0.041l0.275,0.053l0.256,0.121l0.229,0.133l0.215,0.188
										l0.244,0.271l0.211,0.244l0.154,0.242l0.076,0.18v0.117l-0.053,0.098l-0.146,0.088l-0.021,0.006l-0.258,0.059l-0.391,0.045
										l-23.576,1.191l-0.018-0.006l-0.33-0.012l-0.326-0.088l-0.289-0.133l-0.248-0.139l-0.207-0.203l-0.146-0.203l-0.131-0.197
										l-0.102-0.168l-0.02-0.123L310.214,395.496z"/>
								</g>
							</g>
						</g>
					</g>
				</g>
			</g>
		</g>
	</g>
	<rect x="256.677" y="6.826" fill="#E6E7E8" width="218.176" height="37.94"/>
	<text transform="matrix(1 0 0 1 260.4941 21.082)"><tspan x="0" y="0" fill="#231F20" font-family="'Arial-BoldMT'" font-size="16.3494">36 Card Tuck Box Template</tspan><tspan x="0" y="18.685" fill="#231F20" font-family="'Arial-BoldMT'" font-size="16.3494">www.thegamecrafter.com</tspan></text>
	<g>
		<path fill="#EC1E28" d="M142.09,175.898c0,0.888-0.403,1.754-1.207,2.597l-0.127,0.125l-7.04,7.417
			c-1.496,1.571-2.771,2.787-3.821,3.646c-1.052,0.859-1.796,1.287-2.228,1.287c-0.456,0-1.021-0.214-1.698-0.644
			c-0.676-0.428-1.112-0.872-1.311-1.327c-0.166-0.38-0.325-1.185-0.473-2.416c-0.147-1.229-0.222-2.563-0.222-3.998
			c0-0.782,0.327-1.506,0.979-2.171c0.653-0.665,1.375-0.997,2.164-0.997c0.754,0,1.2,0.688,1.344,2.062
			c0.018,0.159,0.027,0.278,0.037,0.354c0.119,1.056,0.261,1.792,0.419,2.21c0.161,0.418,0.378,0.627,0.65,0.627
			c0.113,0,0.327-0.124,0.639-0.37c0.31-0.248,0.684-0.583,1.116-1.009l7.234-7.166c0.607-0.607,1.149-1.066,1.629-1.379
			c0.479-0.311,0.884-0.467,1.219-0.467c0.252,0,0.429,0.096,0.537,0.285c0.105,0.19,0.158,0.51,0.158,0.958V175.898z"/>
	</g>
	<text transform="matrix(1 0 0 1 142.1753 188.8257)" font-family="'ArialMT'" font-size="14">Fold Line</text>
	<g>
		<path fill="#EC1E28" d="M336.091,62.898c0,0.888-0.404,1.754-1.207,2.597l-0.127,0.125l-7.041,7.417
			c-1.496,1.571-2.77,2.787-3.82,3.646c-1.053,0.859-1.797,1.287-2.229,1.287c-0.455,0-1.021-0.214-1.697-0.644
			c-0.676-0.428-1.113-0.872-1.311-1.327c-0.166-0.38-0.326-1.185-0.473-2.416c-0.148-1.229-0.223-2.563-0.223-3.998
			c0-0.782,0.328-1.506,0.98-2.171s1.375-0.997,2.164-0.997c0.754,0,1.199,0.688,1.344,2.062c0.018,0.159,0.027,0.278,0.037,0.354
			c0.119,1.056,0.26,1.792,0.418,2.21c0.162,0.418,0.379,0.627,0.65,0.627c0.113,0,0.328-0.124,0.639-0.37
			c0.311-0.248,0.684-0.583,1.117-1.009l7.234-7.166c0.607-0.607,1.148-1.066,1.629-1.379c0.479-0.311,0.883-0.467,1.219-0.467
			c0.252,0,0.428,0.096,0.537,0.285c0.105,0.19,0.158,0.51,0.158,0.958V62.898z"/>
	</g>
	<text transform="matrix(1 0 0 1 336.1758 75.8257)" font-family="'ArialMT'" font-size="14">Bleed Zone</text>
	<g>
		<g>
			<g>
				<polyline fill="none" stroke="#00ADEE" stroke-miterlimit="10" points="221.519,326.326 221.519,328.826 219.019,328.826 				
					"/>
				
					<line fill="none" stroke="#00ADEE" stroke-miterlimit="10" stroke-dasharray="5.1398,5.1398" x1="213.879" y1="328.826" x2="62.255" y2="328.826"/>
				<polyline fill="none" stroke="#00ADEE" stroke-miterlimit="10" points="59.685,328.826 57.185,328.826 57.185,326.326 				"/>
				
					<line fill="none" stroke="#00ADEE" stroke-miterlimit="10" stroke-dasharray="4.924,4.924" x1="57.185" y1="321.402" x2="57.185" y2="97.358"/>
				<polyline fill="none" stroke="#00ADEE" stroke-miterlimit="10" points="57.185,94.896 57.185,92.396 59.685,92.396 				"/>
				
					<line fill="none" stroke="#00ADEE" stroke-miterlimit="10" stroke-dasharray="5.1398,5.1398" x1="64.825" y1="92.396" x2="216.449" y2="92.396"/>
				<polyline fill="none" stroke="#00ADEE" stroke-miterlimit="10" points="219.019,92.396 221.519,92.396 221.519,94.896 				"/>
				
					<line fill="none" stroke="#00ADEE" stroke-miterlimit="10" stroke-dasharray="4.924,4.924" x1="221.519" y1="99.82" x2="221.519" y2="323.863"/>
			</g>
		</g>
	</g>
	<line fill="none" stroke="#00ADEE" stroke-miterlimit="10" x1="221.519" y1="280.158" x2="191.519" y2="280.158"/>
	<g>
		<path fill="#EC1E28" d="M126.09,270.898c0,0.887-0.403,1.754-1.207,2.596l-0.127,0.127l-7.04,7.416
			c-1.496,1.572-2.771,2.787-3.821,3.646c-1.052,0.859-1.796,1.287-2.228,1.287c-0.456,0-1.021-0.215-1.698-0.645
			c-0.676-0.428-1.112-0.871-1.311-1.326c-0.166-0.381-0.325-1.186-0.473-2.416s-0.222-2.562-0.222-3.998
			c0-0.783,0.327-1.506,0.979-2.172c0.653-0.664,1.375-0.996,2.164-0.996c0.754,0,1.2,0.688,1.344,2.062
			c0.018,0.158,0.027,0.277,0.037,0.354c0.119,1.055,0.261,1.793,0.419,2.209c0.161,0.418,0.378,0.627,0.65,0.627
			c0.113,0,0.327-0.123,0.639-0.369c0.31-0.248,0.684-0.582,1.116-1.01l7.234-7.166c0.607-0.607,1.149-1.066,1.629-1.379
			c0.479-0.311,0.884-0.467,1.219-0.467c0.252,0,0.429,0.096,0.537,0.285c0.105,0.189,0.158,0.51,0.158,0.957V270.898z"/>
	</g>
	<text transform="matrix(1 0 0 1 126.1753 283.8262)" font-family="'ArialMT'" font-size="14">Safe Zone</text>
	<g>
		<g>
			<g>
				<polyline fill="none" stroke="#00ADEE" stroke-width="1.0795" stroke-miterlimit="10" points="39.856,326.326 39.856,328.826 
					35.132,328.826 				"/>
				<polyline fill="none" stroke="#00ADEE" stroke-width="1.0795" stroke-miterlimit="10" points="22.869,328.826 18.146,328.826 
					18.146,326.326 				"/>
				
					<line fill="none" stroke="#00ADEE" stroke-width="1.0795" stroke-miterlimit="10" stroke-dasharray="6.7684,6.7684" x1="18.146" y1="321.402" x2="18.146" y2="97.358"/>
				<polyline fill="none" stroke="#00ADEE" stroke-width="1.0795" stroke-miterlimit="10" points="18.146,94.896 18.146,92.396 
					22.869,92.396 				"/>
				<polyline fill="none" stroke="#00ADEE" stroke-width="1.0795" stroke-miterlimit="10" points="35.132,92.396 39.856,92.396 
					39.856,94.896 				"/>
				
					<line fill="none" stroke="#00ADEE" stroke-width="1.0795" stroke-miterlimit="10" stroke-dasharray="6.7684,6.7684" x1="39.856" y1="99.82" x2="39.856" y2="323.863"/>
			</g>
		</g>
	</g>
	<g>
		<g>
			<g>
				<polyline fill="none" stroke="#00ADEE" stroke-width="1.0531" stroke-miterlimit="10" points="260.495,326.326 260.495,328.826 
					256.03,328.826 				"/>
				<polyline fill="none" stroke="#00ADEE" stroke-width="1.0531" stroke-miterlimit="10" points="244.44,328.826 239.977,328.826 
					239.977,326.326 				"/>
				
					<line fill="none" stroke="#00ADEE" stroke-width="1.0531" stroke-miterlimit="10" stroke-dasharray="6.5799,6.5799" x1="239.977" y1="321.402" x2="239.977" y2="97.358"/>
				<polyline fill="none" stroke="#00ADEE" stroke-width="1.0531" stroke-miterlimit="10" points="239.977,94.896 239.977,92.396 
					244.44,92.396 				"/>
				<polyline fill="none" stroke="#00ADEE" stroke-width="1.0531" stroke-miterlimit="10" points="256.03,92.396 260.495,92.396 
					260.495,94.896 				"/>
				
					<line fill="none" stroke="#00ADEE" stroke-width="1.0531" stroke-miterlimit="10" stroke-dasharray="6.5799,6.5799" x1="260.495" y1="99.82" x2="260.495" y2="323.863"/>
			</g>
		</g>
	</g>
	<g>
		<g>
			<g>
				<polyline fill="none" stroke="#00ADEE" stroke-width="1.0429" stroke-miterlimit="10" points="221.519,72.162 221.519,76.665 
					219.019,76.665 				"/>
				
					<line fill="none" stroke="#00ADEE" stroke-width="1.0429" stroke-miterlimit="10" stroke-dasharray="6.8981,6.8981" x1="213.879" y1="76.665" x2="62.255" y2="76.665"/>
				<polyline fill="none" stroke="#00ADEE" stroke-width="1.0429" stroke-miterlimit="10" points="59.685,76.665 57.185,76.665 
					57.185,72.162 				"/>
				
					<line fill="none" stroke="#00ADEE" stroke-width="1.0429" stroke-miterlimit="10" stroke-dasharray="3.5276,3.5276" x1="57.185" y1="67.427" x2="57.185" y2="60.326"/>
				<polyline fill="none" stroke="#00ADEE" stroke-width="1.0429" stroke-miterlimit="10" points="57.185,57.958 57.185,53.456 
					59.685,53.456 				"/>
				
					<line fill="none" stroke="#00ADEE" stroke-width="1.0429" stroke-miterlimit="10" stroke-dasharray="6.8981,6.8981" x1="64.825" y1="53.456" x2="216.449" y2="53.456"/>
				<polyline fill="none" stroke="#00ADEE" stroke-width="1.0429" stroke-miterlimit="10" points="219.019,53.456 221.519,53.456 
					221.519,57.958 				"/>
				
					<line fill="none" stroke="#00ADEE" stroke-width="1.0429" stroke-miterlimit="10" stroke-dasharray="3.5276,3.5276" x1="221.519" y1="62.693" x2="221.519" y2="69.794"/>
			</g>
		</g>
	</g>
	<g>
		<g>
			<g>
				<polyline fill="none" stroke="#00ADEE" stroke-width="1.127" stroke-miterlimit="10" points="221.519,365.626 221.519,370.041 
					219.019,370.041 				"/>
				
					<line fill="none" stroke="#00ADEE" stroke-width="1.127" stroke-miterlimit="10" stroke-dasharray="6.8311,6.8311" x1="213.879" y1="370.041" x2="62.255" y2="370.041"/>
				<polyline fill="none" stroke="#00ADEE" stroke-width="1.127" stroke-miterlimit="10" points="59.685,370.041 57.185,370.041 
					57.185,365.626 				"/>
				
					<line fill="none" stroke="#00ADEE" stroke-width="1.127" stroke-miterlimit="10" stroke-dasharray="3.4936,3.4936" x1="57.185" y1="360.979" x2="57.185" y2="354.017"/>
				<polyline fill="none" stroke="#00ADEE" stroke-width="1.127" stroke-miterlimit="10" points="57.185,351.694 57.185,347.279 
					59.685,347.279 				"/>
				
					<line fill="none" stroke="#00ADEE" stroke-width="1.127" stroke-miterlimit="10" stroke-dasharray="6.8311,6.8311" x1="64.825" y1="347.279" x2="216.449" y2="347.279"/>
				<polyline fill="none" stroke="#00ADEE" stroke-width="1.127" stroke-miterlimit="10" points="219.019,347.279 221.519,347.279 
					221.519,351.694 				"/>
				
					<line fill="none" stroke="#00ADEE" stroke-width="1.127" stroke-miterlimit="10" stroke-dasharray="3.4936,3.4936" x1="221.519" y1="356.338" x2="221.519" y2="363.302"/>
			</g>
		</g>
	</g>
</g>
</svg>
