<?xml version="1.0" encoding="utf-8"?>
<!-- Generator: Adobe Illustrator 15.0.0, SVG Export Plug-In . SVG Version: 6.00 Build 0)  -->
<!DOCTYPE svg PUBLIC "-//W3C//DTD SVG 1.1//EN" "http://www.w3.org/Graphics/SVG/1.1/DTD/svg11.dtd">
<svg version="1.1" xmlns="http://www.w3.org/2000/svg" xmlns:xlink="http://www.w3.org/1999/xlink" x="0px" y="0px" width="666px"
	 height="504px" viewBox="0 0 666 504" enable-background="new 0 0 666 504" xml:space="preserve">
<g id="Guides_For_Artboard">
</g>
<g id="Background">
	<polygon fill="#929497" points="0,0 0,504 666,504 666,0 0,0 	"/>
</g>
<g id="cuts">
	<g id="XMLID_1_">
		<g>
			<path fill="#FFFFFF" d="M288,451v43.2H106V451H8.8v-54V143c0-29.82,24.18-54,54-54H106V45.8c0-19.88,16.12-36,36-36h110
				c19.88,0,36,16.12,36,36V89h43.2c29.831,0,54,24.18,54,54h73c0,22,36,22,36,0h73h90v254h-90v90.2h-182V451H288z"/>
		</g>
		<g>
			<line fill="none" stroke="#EC1C24" stroke-miterlimit="10" x1="8.8" y1="397" x2="8.8" y2="143"/>
			<path fill="none" stroke="#EC1C24" stroke-miterlimit="10" d="M567.2,143h-73c0,22-36,22-36,0h-73"/>
			<polyline fill="none" stroke="#EC1C24" stroke-miterlimit="10" points="567.2,397 657.2,397 657.2,143 567.2,143 			"/>
			<path fill="none" stroke="#EC1C24" stroke-miterlimit="10" d="M8.8,143c0-29.82,24.18-54,54-54H106"/>
			<path fill="none" stroke="#EC1C24" stroke-miterlimit="10" d="M385.2,143c0-29.82-24.17-54-54-54H288"/>
			<polyline fill="none" stroke="#EC1C24" stroke-miterlimit="10" points="106,171.8 106,89 106,45.8 134.8,45.8 			"/>
			<polyline fill="none" stroke="#EC1C24" stroke-miterlimit="10" points="288,171.8 288,89 288,45.8 259.2,45.8 			"/>
			<path fill="none" stroke="#EC1C24" stroke-miterlimit="10" d="M106,45.8c0-19.88,16.12-36,36-36h110"/>
			<path fill="none" stroke="#EC1C24" stroke-miterlimit="10" d="M288,45.8c0-19.88-16.12-36-36-36"/>
			<polyline fill="none" stroke="#EC1C24" stroke-miterlimit="10" points="385.2,451 385.2,487.2 567.2,487.2 567.2,397 			"/>
			<polyline fill="none" stroke="#EC1C24" stroke-miterlimit="10" points="288,451 385.2,451 385.2,397 			"/>
			<polyline fill="none" stroke="#EC1C24" stroke-miterlimit="10" points="106,451 106,494.2 288,494.2 288,451 288,397 			"/>
			<polyline fill="none" stroke="#EC1C24" stroke-miterlimit="10" points="8.8,397 8.8,451 106,451 106,397 			"/>
		</g>
	</g>
</g>
<g id="folds">
	
		<rect x="106.001" y="171.782" fill="none" stroke="#8BC53F" stroke-width="1.0009" stroke-miterlimit="10" width="182.005" height="225.201"/>
	
		<line fill="none" stroke="#8BC53F" stroke-width="1.0271" stroke-miterlimit="10" x1="375.961" y1="396.982" x2="567.961" y2="396.982"/>
	<line fill="none" stroke="#8BC53F" stroke-miterlimit="10" x1="115.481" y1="142.983" x2="8.8" y2="142.983"/>
	<polyline fill="none" stroke="#8BC53F" stroke-miterlimit="10" points="288.007,396.982 385.2,396.982 385.2,142.983 
		288.007,142.983 	"/>
	<line fill="none" stroke="#8BC53F" stroke-miterlimit="10" x1="567.2" y1="397" x2="567.2" y2="143"/>
	<line fill="none" stroke="#8BC53F" stroke-miterlimit="10" x1="135.458" y1="45.8" x2="259.858" y2="45.8"/>
	<line fill="none" stroke="#8BC53F" stroke-miterlimit="10" x1="115.481" y1="142.983" x2="297.482" y2="142.983"/>
	<line fill="none" stroke="#8BC53F" stroke-miterlimit="10" x1="115.481" y1="396.982" x2="8.8" y2="396.982"/>
</g>
<g id="instructions">
	<rect x="592.331" y="151.302" fill="#E6E6E6" width="53.998" height="239.999"/>
	<text transform="matrix(0 -1 1 0 622.6582 286.8398)" fill="#A6A8AB" font-family="'MyriadPro-Regular'" font-size="12">Glue</text>
	<g>
		<path fill="#EC1E28" d="M471.24,186.574c0,0.888-0.403,1.754-1.207,2.597l-0.127,0.125l-7.04,7.417
			c-1.496,1.571-2.771,2.787-3.821,3.646c-1.052,0.859-1.796,1.287-2.228,1.287c-0.456,0-1.021-0.214-1.698-0.644
			c-0.676-0.428-1.112-0.872-1.311-1.327c-0.166-0.38-0.325-1.185-0.473-2.416c-0.147-1.229-0.222-2.563-0.222-3.998
			c0-0.782,0.327-1.506,0.979-2.171c0.653-0.665,1.375-0.997,2.164-0.997c0.754,0,1.2,0.688,1.344,2.062
			c0.018,0.159,0.027,0.278,0.037,0.354c0.119,1.056,0.261,1.792,0.419,2.21c0.161,0.418,0.378,0.627,0.65,0.627
			c0.113,0,0.327-0.124,0.639-0.37c0.31-0.248,0.684-0.583,1.116-1.009l7.234-7.166c0.607-0.607,1.149-1.066,1.629-1.379
			c0.479-0.311,0.884-0.467,1.219-0.467c0.252,0,0.429,0.096,0.537,0.285c0.105,0.19,0.158,0.51,0.158,0.958V186.574z"/>
	</g>
	<line fill="none" stroke="#EC1C24" x1="503.996" y1="187.798" x2="503.996" y2="142.834"/>
	<text transform="matrix(1 0 0 1 471.3262 199.5)" font-family="'ArialMT'" font-size="14">Trim Line</text>
	<line fill="none" stroke="#8BC53F" x1="259.001" y1="198.171" x2="287.801" y2="197.838"/>
	<rect x="415.596" y="57.302" fill="#E6E7E8" width="222.402" height="74.891"/>
	<text transform="matrix(1 0 0 1 548.501 72.8179)"><tspan x="0" y="0" fill="#231F20" font-family="'Arial-Black'" font-size="8.2702">PLEASE NOTE:</tspan><tspan x="-48.716" y="9.924" fill="#231F20" font-family="'Arial-Black'" font-size="8.2702">Remove this layer before </tspan><tspan x="-44.117" y="19.849" fill="#231F20" font-family="'Arial-Black'" font-size="8.2702">sending the file to print. </tspan><tspan x="-54.225" y="29.772" fill="#231F20" font-family="'Arial-Black'" font-size="8.2702">This layer is provided as a </tspan><tspan x="-9.207" y="39.697" fill="#231F20" font-family="'Arial-Black'" font-size="8.2702">guide for set up. </tspan><tspan x="-59.741" y="49.621" fill="#231F20" font-family="'Arial-Black'" font-size="8.2702">DELETE LAYER AFTER USE.</tspan></text>
	<g>
		<path fill="#EC1E28" d="M548.455,64.975c0,0.565-0.257,1.118-0.77,1.655l-0.081,0.081l-4.491,4.732
			c-0.955,1.001-1.768,1.776-2.438,2.326c-0.671,0.546-1.146,0.82-1.421,0.82c-0.291,0-0.652-0.137-1.084-0.411
			c-0.432-0.272-0.709-0.555-0.836-0.846c-0.106-0.242-0.207-0.756-0.301-1.542c-0.096-0.784-0.143-1.635-0.143-2.55
			c0-0.501,0.209-0.961,0.625-1.387c0.418-0.423,0.877-0.635,1.381-0.635c0.48,0,0.766,0.438,0.857,1.316
			c0.012,0.101,0.018,0.176,0.023,0.225c0.076,0.674,0.166,1.143,0.268,1.409s0.241,0.401,0.414,0.401
			c0.073,0,0.209-0.08,0.408-0.237c0.197-0.157,0.437-0.371,0.713-0.644l4.615-4.57c0.388-0.388,0.733-0.682,1.039-0.881
			c0.305-0.199,0.564-0.299,0.777-0.299c0.16,0,0.273,0.062,0.342,0.183c0.068,0.122,0.102,0.325,0.102,0.611V64.975z"/>
	</g>
	<g>
		<circle fill-rule="evenodd" clip-rule="evenodd" cx="452.262" cy="94.023" r="33.053"/>
		<circle fill-rule="evenodd" clip-rule="evenodd" fill="#B7D333" cx="452.285" cy="94.205" r="30.049"/>
		<g>
			<path d="M445.852,87.653c-0.417,3.682-0.727,6.643-0.934,8.874l-1.369,0.061c0.02-0.074,0.028-0.159,0.031-0.252
				c0.002-0.167-0.059-0.388-0.185-0.661c-0.126-0.271-0.198-0.445-0.216-0.52c-0.354,0.052-0.693,0.298-1.018,0.736
				c-0.324,0.441-0.618,0.662-0.878,0.658c-0.149-0.005-0.317-0.044-0.501-0.121c-0.246,0.163-0.562,0.233-0.955,0.209
				c-0.352-0.063-0.696-0.115-1.031-0.158c-0.012-0.467-0.469-0.874-1.376-1.226c0.004-0.187-0.091-0.463-0.28-0.831
				c-0.189-0.366-0.282-0.623-0.279-0.772c0.002-0.167,0.069-0.306,0.203-0.416c-0.02-0.055-0.173-0.403-0.459-1.043
				c-0.196-0.469-0.292-0.871-0.287-1.205c0.005-0.261,0.064-0.502,0.182-0.724c-0.16-1.587-0.23-2.948-0.21-4.084
				c0.028-1.751,0.278-3.359,0.753-4.824c-0.034-0.225-0.05-0.448-0.047-0.672c0.021-1.174,0.428-1.985,1.215-2.439l0.008-0.363
				c0.781-0.993,1.809-1.712,3.082-2.156c0.764,0.182,1.523,0.353,2.284,0.516c0.853,0.294,1.44,0.797,1.763,1.511
				c0.258,0.154,0.385,0.464,0.377,0.927c-0.009,0.524,0.051,0.861,0.178,1.012l-0.143,0.164c0.148,1.103,0.223,1.775,0.218,2.016
				c-0.013,0.71-0.198,1.209-0.557,1.501c-0.13-0.001-0.473-0.118-1.027-0.353c-0.134,0.128-0.275,0.191-0.423,0.188
				c-0.075-0.001-0.211-0.042-0.404-0.12c-0.193-0.077-0.357-0.115-0.487-0.117c-0.093-0.002-0.187,0.014-0.28,0.049
				c-0.012-1.471,0.035-2.569,0.14-3.295c-0.147-0.096-0.297-0.315-0.449-0.65c-0.153-0.339-0.351-0.529-0.591-0.569
				c-0.152,0.185-0.221,0.305-0.203,0.361l-0.5-0.177c-0.455,0.495-0.759,1.356-0.909,2.583c-0.155,1.415-0.348,2.352-0.578,2.813
				c0.2,0.209,0.299,0.499,0.29,0.872c-0.001,0.129-0.023,0.345-0.066,0.641c-0.043,0.298-0.064,0.522-0.066,0.672
				c-0.002,0.167,0.012,0.316,0.049,0.446l-0.342,0.33c0.138,0.636,0.218,1.439,0.239,2.409c-0.014,0.818-0.02,1.639-0.014,2.458
				c-0.02,0-0.178,0.007-0.476,0.021c-0.186-0.005-0.319,0.059-0.395,0.188c0.111-0.017,0.215-0.024,0.307-0.021
				c0.41,0.005,0.731,0.296,0.963,0.868c0.234,0.572,0.434,0.86,0.602,0.864c0.187,0.001,0.441-0.171,0.765-0.521
				c0.549-0.585,0.833-1.392,0.851-2.416c0.01-0.503-0.047-1.044-0.168-1.623c-0.131,0.071-0.2,0.257-0.205,0.555
				c-0.298-0.004-0.486,0.058-0.562,0.186c-0.129-0.039-0.184-0.143-0.162-0.309c0.021-0.242,0.033-0.374,0.033-0.393
				c0.227-0.068,0.338-0.171,0.342-0.3c0-0.057-0.039-0.161-0.121-0.312c-0.08-0.149-0.119-0.271-0.119-0.365
				c0-0.073,0.021-0.147,0.06-0.223l0.13-1.088c0.409,0.12,1.293,0.171,2.654,0.159c-0.04,0.09,0.014,0.214,0.162,0.363
				c0.131-0.128,0.271-0.191,0.422-0.187c0.11,0.002,0.277,0.051,0.498,0.147C445.601,87.603,445.757,87.652,445.852,87.653z"/>
			<path d="M456.282,97.278c-0.26-0.115-0.538-0.175-0.835-0.182c-0.262-0.004-0.617,0.046-1.066,0.15
				c-0.506,0.103-0.851,0.162-1.037,0.178c-0.199-0.395-0.338-0.937-0.418-1.629c-0.15-1.008-0.246-1.577-0.279-1.711
				c0.059-0.11,0.088-0.203,0.088-0.275c0.004-0.206-0.156-0.391-0.479-0.556c-0.325-0.162-0.485-0.292-0.482-0.386
				c0.001-0.108,0.189-0.274,0.566-0.492c-0.091-0.112-0.158-0.342-0.199-0.687c-0.039-0.346-0.125-0.576-0.253-0.69
				c-0.228,0.202-0.597,0.331-1.11,0.386c-0.514,0.059-0.854,0.141-1.023,0.248c0.011,1.454-0.229,2.43-0.721,2.923
				c-0.26-0.06-0.459,0.04-0.592,0.3c-0.193,0.312-0.355,0.495-0.486,0.549l0.164,0.198c-0.15,0.128-0.395,0.181-0.729,0.156
				c-0.521-0.028-0.801-0.042-0.838-0.042l-0.158-0.508l1.82-15.089c0.018-0.95,0.064-1.595,0.145-1.928
				c-0.023-0.84,0.172-1.358,0.584-1.556c0.259,0.172,0.584,0.261,0.975,0.269c0.318,0.006,0.812-0.061,1.484-0.199
				c0.676-0.137,1.142-0.205,1.402-0.201c0.912,0.018,1.311,0.676,1.197,1.979c-0.093,1.042,0.07,2.415,0.487,4.117
				c0.436,1.835,0.646,3.208,0.63,4.122c-0.006,0.277,0.087,0.857,0.063,1.136c-0.396,0.217-0.899,0.349-1.515,0.393
				c-0.541,0.029-1.093,0.059-1.651,0.084c-0.144-1.419-0.394-3.127-0.538-4.528c-0.176-1.68-0.395-3.061-0.656-4.147l-0.863,7.979
				c-0.066,0.689,0.245,1.04,0.935,1.052c0.224,0.004,0.437-0.049,0.646-0.157c0.168-0.053,0.4,0.071,0.692,0.375
				c-0.011,0.577,0.104,0.924,0.345,1.041c0.303-0.2,0.696-0.39,1.184-0.569c0.431-0.158,0.855-0.31,1.268-0.452
				c0.234,0.321,0.387,0.798,0.451,1.434c0.076,0.896,0.133,1.42,0.168,1.567c0.031,0.355,0.176,1.121,0.435,2.301
				c0.19,0.933,0.279,1.69,0.271,2.268C456.346,96.777,456.322,97.037,456.282,97.278z"/>
			<path d="M469.152,83.967c-0.021,0.057-0.025,0.383-0.016,0.979c-0.01,0.485-0.07,0.847-0.187,1.087
				c-0.139,0.371-0.21,0.902-0.224,1.591c-0.003,0.149,0.002,0.382,0.016,0.698c-0.006,0.318-0.009,0.551-0.011,0.699
				c-0.021,1.174-0.222,2.026-0.604,2.561c0.033,0.301,0.047,0.598,0.044,0.896c-0.017,0.932-0.336,2.185-0.959,3.759
				c-0.169,0.054-0.311,0.077-0.423,0.076c-0.223-0.005-0.383-0.135-0.482-0.387c-0.099-0.253-0.19-0.492-0.279-0.717
				c0.061-1.433,0.031-3.521-0.091-6.264l0.171-0.165c-0.123-0.484-0.178-1.026-0.168-1.622c0.007-0.43,0.061-1.053,0.156-1.871
				c0.1-0.818,0.151-1.434,0.158-1.843c0.006-0.261-0.002-0.511-0.014-0.754c-0.643,1.536-1.097,4.136-1.363,7.802l-0.234,0.556
				c-0.077,0.187-0.237,0.286-0.479,0.301c-0.073-0.131-0.146-0.198-0.22-0.199c-0.057-0.003-0.155,0.065-0.297,0.204
				c-0.144,0.137-0.261,0.195-0.353,0.176l-0.371,0.328c0.164,0.208,0.518,0.232,1.062,0.076c0.429-0.125,0.65,0.038,0.662,0.485
				c0.012,0.372-0.09,0.874-0.305,1.505c-0.217,0.628-0.326,1.102-0.332,1.42c-0.004,0.224,0.021,0.447,0.072,0.67l-1.934,0.303
				c-0.18-0.375-0.313-1.007-0.402-1.894c-0.086-0.884-0.221-1.518-0.4-1.893c0.113-0.128,0.172-0.266,0.174-0.416
				c0.002-0.131-0.049-0.327-0.157-0.589c-0.106-0.265-0.168-0.46-0.186-0.592c-0.015-0.204-0.08-0.701-0.198-1.484
				c-0.082-0.634-0.121-1.131-0.115-1.482c0.004-0.188,0.017-0.355,0.037-0.505c0.002-0.129-0.07-0.321-0.213-0.577
				c-0.146-0.253-0.217-0.436-0.213-0.548c0-0.093,0.038-0.175,0.113-0.249c-0.128-0.152-0.18-0.413-0.154-0.784
				c0.025-0.374-0.027-0.636-0.153-0.785c-0.274,0.72-0.42,1.696-0.442,2.925c-0.01,1.715-0.027,2.704-0.05,2.963l0.193,0.174
				l-0.198,0.161c0.137,0.673,0.198,1.533,0.18,2.575c-0.051,1.882-0.074,2.757-0.073,2.629c-0.265,0.235-0.63,0.352-1.097,0.343
				c-0.576-0.009-0.97,0.041-1.176,0.147c-0.234-0.414-0.348-0.946-0.336-1.598c0.008-0.504,0.094-1.116,0.256-1.842
				c-0.254-0.472-0.373-1.124-0.359-1.963c0.004-0.206,0.029-0.595,0.076-1.174c0.027-0.463,0.032-0.809,0.019-1.032
				c0.187-0.09,0.282-0.189,0.283-0.303c0.003-0.074-0.056-0.202-0.175-0.381c-0.118-0.177-0.176-0.313-0.176-0.408
				c0.003-0.111,0.079-0.222,0.229-0.332l-0.603-9.039c0.359-0.235,0.939-0.347,1.74-0.333c0.875,0.034,1.474-0.013,1.791-0.135
				c0.058-0.039,0.122-0.056,0.197-0.056c0.076,0.003,0.162,0.046,0.264,0.131s0.17,0.129,0.207,0.129
				c0.074,0.001,0.141-0.054,0.199-0.166l0.521,0.515c0.176,0.655,0.341,1.925,0.496,3.808c0.158,1.625,0.406,2.852,0.748,3.677
				c0.457-1.65,0.833-3.033,1.132-4.145l0.606-4.425l4.333-0.095c0.017,0.241,0.069,1.538,0.187,2.286
				c0.099,0.652,0.146,1.185,0.14,1.594c-0.007,0.467-0.079,0.886-0.218,1.255c0.145,0.208,0.217,0.47,0.211,0.784
				C469.385,83.507,469.304,83.764,469.152,83.967z"/>
			<path d="M478.042,93.764l0.001-0.028c-0.115,0.239-0.187,0.519-0.209,0.835c-0.021,0.204-0.028,0.492-0.016,0.865
				c0.011,0.428,0.016,0.727,0.014,0.896c-0.15-0.003-0.746-0.014-1.789-0.03c-0.634-0.011-1.202,0.044-1.708,0.167l-0.521-0.568
				c-0.153,0.146-0.21,0.266-0.175,0.359c-0.092-0.02-0.521-0.026-1.285-0.021c-0.596-0.009-1.043-0.075-1.337-0.19
				c-0.306,0.313-0.659,0.306-1.063-0.018c-0.146-0.113-0.162-0.306-0.047-0.573c0.117-0.269,0.083-0.469-0.1-0.604
				c0.027-0.595,0.109-1.517,0.242-2.764c0.131-1.114,0.2-1.99,0.211-2.623c0.014-0.857-0.045-1.679-0.181-2.463
				c0.21-0.201,0.442-0.3,0.704-0.295c0.299,0.003,0.65,0.15,1.055,0.438c0.568,0.397,0.867,0.602,0.884,0.602l0.163,0.197
				c0.021-0.057,0.119-0.353,0.295-0.89c0.1-0.352,0.244-0.581,0.433-0.691l0.165,0.171c0.075-0.035,0.319-0.209,0.736-0.519
				c0.317-0.22,0.58-0.736,0.766-0.73c0.206,0.001,0.396,0.118,0.581,0.345c0.313,0.171,0.511,0.842,0.609,1.187
				c0.096,0.348,0.188,0.688,0.276,1.027c-0.838,0.022-1.529,0-2.068-0.064c-0.133,0.203-0.32,0.232-0.561,0.089
				c-0.239-0.143-0.416-0.123-0.531,0.059c-0.006,0.337-0.018,0.944-0.031,1.818c-0.033,0.781-0.042,1.396-0.03,1.845
				c0.006,0.689,0.051,1.323,0.134,1.901c0.148,0.004,0.856,0.017,2.123,0.038C476.658,93.544,477.411,93.621,478.042,93.764z
				 M478.102,80.374c-0.168,0.017-0.353,0.022-0.559,0.02c-0.428-0.007-0.996-0.075-1.701-0.198
				c-0.875-0.125-1.404-0.199-1.591-0.222c-0.267,0.386-0.405,0.934-0.419,1.642c-0.025,1.528-0.025,2.189-0.005,1.984
				c0.259,0.153,0.384,0.437,0.376,0.846c-0.028,0.559-0.032,0.849-0.014,0.866c-0.131,0.053-0.2,0.238-0.205,0.555
				c-0.205-0.077-0.416-0.23-0.635-0.458c-0.294-0.285-0.45,0.68-0.428,0.439l-0.178,0.573l-0.164-0.17
				c-0.15,0.017-0.405-0.062-0.765-0.236c-0.362-0.175-0.614-0.334-0.761-0.488c0.006-0.298,0.055-0.465,0.148-0.501l-0.356-0.396
				l-0.171,0.247c-0.21-1.942-0.158-5.571,0.098-7.617c0.708,0.122,1.489,0.202,2.346,0.235c0.578,0.028,1.387,0.042,2.431,0.042
				c1.193,0.001,2.052,0.005,2.573,0.014c0.218,0.208,0.326,0.481,0.32,0.816c-0.002,0.206-0.061,0.536-0.17,0.989
				C478.162,79.813,478.105,80.149,478.102,80.374z"/>
		</g>
		<g>
			<path d="M446.691,110.663v-0.015c0,0.01-0.049,0.422-0.145,1.233c-0.049,0.498-0.168,0.891-0.36,1.176l-0.122-0.098
				c-0.227,0.474-0.533,0.763-0.925,0.865c-0.187,0.196-0.456,0.305-0.808,0.326c-0.209,0.013-0.691-0.049-1.447-0.182
				c-0.366-0.228-0.566-0.354-0.602-0.379c-0.23-0.172-0.34-0.347-0.328-0.526c-0.222-0.226-0.535-0.631-0.652-1.137
				c-0.143-0.562-0.229-0.591-0.361-0.789c-0.211,0.156-0.287-0.174-0.408-0.373l0.109-0.083c-0.068-0.05-0.105-0.106-0.109-0.169
				c-0.002-0.044,0.019-0.108,0.056-0.196c0.04-0.086,0.06-0.15,0.056-0.195c-0.005-0.069-0.046-0.131-0.126-0.178
				c0.085-0.441,0.162-1.103,0.231-1.982c0.15-0.081,0.221-0.234,0.213-0.466c-0.008-0.229,0.025-0.382,0.098-0.456
				c0.354-0.714,0.934-1.194,1.734-1.444c0.044,0.005,0.258,0.001,0.644-0.011c0.264-0.007,0.464,0.016,0.599,0.071
				c0.24-0.042,0.48,0.018,0.72,0.171c0.208,0.157,0.417,0.312,0.622,0.47c0.389,0.42,0.599,0.897,0.63,1.427
				c0.01,0.175-0.002,0.363-0.034,0.559c-0.287-0.008-0.49,0.179-0.611,0.569l-1.117,0.104c-0.119-0.17-0.189-0.397-0.205-0.681
				c-0.006-0.097-0.004-0.239,0-0.424c0.005-0.188,0.006-0.329,0-0.426c-0.018-0.292-0.085-0.521-0.206-0.694l-0.335,0.192
				c-0.137-0.054-0.205-0.133-0.212-0.239c-0.002-0.035,0.003-0.088,0.016-0.153c0.013-0.069,0.019-0.114,0.017-0.142
				c-0.006-0.114-0.109-0.183-0.309-0.21c-0.137,1.259-0.178,2.552-0.123,3.878c0.035,0.043,0.142,0.071,0.318,0.09
				c0.145,0.017,0.219,0.062,0.222,0.131c0.003,0.028-0.005,0.063-0.026,0.109l-0.109,0.086c0.059,0.093,0.096,0.227,0.105,0.394
				c0.004,0.087,0.002,0.223-0.01,0.406c-0.012,0.183-0.015,0.318-0.01,0.405c0.017,0.265,0.082,0.466,0.201,0.602
				c-0.012,0.193,0.068,0.328,0.236,0.396c0.107-0.041,0.205-0.062,0.295-0.068c0.34-0.021,0.576,0.166,0.709,0.556
				c0.001,0.01-0.002,0.075-0.004,0.201c0.004,0.071,0.039,0.116,0.106,0.14c0.148-0.09,0.222-0.249,0.22-0.479
				c-0.003-0.265,0.031-0.436,0.102-0.51c-0.018-0.124-0.09-0.302-0.22-0.532c-0.13-0.233-0.196-0.414-0.206-0.548
				c-0.008-0.141,0.035-0.275,0.125-0.404c-0.078-0.024-0.113-0.074-0.107-0.155c0.004-0.125,0.006-0.191,0.006-0.199
				C445.447,110.526,446.066,110.522,446.691,110.663z"/>
			<path d="M451.749,111.7h-0.014c-0.065,0.126-0.085,0.311-0.063,0.548c0.031,0.336,0.048,0.509,0.048,0.517
				c-0.05,0.021-0.12-0.006-0.204-0.074c-0.13,0.049-0.193,0.131-0.186,0.245c0,0.018,0.008,0.046,0.021,0.086
				c0.001,0.049,0.005,0.082,0.005,0.099c0.006,0.09-0.021,0.157-0.08,0.203c-0.148-0.082-0.344-0.135-0.584-0.159
				c-0.244-0.021-0.475-0.044-0.689-0.063c-0.004-1.121-0.154-2.22-0.453-3.289c0,0.008-0.006-0.101-0.02-0.334
				c0.002-0.164-0.035-0.281-0.111-0.352l-0.102,0.092c-0.002-0.017,0.031-0.047,0.101-0.097s0.104-0.1,0.1-0.149
				c-0.003-0.024-0.009-0.049-0.021-0.071l-0.112-0.081c-0.19,0.062-0.278,0.216-0.265,0.459c0.01,0.165-0.057,0.281-0.194,0.346
				c0.054,0.039,0.081,0.089,0.083,0.145c0.004,0.033-0.001,0.08-0.014,0.139c-0.013,0.057-0.018,0.102-0.015,0.137
				c0.003,0.071,0.044,0.132,0.117,0.177c0.004,0.05,0.028,0.494,0.077,1.333c0.031,0.534,0.016,0.987-0.043,1.361l0.012,0.209
				c-0.072-0.003-0.155-0.001-0.246,0.002c-0.102,0.008-0.25,0.022-0.443,0.047c-0.191,0.023-0.336,0.037-0.427,0.043
				c-0.378,0.021-0.644-0.043-0.796-0.19l-0.159-4.604c-0.075-0.225-0.124-0.541-0.147-0.943l-0.051-0.889
				c-0.036-0.435-0.092-0.769-0.167-1.003c0.032-0.16,0.171-0.246,0.416-0.26c0.153-0.009,0.358,0.011,0.618,0.063
				c0.119-0.055,0.287-0.09,0.502-0.104c0.061-0.006,0.158-0.006,0.291-0.006c0.143-0.008,0.245-0.014,0.306-0.018
				c0.4-0.021,0.663-0.145,0.794-0.367c0.186-0.003,0.386,0.057,0.604,0.175c0.215,0.12,0.406,0.185,0.57,0.189
				c0.436,0.255,0.669,0.679,0.705,1.271c0.008,0.132-0.045,0.654-0.156,1.567l-0.746,0.648c0.127,0.232,0.279,0.738,0.457,1.521
				C451.217,110.918,451.443,111.396,451.749,111.7z M450.369,106.461l0.016,0.011c0.015,0.057,0.008-0.146-0.02-0.603
				c-0.012-0.223-0.094-0.383-0.244-0.482c-0.084,0.12,0.013,0.177-0.028,0.454c-0.038,0.279-0.204,0.201-0.3,0.322
				c-0.256,0-0.314,0.154-0.37-0.09c-0.114-0.398-0.214-0.363-0.215-0.37l-0.108,0.064c-0.04,0.035-0.084,0.074-0.132,0.12
				c-0.048,0.045-0.099,0.058-0.15,0.046c0.003,0.05-0.021,0.126-0.071,0.232s-0.074,0.178-0.072,0.22
				c0.006,0.075,0.063,0.129,0.18,0.164c-0.021,0.165-0.026,0.339-0.018,0.52c0.007,0.098,0.029,0.324,0.071,0.676
				c0.047,0.277,0.065,0.516,0.056,0.713c0.094,0.003,0.18,0.003,0.262-0.001c0.358-0.021,0.591-0.163,0.698-0.424
				c0.036-0.075,0.077-0.352,0.122-0.823C450.084,106.854,450.192,106.603,450.369,106.461z"/>
			<path d="M457.553,113.488c-0.146-0.043-0.301-0.058-0.465-0.048c-0.143,0.008-0.335,0.044-0.576,0.106
				c-0.275,0.065-0.462,0.106-0.562,0.119c-0.125-0.165-0.22-0.399-0.287-0.699c-0.119-0.439-0.19-0.687-0.213-0.743
				c0.029-0.05,0.041-0.093,0.039-0.127c-0.006-0.09-0.102-0.164-0.282-0.225c-0.185-0.058-0.276-0.11-0.278-0.15
				c-0.002-0.049,0.094-0.128,0.294-0.238c-0.055-0.048-0.098-0.146-0.132-0.298c-0.035-0.149-0.088-0.246-0.164-0.292
				c-0.117,0.099-0.314,0.17-0.594,0.216c-0.279,0.043-0.463,0.093-0.555,0.149c0.059,0.638,0,1.762-0.251,1.998
				c-0.144-0.016-0.247,0.035-0.314,0.156c-0.095,0.145-0.177,0.232-0.245,0.262l0.096,0.079c-0.079,0.064-0.21,0.096-0.393,0.099
				c-0.287,0.008-0.439,0.012-0.461,0.013l-0.104-0.218l0.431-7.402c-0.023-0.418-0.02-0.703,0.011-0.853
				c-0.042-0.369,0.048-0.606,0.267-0.71c0.148,0.066,0.328,0.092,0.543,0.08c0.173-0.01,0.444-0.057,0.807-0.146
				c0.363-0.087,0.617-0.134,0.761-0.143c0.5-0.028,0.741,0.245,0.724,0.823c-0.015,0.462,0.123,1.06,0.412,1.794
				c0.302,0.789,0.463,1.387,0.486,1.791c0.008,0.122,0.173,0.385,0.17,0.509c-0.211,0.11-0.482,0.187-0.817,0.231
				c-0.296,0.035-0.595,0.069-0.901,0.103c-0.128-0.619-0.418-1.371-0.545-1.984c-0.156-0.732-0.324-1.331-0.504-1.802l-0.195,3.55
				c-0.012,0.306,0.172,0.447,0.549,0.426c0.121-0.007,0.238-0.039,0.348-0.095c0.092-0.029,0.221,0.017,0.392,0.138
				c0.015,0.256,0.091,0.405,0.228,0.445c0.157-0.1,0.367-0.199,0.627-0.296c0.23-0.087,0.457-0.171,0.678-0.249
				c0.142,0.132,0.238,0.337,0.299,0.612c0.072,0.394,0.121,0.619,0.146,0.686c0.029,0.154,0.136,0.487,0.318,0.996
				c0.138,0.403,0.213,0.733,0.228,0.987C457.568,113.263,457.566,113.379,457.553,113.488z"/>
			<path d="M461.783,105.089h0.015c-0.122,0.181-0.278,0.215-0.47,0.103c-0.041-0.008-0.226,0.004-0.553,0.031
				c-0.274,0.017-0.475,0.001-0.602-0.04c-0.029,0.004-0.091,0.033-0.178,0.091c-0.09,0.062-0.153,0.089-0.195,0.092
				c-0.061,0.006-0.096-0.048-0.102-0.155c-0.002-0.015-0.006-0.086-0.012-0.208c-0.005-0.082-0.045-0.139-0.117-0.167l-0.191,0.148
				c-0.059,0.044-0.088,0.09-0.084,0.14c0.002,0.04,0.037,0.099,0.104,0.174c0.064,0.074,0.104,0.128,0.115,0.158
				c0.002,0.026,0.023,0.396,0.064,1.11c0.015,0.455,0.1,0.816,0.248,1.087c0.037-0.043,0.131-0.067,0.279-0.07
				c0.148-0.005,0.246-0.037,0.295-0.098c0.098,0.083,0.258,0.09,0.484,0.015c0.228-0.076,0.391-0.052,0.49,0.076l-0.03,1.091
				c-0.093-0.013-0.229-0.057-0.407-0.136c-0.053,0.158-0.154,0.26-0.305,0.3c-0.062,0.021-0.234,0.038-0.52,0.055
				c0.008-0.05-0.037-0.101-0.134-0.151c-0.277,0.132-0.384,0.446-0.313,0.945c0.008-0.051,0.018,0.036,0.031,0.258
				c0.008,0.139-0.021,0.241-0.09,0.302c-0.174,0.025-0.393-0.013-0.66-0.116c-0.266-0.104-0.458-0.153-0.57-0.146
				c-0.05,0.003-0.098,0.01-0.137,0.021l-0.287,0.09l-0.459-4.981l-0.055-0.949c0.381-0.128,0.854-0.21,1.416-0.242
				c0.439-0.025,1.014-0.021,1.723,0.011c0.045-0.093,0.129,0.028,0.232,0.024c0.051-0.004,0.127,0.002,0.23,0.016
				c0.104,0.015,0.182,0.021,0.233,0.018c0.06-0.003,0.115-0.015,0.165-0.033l0.072-0.08c0.209,0.062,0.318,0.173,0.327,0.327
				c0.005,0.066-0.017,0.18-0.059,0.338c-0.04,0.159-0.06,0.281-0.056,0.362C461.73,104.968,461.75,105.034,461.783,105.089z
				 M459.99,113.402c-0.108,0.057-0.277,0.089-0.502,0.104c-0.295,0.017-0.473,0.032-0.535,0.043
				c-0.031-0.031-0.07-0.006-0.137-0.266c-0.043-0.171-0.15-0.252-0.322-0.24c-0.042,0.002-0.091,0.009-0.152,0.02l-0.276,0.018
				l-0.147-2.522c0.151-0.073,0.338-0.117,0.562-0.131c0.215-0.012,0.405,0.01,0.571,0.064c-0.003,0.093,0.127,0.132,0.392,0.113
				l0.292-0.018C459.908,111.298,460.016,112.577,459.99,113.402z"/>
			<path d="M467.91,105.306l0.016,0.012c-0.145-0.01-0.606,0.022-0.963,0.066c-0.305,0.035-0.535,0.041-0.689,0.017
				c-0.148,0.1-0.203,0.234-0.162,0.403l0.095,0.057c-0.078,0.073-0.105,0.127-0.081,0.167l0.081,0.081
				c-0.019,1.462-0.022,2.27-0.012,2.426c0.021,0.387,0.066,0.726,0.134,1.02c-0.061,0.185-0.084,0.396-0.069,0.635
				c0.009,0.154,0.045,0.402,0.11,0.741c0.067,0.338,0.154,1.45,0.165,1.624c0.007,0.129,0.005,0.255-0.009,0.369
				c-0.142,0.059-0.293,0.092-0.456,0.103c-0.276,0.016-0.571-0.041-0.888-0.172c-0.037,0.035-0.081,0.072-0.131,0.113
				c-0.048,0.04-0.061,0.085-0.037,0.133c-0.102,0.028-0.243-0.012-0.424-0.125c-0.097-1.479-0.359-4.493-0.752-7.538
				c-0.139,0.124-0.393,0.021-0.656,0.054c-0.315,0.034-0.625-0.015-0.745,0.042c-0.153-0.164-0.119-0.213-0.134-0.483
				c-0.017-0.263-0.102-0.911-0.033-1.182c0.014-0.06,0.586-0.025,0.923-0.054c0.459-0.025,0.561,0.083,0.591,0.08
				c0.037-0.059,0.262-0.029,0.424-0.04c0.105,0.051,0.221-0.047,0.224,0.028c0.005,0.049,0,0.359-0.034,0.448
				c-0.036,0.09-0.053,0.155-0.051,0.195c0.006,0.099,0.077-0.046,0.243,0.011c0.185-0.004,0.374-0.011,0.567-0.021
				c0.217,0.02,0.466-0.058,0.446,0.125c0.037-0.053,0.062,0.039,0.371-0.086c0.229-0.105,0.37-0.374,0.325-0.559
				c-0.025-0.102,0.113-0.168,0.026-0.12c0.111-0.062,0.011-0.019,0.131-0.067c0.383,0.038,0.593-0.002,0.665-0.006
				c0.154-0.01,0.535,0.088,0.643,0.033c0.08,0.144,0.121,0.594,0.125,0.841C467.901,105.07,467.909,105.28,467.91,105.306z"/>
			<path d="M472.875,110.45l-0.002-0.012c-0.055,0.109-0.084,0.235-0.084,0.376c-0.008,0.09,0,0.218,0.021,0.384
				c0.022,0.187,0.034,0.317,0.039,0.393c-0.083,0.004-0.41,0.021-0.982,0.058c-0.346,0.02-0.655,0.065-0.929,0.141l-0.306-0.231
				c-0.077,0.071-0.104,0.127-0.081,0.166c-0.051-0.005-0.287,0.009-0.705,0.041c-0.328,0.02-0.574,0.008-0.741-0.031
				c-0.154,0.148-0.349,0.16-0.581,0.033c-0.084-0.043-0.1-0.127-0.045-0.251c0.054-0.123,0.027-0.21-0.078-0.261
				c-0.004-0.263,0.008-0.672,0.037-1.227c0.034-0.497,0.041-0.886,0.024-1.166c-0.022-0.377-0.085-0.736-0.185-1.077
				c0.107-0.097,0.231-0.147,0.374-0.155c0.163-0.012,0.36,0.04,0.595,0.148c0.326,0.155,0.494,0.232,0.504,0.232l0.097,0.079
				c0.009-0.022,0.052-0.159,0.13-0.404c0.043-0.157,0.113-0.265,0.213-0.318l0.096,0.067c0.04-0.018,0.17-0.104,0.385-0.256
				c0.168-0.11,0.283-0.511,0.387-0.516c0.11-0.007,0.222,0.036,0.33,0.128c0.177,0.064,0.318,0.514,0.383,0.662
				c0.064,0.149,0.128,0.296,0.188,0.44c-0.459,0.043-0.839,0.062-1.135,0.054c-0.066,0.096-0.169,0.116-0.304,0.062
				c-0.137-0.055-0.233-0.037-0.291,0.049c0.01,0.146,0.025,0.413,0.047,0.8c0.011,0.346,0.025,0.616,0.047,0.812
				c0.027,0.304,0.076,0.581,0.142,0.835c0.082-0.007,0.472-0.028,1.165-0.067C472.107,110.409,472.522,110.413,472.875,110.45z
				 M472.399,104.651c-0.091,0.013-0.194,0.024-0.308,0.028c-0.232,0.015-0.543,0.009-0.938-0.019
				c-0.482-0.021-0.775-0.033-0.879-0.036c-0.131,0.183-0.149,0.328-0.131,0.641c0.039,0.673,0.062,0.965,0.066,0.874
				c0.146,0.058,0.227,0.178,0.235,0.359c0.005,0.246,0.011,0.371,0.022,0.381c-0.07,0.026-0.1,0.113-0.094,0.253
				c-0.113-0.027-0.234-0.086-0.363-0.178c-0.172-0.113-0.225,0.289-0.221,0.183l-0.077,0.252l-0.097-0.071
				c-0.08,0.014-0.223-0.011-0.426-0.074c-0.203-0.062-0.35-0.124-0.434-0.185c-0.006-0.13,0.013-0.205,0.062-0.226l-0.209-0.162
				l-0.084,0.118c-0.182-0.849-0.305-2.342-0.234-3.253c0.391,0.027,0.848-0.039,1.316-0.059c0.316-0.011,0.763-0.035,1.334-0.077
				c0.653-0.046,1.121-0.078,1.406-0.095c0.129,0.084,0.199,0.2,0.206,0.347c0.007,0.092-0.013,0.238-0.058,0.442
				C472.451,104.301,472.395,104.551,472.399,104.651z"/>
			<path d="M477.971,109.574l-0.015,0.002c-0.063,0.128-0.085,0.311-0.062,0.546c0.031,0.338,0.045,0.511,0.047,0.519
				c-0.051,0.021-0.119-0.004-0.205-0.074c-0.131,0.049-0.192,0.131-0.186,0.246c0.002,0.017,0.008,0.043,0.02,0.084
				c0.003,0.05,0.005,0.082,0.007,0.1c0.005,0.09-0.022,0.157-0.081,0.203c-0.148-0.083-0.344-0.136-0.586-0.159
				c-0.242-0.022-0.471-0.046-0.688-0.067c-0.004-1.118-0.154-2.215-0.451-3.287c0,0.01-0.008-0.102-0.02-0.332
				c0-0.164-0.037-0.281-0.113-0.352l-0.102,0.093c0-0.016,0.031-0.049,0.102-0.098c0.067-0.05,0.102-0.1,0.1-0.149
				c-0.004-0.024-0.01-0.049-0.021-0.074l-0.112-0.081c-0.19,0.062-0.279,0.214-0.263,0.462c0.008,0.164-0.059,0.281-0.197,0.346
				c0.053,0.038,0.082,0.086,0.086,0.143c0.002,0.034-0.004,0.079-0.016,0.136c-0.012,0.06-0.018,0.105-0.016,0.14
				c0.004,0.072,0.043,0.133,0.117,0.179c0.004,0.05,0.029,0.492,0.078,1.331c0.031,0.534,0.018,0.989-0.044,1.362l0.014,0.21
				c-0.071-0.004-0.154-0.004-0.247,0.003c-0.102,0.006-0.25,0.02-0.443,0.043c-0.193,0.024-0.334,0.039-0.428,0.044
				c-0.376,0.021-0.643-0.04-0.794-0.189l-0.16-4.604c-0.075-0.227-0.124-0.541-0.147-0.943l-0.052-0.888
				c-0.035-0.436-0.089-0.771-0.165-1.005c0.031-0.158,0.17-0.245,0.414-0.259c0.155-0.01,0.359,0.011,0.619,0.063
				c0.121-0.058,0.287-0.093,0.501-0.104c0.062-0.004,0.159-0.005,0.291-0.005c0.144-0.008,0.247-0.015,0.308-0.019
				c0.398-0.021,0.664-0.146,0.795-0.366c0.184-0.001,0.385,0.056,0.6,0.174c0.217,0.121,0.408,0.184,0.575,0.189
				c0.433,0.256,0.669,0.679,0.702,1.272c0.007,0.132-0.045,0.654-0.155,1.568l-0.747,0.646c0.127,0.233,0.279,0.739,0.459,1.52
				C477.438,108.794,477.668,109.271,477.971,109.574z M476.59,104.337l0.017,0.011c0.014,0.057,0.007-0.146-0.019-0.603
				c-0.014-0.226-0.096-0.384-0.244-0.481c-0.084,0.118-0.102-0.161-0.141,0.118c-0.04,0.279-0.107,0.478-0.202,0.6
				c-0.257-0.001-0.316-0.154-0.47-0.369c-0.096-0.136-0.141-0.018-0.141-0.025l-0.07,0.056c-0.039,0.036-0.082,0.075-0.131,0.12
				c-0.049,0.044-0.1,0.059-0.152,0.045c0.004,0.049-0.021,0.128-0.07,0.233c-0.049,0.104-0.074,0.179-0.072,0.221
				c0.006,0.074,0.064,0.126,0.181,0.163c-0.022,0.165-0.028,0.339-0.019,0.521c0.008,0.098,0.029,0.322,0.071,0.675
				c0.046,0.277,0.065,0.516,0.058,0.714c0.093,0.004,0.179,0.002,0.261-0.003c0.356-0.021,0.59-0.162,0.697-0.423
				c0.035-0.077,0.077-0.353,0.122-0.824C476.306,104.728,476.416,104.479,476.59,104.337z"/>
		</g>
		<g>
			<path d="M427.168,88.339v0.012c-0.045,0.428-0.061,0.724-0.044,0.885c-0.065,0.027-0.153,0.031-0.257,0.014
				c-0.137-0.022-0.215-0.033-0.236-0.032c-0.061,0.003-0.107,0.024-0.143,0.062c-0.086-0.054-0.143-0.076-0.172-0.068
				c-0.08,0.049-0.117,0.117-0.113,0.207c0.003,0.038,0.017,0.102,0.045,0.193c0.025,0.094,0.041,0.159,0.043,0.204
				c0.002,0.061-0.009,0.153-0.037,0.282c-0.025,0.128-0.037,0.232-0.034,0.315c0.006,0.096,0.025,0.249,0.063,0.456
				c0.036,0.206,0.057,0.362,0.062,0.466c-0.042,0.203-0.058,0.409-0.048,0.618c0.014,0.253,0.084,0.592,0.209,1.019
				c0.023,0.007,0.045,0.01,0.068,0.007c0.051-0.002,0.113-0.039,0.185-0.11c0.071-0.068,0.132-0.104,0.185-0.107
				c0.037-0.003,0.078,0.005,0.123,0.025c0.136,0.434,0.205,0.714,0.211,0.84c0.003,0.061,0.002,0.124-0.001,0.189
				c-0.2,0.049-0.341-0.02-0.425-0.201c0.012-0.053-0.018-0.108-0.086-0.165l-0.224,0.236c0.218,0.033,0.304,0.2,0.261,0.5
				c-0.021,0.062-0.066,0.095-0.142,0.098c-0.128-0.002-0.187-0.002-0.179-0.002l-0.184-0.327l-0.074,0.093
				c-0.061-0.153-0.131-0.227-0.213-0.222c-0.045,0.003-0.123,0.039-0.234,0.11c-0.113,0.074-0.206,0.111-0.279,0.114
				c-0.061,0.006-0.119-0.011-0.182-0.044c-0.005-0.09-0.015-0.182-0.031-0.279c-0.016-0.096-0.066-0.157-0.148-0.183
				c-0.005-0.233,0.003-0.839,0.02-1.825c0.008-0.746,0-1.351-0.024-1.812c-0.01-0.193-0.022-0.383-0.04-0.567
				c-0.039-0.058-0.078-0.086-0.115-0.083c-0.03,0.001-0.076,0.032-0.135,0.096c-0.061,0.062-0.113,0.091-0.158,0.086
				c-0.004-0.074-0.038-0.194-0.102-0.358c-0.064-0.164-0.098-0.282-0.104-0.357c-0.006-0.127,0.041-0.237,0.141-0.331l0.262,0.062
				c0.104-0.146,0.147-0.393,0.13-0.743c-0.003-0.066-0.013-0.175-0.026-0.318c-0.017-0.145-0.025-0.249-0.029-0.316
				c-0.027-0.573,0.148-0.869,0.527-0.889c0.141-0.008,0.312,0.018,0.518,0.075l0.25,0.065c0.02,0.096,0.032,0.194,0.037,0.3
				c0.006,0.143,0.002,0.349-0.02,0.622c-0.02,0.274-0.025,0.474-0.02,0.599c0.01,0.202,0.043,0.384,0.105,0.545
				c0.059-0.004,0.152-0.037,0.281-0.098c0.127-0.063,0.219-0.096,0.279-0.099C427.018,88.189,427.103,88.236,427.168,88.339z
				 M426.391,89.139l-0.013-0.256l-0.081-0.075L426.391,89.139z"/>
			<path d="M430.236,87.535l0.012-0.001c-0.027,0.203-0.058,0.406-0.092,0.609c-0.04,0.232-0.106,0.415-0.197,0.547
				c-0.015-0.007-0.107-0.049-0.273-0.132c-0.116-0.061-0.219-0.085-0.307-0.074c-0.068,0.438-0.104,1.031-0.111,1.785
				c-0.004,0.962-0.013,1.544-0.023,1.745c-0.113-0.008-0.196,0.027-0.252,0.109c-0.057,0.081-0.107,0.162-0.156,0.248
				c-0.02,0.046-0.028,0.087-0.027,0.124c0.003,0.06,0.055,0.118,0.154,0.171c0.1,0.055,0.15,0.115,0.154,0.183
				c-0.043,0.159-0.139,0.242-0.279,0.249c-0.065,0.003-0.183-0.018-0.35-0.06c-0.164-0.045-0.281-0.065-0.35-0.062l-0.161-3.191
				c0.063-0.084,0.091-0.143,0.082-0.171l-0.093-0.062c0.008-0.135,0.016-0.806,0.021-2.006c0.005-0.813,0.035-1.471,0.092-1.974
				c-0.006,0.001,0.223-0.015,0.69-0.046c0.29-0.015,0.479,0.066,0.562,0.241c0.001,0.163-0.016,0.438-0.049,0.829
				c-0.033,0.359-0.047,0.637-0.037,0.83c0.014,0.238,0.05,0.451,0.112,0.643C429.609,87.732,429.902,87.553,430.236,87.535z
				 M431.346,88.218c0.021,0.297,0.039,0.587,0.055,0.871c0.062,1.234,0.043,2.556-0.058,3.963
				c-0.106,0.096-0.272,0.115-0.496,0.062c-0.222-0.053-0.383-0.03-0.482,0.062c-0.128-0.164-0.202-0.46-0.224-0.894
				c-0.032-0.625-0.048-0.948-0.049-0.971c-0.027-1.563,0.127-2.829,0.458-3.793C430.936,87.619,431.199,87.852,431.346,88.218z"/>
			<path d="M435.262,89.839c-0.049,0.1-0.068,0.204-0.062,0.314c0.004,0.113,0.01,0.221,0.017,0.326
				c-0.013,0.089-0.036,0.179-0.076,0.273c-0.067-0.021-0.124-0.029-0.17-0.027c-0.052,0.003-0.104,0.021-0.157,0.058
				c-0.055,0.038-0.098,0.057-0.127,0.057c-0.046,0.004-0.105-0.014-0.182-0.046l-0.52-0.756c0.02,0.222,0.07,0.417,0.152,0.585
				c0.042,0.086,0.084,0.174,0.125,0.26c-0.303,0.056-0.475,0.064-0.514,0.027l-0.072,0.094l-0.18-0.236
				c-0.141,0.171-0.174,0.421-0.097,0.754c0.093,0.36,0.098,0.62,0.017,0.782c0.113,0.166,0.246,0.244,0.403,0.236
				c0.067-0.004,0.124-0.027,0.176-0.075c0.073-0.185,0.146-0.366,0.219-0.55c0.108-0.221,0.229-0.335,0.362-0.342
				c0.104-0.006,0.227,0.049,0.367,0.162c0.166,0.059,0.253,0.136,0.258,0.231c0.002,0.061-0.035,0.159-0.114,0.29
				c-0.079,0.137-0.117,0.24-0.114,0.315c0.003,0.028,0.007,0.054,0.016,0.078c-0.107,0.078-0.203,0.199-0.289,0.359
				c-0.086,0.162-0.197,0.272-0.336,0.332c-0.121,0.116-0.233,0.179-0.338,0.184c-0.082,0.004-0.204-0.06-0.367-0.188
				c-0.162-0.131-0.314-0.189-0.457-0.185c-0.058-0.13-0.203-0.277-0.435-0.436c-0.231-0.159-0.376-0.333-0.43-0.516
				c0.001,0.015-0.002-0.045-0.008-0.178c-0.005-0.075-0.036-0.123-0.097-0.142l0.084-0.082c-0.113-0.003-0.17-0.065-0.176-0.193
				c-0.002-0.014-0.003-0.045-0.006-0.09c0.006-0.037,0.008-0.066,0.007-0.09c-0.004-0.089-0.034-0.149-0.087-0.186l-0.02-0.389
				c-0.011-0.202-0.051-0.346-0.125-0.432c0.074-0.472,0.148-0.947,0.221-1.42c0.121-0.55,0.303-0.833,0.539-0.844
				c0.039-0.001,0.074,0.004,0.112,0.015c0.216-0.21,0.473-0.324,0.778-0.341c0.334-0.016,0.705,0.087,1.111,0.304
				C434.989,88.655,435.186,89.224,435.262,89.839z M433.723,88.605l-0.074,0.095c-0.051,0.009-0.113-0.017-0.182-0.08l0.012,0.256
				c-0.113,0.125-0.158,0.318-0.139,0.579c0.022,0.446,0.033,0.661,0.033,0.646l0.334-0.004c0.16-0.091,0.234-0.239,0.224-0.448
				c-0.005-0.104-0.04-0.275-0.109-0.515C433.754,88.896,433.721,88.722,433.723,88.605z"/>
		</g>
		<g>
			<polygon fill-rule="evenodd" clip-rule="evenodd" points="437.883,101.097 438.216,101.288 439.344,98.328 438.967,98.203 
				437.84,101.164 438.168,101.373 437.883,101.097 437.883,101.097 			"/>
			<polygon fill-rule="evenodd" clip-rule="evenodd" points="438.377,100.688 438.24,100.741 437.883,101.097 438.168,101.373 
				438.531,100.997 438.389,101.069 438.377,100.688 438.377,100.688 			"/>
			<polygon fill-rule="evenodd" clip-rule="evenodd" points="441.105,100.665 441.267,100.538 438.377,100.688 438.389,101.069 
				441.279,100.922 441.463,100.784 441.105,100.665 441.105,100.665 441.105,100.665 			"/>
			<polygon fill-rule="evenodd" clip-rule="evenodd" points="442.411,97.943 442.214,97.698 441.105,100.665 441.463,100.784 
				442.59,97.823 442.395,97.578 442.411,97.943 442.411,97.943 442.411,97.943 			"/>
			<polygon fill-rule="evenodd" clip-rule="evenodd" points="439.658,98.037 439.515,98.108 442.411,97.943 442.395,97.578 
				439.51,97.708 439.367,97.78 439.658,98.037 439.658,98.037 439.658,98.037 			"/>
			<polygon fill-rule="evenodd" clip-rule="evenodd" points="439.344,98.328 439.301,98.393 439.658,98.037 439.367,97.78 
				439.008,98.138 438.967,98.203 439.344,98.328 439.344,98.328 439.344,98.328 			"/>
			<polygon fill-rule="evenodd" clip-rule="evenodd" points="441.743,101.017 442,100.901 441.381,100.558 441.184,100.909 
				441.821,101.26 442.102,101.136 441.725,101.011 441.725,101.011 441.743,101.017 			"/>
			<polygon fill-rule="evenodd" clip-rule="evenodd" points="442.953,98.283 442.852,98.05 441.725,101.011 442.102,101.136 
				443.227,98.175 443.125,97.943 442.953,98.283 442.953,98.283 			"/>
			<polygon fill-rule="evenodd" clip-rule="evenodd" points="442.59,97.823 442.311,97.948 442.953,98.283 443.125,97.943 
				442.507,97.598 442.214,97.698 442.59,97.823 442.59,97.823 			"/>
			<polygon points="439.164,98.271 439.146,98.264 439.504,97.905 442.186,97.775 442.214,97.698 442.411,97.763 442.59,97.823 
				442.578,97.855 443.049,98.115 443.227,98.175 443.154,98.367 444.467,101.487 443.356,104.454 441.922,101.077 441.922,101.077 
				441.736,101.153 441.725,101.011 441.738,100.975 441.286,100.726 441.184,100.909 441.127,100.732 438.377,100.865 
				438.019,101.224 			"/>
			<polygon fill-rule="evenodd" clip-rule="evenodd" points="443.178,104.394 443.541,104.376 442.106,100.999 441.736,101.153 
				443.172,104.532 443.536,104.514 443.16,104.388 443.16,104.388 443.178,104.394 			"/>
			<polygon fill-rule="evenodd" clip-rule="evenodd" points="444.3,101.572 444.287,101.428 443.16,104.388 443.536,104.514 
				444.663,101.555 444.651,101.412 444.3,101.572 444.3,101.572 			"/>
			<polygon fill-rule="evenodd" clip-rule="evenodd" points="443.227,98.175 442.863,98.193 444.3,101.572 444.651,101.412 
				443.217,98.032 442.852,98.05 443.227,98.175 443.227,98.175 			"/>
			<polygon fill-rule="evenodd" clip-rule="evenodd" fill="#FFFFFF" points="443.133,98.938 443.293,99.29 443.352,99.646 
				443.335,99.997 443.232,100.362 443.055,100.719 442.81,101.035 442.494,101.325 442.112,101.577 441.904,101.667 
				441.695,101.755 441.463,101.797 441.248,101.845 441.041,101.872 440.813,101.896 440.605,101.868 440.391,101.856 
				440.205,101.814 440.01,101.747 439.818,101.665 439.652,101.569 439.51,101.463 439.348,101.349 439.218,101.206 439.11,101.05 
				438.947,100.7 438.889,100.342 438.889,99.985 439.01,99.627 439.164,99.281 439.414,98.948 439.73,98.656 440.129,98.413 
				440.32,98.317 440.547,98.233 440.76,98.187 440.975,98.14 441.201,98.114 441.409,98.086 441.619,98.114 441.833,98.128 
				442.029,98.19 442.226,98.258 442.404,98.317 442.588,98.42 442.738,98.509 442.893,98.639 443.001,98.794 443.133,98.938 
				443.133,98.938 443.133,98.938 			"/>
			<polygon fill-rule="evenodd" clip-rule="evenodd" points="443.273,99.522 443.436,99.875 443.488,100.249 443.473,100.601 
				443.375,100.946 443.215,101.31 442.946,101.636 442.654,101.917 442.255,102.16 442.041,102.267 441.833,102.355 
				441.617,102.402 441.387,102.447 441.178,102.476 440.975,102.488 440.76,102.476 440.533,102.44 440.349,102.397 
				440.151,102.333 439.979,102.255 439.795,102.153 439.646,102.063 439.508,101.938 439.372,101.813 439.252,101.636 
				439.086,101.302 439.027,100.943 439.049,100.573 439.146,100.229 439.307,99.865 439.552,99.549 439.867,99.257 440.266,99.015 
				440.48,98.907 440.684,98.834 440.903,98.77 441.137,98.729 441.338,98.716 441.547,98.688 441.756,98.716 441.969,98.729 
				442.173,98.776 442.369,98.841 442.542,98.919 442.732,99.005 442.875,99.109 443.037,99.222 443.143,99.378 443.27,99.54 
				443.27,99.54 443.273,99.522 			"/>
			<polygon fill-rule="evenodd" clip-rule="evenodd" fill="#FFFFFF" points="443.375,99.933 443.544,100.267 443.597,100.642 
				443.577,100.995 443.483,101.338 443.305,101.696 443.053,102.028 442.762,102.309 442.363,102.552 442.166,102.666 
				441.939,102.75 441.725,102.797 441.492,102.839 441.284,102.87 441.082,102.881 440.865,102.87 440.64,102.833 440.456,102.79 
				440.259,102.726 440.087,102.647 439.902,102.547 439.754,102.456 439.598,102.326 439.484,102.188 439.359,102.028 
				439.193,101.696 439.133,101.335 439.15,100.985 439.252,100.622 439.413,100.26 439.663,99.926 439.99,99.658 440.373,99.406 
				440.588,99.301 440.796,99.21 441.012,99.163 441.243,99.121 441.451,99.093 441.654,99.08 441.887,99.098 442.078,99.121 
				442.28,99.171 442.477,99.236 442.666,99.317 442.834,99.414 442.982,99.505 443.143,99.616 443.25,99.772 443.375,99.933 
				443.375,99.933 			"/>
			<polygon fill-rule="evenodd" clip-rule="evenodd" points="443.519,100.516 443.68,100.868 443.74,101.227 443.74,101.581 
				443.619,101.939 443.465,102.285 443.196,102.612 442.899,102.913 442.5,103.155 442.309,103.249 442.082,103.333 
				441.867,103.382 441.654,103.427 441.426,103.452 441.219,103.48 441.01,103.452 440.796,103.44 440.593,103.394 
				440.396,103.326 440.223,103.249 440.039,103.148 439.896,103.04 439.754,102.935 439.622,102.79 439.496,102.63 
				439.354,102.284 439.275,101.921 439.295,101.569 439.396,101.206 439.568,100.865 439.818,100.533 440.135,100.241 
				440.516,99.992 440.725,99.901 440.934,99.812 441.166,99.771 441.381,99.723 441.589,99.693 441.81,99.688 442.022,99.7 
				442.221,99.705 442.424,99.753 442.619,99.819 442.81,99.901 442.977,99.997 443.139,100.11 443.281,100.22 443.412,100.362 
				443.512,100.534 443.512,100.534 443.519,100.516 			"/>
			<polygon fill-rule="evenodd" clip-rule="evenodd" fill="#FFFFFF" points="443.728,100.901 443.895,101.238 443.953,101.595 
				443.947,101.97 443.852,102.315 443.674,102.673 443.405,103 443.113,103.28 442.732,103.53 442.518,103.638 442.291,103.721 
				442.076,103.769 441.861,103.814 441.635,103.84 441.434,103.853 441.219,103.84 441.01,103.81 440.808,103.763 440.611,103.696 
				440.438,103.618 440.266,103.542 440.104,103.427 439.967,103.303 439.837,103.159 439.729,103.006 439.561,102.672 
				439.49,102.291 439.508,101.938 439.622,101.599 439.783,101.237 440.032,100.901 440.344,100.629 440.725,100.38 
				440.938,100.272 441.146,100.182 441.374,100.159 441.594,100.093 441.803,100.063 442.022,100.058 442.238,100.07 
				442.428,100.093 442.631,100.142 442.846,100.213 443.018,100.289 443.191,100.367 443.352,100.48 443.488,100.606 
				443.621,100.75 443.728,100.901 443.728,100.901 			"/>
			<polygon fill-rule="evenodd" clip-rule="evenodd" points="443.889,101.494 444.031,101.839 444.109,102.202 444.09,102.554 
				443.988,102.917 443.816,103.257 443.565,103.591 443.25,103.884 442.868,104.133 442.66,104.222 442.433,104.305 
				442.221,104.352 442.006,104.4 441.797,104.43 441.57,104.452 441.361,104.425 441.146,104.411 440.963,104.369 440.748,104.298 
				440.574,104.22 440.408,104.126 440.246,104.013 440.104,103.904 439.973,103.761 439.865,103.607 439.705,103.256 
				439.628,102.893 439.646,102.54 439.766,102.182 439.92,101.836 440.17,101.503 440.486,101.211 440.886,100.968 
				441.076,100.873 441.303,100.79 441.518,100.741 441.731,100.696 441.959,100.67 442.166,100.641 442.375,100.67 
				442.572,100.677 442.793,100.731 442.988,100.797 443.162,100.875 443.328,100.969 443.488,101.082 443.631,101.189 
				443.762,101.333 443.889,101.494 443.889,101.494 443.889,101.494 			"/>
			<polygon fill-rule="evenodd" clip-rule="evenodd" points="424.19,96.947 424.209,96.834 423.075,99.812 423.434,99.93 
				424.566,96.952 424.571,96.876 424.19,96.947 424.19,96.947 424.19,96.947 			"/>
			<polygon fill-rule="evenodd" clip-rule="evenodd" points="424.16,96.796 424.166,96.78 424.19,96.947 424.571,96.876 
				424.53,96.702 424.537,96.685 424.16,96.796 424.16,96.796 424.16,96.796 			"/>
			<polygon fill-rule="evenodd" clip-rule="evenodd" points="424.119,96.625 424.16,96.796 424.537,96.685 424.494,96.511 
				424.119,96.625 424.119,96.625 424.119,96.625 			"/>
			<polygon fill-rule="evenodd" clip-rule="evenodd" points="424.071,96.471 424.119,96.625 424.494,96.511 424.447,96.357 
				424.071,96.471 424.071,96.471 			"/>
			<polygon fill-rule="evenodd" clip-rule="evenodd" points="424.029,96.297 424.029,96.297 424.071,96.471 424.447,96.357 
				424.404,96.186 424.4,96.203 424.029,96.297 424.029,96.297 424.029,96.297 			"/>
			<polygon fill-rule="evenodd" clip-rule="evenodd" points="423.982,96.083 423.982,96.144 424.029,96.297 424.4,96.203 
				424.353,96.047 424.37,96.112 423.982,96.083 423.982,96.083 			"/>
			<polygon fill-rule="evenodd" clip-rule="evenodd" points="424.363,96.011 423.988,95.945 423.982,96.083 424.37,96.112 
				424.375,95.977 424,95.909 424.357,96.029 424.357,96.029 424.363,96.011 			"/>
			<polygon fill-rule="evenodd" clip-rule="evenodd" fill="#4C4849" points="424.689,104.679 424.652,104.487 424.255,104.554 
				424.283,104.763 424.689,104.679 424.689,104.679 424.689,104.679 			"/>
			<polygon fill-rule="evenodd" clip-rule="evenodd" points="425.518,102.196 425.529,102.101 424.402,105.062 424.761,105.18 
				425.887,102.219 425.881,102.117 425.518,102.196 425.518,102.196 425.518,102.196 			"/>
			<polygon fill-rule="evenodd" clip-rule="evenodd" points="425.488,101.986 425.518,102.196 425.881,102.117 425.852,101.91 
				425.471,101.981 425.471,101.981 425.488,101.986 			"/>
			<polygon fill-rule="evenodd" clip-rule="evenodd" points="425.436,101.792 425.471,101.981 425.852,101.91 425.799,101.714 
				425.436,101.792 425.436,101.792 425.436,101.792 			"/>
			<polygon fill-rule="evenodd" clip-rule="evenodd" points="425.388,101.577 425.399,101.599 425.436,101.792 425.799,101.714 
				425.769,101.503 425.78,101.529 425.388,101.577 425.388,101.577 425.388,101.577 			"/>
			<polygon fill-rule="evenodd" clip-rule="evenodd" points="425.745,101.397 425.363,101.349 425.388,101.577 425.78,101.529 
				425.75,101.322 425.369,101.273 425.745,101.397 425.745,101.397 			"/>
			<g>
				<polygon fill="#4C4849" points="423.076,99.221 422.896,99.275 423.076,99.221 				"/>
				<polygon fill="#4C4849" points="423.266,99.841 423.272,99.825 423.365,99.832 423.434,99.93 423.267,99.876 				"/>
				<polygon points="422.854,99.104 423.047,99.065 423.053,98.93 424.186,95.954 424.18,95.97 424.18,96.09 424.209,96.239 
					424.269,96.418 424.316,96.573 424.357,96.744 424.387,96.894 424.387,96.894 424.566,96.952 423.434,99.93 423.365,99.832 
					423.272,99.825 423.266,99.841 423.267,99.876 423.434,99.93 423.268,99.921 423.272,100.057 423.157,99.914 423.064,99.907 
					423.039,99.74 423.107,99.726 423.182,99.534 422.992,99.587 422.938,99.448 422.896,99.275 423.076,99.221 423.076,99.221 
					422.896,99.275 422.902,99.257 				"/>
			</g>
			<g>
				<polygon fill="none" points="432.078,99.917 432.078,99.917 432.24,99.553 				"/>
				<polygon points="423.26,99.676 431.555,99.403 431.768,99.414 431.805,99.429 432.007,99.477 432.025,99.483 432.24,99.553 
					432.449,99.644 432.466,99.648 432.663,99.773 432.699,99.784 432.854,99.917 432.901,99.953 433.015,100.089 433.025,100.113 
					433.104,100.238 433.109,100.28 432.744,100.39 432.686,100.299 432.682,100.316 432.586,100.185 432.587,100.185 
					432.459,100.083 432.49,100.113 432.287,100.007 432.288,100.004 432.078,99.917 432.078,99.917 431.899,99.855 431.697,99.811 
					431.734,99.821 431.542,99.797 431.542,99.779 423.272,100.057 				"/>
				<polygon points="432.735,100.395 432.744,100.39 432.764,100.423 				"/>
			</g>
			<polygon fill-rule="evenodd" clip-rule="evenodd" points="437.166,107.353 437.166,107.235 436.032,110.213 436.408,110.338 
				437.541,107.358 437.541,107.242 437.166,107.353 437.166,107.353 437.166,107.353 			"/>
			<polygon fill-rule="evenodd" clip-rule="evenodd" points="433.893,97.461 433.867,97.415 437.166,107.353 437.541,107.242 
				434.242,97.301 434.235,97.262 433.893,97.461 433.893,97.461 433.893,97.461 			"/>
			<polygon fill-rule="evenodd" clip-rule="evenodd" points="433.824,97.363 433.814,97.339 433.893,97.461 434.235,97.262 
				434.16,97.136 434.142,97.127 433.807,97.356 433.807,97.356 433.824,97.363 			"/>
			<polygon fill-rule="evenodd" clip-rule="evenodd" points="433.748,97.236 433.718,97.207 433.807,97.356 434.142,97.127 
				434.016,96.97 433.986,96.938 433.748,97.236 433.748,97.236 433.748,97.236 			"/>
			<polygon fill-rule="evenodd" clip-rule="evenodd" points="433.616,97.153 433.588,97.123 433.748,97.236 433.986,96.938 
				433.824,96.826 433.796,96.795 433.616,97.153 433.616,97.153 			"/>
			<polygon fill-rule="evenodd" clip-rule="evenodd" points="433.438,97.033 433.42,97.028 433.616,97.153 433.796,96.795 
				433.594,96.688 433.575,96.683 433.438,97.033 433.438,97.033 			"/>
			<polygon fill-rule="evenodd" clip-rule="evenodd" points="433.248,96.951 433.205,96.955 433.438,97.033 433.575,96.683 
				433.367,96.593 433.35,96.588 433.225,96.962 433.225,96.962 433.248,96.951 			"/>
			<polygon fill-rule="evenodd" clip-rule="evenodd" points="433.033,96.88 433.01,96.891 433.225,96.962 433.35,96.588 
				433.134,96.517 433.134,96.517 433.025,96.896 433.025,96.896 433.033,96.88 			"/>
			<polygon fill-rule="evenodd" clip-rule="evenodd" points="432.866,96.842 432.83,96.831 433.025,96.896 433.134,96.517 
				432.914,96.463 432.896,96.456 432.866,96.842 432.866,96.842 432.866,96.842 			"/>
			<polygon fill-rule="evenodd" clip-rule="evenodd" points="432.675,96.819 432.669,96.835 432.866,96.842 432.896,96.456 
				432.688,96.425 432.663,96.438 432.675,96.819 432.675,96.819 			"/>
			<polygon fill-rule="evenodd" clip-rule="evenodd" points="424.584,96.959 424.381,97.088 432.675,96.819 432.663,96.438 
				424.387,96.716 424.209,96.834 424.566,96.952 424.566,96.952 424.584,96.959 			"/>
			<polygon fill="#4C4849" points="426.667,106.015 426.639,105.998 426.656,105.99 			"/>
			<g>
				<polygon fill="#4C4849" points="431.146,107.354 431.113,107.756 431.146,107.354 				"/>
				<g>
					<polygon fill="none" points="431.131,107.546 431.113,107.756 431.131,107.546 					"/>
					<g>
						<polygon fill="none" points="424.409,104.322 424.422,104.292 424.429,104.33 						"/>
						<path d="M424.283,104.763l0.036,0.19l0.072,0.204l0.089,0.148l0.507,0.269l0.506,0.267l0.488,0.264l0.495,0.243l0.018,0.007
							l0.501,0.225l0.5,0.229l0.542,0.219l0.549,0.203l0.018,0.006l0.584,0.154l0.583,0.155l0.019,0.007l0.645,0.096l0.66,0.103
							l0.02,0.005l0.719,0.04l0.025-0.011l0.768,0.02l0.822-0.026l0.871-0.046l0.179-0.119l1.126-2.96l-0.19-0.263l0.012,0.383
							l-0.06-0.075l0.043-0.111l-0.125,0.009l-0.054-0.067l-0.028,0.074l-0.646,0.037h-0.834l-0.77-0.016l-0.702-0.037l-0.685-0.09
							l-0.638-0.111l-0.585-0.156l-0.584-0.155l-0.547-0.203l-0.531-0.198l-0.5-0.226l-0.494-0.243l-0.514-0.251l-0.488-0.263
							l-0.488-0.262l-0.338-0.18l0.01-0.03l-0.178-0.06l0,0l-0.047-0.213l-0.037-0.191l-0.014-0.065l0.134-0.292l-0.188-0.062
							l-0.01-0.004l0,0l-0.178-0.058l-1.127,2.96l-0.012,0.096l0.029,0.207L424.283,104.763z M424.422,104.292l0.007,0.038
							l-0.02-0.008L424.422,104.292z"/>
					</g>
				</g>
			</g>
			<polygon fill-rule="evenodd" clip-rule="evenodd" points="434.574,104.82 435.444,104.773 435.433,104.391 434.562,104.439 
				434.574,104.82 434.574,104.82 434.574,104.82 			"/>
			<polygon fill-rule="evenodd" clip-rule="evenodd" points="433.753,104.845 434.574,104.82 434.562,104.439 433.74,104.464 
				433.753,104.845 433.753,104.845 433.753,104.845 			"/>
			<polygon fill-rule="evenodd" clip-rule="evenodd" points="432.967,104.82 432.984,104.824 433.753,104.845 433.74,104.464 
				432.973,104.444 432.996,104.433 432.959,104.836 432.959,104.836 432.967,104.82 			"/>
			<polygon fill-rule="evenodd" clip-rule="evenodd" points="432.227,104.773 432.245,104.776 432.959,104.836 432.996,104.433 
				432.275,104.39 432.293,104.396 432.227,104.773 432.227,104.773 432.227,104.773 			"/>
			<polygon fill-rule="evenodd" clip-rule="evenodd" points="431.56,104.688 432.227,104.773 432.293,104.396 431.631,104.294 
				431.56,104.688 431.56,104.688 			"/>
			<polygon fill-rule="evenodd" clip-rule="evenodd" points="430.903,104.568 430.922,104.576 431.56,104.688 431.631,104.294 
				430.97,104.192 430.988,104.198 430.903,104.568 430.903,104.568 430.903,104.568 			"/>
			<polygon fill-rule="evenodd" clip-rule="evenodd" points="430.32,104.412 430.903,104.568 430.988,104.198 430.404,104.044 
				430.312,104.432 430.312,104.432 430.32,104.412 			"/>
			<polygon fill-rule="evenodd" clip-rule="evenodd" points="429.712,104.271 429.73,104.276 430.312,104.432 430.404,104.044 
				429.82,103.889 429.838,103.896 429.712,104.271 429.712,104.271 			"/>
			<polygon fill-rule="evenodd" clip-rule="evenodd" points="429.164,104.066 429.164,104.066 429.712,104.271 429.838,103.896 
				429.289,103.692 429.309,103.697 429.148,104.062 429.148,104.062 429.164,104.066 			"/>
			<polygon fill-rule="evenodd" clip-rule="evenodd" points="428.622,103.847 429.148,104.062 429.309,103.697 428.783,103.482 
				428.622,103.847 428.622,103.847 			"/>
			<polygon fill-rule="evenodd" clip-rule="evenodd" points="428.121,103.619 428.622,103.847 428.783,103.482 428.277,103.273 
				428.121,103.619 428.121,103.619 			"/>
			<polygon fill-rule="evenodd" clip-rule="evenodd" points="427.609,103.369 427.621,103.395 428.121,103.619 428.277,103.273 
				427.766,103.026 427.782,103.031 427.604,103.388 427.604,103.388 427.609,103.369 			"/>
			<polygon fill-rule="evenodd" clip-rule="evenodd" points="427.115,103.126 427.604,103.388 427.782,103.031 427.287,102.786 
				427.109,103.143 427.109,103.143 427.115,103.126 			"/>
			<polygon fill-rule="evenodd" clip-rule="evenodd" points="426.626,102.863 427.109,103.143 427.287,102.786 426.8,102.525 
				426.607,102.859 426.607,102.859 426.626,102.863 			"/>
			<polygon fill-rule="evenodd" clip-rule="evenodd" points="426.12,102.595 426.607,102.859 426.8,102.525 426.311,102.26 
				426.12,102.595 426.12,102.595 			"/>
			<polygon fill-rule="evenodd" clip-rule="evenodd" points="425.887,102.219 425.613,102.326 426.12,102.595 426.311,102.26 
				425.805,101.993 425.529,102.101 425.887,102.219 425.887,102.219 425.887,102.219 			"/>
			<polygon fill-rule="evenodd" clip-rule="evenodd" points="477.537,96.854 476.403,99.833 480.104,101.067 480.962,99.089 
				480.985,98.899 480.992,98.701 480.962,98.492 480.891,98.29 480.771,98.112 480.676,97.921 480.521,97.73 480.361,97.559 
				480.193,97.403 480.009,97.242 479.818,97.098 479.633,96.997 479.454,96.878 479.246,96.788 479.061,96.687 478.883,96.628 
				478.723,96.574 478.529,96.55 478.358,96.534 478.191,96.557 478.023,96.581 477.846,96.639 477.689,96.746 477.537,96.854 
				477.537,96.854 477.537,96.854 			"/>
			<polygon fill-rule="evenodd" clip-rule="evenodd" points="479.937,100.972 480.169,100.871 476.469,99.637 476.344,100.012 
				480.045,101.245 480.293,101.149 479.937,100.972 479.937,100.972 			"/>
			<g>
				<polygon fill="none" points="480.65,101.829 480.674,102.031 480.65,101.829 				"/>
				<polygon fill="none" points="482.56,99.836 482.695,99.966 482.547,99.861 				"/>
				<g>
					<polygon fill="none" points="482.695,99.966 482.547,99.861 482.56,99.836 					"/>
					<g>
						<polygon fill="none" points="482.695,99.966 482.547,99.861 482.56,99.836 						"/>
						<polygon points="422.854,98.925 422.873,98.869 424,95.909 424.357,96.029 423.264,98.954 423.242,99.072 423.237,99.03 
							422.854,99.104 422.85,99.062 						"/>
						<g>
							<polygon fill="none" points="482.695,99.966 482.547,99.861 482.56,99.836 							"/>
							<polygon fill="#4C4849" points="440.998,105.933 440.932,105.971 440.926,105.966 							"/>
							<g>
								<polygon fill="none" points="441.069,106.104 441.211,106.24 441.069,106.104 								"/>
								<polygon fill="none" points="482.695,99.966 482.547,99.861 482.56,99.836 								"/>
								<polygon fill="none" points="436.212,110.271 436.225,110.271 436.225,110.277 436.032,110.213 436.193,110.214 								"/>
								<path d="M422.992,99.587l0.041,0.172l0.006-0.019l0.289-0.06l-0.073,0.191l8.294-0.271l0.195,0.006l0.216,0.073l0.214,0.068
									l0.215,0.074l0.196,0.124l0.161,0.113l0.113,0.139l0.07,0.137l-0.194,0.06l3.297,9.938l0.194,0.002l0.004,0.122h0.297
									l0.28-0.006l0.257,0.006l0.232-0.04l0.236-0.062l0.24-0.115l0.219-0.186l0.263-0.251l0.006-0.019l0.149-0.207l0.172-0.221
									l0.198-0.231l0.138-0.233l0.173-0.28l0.179-0.238l0.147-0.266l0.19-0.276l0.155-0.227l0.222-0.243l0.18-0.238l0.208-0.21
									l0.183-0.195l0.199-0.174l0.189-0.153l0.221-0.124l0.047-0.025l-0.142-0.136l0,0l0.142,0.136l0.222-0.243l0.202-0.193
									l0.179-0.176l0.192-0.156l0.185-0.136l0.194-0.114l0.174-0.1l0.19-0.096l0.214-0.049l0.209-0.088l0.215-0.048l0.25-0.036
									l0.273-0.049l0.305-0.018l0.328-0.028l0.32-0.013l0.02,0.008l35.791-2.675l0.21-0.027l0.19-0.038l0.173-0.041l0.179-0.06
									l0.166-0.083l0.175-0.103l0.144-0.13l0.166-0.144l0.035-0.047l0.625-1.459l-0.324-0.21l0.143,0.142l-0.023,0.019
									l-0.158-0.111l-0.155,0.365l-0.106,0.062l-0.137,0.055l-0.16,0.064l-0.15,0.03l-0.189,0.036l-0.191,0.035l-35.811,2.668
									l-0.229,0.022l-0.219,0.007l-0.219,0.006l-0.234,0.038h-0.238l-0.207,0.032l-0.228,0.023l-0.208,0.031l-0.232,0.041
									l-0.209,0.029l-0.213,0.047l-0.239,0.061l-0.216,0.047l-0.227,0.084l-0.227,0.084l-0.214,0.106l-0.423,0.256l-0.43,0.394
									l-0.451,0.464l-0.438,0.53l-0.422,0.554l-0.363,0.495l-0.357,0.477l-0.297,0.358l-0.175,0.04l-0.149,0.03l-0.185,0.019
									h-0.179h-0.18l-0.154-0.013l-0.195-0.007l-0.174-0.019l-3.286-9.914l-0.071-0.143l-0.113-0.137l-0.16-0.113l-0.216-0.131
									l-0.208-0.09l-0.215-0.073l-0.203-0.047l-0.196-0.006l-8.288,0.254l-0.996,2.619l-0.006-0.035L422.992,99.587z
									 M482.547,99.861l0.013-0.025l0.136,0.13L482.547,99.861z"/>
							</g>
						</g>
					</g>
				</g>
			</g>
			<polygon fill-rule="evenodd" clip-rule="evenodd" points="481.295,100.592 481.509,100.542 481.699,100.508 481.873,100.464 
				482.053,100.405 482.219,100.321 482.392,100.222 482.527,100.108 482.695,99.966 482.412,99.69 482.284,99.828 482.154,99.925 
				482.027,100.001 481.891,100.054 481.76,100.09 481.605,100.138 481.439,100.161 481.254,100.179 481.295,100.592 
				481.295,100.592 			"/>
			<polygon fill-rule="evenodd" clip-rule="evenodd" points="445.508,103.247 481.295,100.592 481.254,100.179 445.461,102.853 
				445.508,103.247 445.508,103.247 			"/>
			<polygon fill-rule="evenodd" clip-rule="evenodd" points="441.998,103.882 442.207,103.793 442.41,103.721 442.654,103.644 
				442.857,103.572 443.077,103.508 443.286,103.479 443.495,103.447 443.727,103.407 443.918,103.369 444.138,103.365 
				444.365,103.341 444.592,103.318 444.816,103.294 445.02,103.282 445.264,103.264 445.508,103.247 445.461,102.853 
				445.233,102.876 445.01,102.899 444.771,102.899 444.543,102.924 444.322,102.931 444.109,102.978 443.887,102.982 443.644,103 
				443.428,103.049 443.215,103.096 442.982,103.138 442.743,103.197 442.541,103.269 442.297,103.345 442.053,103.423 
				441.838,103.529 441.998,103.882 441.998,103.882 441.998,103.882 			"/>
			<polygon fill-rule="evenodd" clip-rule="evenodd" points="438.792,107.418 438.869,107.365 439.031,107.18 439.174,106.99 
				439.346,106.771 439.525,106.531 439.729,106.282 439.914,106.024 440.121,105.757 440.33,105.49 440.545,105.204 
				440.764,104.959 440.98,104.732 441.199,104.487 441.385,104.291 441.617,104.133 441.809,103.978 441.998,103.882 
				441.838,103.529 441.594,103.668 441.385,103.814 441.142,104.013 440.91,104.233 440.694,104.459 440.479,104.686 
				440.242,104.983 440.032,105.251 439.824,105.519 439.615,105.787 439.432,106.044 439.227,106.293 439.049,106.531 
				438.875,106.752 438.734,106.943 438.602,107.098 438.674,107.06 438.792,107.418 438.792,107.418 438.792,107.418 			"/>
			<polygon fill="none" points="477.459,97.026 477.537,96.854 477.679,96.724 477.894,96.616 478.145,96.581 478.281,96.586 
				478.437,96.599 478.584,96.628 478.733,96.657 478.912,96.719 479.074,96.772 479.246,96.849 479.431,96.95 479.586,97.021 
				479.747,97.136 479.889,97.242 480.046,97.374 480.206,97.485 480.318,97.623 480.457,97.748 480.569,97.886 480.777,98.153 
				480.885,98.428 480.938,98.565 480.969,98.655 480.95,98.888 480.907,99.071 480.775,99.226 480.586,99.32 480.33,99.374 
				480.188,99.388 480.039,99.356 479.866,99.339 479.682,99.297 479.52,99.243 479.342,99.183 479.15,99.103 478.982,99.005 
				478.812,98.927 478.625,98.826 478.465,98.715 478.311,98.581 478.166,98.475 478.019,98.327 477.887,98.183 477.775,98.044 
				477.592,97.764 477.481,97.492 477.453,97.402 477.422,97.253 			"/>
			<polygon fill-rule="evenodd" clip-rule="evenodd" fill="#FFFFFF" points="431.937,96.652 432.675,96.64 432.735,96.64 
				426.39,94.524 426.068,94.714 431.93,96.67 431.93,96.67 431.937,96.652 			"/>
			<polygon fill-rule="evenodd" clip-rule="evenodd" fill="#FFFFFF" points="431.937,96.652 424.387,96.894 424.357,96.744 
				424.316,96.573 424.269,96.418 424.209,96.239 424.18,96.09 424.18,95.97 424.227,95.827 424.357,95.731 424.668,95.519 
				425.012,95.315 425.357,95.112 425.704,94.91 426.033,94.7 426.068,94.714 431.93,96.67 431.93,96.67 431.937,96.652 			"/>
			<polygon fill="#FFFFFF" points="427.347,101.237 432.49,100.947 434.502,101.758 435.212,103.86 435.428,104.587 434.574,104.64 
				433.74,104.64 432.971,104.624 432.269,104.587 431.584,104.497 430.946,104.386 430.361,104.229 429.777,104.074 
				429.23,103.871 428.699,103.673 428.199,103.447 427.705,103.204 427.191,102.953 426.703,102.69 426.215,102.429 
				425.709,102.159 425.662,101.946 425.625,101.755 425.578,101.541 425.547,101.331 			"/>
			<polygon fill-rule="evenodd" clip-rule="evenodd" fill="#FFFFFF" points="440.301,101.825 440.373,101.91 441.034,102.309 
				441.248,101.965 440.587,101.564 440.652,101.665 440.301,101.825 440.324,101.872 440.373,101.91 440.301,101.825 
				440.301,101.825 			"/>
			<polygon fill-rule="evenodd" clip-rule="evenodd" fill="#FFFFFF" points="434.42,101.949 434.307,101.812 435.249,104.646 
				435.623,104.533 434.684,101.697 434.58,101.584 434.684,101.697 434.652,101.608 434.58,101.584 434.42,101.949 434.42,101.949 
				434.42,101.949 			"/>
			<polygon fill-rule="evenodd" clip-rule="evenodd" fill="#FFFFFF" points="432.508,101.134 432.412,101.12 434.42,101.949 
				434.58,101.584 432.574,100.757 432.496,100.751 432.574,100.757 432.537,100.745 432.496,100.751 432.508,101.134 
				432.508,101.134 432.508,101.134 			"/>
			<polygon fill-rule="evenodd" clip-rule="evenodd" fill="#FFFFFF" points="425.75,101.322 425.561,101.534 432.508,101.134 
				432.496,100.751 425.549,101.153 425.363,101.349 425.549,101.153 425.327,101.157 425.363,101.349 425.75,101.322 
				425.75,101.322 			"/>
			<polygon fill-rule="evenodd" clip-rule="evenodd" fill="#FFFFFF" points="425.805,101.993 425.881,102.117 425.875,102.017 
				425.852,101.91 425.846,101.809 425.816,101.719 425.811,101.618 425.786,101.512 425.756,101.421 425.75,101.322 
				425.363,101.349 425.362,101.469 425.381,101.594 425.41,101.681 425.418,101.783 425.446,101.872 425.471,101.981 
				425.512,102.095 425.518,102.196 425.613,102.326 425.518,102.196 425.547,102.284 425.613,102.326 425.805,101.993 
				425.805,101.993 			"/>
			<polygon fill-rule="evenodd" clip-rule="evenodd" fill="#FFFFFF" points="435.253,104.629 435.414,104.386 434.562,104.439 
				433.74,104.464 432.996,104.433 432.275,104.39 431.631,104.294 430.988,104.198 430.404,104.044 429.838,103.896 
				429.289,103.692 428.783,103.482 428.277,103.273 427.782,103.031 427.287,102.786 426.8,102.525 426.311,102.26 
				425.805,101.993 425.613,102.326 426.12,102.595 426.607,102.859 427.109,103.143 427.604,103.388 428.121,103.619 
				428.622,103.847 429.164,104.066 429.712,104.271 430.312,104.432 430.903,104.568 431.56,104.688 432.245,104.776 
				432.959,104.836 433.753,104.845 434.574,104.82 435.461,104.778 435.623,104.533 435.461,104.778 435.707,104.761 
				435.623,104.533 435.249,104.646 435.249,104.646 435.253,104.629 			"/>
			<g>
				<polygon fill="none" points="438.848,107.147 438.994,107.289 438.848,107.147 				"/>
				<polygon fill="none" points="437.529,107.098 437.495,107.099 437.495,107.099 				"/>
				<polygon fill="none" points="434.295,97.458 439.51,99.199 434.295,97.458 				"/>
			</g>
			<polygon fill-rule="evenodd" clip-rule="evenodd" fill="#FFFFFF" points="445.461,102.853 445.199,102.864 444.906,102.906 
				444.645,102.917 444.359,102.939 444.086,102.988 443.793,103.031 443.5,103.073 443.22,103.138 442.939,103.204 442.697,103.28 
				442.428,103.369 442.178,103.465 441.963,103.572 441.707,103.686 441.498,103.835 441.307,103.988 441.547,104.288 
				441.73,104.149 441.91,104.03 442.105,103.917 442.332,103.835 442.553,103.71 442.791,103.65 443.07,103.585 443.316,103.508 
				443.584,103.479 443.822,103.417 444.109,103.395 444.383,103.348 444.675,103.305 444.96,103.28 445.229,103.252 
				445.508,103.247 445.461,102.853 445.461,102.853 445.461,102.853 			"/>
			<polygon fill-rule="evenodd" clip-rule="evenodd" fill="#FFFFFF" points="481.254,100.179 445.461,102.853 445.508,103.247 
				481.295,100.592 481.254,100.179 481.254,100.179 			"/>
			<polygon fill-rule="evenodd" clip-rule="evenodd" fill="#FFFFFF" points="481.922,97.998 482.07,98.207 482.225,98.399 
				482.298,98.602 482.41,98.798 482.469,98.977 482.488,99.16 482.492,99.321 482.481,99.477 482.439,99.602 482.38,99.721 
				482.302,99.834 482.164,99.947 482.022,100.021 481.795,100.103 481.559,100.161 481.254,100.179 481.295,100.592 
				481.623,100.56 481.91,100.477 482.158,100.381 482.38,100.259 482.583,100.125 482.725,99.934 482.803,99.762 482.875,99.548 
				482.869,99.327 482.88,99.114 482.832,98.899 482.754,98.656 482.666,98.445 482.547,98.207 482.392,97.958 482.237,97.767 
				481.922,97.998 481.922,97.998 			"/>
			<polygon fill-rule="evenodd" clip-rule="evenodd" fill="#FFFFFF" points="477.654,95.96 477.978,95.948 478.305,95.979 
				478.639,96.051 478.959,96.099 479.264,96.2 479.568,96.301 479.859,96.438 480.135,96.57 480.42,96.724 480.682,96.891 
				480.963,97.064 481.164,97.229 481.379,97.421 481.588,97.63 481.76,97.826 481.922,97.998 482.237,97.767 482.053,97.547 
				481.844,97.339 481.635,97.127 481.403,96.933 481.147,96.748 480.891,96.563 480.629,96.396 480.332,96.216 480.021,96.075 
				479.705,95.948 479.383,95.842 479.045,95.728 478.709,95.656 478.369,95.603 477.981,95.573 477.645,95.577 477.654,95.96 
				477.654,95.96 			"/>
			<polygon fill-rule="evenodd" clip-rule="evenodd" fill="#FFFFFF" points="445.986,97.051 477.654,95.96 477.645,95.577 
				445.992,96.675 445.986,97.051 445.986,97.051 			"/>
			<polygon fill-rule="evenodd" clip-rule="evenodd" fill="#FFFFFF" points="440.988,96.255 441.285,96.376 441.602,96.442 
				441.906,96.542 442.221,96.608 442.553,96.682 442.863,96.764 443.203,96.816 443.508,96.858 443.824,96.926 444.15,96.954 
				444.473,97.002 444.789,97.008 445.092,97.05 445.415,97.037 445.705,97.058 445.986,97.051 445.992,96.675 445.693,96.675 
				445.402,96.657 445.127,96.646 444.818,96.623 444.508,96.597 444.199,96.573 443.896,96.531 443.574,96.484 443.258,96.418 
				442.955,96.376 442.645,96.294 442.322,96.246 442.013,96.16 441.684,96.072 441.409,96.001 441.107,95.899 440.982,96.274 
				440.982,96.274 440.988,96.255 			"/>
			<polygon fill-rule="evenodd" clip-rule="evenodd" fill="#FFFFFF" points="430.305,93.329 430.847,93.251 431.357,93.202 
				431.848,93.166 432.295,93.138 432.718,93.119 433.1,93.167 433.492,93.18 433.82,93.209 434.16,93.263 434.477,93.33 
				434.773,93.39 435.043,93.479 435.328,93.573 435.553,93.668 435.834,93.781 436.055,93.895 436.311,94.022 436.566,94.146 
				436.817,94.29 437.068,94.433 437.318,94.574 437.58,94.743 437.837,94.867 438.116,95.04 438.426,95.184 438.724,95.362 
				439.057,95.493 439.379,95.66 439.741,95.82 440.136,95.954 440.554,96.13 440.982,96.274 441.107,95.899 440.678,95.756 
				440.255,95.596 439.902,95.457 439.533,95.314 439.195,95.141 438.902,95.005 438.604,94.824 438.312,94.688 438.026,94.533 
				437.759,94.384 437.508,94.241 437.246,94.073 436.996,93.931 436.738,93.807 436.484,93.682 436.25,93.543 435.995,93.419 
				435.715,93.305 435.452,93.198 435.167,93.103 434.863,93.002 434.547,92.937 434.227,92.888 433.873,92.811 433.511,92.768 
				433.135,92.764 432.699,92.757 432.283,92.756 431.8,92.772 431.311,92.81 430.795,92.874 430.258,92.935 430.287,93.321 
				430.287,93.321 430.305,93.329 			"/>
			<polygon fill-rule="evenodd" clip-rule="evenodd" fill="#FFFFFF" points="424.459,95.906 424.768,95.689 425.113,95.486 
				425.46,95.286 425.811,95.065 426.133,94.875 426.497,94.678 426.837,94.493 427.188,94.333 427.564,94.161 427.938,93.987 
				428.309,93.834 428.69,93.702 429.102,93.603 429.477,93.487 429.888,93.388 430.287,93.321 430.258,92.935 429.81,93.022 
				429.387,93.102 428.97,93.219 428.576,93.326 428.184,93.491 427.777,93.636 427.41,93.792 427.033,93.964 426.652,94.154 
				426.289,94.351 425.948,94.535 425.603,94.736 425.256,94.94 424.911,95.141 424.585,95.351 424.256,95.558 424.439,95.899 
				424.439,95.899 424.459,95.906 			"/>
			<polygon fill-rule="evenodd" clip-rule="evenodd" fill="#FFFFFF" points="424.387,96.716 424.59,96.881 424.53,96.702 
				424.494,96.511 424.447,96.357 424.404,96.186 424.381,96.076 424.363,96.011 424.393,95.923 424.439,95.899 424.256,95.558 
				424.084,95.718 423.993,95.928 423.97,96.119 424.029,96.297 424.071,96.471 424.119,96.625 424.166,96.78 424.195,96.93 
				424.381,97.088 424.195,96.93 424.203,97.088 424.381,97.088 424.387,96.716 424.387,96.716 			"/>
			<g>
				<polygon fill="none" points="439.008,98.138 439.011,98.14 438.961,98.341 				"/>
				<polygon fill="#FFFFFF" points="439.016,98.121 439.011,98.14 439.008,98.138 				"/>
				<polygon fill="#FFFFFF" points="438.926,98.21 439.008,98.138 438.961,98.341 				"/>
				<g>
					<polygon fill="none" points="477.537,96.854 477.679,96.724 477.894,96.616 478.145,96.581 478.281,96.586 478.437,96.599 
						478.584,96.628 478.733,96.657 478.912,96.719 479.074,96.772 479.246,96.849 479.431,96.95 479.586,97.021 479.747,97.136 
						479.889,97.242 480.046,97.374 480.206,97.485 480.318,97.623 480.457,97.748 480.569,97.886 480.777,98.153 480.885,98.428 
						480.938,98.565 480.969,98.655 480.95,98.888 480.907,99.071 480.775,99.226 480.586,99.32 480.33,99.374 480.188,99.388 
						480.039,99.356 479.866,99.339 479.682,99.297 479.52,99.243 479.342,99.183 479.15,99.103 478.982,99.005 478.812,98.927 
						478.625,98.826 478.465,98.715 478.311,98.581 478.166,98.475 478.019,98.327 477.887,98.183 477.775,98.044 477.592,97.764 
						477.481,97.492 477.453,97.402 477.422,97.253 477.459,97.026 					"/>
					<polygon fill="none" points="443.042,98.112 443.042,98.112 442.863,98.193 					"/>
					<polygon fill="none" points="444.328,101.362 444.455,101.464 444.467,101.487 444.127,101.911 441.135,102.124 
						440.486,101.75 440.482,101.743 440.652,101.665 439.38,98.315 439.59,98.104 442.311,97.948 442.887,98.249 444.3,101.572 
											"/>
					<polygon fill="none" points="434.122,97.104 434.122,97.104 439.127,98.772 					"/>
					<g>
						<polygon fill="none" points="477.537,96.854 477.679,96.724 477.894,96.616 478.145,96.581 478.281,96.586 478.437,96.599 
							478.584,96.628 478.733,96.657 478.912,96.719 479.074,96.772 479.246,96.849 479.431,96.95 479.586,97.021 479.747,97.136 
							479.889,97.242 480.046,97.374 480.206,97.485 480.318,97.623 480.457,97.748 480.569,97.886 480.777,98.153 480.885,98.428 
							480.938,98.565 480.969,98.655 480.95,98.888 480.907,99.071 480.775,99.226 480.586,99.32 480.33,99.374 480.188,99.388 
							480.039,99.356 479.866,99.339 479.682,99.297 479.52,99.243 479.342,99.183 479.15,99.103 478.982,99.005 478.812,98.927 
							478.625,98.826 478.465,98.715 478.311,98.581 478.166,98.475 478.019,98.327 477.887,98.183 477.775,98.044 477.592,97.764 
							477.481,97.492 477.453,97.402 477.422,97.253 477.459,97.026 						"/>
						<polygon fill="none" points="442.311,97.948 442.887,98.249 444.3,101.572 444.328,101.362 444.455,101.464 444.467,101.487 
							444.127,101.911 441.135,102.124 440.486,101.75 440.482,101.743 440.652,101.665 439.38,98.315 439.59,98.104 						"/>
						<polygon fill="none" points="434.122,97.104 434.122,97.104 439.127,98.772 						"/>
						<g>
							<polygon fill="none" points="477.537,96.854 477.679,96.724 477.894,96.616 478.145,96.581 478.281,96.586 478.437,96.599 
								478.584,96.628 478.733,96.657 478.912,96.719 479.074,96.772 479.246,96.849 479.431,96.95 479.586,97.021 479.747,97.136 
								479.889,97.242 480.046,97.374 480.206,97.485 480.318,97.623 480.457,97.748 480.569,97.886 480.777,98.153 480.885,98.428 
								480.938,98.565 480.969,98.655 480.95,98.888 480.907,99.071 480.775,99.226 480.586,99.32 480.33,99.374 480.188,99.388 
								480.039,99.356 479.866,99.339 479.682,99.297 479.52,99.243 479.342,99.183 479.15,99.103 478.982,99.005 478.812,98.927 
								478.625,98.826 478.465,98.715 478.311,98.581 478.166,98.475 478.019,98.327 477.887,98.183 477.775,98.044 477.592,97.764 
								477.481,97.492 477.453,97.402 477.422,97.253 477.459,97.026 							"/>
							<polygon fill="none" points="442.311,97.948 442.887,98.249 444.3,101.572 444.328,101.362 444.455,101.464 444.467,101.487 
								444.131,101.906 444.109,101.726 441.119,101.939 441.248,101.965 441.148,102.123 441.135,102.124 440.486,101.75 
								440.482,101.743 440.652,101.665 439.38,98.315 439.59,98.104 							"/>
							<polygon fill="none" points="434.122,97.104 434.122,97.104 439.127,98.772 							"/>
							<g>
								<polygon fill="none" points="444.404,100.832 450.073,102.723 444.404,100.832 								"/>
								<polygon fill="none" points="444.258,100.484 450.787,102.664 444.258,100.484 								"/>
								<polygon fill="none" points="477.537,96.854 477.679,96.724 477.894,96.616 478.145,96.581 478.281,96.586 478.437,96.599 
									478.584,96.628 478.733,96.657 478.912,96.719 479.074,96.772 479.246,96.849 479.431,96.95 479.586,97.021 479.747,97.136 
									479.889,97.242 480.046,97.374 480.206,97.485 480.318,97.623 480.457,97.748 480.569,97.886 480.777,98.153 
									480.885,98.428 480.938,98.565 480.969,98.655 480.95,98.888 480.907,99.071 480.775,99.226 480.586,99.32 480.33,99.374 
									480.188,99.388 480.039,99.356 479.866,99.339 479.682,99.297 479.52,99.243 479.342,99.183 479.15,99.103 478.982,99.005 
									478.812,98.927 478.625,98.826 478.465,98.715 478.311,98.581 478.166,98.475 478.019,98.327 477.887,98.183 
									477.775,98.044 477.592,97.764 477.481,97.492 477.453,97.402 477.422,97.253 477.459,97.026 								"/>
								<polygon fill="none" points="442.311,97.948 442.887,98.249 444.3,101.572 444.328,101.362 444.455,101.464 
									444.467,101.487 444.131,101.906 444.127,101.911 441.148,102.123 441.135,102.124 440.486,101.75 440.482,101.743 
									440.652,101.665 439.38,98.315 439.59,98.104 								"/>
								<polygon fill="none" points="434.122,97.104 434.122,97.104 439.127,98.772 								"/>
								<polygon fill="#FFFFFF" points="444.258,100.484 450.787,102.664 450.078,102.705 450.073,102.723 444.404,100.832 								
									"/>
								<g>
									<polygon fill="none" points="477.537,96.854 477.679,96.724 477.894,96.616 478.145,96.581 478.281,96.586 478.437,96.599 
										478.584,96.628 478.733,96.657 478.912,96.719 479.074,96.772 479.246,96.849 479.431,96.95 479.586,97.021 
										479.747,97.136 479.889,97.242 480.046,97.374 480.206,97.485 480.318,97.623 480.457,97.748 480.569,97.886 
										480.777,98.153 480.885,98.428 480.938,98.565 480.969,98.655 480.95,98.888 480.907,99.071 480.775,99.226 480.586,99.32 
										480.33,99.374 480.188,99.388 480.039,99.356 479.866,99.339 479.682,99.297 479.52,99.243 479.342,99.183 479.15,99.103 
										478.982,99.005 478.812,98.927 478.625,98.826 478.465,98.715 478.311,98.581 478.166,98.475 478.019,98.327 
										477.887,98.183 477.775,98.044 477.592,97.764 477.481,97.492 477.453,97.402 477.422,97.253 477.459,97.026 									"/>
									<polygon fill="none" points="442.311,97.948 442.887,98.249 444.252,101.46 444.04,101.731 441.119,101.939 
										441.248,101.965 441.148,102.123 441.135,102.124 440.486,101.75 440.482,101.743 440.652,101.665 439.38,98.315 
										439.59,98.104 									"/>
									<polygon fill="none" points="444.328,101.362 444.455,101.464 444.455,101.464 									"/>
									<polygon fill="none" points="434.122,97.104 434.122,97.104 439.127,98.772 									"/>
									<path fill="#FFFFFF" d="M424.381,97.088l8.294-0.269l0.173,0.016l0.162,0.056l0.215,0.071l0.195,0.066l0.178,0.119
										l0.133,0.082l0.076,0.127l0.061,0.059l3.299,9.938l0.047,0.154l0.162-0.005l0.166-0.023l0.191,0.023l0.232,0.019
										l0.219-0.007l0.216,0.014l0.196-0.055l0.22-0.064l0.179-0.119l0.215-0.229l0.18-0.236l0.167-0.202l0.166-0.2l0.144-0.193
										l0.137-0.173l0.119-0.177l0.144-0.192l0.118-0.178l0.139-0.172l0.136-0.174l0.149-0.149l0.156-0.167l0.179-0.178
										l0.179-0.181l0.227-0.199l-0.121-0.151l0.179-0.148l0.204-0.131l0.232-0.101l0.214-0.107l0.232-0.1l0.262-0.073l0.269-0.09
										l0.262-0.068l0.25-0.038l0.275-0.049l0.291-0.04l0.275-0.047l0.285-0.024l0.285-0.024l0.27-0.029l0.262-0.011l4.601-0.333
										l-5.669-1.891l-0.146-0.348l0,0l6.529,2.18l30.496-2.276l0.566-0.089l0.424-0.196l0.293-0.28l0.104-0.321v-0.357
										l0.008-0.019l-0.101-0.41l-0.202-0.407l-0.294-0.435l-0.171-0.195l-0.191-0.203l-0.209-0.207l-0.219-0.174l-0.232-0.198
										l-0.262-0.165l-0.28-0.174l-0.28-0.173l-0.3-0.119l-0.292-0.137l-0.322-0.108l-0.338-0.111l-0.32-0.048l-0.335-0.072
										l-0.348-0.036l-0.337,0.007l-4.606,0.169l-27.046,0.927h-0.299l-0.278,0.005l-0.317-0.005l-0.303-0.042l-0.311-0.024
										l-0.309-0.024l-0.305-0.043l-0.322-0.047l-0.322-0.047l-0.314-0.065l-0.316-0.068l-0.315-0.064l-0.327-0.087l-0.309-0.087
										l-0.295-0.076l-0.303-0.1l-0.429-0.146l-0.422-0.161l-0.37-0.142l-0.369-0.145l-0.322-0.165l-0.311-0.143l-0.32-0.169
										l-0.293-0.137l-0.279-0.173l-0.251-0.144l-0.269-0.148l-0.25-0.143l-0.268-0.147l-0.25-0.146l-0.238-0.119l-0.25-0.143
										l-0.258-0.125l-0.262-0.107l-0.25-0.084l-0.286-0.096l-0.304-0.101l-0.29-0.078l-0.323-0.047l-0.34-0.055l-0.346-0.035
										l-0.387-0.029l-0.412-0.02l-0.422,0.019l-0.441,0.011l-0.494,0.054l-0.514,0.048l-0.56,0.071l-0.417,0.06l-0.412,0.101
										l-0.41,0.101l-0.383,0.132l-0.403,0.145l-0.388,0.146l-0.367,0.154l-0.377,0.173l-0.357,0.179l-0.364,0.198l5.788,1.93
										l-7.791,0.262L424.381,97.088z M477.422,97.253l0.037-0.227l0.078-0.172l0.142-0.131l0.215-0.107l0.251-0.035l0.137,0.005
										l0.155,0.013l0.147,0.029l0.149,0.029l0.179,0.062l0.162,0.054l0.172,0.076l0.185,0.102l0.155,0.071l0.161,0.114
										l0.142,0.106l0.157,0.132l0.16,0.111l0.112,0.138l0.139,0.125l0.112,0.138l0.208,0.268l0.107,0.274l0.054,0.138l0.03,0.09
										l-0.019,0.232l-0.043,0.184l-0.132,0.154l-0.189,0.095l-0.256,0.054l-0.143,0.014l-0.148-0.031l-0.173-0.018l-0.185-0.042
										l-0.162-0.054l-0.178-0.061l-0.191-0.08l-0.168-0.098l-0.171-0.078l-0.187-0.101l-0.16-0.111l-0.154-0.134l-0.145-0.106
										l-0.147-0.147l-0.132-0.145l-0.111-0.139l-0.184-0.28l-0.11-0.271l-0.028-0.09L477.422,97.253z M444.455,101.464
										L444.455,101.464l-0.127-0.102L444.455,101.464z M439.38,98.315l0.21-0.211l2.721-0.156l0.576,0.301l1.365,3.211
										l-0.212,0.271l-2.921,0.208l0.129,0.025l-0.1,0.158l-0.014,0.001l-0.648-0.374l-0.004-0.007l0.17-0.078L439.38,98.315z"/>
								</g>
							</g>
						</g>
					</g>
				</g>
			</g>
			<polygon fill-rule="evenodd" clip-rule="evenodd" points="475.58,99.319 475.414,99.225 475.385,99.075 475.623,99.015 
				475.671,99.171 475.527,99.063 475.58,99.319 475.58,99.319 			"/>
			<polygon fill-rule="evenodd" clip-rule="evenodd" points="475.904,99.129 475.867,99.178 475.807,99.236 475.734,99.271 
				475.666,99.307 475.58,99.319 475.527,99.063 475.563,99.075 475.617,99.033 475.683,99.015 475.689,98.998 475.676,99.033 
				475.898,99.146 475.898,99.146 475.904,99.129 			"/>
			<polygon fill-rule="evenodd" clip-rule="evenodd" points="475.23,97.634 475.248,97.639 475.361,97.776 475.51,97.926 
				475.652,98.093 475.789,98.277 475.903,98.474 475.968,98.694 475.969,98.933 475.898,99.146 475.676,99.033 475.725,98.89 
				475.713,98.749 475.671,98.574 475.563,98.421 475.445,98.242 475.315,98.099 475.164,97.948 475.051,97.812 475.068,97.818 
				475.23,97.634 475.23,97.634 			"/>
			<polygon fill-rule="evenodd" clip-rule="evenodd" points="473.038,97.001 473.02,96.994 473.336,97.001 473.633,97.001 
				473.913,97.055 474.182,97.084 474.455,97.157 474.711,97.282 474.979,97.431 475.23,97.634 475.068,97.818 474.824,97.656 
				474.592,97.52 474.373,97.407 474.135,97.347 473.872,97.3 473.604,97.269 473.33,97.258 473.05,97.264 473.056,97.246 
				473.014,97.013 473.014,97.013 473.038,97.001 			"/>
			<polygon fill-rule="evenodd" clip-rule="evenodd" points="449.787,98.221 449.889,98.153 473.014,97.013 473.056,97.246 
				449.924,98.405 450.027,98.339 449.787,98.221 449.787,98.221 			"/>
			<polygon fill-rule="evenodd" clip-rule="evenodd" points="449.239,99.029 448.988,98.946 449.007,98.772 449.055,98.631 
				449.126,98.476 449.221,98.367 449.346,98.29 449.507,98.226 449.686,98.167 449.889,98.153 449.924,98.405 449.732,98.44 
				449.562,98.481 449.477,98.492 449.393,98.565 449.354,98.631 449.287,98.709 449.252,98.815 449.258,98.976 449.007,98.891 
				449.239,99.029 449.239,99.029 			"/>
			<g>
				<polygon fill="none" points="449.889,98.16 449.924,98.405 449.889,98.16 				"/>
				<g>
					<polygon fill="none" points="449.258,98.976 449.287,98.826 449.357,98.673 449.418,98.555 449.543,98.476 449.691,98.445 
						449.9,98.416 449.924,98.405 473.056,97.246 473.441,97.275 473.766,97.264 474.068,97.305 474.348,97.359 474.605,97.484 
						474.836,97.62 475.051,97.812 475.297,98.093 475.51,98.343 475.666,98.592 475.742,98.776 475.742,98.896 475.689,98.998 
						475.541,99.087 475.26,99.153 474.867,99.199 451.098,100.424 451.08,100.419 450.747,100.406 450.419,100.316 
						450.127,100.179 449.877,100.036 449.668,99.828 449.521,99.619 449.389,99.417 449.287,99.245 449.268,99.118 					"/>
					<g>
						<path fill="none" d="M449.287,98.826l-0.029,0.149l0.01,0.143l0.02,0.127l0.102,0.172l0.132,0.202l0.147,0.209l0.209,0.208
							l0.25,0.143l0.292,0.138l0.328,0.09l0.333,0.013l0.018,0.005l23.77-1.225l0.393-0.046l0.281-0.066l0.148-0.089l0.053-0.102
							v-0.12l-0.076-0.185l-0.156-0.249l-0.213-0.25l-0.246-0.28l-0.215-0.192l-0.23-0.136l-0.258-0.125l-0.279-0.055l-0.303-0.041
							l-0.324,0.012l-0.386-0.029l-23.132,1.159l-0.023,0.011l-0.209,0.029l-0.148,0.03l-0.125,0.079l-0.061,0.118L449.287,98.826z
							 M449.614,98.678l23.132-1.158l0.011-0.035l0.31,0.023h0.299l0.281,0.053l0.267,0.03l0.274,0.072l0.256,0.125l0.25,0.143
							l0.268,0.209l0.102,0.111l0.09,0.091l0.084,0.107l0.07,0.082l0.102,0.116l0.078,0.123l0.064,0.1l0.066,0.103l0.006,0.042
							l-0.238,0.061l0.006,0.042l-0.061-0.119l-0.063-0.102l-0.091-0.089l-0.065-0.103l-0.071-0.082l-0.084-0.108l-0.088-0.088
							l-0.107-0.096l0.008-0.009l-0.212-0.158l-0.227-0.156l-0.226-0.096l-0.238-0.061l-0.262-0.049l-0.269-0.026l-0.292-0.021
							l-0.28,0.007l-23.124,1.143L449.614,98.678z"/>
						<g>
							<path fill="none" d="M449.287,98.826l-0.029,0.149l0.01,0.143l0.02,0.127l0.102,0.172l0.132,0.202l0.147,0.209l0.209,0.208
								l0.25,0.143l0.292,0.138l0.328,0.09l0.333,0.013l0.018,0.005l23.77-1.225l0.393-0.046l0.281-0.066l0.148-0.089l0.053-0.102
								v-0.12l-0.076-0.185l-0.156-0.249l-0.213-0.25l-0.246-0.28l-0.215-0.192l-0.23-0.136l-0.258-0.125l-0.279-0.055l-0.303-0.041
								l-0.324,0.012l-0.386-0.029l-23.132,1.159l-0.023,0.011l-0.209,0.029l-0.148,0.03l-0.125,0.079l-0.061,0.118L449.287,98.826z
								"/>
							<g>
								<polygon fill="none" points="449.357,98.673 449.418,98.555 449.543,98.476 449.691,98.445 449.828,98.427 449.639,98.786 
									472.77,97.627 473.066,97.627 473.342,97.639 473.622,97.691 473.89,97.723 474.145,97.788 474.391,97.89 474.634,98.051 
									474.873,98.229 474.955,98.336 475.045,98.427 475.129,98.531 475.219,98.623 475.283,98.723 475.368,98.83 475.434,98.933 
									475.51,99.057 475.52,99.093 475.26,99.153 474.867,99.199 451.098,100.424 451.08,100.419 450.747,100.406 
									450.419,100.316 450.127,100.179 449.877,100.036 449.668,99.828 449.521,99.619 449.389,99.417 449.287,99.245 
									449.268,99.118 449.258,98.976 449.287,98.826 								"/>
								<polygon points="475.434,98.933 475.368,98.83 475.283,98.723 475.219,98.623 475.129,98.531 475.045,98.427 
									474.955,98.336 474.873,98.229 474.634,98.051 474.391,97.89 474.145,97.788 473.89,97.723 473.622,97.691 473.342,97.639 
									473.066,97.627 472.77,97.627 449.639,98.786 449.828,98.427 449.9,98.416 449.924,98.405 473.056,97.246 473.441,97.275 
									473.766,97.264 474.068,97.305 474.348,97.359 474.605,97.484 474.836,97.62 475.051,97.812 475.297,98.093 475.51,98.343 
									475.666,98.592 475.742,98.776 475.742,98.896 475.689,98.998 475.541,99.087 475.52,99.093 475.51,99.057 								"/>
								<g>
									<polygon fill="none" points="449.297,98.804 449.316,98.798 449.436,98.798 449.639,98.786 449.831,98.427 449.9,98.416 
										449.924,98.405 473.056,97.246 473.441,97.275 473.766,97.264 474.068,97.305 474.348,97.359 474.605,97.484 
										474.836,97.62 475.051,97.812 475.297,98.093 475.51,98.343 475.666,98.592 475.742,98.776 475.742,98.896 475.689,98.998 
										475.541,99.087 475.52,99.093 475.26,99.153 474.867,99.199 451.098,100.424 451.08,100.419 450.747,100.406 
										450.419,100.316 450.127,100.179 449.877,100.036 449.668,99.828 449.521,99.619 449.389,99.417 449.287,99.245 
										449.268,99.118 449.258,98.976 449.287,98.826 									"/>
									<path d="M448.988,98.946l0.025,0.226l0.046,0.155l0.066,0.219l0.155,0.252l0.189,0.202l0.244,0.222l0.293,0.197
										l0.328,0.147l0.344,0.095l0.418,0.001l23.762-1.206l0.453-0.047l0.32-0.071l0.234-0.16l0.131-0.216l-0.006-0.221
										l-0.089-0.268l-0.173-0.256l-0.238-0.299l-0.244-0.28l-0.263-0.228l-0.279-0.171l-0.274-0.132l-0.297-0.059l-0.357-0.06
										h-0.357l-0.406,0.022l-23.125,1.141v0.007l-0.245,0.012l-0.251,0.096l-0.165,0.143l-0.114,0.161l-0.076,0.173
										L448.988,98.946z M449.258,98.976l0.029-0.149l0.01-0.022l0.02-0.006h0.119l0.203-0.012l0.192-0.359l0.069-0.011
										l0.023-0.011l23.132-1.159l0.386,0.029l0.324-0.012l0.303,0.041l0.279,0.055l0.258,0.125l0.23,0.136l0.215,0.192
										l0.246,0.28l0.213,0.25l0.156,0.249l0.076,0.185v0.12l-0.053,0.102l-0.148,0.089l-0.021,0.006l-0.26,0.061l-0.393,0.046
										l-23.77,1.225l-0.018-0.005l-0.333-0.013l-0.328-0.09l-0.292-0.138l-0.25-0.143l-0.209-0.208l-0.147-0.209l-0.132-0.202
										l-0.102-0.172l-0.02-0.127L449.258,98.976z"/>
								</g>
							</g>
						</g>
					</g>
				</g>
			</g>
		</g>
	</g>
	<rect x="415.596" y="19.502" fill="#E6E7E8" width="222.402" height="37.94"/>
	<text transform="matrix(1 0 0 1 420.3906 33.7563)"><tspan x="0" y="0" fill="#231F20" font-family="'Arial-BoldMT'" font-size="16.3494">90 Card Tuck Box Template</tspan><tspan x="0" y="18.685" fill="#231F20" font-family="'Arial-BoldMT'" font-size="16.3494">www.thegamecrafter.com</tspan></text>
	<g>
		<path fill="#EC1E28" d="M199.24,189.574c0,0.888-0.403,1.754-1.207,2.597l-0.127,0.125l-7.04,7.417
			c-1.496,1.571-2.771,2.787-3.821,3.646c-1.052,0.859-1.796,1.287-2.228,1.287c-0.456,0-1.021-0.214-1.698-0.644
			c-0.676-0.428-1.112-0.872-1.311-1.327c-0.166-0.38-0.325-1.185-0.473-2.416c-0.147-1.229-0.222-2.563-0.222-3.998
			c0-0.782,0.327-1.506,0.979-2.171c0.653-0.665,1.375-0.997,2.164-0.997c0.754,0,1.2,0.688,1.344,2.062
			c0.018,0.159,0.027,0.278,0.037,0.354c0.119,1.056,0.261,1.792,0.419,2.21c0.161,0.418,0.378,0.627,0.65,0.627
			c0.113,0,0.327-0.124,0.639-0.37c0.31-0.248,0.684-0.583,1.116-1.009l7.234-7.166c0.607-0.607,1.149-1.066,1.629-1.379
			c0.479-0.311,0.884-0.467,1.219-0.467c0.252,0,0.429,0.096,0.537,0.285c0.105,0.19,0.158,0.51,0.158,0.958V189.574z"/>
	</g>
	<text transform="matrix(1 0 0 1 199.3257 202.5)" font-family="'ArialMT'" font-size="14">Fold Line</text>
	<g>
		<path fill="#EC1E28" d="M330.24,54.574c0,0.888-0.403,1.754-1.207,2.597l-0.127,0.125l-7.04,7.417
			c-1.496,1.571-2.771,2.787-3.821,3.646c-1.052,0.859-1.796,1.287-2.228,1.287c-0.456,0-1.021-0.214-1.698-0.644
			c-0.676-0.428-1.112-0.872-1.311-1.327c-0.166-0.38-0.325-1.185-0.473-2.416c-0.147-1.229-0.222-2.563-0.222-3.998
			c0-0.782,0.327-1.506,0.979-2.171c0.653-0.665,1.375-0.997,2.164-0.997c0.754,0,1.2,0.688,1.344,2.062
			c0.018,0.159,0.027,0.278,0.037,0.354c0.119,1.056,0.261,1.792,0.419,2.21c0.161,0.418,0.378,0.627,0.65,0.627
			c0.113,0,0.327-0.124,0.639-0.37c0.31-0.248,0.684-0.583,1.116-1.009l7.234-7.166c0.607-0.607,1.149-1.066,1.629-1.379
			c0.479-0.311,0.884-0.467,1.219-0.467c0.252,0,0.429,0.096,0.537,0.285c0.105,0.19,0.158,0.51,0.158,0.958V54.574z"/>
	</g>
	<text transform="matrix(1 0 0 1 330.3257 67.5)" font-family="'ArialMT'" font-size="14">Bleed Zone</text>
	<g>
		<g>
			<g>
				<path fill="none" stroke="#00ADEE" stroke-miterlimit="10" stroke-dasharray="5" d="M504.944,152.427h-2.462
					c-0.084,0.526-0.258,1.067-0.539,1.613c-0.118,0.23-0.239,0.459-0.365,0.685"/>
				<path fill="none" stroke="#00ADEE" stroke-miterlimit="10" stroke-dasharray="5" d="M499.022,158.613
					c-5.709,7.327-14.734,11.671-24.164,10.624c-8.46-0.939-17.262-4.807-21.549-12.349"/>
				<path fill="none" stroke="#00ADEE" stroke-miterlimit="10" stroke-dasharray="5" d="M452.282,154.805
					c-0.133-0.314-0.257-0.633-0.375-0.958c-0.181-0.499-0.273-0.972-0.306-1.42h-2.462"/>
				
					<line fill="none" stroke="#00ADEE" stroke-miterlimit="10" stroke-dasharray="5" x1="444.615" y1="152.427" x2="401.635" y2="152.427"/>
				<polyline fill="none" stroke="#00ADEE" stroke-miterlimit="10" stroke-dasharray="5" points="399.372,152.427 396.91,152.427 
					396.91,154.914 				"/>
				
					<line fill="none" stroke="#00ADEE" stroke-miterlimit="10" stroke-dasharray="5" x1="396.91" y1="159.81" x2="396.91" y2="382.604"/>
				<polyline fill="none" stroke="#00ADEE" stroke-miterlimit="10" stroke-dasharray="5" points="396.91,385.053 396.91,387.539 
					399.372,387.539 				"/>
				
					<line fill="none" stroke="#00ADEE" stroke-miterlimit="10" stroke-dasharray="5" x1="404.435" y1="387.539" x2="553.759" y2="387.539"/>
				<polyline fill="none" stroke="#00ADEE" stroke-miterlimit="10" stroke-dasharray="5" points="556.291,387.539 558.753,387.539 
					558.753,385.053 				"/>
				
					<line fill="none" stroke="#00ADEE" stroke-miterlimit="10" stroke-dasharray="5" x1="558.753" y1="380.156" x2="558.753" y2="157.362"/>
				<polyline fill="none" stroke="#00ADEE" stroke-miterlimit="10" stroke-dasharray="5" points="558.753,154.914 558.753,152.427 
					556.291,152.427 				"/>
				
					<line fill="none" stroke="#00ADEE" stroke-miterlimit="10" stroke-dasharray="5" x1="551.624" y1="152.427" x2="507.279" y2="152.427"/>
			</g>
		</g>
	</g>
	<g>
		<g>
			<g>
				<polyline fill="none" stroke="#00ADEE" stroke-miterlimit="10" stroke-dasharray="5" points="277.309,385.018 277.309,387.504 
					274.848,387.504 				"/>
				
					<line fill="none" stroke="#00ADEE" stroke-miterlimit="10" stroke-dasharray="5" x1="269.785" y1="387.504" x2="120.468" y2="387.504"/>
				<polyline fill="none" stroke="#00ADEE" stroke-miterlimit="10" stroke-dasharray="5" points="117.938,387.504 115.476,387.504 
					115.476,385.018 				"/>
				
					<line fill="none" stroke="#00ADEE" stroke-miterlimit="10" stroke-dasharray="5" x1="115.476" y1="380.121" x2="115.476" y2="157.326"/>
				<polyline fill="none" stroke="#00ADEE" stroke-miterlimit="10" stroke-dasharray="5" points="115.476,154.878 115.476,152.392 
					117.938,152.392 				"/>
				
					<line fill="none" stroke="#00ADEE" stroke-miterlimit="10" stroke-dasharray="5" x1="122.999" y1="152.392" x2="272.316" y2="152.392"/>
				<polyline fill="none" stroke="#00ADEE" stroke-miterlimit="10" stroke-dasharray="5" points="274.848,152.392 277.309,152.392 
					277.309,154.878 				"/>
				
					<line fill="none" stroke="#00ADEE" stroke-miterlimit="10" stroke-dasharray="5" x1="277.309" y1="159.775" x2="277.309" y2="382.569"/>
			</g>
		</g>
	</g>
	<line fill="none" stroke="#00ADEE" stroke-miterlimit="10" x1="277.669" y1="312.835" x2="247.669" y2="312.835"/>
	<g>
		<path fill="#EC1E28" d="M182.24,303.574c0,0.888-0.403,1.754-1.207,2.597l-0.127,0.126l-7.04,7.417
			c-1.496,1.571-2.771,2.786-3.821,3.646c-1.052,0.859-1.796,1.287-2.228,1.287c-0.456,0-1.021-0.215-1.698-0.644
			c-0.676-0.429-1.112-0.872-1.311-1.327c-0.166-0.38-0.325-1.185-0.473-2.416c-0.147-1.229-0.222-2.562-0.222-3.998
			c0-0.782,0.327-1.506,0.979-2.171c0.653-0.665,1.375-0.997,2.164-0.997c0.754,0,1.2,0.688,1.344,2.062
			c0.018,0.159,0.027,0.277,0.037,0.354c0.119,1.056,0.261,1.793,0.419,2.21c0.161,0.418,0.378,0.627,0.65,0.627
			c0.113,0,0.327-0.124,0.639-0.37c0.31-0.248,0.684-0.582,1.116-1.009l7.234-7.166c0.607-0.607,1.149-1.066,1.629-1.379
			c0.479-0.312,0.884-0.468,1.219-0.468c0.252,0,0.429,0.097,0.537,0.285c0.105,0.189,0.158,0.51,0.158,0.958V303.574z"/>
	</g>
	<text transform="matrix(1 0 0 1 182.3257 316.5)" font-family="'ArialMT'" font-size="14">Safe Zone</text>
	<g>
		<g>
			<g>
				<polyline fill="none" stroke="#00ADEE" stroke-miterlimit="10" stroke-dasharray="5.7158" points="277.309,117.852 
					277.309,132.5 274.847,132.5 				"/>
				
					<line fill="none" stroke="#00ADEE" stroke-miterlimit="10" stroke-dasharray="5.7158" x1="269.786" y1="132.5" x2="120.468" y2="132.5"/>
				<polyline fill="none" stroke="#00ADEE" stroke-miterlimit="10" stroke-dasharray="5.7158" points="117.938,132.5 115.476,132.5 
					115.476,117.852 				"/>
				
					<line fill="none" stroke="#00ADEE" stroke-miterlimit="10" stroke-dasharray="5.7158" x1="115.476" y1="102.45" x2="115.476" y2="79.346"/>
				<polyline fill="none" stroke="#00ADEE" stroke-miterlimit="10" stroke-dasharray="5.7158" points="115.476,71.646 
					115.476,56.997 117.938,56.997 				"/>
				
					<line fill="none" stroke="#00ADEE" stroke-miterlimit="10" stroke-dasharray="5.7158" x1="122.999" y1="56.997" x2="272.317" y2="56.997"/>
				<polyline fill="none" stroke="#00ADEE" stroke-miterlimit="10" stroke-dasharray="5.7158" points="274.847,56.997 
					277.309,56.997 277.309,71.646 				"/>
				
					<line fill="none" stroke="#00ADEE" stroke-miterlimit="10" stroke-dasharray="5.7158" x1="277.309" y1="87.047" x2="277.309" y2="110.148"/>
			</g>
		</g>
	</g>
	<g>
		<g>
			<g>
				<polyline fill="none" stroke="#00ADEE" stroke-miterlimit="10" stroke-dasharray="5.7447" points="277.559,469.588 
					277.559,484.661 275.098,484.661 				"/>
				
					<line fill="none" stroke="#00ADEE" stroke-miterlimit="10" stroke-dasharray="5.7447" x1="270.035" y1="484.661" x2="120.718" y2="484.661"/>
				<polyline fill="none" stroke="#00ADEE" stroke-miterlimit="10" stroke-dasharray="5.7447" points="118.188,484.661 
					115.726,484.661 115.726,469.588 				"/>
				
					<line fill="none" stroke="#00ADEE" stroke-miterlimit="10" stroke-dasharray="5.7447" x1="115.726" y1="453.742" x2="115.726" y2="429.978"/>
				<polyline fill="none" stroke="#00ADEE" stroke-miterlimit="10" stroke-dasharray="5.7447" points="115.726,422.053 
					115.726,406.983 118.188,406.983 				"/>
				
					<line fill="none" stroke="#00ADEE" stroke-miterlimit="10" stroke-dasharray="5.7447" x1="123.249" y1="406.983" x2="272.566" y2="406.983"/>
				<polyline fill="none" stroke="#00ADEE" stroke-miterlimit="10" stroke-dasharray="5.7447" points="275.098,406.983 
					277.559,406.983 277.559,422.053 				"/>
				
					<line fill="none" stroke="#00ADEE" stroke-miterlimit="10" stroke-dasharray="5.7447" x1="277.559" y1="437.902" x2="277.559" y2="461.669"/>
			</g>
		</g>
	</g>
	<rect x="396.91" y="426.983" fill="#E6E6E6" width="161.843" height="53.136"/>
	<g>
		<g>
			<g>
				<polyline fill="none" stroke="#00ADEE" stroke-miterlimit="10" stroke-dasharray="5.6498" points="95.997,385.018 
					95.997,387.504 94.841,387.504 				"/>
				
					<line fill="none" stroke="#00ADEE" stroke-miterlimit="10" stroke-dasharray="5.6498" x1="92.463" y1="387.504" x2="22.344" y2="387.504"/>
				<polyline fill="none" stroke="#00ADEE" stroke-miterlimit="10" stroke-dasharray="5.6498" points="21.155,387.504 20,387.504 
					20,385.018 				"/>
				
					<line fill="none" stroke="#00ADEE" stroke-miterlimit="10" stroke-dasharray="5.6498" x1="20" y1="380.121" x2="20" y2="157.326"/>
				<polyline fill="none" stroke="#00ADEE" stroke-miterlimit="10" stroke-dasharray="5.6498" points="20,154.878 20,152.392 
					21.155,152.392 				"/>
				
					<line fill="none" stroke="#00ADEE" stroke-miterlimit="10" stroke-dasharray="5.6498" x1="23.533" y1="152.392" x2="93.652" y2="152.392"/>
				<polyline fill="none" stroke="#00ADEE" stroke-miterlimit="10" stroke-dasharray="5.6498" points="94.841,152.392 
					95.997,152.392 95.997,154.878 				"/>
				
					<line fill="none" stroke="#00ADEE" stroke-miterlimit="10" stroke-dasharray="5.6498" x1="95.997" y1="159.775" x2="95.997" y2="382.569"/>
			</g>
		</g>
	</g>
	<g>
		<g>
			<g>
				<polyline fill="none" stroke="#00ADEE" stroke-miterlimit="10" stroke-dasharray="5.7186" points="375.335,385.018 
					375.335,387.504 374.152,387.504 				"/>
				
					<line fill="none" stroke="#00ADEE" stroke-miterlimit="10" stroke-dasharray="5.7186" x1="371.716" y1="387.504" x2="299.878" y2="387.504"/>
				<polyline fill="none" stroke="#00ADEE" stroke-miterlimit="10" stroke-dasharray="5.7186" points="298.66,387.504 
					297.476,387.504 297.476,385.018 				"/>
				
					<line fill="none" stroke="#00ADEE" stroke-miterlimit="10" stroke-dasharray="5.7186" x1="297.476" y1="380.121" x2="297.476" y2="157.326"/>
				<polyline fill="none" stroke="#00ADEE" stroke-miterlimit="10" stroke-dasharray="5.7186" points="297.476,154.878 
					297.476,152.392 298.66,152.392 				"/>
				
					<line fill="none" stroke="#00ADEE" stroke-miterlimit="10" stroke-dasharray="5.7186" x1="301.095" y1="152.392" x2="372.934" y2="152.392"/>
				<polyline fill="none" stroke="#00ADEE" stroke-miterlimit="10" stroke-dasharray="5.7186" points="374.152,152.392 
					375.335,152.392 375.335,154.878 				"/>
				
					<line fill="none" stroke="#00ADEE" stroke-miterlimit="10" stroke-dasharray="5.7186" x1="375.335" y1="159.775" x2="375.335" y2="382.569"/>
			</g>
		</g>
	</g>
</g>
</svg>
