<?xml version="1.0" encoding="utf-8"?>
<!-- Generator: Adobe Illustrator 16.0.0, SVG Export Plug-In . SVG Version: 6.00 Build 0)  -->
<!DOCTYPE svg PUBLIC "-//W3C//DTD SVG 1.1//EN" "http://www.w3.org/Graphics/SVG/1.1/DTD/svg11.dtd">
<svg version="1.1" xmlns="http://www.w3.org/2000/svg" xmlns:xlink="http://www.w3.org/1999/xlink" x="0px" y="0px" width="234px"
	 height="324px" viewBox="0 0 234 324" enable-background="new 0 0 234 324" xml:space="preserve">
<g id="Layer_1">
	<g>
		<rect x="28.801" y="223.683" fill="#D1D2D3" width="69.991" height="73.32"/>
		<text transform="matrix(1 0 0 1.0021 31.0464 285.3486)" fill="#231F20" font-family="'Arial-BoldMT'" font-size="6.3555">Poker Booster </text>
		<path fill-rule="evenodd" clip-rule="evenodd" fill="#010101" d="M87.21,252.214c0,14.179-11.471,25.674-25.619,25.674
			c-14.151,0-25.621-11.495-25.621-25.674c0-14.181,11.47-25.675,25.621-25.675C75.739,226.539,87.21,238.033,87.21,252.214"/>
		<path fill-rule="evenodd" clip-rule="evenodd" fill="#B7D334" d="M84.898,252.356c0,12.889-10.426,23.34-23.291,23.34
			c-12.864,0-23.292-10.451-23.292-23.34c0-12.893,10.428-23.342,23.292-23.342C74.472,229.015,84.898,239.464,84.898,252.356"/>
		<path fill="#010101" d="M56.622,247.265c-0.324,2.862-0.564,5.158-0.723,6.895l-1.064,0.046c0.016-0.058,0.023-0.122,0.025-0.194
			c0.001-0.13-0.046-0.302-0.143-0.513c-0.097-0.213-0.154-0.348-0.167-0.405c-0.274,0.039-0.538,0.23-0.789,0.572
			c-0.252,0.344-0.479,0.516-0.68,0.512c-0.117-0.002-0.245-0.034-0.389-0.094c-0.189,0.126-0.437,0.181-0.739,0.161
			c-0.275-0.049-0.542-0.09-0.802-0.123c-0.007-0.362-0.363-0.679-1.066-0.952c0.002-0.144-0.069-0.359-0.217-0.645
			c-0.146-0.284-0.219-0.484-0.217-0.6c0.002-0.131,0.056-0.237,0.158-0.324c-0.015-0.042-0.133-0.312-0.355-0.81
			c-0.152-0.362-0.227-0.677-0.222-0.937c0.003-0.202,0.049-0.391,0.139-0.562c-0.123-1.233-0.178-2.289-0.163-3.174
			c0.022-1.359,0.218-2.608,0.584-3.745c-0.026-0.174-0.038-0.348-0.035-0.521c0.016-0.911,0.33-1.543,0.941-1.896l0.007-0.282
			c0.605-0.771,1.401-1.329,2.389-1.674c0.59,0.14,1.18,0.273,1.77,0.399c0.661,0.229,1.117,0.618,1.367,1.173
			c0.2,0.12,0.298,0.36,0.291,0.723c-0.005,0.404,0.039,0.666,0.139,0.784l-0.11,0.127c0.115,0.856,0.171,1.38,0.168,1.568
			c-0.01,0.549-0.153,0.938-0.431,1.164c-0.103-0.002-0.367-0.094-0.798-0.274c-0.102,0.099-0.212,0.148-0.326,0.146
			c-0.059,0-0.163-0.032-0.314-0.092c-0.151-0.059-0.277-0.091-0.378-0.093c-0.072-0.001-0.145,0.012-0.217,0.039
			c-0.009-1.143,0.026-1.997,0.107-2.56c-0.112-0.074-0.229-0.242-0.347-0.505c-0.119-0.263-0.272-0.411-0.458-0.441
			c-0.118,0.142-0.171,0.235-0.157,0.277l-0.386-0.136c-0.354,0.387-0.59,1.054-0.707,2.008c-0.121,1.098-0.27,1.825-0.448,2.184
			c0.155,0.163,0.231,0.389,0.227,0.678c-0.002,0.103-0.02,0.269-0.052,0.499c-0.033,0.231-0.051,0.405-0.052,0.52
			c-0.004,0.132,0.008,0.247,0.037,0.35l-0.264,0.254c0.108,0.494,0.169,1.118,0.185,1.872c-0.01,0.637-0.015,1.272-0.01,1.909
			c-0.016,0-0.138,0.005-0.369,0.017c-0.145-0.003-0.248,0.046-0.308,0.147c0.088-0.014,0.168-0.021,0.239-0.019
			c0.318,0.005,0.569,0.229,0.748,0.675c0.18,0.446,0.335,0.669,0.466,0.671c0.144,0.003,0.342-0.132,0.592-0.403
			c0.425-0.456,0.647-1.083,0.661-1.877c0.005-0.39-0.037-0.811-0.131-1.262c-0.103,0.056-0.155,0.2-0.16,0.431
			c-0.231-0.005-0.376,0.045-0.437,0.146c-0.099-0.031-0.142-0.11-0.126-0.242c0.018-0.188,0.027-0.288,0.029-0.303
			c0.174-0.056,0.262-0.134,0.263-0.234c0.001-0.045-0.031-0.124-0.092-0.24c-0.064-0.118-0.094-0.212-0.093-0.285
			c0.001-0.057,0.015-0.115,0.045-0.173l0.102-0.845c0.317,0.093,1.001,0.134,2.057,0.122c-0.03,0.071,0.012,0.167,0.126,0.284
			c0.102-0.1,0.211-0.149,0.326-0.146c0.087,0.003,0.216,0.04,0.388,0.114C56.427,247.226,56.548,247.265,56.622,247.265"/>
		<path fill="#010101" d="M64.707,254.742c-0.201-0.09-0.418-0.137-0.648-0.142c-0.203-0.003-0.479,0.037-0.826,0.116
			c-0.391,0.081-0.659,0.127-0.804,0.139c-0.153-0.306-0.261-0.728-0.324-1.265c-0.117-0.782-0.189-1.226-0.216-1.327
			c0.043-0.087,0.067-0.159,0.068-0.217c0.003-0.159-0.122-0.303-0.372-0.43c-0.252-0.128-0.375-0.228-0.375-0.3
			c0.001-0.086,0.147-0.215,0.44-0.383c-0.071-0.09-0.123-0.268-0.153-0.535c-0.032-0.268-0.098-0.447-0.197-0.535
			c-0.176,0.156-0.462,0.256-0.86,0.301c-0.398,0.043-0.664,0.107-0.794,0.192c0.008,1.129-0.177,1.886-0.56,2.271
			c-0.201-0.048-0.354,0.03-0.458,0.231c-0.149,0.244-0.275,0.386-0.375,0.427l0.127,0.155c-0.117,0.098-0.306,0.139-0.565,0.121
			c-0.404-0.023-0.621-0.033-0.65-0.033l-0.122-0.393l1.412-11.724c0.013-0.738,0.049-1.237,0.112-1.497
			c-0.019-0.651,0.132-1.053,0.453-1.208c0.2,0.134,0.453,0.204,0.755,0.208c0.245,0.004,0.63-0.046,1.151-0.152
			c0.522-0.107,0.884-0.161,1.087-0.158c0.707,0.014,1.016,0.526,0.926,1.538c-0.072,0.809,0.054,1.875,0.378,3.198
			c0.338,1.424,0.5,2.489,0.488,3.2c-0.003,0.216,0.067,0.665,0.05,0.884c-0.307,0.167-0.698,0.269-1.175,0.303
			c-0.419,0.023-0.846,0.045-1.279,0.067c-0.111-1.103-0.306-2.431-0.417-3.518c-0.137-1.306-0.307-2.379-0.509-3.222l-0.667,6.199
			c-0.053,0.532,0.189,0.805,0.723,0.814c0.173,0.003,0.339-0.039,0.5-0.121c0.13-0.042,0.31,0.055,0.537,0.29
			c-0.008,0.449,0.082,0.72,0.269,0.809c0.233-0.154,0.539-0.301,0.916-0.442c0.335-0.124,0.663-0.24,0.982-0.352
			c0.182,0.25,0.301,0.622,0.35,1.116c0.06,0.694,0.104,1.101,0.131,1.218c0.023,0.274,0.136,0.87,0.337,1.786
			c0.146,0.726,0.216,1.312,0.21,1.762C64.756,254.353,64.738,254.554,64.707,254.742"/>
		<path fill="#010101" d="M74.683,244.403c-0.018,0.043-0.02,0.295-0.014,0.759c-0.006,0.377-0.055,0.659-0.144,0.845
			c-0.107,0.289-0.164,0.699-0.174,1.234c-0.002,0.116,0.001,0.297,0.014,0.545c-0.005,0.245-0.007,0.426-0.01,0.541
			c-0.016,0.913-0.171,1.574-0.467,1.99c0.024,0.233,0.035,0.463,0.031,0.693c-0.011,0.727-0.259,1.698-0.742,2.92
			c-0.131,0.041-0.24,0.062-0.326,0.061c-0.175-0.004-0.299-0.103-0.375-0.3c-0.078-0.197-0.149-0.383-0.219-0.558
			c0.048-1.113,0.026-2.734-0.07-4.865l0.133-0.129c-0.095-0.377-0.138-0.797-0.13-1.262c0.005-0.332,0.045-0.815,0.123-1.452
			c0.074-0.634,0.116-1.11,0.121-1.43c0.005-0.202-0.001-0.399-0.011-0.586c-0.497,1.192-0.85,3.213-1.056,6.062l-0.181,0.43
			c-0.061,0.144-0.185,0.223-0.373,0.232c-0.056-0.1-0.113-0.153-0.171-0.153c-0.042-0.002-0.119,0.052-0.228,0.158
			c-0.111,0.105-0.202,0.151-0.274,0.136l-0.287,0.255c0.129,0.162,0.401,0.182,0.824,0.059c0.332-0.096,0.503,0.029,0.513,0.379
			c0.009,0.29-0.069,0.679-0.237,1.169c-0.168,0.488-0.252,0.855-0.257,1.102c-0.001,0.174,0.016,0.349,0.057,0.522l-1.5,0.236
			c-0.139-0.295-0.242-0.783-0.31-1.472c-0.068-0.69-0.172-1.179-0.311-1.471c0.088-0.1,0.132-0.206,0.135-0.325
			c0.001-0.101-0.04-0.253-0.121-0.457c-0.084-0.204-0.133-0.356-0.146-0.457c-0.011-0.159-0.062-0.545-0.152-1.156
			c-0.064-0.491-0.094-0.877-0.089-1.151c0.002-0.145,0.012-0.276,0.029-0.39c0-0.102-0.056-0.25-0.167-0.448
			c-0.111-0.197-0.167-0.34-0.165-0.427c0-0.071,0.03-0.136,0.089-0.193c-0.1-0.117-0.14-0.32-0.12-0.611
			c0.02-0.287-0.021-0.49-0.119-0.608c-0.213,0.56-0.327,1.319-0.342,2.273c-0.009,1.331-0.022,2.099-0.04,2.301l0.149,0.134
			l-0.152,0.126c0.106,0.523,0.152,1.19,0.14,2c-0.04,1.462-0.059,2.143-0.058,2.041c-0.206,0.186-0.488,0.274-0.848,0.268
			c-0.447-0.008-0.753,0.032-0.913,0.115c-0.183-0.321-0.269-0.734-0.261-1.241c0.006-0.392,0.073-0.866,0.198-1.431
			c-0.196-0.365-0.29-0.875-0.277-1.524c0.002-0.16,0.021-0.463,0.057-0.911c0.021-0.362,0.027-0.629,0.015-0.804
			c0.146-0.07,0.219-0.147,0.221-0.234c0-0.058-0.044-0.155-0.137-0.297c-0.09-0.138-0.136-0.243-0.136-0.314
			c0.002-0.089,0.061-0.175,0.178-0.26l-0.467-7.021c0.278-0.184,0.728-0.271,1.348-0.259c0.679,0.025,1.141-0.009,1.39-0.105
			c0.043-0.03,0.093-0.044,0.151-0.042c0.058,0,0.126,0.034,0.204,0.102c0.08,0.065,0.133,0.099,0.161,0.1
			c0.057,0.002,0.109-0.041,0.155-0.129l0.402,0.399c0.137,0.509,0.264,1.495,0.384,2.959c0.124,1.261,0.316,2.212,0.582,2.854
			c0.353-1.28,0.644-2.355,0.877-3.221l0.469-3.436l3.359-0.071c0.011,0.188,0.052,1.193,0.144,1.774
			c0.078,0.507,0.115,0.92,0.108,1.237c-0.005,0.364-0.061,0.688-0.168,0.975c0.114,0.162,0.168,0.365,0.164,0.611
			C74.861,244.045,74.801,244.246,74.683,244.403"/>
		<path fill="#010101" d="M81.573,252.011l0.001-0.021c-0.089,0.187-0.144,0.404-0.163,0.649c-0.017,0.158-0.021,0.383-0.012,0.671
			c0.009,0.335,0.012,0.567,0.012,0.696c-0.117-0.002-0.579-0.01-1.388-0.022c-0.491-0.01-0.932,0.035-1.325,0.129l-0.402-0.442
			c-0.119,0.113-0.164,0.209-0.135,0.281c-0.072-0.017-0.406-0.021-0.998-0.019c-0.462-0.007-0.808-0.056-1.036-0.147
			c-0.236,0.243-0.513,0.238-0.826-0.015c-0.113-0.087-0.125-0.236-0.035-0.444c0.09-0.209,0.063-0.364-0.078-0.469
			c0.02-0.462,0.085-1.178,0.187-2.146c0.102-0.866,0.156-1.545,0.165-2.038c0.012-0.665-0.035-1.304-0.14-1.913
			c0.162-0.155,0.342-0.232,0.545-0.229c0.232,0.005,0.504,0.118,0.817,0.339c0.442,0.312,0.671,0.467,0.685,0.467l0.127,0.155
			c0.015-0.042,0.092-0.274,0.23-0.691c0.076-0.272,0.187-0.451,0.334-0.536l0.127,0.133c0.059-0.027,0.248-0.163,0.57-0.401
			c0.248-0.171,0.449-0.572,0.594-0.57c0.16,0.003,0.309,0.092,0.451,0.269c0.243,0.134,0.396,0.654,0.471,0.923
			c0.074,0.268,0.147,0.533,0.216,0.796c-0.651,0.019-1.186,0.001-1.603-0.049c-0.105,0.157-0.249,0.18-0.436,0.068
			c-0.186-0.111-0.322-0.096-0.412,0.048c-0.004,0.261-0.014,0.729-0.024,1.411c-0.024,0.606-0.032,1.085-0.023,1.432
			c0.005,0.535,0.04,1.029,0.104,1.48c0.115,0.001,0.664,0.01,1.646,0.027C80.5,251.841,81.083,251.9,81.573,252.011
			 M81.618,241.611c-0.129,0.013-0.271,0.016-0.432,0.016c-0.332-0.007-0.773-0.059-1.319-0.153
			c-0.679-0.099-1.089-0.156-1.232-0.173c-0.208,0.298-0.315,0.726-0.325,1.275c-0.02,1.186-0.021,1.699-0.004,1.541
			c0.199,0.119,0.297,0.338,0.292,0.656c-0.021,0.435-0.026,0.659-0.013,0.671c-0.102,0.044-0.154,0.188-0.158,0.434
			c-0.158-0.061-0.322-0.18-0.492-0.354c-0.226-0.224-0.348,0.526-0.332,0.339l-0.136,0.446l-0.127-0.134
			c-0.118,0.012-0.314-0.05-0.593-0.184s-0.477-0.26-0.59-0.379c0.005-0.231,0.043-0.361,0.115-0.389l-0.276-0.309l-0.134,0.193
			c-0.161-1.508-0.122-4.328,0.078-5.917c0.548,0.096,1.153,0.156,1.818,0.184c0.447,0.02,1.074,0.032,1.884,0.029
			c0.924,0.003,1.59,0.005,1.993,0.014c0.171,0.162,0.255,0.373,0.25,0.633c-0.003,0.161-0.047,0.416-0.132,0.77
			C81.667,241.174,81.622,241.437,81.618,241.611"/>
		<path fill="#010101" d="M57.272,265.138v-0.01c0,0.007-0.038,0.325-0.113,0.957c-0.038,0.387-0.13,0.692-0.279,0.914l-0.093-0.075
			c-0.176,0.367-0.413,0.591-0.717,0.671c-0.146,0.153-0.354,0.235-0.626,0.253c-0.162,0.011-0.537-0.038-1.124-0.142
			c-0.283-0.175-0.437-0.273-0.464-0.292c-0.179-0.134-0.264-0.271-0.255-0.41c-0.172-0.176-0.415-0.489-0.506-0.883
			c-0.11-0.435-0.177-0.46-0.28-0.613c-0.164,0.121-0.222-0.135-0.318-0.289l0.087-0.066c-0.053-0.038-0.081-0.081-0.084-0.129
			c-0.002-0.033,0.012-0.085,0.043-0.152c0.028-0.068,0.043-0.117,0.042-0.152c-0.003-0.055-0.036-0.102-0.097-0.14
			c0.065-0.34,0.125-0.854,0.18-1.537c0.115-0.063,0.17-0.184,0.165-0.363c-0.006-0.177,0.018-0.296,0.075-0.355
			c0.276-0.554,0.724-0.927,1.344-1.121c0.035,0.005,0.201,0.003,0.5-0.007c0.204-0.007,0.36,0.012,0.464,0.054
			c0.186-0.03,0.373,0.014,0.558,0.134c0.161,0.122,0.323,0.243,0.483,0.364c0.3,0.327,0.463,0.696,0.487,1.108
			c0.009,0.137-0.001,0.283-0.027,0.436c-0.222-0.008-0.381,0.14-0.474,0.44l-0.866,0.081c-0.092-0.132-0.146-0.309-0.159-0.528
			c-0.005-0.075-0.004-0.186,0-0.33s0.005-0.254,0-0.33c-0.013-0.227-0.066-0.406-0.159-0.538l-0.261,0.148
			c-0.104-0.042-0.159-0.104-0.164-0.187c-0.001-0.026,0.002-0.066,0.013-0.118c0.009-0.054,0.014-0.09,0.012-0.11
			c-0.005-0.089-0.085-0.143-0.24-0.162c-0.106,0.977-0.138,1.981-0.094,3.011c0.027,0.033,0.11,0.057,0.247,0.069
			c0.111,0.014,0.169,0.05,0.172,0.104c0.002,0.021-0.003,0.047-0.02,0.083l-0.085,0.066c0.046,0.074,0.074,0.175,0.082,0.306
			c0.003,0.068,0.001,0.174-0.007,0.314c-0.01,0.143-0.012,0.248-0.008,0.316c0.013,0.205,0.063,0.361,0.156,0.467
			c-0.009,0.151,0.053,0.254,0.184,0.309c0.083-0.032,0.159-0.051,0.227-0.055c0.263-0.015,0.447,0.129,0.55,0.435
			c0,0.008-0.001,0.058-0.004,0.154c0.002,0.056,0.03,0.091,0.083,0.108c0.115-0.068,0.172-0.191,0.17-0.37
			c-0.003-0.207,0.023-0.34,0.079-0.397c-0.013-0.097-0.071-0.234-0.17-0.414c-0.102-0.18-0.154-0.322-0.161-0.425
			c-0.005-0.11,0.026-0.216,0.098-0.315c-0.06-0.018-0.088-0.056-0.084-0.12c0.004-0.096,0.004-0.147,0.004-0.154
			C56.31,265.032,56.787,265.029,57.272,265.138"/>
		<path fill="#010101" d="M61.192,265.945h-0.011c-0.049,0.099-0.065,0.241-0.048,0.425c0.023,0.261,0.036,0.395,0.036,0.402
			c-0.04,0.014-0.092-0.006-0.159-0.06c-0.102,0.04-0.149,0.103-0.143,0.192c0,0.012,0.006,0.034,0.014,0.066
			c0.002,0.037,0.004,0.063,0.005,0.077c0.003,0.069-0.017,0.121-0.062,0.156c-0.116-0.063-0.267-0.104-0.454-0.122
			c-0.188-0.019-0.367-0.034-0.534-0.051c-0.003-0.872-0.121-1.723-0.351-2.555c0,0.006-0.005-0.08-0.016-0.259
			c0.001-0.128-0.028-0.219-0.086-0.274l-0.081,0.072c0-0.013,0.025-0.038,0.081-0.077c0.052-0.037,0.078-0.076,0.077-0.113
			c-0.002-0.019-0.007-0.04-0.016-0.058l-0.088-0.062c-0.147,0.048-0.216,0.168-0.205,0.357c0.007,0.129-0.045,0.218-0.151,0.271
			c0.041,0.026,0.062,0.065,0.065,0.109c0.002,0.026-0.002,0.062-0.012,0.107c-0.01,0.045-0.013,0.08-0.012,0.106
			c0.004,0.057,0.035,0.102,0.092,0.139c0.002,0.038,0.022,0.383,0.06,1.034c0.025,0.415,0.013,0.769-0.032,1.058l0.008,0.163
			c-0.057-0.002-0.12-0.002-0.19,0.002c-0.079,0.006-0.195,0.016-0.344,0.034c-0.15,0.019-0.26,0.031-0.332,0.035
			c-0.293,0.015-0.498-0.034-0.617-0.147l-0.124-3.577c-0.058-0.175-0.095-0.42-0.114-0.733l-0.039-0.688
			c-0.028-0.337-0.071-0.599-0.13-0.78c0.024-0.124,0.133-0.191,0.322-0.201c0.119-0.007,0.278,0.009,0.479,0.047
			c0.094-0.042,0.222-0.069,0.39-0.079c0.047-0.002,0.122-0.005,0.226-0.002c0.112-0.008,0.19-0.013,0.237-0.016
			c0.309-0.019,0.514-0.112,0.615-0.286c0.144-0.001,0.298,0.044,0.467,0.137c0.167,0.093,0.316,0.143,0.443,0.147
			c0.337,0.198,0.519,0.527,0.545,0.987c0.006,0.103-0.033,0.506-0.119,1.218l-0.579,0.504c0.097,0.181,0.217,0.574,0.355,1.18
			C60.782,265.337,60.956,265.708,61.192,265.945 M60.124,261.875l0.012,0.009c0.01,0.043,0.005-0.113-0.015-0.47
			c-0.012-0.172-0.074-0.296-0.188-0.374c-0.066,0.094,0.007,0.138-0.023,0.354c-0.03,0.216-0.158,0.154-0.233,0.249
			c-0.199-0.002-0.244,0.12-0.286-0.071c-0.09-0.308-0.166-0.28-0.167-0.286l-0.084,0.051c-0.03,0.026-0.064,0.059-0.102,0.091
			c-0.038,0.035-0.076,0.047-0.117,0.036c0.003,0.039-0.016,0.099-0.056,0.182c-0.039,0.083-0.057,0.141-0.055,0.171
			c0.004,0.059,0.048,0.1,0.138,0.127c-0.016,0.129-0.02,0.265-0.012,0.403c0.005,0.077,0.023,0.253,0.055,0.525
			c0.036,0.217,0.051,0.401,0.043,0.555c0.072,0.003,0.139,0.003,0.203-0.001c0.278-0.018,0.457-0.126,0.541-0.329
			c0.029-0.06,0.061-0.273,0.095-0.641C59.903,262.18,59.986,261.985,60.124,261.875"/>
		<path fill="#010101" d="M65.691,267.332c-0.113-0.03-0.233-0.044-0.361-0.036c-0.11,0.007-0.259,0.034-0.446,0.083
			c-0.213,0.051-0.358,0.081-0.437,0.092c-0.095-0.127-0.168-0.309-0.222-0.542c-0.092-0.341-0.147-0.534-0.165-0.577
			c0.023-0.04,0.031-0.072,0.03-0.099c-0.005-0.069-0.079-0.127-0.219-0.173c-0.142-0.047-0.213-0.087-0.215-0.119
			c-0.001-0.038,0.073-0.101,0.228-0.186c-0.043-0.036-0.076-0.111-0.102-0.229c-0.027-0.117-0.069-0.193-0.127-0.229
			c-0.091,0.076-0.245,0.132-0.462,0.167c-0.216,0.034-0.358,0.073-0.428,0.116c0.045,0.497,0,1.37-0.195,1.555
			c-0.112-0.014-0.193,0.025-0.244,0.119c-0.072,0.112-0.137,0.181-0.19,0.203l0.074,0.062c-0.061,0.047-0.162,0.073-0.304,0.076
			c-0.223,0.006-0.341,0.01-0.357,0.01l-0.082-0.167l0.334-5.753c-0.019-0.325-0.016-0.546,0.009-0.662
			c-0.034-0.286,0.037-0.47,0.206-0.55c0.114,0.052,0.254,0.071,0.422,0.062c0.134-0.009,0.343-0.047,0.624-0.114
			c0.281-0.066,0.479-0.104,0.589-0.109c0.389-0.024,0.575,0.189,0.562,0.64c-0.012,0.358,0.095,0.824,0.319,1.394
			c0.233,0.613,0.36,1.078,0.378,1.392c0.005,0.094,0.133,0.297,0.131,0.394c-0.163,0.088-0.374,0.146-0.634,0.181
			c-0.229,0.026-0.46,0.054-0.699,0.079c-0.098-0.48-0.323-1.066-0.422-1.539c-0.12-0.57-0.25-1.036-0.39-1.4l-0.15,2.756
			c-0.01,0.238,0.131,0.349,0.424,0.33c0.096-0.004,0.185-0.028,0.271-0.072c0.07-0.023,0.171,0.014,0.303,0.108
			c0.011,0.198,0.069,0.313,0.176,0.344c0.122-0.076,0.285-0.152,0.486-0.23c0.178-0.066,0.354-0.131,0.525-0.191
			c0.109,0.102,0.186,0.26,0.23,0.476c0.057,0.304,0.096,0.48,0.115,0.531c0.021,0.12,0.104,0.379,0.247,0.774
			c0.106,0.312,0.164,0.568,0.176,0.767C65.704,267.159,65.701,267.248,65.691,267.332"/>
		<path fill="#010101" d="M68.97,260.81l0.012-0.001c-0.095,0.141-0.217,0.167-0.365,0.079c-0.032-0.005-0.173,0.005-0.429,0.024
			c-0.212,0.013-0.368,0.003-0.464-0.029c-0.025,0-0.071,0.024-0.141,0.069c-0.067,0.047-0.118,0.07-0.15,0.072
			c-0.047,0.002-0.075-0.037-0.077-0.12c-0.001-0.014-0.005-0.067-0.011-0.163c-0.004-0.064-0.034-0.107-0.091-0.13l-0.147,0.114
			c-0.047,0.036-0.068,0.07-0.066,0.11c0.001,0.032,0.028,0.076,0.081,0.135c0.049,0.059,0.079,0.101,0.089,0.124
			c0.001,0.019,0.017,0.307,0.049,0.862c0.012,0.352,0.077,0.633,0.193,0.843c0.03-0.033,0.1-0.052,0.217-0.056
			c0.114-0.004,0.189-0.029,0.228-0.075c0.075,0.066,0.201,0.069,0.377,0.013c0.174-0.059,0.301-0.04,0.379,0.058l-0.023,0.848
			c-0.072-0.008-0.177-0.044-0.316-0.106c-0.04,0.125-0.119,0.201-0.237,0.235c-0.047,0.016-0.181,0.029-0.402,0.043
			c0.005-0.04-0.028-0.079-0.103-0.119c-0.215,0.104-0.297,0.347-0.243,0.733c0.004-0.037,0.014,0.028,0.023,0.202
			c0.005,0.107-0.017,0.187-0.069,0.234c-0.135,0.02-0.305-0.011-0.513-0.091c-0.206-0.08-0.354-0.119-0.442-0.114
			c-0.038,0.003-0.074,0.008-0.105,0.017l-0.222,0.07l-0.356-3.87l-0.043-0.736c0.296-0.102,0.663-0.163,1.097-0.189
			c0.341-0.019,0.787-0.016,1.335,0.01c0.035-0.073,0.1,0.021,0.181,0.017c0.039-0.001,0.098,0.002,0.179,0.015
			c0.079,0.01,0.14,0.015,0.179,0.013c0.048-0.003,0.092-0.013,0.129-0.027l0.057-0.06c0.161,0.047,0.247,0.134,0.251,0.253
			c0.004,0.052-0.011,0.139-0.044,0.264c-0.032,0.122-0.046,0.217-0.041,0.281C68.929,260.717,68.944,260.767,68.97,260.81
			 M67.581,267.267c-0.084,0.045-0.214,0.07-0.388,0.082c-0.23,0.012-0.369,0.023-0.415,0.034c-0.026-0.027-0.056-0.006-0.108-0.207
			c-0.032-0.134-0.115-0.196-0.25-0.188c-0.031,0.002-0.069,0.007-0.118,0.016l-0.213,0.013l-0.114-1.958
			c0.116-0.059,0.26-0.092,0.435-0.104c0.167-0.01,0.315,0.008,0.445,0.051c-0.005,0.071,0.097,0.102,0.302,0.088l0.226-0.014
			C67.517,265.632,67.599,266.625,67.581,267.267"/>
		<path fill="#010101" d="M73.719,260.977l0.013,0.009c-0.113-0.006-0.47,0.019-0.747,0.054c-0.235,0.027-0.414,0.03-0.534,0.011
			c-0.115,0.078-0.157,0.183-0.125,0.316l0.072,0.043c-0.06,0.055-0.08,0.098-0.062,0.129l0.062,0.063
			c-0.013,1.136-0.016,1.761-0.01,1.885c0.018,0.299,0.053,0.562,0.105,0.79c-0.047,0.146-0.066,0.309-0.053,0.493
			c0.006,0.121,0.036,0.313,0.086,0.577c0.051,0.263,0.118,1.125,0.126,1.261c0.006,0.101,0.004,0.197-0.007,0.286
			c-0.109,0.046-0.226,0.07-0.353,0.079c-0.214,0.013-0.443-0.032-0.688-0.132c-0.03,0.027-0.063,0.057-0.102,0.088
			c-0.037,0.029-0.048,0.064-0.03,0.102c-0.078,0.023-0.187-0.008-0.327-0.095c-0.075-1.15-0.28-3.491-0.585-5.855
			c-0.106,0.095-0.301,0.016-0.506,0.04c-0.244,0.027-0.484-0.011-0.579,0.034c-0.119-0.129-0.092-0.165-0.105-0.376
			c-0.011-0.204-0.077-0.708-0.025-0.919c0.011-0.044,0.456-0.02,0.716-0.041c0.355-0.021,0.435,0.063,0.458,0.062
			c0.028-0.046,0.202-0.023,0.328-0.031c0.082,0.041,0.169-0.037,0.173,0.021c0.004,0.038,0,0.279-0.027,0.349
			c-0.027,0.068-0.041,0.118-0.039,0.152c0.004,0.075,0.06-0.037,0.188,0.007c0.144-0.001,0.29-0.007,0.44-0.017
			c0.168,0.017,0.36-0.046,0.345,0.097c0.029-0.039,0.047,0.032,0.289-0.065c0.177-0.08,0.285-0.291,0.25-0.435
			c-0.019-0.079,0.089-0.129,0.021-0.092c0.086-0.049,0.007-0.015,0.103-0.052c0.295,0.027,0.461-0.003,0.516-0.008
			c0.119-0.008,0.414,0.07,0.498,0.027c0.062,0.111,0.093,0.461,0.097,0.652C73.711,260.795,73.719,260.957,73.719,260.977"/>
		<path fill="#010101" d="M77.567,264.974l-0.001-0.01c-0.043,0.087-0.064,0.184-0.065,0.292c-0.006,0.071,0.001,0.17,0.017,0.298
			c0.016,0.145,0.025,0.249,0.03,0.305c-0.064,0.004-0.318,0.02-0.762,0.045c-0.268,0.016-0.509,0.052-0.72,0.109l-0.236-0.18
			c-0.06,0.057-0.082,0.099-0.064,0.129c-0.039-0.003-0.222,0.007-0.546,0.032c-0.254,0.016-0.445,0.007-0.573-0.024
			c-0.12,0.115-0.27,0.126-0.451,0.026c-0.065-0.035-0.078-0.1-0.036-0.193c0.043-0.097,0.023-0.164-0.06-0.204
			c-0.004-0.205,0.007-0.521,0.028-0.954c0.027-0.386,0.031-0.687,0.019-0.903c-0.016-0.293-0.064-0.573-0.142-0.838
			c0.082-0.074,0.179-0.115,0.289-0.122c0.127-0.007,0.281,0.031,0.462,0.118c0.252,0.119,0.383,0.18,0.39,0.18l0.076,0.061
			c0.007-0.019,0.041-0.123,0.102-0.312c0.032-0.124,0.086-0.207,0.165-0.25l0.074,0.054c0.031-0.016,0.13-0.081,0.299-0.2
			c0.13-0.085,0.218-0.395,0.298-0.399c0.086-0.004,0.173,0.028,0.255,0.1c0.139,0.05,0.248,0.399,0.299,0.516
			c0.049,0.114,0.098,0.228,0.146,0.341c-0.358,0.034-0.65,0.048-0.88,0.042c-0.051,0.073-0.131,0.088-0.235,0.047
			c-0.107-0.041-0.181-0.028-0.225,0.037c0.006,0.116,0.019,0.323,0.036,0.622c0.007,0.269,0.02,0.479,0.036,0.633
			c0.021,0.235,0.058,0.452,0.109,0.646c0.064-0.004,0.365-0.02,0.903-0.052C76.973,264.941,77.295,264.945,77.567,264.974
			 M77.199,260.469c-0.072,0.011-0.151,0.018-0.236,0.022c-0.184,0.01-0.425,0.007-0.729-0.015
			c-0.373-0.018-0.601-0.024-0.679-0.027c-0.104,0.142-0.118,0.255-0.104,0.495c0.031,0.525,0.048,0.752,0.052,0.682
			c0.113,0.043,0.175,0.138,0.182,0.276c0.004,0.193,0.01,0.291,0.017,0.297c-0.054,0.022-0.078,0.088-0.072,0.196
			c-0.086-0.019-0.182-0.067-0.282-0.137c-0.132-0.088-0.173,0.226-0.17,0.142l-0.061,0.193l-0.074-0.053
			c-0.063,0.01-0.173-0.009-0.331-0.057c-0.159-0.049-0.27-0.098-0.336-0.145c-0.006-0.102,0.009-0.161,0.05-0.177l-0.164-0.123
			l-0.066,0.089c-0.141-0.658-0.236-1.817-0.181-2.524c0.302,0.021,0.656-0.032,1.021-0.047c0.246-0.009,0.591-0.027,1.034-0.06
			c0.504-0.035,0.87-0.06,1.09-0.073c0.1,0.064,0.153,0.155,0.158,0.269c0.005,0.072-0.01,0.187-0.044,0.344
			C77.24,260.196,77.194,260.393,77.199,260.469"/>
		<path fill="#010101" d="M81.519,264.294h-0.012c-0.049,0.099-0.066,0.241-0.047,0.426c0.021,0.262,0.033,0.396,0.033,0.401
			c-0.038,0.017-0.092-0.004-0.158-0.058c-0.1,0.038-0.148,0.103-0.144,0.19c0.003,0.014,0.007,0.034,0.015,0.066
			c0.004,0.037,0.006,0.063,0.006,0.077c0.004,0.069-0.017,0.123-0.062,0.156c-0.115-0.063-0.268-0.104-0.454-0.121
			c-0.188-0.018-0.367-0.035-0.533-0.051c-0.004-0.871-0.121-1.722-0.35-2.555c0,0.007-0.007-0.08-0.017-0.26
			c0-0.126-0.027-0.22-0.088-0.272l-0.078,0.073c0-0.014,0.024-0.04,0.078-0.078c0.054-0.039,0.08-0.077,0.077-0.115
			c-0.002-0.019-0.007-0.037-0.016-0.056l-0.086-0.063c-0.149,0.049-0.217,0.167-0.205,0.358c0.006,0.127-0.046,0.218-0.15,0.268
			c0.037,0.029,0.062,0.067,0.064,0.112c0.002,0.024-0.003,0.061-0.012,0.105c-0.01,0.046-0.016,0.08-0.012,0.106
			c0.002,0.059,0.033,0.104,0.091,0.14c0.003,0.037,0.022,0.383,0.06,1.033c0.025,0.415,0.012,0.77-0.033,1.059l0.01,0.164
			c-0.056-0.004-0.12-0.004-0.191,0c-0.078,0.006-0.193,0.018-0.344,0.034c-0.15,0.019-0.259,0.031-0.332,0.036
			c-0.291,0.015-0.496-0.032-0.614-0.147l-0.125-3.577c-0.058-0.177-0.096-0.42-0.113-0.733l-0.042-0.688
			c-0.026-0.339-0.068-0.6-0.128-0.78c0.025-0.124,0.133-0.19,0.323-0.202c0.118-0.006,0.278,0.009,0.479,0.049
			c0.094-0.045,0.223-0.07,0.389-0.081c0.049-0.002,0.122-0.002,0.227-0.002c0.111-0.006,0.189-0.011,0.236-0.015
			c0.311-0.018,0.516-0.113,0.617-0.284c0.142-0.002,0.297,0.042,0.465,0.134c0.168,0.095,0.316,0.143,0.446,0.148
			c0.334,0.198,0.518,0.526,0.544,0.987c0.006,0.101-0.033,0.507-0.121,1.217L80.633,262c0.099,0.181,0.217,0.575,0.355,1.182
			C81.104,263.687,81.282,264.058,81.519,264.294 M80.446,260.224l0.014,0.01c0.011,0.045,0.004-0.113-0.014-0.471
			c-0.012-0.172-0.076-0.296-0.189-0.372c-0.066,0.093-0.078-0.124-0.109,0.093c-0.031,0.215-0.084,0.371-0.158,0.464
			c-0.197-0.001-0.244-0.12-0.362-0.284c-0.074-0.105-0.11-0.014-0.11-0.021l-0.053,0.045c-0.031,0.027-0.063,0.058-0.102,0.092
			c-0.039,0.034-0.077,0.047-0.118,0.037c0.001,0.037-0.017,0.099-0.056,0.181c-0.038,0.082-0.056,0.139-0.056,0.171
			c0.005,0.057,0.05,0.099,0.139,0.126c-0.017,0.129-0.02,0.264-0.013,0.404c0.006,0.076,0.022,0.252,0.057,0.524
			c0.034,0.216,0.051,0.4,0.043,0.556c0.072,0.002,0.139,0.001,0.203-0.003c0.277-0.015,0.457-0.125,0.539-0.329
			c0.027-0.06,0.061-0.272,0.095-0.64C80.227,260.528,80.312,260.334,80.446,260.224"/>
		<path fill="#010101" d="M42.139,247.798v0.008c-0.035,0.333-0.047,0.562-0.035,0.688c-0.051,0.021-0.117,0.023-0.199,0.01
			c-0.104-0.017-0.166-0.025-0.184-0.024c-0.046,0.002-0.082,0.019-0.109,0.05c-0.066-0.045-0.11-0.062-0.133-0.055
			c-0.062,0.037-0.09,0.092-0.089,0.161c0.003,0.029,0.015,0.078,0.035,0.15c0.021,0.072,0.033,0.124,0.033,0.159
			c0.002,0.047-0.006,0.119-0.026,0.218c-0.022,0.099-0.03,0.181-0.027,0.245c0.004,0.074,0.019,0.193,0.048,0.354
			c0.028,0.158,0.043,0.282,0.049,0.361c-0.033,0.159-0.046,0.319-0.037,0.479c0.01,0.197,0.062,0.462,0.161,0.793
			c0.017,0.005,0.035,0.006,0.053,0.006c0.04-0.002,0.088-0.032,0.143-0.085c0.055-0.056,0.102-0.085,0.143-0.086
			c0.028-0.001,0.061,0.005,0.095,0.02c0.105,0.337,0.158,0.556,0.165,0.654c0.002,0.045,0.001,0.094,0,0.146
			c-0.156,0.037-0.265-0.015-0.329-0.156c0.008-0.041-0.015-0.084-0.067-0.128l-0.173,0.183c0.168,0.025,0.235,0.157,0.202,0.39
			c-0.016,0.047-0.052,0.073-0.11,0.076c-0.098-0.002-0.144-0.003-0.138-0.003l-0.143-0.253l-0.058,0.072
			c-0.047-0.119-0.103-0.179-0.165-0.174c-0.035,0.003-0.096,0.03-0.183,0.086c-0.085,0.058-0.159,0.088-0.217,0.09
			c-0.046,0.003-0.092-0.01-0.141-0.037c-0.003-0.069-0.01-0.141-0.023-0.215s-0.052-0.122-0.116-0.143
			c-0.003-0.18,0.002-0.65,0.016-1.416c0.005-0.579,0-1.049-0.02-1.407c-0.008-0.15-0.018-0.298-0.029-0.441
			c-0.032-0.046-0.063-0.068-0.091-0.066c-0.023,0-0.058,0.027-0.104,0.074c-0.046,0.05-0.089,0.072-0.122,0.068
			c-0.003-0.058-0.03-0.151-0.08-0.279s-0.077-0.22-0.079-0.278c-0.005-0.099,0.031-0.185,0.109-0.259l0.202,0.053
			c0.083-0.114,0.114-0.308,0.101-0.58c-0.002-0.05-0.01-0.134-0.021-0.245c-0.012-0.112-0.019-0.195-0.022-0.248
			c-0.021-0.443,0.114-0.674,0.408-0.688c0.109-0.005,0.244,0.014,0.401,0.059l0.195,0.051c0.015,0.075,0.024,0.153,0.028,0.232
			c0.006,0.109,0,0.271-0.013,0.483c-0.017,0.213-0.022,0.366-0.017,0.466c0.008,0.155,0.035,0.297,0.083,0.421
			c0.046-0.003,0.119-0.027,0.218-0.075c0.099-0.049,0.17-0.073,0.217-0.076C42.023,247.682,42.088,247.719,42.139,247.798
			 M41.538,248.419l-0.012-0.199l-0.062-0.058L41.538,248.419z"/>
		<path fill="#010101" d="M44.516,247.174h0.009c-0.02,0.156-0.045,0.314-0.071,0.471c-0.031,0.184-0.082,0.324-0.151,0.426
			c-0.013-0.005-0.084-0.039-0.213-0.102c-0.089-0.048-0.169-0.066-0.238-0.06c-0.053,0.34-0.079,0.802-0.086,1.388
			c-0.004,0.748-0.01,1.199-0.018,1.357c-0.087-0.008-0.153,0.02-0.195,0.084c-0.045,0.062-0.085,0.127-0.12,0.191
			c-0.017,0.037-0.024,0.069-0.022,0.098c0.001,0.046,0.042,0.09,0.12,0.133c0.077,0.042,0.117,0.09,0.119,0.142
			c-0.033,0.123-0.105,0.188-0.215,0.193c-0.051,0.003-0.142-0.014-0.27-0.047c-0.127-0.034-0.219-0.051-0.272-0.047l-0.123-2.479
			c0.048-0.067,0.068-0.111,0.062-0.134l-0.071-0.05c0.005-0.103,0.012-0.623,0.017-1.556c0.002-0.632,0.026-1.143,0.071-1.533
			c-0.006,0,0.172-0.011,0.535-0.034c0.226-0.012,0.371,0.049,0.434,0.186c0.001,0.127-0.012,0.342-0.037,0.646
			c-0.025,0.278-0.036,0.494-0.028,0.643c0.009,0.186,0.039,0.352,0.085,0.5C44.031,247.326,44.258,247.187,44.516,247.174
			 M45.376,247.704c0.017,0.23,0.032,0.456,0.042,0.676c0.048,0.959,0.033,1.984-0.044,3.078c-0.083,0.074-0.213,0.091-0.384,0.049
			c-0.173-0.04-0.297-0.022-0.375,0.051c-0.1-0.129-0.156-0.359-0.174-0.695c-0.023-0.485-0.037-0.736-0.037-0.756
			c-0.021-1.213,0.098-2.197,0.354-2.945C45.058,247.238,45.264,247.42,45.376,247.704"/>
		<path fill="#010101" d="M48.412,248.963c-0.037,0.077-0.054,0.16-0.049,0.247c0.004,0.086,0.009,0.169,0.014,0.25
			c-0.01,0.069-0.028,0.142-0.059,0.211c-0.054-0.014-0.098-0.02-0.131-0.019c-0.041,0.003-0.083,0.017-0.125,0.046
			c-0.041,0.028-0.073,0.042-0.096,0.042c-0.035,0.004-0.081-0.01-0.141-0.034l-0.401-0.589c0.014,0.172,0.053,0.324,0.117,0.455
			c0.032,0.067,0.064,0.136,0.096,0.203c-0.234,0.042-0.367,0.048-0.398,0.02l-0.057,0.074l-0.138-0.186
			c-0.108,0.134-0.134,0.329-0.075,0.587c0.074,0.28,0.076,0.483,0.014,0.606c0.086,0.129,0.191,0.189,0.312,0.184
			c0.053-0.001,0.098-0.022,0.136-0.059c0.057-0.142,0.113-0.283,0.169-0.425c0.084-0.172,0.179-0.262,0.282-0.268
			c0.082-0.002,0.175,0.039,0.284,0.127c0.13,0.045,0.197,0.106,0.2,0.181c0.002,0.047-0.027,0.121-0.088,0.226
			c-0.062,0.104-0.09,0.185-0.087,0.242c0,0.025,0.004,0.044,0.011,0.062c-0.084,0.062-0.159,0.156-0.224,0.28
			c-0.066,0.123-0.154,0.21-0.26,0.256c-0.095,0.093-0.182,0.139-0.263,0.143c-0.062,0.005-0.158-0.045-0.284-0.145
			c-0.126-0.101-0.245-0.149-0.355-0.145c-0.044-0.102-0.157-0.214-0.337-0.338c-0.18-0.125-0.291-0.258-0.333-0.401
			c0.001,0.013-0.001-0.034-0.006-0.139c-0.003-0.058-0.028-0.094-0.074-0.108l0.066-0.063c-0.088-0.003-0.133-0.054-0.138-0.15
			c-0.001-0.012-0.002-0.035-0.003-0.07c0.004-0.029,0.006-0.051,0.005-0.068c-0.004-0.07-0.026-0.118-0.068-0.146l-0.015-0.303
			c-0.007-0.157-0.04-0.268-0.095-0.334c0.056-0.368,0.115-0.736,0.171-1.103c0.094-0.429,0.232-0.647,0.418-0.656
			c0.028-0.003,0.058,0.002,0.088,0.011c0.164-0.165,0.365-0.251,0.602-0.264c0.259-0.015,0.547,0.065,0.862,0.235
			C48.201,248.043,48.354,248.484,48.412,248.963 M47.219,248.006l-0.056,0.072c-0.04,0.008-0.088-0.013-0.143-0.062l0.011,0.197
			c-0.089,0.1-0.124,0.248-0.108,0.451c0.017,0.346,0.026,0.514,0.025,0.503l0.259-0.005c0.125-0.069,0.183-0.186,0.173-0.348
			c-0.003-0.081-0.031-0.215-0.084-0.4C47.244,248.229,47.218,248.094,47.219,248.006"/>
		<polygon fill-rule="evenodd" clip-rule="evenodd" fill="#010101" points="50.443,257.71 50.703,257.858 51.575,255.558 
			51.285,255.46 50.411,257.761 50.666,257.923 		"/>
		<polygon fill-rule="evenodd" clip-rule="evenodd" fill="#010101" points="50.826,257.39 50.722,257.432 50.443,257.71 
			50.666,257.923 50.946,257.63 50.836,257.686 		"/>
		<polygon fill-rule="evenodd" clip-rule="evenodd" fill="#010101" points="52.942,257.373 53.066,257.276 50.826,257.39 
			50.836,257.686 53.077,257.572 53.22,257.466 		"/>
		<polygon fill-rule="evenodd" clip-rule="evenodd" fill="#010101" points="53.955,255.258 53.801,255.067 52.942,257.373 
			53.219,257.466 54.093,255.165 53.941,254.976 		"/>
		<polygon fill-rule="evenodd" clip-rule="evenodd" fill="#010101" points="51.82,255.331 51.709,255.387 53.955,255.257 
			53.941,254.976 51.705,255.076 51.594,255.131 		"/>
		<polygon fill-rule="evenodd" clip-rule="evenodd" fill="#010101" points="51.575,255.558 51.544,255.608 51.82,255.331 
			51.594,255.131 51.316,255.409 51.285,255.46 		"/>
		<polygon fill-rule="evenodd" clip-rule="evenodd" fill="#010101" points="53.436,257.646 53.635,257.559 53.155,257.29 
			53.002,257.561 53.497,257.836 53.714,257.738 53.422,257.642 		"/>
		<polygon fill-rule="evenodd" clip-rule="evenodd" fill="#010101" points="54.374,255.522 54.296,255.341 53.422,257.642 
			53.713,257.738 54.587,255.438 54.508,255.258 		"/>
		<polygon fill-rule="evenodd" clip-rule="evenodd" fill="#010101" points="54.093,255.165 53.876,255.264 54.374,255.522 
			54.507,255.258 54.029,254.989 53.801,255.067 		"/>
		<polygon fill="#010101" points="51.438,255.513 51.424,255.507 51.701,255.229 53.78,255.128 53.801,255.068 53.955,255.118 
			54.093,255.165 54.083,255.19 54.448,255.394 54.587,255.438 54.53,255.588 55.547,258.012 54.688,260.315 53.575,257.692 
			53.432,257.752 53.423,257.642 53.434,257.613 53.083,257.42 53.002,257.561 52.958,257.425 50.826,257.528 50.549,257.806 		"/>
		<polygon fill-rule="evenodd" clip-rule="evenodd" fill="#010101" points="54.548,260.269 54.832,260.256 53.718,257.633 
			53.432,257.753 54.544,260.375 54.826,260.362 54.535,260.265 		"/>
		<polygon fill-rule="evenodd" clip-rule="evenodd" fill="#010101" points="55.418,258.076 55.409,257.965 54.535,260.264 
			54.826,260.362 55.7,258.063 55.69,257.952 		"/>
		<polygon fill-rule="evenodd" clip-rule="evenodd" fill="#010101" points="54.587,255.438 54.305,255.453 55.418,258.076 
			55.691,257.952 54.577,255.327 54.296,255.341 		"/>
		<polygon fill-rule="evenodd" clip-rule="evenodd" fill="#FFFFFF" points="54.513,256.031 54.638,256.305 54.684,256.582 
			54.67,256.854 54.591,257.138 54.454,257.415 54.263,257.66 54.018,257.887 53.722,258.081 53.561,258.15 53.4,258.22 
			53.219,258.252 53.053,258.289 52.892,258.312 52.717,258.329 52.554,258.307 52.388,258.298 52.246,258.266 52.092,258.212 
			51.944,258.15 51.815,258.075 51.704,257.992 51.581,257.904 51.479,257.794 51.396,257.672 51.27,257.399 51.224,257.122 
			51.224,256.845 51.317,256.567 51.438,256.298 51.631,256.04 51.876,255.812 52.186,255.624 52.333,255.55 52.508,255.483 
			52.674,255.446 52.841,255.41 53.017,255.392 53.178,255.368 53.339,255.392 53.506,255.402 53.659,255.453 53.812,255.502 
			53.949,255.55 54.092,255.627 54.208,255.698 54.329,255.8 54.411,255.921 		"/>
		<polygon fill-rule="evenodd" clip-rule="evenodd" fill="#010101" points="54.623,256.484 54.749,256.758 54.79,257.05 
			54.777,257.323 54.702,257.591 54.578,257.873 54.37,258.127 54.143,258.344 53.833,258.533 53.667,258.617 53.505,258.688 
			53.339,258.724 53.159,258.758 52.998,258.778 52.841,258.788 52.674,258.778 52.499,258.751 52.356,258.718 52.203,258.667 
			52.069,258.606 51.926,258.529 51.811,258.46 51.705,258.361 51.598,258.265 51.506,258.126 51.376,257.867 51.331,257.588 
			51.349,257.302 51.423,257.033 51.547,256.752 51.737,256.506 51.981,256.28 52.291,256.09 52.458,256.008 52.614,255.95 
			52.786,255.901 52.967,255.868 53.123,255.859 53.284,255.837 53.447,255.859 53.611,255.868 53.77,255.906 53.921,255.956 
			54.057,256.018 54.204,256.082 54.313,256.165 54.439,256.253 54.521,256.374 54.62,256.498 		"/>
		<polygon fill-rule="evenodd" clip-rule="evenodd" fill="#FFFFFF" points="54.702,256.803 54.832,257.062 54.874,257.355 
			54.858,257.628 54.786,257.896 54.647,258.173 54.452,258.433 54.226,258.65 53.917,258.839 53.764,258.927 53.589,258.993 
			53.422,259.028 53.242,259.062 53.081,259.084 52.923,259.095 52.758,259.084 52.582,259.057 52.438,259.024 52.287,258.973 
			52.152,258.912 52.01,258.834 51.894,258.764 51.773,258.662 51.685,258.557 51.589,258.431 51.46,258.173 51.413,257.894 
			51.427,257.621 51.506,257.341 51.631,257.058 51.823,256.798 52.078,256.59 52.376,256.396 52.541,256.312 52.703,256.243 
			52.869,256.206 53.048,256.175 53.211,256.151 53.367,256.142 53.547,256.155 53.696,256.175 53.853,256.212 54.006,256.262 
			54.153,256.327 54.283,256.401 54.398,256.47 54.521,256.558 54.604,256.679 		"/>
		<polygon fill-rule="evenodd" clip-rule="evenodd" fill="#010101" points="54.813,257.256 54.937,257.531 54.984,257.809 
			54.984,258.086 54.891,258.362 54.771,258.631 54.563,258.886 54.332,259.116 54.023,259.308 53.875,259.382 53.699,259.446 
			53.533,259.483 53.367,259.521 53.191,259.538 53.029,259.562 52.868,259.538 52.702,259.529 52.545,259.492 52.391,259.441 
			52.257,259.38 52.116,259.303 52.005,259.218 51.894,259.135 51.792,259.023 51.695,258.898 51.584,258.631 51.524,258.348 
			51.538,258.075 51.617,257.794 51.751,257.528 51.945,257.27 52.189,257.042 52.486,256.85 52.646,256.78 52.809,256.711 
			52.988,256.678 53.155,256.642 53.315,256.617 53.487,256.613 53.654,256.623 53.807,256.627 53.963,256.665 54.115,256.716 
			54.264,256.78 54.393,256.854 54.517,256.942 54.628,257.025 54.73,257.138 54.808,257.271 		"/>
		<polygon fill-rule="evenodd" clip-rule="evenodd" fill="#FFFFFF" points="54.975,257.559 55.103,257.818 55.15,258.096 
			55.146,258.387 55.071,258.654 54.933,258.934 54.725,259.188 54.499,259.405 54.202,259.599 54.036,259.682 53.86,259.747 
			53.695,259.784 53.528,259.82 53.353,259.84 53.196,259.85 53.029,259.84 52.868,259.816 52.711,259.779 52.558,259.726 
			52.425,259.666 52.292,259.607 52.165,259.518 52.06,259.421 51.959,259.31 51.875,259.19 51.746,258.931 51.69,258.635 
			51.705,258.361 51.792,258.099 51.917,257.816 52.11,257.559 52.352,257.346 52.646,257.149 52.813,257.067 52.974,256.999 
			53.15,256.979 53.321,256.928 53.483,256.904 53.654,256.9 53.819,256.909 53.968,256.929 54.125,256.966 54.29,257.021 
			54.426,257.08 54.559,257.143 54.684,257.229 54.79,257.325 54.892,257.437 		"/>
		<polygon fill-rule="evenodd" clip-rule="evenodd" fill="#010101" points="55.1,258.017 55.21,258.284 55.271,258.566 
			55.256,258.842 55.178,259.121 55.042,259.386 54.849,259.645 54.604,259.871 54.309,260.065 54.147,260.135 53.972,260.199 
			53.805,260.236 53.639,260.273 53.477,260.296 53.303,260.315 53.141,260.292 52.974,260.282 52.831,260.251 52.665,260.195 
			52.531,260.135 52.402,260.061 52.277,259.974 52.166,259.89 52.065,259.778 51.981,259.656 51.856,259.384 51.795,259.103 
			51.811,258.829 51.904,258.552 52.023,258.284 52.218,258.024 52.462,257.799 52.771,257.608 52.92,257.535 53.095,257.469 
			53.261,257.432 53.427,257.395 53.603,257.378 53.764,257.354 53.926,257.378 54.079,257.383 54.249,257.425 54.401,257.475 
			54.535,257.535 54.666,257.608 54.791,257.696 54.901,257.78 55.001,257.892 		"/>
		<polygon fill-rule="evenodd" clip-rule="evenodd" fill="#010101" points="39.831,254.484 39.845,254.397 38.966,256.71 
			39.244,256.803 40.122,254.489 40.126,254.43 		"/>
		<polygon fill-rule="evenodd" clip-rule="evenodd" fill="#010101" points="39.808,254.37 39.812,254.355 39.831,254.485 
			40.126,254.43 40.094,254.296 40.099,254.281 		"/>
		<polygon fill-rule="evenodd" clip-rule="evenodd" fill="#010101" points="39.775,254.236 39.808,254.368 40.099,254.281 
			40.066,254.147 		"/>
		
			<rect x="39.839" y="253.979" transform="matrix(-0.2952 -0.9554 0.9554 -0.2952 -191.1271 367.2687)" fill-rule="evenodd" clip-rule="evenodd" fill="#010101" width="0.126" height="0.303"/>
		<polygon fill-rule="evenodd" clip-rule="evenodd" fill="#010101" points="39.708,253.981 39.708,253.981 39.738,254.114 
			40.03,254.026 39.997,253.892 39.993,253.905 		"/>
		<polygon fill-rule="evenodd" clip-rule="evenodd" fill="#010101" points="39.67,253.812 39.67,253.86 39.708,253.981 
			39.994,253.905 39.956,253.785 39.97,253.838 		"/>
		<polygon fill-rule="evenodd" clip-rule="evenodd" fill="#010101" points="39.965,253.759 39.674,253.706 39.671,253.812 
			39.97,253.838 39.974,253.731 39.685,253.679 39.96,253.771 		"/>
		<polygon fill-rule="evenodd" clip-rule="evenodd" fill="#4D494A" points="40.217,260.491 40.19,260.343 39.879,260.394 
			39.902,260.556 		"/>
		<polygon fill-rule="evenodd" clip-rule="evenodd" fill="#010101" points="40.86,258.562 40.87,258.487 39.997,260.787 
			40.272,260.879 41.146,258.581 41.141,258.502 		"/>
		<polygon fill-rule="evenodd" clip-rule="evenodd" fill="#010101" points="40.838,258.399 40.861,258.562 41.142,258.502 
			41.119,258.34 40.823,258.396 		"/>
		<polygon fill-rule="evenodd" clip-rule="evenodd" fill="#010101" points="40.795,258.247 40.823,258.396 41.119,258.339 
			41.077,258.188 		"/>
		<polygon fill-rule="evenodd" clip-rule="evenodd" fill="#010101" points="40.759,258.081 40.768,258.099 40.795,258.247 
			41.077,258.188 41.054,258.024 41.063,258.044 		"/>
		<polygon fill-rule="evenodd" clip-rule="evenodd" fill="#010101" points="41.036,257.941 40.74,257.904 40.758,258.08 
			41.063,258.044 41.04,257.883 40.744,257.846 		"/>
		<path fill="#4D494A" d="M38.969,256.25l-0.14,0.045L38.969,256.25z"/>
		<polygon fill="#4D494A" points="39.114,256.733 39.119,256.719 39.191,256.725 39.244,256.803 39.115,256.76 		"/>
		<polygon fill="#010101" points="38.796,256.16 38.944,256.132 38.949,256.025 39.826,253.711 39.822,253.727 39.822,253.819 
			39.845,253.935 39.892,254.073 39.928,254.191 39.96,254.327 39.984,254.442 40.122,254.489 39.244,256.803 39.191,256.724 
			39.119,256.719 39.114,256.733 39.115,256.76 39.244,256.803 39.117,256.794 39.119,256.899 39.03,256.79 38.958,256.783 
			38.939,256.654 38.992,256.645 39.049,256.494 38.902,256.535 38.859,256.427 38.829,256.293 38.969,256.25 38.829,256.293 
			38.832,256.28 		"/>
		<polygon fill="#010101" points="39.11,256.604 45.538,256.393 45.705,256.404 45.732,256.411 45.891,256.448 45.905,256.453 
			46.069,256.509 46.231,256.579 46.245,256.582 46.398,256.682 46.426,256.69 46.546,256.79 46.583,256.819 46.669,256.926 
			46.68,256.944 46.74,257.041 46.745,257.074 46.461,257.159 46.416,257.088 46.412,257.102 46.337,257 46.339,257 46.241,256.922 
			46.264,256.944 46.107,256.862 46.107,256.859 45.944,256.79 45.806,256.746 45.648,256.707 45.677,256.718 45.529,256.699 
			45.529,256.686 39.119,256.899 		"/>
		<polygon fill="#010101" points="46.454,257.162 46.46,257.159 46.477,257.185 		"/>
		<polygon fill-rule="evenodd" clip-rule="evenodd" fill="#010101" points="49.889,262.567 49.889,262.475 49.011,264.788 
			49.302,264.886 50.179,262.573 50.179,262.479 		"/>
		<polygon fill-rule="evenodd" clip-rule="evenodd" fill="#010101" points="47.349,254.886 47.331,254.849 49.889,262.567 
			50.179,262.479 47.623,254.762 47.617,254.727 		"/>
		<polygon fill-rule="evenodd" clip-rule="evenodd" fill="#010101" points="47.299,254.808 47.291,254.789 47.348,254.886 
			47.618,254.727 47.558,254.63 47.544,254.627 47.285,254.803 		"/>
		<polygon fill-rule="evenodd" clip-rule="evenodd" fill="#010101" points="47.239,254.71 47.215,254.688 47.285,254.803 
			47.544,254.625 47.447,254.502 47.423,254.477 		"/>
		<polygon fill-rule="evenodd" clip-rule="evenodd" fill="#010101" points="47.137,254.646 47.114,254.622 47.239,254.71 
			47.424,254.478 47.299,254.392 47.276,254.366 		"/>
		<polygon fill-rule="evenodd" clip-rule="evenodd" fill="#010101" points="46.999,254.551 46.985,254.547 47.137,254.646 
			47.276,254.366 47.119,254.283 47.105,254.278 		"/>
		<polygon fill-rule="evenodd" clip-rule="evenodd" fill="#010101" points="46.852,254.486 46.818,254.491 46.998,254.551 
			47.105,254.28 46.943,254.209 46.929,254.205 46.833,254.496 		"/>
		<polygon fill-rule="evenodd" clip-rule="evenodd" fill="#010101" points="46.685,254.433 46.667,254.44 46.833,254.496 
			46.93,254.205 46.763,254.149 46.68,254.445 		"/>
		<polygon fill-rule="evenodd" clip-rule="evenodd" fill="#010101" points="46.555,254.403 46.528,254.395 46.68,254.445 
			46.763,254.149 46.591,254.107 46.578,254.103 		"/>
		<polygon fill-rule="evenodd" clip-rule="evenodd" fill="#010101" points="46.407,254.385 46.403,254.398 46.555,254.403 
			46.578,254.104 46.417,254.079 46.398,254.09 		"/>
		<polygon fill-rule="evenodd" clip-rule="evenodd" fill="#010101" points="40.136,254.494 39.979,254.596 46.407,254.385 
			46.399,254.09 39.984,254.304 39.845,254.397 40.122,254.489 		"/>
		<polygon fill="#4D494A" points="41.75,261.528 41.728,261.517 41.742,261.51 		"/>
		<path fill="#4D494A" d="M45.222,262.568l-0.027,0.312L45.222,262.568z"/>
		<path fill="#010101" d="M39.903,260.556l0.028,0.148l0.056,0.157l0.069,0.115l0.393,0.208l0.393,0.21l0.378,0.203l0.384,0.189
			l0.014,0.005l0.388,0.176l0.388,0.176l0.419,0.171l0.424,0.157l0.014,0.005l0.452,0.122l0.453,0.12l0.014,0.003l0.5,0.075
			l0.511,0.079l0.014,0.005l0.559,0.033l0.02-0.011l0.596,0.015l0.638-0.019l0.674-0.036l0.139-0.093l0.873-2.299l-0.148-0.206
			l0.01,0.298l-0.047-0.058l0.033-0.085l-0.097,0.005l-0.042-0.054l-0.022,0.059l-0.5,0.031h-0.647l-0.596-0.015l-0.545-0.027
			l-0.531-0.069l-0.494-0.09l-0.454-0.118l-0.452-0.122l-0.425-0.157l-0.411-0.153l-0.386-0.175l-0.384-0.19l-0.396-0.196
			l-0.379-0.201l-0.379-0.205l-0.262-0.139l0.008-0.022l-0.138-0.048l-0.038-0.165l-0.027-0.149l-0.011-0.05l0.104-0.228
			l-0.146-0.049l-0.006-0.002l-0.139-0.045l-0.873,2.299l-0.01,0.073l0.024,0.162L39.903,260.556z M40.01,260.191l0.005,0.028
			L40,260.214L40.01,260.191z"/>
		<polygon fill-rule="evenodd" clip-rule="evenodd" fill="#010101" points="47.879,260.601 48.554,260.563 48.544,260.266 
			47.87,260.303 		"/>
		
			<rect x="47.238" y="260.311" transform="matrix(-0.9996 0.0276 -0.0276 -0.9996 102.2826 519.5093)" fill-rule="evenodd" clip-rule="evenodd" fill="#010101" width="0.637" height="0.298"/>
		<polygon fill-rule="evenodd" clip-rule="evenodd" fill="#010101" points="46.632,260.6 46.646,260.604 47.242,260.618 
			47.234,260.323 46.637,260.308 46.655,260.3 46.629,260.615 		"/>
		<polygon fill-rule="evenodd" clip-rule="evenodd" fill="#010101" points="46.06,260.563 46.074,260.568 46.629,260.612 
			46.655,260.298 46.097,260.266 46.11,260.271 		"/>
		<polygon fill-rule="evenodd" clip-rule="evenodd" fill="#010101" points="45.542,260.498 46.06,260.563 46.11,260.271 
			45.598,260.191 		"/>
		<polygon fill-rule="evenodd" clip-rule="evenodd" fill="#010101" points="45.034,260.404 45.047,260.409 45.542,260.498 
			45.597,260.191 45.085,260.112 45.098,260.117 		"/>
		<polygon fill-rule="evenodd" clip-rule="evenodd" fill="#010101" points="44.583,260.284 45.034,260.404 45.098,260.117 
			44.646,259.997 44.576,260.298 		"/>
		<polygon fill-rule="evenodd" clip-rule="evenodd" fill="#010101" points="44.11,260.173 44.125,260.178 44.576,260.298 
			44.646,259.997 44.194,259.877 44.208,259.882 		"/>
		<polygon fill-rule="evenodd" clip-rule="evenodd" fill="#010101" points="43.685,260.016 43.685,260.016 44.11,260.173 
			44.208,259.882 43.782,259.724 43.797,259.729 43.672,260.011 		"/>
		<polygon fill-rule="evenodd" clip-rule="evenodd" fill="#010101" points="43.265,259.845 43.672,260.011 43.797,259.729 
			43.392,259.562 		"/>
		<polygon fill-rule="evenodd" clip-rule="evenodd" fill="#010101" points="42.878,259.669 43.265,259.845 43.392,259.562 
			42.998,259.401 		"/>
		<polygon fill-rule="evenodd" clip-rule="evenodd" fill="#010101" points="42.48,259.474 42.491,259.493 42.878,259.668 
			42.999,259.4 42.601,259.204 42.614,259.211 42.476,259.488 		"/>
		<polygon fill-rule="evenodd" clip-rule="evenodd" fill="#010101" points="42.097,259.284 42.476,259.488 42.614,259.211 
			42.231,259.02 42.094,259.298 		"/>
		<polygon fill-rule="evenodd" clip-rule="evenodd" fill="#010101" points="41.718,259.081 42.094,259.299 42.231,259.02 
			41.853,258.816 41.705,259.077 		"/>
		<polygon fill-rule="evenodd" clip-rule="evenodd" fill="#010101" points="41.326,258.871 41.705,259.077 41.853,258.816 
			41.475,258.612 		"/>
		<polygon fill-rule="evenodd" clip-rule="evenodd" fill="#010101" points="41.146,258.581 40.934,258.663 41.326,258.871 
			41.474,258.612 41.082,258.404 40.869,258.487 		"/>
		<polygon fill-rule="evenodd" clip-rule="evenodd" fill="#010101" points="81.182,254.412 80.304,256.725 83.169,257.685 
			83.836,256.148 83.855,256 83.859,255.848 83.836,255.686 83.78,255.529 83.688,255.389 83.614,255.239 83.494,255.094 
			83.37,254.96 83.24,254.839 83.098,254.712 82.95,254.604 82.807,254.523 82.668,254.433 82.505,254.362 82.363,254.282 
			82.225,254.236 82.101,254.195 81.95,254.177 81.818,254.162 81.689,254.181 81.56,254.199 81.422,254.246 81.302,254.328 		"/>
		<polygon fill-rule="evenodd" clip-rule="evenodd" fill="#010101" points="83.042,257.61 83.222,257.531 80.354,256.572 
			80.257,256.864 83.125,257.823 83.319,257.749 		"/>
		<polygon fill="#010101" points="38.796,256.021 38.809,255.979 39.684,253.679 39.96,253.771 39.114,256.042 39.096,256.137 
			39.091,256.104 38.796,256.16 38.792,256.127 		"/>
		<polygon fill="#4D494A" points="52.859,261.463 52.807,261.495 52.804,261.489 		"/>
		<path fill="#010101" d="M38.902,256.535l0.033,0.134l0.005-0.015l0.224-0.047l-0.058,0.148l6.429-0.211l0.151,0.007l0.167,0.054
			l0.166,0.056l0.167,0.058l0.153,0.095l0.125,0.089l0.087,0.106l0.055,0.108l-0.151,0.045l2.557,7.719l0.149,0.004l0.004,0.094
			h0.229l0.218-0.005l0.198,0.005l0.181-0.033l0.184-0.046l0.185-0.093l0.171-0.143l0.203-0.194l0.005-0.014l0.115-0.162
			l0.135-0.171l0.153-0.181l0.105-0.181l0.134-0.217l0.139-0.187l0.115-0.208l0.148-0.212l0.12-0.176l0.171-0.189l0.141-0.186
			l0.161-0.162l0.143-0.152l0.152-0.134l0.148-0.119l0.169-0.099l0.038-0.018l-0.109-0.105l0.109,0.105l0.171-0.19l0.157-0.147
			l0.139-0.139l0.147-0.12l0.144-0.105l0.152-0.09l0.134-0.077l0.147-0.073l0.168-0.039l0.161-0.069l0.167-0.035l0.193-0.03
			l0.212-0.036l0.235-0.014l0.255-0.023l0.25-0.009l0.013,0.004l27.744-2.075l0.16-0.022l0.149-0.029l0.134-0.032l0.139-0.047
			l0.127-0.064l0.136-0.078l0.111-0.103l0.129-0.108l0.027-0.039l0.485-1.133l-0.254-0.161l0.113,0.106l-0.018,0.015l-0.123-0.084
			l-0.121,0.282l-0.083,0.05l-0.105,0.042l-0.126,0.051l-0.115,0.022l-0.148,0.028l-0.146,0.027l-27.758,2.073l-0.177,0.018
			l-0.17,0.005l-0.17,0.005l-0.18,0.031h-0.185l-0.161,0.021l-0.177,0.021l-0.161,0.022l-0.182,0.031l-0.161,0.023l-0.166,0.035
			l-0.184,0.048l-0.167,0.037l-0.176,0.062l-0.175,0.067l-0.166,0.082l-0.328,0.2l-0.332,0.305l-0.352,0.361l-0.338,0.41
			l-0.327,0.43l-0.282,0.386l-0.277,0.369l-0.231,0.277l-0.133,0.033l-0.115,0.022l-0.144,0.015h-0.139h-0.138l-0.12-0.009
			l-0.152-0.006l-0.134-0.014l-2.548-7.7l-0.056-0.111l-0.087-0.106l-0.125-0.09l-0.167-0.101l-0.162-0.07l-0.166-0.055
			l-0.157-0.038l-0.154-0.004l-6.423,0.196l-0.772,2.036l-0.004-0.027L38.902,256.535z M85.064,256.748l0.01-0.02l0.105,0.101
			L85.064,256.748z"/>
		<polygon fill-rule="evenodd" clip-rule="evenodd" fill="#010101" points="84.095,257.315 84.261,257.278 84.409,257.25 
			84.542,257.218 84.681,257.172 84.81,257.107 84.944,257.028 85.051,256.94 85.18,256.827 84.958,256.617 84.86,256.724 
			84.759,256.797 84.662,256.857 84.556,256.898 84.454,256.927 84.333,256.963 84.206,256.981 84.063,256.996 		"/>
		<polygon fill-rule="evenodd" clip-rule="evenodd" fill="#010101" points="56.355,259.377 84.095,257.315 84.062,256.996 
			56.319,259.072 		"/>
		<polygon fill-rule="evenodd" clip-rule="evenodd" fill="#010101" points="53.634,259.871 53.796,259.803 53.955,259.747 
			54.143,259.687 54.3,259.632 54.47,259.58 54.632,259.558 54.793,259.535 54.973,259.501 55.121,259.474 55.293,259.47 
			55.469,259.451 55.644,259.433 55.819,259.414 55.976,259.405 56.166,259.392 56.355,259.377 56.319,259.072 56.142,259.091 
			55.968,259.109 55.783,259.109 55.607,259.126 55.437,259.132 55.271,259.169 55.099,259.174 54.91,259.188 54.743,259.225 
			54.577,259.262 54.397,259.292 54.212,259.34 54.055,259.394 53.865,259.455 53.677,259.516 53.51,259.599 		"/>
		<polygon fill-rule="evenodd" clip-rule="evenodd" fill="#010101" points="51.148,262.619 51.209,262.577 51.335,262.434 
			51.446,262.287 51.578,262.115 51.717,261.93 51.875,261.736 52.019,261.535 52.18,261.329 52.342,261.12 52.507,260.897 
			52.679,260.708 52.845,260.532 53.016,260.343 53.159,260.191 53.339,260.065 53.486,259.944 53.634,259.871 53.51,259.599 
			53.321,259.705 53.159,259.82 52.969,259.973 52.79,260.144 52.622,260.32 52.457,260.496 52.272,260.727 52.11,260.935 
			51.948,261.143 51.786,261.351 51.644,261.549 51.487,261.743 51.347,261.93 51.214,262.102 51.103,262.249 51.001,262.369 
			51.057,262.34 		"/>
		<polygon fill-rule="evenodd" clip-rule="evenodd" fill="#FFFFFF" points="45.835,254.256 46.407,254.246 46.454,254.246 
			41.536,252.602 41.287,252.75 45.83,254.27 		"/>
		<polygon fill-rule="evenodd" clip-rule="evenodd" fill="#FFFFFF" points="45.835,254.256 39.983,254.442 39.96,254.327 
			39.928,254.194 39.892,254.074 39.845,253.935 39.822,253.817 39.822,253.727 39.858,253.614 39.96,253.54 40.2,253.374 
			40.468,253.216 40.737,253.06 41.005,252.902 41.259,252.74 41.287,252.75 45.83,254.27 		"/>
		<polygon fill="#FFFFFF" points="42.278,257.816 46.264,257.593 47.825,258.223 48.375,259.856 48.541,260.422 47.88,260.462 
			47.234,260.462 46.637,260.447 46.092,260.42 45.561,260.351 45.067,260.261 44.613,260.143 44.161,260.021 43.737,259.862 
			43.324,259.71 42.939,259.535 42.554,259.345 42.158,259.148 41.778,258.947 41.4,258.742 41.008,258.533 40.971,258.368 
			40.943,258.219 40.906,258.054 40.883,257.891 		"/>
		<polygon fill-rule="evenodd" clip-rule="evenodd" fill="#FFFFFF" points="52.318,258.274 52.374,258.339 52.887,258.65 
			53.053,258.381 52.54,258.071 52.591,258.15 52.318,258.274 52.337,258.312 52.374,258.339 		"/>
		<polygon fill-rule="evenodd" clip-rule="evenodd" fill="#FFFFFF" points="47.759,258.37 47.672,258.263 48.402,260.467 
			48.692,260.379 47.963,258.175 47.885,258.087 47.963,258.175 47.939,258.105 47.885,258.087 		"/>
		<polygon fill-rule="evenodd" clip-rule="evenodd" fill="#FFFFFF" points="46.278,257.735 46.204,257.727 47.759,258.368 
			47.885,258.087 46.33,257.444 46.268,257.439 46.33,257.444 46.301,257.435 46.268,257.439 		"/>
		<polygon fill-rule="evenodd" clip-rule="evenodd" fill="#FFFFFF" points="41.04,257.882 40.893,258.048 46.277,257.735 
			46.268,257.439 40.883,257.752 40.741,257.905 40.883,257.752 40.712,257.757 40.741,257.905 		"/>
		<polygon fill-rule="evenodd" clip-rule="evenodd" fill="#FFFFFF" points="41.082,258.405 41.141,258.502 41.138,258.423 
			41.119,258.34 41.114,258.26 41.091,258.191 41.087,258.113 41.068,258.029 41.044,257.96 41.04,257.881 40.74,257.904 
			40.74,257.997 40.754,258.095 40.777,258.163 40.781,258.242 40.805,258.312 40.823,258.396 40.855,258.482 40.86,258.562 
			40.934,258.663 40.86,258.562 40.883,258.631 40.934,258.663 		"/>
		<polygon fill-rule="evenodd" clip-rule="evenodd" fill="#FFFFFF" points="48.407,260.452 48.53,260.264 47.871,260.303 
			47.232,260.323 46.655,260.3 46.096,260.266 45.597,260.191 45.098,260.117 44.646,259.998 44.208,259.881 43.783,259.724 
			43.39,259.562 42.998,259.4 42.614,259.211 42.231,259.02 41.853,258.816 41.475,258.613 41.082,258.405 40.934,258.663 
			41.326,258.872 41.705,259.077 42.094,259.298 42.476,259.488 42.878,259.669 43.265,259.845 43.685,260.016 44.11,260.173 
			44.576,260.298 45.034,260.404 45.542,260.498 46.073,260.568 46.628,260.615 47.242,260.618 47.879,260.601 48.568,260.568 
			48.692,260.379 48.568,260.568 48.758,260.554 48.692,260.379 48.402,260.467 		"/>
		<polygon fill-rule="evenodd" clip-rule="evenodd" fill="#FFFFFF" points="56.319,259.072 56.115,259.082 55.889,259.114 
			55.686,259.121 55.464,259.142 55.251,259.177 55.025,259.211 54.8,259.243 54.581,259.292 54.364,259.345 54.175,259.405 
			53.968,259.474 53.773,259.548 53.607,259.632 53.408,259.719 53.247,259.835 53.098,259.954 53.284,260.187 53.425,260.079 
			53.565,259.986 53.717,259.899 53.893,259.835 54.064,259.737 54.249,259.691 54.466,259.641 54.655,259.58 54.863,259.558 
			55.048,259.512 55.271,259.493 55.481,259.456 55.709,259.424 55.931,259.405 56.138,259.382 56.355,259.377 		"/>
		<polygon fill-rule="evenodd" clip-rule="evenodd" fill="#FFFFFF" points="84.062,256.996 56.319,259.072 56.355,259.377 
			84.095,257.315 		"/>
		<polygon fill-rule="evenodd" clip-rule="evenodd" fill="#FFFFFF" points="84.58,255.302 84.694,255.463 84.814,255.611 
			84.87,255.77 84.958,255.922 85.005,256.062 85.019,256.206 85.022,256.33 85.015,256.448 84.98,256.548 84.935,256.64 
			84.875,256.729 84.769,256.815 84.658,256.872 84.481,256.935 84.299,256.981 84.063,256.996 84.095,257.315 84.35,257.292 
			84.57,257.227 84.764,257.152 84.935,257.056 85.092,256.954 85.202,256.806 85.263,256.672 85.317,256.506 85.313,256.333 
			85.323,256.167 85.286,256 85.226,255.812 85.156,255.648 85.064,255.463 84.944,255.27 84.824,255.121 		"/>
		<polygon fill-rule="evenodd" clip-rule="evenodd" fill="#FFFFFF" points="81.272,253.719 81.523,253.709 81.776,253.733 
			82.034,253.788 82.285,253.825 82.521,253.903 82.756,253.983 82.981,254.09 83.195,254.191 83.416,254.311 83.619,254.44 
			83.837,254.574 83.994,254.705 84.159,254.854 84.321,255.015 84.454,255.167 84.58,255.302 84.824,255.121 84.681,254.95 
			84.52,254.789 84.357,254.628 84.179,254.475 83.979,254.331 83.781,254.187 83.578,254.057 83.347,253.918 83.107,253.807 
			82.862,253.709 82.612,253.627 82.35,253.539 82.091,253.483 81.827,253.441 81.526,253.416 81.263,253.422 		"/>
		<polygon fill-rule="evenodd" clip-rule="evenodd" fill="#FFFFFF" points="56.726,254.565 81.274,253.719 81.263,253.422 
			56.73,254.273 		"/>
		<polygon fill-rule="evenodd" clip-rule="evenodd" fill="#FFFFFF" points="52.85,253.946 53.082,254.041 53.325,254.093 
			53.562,254.17 53.807,254.222 54.064,254.278 54.306,254.342 54.568,254.383 54.805,254.417 55.05,254.467 55.303,254.49 
			55.552,254.526 55.798,254.534 56.033,254.565 56.283,254.556 56.508,254.569 56.726,254.565 56.73,254.273 56.499,254.273 
			56.273,254.259 56.061,254.251 55.82,254.231 55.581,254.214 55.339,254.194 55.104,254.162 54.855,254.124 54.611,254.074 
			54.375,254.041 54.135,253.977 53.885,253.939 53.645,253.875 53.391,253.804 53.178,253.748 52.942,253.67 52.847,253.963 		"/>
		<polygon fill-rule="evenodd" clip-rule="evenodd" fill="#FFFFFF" points="44.569,251.674 44.991,251.613 45.386,251.576 
			45.765,251.549 46.113,251.526 46.441,251.512 46.736,251.549 47.041,251.559 47.296,251.581 47.558,251.623 47.803,251.675 
			48.033,251.72 48.242,251.79 48.463,251.864 48.639,251.938 48.856,252.026 49.028,252.114 49.226,252.21 49.424,252.31 
			49.618,252.421 49.812,252.532 50.006,252.642 50.209,252.772 50.408,252.87 50.625,253.003 50.866,253.114 51.096,253.253 
			51.354,253.354 51.603,253.483 51.885,253.609 52.19,253.713 52.514,253.85 52.847,253.963 52.942,253.67 52.61,253.559 
			52.283,253.434 52.01,253.327 51.724,253.216 51.461,253.082 51.234,252.977 51.003,252.837 50.777,252.73 50.555,252.61 
			50.348,252.495 50.154,252.384 49.952,252.253 49.756,252.144 49.558,252.045 49.358,251.947 49.179,251.841 48.98,251.744 
			48.764,251.656 48.56,251.572 48.339,251.499 48.103,251.42 47.859,251.368 47.61,251.333 47.336,251.271 47.055,251.239 
			46.763,251.234 46.426,251.229 46.103,251.229 45.73,251.244 45.351,251.271 44.948,251.32 44.532,251.368 44.556,251.668 		"/>
		<polygon fill-rule="evenodd" clip-rule="evenodd" fill="#FFFFFF" points="40.039,253.674 40.28,253.508 40.547,253.353 
			40.816,253.193 41.088,253.022 41.337,252.875 41.619,252.723 41.881,252.579 42.155,252.455 42.446,252.321 42.736,252.186 
			43.022,252.066 43.318,251.965 43.637,251.886 43.927,251.796 44.247,251.719 44.556,251.668 44.532,251.368 44.186,251.438 
			43.858,251.497 43.535,251.588 43.23,251.673 42.926,251.803 42.611,251.913 42.326,252.033 42.034,252.167 41.739,252.314 
			41.457,252.468 41.194,252.611 40.926,252.768 40.657,252.926 40.39,253.082 40.136,253.245 39.882,253.406 40.025,253.67 		"/>
		<polygon fill-rule="evenodd" clip-rule="evenodd" fill="#FFFFFF" points="39.983,254.304 40.14,254.435 40.094,254.296 
			40.066,254.146 40.03,254.026 39.997,253.892 39.979,253.81 39.966,253.759 39.987,253.688 40.025,253.67 39.882,253.406 
			39.749,253.531 39.678,253.694 39.66,253.841 39.707,253.981 39.738,254.114 39.777,254.236 39.812,254.355 39.835,254.471 
			39.979,254.596 39.835,254.471 39.84,254.596 39.979,254.596 		"/>
		<polygon fill="#FFFFFF" points="51.322,255.396 51.318,255.41 51.317,255.41 		"/>
		<polygon fill="#FFFFFF" points="51.252,255.465 51.317,255.409 51.28,255.568 		"/>
		<polygon fill="#FFFFFF" points="55.386,257.232 60.447,258.925 59.898,258.958 59.893,258.971 55.5,257.503 		"/>
		<path fill="#FFFFFF" d="M39.979,254.596l6.429-0.211l0.134,0.014l0.125,0.042l0.167,0.056l0.153,0.051l0.138,0.094l0.102,0.065
			l0.06,0.097l0.046,0.046l2.558,7.719l0.038,0.12l0.125-0.004l0.129-0.019l0.147,0.019l0.181,0.014l0.171-0.005l0.166,0.009
			l0.153-0.041l0.171-0.051l0.138-0.093l0.167-0.176l0.138-0.185l0.129-0.157l0.13-0.156l0.112-0.148l0.106-0.134l0.092-0.141
			l0.11-0.148l0.094-0.138l0.106-0.132l0.106-0.137l0.116-0.115l0.12-0.129l0.139-0.14l0.138-0.139l0.177-0.157l-0.094-0.118
			l0.139-0.113l0.157-0.101l0.181-0.08l0.166-0.082l0.181-0.079l0.202-0.055l0.21-0.069l0.202-0.056l0.194-0.028l0.212-0.037
			l0.227-0.032l0.212-0.036l0.221-0.019l0.223-0.019l0.207-0.022l0.204-0.01l3.565-0.257l-4.393-1.47l-0.114-0.271l5.061,1.693
			l23.64-1.769l0.437-0.069l0.329-0.152l0.226-0.217l0.083-0.25v-0.277l0.005-0.014l-0.079-0.321l-0.156-0.313l-0.227-0.338
			l-0.133-0.153l-0.148-0.156l-0.162-0.161l-0.17-0.137l-0.181-0.15l-0.203-0.132l-0.217-0.134l-0.217-0.134l-0.23-0.093
			l-0.228-0.107l-0.249-0.082l-0.263-0.089l-0.249-0.037l-0.261-0.055l-0.268-0.029l-0.264,0.006l-3.569,0.133l-20.963,0.718H56.5
			l-0.216,0.005l-0.246-0.005l-0.235-0.032l-0.241-0.02l-0.24-0.019l-0.235-0.031l-0.25-0.037l-0.249-0.037l-0.245-0.052
			l-0.245-0.05l-0.245-0.052l-0.254-0.069l-0.241-0.067l-0.225-0.058l-0.236-0.078l-0.333-0.113l-0.327-0.125l-0.288-0.111
			l-0.285-0.108l-0.251-0.132l-0.24-0.111l-0.249-0.129l-0.228-0.106l-0.215-0.134l-0.194-0.111l-0.208-0.116l-0.194-0.112
			l-0.208-0.115l-0.194-0.109l-0.185-0.095l-0.195-0.11l-0.197-0.098l-0.205-0.083l-0.194-0.065l-0.221-0.074l-0.235-0.077
			l-0.227-0.061l-0.248-0.038l-0.263-0.042l-0.268-0.027l-0.302-0.022l-0.318-0.015l-0.328,0.015l-0.343,0.009l-0.382,0.041
			l-0.397,0.037l-0.435,0.057l-0.324,0.045l-0.317,0.079l-0.321,0.076l-0.295,0.102l-0.314,0.114l-0.3,0.114l-0.286,0.12
			l-0.292,0.133l-0.276,0.141l-0.283,0.151l4.485,1.501l-6.037,0.201L39.979,254.596z M81.093,254.722l0.027-0.176l0.062-0.133
			l0.11-0.103l0.166-0.084l0.194-0.027l0.104,0.006l0.122,0.009l0.115,0.022l0.115,0.022l0.139,0.047l0.125,0.042l0.134,0.06
			l0.144,0.079l0.118,0.056l0.126,0.088l0.11,0.082l0.121,0.103l0.124,0.088l0.087,0.107l0.107,0.096l0.087,0.108l0.162,0.209
			l0.083,0.213l0.042,0.105l0.022,0.07l-0.014,0.18l-0.032,0.143l-0.103,0.12l-0.147,0.073l-0.198,0.043l-0.111,0.011l-0.114-0.024
			l-0.134-0.015l-0.145-0.032l-0.124-0.041l-0.14-0.045l-0.146-0.066l-0.129-0.074l-0.135-0.061l-0.145-0.078l-0.125-0.088
			l-0.119-0.102l-0.109-0.084l-0.115-0.115l-0.104-0.111l-0.088-0.105l-0.143-0.218l-0.084-0.213l-0.021-0.069L81.093,254.722z
			 M55.539,257.993L55.539,257.993l-0.097-0.078L55.539,257.993z M51.605,255.547l0.163-0.163l2.108-0.12l0.446,0.231l1.06,2.494
			l-0.166,0.211l-2.266,0.162l0.102,0.019l-0.077,0.124l-0.012,0.001l-0.502-0.291l-0.002-0.005l0.131-0.06L51.605,255.547z"/>
		<polygon fill-rule="evenodd" clip-rule="evenodd" fill="#010101" points="79.665,256.327 79.535,256.253 79.513,256.138 
			79.698,256.092 79.735,256.211 79.624,256.129 		"/>
		<polygon fill-rule="evenodd" clip-rule="evenodd" fill="#010101" points="79.915,256.179 79.888,256.216 79.84,256.263 
			79.786,256.29 79.731,256.317 79.665,256.327 79.624,256.129 79.651,256.138 79.694,256.105 79.745,256.092 79.749,256.077 
			79.739,256.105 79.911,256.193 		"/>
		<polygon fill-rule="evenodd" clip-rule="evenodd" fill="#010101" points="79.394,255.017 79.407,255.021 79.495,255.128 
			79.61,255.245 79.722,255.373 79.827,255.518 79.913,255.671 79.966,255.842 79.966,256.027 79.911,256.193 79.739,256.104 
			79.776,255.994 79.769,255.884 79.735,255.75 79.651,255.629 79.56,255.49 79.458,255.381 79.343,255.264 79.255,255.158 
			79.269,255.162 		"/>
		<polygon fill-rule="evenodd" clip-rule="evenodd" fill="#010101" points="77.695,254.526 77.679,254.521 77.925,254.526 
			78.154,254.526 78.372,254.569 78.581,254.591 78.795,254.647 78.99,254.744 79.198,254.86 79.394,255.017 79.269,255.16 
			79.078,255.035 78.899,254.93 78.728,254.842 78.544,254.795 78.341,254.758 78.132,254.734 77.919,254.726 77.702,254.729 
			77.708,254.716 77.675,254.536 		"/>
		<polygon fill-rule="evenodd" clip-rule="evenodd" fill="#010101" points="59.672,255.473 59.751,255.423 77.675,254.536 
			77.708,254.717 59.777,255.616 59.856,255.564 		"/>
		<polygon fill-rule="evenodd" clip-rule="evenodd" fill="#010101" points="59.247,256.102 59.054,256.037 59.067,255.903 
			59.103,255.792 59.16,255.673 59.233,255.589 59.331,255.529 59.454,255.478 59.593,255.432 59.751,255.423 59.777,255.616 
			59.63,255.644 59.497,255.676 59.432,255.686 59.367,255.74 59.335,255.792 59.283,255.852 59.256,255.936 59.261,256.06 
			59.067,255.995 		"/>
		<polygon fill="#010101" points="79.552,256.027 79.499,255.948 79.434,255.864 79.384,255.786 79.315,255.716 79.249,255.632 
			79.181,255.564 79.116,255.479 78.933,255.341 78.741,255.216 78.554,255.138 78.354,255.086 78.146,255.063 77.931,255.021 
			77.717,255.013 77.485,255.012 59.557,255.913 59.704,255.634 59.76,255.626 59.777,255.616 77.708,254.717 78.007,254.739 
			78.257,254.73 78.493,254.762 78.709,254.805 78.909,254.901 79.087,255.008 79.255,255.158 79.444,255.373 79.61,255.569 
			79.731,255.763 79.79,255.906 79.79,255.998 79.749,256.077 79.634,256.146 79.617,256.15 79.61,256.123 		"/>
		<path fill="#010101" d="M59.054,256.037l0.018,0.176l0.038,0.12l0.051,0.171l0.119,0.195l0.148,0.157l0.188,0.172l0.228,0.151
			l0.254,0.116l0.268,0.073l0.324,0.001l18.418-0.937l0.35-0.037l0.25-0.055l0.182-0.126l0.102-0.166l-0.004-0.171l-0.07-0.208
			l-0.133-0.199l-0.188-0.232l-0.188-0.218l-0.203-0.176l-0.217-0.134l-0.213-0.102l-0.23-0.047l-0.277-0.045h-0.277l-0.314,0.018
			l-17.924,0.887v0.005l-0.19,0.008l-0.193,0.074l-0.129,0.111l-0.089,0.126l-0.06,0.133L59.054,256.037z M59.261,256.06
			l0.021-0.114l0.009-0.02l0.015-0.004h0.091l0.159-0.009l0.149-0.281l0.054-0.007l0.018-0.009l17.931-0.9l0.298,0.023l0.25-0.01
			l0.236,0.033l0.216,0.042l0.2,0.097l0.178,0.106l0.168,0.148l0.189,0.217l0.166,0.196l0.121,0.193l0.059,0.144v0.093l-0.041,0.078
			l-0.115,0.069l-0.017,0.005l-0.2,0.046l-0.305,0.037l-18.424,0.951l-0.015-0.006l-0.258-0.008l-0.254-0.07l-0.226-0.105
			l-0.195-0.111l-0.16-0.162l-0.116-0.163l-0.101-0.155l-0.08-0.136l-0.013-0.098L59.261,256.06z"/>
		<text transform="matrix(1 0 0 1 31.0464 293)" fill="#231F20" font-family="'MyriadPro-Bold'" font-size="4.95">www.thegamecrafter.com</text>
	</g>
</g>
<g id="Layer_2">
	<path fill="#939598" d="M0,0v324.001h234V0H0z M223.201,315.003h-212.4V9h212.4V315.003z"/>
	<rect x="10.801" y="9" fill="none" stroke="#ED1F24" stroke-miterlimit="10" width="212.4" height="306.003"/>
	<g>
		<g>
			<polyline fill="none" stroke="#00AEEF" stroke-miterlimit="10" points="22.801,306.003 19.801,306.003 19.801,303.003 			"/>
			
				<line fill="none" stroke="#00AEEF" stroke-miterlimit="10" stroke-dasharray="6.0001,6.0001" x1="19.801" y1="297.003" x2="19.801" y2="24"/>
			<polyline fill="none" stroke="#00AEEF" stroke-miterlimit="10" points="19.801,21 19.801,18 22.801,18 			"/>
			
				<line fill="none" stroke="#00AEEF" stroke-miterlimit="10" stroke-dasharray="6.0774,6.0774" x1="28.878" y1="18" x2="208.162" y2="18"/>
			<polyline fill="none" stroke="#00AEEF" stroke-miterlimit="10" points="211.201,18 214.201,18 214.201,21 			"/>
			
				<line fill="none" stroke="#00AEEF" stroke-miterlimit="10" stroke-dasharray="6.0001,6.0001" x1="214.201" y1="27" x2="214.201" y2="300.003"/>
			<polyline fill="none" stroke="#00AEEF" stroke-miterlimit="10" points="214.201,303.003 214.201,306.003 211.201,306.003 			"/>
			
				<line fill="none" stroke="#00AEEF" stroke-miterlimit="10" stroke-dasharray="6.0774,6.0774" x1="205.124" y1="306.003" x2="25.839" y2="306.003"/>
		</g>
	</g>
	<text transform="matrix(1 0 0 1.0021 158.8027 40.6831)"><tspan x="0" y="0" fill="#231F20" font-family="'Arial-Black'" font-size="6.3996">Sa</tspan><tspan x="8.89" y="0" fill="#231F20" font-family="'Arial-Black'" font-size="6.3996">f</tspan><tspan x="11.271" y="0" fill="#231F20" font-family="'Arial-Black'" font-size="6.3996">e Zone</tspan></text>
	<text transform="matrix(1 0 0 1.0021 118.6982 47.478)"><tspan x="0" y="0" fill="#2DA6DE" font-family="'Arial-BoldMT'" font-size="5.333">DO NOT place</tspan><tspan x="35.856" y="0" fill="#2DA6DE" font-family="'Arial-BoldMT'" font-size="5.333"> </tspan><tspan x="37.146" y="0" fill="#2DA6DE" font-family="'Arial-BoldMT'" font-size="5.333">AN</tspan><tspan x="44.849" y="0" fill="#2DA6DE" font-family="'Arial-BoldMT'" font-size="5.333">Y</tspan><tspan x="48.314" y="0" fill="#2DA6DE" font-family="'Arial-BoldMT'" font-size="5.333"> important</tspan><tspan x="-4.137" y="6.386" fill="#2DA6DE" font-family="'Arial-BoldMT'" font-size="5.333">text/images beyond this dotted</tspan><tspan x="-11.238" y="12.772" fill="#2DA6DE" font-family="'Arial-BoldMT'" font-size="5.333">line. Anything past the dotted line</tspan><tspan x="-6.209" y="19.159" fill="#2DA6DE" font-family="'Arial-BoldMT'" font-size="5.333">has the potential to be trimmed.</tspan><tspan x="-4.436" y="25.545" fill="#2DA6DE" font-family="'Arial-BoldMT'" font-size="5.333">This line is provided to prevent</tspan><tspan x="-0.288" y="31.931" fill="#2DA6DE" font-family="'Arial-BoldMT'" font-size="5.333">trimming of your text/images.</tspan></text>
	<path fill="#EB242B" d="M158.23,35.064c0,0.365-0.165,0.723-0.497,1.07l-0.051,0.052l-2.896,3.058
		c-0.614,0.647-1.139,1.149-1.572,1.504c-0.433,0.353-0.739,0.53-0.917,0.53c-0.188,0-0.419-0.089-0.697-0.265
		c-0.278-0.179-0.459-0.36-0.54-0.549c-0.069-0.155-0.134-0.488-0.193-0.996c-0.062-0.507-0.093-1.056-0.093-1.647
		c0-0.322,0.136-0.622,0.404-0.895c0.27-0.274,0.565-0.411,0.89-0.411c0.31,0,0.494,0.283,0.555,0.849
		c0.005,0.066,0.01,0.116,0.012,0.146c0.052,0.437,0.108,0.739,0.174,0.912c0.067,0.173,0.154,0.257,0.268,0.257
		c0.046,0,0.135-0.049,0.262-0.152c0.128-0.102,0.282-0.239,0.459-0.415l2.979-2.954c0.249-0.25,0.473-0.439,0.669-0.568
		c0.197-0.129,0.365-0.192,0.502-0.192c0.104,0,0.177,0.039,0.22,0.117c0.044,0.078,0.065,0.21,0.065,0.395V35.064z"/>
	
		<line fill="none" stroke="#00AEEF" stroke-miterlimit="10" stroke-dasharray="6" x1="158.961" y1="42.087" x2="214.201" y2="42.087"/>
	<g>
		<line fill="none" stroke="#939598" x1="149.406" y1="122.653" x2="234" y2="122.653"/>
		<text transform="matrix(1 0 0 1.0021 153.4023 121.4185)" fill="#231F20" font-family="'Arial-Black'" font-size="6.3996">Bleed Zone</text>
		<text transform="matrix(1 0 0 1.0021 97.9585 130.1157)"><tspan x="0" y="0" fill="#929497" font-family="'Arial-BoldMT'" font-size="5.333">Extend any game artwork/color to the</tspan><tspan x="-9.179" y="6.386" fill="#929497" font-family="'Arial-BoldMT'" font-size="5.333">edge (covering the gray) if you want your</tspan><tspan x="-7.093" y="12.772" fill="#929497" font-family="'Arial-BoldMT'" font-size="5.333">design to extend to the edge on the final</tspan><tspan x="-15.718" y="19.159" fill="#929497" font-family="'Arial-BoldMT'" font-size="5.333">print. We require a bleed of 1/8. Please use</tspan><tspan x="-24.282" y="25.545" fill="#929497" font-family="'Arial-BoldMT'" font-size="5.333">the Safe Zone guide line to prevent trimming of</tspan><tspan x="-39.732" y="31.931" fill="#929497" font-family="'Arial-BoldMT'" font-size="5.333">essential text/images. The bleed is to make sure your</tspan><tspan x="-26.949" y="38.318" fill="#929497" font-family="'Arial-BoldMT'" font-size="5.333">design/color extends to the edge of the product.</tspan></text>
		<path fill="#EB242B" d="M152.405,115.549c0,0.367-0.165,0.724-0.496,1.072l-0.052,0.053l-2.898,3.056
			c-0.614,0.649-1.139,1.15-1.57,1.504c-0.435,0.353-0.739,0.532-0.918,0.532c-0.188,0-0.42-0.09-0.697-0.266
			c-0.279-0.177-0.457-0.359-0.539-0.547c-0.069-0.157-0.133-0.49-0.195-0.997c-0.06-0.507-0.09-1.056-0.09-1.647
			c0-0.322,0.135-0.62,0.401-0.895c0.27-0.275,0.565-0.412,0.892-0.412c0.311,0,0.494,0.284,0.553,0.851
			c0.007,0.065,0.011,0.113,0.014,0.145c0.05,0.436,0.108,0.738,0.174,0.911c0.065,0.172,0.154,0.259,0.266,0.259
			c0.049,0,0.135-0.05,0.264-0.153c0.128-0.102,0.28-0.241,0.46-0.415l2.976-2.956c0.25-0.251,0.475-0.439,0.671-0.567
			c0.197-0.129,0.363-0.193,0.502-0.193c0.103,0,0.175,0.04,0.219,0.118c0.045,0.077,0.066,0.21,0.066,0.395V115.549z"/>
	</g>
	<g>
		<text transform="matrix(1 0 0 1.0021 151.873 184.0098)"><tspan x="0" y="0" fill="#231F20" font-family="'Arial-Black'" font-size="6.3996">PLEASE N</tspan><tspan x="35.197" y="0" fill="#231F20" font-family="'Arial-Black'" font-size="6.3996">O</tspan><tspan x="40.362" y="0" fill="#231F20" font-family="'Arial-Black'" font-size="6.3996">TE:</tspan></text>
		<text transform="matrix(1 0 0 1.0021 106.6738 190.4219)"><tspan x="0" y="0" fill="#231F20" font-family="'Arial-Black'" font-size="5.333">R</tspan><tspan x="4.021" y="0" fill="#231F20" font-family="'Arial-Black'" font-size="5.333">em</tspan><tspan x="12.91" y="0" fill="#231F20" font-family="'Arial-Black'" font-size="5.333">o</tspan><tspan x="16.291" y="0" fill="#231F20" font-family="'Arial-Black'" font-size="5.333">v</tspan><tspan x="19.415" y="0" fill="#231F20" font-family="'Arial-Black'" font-size="5.333">e this la</tspan><tspan x="42.819" y="0" fill="#231F20" font-family="'Arial-Black'" font-size="5.333">y</tspan><tspan x="45.992" y="0" fill="#231F20" font-family="'Arial-Black'" font-size="5.333">er be</tspan><tspan x="60.808" y="0" fill="#231F20" font-family="'Arial-Black'" font-size="5.333">f</tspan><tspan x="62.792" y="0" fill="#231F20" font-family="'Arial-Black'" font-size="5.333">o</tspan><tspan x="66.349" y="0" fill="#231F20" font-family="'Arial-Black'" font-size="5.333">r</tspan><tspan x="68.801" y="0" fill="#231F20" font-family="'Arial-Black'" font-size="5.333">e sending</tspan></text>
		<text transform="matrix(1 0 0 1.0021 119.127 196.8359)"><tspan x="0" y="0" fill="#231F20" font-family="'Arial-Black'" font-size="5.333">the file to print. </tspan><tspan x="47.103" y="0" fill="#231F20" font-family="'Arial-Black'" font-size="5.333">T</tspan><tspan x="51.093" y="0" fill="#231F20" font-family="'Arial-Black'" font-size="5.333">his la</tspan><tspan x="66.795" y="0" fill="#231F20" font-family="'Arial-Black'" font-size="5.333">y</tspan><tspan x="69.968" y="0" fill="#231F20" font-family="'Arial-Black'" font-size="5.333">er is </tspan></text>
		<text transform="matrix(1 0 0 1.0021 113.8047 203.248)"><tspan x="0" y="0" fill="#231F20" font-family="'Arial-Black'" font-size="5.333">p</tspan><tspan x="3.557" y="0" fill="#231F20" font-family="'Arial-Black'" font-size="5.333">r</tspan><tspan x="6.009" y="0" fill="#231F20" font-family="'Arial-Black'" font-size="5.333">o</tspan><tspan x="9.39" y="0" fill="#231F20" font-family="'Arial-Black'" font-size="5.333">vided as a guide </tspan><tspan x="58.581" y="0" fill="#231F20" font-family="'Arial-Black'" font-size="5.333">f</tspan><tspan x="60.565" y="0" fill="#231F20" font-family="'Arial-Black'" font-size="5.333">or set u</tspan><tspan x="82.784" y="0" fill="#231F20" font-family="'Arial-Black'" font-size="5.333">p</tspan><tspan x="86.256" y="0" fill="#231F20" font-family="'Arial-Black'" font-size="5.333">. </tspan></text>
		<text transform="matrix(1 0 0 1.0021 143.4658 209.6621)" fill="#231F20" font-family="'Arial-Black'" font-size="5.333">DELETE AFTER USE.</text>
		<path fill="#EB242B" d="M151.741,178.132c0,0.367-0.164,0.723-0.495,1.07l-0.052,0.051l-2.898,3.059
			c-0.614,0.646-1.139,1.148-1.571,1.502c-0.432,0.355-0.738,0.531-0.918,0.531c-0.186,0-0.419-0.088-0.697-0.264
			c-0.278-0.178-0.457-0.361-0.539-0.549c-0.068-0.156-0.133-0.486-0.194-0.996c-0.061-0.508-0.092-1.057-0.092-1.648
			c0-0.322,0.135-0.619,0.403-0.895c0.27-0.273,0.565-0.41,0.892-0.41c0.308,0,0.492,0.283,0.553,0.85
			c0.005,0.066,0.01,0.113,0.014,0.146c0.05,0.436,0.108,0.738,0.174,0.91c0.065,0.174,0.154,0.258,0.268,0.258
			c0.046,0,0.135-0.051,0.262-0.152c0.128-0.102,0.282-0.24,0.459-0.414l2.977-2.955c0.249-0.252,0.474-0.441,0.671-0.568
			c0.196-0.129,0.363-0.193,0.502-0.193c0.102,0,0.177,0.039,0.219,0.119c0.045,0.076,0.065,0.209,0.065,0.393V178.132z"/>
	</g>
	<g>
		<text transform="matrix(1 0 0 1.0021 160.2979 92.4199)"><tspan x="0" y="0" fill="#231F20" font-family="'Arial-Black'" font-size="6.3996">T</tspan><tspan x="4.346" y="0" fill="#231F20" font-family="'Arial-Black'" font-size="6.3996">rim Line</tspan></text>
		<text transform="matrix(1 0 0 1.0021 129.668 100.4668)"><tspan x="0" y="0" fill="#EB242B" font-family="'Arial-BoldMT'" font-size="5.333">This is the actual cutline </tspan><tspan x="12.751" y="6.386" fill="#EB242B" font-family="'Arial-BoldMT'" font-size="5.333">of your final design.</tspan></text>
		<path fill="#EB242B" d="M159.726,86.409c0,0.365-0.164,0.723-0.495,1.071l-0.054,0.051l-2.896,3.058
			c-0.614,0.648-1.139,1.149-1.571,1.504c-0.434,0.354-0.738,0.53-0.915,0.53c-0.188,0-0.422-0.088-0.7-0.266
			s-0.457-0.359-0.539-0.547c-0.069-0.157-0.134-0.489-0.194-0.996s-0.093-1.057-0.093-1.648c0-0.321,0.136-0.62,0.404-0.895
			c0.268-0.274,0.565-0.41,0.892-0.41c0.308,0,0.492,0.282,0.553,0.849c0.005,0.065,0.01,0.115,0.014,0.146
			c0.05,0.436,0.108,0.739,0.174,0.911c0.065,0.173,0.154,0.258,0.268,0.258c0.046,0,0.134-0.051,0.262-0.152
			c0.128-0.103,0.28-0.24,0.459-0.416l2.977-2.953c0.249-0.252,0.475-0.441,0.671-0.568c0.196-0.129,0.363-0.193,0.499-0.193
			c0.104,0,0.178,0.039,0.222,0.118c0.045,0.077,0.065,0.209,0.065,0.393V86.409z"/>
		<line fill="none" stroke="#EB242B" x1="159.769" y1="93.758" x2="223.201" y2="93.758"/>
	</g>
</g>
</svg>
