<?xml version="1.0" encoding="utf-8"?>
<!-- Generator: Adobe Illustrator 15.0.0, SVG Export Plug-In . SVG Version: 6.00 Build 0)  -->
<!DOCTYPE svg PUBLIC "-//W3C//DTD SVG 1.1//EN" "http://www.w3.org/Graphics/SVG/1.1/DTD/svg11.dtd">
<svg version="1.1" xmlns="http://www.w3.org/2000/svg" xmlns:xlink="http://www.w3.org/1999/xlink" x="0px" y="0px" width="72px"
	 height="72px" viewBox="0 0 72 72" enable-background="new 0 0 72 72" xml:space="preserve">
<g id="Outlines">
	<polygon fill="#757A7A" points="72,0 0,0 0,72 72,72 72,0 	"/>
	<path fill="#FFFFFF" stroke="#C92027" d="M63,36C63,21.088,50.912,9,36,9C21.089,9,9,21.088,9,36s12.089,27,27,27S63,50.912,63,36z
		 M18,36c0-9.941,8.059-18,18-18s18,8.059,18,18s-8.059,18-18,18S18,45.941,18,36z"/>
</g>
<g id="Text">
	<g>
		<g>
			<path fill="#C82127" d="M5.427,2.818c0,0.154-0.07,0.302-0.207,0.449L5.197,3.289L3.98,4.569
				C3.722,4.842,3.502,5.053,3.322,5.201C3.139,5.349,3.01,5.423,2.936,5.423c-0.078,0-0.176-0.038-0.292-0.112
				C2.526,5.237,2.451,5.161,2.418,5.083c-0.03-0.067-0.059-0.205-0.082-0.419c-0.027-0.213-0.04-0.441-0.04-0.69
				c0-0.135,0.058-0.26,0.169-0.373c0.114-0.115,0.238-0.174,0.374-0.174c0.131,0,0.208,0.118,0.232,0.356
				c0.003,0.027,0.005,0.049,0.007,0.062c0.021,0.183,0.045,0.311,0.073,0.383c0.026,0.069,0.063,0.105,0.111,0.105
				c0.019,0,0.057-0.019,0.11-0.062C3.427,4.228,3.491,4.17,3.565,4.097l1.249-1.238c0.104-0.104,0.2-0.184,0.282-0.236
				c0.082-0.056,0.152-0.083,0.211-0.083c0.042,0,0.074,0.018,0.093,0.051c0.018,0.032,0.026,0.087,0.026,0.165V2.818z"/>
		</g>
		<text transform="matrix(0.9992 0 0 1 3.4844 5.6611)"><tspan x="0" y="0" fill="#121111" font-family="'Arial-Black'" font-size="1.955">    </tspan><tspan x="2.608" y="0" fill="#121111" font-family="'Arial-Black'" font-size="3.1252">Bleed Zone</tspan></text>
	</g>
	<text transform="matrix(0.9992 0 0 1 28.96 36.3647)"><tspan x="0" y="0" fill="#231F20" font-family="'Arial-Black'" font-size="2.532">   Trim Line</tspan><tspan x="0" y="2.532" fill="#231F20" font-family="'Arial-BoldMT'" font-size="2.11">This is the actual </tspan><tspan x="0" y="5.065" fill="#231F20" font-family="'Arial-BoldMT'" font-size="2.11">cutline of your </tspan><tspan x="0" y="7.596" fill="#231F20" font-family="'Arial-BoldMT'" font-size="2.11">final design.</tspan></text>
	<g>
		<path fill="#C82127" d="M31.187,34.509c0,0.124-0.057,0.245-0.168,0.362l-0.018,0.019l-0.984,1.037
			c-0.211,0.22-0.389,0.39-0.537,0.511c-0.146,0.119-0.25,0.179-0.311,0.179c-0.064,0-0.143-0.029-0.236-0.089
			c-0.096-0.061-0.156-0.123-0.186-0.186c-0.021-0.054-0.043-0.166-0.064-0.339c-0.021-0.171-0.031-0.358-0.031-0.559
			c0-0.109,0.045-0.212,0.137-0.304C28.88,35.047,28.982,35,29.091,35c0.105,0,0.168,0.096,0.188,0.289
			c0.004,0.021,0.004,0.039,0.006,0.05c0.016,0.147,0.037,0.251,0.059,0.31c0.023,0.059,0.053,0.088,0.092,0.088
			c0.016,0,0.045-0.019,0.088-0.053c0.045-0.034,0.096-0.081,0.156-0.142l1.012-1.003c0.086-0.084,0.162-0.147,0.229-0.191
			s0.123-0.065,0.172-0.065c0.033,0,0.059,0.013,0.074,0.039c0.014,0.027,0.021,0.071,0.021,0.135V34.509z"/>
	</g>
	<g>
		<polygon fill="#DDDEDA" points="48.589,0.274 48.589,4.101 48.589,4.101 48.59,11.64 71.625,11.64 71.625,4.101 71.625,4.087 
			71.625,0.274 		"/>
		<text transform="matrix(1 0 0 1 64.1543 5.6514)"><tspan x="0" y="0" fill="#121110" font-family="'Arial-Black'" font-size="0.8341">PLEASE NOTE:</tspan><tspan x="-4.913" y="1.001" fill="#121110" font-family="'Arial-Black'" font-size="0.8341">Remove this layer before </tspan><tspan x="-4.449" y="2.002" fill="#121110" font-family="'Arial-Black'" font-size="0.8341">sending the file to print. </tspan><tspan x="-5.469" y="3.003" fill="#121110" font-family="'Arial-Black'" font-size="0.8341">This layer is provided as a </tspan><tspan x="-0.929" y="4.003" fill="#121110" font-family="'Arial-Black'" font-size="0.8341">guide for set up. </tspan><tspan x="-6.025" y="5.004" fill="#121110" font-family="'Arial-Black'" font-size="0.8341">DELETE LAYER AFTER USE.</tspan></text>
		<g>
			<path fill="#C82127" d="M64.147,4.861c0,0.057-0.026,0.113-0.077,0.167l-0.01,0.008l-0.452,0.478
				c-0.096,0.102-0.179,0.18-0.245,0.234c-0.068,0.054-0.115,0.083-0.144,0.083c-0.029,0-0.066-0.014-0.108-0.041
				c-0.045-0.027-0.072-0.056-0.086-0.086c-0.009-0.024-0.02-0.077-0.029-0.155c-0.01-0.078-0.015-0.166-0.015-0.257
				c0-0.051,0.021-0.096,0.062-0.139c0.043-0.044,0.089-0.065,0.141-0.065c0.047,0,0.076,0.044,0.086,0.132
				c0.001,0.011,0.001,0.019,0.003,0.022c0.006,0.068,0.016,0.116,0.027,0.143c0.009,0.026,0.022,0.041,0.04,0.041
				c0.008,0,0.021-0.008,0.042-0.024c0.02-0.017,0.042-0.038,0.071-0.065l0.467-0.462c0.038-0.039,0.073-0.068,0.104-0.088
				c0.03-0.021,0.057-0.03,0.079-0.03c0.014,0,0.026,0.006,0.032,0.019c0.008,0.011,0.011,0.032,0.011,0.062V4.861z"/>
		</g>
		<g>
			<circle fill-rule="evenodd" clip-rule="evenodd" cx="53.006" cy="7.79" r="3.333"/>
			<circle fill-rule="evenodd" clip-rule="evenodd" fill="#9EC43B" cx="53.009" cy="7.808" r="3.031"/>
			<g>
				<path d="M52.361,7.149c-0.043,0.369-0.076,0.669-0.096,0.895l-0.138,0.005c0.002-0.007,0.003-0.017,0.003-0.026
					c0-0.016-0.007-0.037-0.019-0.066c-0.012-0.026-0.019-0.045-0.021-0.052c-0.036,0.006-0.068,0.031-0.104,0.074
					c-0.031,0.044-0.062,0.068-0.089,0.068c-0.015-0.001-0.03-0.005-0.05-0.014c-0.024,0.017-0.057,0.024-0.095,0.022
					c-0.037-0.007-0.071-0.012-0.104-0.017c-0.003-0.047-0.047-0.088-0.141-0.124c0.001-0.019-0.008-0.046-0.028-0.083
					c-0.017-0.037-0.026-0.063-0.026-0.079c0-0.017,0.006-0.03,0.021-0.042c-0.001-0.006-0.018-0.041-0.048-0.104
					c-0.019-0.048-0.028-0.089-0.028-0.122c0-0.027,0.007-0.051,0.019-0.074C51.4,7.25,51.394,7.114,51.396,7
					c0.002-0.177,0.025-0.34,0.074-0.487c-0.002-0.023-0.004-0.045-0.004-0.069c0.002-0.118,0.043-0.2,0.123-0.245l0.001-0.037
					c0.078-0.1,0.182-0.173,0.311-0.218c0.076,0.019,0.152,0.035,0.23,0.053c0.088,0.029,0.145,0.079,0.178,0.151
					c0.026,0.016,0.037,0.046,0.036,0.094c0,0.054,0.007,0.086,0.02,0.102l-0.013,0.017c0.013,0.111,0.021,0.179,0.02,0.204
					c0,0.071-0.02,0.121-0.056,0.151c-0.014,0-0.049-0.013-0.103-0.036c-0.013,0.013-0.029,0.021-0.043,0.019
					c-0.008,0-0.022-0.002-0.041-0.012c-0.02-0.007-0.035-0.011-0.049-0.011c-0.01-0.001-0.02,0.002-0.029,0.005
					c0-0.149,0.004-0.259,0.016-0.332c-0.016-0.01-0.031-0.032-0.045-0.065c-0.018-0.035-0.035-0.055-0.061-0.058
					c-0.016,0.019-0.024,0.03-0.021,0.037l-0.051-0.019c-0.047,0.05-0.076,0.136-0.093,0.261c-0.016,0.142-0.034,0.237-0.058,0.284
					c0.021,0.021,0.03,0.05,0.028,0.088c0,0.013-0.002,0.035-0.005,0.065c-0.005,0.03-0.008,0.052-0.008,0.068
					c0,0.016,0.002,0.031,0.007,0.045l-0.037,0.032c0.015,0.064,0.023,0.146,0.026,0.243c-0.003,0.083-0.003,0.165-0.003,0.249
					c-0.001,0-0.018,0.001-0.047,0.001c-0.02,0-0.033,0.007-0.04,0.02c0.012-0.002,0.021-0.002,0.03-0.002
					c0.042,0,0.073,0.031,0.098,0.087c0.024,0.058,0.044,0.087,0.062,0.088c0.018,0,0.044-0.018,0.076-0.053
					c0.056-0.059,0.083-0.14,0.086-0.244c0-0.051-0.005-0.105-0.019-0.165c-0.011,0.009-0.019,0.026-0.019,0.055
					c-0.03,0-0.05,0.007-0.058,0.02c-0.013-0.003-0.018-0.013-0.016-0.03c0.002-0.025,0.003-0.038,0.003-0.04
					c0.022-0.007,0.031-0.018,0.035-0.03c0-0.006-0.006-0.016-0.013-0.032c-0.01-0.014-0.014-0.026-0.014-0.036
					c0-0.008,0.004-0.016,0.008-0.023l0.012-0.109c0.042,0.012,0.133,0.016,0.27,0.015c-0.003,0.009,0,0.022,0.016,0.038
					c0.014-0.014,0.027-0.021,0.042-0.02c0.013,0,0.029,0.005,0.052,0.015C52.335,7.144,52.353,7.149,52.361,7.149z"/>
				<path d="M53.412,8.119c-0.026-0.012-0.054-0.018-0.084-0.018c-0.027-0.001-0.062,0.004-0.107,0.016
					c-0.052,0.009-0.087,0.015-0.105,0.018c-0.019-0.042-0.033-0.095-0.042-0.165c-0.016-0.103-0.024-0.16-0.027-0.174
					c0.006-0.01,0.008-0.02,0.008-0.026c0-0.022-0.016-0.041-0.047-0.057c-0.034-0.017-0.048-0.029-0.048-0.04
					c0-0.01,0.018-0.027,0.056-0.049c-0.008-0.01-0.016-0.034-0.021-0.068c-0.004-0.035-0.013-0.058-0.025-0.07
					c-0.023,0.021-0.06,0.033-0.112,0.039c-0.052,0.005-0.086,0.014-0.103,0.025c0,0.146-0.022,0.244-0.072,0.294
					c-0.026-0.005-0.047,0.004-0.06,0.03c-0.021,0.032-0.037,0.05-0.051,0.057l0.017,0.02c-0.016,0.011-0.038,0.019-0.074,0.016
					c-0.052-0.005-0.079-0.005-0.082-0.005L52.415,7.91l0.184-1.522c0.002-0.096,0.006-0.161,0.015-0.195
					c-0.002-0.085,0.018-0.137,0.06-0.157c0.024,0.018,0.059,0.027,0.098,0.028c0.031,0,0.082-0.007,0.149-0.02
					c0.069-0.015,0.115-0.021,0.143-0.02c0.089,0.001,0.13,0.068,0.119,0.199c-0.009,0.104,0.008,0.244,0.049,0.415
					c0.046,0.186,0.066,0.324,0.065,0.416c-0.002,0.028,0.007,0.087,0.005,0.114c-0.04,0.022-0.091,0.036-0.153,0.04
					c-0.055,0.003-0.109,0.007-0.166,0.01c-0.013-0.144-0.039-0.316-0.053-0.458c-0.018-0.168-0.04-0.308-0.068-0.418l-0.086,0.804
					c-0.007,0.07,0.024,0.105,0.095,0.107c0.022,0,0.043-0.005,0.065-0.017c0.016-0.004,0.038,0.007,0.069,0.038
					c-0.001,0.058,0.01,0.093,0.034,0.105c0.031-0.02,0.07-0.04,0.119-0.057c0.043-0.017,0.088-0.032,0.129-0.047
					c0.023,0.033,0.039,0.081,0.044,0.146c0.009,0.089,0.015,0.142,0.019,0.157c0.003,0.036,0.018,0.113,0.043,0.232
					c0.019,0.093,0.028,0.17,0.028,0.229C53.419,8.069,53.417,8.094,53.412,8.119z"/>
				<path d="M54.71,6.777c-0.003,0.005-0.003,0.038-0.003,0.099c0,0.049-0.005,0.085-0.017,0.11
					c-0.015,0.037-0.023,0.09-0.024,0.159c0,0.016,0,0.04,0.001,0.071c0,0.032-0.001,0.056-0.001,0.072
					c-0.002,0.117-0.021,0.203-0.06,0.256c0.005,0.031,0.006,0.062,0.006,0.091c-0.002,0.094-0.036,0.222-0.098,0.379
					c-0.017,0.006-0.032,0.007-0.044,0.007c-0.021,0-0.038-0.014-0.048-0.038c-0.009-0.027-0.019-0.051-0.027-0.073
					c0.007-0.144,0.003-0.355-0.01-0.632l0.018-0.017c-0.013-0.048-0.018-0.103-0.018-0.163c0.002-0.044,0.007-0.106,0.017-0.188
					c0.011-0.083,0.015-0.146,0.015-0.188c0-0.026,0-0.05-0.001-0.075c-0.064,0.154-0.111,0.417-0.135,0.786L54.255,7.49
					c-0.008,0.019-0.022,0.028-0.047,0.031c-0.009-0.014-0.016-0.02-0.022-0.02c-0.007,0-0.016,0.006-0.03,0.02
					c-0.016,0.014-0.027,0.019-0.037,0.018l-0.036,0.033c0.017,0.021,0.052,0.023,0.107,0.007c0.044-0.012,0.065,0.004,0.066,0.049
					c0.001,0.038-0.01,0.089-0.03,0.151c-0.021,0.064-0.033,0.113-0.035,0.144c0,0.022,0.004,0.045,0.008,0.067l-0.194,0.031
					c-0.02-0.038-0.03-0.102-0.04-0.191c-0.011-0.089-0.023-0.154-0.041-0.192c0.012-0.011,0.017-0.026,0.017-0.042
					c0-0.014-0.004-0.033-0.015-0.059c-0.011-0.027-0.019-0.046-0.02-0.061c-0.001-0.02-0.008-0.069-0.02-0.149
					c-0.009-0.064-0.012-0.114-0.011-0.149c0-0.02,0.001-0.036,0.002-0.05c0-0.014-0.006-0.033-0.02-0.059
					c-0.015-0.026-0.023-0.045-0.021-0.056c0-0.009,0.002-0.017,0.01-0.025c-0.012-0.016-0.018-0.042-0.017-0.079
					c0.004-0.039-0.001-0.065-0.014-0.079c-0.028,0.072-0.043,0.169-0.046,0.294c-0.001,0.174-0.001,0.273-0.003,0.3l0.02,0.017
					l-0.021,0.016c0.013,0.068,0.021,0.155,0.019,0.26c-0.006,0.19-0.008,0.278-0.008,0.265c-0.026,0.023-0.063,0.036-0.112,0.034
					c-0.056,0-0.096,0.005-0.119,0.015c-0.022-0.04-0.034-0.094-0.031-0.16c0-0.051,0.009-0.113,0.026-0.187
					c-0.026-0.047-0.039-0.113-0.036-0.197c0-0.022,0.002-0.061,0.007-0.119c0.003-0.047,0.003-0.083,0.001-0.104
					c0.02-0.008,0.029-0.019,0.029-0.031c0-0.007-0.005-0.02-0.019-0.039c-0.012-0.017-0.017-0.031-0.017-0.04
					c0-0.012,0.008-0.022,0.023-0.034l-0.062-0.911c0.036-0.024,0.095-0.036,0.176-0.034c0.087,0.002,0.15-0.002,0.182-0.015
					c0.004-0.004,0.011-0.006,0.019-0.006c0.01,0.001,0.017,0.005,0.026,0.015c0.009,0.008,0.017,0.011,0.021,0.011
					c0.007,0,0.014-0.004,0.02-0.016l0.054,0.052c0.019,0.066,0.035,0.194,0.05,0.384c0.016,0.164,0.041,0.289,0.075,0.371
					c0.047-0.166,0.085-0.306,0.115-0.418l0.062-0.446l0.437-0.01c0,0.025,0.007,0.154,0.019,0.231
					c0.01,0.065,0.015,0.12,0.015,0.161c-0.001,0.047-0.009,0.09-0.023,0.127c0.016,0.02,0.023,0.047,0.022,0.079
					C54.734,6.729,54.726,6.756,54.71,6.777z"/>
				<path d="M55.607,7.765V7.761c-0.014,0.025-0.02,0.052-0.021,0.085c-0.002,0.02-0.005,0.049,0,0.086c0,0.043,0,0.075,0,0.09
					c-0.016,0-0.077,0-0.181-0.002c-0.064,0-0.124,0.004-0.174,0.017l-0.052-0.058c-0.017,0.016-0.021,0.027-0.019,0.037
					c-0.008-0.003-0.051-0.003-0.129-0.003c-0.059,0-0.104-0.007-0.135-0.019c-0.03,0.031-0.066,0.031-0.106-0.002
					c-0.016-0.012-0.019-0.032-0.005-0.058c0.012-0.027,0.008-0.047-0.011-0.061c0.003-0.06,0.013-0.152,0.024-0.279
					c0.012-0.112,0.021-0.2,0.021-0.265c0.001-0.086-0.006-0.169-0.02-0.248c0.022-0.02,0.046-0.03,0.071-0.029
					c0.031,0,0.066,0.015,0.105,0.043c0.061,0.04,0.09,0.062,0.091,0.062l0.018,0.019c0.002-0.006,0.012-0.034,0.029-0.09
					c0.01-0.035,0.024-0.058,0.043-0.068l0.018,0.017c0.006-0.004,0.032-0.021,0.073-0.052c0.031-0.022,0.06-0.074,0.078-0.074
					c0.02,0.001,0.039,0.012,0.059,0.036c0.03,0.016,0.051,0.084,0.06,0.119c0.01,0.036,0.021,0.068,0.03,0.104
					c-0.086,0.003-0.154,0-0.209-0.007c-0.015,0.021-0.034,0.024-0.058,0.01s-0.043-0.012-0.052,0.006
					c0,0.034-0.002,0.095-0.005,0.184c-0.003,0.079-0.005,0.141-0.003,0.185c0.001,0.07,0.006,0.134,0.013,0.192
					c0.017,0,0.087,0.001,0.215,0.004C55.468,7.742,55.543,7.75,55.607,7.765z M55.613,6.414c-0.018,0.002-0.036,0.002-0.055,0.002
					c-0.045,0-0.104-0.007-0.173-0.019c-0.088-0.014-0.144-0.021-0.161-0.023c-0.027,0.039-0.041,0.095-0.042,0.166
					c-0.002,0.154-0.002,0.221,0,0.2c0.025,0.016,0.038,0.044,0.038,0.085c-0.002,0.057-0.003,0.086-0.002,0.087
					c-0.012,0.005-0.021,0.024-0.021,0.056c-0.02-0.007-0.04-0.023-0.064-0.047c-0.029-0.028-0.045,0.069-0.042,0.045l-0.018,0.058
					l-0.019-0.018C55.041,7.009,55.015,7,54.978,6.983c-0.036-0.018-0.062-0.034-0.074-0.05c0-0.029,0.005-0.047,0.013-0.051
					L54.88,6.842l-0.017,0.026c-0.021-0.196-0.017-0.562,0.01-0.769c0.072,0.013,0.15,0.021,0.238,0.024
					c0.057,0.003,0.139,0.004,0.245,0.004c0.121,0,0.205,0,0.259,0c0.022,0.022,0.034,0.05,0.033,0.083
					c0,0.021-0.008,0.053-0.019,0.1C55.619,6.356,55.614,6.392,55.613,6.414z"/>
			</g>
			<g>
				<path d="M52.444,9.47V9.467c0,0-0.005,0.042-0.014,0.125c-0.005,0.05-0.018,0.089-0.036,0.118L52.382,9.7
					c-0.024,0.047-0.055,0.078-0.095,0.088c-0.017,0.02-0.045,0.031-0.08,0.034c-0.022,0-0.069-0.005-0.146-0.019
					c-0.038-0.023-0.058-0.036-0.061-0.038c-0.024-0.017-0.035-0.036-0.034-0.053c-0.023-0.023-0.052-0.064-0.065-0.115
					c-0.015-0.058-0.023-0.06-0.036-0.08c-0.021,0.016-0.03-0.017-0.041-0.037l0.011-0.009c-0.008-0.006-0.011-0.011-0.011-0.017
					c0-0.004,0.001-0.011,0.004-0.02c0.006-0.01,0.007-0.015,0.007-0.02c0-0.007-0.006-0.013-0.013-0.019
					c0.007-0.043,0.017-0.11,0.023-0.199c0.016-0.009,0.022-0.023,0.022-0.046c-0.001-0.024,0.001-0.04,0.01-0.047
					c0.036-0.071,0.095-0.12,0.174-0.145c0.004,0,0.026,0,0.064,0c0.027-0.001,0.049,0.001,0.06,0.006
					c0.026-0.004,0.049,0.002,0.074,0.018c0.021,0.016,0.042,0.031,0.063,0.047c0.039,0.042,0.059,0.09,0.062,0.144
					c0,0.018,0,0.036-0.003,0.055c-0.028,0-0.048,0.02-0.061,0.058L52.2,9.296c-0.016-0.016-0.022-0.04-0.023-0.069
					c-0.001-0.009-0.001-0.023,0-0.042c0.001-0.019,0.001-0.033,0-0.043c-0.002-0.029-0.009-0.052-0.02-0.071l-0.034,0.021
					c-0.013-0.005-0.021-0.013-0.021-0.025c-0.001-0.003,0-0.007,0.001-0.015c0.001-0.007,0.001-0.011,0.001-0.014
					c0-0.011-0.01-0.019-0.031-0.021c-0.015,0.126-0.018,0.258-0.012,0.392c0.004,0.003,0.015,0.006,0.033,0.009
					c0.016,0.001,0.02,0.006,0.021,0.012c0,0.004-0.001,0.007-0.003,0.012l-0.01,0.008c0.008,0.01,0.009,0.023,0.01,0.04
					c0,0.009,0,0.022-0.001,0.041C52.11,9.549,52.11,9.562,52.11,9.571c0.002,0.027,0.008,0.046,0.021,0.06
					c-0.001,0.021,0.008,0.033,0.025,0.04c0.01-0.002,0.019-0.006,0.028-0.007c0.035-0.001,0.058,0.018,0.071,0.057
					c0,0,0,0.008,0,0.021c0,0.005,0.004,0.01,0.01,0.013c0.017-0.009,0.021-0.025,0.021-0.047c0-0.028,0.005-0.044,0.011-0.052
					c-0.002-0.012-0.008-0.03-0.021-0.053c-0.013-0.023-0.021-0.042-0.021-0.055c0-0.015,0.004-0.028,0.012-0.042
					c-0.006-0.002-0.012-0.007-0.011-0.016c0.001-0.013,0.001-0.02,0.001-0.02C52.318,9.455,52.383,9.455,52.444,9.47z"/>
				<path d="M52.954,9.573L52.954,9.573c-0.007,0.012-0.009,0.032-0.007,0.055c0.003,0.034,0.005,0.051,0.005,0.052
					c-0.005,0.002-0.013-0.001-0.021-0.006c-0.014,0.005-0.021,0.012-0.02,0.024c0,0.002,0,0.005,0.005,0.009
					c0,0.006,0,0.008,0,0.01c0,0.009-0.005,0.016-0.009,0.021c-0.017-0.009-0.036-0.014-0.06-0.017
					c-0.025-0.002-0.048-0.004-0.068-0.006c0-0.113-0.017-0.224-0.047-0.331c0,0-0.001-0.011-0.002-0.034
					c0-0.017-0.004-0.028-0.011-0.035l-0.01,0.008c-0.002-0.001,0.002-0.004,0.01-0.009c0.005-0.005,0.011-0.01,0.01-0.015
					c0-0.003-0.001-0.005-0.003-0.008l-0.012-0.009c-0.019,0.007-0.028,0.022-0.027,0.047c0.002,0.017-0.005,0.028-0.019,0.035
					c0.006,0.002,0.009,0.007,0.009,0.014c0,0.003,0,0.008-0.001,0.014c-0.002,0.006-0.002,0.011-0.002,0.013
					c0,0.007,0.004,0.014,0.012,0.018c0,0.006,0.003,0.051,0.007,0.134c0.003,0.055,0.001,0.102-0.004,0.137l0.002,0.021
					c-0.008,0-0.016,0-0.024,0c-0.012,0.002-0.026,0.002-0.046,0.006c-0.019,0.001-0.034,0.003-0.043,0.005
					c-0.037,0.001-0.065-0.005-0.08-0.02l-0.017-0.465c-0.008-0.022-0.012-0.055-0.014-0.095l-0.006-0.09
					c-0.002-0.043-0.01-0.077-0.018-0.1c0.006-0.017,0.018-0.025,0.044-0.026c0.015-0.002,0.034,0.001,0.062,0.007
					c0.014-0.005,0.028-0.01,0.051-0.011c0.007-0.001,0.017-0.001,0.03-0.001s0.023-0.001,0.029-0.001
					c0.042-0.003,0.066-0.015,0.08-0.037c0.02-0.001,0.04,0.005,0.061,0.018c0.021,0.013,0.042,0.019,0.058,0.019
					c0.044,0.025,0.068,0.068,0.071,0.128c0.001,0.013-0.004,0.066-0.014,0.159L52.84,9.276c0.015,0.023,0.029,0.074,0.047,0.152
					C52.901,9.495,52.923,9.543,52.954,9.573z M52.815,9.045l0.002,0.001c0.001,0.006,0.001-0.015-0.002-0.061
					c-0.003-0.023-0.011-0.038-0.023-0.049c-0.008,0.012,0.001,0.017-0.003,0.046c-0.005,0.028-0.022,0.021-0.032,0.032
					c-0.025,0-0.031,0.016-0.035-0.008c-0.014-0.041-0.024-0.037-0.024-0.038l-0.01,0.006c-0.004,0.004-0.009,0.008-0.013,0.013
					c-0.005,0.004-0.01,0.005-0.016,0.004c0,0.005-0.001,0.013-0.008,0.023c-0.004,0.011-0.007,0.019-0.007,0.023
					c0.001,0.007,0.006,0.012,0.019,0.017c-0.003,0.016-0.004,0.033-0.003,0.052c0.001,0.01,0.005,0.032,0.009,0.068
					c0.006,0.029,0.007,0.052,0.006,0.072c0.009,0,0.018,0,0.027,0c0.035-0.002,0.059-0.017,0.068-0.043
					c0.004-0.007,0.01-0.035,0.014-0.083C52.787,9.084,52.798,9.06,52.815,9.045z"/>
				<path d="M53.541,9.754c-0.015-0.005-0.031-0.007-0.049-0.005c-0.014,0-0.031,0.004-0.057,0.01
					c-0.028,0.007-0.047,0.011-0.058,0.012c-0.012-0.017-0.021-0.04-0.028-0.07c-0.012-0.045-0.02-0.07-0.021-0.075
					c0.002-0.005,0.003-0.009,0.003-0.013c-0.001-0.009-0.01-0.017-0.028-0.023c-0.018-0.006-0.026-0.011-0.026-0.015
					c0-0.005,0.009-0.013,0.027-0.025c-0.004-0.003-0.008-0.015-0.012-0.029c-0.005-0.016-0.009-0.026-0.016-0.03
					c-0.014,0.009-0.034,0.018-0.061,0.022c-0.027,0.004-0.047,0.008-0.056,0.015c0.005,0.064,0,0.178-0.026,0.201
					c-0.014-0.001-0.023,0.003-0.031,0.016c-0.01,0.016-0.019,0.023-0.023,0.027l0.008,0.007c-0.008,0.007-0.02,0.01-0.038,0.01
					c-0.03,0-0.046,0.001-0.049,0.002l-0.01-0.023l0.045-0.746c-0.003-0.042-0.003-0.071,0.001-0.086
					C53.03,8.9,53.04,8.876,53.063,8.866c0.014,0.006,0.033,0.008,0.053,0.007c0.018,0,0.045-0.005,0.082-0.015
					c0.037-0.008,0.062-0.013,0.078-0.013c0.049-0.003,0.074,0.024,0.072,0.083c-0.001,0.047,0.012,0.106,0.041,0.181
					c0.03,0.079,0.046,0.141,0.048,0.181c0.001,0.012,0.02,0.04,0.02,0.051c-0.021,0.011-0.05,0.019-0.085,0.024
					c-0.03,0.002-0.06,0.006-0.09,0.009c-0.014-0.062-0.042-0.139-0.055-0.2c-0.017-0.074-0.032-0.134-0.051-0.183l-0.02,0.359
					c-0.002,0.03,0.017,0.045,0.054,0.043c0.014-0.001,0.025-0.004,0.038-0.01c0.008-0.003,0.02,0.002,0.038,0.013
					c0,0.026,0.009,0.042,0.022,0.046c0.016-0.011,0.038-0.02,0.062-0.03c0.025-0.01,0.048-0.018,0.067-0.026
					c0.018,0.014,0.026,0.034,0.033,0.062c0.006,0.04,0.011,0.062,0.012,0.069c0.004,0.016,0.016,0.049,0.034,0.101
					c0.016,0.041,0.021,0.074,0.023,0.099C53.542,9.731,53.542,9.742,53.541,9.754z"/>
				<path d="M53.967,8.906L53.967,8.906c-0.011,0.019-0.027,0.022-0.045,0.012c-0.006-0.001-0.024,0-0.057,0.002
					c-0.027,0.001-0.048,0-0.061-0.003c-0.002,0-0.009,0.002-0.018,0.009c-0.009,0.006-0.017,0.008-0.019,0.008
					c-0.009,0.001-0.01-0.005-0.012-0.015c0-0.001-0.001-0.01-0.001-0.021c0-0.009-0.005-0.015-0.012-0.018l-0.02,0.015
					c-0.007,0.005-0.01,0.01-0.009,0.014c0,0.005,0.004,0.011,0.01,0.019c0.008,0.007,0.011,0.013,0.012,0.016
					s0.003,0.04,0.009,0.112c0,0.045,0.01,0.082,0.022,0.11c0.004-0.005,0.016-0.007,0.028-0.007c0.017,0,0.027-0.004,0.031-0.01
					c0.01,0.008,0.025,0.009,0.048,0.002c0.023-0.008,0.039-0.005,0.051,0.007l-0.004,0.11c-0.01-0.001-0.022-0.006-0.04-0.015
					c-0.007,0.018-0.016,0.027-0.032,0.032c-0.006,0-0.023,0.004-0.054,0.005c0.002-0.005-0.001-0.01-0.011-0.015
					c-0.028,0.014-0.04,0.044-0.032,0.095c0.001-0.005,0.002,0.004,0.003,0.026c0.002,0.014-0.002,0.024-0.008,0.031
					c-0.02,0.002-0.041-0.002-0.069-0.012c-0.025-0.011-0.045-0.016-0.059-0.016C53.617,9.4,53.612,9.4,53.609,9.401L53.581,9.41
					l-0.046-0.502l-0.006-0.096c0.038-0.014,0.086-0.02,0.144-0.024c0.043-0.003,0.101-0.001,0.172,0.001
					c0.006-0.01,0.014,0.003,0.023,0.003c0.006,0,0.015,0,0.024,0.001c0.011,0.001,0.018,0.002,0.022,0.001
					c0.007,0,0.013-0.001,0.019-0.002l0.006-0.009c0.021,0.006,0.032,0.018,0.034,0.033c0,0.006-0.002,0.018-0.008,0.034
					c-0.003,0.016-0.006,0.029-0.004,0.037C53.962,8.894,53.964,8.901,53.967,8.906z M53.787,9.745
					c-0.012,0.005-0.028,0.009-0.052,0.01c-0.029,0.003-0.047,0.004-0.055,0.004c-0.002-0.002-0.005,0-0.014-0.026
					c-0.004-0.019-0.014-0.026-0.032-0.025c-0.004,0.001-0.009,0.001-0.016,0.003l-0.028,0.001l-0.014-0.255
					c0.014-0.007,0.033-0.012,0.058-0.012c0.021-0.001,0.041,0,0.057,0.005c-0.001,0.01,0.013,0.015,0.039,0.012l0.029-0.001
					C53.778,9.533,53.787,9.662,53.787,9.745z"/>
				<path d="M54.584,8.928L54.584,8.928c-0.011,0-0.06,0.004-0.094,0.007c-0.032,0.004-0.055,0.005-0.07,0.003
					c-0.016,0.01-0.02,0.023-0.017,0.04l0.011,0.005c-0.01,0.008-0.012,0.013-0.01,0.018l0.01,0.007
					c-0.004,0.147-0.004,0.229-0.001,0.246c0.001,0.039,0.004,0.073,0.011,0.102c-0.006,0.019-0.007,0.04-0.007,0.064
					c0.001,0.016,0.006,0.042,0.014,0.075c0.006,0.035,0.016,0.146,0.016,0.165c0.001,0.012,0.001,0.025,0,0.037
					c-0.015,0.006-0.032,0.01-0.046,0.011c-0.029,0.001-0.059-0.005-0.092-0.018c-0.004,0.003-0.008,0.007-0.013,0.011
					c-0.004,0.004-0.005,0.008-0.003,0.013c-0.01,0.002-0.026-0.001-0.041-0.013c-0.014-0.149-0.037-0.453-0.077-0.76
					c-0.014,0.012-0.041,0.002-0.066,0.006c-0.033,0.003-0.063-0.002-0.074,0.005c-0.016-0.017-0.015-0.023-0.015-0.049
					c-0.001-0.027-0.011-0.092-0.005-0.12c0.004-0.006,0.061-0.002,0.095-0.006c0.046-0.002,0.056,0.009,0.059,0.009
					c0.005-0.007,0.027-0.003,0.044-0.004c0.012,0.005,0.021-0.005,0.021,0.001c0.001,0.005,0,0.037-0.005,0.047
					c-0.001,0.008-0.003,0.015-0.003,0.019c0,0.011,0.008-0.004,0.026,0.001c0.016,0,0.035-0.001,0.055-0.002
					c0.022,0.002,0.047-0.006,0.046,0.013c0.004-0.005,0.006,0.004,0.038-0.009c0.022-0.011,0.037-0.038,0.032-0.056
					c-0.003-0.011,0.01-0.018,0.001-0.013c0.013-0.006,0.003-0.001,0.014-0.006c0.039,0.004,0.061,0,0.067-0.001
					c0.016-0.001,0.055,0.01,0.065,0.003c0.006,0.015,0.013,0.06,0.013,0.085C54.584,8.905,54.584,8.926,54.584,8.928z"/>
				<path d="M55.085,9.448V9.446c-0.004,0.012-0.007,0.024-0.007,0.039c-0.002,0.009,0,0.021,0.002,0.038
					c0.002,0.019,0.003,0.032,0.003,0.04c-0.009,0-0.041,0.002-0.1,0.005C54.95,9.57,54.916,9.575,54.89,9.583L54.86,9.56
					c-0.008,0.007-0.011,0.012-0.01,0.016c-0.006,0-0.028,0-0.07,0.004c-0.032,0.003-0.058,0-0.076-0.004
					c-0.014,0.016-0.033,0.018-0.058,0.004c-0.009-0.004-0.011-0.013-0.004-0.025c0.004-0.012,0.003-0.021-0.01-0.026
					c0-0.028,0.002-0.069,0.004-0.125c0.006-0.05,0.006-0.089,0.005-0.117c-0.004-0.038-0.01-0.074-0.019-0.11
					c0.009-0.009,0.022-0.014,0.038-0.015c0.015-0.001,0.033,0.004,0.06,0.015c0.032,0.017,0.049,0.024,0.049,0.024l0.011,0.007
					c0.001-0.002,0.004-0.015,0.014-0.04c0.005-0.016,0.009-0.027,0.02-0.032l0.012,0.006c0.003-0.002,0.017-0.01,0.037-0.026
					c0.017-0.011,0.03-0.051,0.041-0.052c0.011,0,0.021,0.004,0.032,0.014c0.018,0.006,0.033,0.052,0.039,0.066
					c0.005,0.016,0.012,0.03,0.019,0.045c-0.047,0.004-0.085,0.006-0.114,0.005c-0.007,0.009-0.018,0.012-0.03,0.006
					c-0.015-0.006-0.023-0.005-0.03,0.005c0.002,0.015,0.004,0.041,0.005,0.08c0.002,0.035,0.002,0.063,0.005,0.083
					c0.003,0.03,0.007,0.059,0.014,0.084c0.009,0,0.048-0.003,0.118-0.007C55.008,9.443,55.05,9.444,55.085,9.448z M55.039,8.862
					c-0.011,0.001-0.021,0.002-0.032,0.003c-0.023,0.001-0.055,0-0.095-0.002c-0.05-0.002-0.078-0.003-0.089-0.003
					c-0.014,0.017-0.016,0.032-0.014,0.064c0.004,0.067,0.007,0.097,0.007,0.087c0.016,0.006,0.024,0.019,0.025,0.037
					c0,0.024,0,0.038,0.001,0.039c-0.008,0.003-0.011,0.011-0.01,0.026c-0.011-0.003-0.023-0.008-0.034-0.019
					c-0.02-0.012-0.025,0.029-0.025,0.019l-0.007,0.025l-0.01-0.006c-0.007,0-0.021-0.001-0.043-0.009
					c-0.021-0.006-0.033-0.012-0.043-0.018c0-0.013,0.001-0.021,0.006-0.022l-0.021-0.017l-0.009,0.013
					c-0.018-0.087-0.029-0.237-0.023-0.329c0.04,0.003,0.086-0.004,0.132-0.005c0.034-0.001,0.077-0.003,0.136-0.008
					c0.065-0.004,0.114-0.007,0.142-0.009c0.013,0.009,0.021,0.02,0.021,0.035c0,0.01-0.001,0.024-0.008,0.044
					C55.043,8.828,55.038,8.852,55.039,8.862z"/>
				<path d="M55.6,9.359L55.6,9.359c-0.008,0.013-0.01,0.032-0.008,0.055c0.002,0.034,0.005,0.051,0.005,0.052
					c-0.005,0.002-0.01-0.001-0.02-0.007c-0.016,0.004-0.019,0.012-0.019,0.025c0,0.001,0,0.004,0.001,0.009c0,0.005,0,0.007,0,0.01
					c0,0.008-0.001,0.015-0.007,0.02c-0.014-0.008-0.035-0.013-0.061-0.015c-0.023-0.003-0.047-0.005-0.069-0.008
					c0-0.113-0.016-0.224-0.045-0.332c0,0.001,0-0.01-0.001-0.033c0-0.018-0.005-0.029-0.013-0.036l-0.011,0.009
					c0-0.002,0.005-0.003,0.011-0.009c0.008-0.005,0.012-0.012,0.01-0.015c0-0.003-0.001-0.005-0.002-0.008l-0.01-0.008
					c-0.02,0.006-0.029,0.022-0.028,0.047c0.001,0.017-0.004,0.028-0.018,0.035c0.004,0.003,0.008,0.008,0.01,0.013
					c0,0.004-0.002,0.009-0.003,0.014C55.32,9.185,55.32,9.188,55.32,9.191c0,0.008,0.007,0.015,0.013,0.019
					c0,0.005,0.002,0.049,0.006,0.134c0.005,0.054,0.004,0.1-0.004,0.137l0.003,0.021c-0.008,0-0.018,0-0.025,0
					c-0.012,0-0.025,0.001-0.044,0.004c-0.02,0.001-0.035,0.003-0.044,0.003c-0.037,0.003-0.064-0.003-0.079-0.018l-0.019-0.465
					c-0.006-0.023-0.012-0.055-0.015-0.095l-0.005-0.089c-0.004-0.043-0.008-0.078-0.016-0.101c0.002-0.017,0.017-0.024,0.04-0.026
					c0.018,0,0.036,0.002,0.062,0.007c0.014-0.007,0.03-0.01,0.05-0.012c0.009,0,0.019,0,0.03,0c0.016,0,0.025-0.002,0.032-0.002
					c0.039-0.002,0.066-0.014,0.081-0.037c0.019,0,0.037,0.005,0.06,0.018c0.021,0.012,0.041,0.018,0.059,0.019
					c0.043,0.026,0.066,0.068,0.071,0.128c0,0.014-0.006,0.067-0.018,0.157l-0.074,0.066c0.012,0.023,0.026,0.075,0.045,0.153
					C55.546,9.28,55.568,9.329,55.6,9.359z M55.461,8.831l0.001,0.002c0.001,0.004,0-0.016-0.002-0.061
					c-0.001-0.023-0.01-0.04-0.024-0.048c-0.007,0.011-0.011-0.017-0.015,0.011c-0.004,0.027-0.011,0.048-0.02,0.06
					c-0.025,0-0.031-0.015-0.048-0.037c-0.01-0.013-0.015-0.001-0.015-0.003l-0.006,0.006c-0.004,0.003-0.006,0.007-0.013,0.013
					c-0.004,0.003-0.011,0.005-0.017,0.004c0,0.005-0.003,0.013-0.006,0.024c-0.007,0.01-0.008,0.018-0.008,0.021
					c0,0.008,0.007,0.013,0.018,0.016c-0.003,0.018-0.003,0.035-0.001,0.052c0,0.011,0.003,0.033,0.006,0.068
					c0.005,0.029,0.008,0.053,0.007,0.073c0.01,0.001,0.019,0.001,0.025-0.001c0.036-0.001,0.062-0.015,0.071-0.042
					c0.003-0.008,0.007-0.036,0.013-0.083C55.433,8.87,55.443,8.845,55.461,8.831z"/>
			</g>
			<g>
				<path d="M50.476,7.218L50.476,7.218c-0.004,0.043-0.007,0.073-0.004,0.09c-0.007,0.002-0.016,0.002-0.025,0.001
					c-0.015-0.003-0.022-0.004-0.024-0.004c-0.006,0-0.011,0.003-0.015,0.007c-0.009-0.006-0.015-0.008-0.018-0.007
					c-0.007,0.005-0.01,0.012-0.01,0.021c0,0.003,0.001,0.01,0.004,0.02c0.002,0.009,0.002,0.015,0.003,0.02
					c0.001,0.007-0.001,0.016-0.003,0.028c-0.002,0.014-0.004,0.023-0.003,0.033c0.001,0.008,0.003,0.025,0.005,0.045
					c0.005,0.02,0.006,0.036,0.007,0.046c-0.005,0.021-0.007,0.042-0.005,0.063c0,0.026,0.009,0.061,0.022,0.102
					c0.002,0.001,0.005,0.001,0.007,0.001c0.005-0.001,0.01-0.003,0.017-0.012c0.01-0.006,0.014-0.01,0.019-0.01
					c0.004,0,0.009,0,0.013,0.003c0.015,0.044,0.021,0.071,0.021,0.084c0,0.005,0,0.012,0,0.02
					c-0.021,0.004-0.034-0.002-0.041-0.021c0.001-0.005-0.002-0.011-0.011-0.017l-0.022,0.024c0.021,0.004,0.032,0.02,0.028,0.051
					c-0.005,0.006-0.009,0.009-0.016,0.01c-0.013,0-0.019,0-0.018,0l-0.02-0.033l-0.006,0.009c-0.007-0.016-0.015-0.023-0.023-0.022
					c-0.003,0-0.012,0.003-0.021,0.01c-0.014,0.008-0.023,0.012-0.029,0.012c-0.007,0.001-0.013-0.001-0.019-0.005
					c0-0.009-0.002-0.017-0.003-0.028c-0.002-0.009-0.007-0.016-0.015-0.019c-0.001-0.023,0-0.084,0.003-0.183
					c0.001-0.076,0-0.136-0.004-0.184c-0.002-0.02-0.003-0.039-0.004-0.057c-0.004-0.006-0.008-0.009-0.013-0.008
					c-0.003,0-0.007,0.002-0.013,0.01c-0.005,0.006-0.012,0.008-0.016,0.008c-0.002-0.007-0.005-0.019-0.011-0.036
					c-0.007-0.018-0.01-0.029-0.011-0.037c0-0.012,0.004-0.022,0.015-0.033l0.027,0.007c0.009-0.015,0.015-0.04,0.012-0.075
					c0-0.007-0.002-0.018-0.003-0.032c-0.001-0.015-0.002-0.025-0.004-0.032C50.249,7.032,50.268,7.001,50.306,7
					c0.015,0,0.032,0.001,0.052,0.007l0.026,0.007c0.001,0.009,0.002,0.02,0.002,0.03c0.002,0.015,0,0.036-0.001,0.062
					c-0.001,0.028-0.001,0.049-0.001,0.06c0,0.021,0.003,0.039,0.011,0.055c0.005,0,0.016-0.004,0.027-0.009
					c0.012-0.007,0.023-0.01,0.028-0.01C50.461,7.201,50.469,7.206,50.476,7.218z M50.397,7.297l-0.001-0.025l-0.009-0.008
					L50.397,7.297z"/>
				<path d="M50.785,7.136L50.785,7.136c-0.001,0.021-0.004,0.041-0.008,0.062s-0.011,0.041-0.02,0.055
					c-0.002-0.001-0.011-0.005-0.027-0.014c-0.012-0.005-0.023-0.01-0.031-0.007c-0.006,0.042-0.011,0.104-0.012,0.18
					c0,0.096-0.001,0.156-0.003,0.176c-0.011,0-0.019,0.002-0.024,0.011c-0.007,0.009-0.012,0.016-0.016,0.025
					c-0.003,0.005-0.003,0.009-0.003,0.014c0,0.006,0.005,0.012,0.015,0.016c0.011,0.007,0.015,0.013,0.016,0.02
					c-0.003,0.016-0.013,0.024-0.027,0.025c-0.007,0-0.019-0.002-0.035-0.007s-0.029-0.007-0.037-0.006l-0.016-0.322
					c0.007-0.007,0.01-0.014,0.01-0.016l-0.01-0.006c0-0.014,0.003-0.082,0.003-0.202c0-0.083,0.003-0.149,0.008-0.2
					c-0.001,0,0.023-0.001,0.069-0.004c0.03-0.001,0.049,0.007,0.058,0.025c0,0.016-0.001,0.043-0.006,0.083
					c-0.002,0.035-0.004,0.064-0.003,0.083c0.001,0.023,0.005,0.045,0.012,0.064C50.721,7.157,50.751,7.138,50.785,7.136z
					 M50.896,7.205c0.004,0.029,0.006,0.059,0.008,0.087c0.007,0.125,0.002,0.259-0.008,0.4c-0.01,0.01-0.026,0.012-0.05,0.006
					c-0.022-0.004-0.038-0.002-0.049,0.007c-0.012-0.017-0.02-0.046-0.021-0.09c-0.002-0.062-0.005-0.097-0.005-0.098
					c-0.002-0.158,0.014-0.285,0.046-0.383C50.855,7.145,50.883,7.168,50.896,7.205z"/>
				<path d="M51.292,7.369c-0.004,0.01-0.008,0.021-0.008,0.031c0.002,0.012,0.002,0.023,0.004,0.033
					c-0.002,0.009-0.005,0.018-0.009,0.027c-0.006-0.002-0.013-0.002-0.018-0.002c-0.006,0-0.01,0.002-0.015,0.006
					c-0.006,0.003-0.011,0.005-0.013,0.005c-0.004,0-0.012-0.002-0.018-0.005l-0.054-0.075c0.001,0.021,0.008,0.042,0.016,0.058
					c0.005,0.008,0.008,0.018,0.012,0.026c-0.028,0.007-0.046,0.007-0.052,0.003l-0.007,0.009l-0.019-0.023
					C51.1,7.48,51.097,7.505,51.104,7.538c0.009,0.036,0.009,0.063,0.001,0.078c0.013,0.017,0.025,0.026,0.04,0.025
					c0.009,0,0.014-0.004,0.018-0.008c0.009-0.019,0.016-0.037,0.023-0.056c0.011-0.021,0.021-0.034,0.035-0.034
					c0.013,0,0.025,0.004,0.04,0.016c0.015,0.006,0.022,0.015,0.024,0.024c0,0.005-0.005,0.015-0.011,0.029
					c-0.01,0.015-0.014,0.025-0.013,0.032c0,0.003,0.001,0.005,0.001,0.008c-0.011,0.008-0.02,0.021-0.028,0.036
					c-0.01,0.017-0.02,0.028-0.033,0.034c-0.014,0.012-0.024,0.019-0.034,0.019c-0.009,0-0.022-0.007-0.037-0.019
					c-0.018-0.014-0.032-0.02-0.048-0.02c-0.004-0.014-0.019-0.027-0.043-0.043c-0.021-0.016-0.038-0.034-0.043-0.051
					c0,0.001,0-0.005-0.002-0.019c0-0.008-0.003-0.013-0.008-0.015l0.008-0.008c-0.011,0-0.017-0.007-0.019-0.02
					c-0.001-0.002-0.001-0.004-0.001-0.008c0.001-0.004,0.001-0.008,0.001-0.01c-0.001-0.009-0.002-0.014-0.009-0.019l-0.002-0.039
					c0-0.021-0.004-0.036-0.013-0.043c0.009-0.048,0.015-0.097,0.022-0.144c0.014-0.056,0.03-0.084,0.055-0.085
					c0.005,0,0.008,0.001,0.012,0.002c0.022-0.021,0.049-0.034,0.077-0.035c0.035-0.002,0.071,0.009,0.113,0.03
					C51.265,7.249,51.283,7.306,51.292,7.369z M51.137,7.243l-0.008,0.011c-0.004,0-0.011-0.002-0.019-0.008l0.001,0.025
					c-0.011,0.013-0.015,0.032-0.013,0.058c0.002,0.045,0.004,0.066,0.004,0.066l0.033-0.001c0.015-0.009,0.023-0.024,0.022-0.044
					c-0.001-0.011-0.004-0.028-0.013-0.053C51.14,7.273,51.137,7.255,51.137,7.243z"/>
			</g>
			<g>
				<polygon fill-rule="evenodd" clip-rule="evenodd" points="51.557,8.504 51.591,8.523 51.704,8.225 51.665,8.212 51.553,8.51 
					51.584,8.532 51.557,8.504 51.557,8.504 				"/>
				<polygon fill-rule="evenodd" clip-rule="evenodd" points="51.606,8.463 51.594,8.468 51.557,8.504 51.584,8.532 51.62,8.494 
					51.606,8.501 51.606,8.463 51.606,8.463 				"/>
				<polygon fill-rule="evenodd" clip-rule="evenodd" points="51.882,8.46 51.897,8.448 51.606,8.463 51.606,8.501 51.898,8.487 
					51.917,8.473 51.882,8.46 51.882,8.46 51.882,8.46 				"/>
				<polygon fill-rule="evenodd" clip-rule="evenodd" points="52.014,8.186 51.994,8.161 51.882,8.46 51.917,8.473 52.032,8.174 
					52.011,8.149 52.014,8.186 52.014,8.186 52.014,8.186 				"/>
				<polygon fill-rule="evenodd" clip-rule="evenodd" points="51.736,8.196 51.72,8.202 52.014,8.186 52.011,8.149 51.72,8.163 
					51.707,8.17 51.736,8.196 51.736,8.196 51.736,8.196 				"/>
				<polygon fill-rule="evenodd" clip-rule="evenodd" points="51.704,8.225 51.7,8.23 51.736,8.196 51.707,8.17 51.67,8.206 
					51.665,8.212 51.704,8.225 51.704,8.225 51.704,8.225 				"/>
				<polygon fill-rule="evenodd" clip-rule="evenodd" points="51.946,8.496 51.973,8.484 51.907,8.45 51.889,8.485 51.953,8.52 
					51.982,8.509 51.943,8.495 51.943,8.495 51.946,8.496 				"/>
				<polygon fill-rule="evenodd" clip-rule="evenodd" points="52.067,8.22 52.058,8.197 51.943,8.495 51.982,8.509 52.096,8.208 
					52.086,8.186 52.067,8.22 52.067,8.22 				"/>
				<polygon fill-rule="evenodd" clip-rule="evenodd" points="52.032,8.174 52.004,8.186 52.067,8.22 52.086,8.186 52.023,8.151 
					51.994,8.161 52.032,8.174 52.032,8.174 				"/>
				<polygon points="51.686,8.218 51.683,8.218 51.719,8.182 51.992,8.169 51.994,8.161 52.014,8.167 52.032,8.174 52.029,8.177 
					52.076,8.204 52.096,8.208 52.088,8.229 52.221,8.543 52.11,8.843 51.963,8.502 51.963,8.502 51.943,8.51 51.943,8.495 
					51.944,8.491 51.898,8.467 51.889,8.485 51.884,8.467 51.606,8.48 51.57,8.517 				"/>
				<polygon fill-rule="evenodd" clip-rule="evenodd" points="52.091,8.836 52.128,8.834 51.982,8.494 51.943,8.51 52.091,8.851 
					52.127,8.849 52.088,8.836 52.088,8.836 52.091,8.836 				"/>
				<polygon fill-rule="evenodd" clip-rule="evenodd" points="52.204,8.552 52.202,8.538 52.088,8.836 52.127,8.849 52.24,8.549 
					52.237,8.536 52.204,8.552 52.204,8.552 				"/>
				<polygon fill-rule="evenodd" clip-rule="evenodd" points="52.096,8.208 52.058,8.211 52.204,8.552 52.237,8.536 52.095,8.194 
					52.058,8.197 52.096,8.208 52.096,8.208 				"/>
				<polygon fill-rule="evenodd" clip-rule="evenodd" fill="#FFFFFF" points="52.086,8.288 52.103,8.322 52.11,8.358 52.105,8.394 
					52.096,8.43 52.078,8.465 52.052,8.498 52.022,8.527 51.983,8.552 51.963,8.562 51.941,8.569 51.917,8.575 51.896,8.579 
					51.876,8.582 51.853,8.584 51.829,8.582 51.81,8.58 51.792,8.577 51.771,8.569 51.752,8.562 51.736,8.552 51.72,8.541 
					51.704,8.529 51.691,8.515 51.68,8.5 51.664,8.464 51.657,8.428 51.657,8.391 51.672,8.355 51.686,8.32 51.71,8.288 
					51.744,8.259 51.782,8.233 51.802,8.223 51.825,8.215 51.846,8.21 51.868,8.206 51.892,8.204 51.914,8.201 51.934,8.204 
					51.955,8.204 51.975,8.211 51.995,8.218 52.013,8.223 52.032,8.234 52.047,8.242 52.062,8.255 52.071,8.272 52.086,8.288 
					52.086,8.288 52.086,8.288 				"/>
				<polygon fill-rule="evenodd" clip-rule="evenodd" points="52.101,8.345 52.115,8.38 52.121,8.419 52.118,8.454 52.11,8.489 
					52.095,8.525 52.067,8.559 52.039,8.587 51.996,8.61 51.977,8.622 51.955,8.631 51.934,8.636 51.912,8.64 51.888,8.643 
					51.868,8.645 51.846,8.643 51.824,8.639 51.807,8.635 51.785,8.628 51.768,8.621 51.749,8.61 51.735,8.602 51.72,8.588 
					51.707,8.577 51.693,8.559 51.678,8.524 51.673,8.488 51.674,8.451 51.683,8.417 51.701,8.379 51.725,8.348 51.756,8.318 
					51.796,8.294 51.819,8.283 51.839,8.276 51.861,8.27 51.885,8.265 51.905,8.264 51.926,8.26 51.947,8.264 51.967,8.265 
					51.99,8.27 52.009,8.276 52.025,8.285 52.045,8.292 52.059,8.304 52.076,8.315 52.086,8.331 52.101,8.348 52.101,8.348 
					52.101,8.345 				"/>
				<polygon fill-rule="evenodd" clip-rule="evenodd" fill="#FFFFFF" points="52.11,8.387 52.128,8.42 52.133,8.458 52.131,8.494 
					52.12,8.529 52.104,8.564 52.078,8.598 52.049,8.626 52.009,8.649 51.99,8.662 51.966,8.67 51.943,8.675 51.922,8.681 
					51.898,8.683 51.88,8.684 51.857,8.683 51.835,8.678 51.816,8.675 51.796,8.668 51.778,8.66 51.76,8.649 51.745,8.64 
					51.729,8.627 51.719,8.614 51.706,8.598 51.688,8.564 51.683,8.528 51.684,8.493 51.693,8.456 51.71,8.419 51.736,8.385 
					51.768,8.359 51.808,8.334 51.828,8.323 51.852,8.313 51.872,8.31 51.896,8.305 51.915,8.302 51.937,8.301 51.961,8.302 
					51.979,8.305 51.999,8.31 52.021,8.316 52.039,8.325 52.056,8.334 52.071,8.344 52.086,8.354 52.099,8.37 52.11,8.387 
					52.11,8.387 				"/>
				<polygon fill-rule="evenodd" clip-rule="evenodd" points="52.124,8.445 52.142,8.48 52.147,8.517 52.147,8.553 52.134,8.589 
					52.118,8.624 52.094,8.657 52.062,8.688 52.022,8.711 52.003,8.721 51.98,8.729 51.958,8.734 51.937,8.738 51.915,8.743 
					51.893,8.744 51.872,8.743 51.852,8.741 51.829,8.736 51.812,8.729 51.792,8.721 51.772,8.711 51.759,8.7 51.745,8.69 
					51.732,8.675 51.719,8.658 51.706,8.624 51.698,8.587 51.7,8.552 51.708,8.515 51.726,8.48 51.752,8.448 51.782,8.417 
					51.822,8.393 51.844,8.383 51.863,8.375 51.887,8.37 51.907,8.365 51.932,8.363 51.953,8.362 51.974,8.363 51.994,8.364 
					52.014,8.369 52.033,8.375 52.052,8.383 52.07,8.394 52.086,8.404 52.102,8.416 52.113,8.43 52.124,8.448 52.124,8.448 
					52.124,8.445 				"/>
				<polygon fill-rule="evenodd" clip-rule="evenodd" fill="#FFFFFF" points="52.146,8.484 52.163,8.518 52.168,8.555 52.168,8.592 
					52.157,8.627 52.141,8.663 52.113,8.696 52.084,8.724 52.045,8.749 52.023,8.761 52.001,8.769 51.979,8.773 51.957,8.777 
					51.935,8.781 51.915,8.782 51.893,8.781 51.872,8.777 51.853,8.773 51.829,8.766 51.814,8.759 51.796,8.75 51.78,8.738 
					51.766,8.726 51.754,8.711 51.744,8.697 51.726,8.663 51.719,8.625 51.72,8.588 51.732,8.555 51.748,8.518 51.772,8.484 
					51.806,8.458 51.844,8.433 51.865,8.42 51.886,8.412 51.907,8.409 51.932,8.403 51.952,8.399 51.974,8.398 51.995,8.401 
					52.014,8.403 52.035,8.408 52.058,8.415 52.073,8.422 52.093,8.431 52.11,8.441 52.121,8.455 52.136,8.47 52.146,8.484 
					52.146,8.484 				"/>
				<polygon fill-rule="evenodd" clip-rule="evenodd" points="52.163,8.544 52.175,8.578 52.185,8.616 52.183,8.65 52.172,8.688 
					52.156,8.721 52.13,8.756 52.099,8.784 52.059,8.81 52.039,8.819 52.014,8.828 51.994,8.833 51.973,8.837 51.951,8.839 
					51.929,8.842 51.906,8.839 51.886,8.838 51.868,8.833 51.845,8.827 51.827,8.819 51.812,8.81 51.795,8.797 51.78,8.787 
					51.767,8.773 51.756,8.757 51.739,8.721 51.733,8.685 51.735,8.649 51.746,8.613 51.763,8.578 51.786,8.545 51.819,8.515 
					51.858,8.491 51.88,8.48 51.901,8.473 51.925,8.468 51.943,8.463 51.967,8.46 51.99,8.458 52.011,8.46 52.029,8.462 
					52.052,8.467 52.071,8.474 52.088,8.48 52.105,8.491 52.121,8.502 52.136,8.514 52.148,8.527 52.163,8.544 52.163,8.544 
					52.163,8.544 				"/>
				<polygon fill-rule="evenodd" clip-rule="evenodd" points="50.176,8.085 50.178,8.075 50.062,8.375 50.1,8.387 50.214,8.085 
					50.214,8.078 50.176,8.085 50.176,8.085 50.176,8.085 				"/>
				<polygon fill-rule="evenodd" clip-rule="evenodd" points="50.171,8.071 50.173,8.069 50.176,8.085 50.214,8.078 50.209,8.061 
					50.209,8.06 50.171,8.071 50.171,8.071 50.171,8.071 				"/>
				<polygon fill-rule="evenodd" clip-rule="evenodd" points="50.169,8.053 50.171,8.071 50.209,8.06 50.205,8.041 50.169,8.053 
					50.169,8.053 50.169,8.053 				"/>
				<polygon fill-rule="evenodd" clip-rule="evenodd" points="50.162,8.037 50.169,8.053 50.205,8.041 50.202,8.026 50.162,8.037 
					50.162,8.037 				"/>
				<polygon fill-rule="evenodd" clip-rule="evenodd" points="50.16,8.02 50.16,8.02 50.162,8.037 50.202,8.026 50.197,8.009 
					50.197,8.009 50.16,8.02 50.16,8.02 50.16,8.02 				"/>
				<polygon fill-rule="evenodd" clip-rule="evenodd" points="50.154,7.999 50.154,8.004 50.16,8.02 50.197,8.009 50.191,7.995 
					50.194,8.002 50.154,7.999 50.154,7.999 				"/>
				<polygon fill-rule="evenodd" clip-rule="evenodd" points="50.192,7.991 50.155,7.985 50.154,7.999 50.194,8.002 50.194,7.987 
					50.157,7.98 50.192,7.993 50.192,7.993 50.192,7.991 				"/>
				<polygon fill-rule="evenodd" clip-rule="evenodd" fill="#343130" points="50.228,8.865 50.222,8.846 50.181,8.853 50.185,8.873 
					50.228,8.865 50.228,8.865 50.228,8.865 				"/>
				<polygon fill-rule="evenodd" clip-rule="evenodd" points="50.309,8.614 50.311,8.604 50.197,8.904 50.232,8.917 50.347,8.617 
					50.347,8.607 50.309,8.614 50.309,8.614 50.309,8.614 				"/>
				<polygon fill-rule="evenodd" clip-rule="evenodd" points="50.307,8.593 50.309,8.614 50.347,8.607 50.342,8.585 50.305,8.593 
					50.305,8.593 50.307,8.593 				"/>
				<polygon fill-rule="evenodd" clip-rule="evenodd" points="50.301,8.574 50.305,8.593 50.342,8.585 50.339,8.565 50.301,8.574 
					50.301,8.574 50.301,8.574 				"/>
				<polygon fill-rule="evenodd" clip-rule="evenodd" points="50.297,8.552 50.298,8.555 50.301,8.574 50.339,8.565 50.335,8.545 
					50.337,8.547 50.297,8.552 50.297,8.552 50.297,8.552 				"/>
				<polygon fill-rule="evenodd" clip-rule="evenodd" points="50.331,8.534 50.294,8.529 50.297,8.552 50.337,8.547 50.333,8.527 
					50.294,8.522 50.331,8.534 50.331,8.534 				"/>
				<g>
					<polygon fill="#343130" points="50.062,8.315 50.045,8.32 50.062,8.315 					"/>
					<polygon fill="#343130" points="50.082,8.377 50.083,8.375 50.093,8.377 50.1,8.387 50.082,8.38 					"/>
					<polygon points="50.04,8.304 50.062,8.299 50.062,8.286 50.174,7.985 50.174,7.987 50.174,8 50.178,8.014 50.183,8.032 
						50.189,8.047 50.192,8.064 50.194,8.081 50.194,8.081 50.214,8.085 50.1,8.387 50.093,8.377 50.083,8.375 50.082,8.377 
						50.082,8.38 50.1,8.387 50.082,8.385 50.083,8.398 50.071,8.384 50.062,8.384 50.061,8.368 50.066,8.365 50.072,8.346 
						50.054,8.351 50.05,8.338 50.045,8.32 50.062,8.315 50.062,8.315 50.045,8.32 50.047,8.318 					"/>
				</g>
				<g>
					<polygon fill="none" points="50.971,8.385 50.971,8.385 50.988,8.349 					"/>
					<polygon points="50.082,8.36 50.919,8.333 50.939,8.334 50.943,8.335 50.964,8.34 50.966,8.341 50.988,8.349 51.009,8.358 
						51.01,8.358 51.029,8.37 51.034,8.371 51.048,8.385 51.055,8.389 51.064,8.403 51.065,8.404 51.073,8.417 51.074,8.42 
						51.038,8.433 51.032,8.424 51.032,8.425 51.022,8.412 51.022,8.412 51.009,8.401 51.012,8.404 50.992,8.394 50.992,8.394 
						50.971,8.385 50.971,8.385 50.952,8.379 50.933,8.375 50.938,8.375 50.918,8.373 50.918,8.371 50.083,8.398 					"/>
					<polygon points="51.038,8.434 51.038,8.433 51.039,8.436 					"/>
				</g>
				<polygon fill-rule="evenodd" clip-rule="evenodd" points="51.484,9.136 51.484,9.123 51.369,9.423 51.408,9.436 51.522,9.136 
					51.522,9.123 51.484,9.136 51.484,9.136 51.484,9.136 				"/>
				<polygon fill-rule="evenodd" clip-rule="evenodd" points="51.154,8.137 51.15,8.132 51.484,9.136 51.522,9.123 51.188,8.121 
					51.188,8.116 51.154,8.137 51.154,8.137 51.154,8.137 				"/>
				<polygon fill-rule="evenodd" clip-rule="evenodd" points="51.146,8.127 51.146,8.125 51.154,8.137 51.188,8.116 51.181,8.104 
					51.179,8.104 51.146,8.127 51.146,8.127 51.146,8.127 				"/>
				<polygon fill-rule="evenodd" clip-rule="evenodd" points="51.139,8.115 51.137,8.112 51.146,8.127 51.179,8.104 51.167,8.087 
					51.163,8.085 51.139,8.115 51.139,8.115 51.139,8.115 				"/>
				<polygon fill-rule="evenodd" clip-rule="evenodd" points="51.128,8.107 51.124,8.103 51.139,8.115 51.163,8.085 51.146,8.074 
					51.145,8.07 51.128,8.107 51.128,8.107 				"/>
				<polygon fill-rule="evenodd" clip-rule="evenodd" points="51.108,8.094 51.107,8.093 51.128,8.107 51.145,8.07 51.124,8.06 
					51.123,8.06 51.108,8.094 51.108,8.094 				"/>
				<polygon fill-rule="evenodd" clip-rule="evenodd" points="51.089,8.085 51.084,8.085 51.108,8.094 51.123,8.06 51.101,8.049 
					51.1,8.049 51.086,8.086 51.086,8.086 51.089,8.085 				"/>
				<polygon fill-rule="evenodd" clip-rule="evenodd" points="51.067,8.078 51.064,8.08 51.086,8.086 51.1,8.049 51.078,8.042 
					51.078,8.042 51.065,8.081 51.065,8.081 51.067,8.078 				"/>
				<polygon fill-rule="evenodd" clip-rule="evenodd" points="51.051,8.075 51.047,8.074 51.065,8.081 51.078,8.042 51.056,8.036 
					51.055,8.036 51.051,8.075 51.051,8.075 51.051,8.075 				"/>
				<polygon fill-rule="evenodd" clip-rule="evenodd" points="51.032,8.072 51.03,8.075 51.051,8.075 51.055,8.036 51.034,8.032 
					51.029,8.033 51.032,8.072 51.032,8.072 				"/>
				<polygon fill-rule="evenodd" clip-rule="evenodd" points="50.215,8.085 50.194,8.099 51.032,8.072 51.029,8.033 50.194,8.062 
					50.178,8.075 50.214,8.085 50.214,8.085 50.215,8.085 				"/>
				<polygon fill="#343130" points="50.425,9 50.422,8.998 50.424,8.998 				"/>
				<g>
					<polygon fill="#343130" points="50.877,9.136 50.875,9.176 50.877,9.136 					"/>
					<g>
						<polygon fill="none" points="50.876,9.154 50.875,9.176 50.876,9.154 						"/>
						<g>
							<polygon fill="none" points="50.197,8.828 50.199,8.827 50.199,8.831 							"/>
							<path d="M50.185,8.873l0.005,0.019l0.006,0.021l0.009,0.015l0.051,0.027l0.052,0.027l0.051,0.026l0.049,0.024h0.001
								l0.052,0.023l0.051,0.024l0.054,0.021l0.056,0.022h0.002l0.058,0.015l0.06,0.016v0.001l0.067,0.01l0.067,0.01l0.002,0.001
								l0.071,0.002l0.003-0.001l0.077,0.003l0.083-0.003l0.088-0.004l0.019-0.012l0.112-0.299l-0.02-0.026l0.002,0.038
								l-0.005-0.007l0.003-0.01h-0.012l-0.006-0.006l-0.002,0.007l-0.067,0.004h-0.084L51.062,8.86L50.99,8.856l-0.069-0.009
								l-0.064-0.012l-0.06-0.017l-0.059-0.016l-0.054-0.02l-0.055-0.02l-0.05-0.023l-0.05-0.024l-0.051-0.025l-0.05-0.026
								l-0.05-0.026l-0.033-0.018V8.617L50.328,8.61l0,0l-0.005-0.021l-0.003-0.02V8.564l0.011-0.03l-0.018-0.005l-0.001-0.001l0,0
								l-0.019-0.005L50.18,8.821l-0.001,0.01l0.003,0.02L50.185,8.873z M50.199,8.827v0.004l-0.002-0.002L50.199,8.827z"/>
						</g>
					</g>
				</g>
				<polygon fill-rule="evenodd" clip-rule="evenodd" points="51.222,8.879 51.311,8.874 51.309,8.836 51.222,8.841 51.222,8.879 
					51.222,8.879 51.222,8.879 				"/>
				<polygon fill-rule="evenodd" clip-rule="evenodd" points="51.14,8.882 51.222,8.879 51.222,8.841 51.138,8.843 51.14,8.882 
					51.14,8.882 51.14,8.882 				"/>
				<polygon fill-rule="evenodd" clip-rule="evenodd" points="51.061,8.879 51.063,8.881 51.14,8.882 51.138,8.843 51.062,8.842 
					51.064,8.84 51.06,8.882 51.06,8.882 51.061,8.879 				"/>
				<polygon fill-rule="evenodd" clip-rule="evenodd" points="50.986,8.874 50.988,8.875 51.06,8.882 51.064,8.84 50.991,8.836 
					50.992,8.836 50.986,8.874 50.986,8.874 50.986,8.874 				"/>
				<polygon fill-rule="evenodd" clip-rule="evenodd" points="50.919,8.866 50.986,8.874 50.992,8.836 50.926,8.827 50.919,8.866 
					50.919,8.866 				"/>
				<polygon fill-rule="evenodd" clip-rule="evenodd" points="50.854,8.854 50.854,8.855 50.919,8.866 50.926,8.827 50.858,8.815 
					50.86,8.817 50.854,8.854 50.854,8.854 50.854,8.854 				"/>
				<polygon fill-rule="evenodd" clip-rule="evenodd" points="50.794,8.838 50.854,8.854 50.86,8.817 50.802,8.801 50.794,8.84 
					50.794,8.84 50.794,8.838 				"/>
				<polygon fill-rule="evenodd" clip-rule="evenodd" points="50.733,8.824 50.734,8.824 50.794,8.84 50.802,8.801 50.744,8.785 
					50.745,8.786 50.733,8.824 50.733,8.824 				"/>
				<polygon fill-rule="evenodd" clip-rule="evenodd" points="50.677,8.803 50.677,8.803 50.733,8.824 50.745,8.786 50.688,8.766 
					50.693,8.766 50.675,8.802 50.675,8.802 50.677,8.803 				"/>
				<polygon fill-rule="evenodd" clip-rule="evenodd" points="50.624,8.781 50.675,8.802 50.693,8.766 50.639,8.744 50.624,8.781 
					50.624,8.781 				"/>
				<polygon fill-rule="evenodd" clip-rule="evenodd" points="50.571,8.759 50.624,8.781 50.639,8.744 50.588,8.723 50.571,8.759 
					50.571,8.759 				"/>
				<polygon fill-rule="evenodd" clip-rule="evenodd" points="50.521,8.733 50.521,8.736 50.571,8.759 50.588,8.723 50.535,8.699 
					50.537,8.699 50.52,8.734 50.52,8.734 50.521,8.733 				"/>
				<polygon fill-rule="evenodd" clip-rule="evenodd" points="50.471,8.708 50.52,8.734 50.537,8.699 50.488,8.674 50.469,8.711 
					50.469,8.711 50.471,8.708 				"/>
				<polygon fill-rule="evenodd" clip-rule="evenodd" points="50.422,8.683 50.469,8.711 50.488,8.674 50.44,8.648 50.419,8.682 
					50.419,8.682 50.422,8.683 				"/>
				<polygon fill-rule="evenodd" clip-rule="evenodd" points="50.37,8.654 50.419,8.682 50.44,8.648 50.388,8.622 50.37,8.654 
					50.37,8.654 				"/>
				<polygon fill-rule="evenodd" clip-rule="evenodd" points="50.347,8.617 50.32,8.627 50.37,8.654 50.388,8.622 50.339,8.594 
					50.311,8.604 50.347,8.617 50.347,8.617 50.347,8.617 				"/>
				<polygon fill-rule="evenodd" clip-rule="evenodd" points="55.558,8.076 55.442,8.377 55.814,8.501 55.901,8.301 55.904,8.282 
					55.906,8.263 55.901,8.242 55.895,8.221 55.882,8.204 55.872,8.184 55.856,8.165 55.842,8.146 55.824,8.131 55.805,8.115 
					55.786,8.101 55.767,8.09 55.75,8.078 55.729,8.07 55.709,8.06 55.691,8.053 55.677,8.048 55.658,8.046 55.639,8.044 
					55.622,8.046 55.604,8.048 55.587,8.055 55.571,8.064 55.558,8.076 55.558,8.076 55.558,8.076 				"/>
				<polygon fill-rule="evenodd" clip-rule="evenodd" points="55.798,8.491 55.821,8.48 55.447,8.358 55.436,8.395 55.811,8.519 
					55.835,8.51 55.798,8.491 55.798,8.491 				"/>
				<g>
					<polygon fill="none" points="55.871,8.577 55.872,8.598 55.871,8.577 					"/>
					<polygon fill="none" points="56.062,8.377 56.077,8.389 56.062,8.379 					"/>
					<g>
						<polygon fill="none" points="56.077,8.389 56.062,8.379 56.062,8.377 						"/>
						<g>
							<polygon fill="none" points="56.077,8.389 56.062,8.379 56.062,8.377 							"/>
							<polygon points="50.04,8.286 50.043,8.28 50.157,7.98 50.192,7.993 50.082,8.288 50.08,8.299 50.079,8.296 50.04,8.304 
								50.039,8.298 							"/>
							<g>
								<polygon fill="none" points="56.077,8.389 56.062,8.379 56.062,8.377 								"/>
								<polygon fill="#343130" points="51.871,8.992 51.862,8.995 51.862,8.995 								"/>
								<g>
									<polygon fill="none" points="51.878,9.009 51.892,9.022 51.878,9.009 									"/>
									<polygon fill="none" points="56.077,8.389 56.062,8.379 56.062,8.377 									"/>
									<polygon fill="none" points="51.388,9.429 51.388,9.429 51.388,9.429 51.369,9.423 51.387,9.423 									"/>
									<path d="M50.054,8.351l0.007,0.018V8.368l0.028-0.007l-0.007,0.02l0.836-0.027h0.02l0.021,0.007l0.021,0.007l0.021,0.008
										l0.021,0.013l0.016,0.011l0.012,0.013l0.007,0.014l-0.019,0.007l0.331,1.002h0.019l0.001,0.012h0.031h0.028h0.026
										l0.022-0.004l0.025-0.007l0.022-0.011l0.022-0.02l0.026-0.025V9.379l0.017-0.021l0.017-0.022l0.02-0.023l0.016-0.023
										l0.016-0.029l0.019-0.024l0.014-0.026l0.021-0.028l0.015-0.022l0.021-0.024l0.019-0.024l0.021-0.021l0.018-0.02
										l0.021-0.019l0.02-0.015l0.021-0.012l0.005-0.003l-0.014-0.014l0,0l0.014,0.014l0.023-0.025l0.02-0.019l0.019-0.017
										l0.02-0.017l0.02-0.013l0.019-0.012l0.019-0.011l0.02-0.008l0.019-0.005l0.023-0.009l0.021-0.004l0.025-0.004l0.028-0.005
										l0.029-0.001l0.034-0.004l0.033-0.001l0.001,0.001l3.609-0.27l0.022-0.003l0.017-0.003l0.02-0.004l0.018-0.007l0.016-0.006
										l0.018-0.011l0.017-0.014l0.017-0.015l0.002-0.004l0.062-0.147l-0.031-0.021l0.014,0.015L56.06,8.379l-0.016-0.011
										l-0.017,0.036L56.017,8.41l-0.013,0.006l-0.017,0.006l-0.016,0.003l-0.018,0.004l-0.02,0.004l-3.611,0.269l-0.025,0.002
										l-0.021,0h-0.021L52.23,8.708h-0.023l-0.022,0.003l-0.021,0.003l-0.02,0.004l-0.025,0.003l-0.02,0.003l-0.022,0.005
										l-0.024,0.006l-0.02,0.005l-0.025,0.008l-0.021,0.009l-0.022,0.01l-0.041,0.026l-0.044,0.04l-0.049,0.048l-0.043,0.053
										L51.745,8.99l-0.037,0.05l-0.035,0.047l-0.03,0.036l-0.018,0.005L51.61,9.131l-0.018,0.002h-0.019h-0.02l-0.016,0
										l-0.019-0.001l-0.018-0.002l-0.331-1l-0.009-0.015L51.15,8.101l-0.014-0.011l-0.023-0.014l-0.019-0.009L51.07,8.061
										l-0.02-0.005l-0.019-0.001l-0.838,0.026l-0.1,0.264V8.341L50.054,8.351z M56.062,8.379V8.377l0.016,0.012L56.062,8.379z"/>
								</g>
							</g>
						</g>
					</g>
				</g>
				<polygon fill-rule="evenodd" clip-rule="evenodd" points="55.936,8.454 55.957,8.448 55.976,8.445 55.993,8.44 56.012,8.434 
					56.027,8.425 56.046,8.416 56.06,8.404 56.077,8.389 56.048,8.363 56.035,8.375 56.021,8.385 56.01,8.394 55.995,8.398 
					55.98,8.403 55.967,8.407 55.95,8.409 55.932,8.411 55.936,8.454 55.936,8.454 				"/>
				<polygon fill-rule="evenodd" clip-rule="evenodd" points="52.326,8.721 55.936,8.454 55.932,8.411 52.322,8.682 52.326,8.721 
					52.326,8.721 				"/>
				<polygon fill-rule="evenodd" clip-rule="evenodd" points="51.973,8.784 51.993,8.775 52.013,8.769 52.039,8.761 52.058,8.753 
					52.081,8.747 52.102,8.744 52.122,8.741 52.146,8.738 52.166,8.733 52.187,8.733 52.211,8.729 52.233,8.728 52.256,8.726 
					52.276,8.724 52.3,8.723 52.326,8.721 52.322,8.682 52.297,8.684 52.276,8.685 52.251,8.685 52.229,8.688 52.206,8.69 
					52.185,8.693 52.163,8.694 52.138,8.696 52.115,8.7 52.095,8.706 52.071,8.709 52.047,8.716 52.025,8.723 52.002,8.73 
					51.977,8.738 51.956,8.749 51.973,8.784 51.973,8.784 51.973,8.784 				"/>
				<polygon fill-rule="evenodd" clip-rule="evenodd" points="51.648,9.141 51.655,9.137 51.673,9.117 51.688,9.098 51.704,9.076 
					51.72,9.052 51.744,9.026 51.763,9 51.782,8.973 51.806,8.947 51.825,8.918 51.847,8.893 51.868,8.871 51.892,8.846 
					51.912,8.826 51.934,8.81 51.952,8.794 51.973,8.784 51.956,8.749 51.932,8.764 51.912,8.777 51.886,8.797 51.861,8.821 
					51.839,8.843 51.819,8.866 51.795,8.896 51.772,8.923 51.753,8.95 51.731,8.977 51.713,9.003 51.691,9.028 51.674,9.052 
					51.655,9.074 51.643,9.093 51.629,9.108 51.636,9.105 51.648,9.141 51.648,9.141 51.648,9.141 				"/>
				<polygon fill="none" points="55.549,8.093 55.558,8.076 55.569,8.062 55.592,8.052 55.618,8.048 55.631,8.049 55.648,8.051 
					55.661,8.053 55.677,8.057 55.694,8.062 55.71,8.067 55.729,8.076 55.746,8.085 55.763,8.092 55.779,8.104 55.793,8.115 
					55.811,8.128 55.825,8.14 55.837,8.154 55.85,8.166 55.861,8.18 55.884,8.206 55.895,8.235 55.9,8.248 55.903,8.259 55.9,8.281 
					55.896,8.299 55.882,8.315 55.864,8.325 55.838,8.33 55.824,8.332 55.809,8.329 55.791,8.327 55.772,8.322 55.757,8.317 
					55.737,8.311 55.72,8.304 55.703,8.292 55.686,8.286 55.667,8.275 55.649,8.264 55.633,8.25 55.62,8.239 55.604,8.225 
					55.591,8.21 55.58,8.197 55.562,8.167 55.551,8.14 55.549,8.131 55.545,8.116 				"/>
				<polygon fill-rule="evenodd" clip-rule="evenodd" fill="#FFFFFF" points="50.957,8.056 51.032,8.055 51.038,8.055 50.397,7.841 
					50.365,7.86 50.957,8.058 50.957,8.058 50.957,8.056 				"/>
				<polygon fill-rule="evenodd" clip-rule="evenodd" fill="#FFFFFF" points="50.957,8.056 50.194,8.081 50.192,8.064 50.189,8.047 
					50.183,8.032 50.178,8.014 50.174,8 50.174,7.987 50.179,7.973 50.192,7.961 50.223,7.941 50.258,7.92 50.294,7.9 50.328,7.88 
					50.36,7.858 50.365,7.86 50.957,8.058 50.957,8.058 50.957,8.056 				"/>
				<polygon fill="#FFFFFF" points="50.494,8.518 51.012,8.489 51.216,8.569 51.286,8.782 51.309,8.856 51.222,8.861 51.138,8.861 
					51.062,8.86 50.99,8.856 50.921,8.847 50.856,8.835 50.797,8.819 50.738,8.803 50.685,8.783 50.63,8.764 50.58,8.741 
					50.53,8.716 50.479,8.691 50.43,8.665 50.38,8.638 50.328,8.61 50.323,8.589 50.32,8.569 50.314,8.548 50.312,8.527 				"/>
				<polygon fill-rule="evenodd" clip-rule="evenodd" fill="#FFFFFF" points="51.8,8.577 51.808,8.585 51.874,8.626 51.896,8.592 
					51.828,8.55 51.835,8.562 51.8,8.577 51.805,8.582 51.808,8.585 51.8,8.577 51.8,8.577 				"/>
				<polygon fill-rule="evenodd" clip-rule="evenodd" fill="#FFFFFF" points="51.207,8.59 51.195,8.577 51.291,8.862 51.328,8.851 
					51.234,8.564 51.223,8.553 51.234,8.564 51.231,8.555 51.223,8.553 51.207,8.59 51.207,8.59 51.207,8.59 				"/>
				<polygon fill-rule="evenodd" clip-rule="evenodd" fill="#FFFFFF" points="51.016,8.508 51.005,8.506 51.207,8.59 51.223,8.553 
					51.021,8.47 51.013,8.47 51.021,8.47 51.019,8.468 51.013,8.47 51.016,8.508 51.016,8.508 51.016,8.508 				"/>
				<polygon fill-rule="evenodd" clip-rule="evenodd" fill="#FFFFFF" points="50.333,8.527 50.313,8.548 51.016,8.508 51.013,8.47 
					50.312,8.51 50.294,8.529 50.312,8.51 50.29,8.51 50.294,8.529 50.333,8.527 50.333,8.527 				"/>
				<polygon fill-rule="evenodd" clip-rule="evenodd" fill="#FFFFFF" points="50.339,8.594 50.347,8.607 50.346,8.597 50.342,8.585 
					50.342,8.577 50.34,8.567 50.34,8.557 50.337,8.545 50.333,8.538 50.333,8.527 50.294,8.529 50.294,8.542 50.295,8.555 
					50.299,8.563 50.3,8.574 50.304,8.582 50.305,8.593 50.309,8.604 50.309,8.614 50.32,8.627 50.309,8.614 50.312,8.624 
					50.32,8.627 50.339,8.594 50.339,8.594 				"/>
				<polygon fill-rule="evenodd" clip-rule="evenodd" fill="#FFFFFF" points="51.291,8.86 51.307,8.835 51.222,8.841 51.138,8.843 
					51.064,8.84 50.991,8.836 50.926,8.827 50.86,8.817 50.802,8.801 50.745,8.786 50.688,8.766 50.639,8.744 50.588,8.723 
					50.537,8.699 50.488,8.674 50.44,8.648 50.388,8.622 50.339,8.594 50.32,8.627 50.37,8.654 50.419,8.682 50.469,8.711 
					50.52,8.734 50.571,8.759 50.624,8.781 50.677,8.803 50.733,8.824 50.794,8.84 50.854,8.854 50.919,8.866 50.988,8.875 
					51.06,8.882 51.14,8.882 51.222,8.879 51.312,8.875 51.328,8.851 51.312,8.875 51.338,8.873 51.328,8.851 51.291,8.862 
					51.291,8.862 51.291,8.86 				"/>
				<g>
					<polygon fill="none" points="51.653,9.115 51.669,9.128 51.653,9.115 					"/>
					<polygon fill="none" points="51.521,9.108 51.518,9.108 51.518,9.108 					"/>
					<polygon fill="none" points="51.194,8.137 51.72,8.313 51.194,8.137 					"/>
				</g>
				<polygon fill-rule="evenodd" clip-rule="evenodd" fill="#FFFFFF" points="52.322,8.682 52.294,8.683 52.265,8.687 52.237,8.688 
					52.21,8.69 52.182,8.694 52.153,8.699 52.123,8.704 52.096,8.709 52.067,8.716 52.043,8.724 52.014,8.733 51.991,8.743 
					51.967,8.753 51.942,8.764 51.922,8.779 51.901,8.796 51.926,8.826 51.943,8.812 51.963,8.801 51.982,8.788 52.005,8.779 
					52.028,8.768 52.052,8.762 52.08,8.754 52.104,8.747 52.131,8.744 52.157,8.738 52.185,8.736 52.211,8.731 52.241,8.726 
					52.271,8.724 52.297,8.721 52.326,8.721 52.322,8.682 52.322,8.682 52.322,8.682 				"/>
				<polygon fill-rule="evenodd" clip-rule="evenodd" fill="#FFFFFF" points="55.932,8.411 52.322,8.682 52.326,8.721 55.936,8.454 
					55.932,8.411 55.932,8.411 				"/>
				<polygon fill-rule="evenodd" clip-rule="evenodd" fill="#FFFFFF" points="55.998,8.191 56.014,8.213 56.028,8.232 56.036,8.251 
					56.048,8.273 56.055,8.29 56.056,8.309 56.056,8.325 56.056,8.34 56.051,8.354 56.045,8.365 56.036,8.377 56.021,8.388 
					56.009,8.395 55.985,8.403 55.963,8.409 55.932,8.411 55.936,8.454 55.968,8.45 55.998,8.441 56.021,8.433 56.045,8.419 
					56.064,8.405 56.079,8.387 56.088,8.37 56.095,8.348 56.094,8.326 56.095,8.304 56.089,8.282 56.083,8.259 56.075,8.237 
					56.062,8.213 56.046,8.188 56.028,8.169 55.998,8.191 55.998,8.191 				"/>
				<polygon fill-rule="evenodd" clip-rule="evenodd" fill="#FFFFFF" points="55.567,7.986 55.601,7.985 55.632,7.987 55.667,7.995 
					55.699,8 55.729,8.009 55.76,8.02 55.79,8.033 55.817,8.047 55.847,8.062 55.873,8.08 55.903,8.097 55.921,8.114 55.944,8.132 
					55.964,8.154 55.98,8.174 55.998,8.191 56.028,8.169 56.012,8.146 55.99,8.125 55.97,8.104 55.945,8.084 55.919,8.064 
					55.895,8.047 55.867,8.03 55.838,8.012 55.806,7.998 55.774,7.985 55.741,7.973 55.708,7.961 55.676,7.955 55.64,7.95 
					55.601,7.947 55.567,7.947 55.567,7.986 55.567,7.986 				"/>
				<polygon fill-rule="evenodd" clip-rule="evenodd" fill="#FFFFFF" points="52.373,8.096 55.567,7.986 55.567,7.947 52.374,8.058 
					52.373,8.096 52.373,8.096 				"/>
				<polygon fill-rule="evenodd" clip-rule="evenodd" fill="#FFFFFF" points="51.869,8.017 51.898,8.027 51.933,8.035 51.963,8.045 
					51.994,8.052 52.028,8.06 52.058,8.067 52.095,8.072 52.123,8.077 52.157,8.083 52.189,8.085 52.221,8.091 52.253,8.091 
					52.283,8.096 52.315,8.094 52.346,8.097 52.373,8.096 52.374,8.058 52.344,8.058 52.314,8.057 52.285,8.056 52.256,8.053 
					52.224,8.049 52.193,8.047 52.163,8.044 52.131,8.038 52.099,8.032 52.067,8.027 52.036,8.02 52.005,8.014 51.974,8.007 
					51.938,7.997 51.914,7.99 51.882,7.979 51.868,8.017 51.868,8.017 51.869,8.017 				"/>
				<polygon fill-rule="evenodd" clip-rule="evenodd" fill="#FFFFFF" points="50.791,7.72 50.846,7.713 50.899,7.707 50.948,7.703 
					50.993,7.701 51.036,7.7 51.073,7.704 51.113,7.705 51.146,7.708 51.181,7.713 51.214,7.72 51.243,7.727 51.271,7.736 
					51.298,7.745 51.321,7.755 51.351,7.766 51.37,7.777 51.397,7.79 51.422,7.803 51.449,7.817 51.475,7.832 51.498,7.846 
					51.526,7.863 51.553,7.875 51.58,7.893 51.611,7.907 51.642,7.925 51.674,7.939 51.708,7.955 51.745,7.972 51.782,7.985 
					51.825,8.002 51.868,8.017 51.882,7.979 51.839,7.965 51.796,7.95 51.76,7.935 51.723,7.92 51.688,7.903 51.659,7.89 
					51.629,7.871 51.6,7.857 51.572,7.842 51.544,7.827 51.52,7.812 51.493,7.795 51.467,7.781 51.44,7.769 51.416,7.756 
					51.391,7.742 51.366,7.729 51.339,7.718 51.311,7.707 51.282,7.698 51.252,7.688 51.22,7.681 51.188,7.676 51.15,7.668 
					51.115,7.664 51.078,7.663 51.034,7.663 50.991,7.663 50.943,7.664 50.894,7.668 50.842,7.675 50.786,7.681 50.791,7.72 
					50.791,7.72 50.791,7.72 				"/>
				<polygon fill-rule="evenodd" clip-rule="evenodd" fill="#FFFFFF" points="50.203,7.98 50.233,7.958 50.269,7.939 50.305,7.918 
					50.34,7.896 50.372,7.877 50.409,7.856 50.443,7.838 50.478,7.822 50.517,7.805 50.555,7.788 50.591,7.771 50.629,7.758 
					50.671,7.748 50.709,7.736 50.75,7.727 50.791,7.72 50.786,7.681 50.742,7.688 50.699,7.698 50.657,7.71 50.617,7.72 
					50.578,7.737 50.536,7.751 50.501,7.767 50.462,7.785 50.424,7.803 50.386,7.824 50.353,7.842 50.316,7.862 50.283,7.883 
					50.248,7.903 50.215,7.924 50.181,7.946 50.201,7.979 50.201,7.979 50.203,7.98 				"/>
				<polygon fill-rule="evenodd" clip-rule="evenodd" fill="#FFFFFF" points="50.194,8.062 50.216,8.079 50.209,8.061 50.205,8.041 
					50.202,8.026 50.197,8.009 50.194,7.998 50.192,7.991 50.196,7.982 50.201,7.979 50.181,7.946 50.164,7.961 50.157,7.983 
					50.153,8.002 50.16,8.02 50.162,8.037 50.169,8.053 50.173,8.069 50.176,8.084 50.194,8.099 50.176,8.084 50.178,8.099 
					50.194,8.099 50.194,8.062 50.194,8.062 				"/>
				<g>
					<polygon fill="none" points="51.67,8.206 51.672,8.206 51.665,8.226 					"/>
					<polygon fill="#FFFFFF" points="51.672,8.204 51.672,8.206 51.67,8.206 					"/>
					<polygon fill="#FFFFFF" points="51.662,8.213 51.67,8.206 51.665,8.226 					"/>
					<g>
						<polygon fill="none" points="55.558,8.076 55.569,8.062 55.592,8.052 55.618,8.048 55.631,8.049 55.648,8.051 55.661,8.053 
							55.677,8.057 55.694,8.062 55.71,8.067 55.729,8.076 55.746,8.085 55.763,8.092 55.779,8.104 55.793,8.115 55.811,8.128 
							55.825,8.14 55.837,8.154 55.85,8.166 55.861,8.18 55.884,8.206 55.895,8.235 55.9,8.248 55.903,8.259 55.9,8.281 
							55.896,8.299 55.882,8.315 55.864,8.325 55.838,8.33 55.824,8.332 55.809,8.329 55.791,8.327 55.772,8.322 55.757,8.317 
							55.737,8.311 55.72,8.304 55.703,8.292 55.686,8.286 55.667,8.275 55.649,8.264 55.633,8.25 55.62,8.239 55.604,8.225 
							55.591,8.21 55.58,8.197 55.562,8.167 55.551,8.14 55.549,8.131 55.545,8.116 55.549,8.093 						"/>
						<polygon fill="none" points="52.076,8.204 52.076,8.204 52.058,8.211 						"/>
						<polygon fill="none" points="52.206,8.531 52.22,8.541 52.221,8.543 52.185,8.585 51.884,8.607 51.819,8.569 51.819,8.568 
							51.835,8.562 51.708,8.223 51.729,8.202 52.004,8.186 52.062,8.216 52.204,8.552 						"/>
						<polygon fill="none" points="51.177,8.101 51.177,8.101 51.683,8.27 						"/>
						<g>
							<polygon fill="none" points="55.558,8.076 55.569,8.062 55.592,8.052 55.618,8.048 55.631,8.049 55.648,8.051 55.661,8.053 
								55.677,8.057 55.694,8.062 55.71,8.067 55.729,8.076 55.746,8.085 55.763,8.092 55.779,8.104 55.793,8.115 55.811,8.128 
								55.825,8.14 55.837,8.154 55.85,8.166 55.861,8.18 55.884,8.206 55.895,8.235 55.9,8.248 55.903,8.259 55.9,8.281 
								55.896,8.299 55.882,8.315 55.864,8.325 55.838,8.33 55.824,8.332 55.809,8.329 55.791,8.327 55.772,8.322 55.757,8.317 
								55.737,8.311 55.72,8.304 55.703,8.292 55.686,8.286 55.667,8.275 55.649,8.264 55.633,8.25 55.62,8.239 55.604,8.225 
								55.591,8.21 55.58,8.197 55.562,8.167 55.551,8.14 55.549,8.131 55.545,8.116 55.549,8.093 							"/>
							<polygon fill="none" points="52.004,8.186 52.062,8.216 52.204,8.552 52.206,8.531 52.22,8.541 52.221,8.543 52.185,8.585 
								51.884,8.607 51.819,8.569 51.819,8.568 51.835,8.562 51.708,8.223 51.729,8.202 							"/>
							<polygon fill="none" points="51.177,8.101 51.177,8.101 51.683,8.27 							"/>
							<g>
								<polygon fill="none" points="55.558,8.076 55.569,8.062 55.592,8.052 55.618,8.048 55.631,8.049 55.648,8.051 55.661,8.053 
									55.677,8.057 55.694,8.062 55.71,8.067 55.729,8.076 55.746,8.085 55.763,8.092 55.779,8.104 55.793,8.115 55.811,8.128 
									55.825,8.14 55.837,8.154 55.85,8.166 55.861,8.18 55.884,8.206 55.895,8.235 55.9,8.248 55.903,8.259 55.9,8.281 
									55.896,8.299 55.882,8.315 55.864,8.325 55.838,8.33 55.824,8.332 55.809,8.329 55.791,8.327 55.772,8.322 55.757,8.317 
									55.737,8.311 55.72,8.304 55.703,8.292 55.686,8.286 55.667,8.275 55.649,8.264 55.633,8.25 55.62,8.239 55.604,8.225 
									55.591,8.21 55.58,8.197 55.562,8.167 55.551,8.14 55.549,8.131 55.545,8.116 55.549,8.093 								"/>
								<polygon fill="none" points="52.004,8.186 52.062,8.216 52.204,8.552 52.206,8.531 52.22,8.541 52.221,8.543 52.186,8.585 
									52.185,8.568 51.883,8.589 51.896,8.592 51.887,8.607 51.884,8.607 51.819,8.569 51.819,8.568 51.835,8.562 51.708,8.223 
									51.729,8.202 								"/>
								<polygon fill="none" points="51.177,8.101 51.177,8.101 51.683,8.27 								"/>
								<g>
									<polygon fill="none" points="52.215,8.477 52.785,8.668 52.215,8.477 									"/>
									<polygon fill="none" points="52.201,8.441 52.858,8.662 52.201,8.441 									"/>
									<polygon fill="none" points="55.558,8.076 55.569,8.062 55.592,8.052 55.618,8.048 55.631,8.049 55.648,8.051 
										55.661,8.053 55.677,8.057 55.694,8.062 55.71,8.067 55.729,8.076 55.746,8.085 55.763,8.092 55.779,8.104 55.793,8.115 
										55.811,8.128 55.825,8.14 55.837,8.154 55.85,8.166 55.861,8.18 55.884,8.206 55.895,8.235 55.9,8.248 55.903,8.259 
										55.9,8.281 55.896,8.299 55.882,8.315 55.864,8.325 55.838,8.33 55.824,8.332 55.809,8.329 55.791,8.327 55.772,8.322 
										55.757,8.317 55.737,8.311 55.72,8.304 55.703,8.292 55.686,8.286 55.667,8.275 55.649,8.264 55.633,8.25 55.62,8.239 
										55.604,8.225 55.591,8.21 55.58,8.197 55.562,8.167 55.551,8.14 55.549,8.131 55.545,8.116 55.549,8.093 									"/>
									<polygon fill="none" points="52.004,8.186 52.062,8.216 52.204,8.552 52.206,8.531 52.22,8.541 52.221,8.543 52.186,8.585 
										52.185,8.585 51.887,8.607 51.884,8.607 51.819,8.569 51.819,8.568 51.835,8.562 51.708,8.223 51.729,8.202 									"/>
									<polygon fill="none" points="51.177,8.101 51.177,8.101 51.683,8.27 									"/>
									<polygon fill="#FFFFFF" points="52.201,8.441 52.858,8.662 52.785,8.667 52.785,8.668 52.215,8.477 									"/>
									<g>
										<polygon fill="none" points="55.558,8.076 55.569,8.062 55.592,8.052 55.618,8.048 55.631,8.049 55.648,8.051 
											55.661,8.053 55.677,8.057 55.694,8.062 55.71,8.067 55.729,8.076 55.746,8.085 55.763,8.092 55.779,8.104 55.793,8.115 
											55.811,8.128 55.825,8.14 55.837,8.154 55.85,8.166 55.861,8.18 55.884,8.206 55.895,8.235 55.9,8.248 55.903,8.259 
											55.9,8.281 55.896,8.299 55.882,8.315 55.864,8.325 55.838,8.33 55.824,8.332 55.809,8.329 55.791,8.327 55.772,8.322 
											55.757,8.317 55.737,8.311 55.72,8.304 55.703,8.292 55.686,8.286 55.667,8.275 55.649,8.264 55.633,8.25 55.62,8.239 
											55.604,8.225 55.591,8.21 55.58,8.197 55.562,8.167 55.551,8.14 55.549,8.131 55.545,8.116 55.549,8.093 										"/>
										<polygon fill="none" points="52.004,8.186 52.062,8.216 52.2,8.541 52.176,8.568 51.883,8.589 51.896,8.592 51.887,8.607 
											51.884,8.607 51.819,8.569 51.819,8.568 51.835,8.562 51.708,8.223 51.729,8.202 										"/>
										<polygon fill="none" points="52.206,8.531 52.22,8.541 52.22,8.541 										"/>
										<polygon fill="none" points="51.177,8.101 51.177,8.101 51.683,8.27 										"/>
										<path fill="#FFFFFF" d="M50.194,8.099l0.838-0.027l0.016,0.003l0.017,0.005l0.021,0.006l0.021,0.006l0.018,0.012
											l0.012,0.009l0.009,0.013l0.005,0.005l0.334,1.004l0.004,0.015l0.018,0l0.017-0.002l0.017,0.002l0.026,0.002l0.021-0.001
											l0.022,0.002l0.02-0.005l0.021-0.007l0.02-0.012l0.021-0.022l0.018-0.024l0.018-0.021l0.017-0.02l0.014-0.02l0.014-0.017
											l0.013-0.018l0.014-0.02l0.013-0.018l0.015-0.017l0.012-0.018l0.018-0.016l0.016-0.016l0.018-0.019l0.018-0.018
											l0.022-0.02l-0.011-0.015l0.018-0.015l0.02-0.014l0.024-0.01l0.02-0.012l0.026-0.01l0.026-0.007l0.024-0.01l0.028-0.006
											l0.025-0.004l0.026-0.005l0.031-0.005l0.026-0.003l0.028-0.003l0.028-0.001l0.027-0.003l0.028-0.001l0.462-0.034
											l-0.57-0.191l-0.014-0.036l0,0l0.657,0.22l3.076-0.229l0.056-0.009l0.043-0.021l0.029-0.028l0.013-0.033V8.307
											l0.001-0.002l-0.012-0.041l-0.02-0.042l-0.029-0.043l-0.018-0.02l-0.021-0.021l-0.021-0.021L55.936,8.1L55.91,8.081
											l-0.025-0.017l-0.029-0.018l-0.027-0.017l-0.03-0.012l-0.029-0.014l-0.032-0.01L55.703,7.98l-0.034-0.005l-0.033-0.007
											l-0.035-0.004l-0.033,0.001l-0.465,0.017l-2.729,0.093h-0.03l-0.028,0.001l-0.031-0.001l-0.031-0.004L52.224,8.07
											l-0.032-0.003l-0.03-0.005l-0.033-0.004l-0.032-0.005l-0.032-0.006L52.032,8.04l-0.033-0.008l-0.032-0.008l-0.031-0.007
											l-0.029-0.009l-0.029-0.008l-0.046-0.016L51.79,7.968l-0.037-0.015l-0.037-0.014l-0.033-0.018L51.65,7.907L51.619,7.89
											L51.59,7.877l-0.027-0.019l-0.026-0.015l-0.028-0.015l-0.023-0.015L51.457,7.8l-0.026-0.014l-0.024-0.013l-0.023-0.015
											l-0.026-0.013l-0.027-0.01l-0.023-0.009l-0.029-0.009l-0.032-0.01L51.217,7.7l-0.033-0.005l-0.036-0.006l-0.034-0.002
											l-0.039-0.004l-0.04,0l-0.043,0l-0.045,0.002l-0.051,0.005l-0.052,0.006l-0.055,0.006l-0.042,0.006l-0.041,0.01
											l-0.042,0.009l-0.038,0.014l-0.041,0.015l-0.041,0.016l-0.035,0.015l-0.038,0.017l-0.037,0.018l-0.036,0.021l0.583,0.194
											l-0.786,0.026V8.099z M55.545,8.116l0.004-0.023l0.009-0.017l0.012-0.013l0.022-0.011l0.026-0.004l0.013,0.001
											l0.018,0.002l0.013,0.002l0.016,0.004l0.018,0.005l0.016,0.005l0.019,0.008l0.018,0.01l0.017,0.007l0.017,0.012
											l0.014,0.011l0.018,0.014l0.015,0.011l0.012,0.014l0.013,0.012l0.012,0.015l0.022,0.026l0.011,0.029L55.9,8.248
											l0.003,0.011L55.9,8.281l-0.004,0.019l-0.015,0.016l-0.018,0.01L55.838,8.33l-0.014,0.001l-0.016-0.003l-0.018-0.001
											l-0.019-0.005l-0.016-0.005l-0.02-0.007L55.72,8.304l-0.017-0.012l-0.018-0.006l-0.019-0.011l-0.018-0.011L55.633,8.25
											L55.62,8.239l-0.017-0.015L55.591,8.21L55.58,8.197l-0.019-0.029L55.551,8.14l-0.002-0.008L55.545,8.116z M52.22,8.541
											L52.22,8.541l-0.014-0.01L52.22,8.541z M51.708,8.223l0.021-0.021l0.275-0.016l0.058,0.03L52.2,8.541l-0.024,0.027
											l-0.293,0.021l0.014,0.002l-0.01,0.015h-0.003l-0.064-0.038V8.568l0.016-0.007L51.708,8.223z"/>
									</g>
								</g>
							</g>
						</g>
					</g>
				</g>
				<polygon fill-rule="evenodd" clip-rule="evenodd" points="55.358,8.325 55.343,8.315 55.339,8.299 55.363,8.294 55.367,8.31 
					55.354,8.298 55.358,8.325 55.358,8.325 				"/>
				<polygon fill-rule="evenodd" clip-rule="evenodd" points="55.392,8.306 55.388,8.311 55.382,8.316 55.374,8.32 55.367,8.324 
					55.358,8.325 55.354,8.298 55.358,8.299 55.363,8.296 55.369,8.294 55.37,8.292 55.368,8.296 55.392,8.307 55.392,8.307 
					55.392,8.306 				"/>
				<polygon fill-rule="evenodd" clip-rule="evenodd" points="55.326,8.154 55.327,8.155 55.335,8.169 55.351,8.184 55.366,8.201 
					55.38,8.22 55.392,8.239 55.398,8.261 55.398,8.286 55.392,8.307 55.368,8.296 55.373,8.282 55.372,8.268 55.367,8.25 
					55.358,8.234 55.345,8.216 55.333,8.202 55.317,8.186 55.305,8.174 55.308,8.174 55.326,8.154 55.326,8.154 				"/>
				<polygon fill-rule="evenodd" clip-rule="evenodd" points="55.103,8.091 55.101,8.09 55.132,8.091 55.162,8.091 55.191,8.097 
					55.219,8.099 55.244,8.107 55.271,8.12 55.298,8.134 55.326,8.154 55.308,8.174 55.281,8.156 55.259,8.144 55.237,8.131 
					55.212,8.125 55.188,8.121 55.16,8.117 55.131,8.116 55.103,8.116 55.104,8.116 55.101,8.092 55.101,8.092 55.103,8.091 				"/>
				<polygon fill-rule="evenodd" clip-rule="evenodd" points="52.756,8.214 52.767,8.206 55.101,8.092 55.104,8.116 52.771,8.233 
					52.782,8.226 52.756,8.214 52.756,8.214 				"/>
				<polygon fill-rule="evenodd" clip-rule="evenodd" points="52.703,8.295 52.677,8.288 52.679,8.27 52.684,8.255 52.69,8.239 
					52.701,8.229 52.712,8.221 52.729,8.215 52.746,8.208 52.767,8.206 52.771,8.233 52.751,8.236 52.734,8.24 52.726,8.242 
					52.718,8.248 52.713,8.255 52.707,8.263 52.703,8.273 52.703,8.29 52.679,8.282 52.703,8.295 52.703,8.295 				"/>
				<g>
					<polygon fill="none" points="52.767,8.208 52.771,8.233 52.767,8.208 					"/>
					<g>
						<polygon fill="none" points="52.703,8.29 52.707,8.275 52.713,8.259 52.721,8.246 52.732,8.239 52.748,8.237 52.768,8.233 
							52.771,8.233 55.104,8.116 55.144,8.119 55.175,8.116 55.207,8.121 55.234,8.127 55.26,8.14 55.282,8.153 55.305,8.174 
							55.33,8.201 55.351,8.226 55.367,8.25 55.376,8.27 55.376,8.282 55.37,8.292 55.354,8.301 55.327,8.308 55.287,8.313 
							52.89,8.436 52.889,8.436 52.854,8.434 52.821,8.425 52.792,8.411 52.765,8.398 52.745,8.375 52.731,8.354 52.718,8.334 
							52.707,8.317 52.704,8.305 						"/>
						<g>
							<path fill="none" d="M52.707,8.275L52.703,8.29l0.001,0.015l0.003,0.013l0.011,0.017l0.014,0.021l0.014,0.021l0.02,0.022
								l0.027,0.013l0.029,0.014l0.033,0.009l0.034,0.001l0.001,0l2.397-0.123l0.04-0.005l0.026-0.007l0.017-0.009l0.006-0.01V8.27
								l-0.009-0.02l-0.017-0.025L55.33,8.201l-0.025-0.027l-0.022-0.021L55.26,8.14l-0.025-0.013l-0.027-0.006l-0.032-0.004
								l-0.031,0.002l-0.04-0.002l-2.333,0.117l-0.003,0l-0.02,0.003l-0.016,0.002l-0.012,0.007l-0.008,0.013L52.707,8.275z
								 M52.74,8.26l2.333-0.117V8.14l0.031,0.002h0.03l0.028,0.005l0.028,0.004l0.027,0.007l0.024,0.012l0.026,0.014l0.028,0.021
								l0.009,0.012l0.01,0.008l0.011,0.011l0.004,0.008l0.011,0.012l0.007,0.013l0.008,0.01l0.007,0.01v0.004l-0.024,0.005v0.005
								l-0.005-0.013l-0.007-0.01l-0.009-0.009l-0.008-0.01l-0.007-0.009l-0.007-0.01l-0.01-0.009l-0.013-0.01l0.003-0.001
								l-0.021-0.016l-0.023-0.016l-0.021-0.009l-0.023-0.006L55.16,8.172l-0.028-0.003l-0.029-0.001h-0.028l-2.333,0.115
								L52.74,8.26z"/>
							<g>
								<path fill="none" d="M52.707,8.275L52.703,8.29l0.001,0.015l0.003,0.013l0.011,0.017l0.014,0.021l0.014,0.021l0.02,0.022
									l0.027,0.013l0.029,0.014l0.033,0.009l0.034,0.001l0.001,0l2.397-0.123l0.04-0.005l0.026-0.007l0.017-0.009l0.006-0.01V8.27
									l-0.009-0.02l-0.017-0.025L55.33,8.201l-0.025-0.027l-0.022-0.021L55.26,8.14l-0.025-0.013l-0.027-0.006l-0.032-0.004
									l-0.031,0.002l-0.04-0.002l-2.333,0.117l-0.003,0l-0.02,0.003l-0.016,0.002l-0.012,0.007l-0.008,0.013L52.707,8.275z"/>
								<g>
									<polygon fill="none" points="52.713,8.259 52.721,8.246 52.732,8.239 52.748,8.237 52.761,8.235 52.741,8.271 
										55.074,8.154 55.104,8.154 55.132,8.155 55.161,8.161 55.188,8.164 55.213,8.17 55.238,8.18 55.264,8.197 55.288,8.215 
										55.297,8.226 55.305,8.235 55.313,8.245 55.324,8.254 55.33,8.265 55.338,8.276 55.344,8.286 55.351,8.298 55.354,8.302 
										55.327,8.308 55.287,8.313 52.89,8.436 52.889,8.436 52.854,8.434 52.821,8.425 52.792,8.411 52.765,8.398 52.745,8.375 
										52.731,8.354 52.718,8.334 52.707,8.317 52.704,8.305 52.703,8.29 52.707,8.275 									"/>
									<polygon points="55.344,8.286 55.338,8.276 55.33,8.265 55.324,8.254 55.313,8.245 55.305,8.235 55.297,8.226 
										55.288,8.215 55.264,8.197 55.238,8.18 55.213,8.17 55.188,8.164 55.161,8.161 55.132,8.155 55.104,8.154 55.074,8.154 
										52.741,8.271 52.761,8.235 52.768,8.233 52.771,8.233 55.104,8.116 55.144,8.119 55.175,8.116 55.207,8.121 55.234,8.127 
										55.26,8.14 55.282,8.153 55.305,8.174 55.33,8.201 55.351,8.226 55.367,8.25 55.376,8.27 55.376,8.282 55.37,8.292 
										55.354,8.301 55.354,8.302 55.351,8.298 									"/>
									<g>
										<polygon fill="none" points="52.708,8.273 52.711,8.273 52.722,8.273 52.741,8.271 52.761,8.235 52.768,8.233 
											52.771,8.233 55.104,8.116 55.144,8.119 55.175,8.116 55.207,8.121 55.234,8.127 55.26,8.14 55.282,8.153 55.305,8.174 
											55.33,8.201 55.351,8.226 55.367,8.25 55.376,8.27 55.376,8.282 55.37,8.292 55.354,8.301 55.354,8.302 55.327,8.308 
											55.287,8.313 52.89,8.436 52.889,8.436 52.854,8.434 52.821,8.425 52.792,8.411 52.765,8.398 52.745,8.375 52.731,8.354 
											52.718,8.334 52.707,8.317 52.704,8.305 52.703,8.29 52.707,8.275 										"/>
										<path d="M52.677,8.288l0.002,0.022l0.005,0.016l0.007,0.022l0.015,0.025l0.021,0.021l0.024,0.022l0.03,0.02l0.031,0.015
											l0.036,0.01h0.042l2.397-0.123l0.044-0.004l0.032-0.007l0.024-0.016l0.014-0.021L55.4,8.266l-0.009-0.026l-0.018-0.025
											l-0.025-0.031l-0.021-0.028l-0.028-0.023l-0.028-0.017l-0.028-0.013l-0.03-0.005L55.178,8.09h-0.037l-0.04,0.002
											l-2.334,0.114v0.002l-0.025,0l-0.023,0.01l-0.016,0.015L52.688,8.25l-0.007,0.016L52.677,8.288z M52.703,8.29l0.004-0.015
											l0.001-0.002h0.003h0.011l0.02-0.002l0.02-0.036l0.007-0.001l0.003,0l2.333-0.117l0.04,0.002l0.031-0.002l0.032,0.004
											l0.027,0.006L55.26,8.14l0.022,0.014l0.022,0.021l0.025,0.027l0.021,0.025l0.017,0.025l0.009,0.02v0.012l-0.006,0.01
											l-0.017,0.009v0.001l-0.026,0.006l-0.04,0.005L52.89,8.436l-0.001,0l-0.034-0.001l-0.033-0.009l-0.029-0.014l-0.027-0.013
											l-0.02-0.022l-0.014-0.021l-0.014-0.021l-0.011-0.017l-0.003-0.013L52.703,8.29z"/>
									</g>
								</g>
							</g>
						</g>
					</g>
				</g>
			</g>
		</g>
		<text transform="matrix(1 0 0 1 49.0742 1.7119)"><tspan x="0" y="0" fill="#121110" font-family="'Arial-BoldMT'" font-size="1.6489">0.75 Small Ring</tspan><tspan x="13.01" y="0" fill="#121110" font-family="'Arial-BoldMT'" font-size="1.6489" letter-spacing="3">	</tspan><tspan x="0" y="1.884" fill="#121110" font-family="'Arial-BoldMT'" font-size="1.6489">www.thegamecrafter.com</tspan></text>
	</g>
	<line fill="none" stroke="#C82127" stroke-width="0.5" x1="28.636" y1="36.815" x2="53.928" y2="36.815"/>
</g>
</svg>
